<svg id="Capa_1" data-name="Capa 1" xmlns="http://www.w3.org/2000/svg" viewBox="0 0 361 305"><path d="M137.17,189.83c-22.21-11.28-38.46-28.65-46-53-4.68-15.49-9.81-30.07-8.35-46.42,1.19-8,2.44-26.13,8.84-32C96,54.33,103.21,58,110,58.05c.29,26.37,34.54,37.49,57.27,38.77" style="fill:#c19526"/><path d="M240.52,95.49c24.24,5.72,44.14,18.76,57.25,40.65,8.2,14,16.63,26.9,19.07,43.15.72,8,3.8,26-1,33.17-3.26,5-11.18,3.11-17.81,4.68-6.51-25.56-42.42-28.29-64.8-24.17" style="fill:#c19526"/><rect x="211.13" y="250.62" width="8.51" height="37.03" style="fill:#a97c2c"/><rect x="171.48" y="250.62" width="8.51" height="37.03" style="fill:#a97c2c"/><path d="M279,180c0,40.79-37.75,73.86-84.33,73.86h0c-46.57,0-84.33-33.07-84.33-73.86V145.93c0-40.79,37.76-58.61,84.33-58.61h0c46.58,0,84.33,17.82,84.33,58.61Z" style="fill:#f6cc0f"/><path d="M214,88.43c6.58,44.26,6.86,91.1-5.07,134.4a307.88,307.88,0,0,1-10.4,30.94C243.32,252,279,219.64,279,180V145.93C279,111,251.27,92.89,214,88.43Z" style="fill:#c19526"/><rect x="232.79" y="95.92" width="16.26" height="111.42" style="fill:#77401b"/><rect x="141.29" y="95.92" width="16.26" height="111.42" style="fill:#77401b"/><path d="M230.54,136c0,11.3,7.91,20.47,17.68,20.47s17.67-9.17,17.67-20.47-7.91-20.47-17.67-20.47S230.54,124.69,230.54,136Z" style="fill:#fbc083"/><path d="M233.59,139.84c0,7.23,5.07,13.09,11.31,13.09s11.31-5.86,11.31-13.09-5.06-13.1-11.31-13.1S233.59,132.6,233.59,139.84Z" style="fill:#d09559"/><ellipse cx="139.87" cy="136" rx="17.68" ry="20.47" style="fill:#fbc083"/><path d="M154.49,139.84c0,7.23-5.06,13.09-11.31,13.09s-11.31-5.86-11.31-13.09,5.06-13.1,11.31-13.1S154.49,132.6,154.49,139.84Z" style="fill:#d09559"/><ellipse cx="194.67" cy="135.65" rx="47.78" ry="57.94" style="fill:#fbc083"/><path d="M214.58,83c9.55,10.6,15.54,25.83,15.54,42.76,0,32-21.39,57.94-47.78,57.94a40.68,40.68,0,0,1-19.91-5.27c8.5,9.43,19.82,15.18,32.24,15.18,26.39,0,47.78-25.94,47.78-57.94C242.45,112.27,231,92.14,214.58,83Z" style="fill:#d09559"/><path d="M227.61,136.05c0,7.35-2.86,13.31-6.39,13.31s-6.39-6-6.39-13.31,2.86-13.32,6.39-13.32S227.61,128.69,227.61,136.05Z"/><path d="M226.23,132.71c0,2.6-1,4.71-2.14,4.71s-2.14-2.11-2.14-4.71,1-4.7,2.14-4.7S226.23,130.11,226.23,132.71Z" style="fill:#fff"/><path d="M173.48,136.05c0,7.35-2.87,13.31-6.39,13.31s-6.4-6-6.4-13.31,2.87-13.32,6.4-13.32S173.48,128.69,173.48,136.05Z"/><path d="M172.1,132.71c0,2.6-1,4.71-2.14,4.71s-2.14-2.11-2.14-4.71,1-4.7,2.14-4.7S172.1,130.11,172.1,132.71Z" style="fill:#fff"/><rect x="175.58" y="167.52" width="38.81" height="18.8" style="fill:#fff"/><path d="M174.61,180.26c0,.4,10,.72,22.41.72s22.41-.32,22.41-.72-10-.71-22.41-.71S174.61,179.87,174.61,180.26Z" style="fill:#6f6f6f"/><path d="M243.44,122.75c-.13.56-.29,1.21-.46,1.94a56.48,56.48,0,0,0-2.59-5.19Z" style="fill:#dc4726"/><path d="M208.37,176.51c2.29-11.4-1.52-16.74,10-15.36,15.13,1.81,22.08-25.94,24.59-36.46,4,8.87,9.29,23.74,11.13,32.27.16.83.28,1.63.37,2.43,4.46,3.46,8.58,7.73,11.07,13.05-3.62-.78-7.93-2.28-11.62-3.12-.06.25-.12.51-.2.77,2.38,5.4,6.44,10.84,5.72,17-3.47-2.47-6.49-5.87-9.75-8.79a29.87,29.87,0,0,1-2.4,2.91c.42,5.4-.44,10.58-3.86,14.84-1.64-2.34-2.5-5.53-3.13-8.95-1,.71-2.12,1.38-3.22,2a48,48,0,0,1-5.85,10.18,27.69,27.69,0,0,1-.64-6.84c-8.36,3.81-17.57,6.4-25.28,8.46C204.56,192.8,206.85,183.84,208.37,176.51Z" style="fill:#dc4726"/><path d="M147.9,122.75c.13.56.29,1.21.46,1.94,1-2.14,1.85-3.93,2.59-5.19Z" style="fill:#dc4726"/><path d="M183,176.51c-2.29-11.4,1.52-16.74-10-15.36-15.13,1.81-22.08-25.94-24.59-36.46-4,8.87-9.29,23.74-11.13,32.27-.16.83-.27,1.63-.37,2.43-4.46,3.46-8.58,7.73-11.07,13.05,3.62-.78,7.93-2.28,11.62-3.12.06.25.12.51.2.77-2.38,5.4-6.44,10.84-5.72,17,3.47-2.47,6.49-5.87,9.75-8.79a29.87,29.87,0,0,0,2.4,2.91c-.42,5.4.44,10.58,3.86,14.84,1.64-2.34,2.5-5.53,3.13-8.95,1,.71,2.12,1.38,3.22,2a48,48,0,0,0,5.85,10.18,27.22,27.22,0,0,0,.64-6.84c8.36,3.81,17.57,6.4,25.28,8.46C186.78,192.8,184.5,183.84,183,176.51Z" style="fill:#dc4726"/><path d="M195,114.67c17.85,0,34.88.75,50.4,2.09a48.66,48.66,0,0,0,.25-5,50.66,50.66,0,1,0-101.31,0c0,1.69.09,3.35.25,5C160.11,115.42,177.13,114.67,195,114.67Z" style="fill:#dac559"/><path d="M200.26,120.88c.11-3.26.17-6.69.17-10.24,0-20.59-2-37.28-4.38-37.28s-4.38,16.69-4.38,37.28c0,3.55.06,7,.17,10.24Z" style="fill:#8c703f"/><path d="M195,61.1a50.84,50.84,0,0,0-7.45.55c19.59,7.2,34.14,28.26,35.68,53.66,7.66.35,15.08.83,22.17,1.45a48.66,48.66,0,0,0,.25-5A50.66,50.66,0,0,0,195,61.1Z" style="fill:#a29954"/><path d="M257.37,118.94c0,2.88-27.46,5.21-61.32,5.21s-61.31-2.33-61.31-5.21,27.45-5.21,61.31-5.21S257.37,116.06,257.37,118.94Z" style="fill:#8c703f"/><rect x="178.46" y="128.23" width="38.21" height="24.94" style="fill:#552e15"/><path d="M236.1,140.93c0,9.93-7.46,18-16.67,18s-16.66-8.06-16.66-18,7.46-18,16.66-18S236.1,131,236.1,140.93Z" style="fill:#cb7429"/><path d="M233.42,140.93c0,8.34-6.26,15.1-14,15.1s-14-6.76-14-15.1,6.26-15.09,14-15.09S233.42,132.6,233.42,140.93Z" style="fill:#252b49"/><path d="M227.35,128.49a13.72,13.72,0,0,0-4-2.06L206,145.13a15.47,15.47,0,0,0,1.91,4.35Z" style="fill:#fcfdff"/><path d="M187.21,140.93c0,9.93-7.46,18-16.67,18s-16.66-8.06-16.66-18,7.46-18,16.66-18S187.21,131,187.21,140.93Z" style="fill:#cb7429"/><path d="M184.53,140.93c0,8.34-6.26,15.1-14,15.1s-14-6.76-14-15.1,6.26-15.09,14-15.09S184.53,132.6,184.53,140.93Z" style="fill:#252b49"/><path d="M178.46,128.49a13.72,13.72,0,0,0-4-2.06l-17.32,18.7a15.47,15.47,0,0,0,1.91,4.35Z" style="fill:#fcfdff"/><path d="M223.47,156.84c0,10.76-12.9,19.48-28.8,19.48s-28.79-8.72-28.79-19.48,12.89-19.49,28.79-19.49S223.47,146.08,223.47,156.84Z" style="fill:#d95b4a"/><path d="M205,138.66c5.66,3.56,9.21,8.64,9.21,14.28,0,10.76-12.89,19.48-28.79,19.48a41.13,41.13,0,0,1-10.37-1.31,37.14,37.14,0,0,0,19.58,5.21c15.9,0,28.8-8.72,28.8-19.48C223.47,148.55,215.82,141.48,205,138.66Z" style="fill:#a9473a"/><path d="M194.2,158.06c0,3.11-5,5.64-11.2,5.64s-11.2-2.53-11.2-5.64,5-5.63,11.2-5.63S194.2,155,194.2,158.06Z" style="fill:#f48577"/><path d="M234.43,124.7a5.52,5.52,0,0,1-5.5,5.55H212a5.53,5.53,0,0,1-5.51-5.55h0a5.54,5.54,0,0,1,5.51-5.55h16.94a5.53,5.53,0,0,1,5.5,5.55Z" style="fill:#dc4726"/><path d="M181.06,124.7a5.52,5.52,0,0,1-5.5,5.55H158.62a5.52,5.52,0,0,1-5.51-5.55h0a5.53,5.53,0,0,1,5.51-5.55h16.94a5.53,5.53,0,0,1,5.5,5.55Z" style="fill:#dc4726"/><path d="M209.54,215.78c-11.08,0-22.18,0-33.24-.62a109.79,109.79,0,0,1-14.7-1.62c-4.63-.9-9.1-2.21-13.79-2.83-11.14-1.47-23.21-1.87-34.25-5a83.37,83.37,0,0,0,161.62,4.76C254.11,216.29,230.55,215.78,209.54,215.78Z" style="fill:#ca982c"/><path d="M214.81,215.78c-.61,16.61-2.8,33.07-10.52,48.18-1.22,2.38-2.55,4.68-4,6.91a83.37,83.37,0,0,0,74.85-60.44C255.86,215.81,234.44,215.82,214.81,215.78Z" style="fill:#a97c2c"/><path d="M110,220.24c0-4.38,61.56,35.16,169,0V190.57c-107.46,35.16-169-4.39-169,0" style="fill:#77401b"/><rect x="182.73" y="222.04" width="23.89" height="12.9" style="fill:none;stroke:#727a7d;stroke-miterlimit:10;stroke-width:2.237519884324756px"/><rect x="182.73" y="204.15" width="23.89" height="12.9" style="fill:none;stroke:#727a7d;stroke-miterlimit:10;stroke-width:2.237519884324756px"/><path d="M278.71,205.4c-107.46,35.16-169-4.38-169,0" style="fill:none;stroke:#532b13;stroke-miterlimit:10;stroke-width:2.237519884324756px"/><path d="M230.68,277.43v9.25c13.5,1,24,8.84,24,18.32H200.6V277.43Z" style="fill:#c05827"/><rect x="200.6" y="277.43" width="12.52" height="27.57" style="fill:#a73e24"/><path d="M236,287.25c-7.52-1.07-7.16,10-14.32,2.51,4.29-6.09,10-10.74,13.6-2.15" style="fill:#bbbbbc"/><path d="M161.42,277.43v9.25c-13.5,1-24,8.84-24,18.32H191.5V277.43Z" style="fill:#c05827"/><rect x="178.98" y="277.43" width="12.52" height="27.57" style="fill:#a73e24"/><path d="M156.07,287.25c7.52-1.07,7.17,10,14.33,2.51-4.3-6.09-10-10.74-13.61-2.15" style="fill:#bbbbbc"/><path d="M48.81,52C35.12,50.63,26,69.23,30.85,81c3.84,9.74,14.62,5.42,18.34-1.61,3.73-7.54,3.43-16.19,3.1-24.33a6.38,6.38,0,0,0-3-.58c-.64,5.58-3.89,36-13.25,23.08C25.67,63.12,51.67,60.17,51.89,50.51" style="fill:#bf6328"/><polygon points="170.29 1.34 167.77 110.08 160.87 78.48 161.94 32.59 170.29 1.34" style="fill:#65889a"/><rect x="148.05" y="23.07" width="108.77" height="66.83" transform="translate(141.27 257.55) rotate(-88.67)" style="fill:#9bb1c3"/><rect x="158.79" y="29.67" width="87.29" height="53.63" transform="translate(141.27 257.55) rotate(-88.67)" style="fill:#7a97aa"/><polygon points="181.98 95.09 183.9 12.4 176.64 12.23 174.61 99.49 228.23 100.74 228.34 96.16 181.98 95.09" style="fill:#65889a"/><path d="M163.9,53.07,52.62,49.51a7.08,7.08,0,0,0-.33,14.15l111.28,3.56Z" style="fill:#bf6328"/><path d="M62.17,49.73l-9.55-.22a7.08,7.08,0,0,0-.33,14.15L67.58,64C65.74,59.27,63.86,54.53,62.17,49.73Z" style="fill:#552c12"/><path d="M79.45,50.13l-13.23-.3c1.71,4.79,3.61,9.53,5.45,14.28l2.69.06C75.85,59.42,77.61,54.76,79.45,50.13Z" style="fill:#552c12"/><path d="M101.81,50.65l-18.3-.42c-1.86,4.63-3.64,9.29-5.17,14l27.48.63Q103.71,57.81,101.81,50.65Z" style="fill:#552c12"/><path d="M82.07,51.17l23.71-.42q1.89,7.16,4,14.24l-32,.24A145.8,145.8,0,0,1,82.07,51.17Z" style="fill:#552c12"/><path d="M113.25,51.9l-10.65-.25c2.57,4.77,5.17,9.53,7.67,14.33l.91,0C111.71,61.28,112.46,56.59,113.25,51.9Z" style="fill:#552c12"/><path d="M122.48,52.11,117.07,52c-.8,4.7-1.55,9.39-2.07,14.11l17.11.4C129.05,61.62,125.63,56.94,122.48,52.11Z" style="fill:#552c12"/><path d="M144.05,52.61l-17-.4c3.17,4.8,6.53,9.48,9.5,14.38l2.94.07C141.28,62.1,142.59,57.31,144.05,52.61Z" style="fill:#552c12"/><path d="M163.62,65C161,60.82,158,56.87,155,52.86l-7.25-.16c-1.5,4.65-2.76,9.46-4.4,14l20.2.47Z" style="fill:#552c12"/><path d="M163.9,53.07l-4.2-.1c1.37,1.85,2.74,3.7,4.07,5.56Z" style="fill:#552c12"/><path d="M98.21,51.55l-12.14-.28a145.5,145.5,0,0,0-4.4,14l24.24.56C103.39,61.08,100.77,56.33,98.21,51.55Z" style="fill:#552c12"/><path d="M86.14,39.7c-3.72,7-2.94,17.21-3.12,24.83-.16,7.12-2.23,8.6,4.82,11.3,4,1.62,11.66,1.29,15.74.88,7.14-.86,8.17-1.34,15.25.35,7.08,1.18,7.57,2.21,9.77-4.86,1.65-5.55.2-8.64-1.21-13.75-.89-5.62,1.23-9.13.32-13.72C125,28.91,91,26.08,86.14,39.7" style="fill:#77401b"/><path d="M289.88,218.61c-1.82-4.1-3.64-9.1.91-12.74,3.64-2.73,21.84-6.37,26.85-5,4.09.91,7.73,4.55,6.82,9.56-1.37,4.55-5.92,4.09-10.46,5-7.74,1.37-18.2,1.82-25,5" style="fill:#77401b"/><path d="M292.46,216.61c-2.67,2-10.65,7.09-4.57,16.35,1.45,2.22,5.68-.35,7.46,1.7,4,3.7,5.11,9.85,11.78,10.26,10.23.41,20.9-4.92,24-14.77,1.78-5.74-4.45-20.52-12.45-19.28" style="fill:#77401b"/><path d="M198.55,37.4a2.57,2.57,0,0,0-.61-.42c-.42-.26-1-.63-1.88-1.11-1.66-1-4.13-2.36-7.35-4.16l-11.82-6.57L160.27,16c-1.61,8-3.42,17-5.39,26.76-.24,1.18-.48,2.39-.73,3.6l-.36,1.83c-.15.61-.32,1.22-.49,1.83q-1,3.66-2,7.47l-4,14.89-12-4.47-7-9.7q1-10.56,2.1-21.69l-20.18,7.67L85.41,40.08,69.73,44.4q0,11.22,0,22.72L74,69.23,95.76,80l29.74,0L136,86.94l-7.26,9.36L96.13,106.66l-3.91,1.24-.39.13c-.14.06-.33,0-.39.22l-.41.62-.56.85-1.09,1.71c-1.44,2.27-2.82,4.53-4.13,6.8-.65,1.14-1.28,2.28-1.88,3.43a35.06,35.06,0,0,0-1.63,3.57c-.11.31-.22.64-.31,1,0,.17-.08.34-.11.53a2.78,2.78,0,0,0,0,.37,1.86,1.86,0,0,0,0,.41,1.32,1.32,0,0,0,.88,1.22l.39.1.17.06a3.52,3.52,0,0,1,.35.16,19.8,19.8,0,0,1,2.89,2c1.87,1.53,3.65,3.15,5.47,4.69A33.28,33.28,0,0,0,94.3,138a7.24,7.24,0,0,0,.83.48,2.42,2.42,0,0,0,1.21.31.94.94,0,0,0,.28-.06l.18-.07,0,0h0s0-.23.07-.07,0,0,0,0l0,0,.3-.11c.23-.07.5-.13.77-.19,2.16-.42,4.4-.64,6.57-.87s4.31-.4,6.4-.56l3.11-.22.3,0c.06,0,0,.05.06.08l0,.13c.12.45.23.9.35,1.34.51,1.95,1,3.85,1.49,5.7q1.41,5.42,2.68,10.26l-14.91,19.09,4.76,3.77,3.3,2.58q1.35,1,2,1.56a3.48,3.48,0,0,0,.74.48,4.64,4.64,0,0,0-.62-.62c-.43-.38-1.08-.95-1.94-1.68l-3.19-2.72-4.14-3.47,6.53-8,8.64-10.69-2.7-10.83c-.46-1.85-.93-3.76-1.42-5.71-.13-.53-.27-1.06-.4-1.59l-.15-.61-.08-.31,0-.07a.08.08,0,0,1,0,0h-.2l-1.23.07-3.12.2c-2.11.14-4.25.3-6.45.5s-4.42.4-6.73.84a7.85,7.85,0,0,0-.9.22,3.51,3.51,0,0,0-.51.18l-.16.09-.08,0c-.22-.23.26.34.2.28h-.08a.08.08,0,0,1,0-.07.38.38,0,0,0,0-.18s0-.08,0-.08h0l-.11,0-.3-.13c-.21-.11-.44-.25-.67-.4a31.38,31.38,0,0,1-2.69-2.11c-1.78-1.53-3.55-3.16-5.46-4.75a20.55,20.55,0,0,0-3.15-2.24,4.67,4.67,0,0,0-.5-.23l-.26-.09-.06,0c-.07,0-.1-.08-.1-.14a.11.11,0,0,1,0-.05V127a2.74,2.74,0,0,1,.09-.39,6.55,6.55,0,0,1,.27-.82,31.68,31.68,0,0,1,1.56-3.37c.59-1.12,1.22-2.24,1.87-3.36,1.3-2.23,2.69-4.47,4.13-6.71.36-.56.72-1.13,1.09-1.69l.55-.84.15-.22s0,0,0,0l.09,0,3.91-1.23,33.24-10.4,8.94-11.46L126.09,78,96.23,78,74.89,67.42l-3.14-1.56V45.94l13.77-3.82,24.92,4.05,17.81-6.82q-.91,9.91-1.79,19.35l7.73,10.64,14.28,5.22,4.35-16.72c.67-2.55,1.31-5.05,2-7.5.16-.62.32-1.22.47-1.83s.23-1.23.35-1.84c.23-1.22.47-2.43.7-3.62,1.76-9.26,3.38-17.72,4.83-25.28l15.33,8.17,12,6.32c3.27,1.71,5.79,3,7.5,3.89.86.44,1.51.76,2,1A2.93,2.93,0,0,0,198.55,37.4Z" style="fill:#86bee7;stroke:#fff;stroke-miterlimit:10;stroke-width:0.5262313431949792px"/><path d="M92.08,42.18c-.12.07.47,1.24,1.59,3.19.57,1,1.26,2.16,2.06,3.49L97,51l1.58,2.56,5.46,1.16,5.71,1.17,1.37.27.34.07.16,0h0c-.49,1.22-1,2.41-1.42,3.55l-.8,2c-.13.34-.26.66-.39,1l-.19.48,0,.06h0v0l-4.57.39c-1.48.13-2.77.26-3.84.38-2.13.24-3.35.44-3.34.57s1.24.19,3.39.16c1.07,0,2.37,0,3.85-.09l2.37-.08,1.28,0,1.72-.09q.87-2,1.82-4.31l2.12-5.12L110,54.46l-5.72-1.12-2.68-.52-1.29-.24-.63-.11-.31-.06h0c-1-1.49-1.93-2.88-2.76-4.1S95,45.89,94.31,45C93,43.13,92.19,42.11,92.08,42.18Z" style="fill:#86bee7;stroke:#fff;stroke-miterlimit:10;stroke-width:0.5262313431949792px"/><path d="M97.05,76.34a17.12,17.12,0,0,0-3.71,1.16l-4.2,1.57-5.24,2-.05,0L83.6,81l-.52-.17c-.35-.11-.71-.21-1.07-.29a10.34,10.34,0,0,0-2.36-.33,3.8,3.8,0,0,0-1.36.21,2,2,0,0,0-.72.46,1.37,1.37,0,0,0-.29.38l-.1.21a1.77,1.77,0,0,0-.06.17,8.38,8.38,0,0,0-.27,1.3c-.06.41-.11.83-.14,1.25-.16,1.67-.21,3.38-.22,5.14,0,.88,0,1.77,0,2.68a26.74,26.74,0,0,0,.23,2.77,8.87,8.87,0,0,0,.19,1,4.53,4.53,0,0,0,.23.57,2.74,2.74,0,0,0,.36.47A9.38,9.38,0,0,0,79,97.93a19.74,19.74,0,0,0,3,1.68,11,11,0,0,0,3.31,1,4,4,0,0,0,1,0,2.07,2.07,0,0,0,1-.51,2.52,2.52,0,0,0,.21-.25l.15-.28.15-.32c.09-.19.22-.39.34-.59A23.36,23.36,0,0,1,92,94.52c.66-.59,1.32-1.14,2-1.64.33-.25.64-.44,1-.65s.67-.39,1-.56c.67-.35,1.31-.67,1.93-1l1.64-.76a2.39,2.39,0,0,1,.37-.17l0,.38c0,.48,0,.92.07,1.31a9.33,9.33,0,0,0,.28,2.66,10.13,10.13,0,0,0,.27-2.66c0-.21,0-.44,0-.67s0-.56,0-.85,0-.81,0-1.24v0h0l-.07,0-.15.06-.3.11-.64.24-1,.39-.93.38c-.64.27-1.31.56-2,.9-.35.16-.7.35-1.07.54s-.75.43-1.09.68c-.69.5-1.38,1-2.08,1.63s-1.4,1.22-2.09,1.91a17.12,17.12,0,0,0-2,2.34c-.15.24-.3.46-.43.72L86.5,99l0,.06s0,0,0,0a.77.77,0,0,1-.35.15,2.4,2.4,0,0,1-.6,0,9.79,9.79,0,0,1-2.86-.89,20.47,20.47,0,0,1-2.81-1.57,8.29,8.29,0,0,1-1.22-1,1.19,1.19,0,0,1-.17-.21,2.18,2.18,0,0,0-.09-.23c0-.25-.11-.49-.14-.77A25,25,0,0,1,78,92c0-.88,0-1.76-.06-2.62,0-1.73,0-3.42.17-5,0-.4.06-.79.11-1.18a6.92,6.92,0,0,1,.2-1.06.81.81,0,0,1,0-.11.14.14,0,0,0,0-.06l.07-.09a.58.58,0,0,1,.26-.16,2.46,2.46,0,0,1,.9-.15,9.74,9.74,0,0,1,2.07.24l1,.25.49.14.24.08.45.15,3-1.3L89.5,80c1.59-.7,3-1.31,4.09-1.83A17.12,17.12,0,0,0,97.05,76.34Z" style="fill:#86bee7;stroke:#fff;stroke-miterlimit:10;stroke-width:0.5262313431949792px"/><path d="M87.41,116.23c-.1.16.65.88,2.06,1.78a16.71,16.71,0,0,0,2.63,1.37,9.23,9.23,0,0,0,1.75.52,4.86,4.86,0,0,0,1,.09,2.81,2.81,0,0,0,1.18-.26c.1,0,.2-.12.3-.18a2.56,2.56,0,0,0,.22-.16c.14-.11.26-.22.38-.33s.47-.45.68-.67c.42-.44.79-.88,1.14-1.3.7-.83,1.3-1.58,1.84-2.15a4.41,4.41,0,0,1,1.33-1.1c.33-.13.57,0,.64-.11s0-.11-.1-.22a.92.92,0,0,0-.62-.22,3.56,3.56,0,0,0-1.94.9,22.68,22.68,0,0,0-2.13,2c-.38.39-.76.8-1.17,1.2L96,118l-.32.26a1.31,1.31,0,0,1-.15.12s-.06,0-.1.06a2.63,2.63,0,0,1-1.37.08,9.78,9.78,0,0,1-1.53-.38c-1-.33-1.87-.7-2.61-1C88.46,116.47,87.52,116.06,87.41,116.23Z" style="fill:#86bee7;stroke:#fff;stroke-miterlimit:10;stroke-width:0.5262313431949792px"/><path d="M81.67,124.15c0-.09-.31-.3-.89-.7a5.36,5.36,0,0,1-1.89-2.07,2.68,2.68,0,0,1-.14-1.72l.15-.47c.07-.17.16-.36.24-.54l.5-1.15c.69-1.56,1.41-3.29,2.19-5.11.39-.9.78-1.79,1.16-2.64l.22-.51.13-.31.07-.16,0-.07-.06-.06-.84-.78a11,11,0,0,0-1.1-.87,13.68,13.68,0,0,0-4.33-1.93c-2.62-.62-4.3-.35-4.28-.17s1.61.31,4,1.14a14.84,14.84,0,0,1,3.85,2c.31.27.65.5.95.81s.12.13.15.16h0l-.06.13-1.2,2.64c-.78,1.84-1.47,3.61-2.1,5.22-.15.4-.3.8-.45,1.18-.07.19-.15.37-.21.57s-.11.44-.16.65a3.58,3.58,0,0,0,.4,2.41,4.53,4.53,0,0,0,1.3,1.42,6,6,0,0,0,1.22.68C81.22,124.21,81.64,124.25,81.67,124.15Z" style="fill:#86bee7;stroke:#fff;stroke-miterlimit:10;stroke-width:0.5262313431949792px"/><path d="M156,42.18a30.83,30.83,0,0,0,3.58,2,40.09,40.09,0,0,1,4.07,2.46,10.93,10.93,0,0,1,1.09.87,3.54,3.54,0,0,1,.46.5,1,1,0,0,1,.24.47c0,.2,0,.5,0,.75s0,.51-.06.79c-.06.55-.13,1.12-.2,1.7-.29,2.33-.65,4.88-1,7.62-.2,1.37-.41,2.79-.62,4.25-.11.72-.22,1.46-.33,2.21-.05.38-.11.77-.17,1.15s-.07.77-.11,1.16c-.26,3.11-.53,6.37-.81,9.75-.06.85-.13,1.7-.2,2.56l-.05.65,0,.44,0,.33,0,.16s0,.12,0,.14l1.42.94c1.48,1,3,1.9,4.57,2.8a46.49,46.49,0,0,0,4.82,2.46,11.48,11.48,0,0,0,2.66.82c.13,0,.25,0,.38,0H176a2.2,2.2,0,0,0,.48-.11,1.73,1.73,0,0,0,.44-.24A8.7,8.7,0,0,0,178,87.9c1.24-1.24,2.31-2.51,3.37-3.76s2.06-2.5,3-3.71l2.85-3.54.69-.83a2.06,2.06,0,0,1,.15-.15.47.47,0,0,1,.13-.11,1.8,1.8,0,0,1,.34-.17,4,4,0,0,1,1.8-.09,15.79,15.79,0,0,1,3.7,1.08c.59.24,1.15.49,1.7.75l.81.39.39.2.18.1.06,0,3.2,5.36,2.49,4.1A21.85,21.85,0,0,0,205.17,91a23.29,23.29,0,0,0-1.79-3.68l-2.29-4.23L198,77.39c-.07-.11-.2-.14-.29-.21l-.22-.12-.4-.22-.82-.43q-.84-.42-1.74-.81a17.32,17.32,0,0,0-4-1.24,5.21,5.21,0,0,0-2.37.11,2.83,2.83,0,0,0-.63.31,1.18,1.18,0,0,0-.28.22,2.69,2.69,0,0,0-.24.24l-.73.84c-1,1.14-1.92,2.31-2.91,3.51s-2,2.43-3.05,3.66-2.14,2.49-3.31,3.65a9.93,9.93,0,0,1-.88.76c-.09.08-.09,0-.11.07a1.31,1.31,0,0,0-.15,0h-.22l-.25,0a10.3,10.3,0,0,1-2.3-.72,47.79,47.79,0,0,1-4.66-2.39c-1.54-.89-3-1.82-4.5-2.76l-.55-.35-.21-.14h0l0-.2.05-.64c.06-.86.13-1.71.19-2.55l.72-9.73c0-.39,0-.78.1-1.15L164.4,66c.1-.76.2-1.5.3-2.23.19-1.46.37-2.89.55-4.26.34-2.75.64-5.31.87-7.67,0-.59.1-1.16.15-1.72,0-.28,0-.58,0-.86a8.32,8.32,0,0,0,0-.87,1.8,1.8,0,0,0-.44-.92,5.47,5.47,0,0,0-.59-.59,11.81,11.81,0,0,0-1.21-.9,36.73,36.73,0,0,0-4.27-2.29A16.74,16.74,0,0,0,156,42.18Z" style="fill:#86bee7;stroke:#fff;stroke-miterlimit:10;stroke-width:0.5262313431949792px"/><path d="M182.34,79.66c.14,0,.15-1.16,0-3.12-.06-1-.14-2.16-.25-3.51s-.24-2.64-.37-4.16h0l.08-.06.35-.31.72-.64,1.48-1.32,3.13-2.81.25-.23.1-.1h0l3.68-.82,3.82-.88,1.12-1.74c.31-.5.61-1,.89-1.43.6-1,1.14-1.84,1.62-2.62,0-.22,0-.44,0-.65l0-.48c0-.32,0-.61-.05-.89,0-.55-.07-1-.11-1.41-.08-.77-.16-1.19-.25-1.19s-.17.42-.25,1.19c0,.38-.07.86-.11,1.41s-.06,1.1-.1,1.74c0,0-.19.26-.32.44s-.28.38-.42.58l-.9,1.25c-.57.82-1.19,1.71-1.86,2.65.09,0-.34.06-.6.11l-.89.18-1.84.38-4.06.87-.64.58-3.1,2.84-3.08,2.87c.07.52.13,1,.2,1.53s.1.77.16,1.14c.1.75.21,1.46.3,2.13.2,1.33.39,2.5.56,3.47C181.93,78.57,182.2,79.68,182.34,79.66Z" style="fill:#86bee7;stroke:#fff;stroke-miterlimit:10;stroke-width:0.5262313431949792px"/><path d="M184.53,29.8c.16.12,2-1.93,4.85-5.36l.55-.65c.12-.15.1-.13.14-.16s0,0,.05,0h2l4.13.1c1.48,0,3.06.09,4.67.07h1.36l1.22,0s.06,0,.07,0V23.7l0-.15,0-.31-.07-.61c-.1-.89-.21-1.8-.32-2.71-.36-2.93-.71-5.75-1-8.39l-4.14.19-3.21.17-2.85.17h-.2s0,0-.1,0l-.5-.35c-.32-.24-.63-.47-.91-.7a9,9,0,0,1-2.26-2.44c-.36-.67-.26-1.11-.36-1.14s-.09.09-.15.32a2.15,2.15,0,0,0,.09,1,8,8,0,0,0,2.12,2.9c.27.27.58.53.9.8l.5.41.21.15c.07,0,.14.13.24.1h.45l2.86,0,6.11-.11v0h0v0l0,.24c0,.31.07.62.11.94q.11.95.21,1.92c.15,1.3.31,2.63.47,4,.09.77.19,1.54.28,2.29h0l-1.06,0c-1.6,0-3.11,0-4.56,0s-2.92,0-4.24,0l-1.89.07h-.54c-.07,0-.14,0-.17.06s-.27.36-.41.53l-.51.69C185.93,27.4,184.37,29.68,184.53,29.8Z" style="fill:#86bee7;stroke:#fff;stroke-miterlimit:10;stroke-width:0.5262313431949792px"/><path d="M168.36,84.54a7.07,7.07,0,0,0,.1,2.53c.09.8.22,1.76.37,2.87.08.56.17,1.15.25,1.78q.07.47.15,1c.07.46.15.94.22,1.43l6,.85,5.86.77h0c.16,1,.32,2.07.47,3.06.09.55.17,1.09.26,1.62l.12.79,0,.19c0,.06,0,0,0,0v0l-7.51,3.28,1.07.9.49.41.29.23,1.08.88c.68.54,1.27,1,1.76,1.37,1,.74,1.56,1.11,1.63,1s-.38-.6-1.24-1.48l-1.59-1.56-1-1-.27-.25-.09-.1-.13-.15a6.05,6.05,0,0,0,.85-.3l1.78-.69,1.9-.76,2.49-1c-.33-2.32-.69-4.79-1.06-7.35l-.08-.5L178.78,94l-3.12-.37-2.93-.33-1.38-.14-.67-.07h-.22l0-.09c0-.16-.07-.32-.1-.48-.06-.32-.13-.64-.19-1-.13-.62-.26-1.2-.37-1.75-.24-1.1-.46-2-.64-2.83A7.2,7.2,0,0,0,168.36,84.54Z" style="fill:#86bee7;stroke:#fff;stroke-miterlimit:10;stroke-width:0.5262313431949792px"/><path d="M113.56,161.9c-.09.11.34.64,1.16,1.47.41.41.92.9,1.5,1.45l1.77,1.62v.36c0,.22,0,.44,0,.67,0,.45,0,.92,0,1.39,0,1,0,2,0,3,0,.68,0,1.34,0,2s0,1.54,0,2.27l1.1.66.75.44,1.41.8c.89.5,1.68.92,2.35,1.27,1.33.68,2.16,1,2.24.89s-.59-.72-1.8-1.61c-.6-.45-1.34-1-2.18-1.54l-2.51-1.66v0h0v-.06c0-.15,0-.31,0-.47,0-.31,0-.63,0-1,0-.65,0-1.31,0-2,0-1,0-2,0-3s0-2.07-.06-3l-.52-.42-.28-.22-.54-.42-1-.77c-.65-.49-1.22-.9-1.7-1.23C114.24,162.13,113.64,161.8,113.56,161.9Z" style="fill:#86bee7;stroke:#fff;stroke-miterlimit:10;stroke-width:0.5262313431949792px"/><path d="M115.71,138.66c.18-.08-.39-1.73-1.26-4.38a45.26,45.26,0,0,1-1.29-4.67,9.79,9.79,0,0,1-.17-1.31,4.18,4.18,0,0,1,0-.62.84.84,0,0,1,.11-.37s.09-.09.17-.16a1.29,1.29,0,0,1,.25-.2,6.79,6.79,0,0,1,.59-.41c.42-.26.87-.51,1.33-.74.75-.39,1.51-.75,2.26-1.08l1.12-.48.54-.23,1-.38c0-.55,0-1.08,0-1.6s0-.73,0-1.09c0-.7,0-1.38-.06-2,0-1.27-.1-2.4-.15-3.33-.12-1.87-.27-3-.43-3s-.3,1.11-.42,3c-.06.93-.11,2.06-.15,3.33s-.07,2.41-.1,3.77l-.13,0-.57.22-1.15.47c-.78.33-1.57.69-2.36,1.1-.49.26-1,.52-1.43.82q-.35.22-.69.48a4.09,4.09,0,0,0-.33.28,2,2,0,0,0-.37.39,2.08,2.08,0,0,0-.34,1,3.53,3.53,0,0,0,0,.86,11.46,11.46,0,0,0,.24,1.5,29.74,29.74,0,0,0,1.64,4.74C114.63,137.24,115.53,138.74,115.71,138.66Z" style="fill:#86bee7;stroke:#fff;stroke-miterlimit:10;stroke-width:0.5262313431949792px"/><path d="M103,136.82c-.31.25,2.37,4.08,6,8.56l.34.42h0l-.16.12-.73.56c-.47.38-.93.73-1.36,1.07-.86.69-1.62,1.32-2.24,1.85-1.25,1.08-2,1.81-1.84,2s1-.32,2.4-1.19c.7-.44,1.52-1,2.43-1.6l1.42-1,.75-.53,1.37-1-1.27-1.58C106.48,140,103.29,136.57,103,136.82Z" style="fill:#86bee7;stroke:#fff;stroke-miterlimit:10;stroke-width:0.5262313431949792px"/><path d="M129.33,97.12c.18-.07.09-.81-.21-2-.15-.58-.35-1.26-.59-2-.12-.38-.26-.77-.39-1.18-.07-.2-.15-.41-.22-.62l-.36-1-.85-.21c-3.79-.91-6.94-1.33-7-1s2.91,1.43,6.71,2.35l.1,0h0l.11.28.24.61.48,1.14c.32.73.61,1.37.88,1.9C128.74,96.57,129.16,97.19,129.33,97.12Z" style="fill:#86bee7;stroke:#fff;stroke-miterlimit:10;stroke-width:0.5262313431949792px"/></svg>