<svg id="Capa_1" data-name="Capa 1" xmlns="http://www.w3.org/2000/svg" viewBox="0 0 361 305"><path d="M271.88,205.26s26.2-53.23,6.32-85l24-2S320.18,181.78,271.88,205.26Z" style="fill:#98a4b1"/><rect x="185.35" y="245.82" width="23.2" height="37.55" style="fill:#4a5b75"/><rect x="150.23" y="245.82" width="23.2" height="37.55" style="fill:#4a5b75"/><path d="M286.24,221.76c-8.26.46-17,2.3-25.25,3.21-12.39.92-13.31-6.42-20.65-15.6l-7.81-62c15.61,8.72,28.46,22,39.48,36.26,9.64,11.94,10.1,23.41,14.23,37.18" style="fill:#9e5431"/><path d="M73.25,149.23c-6,5.51-4.14,40.86,0,47.28,6,8.73,19.28,4.6,28,2.3,11.47-4.13,18.82-6.89,19.74-19.74.46-6.88,2.29-18.82-3.22-22.95-2.29-1.84-7.8-3.21-10.55-5.05-4.6-2.3-8.27-6-12.86-.46" style="fill:#9e5431"/><path d="M118.69,153.36c0-1.37-6.88-5.5-9.64-4.13-6,2.3-6,16.53-6.88,21.58-2.76,16.52-4.14,28.46,7.34,41.77,0-6.43.92-11.93,1.84-18.36" style="fill:#a0b4dc"/><path d="M151.88,239.13c21.32-.36,42.57-1.69,63.85-2.87q11-.6,22-1.12a72,72,0,1,0-115.18,3.93Q137.21,239.36,151.88,239.13Z" style="fill:#dff2fc"/><path d="M202.23,125.86a135.41,135.41,0,0,1,6.7,41.77c-.05,21-4.7,41.63-11.88,61.26q-1.58,4.31-3.23,8.59l21.91-1.22q11-.6,22-1.12a72,72,0,0,0-35.47-109.28Z" style="fill:#a0b4dc"/><path d="M224.39,217.14l1.78-18.21h-97.3l1.66,17a137.47,137.47,0,0,1-25-10.06c4.91,33.14,33.06,58.55,67.05,58.55h14c34,0,62.15-25.41,67-58.55A139.18,139.18,0,0,1,224.39,217.14Z" style="fill:#4e607d"/><path d="M224.39,217.14l1.78-18.21H191.11c.48,7.13,1.25,14.28.81,21.29a143.88,143.88,0,0,1-6.83,35.9q-1.38,4.2-3,8.32h4.46c34,0,62.15-25.41,67-58.55A139.18,139.18,0,0,1,224.39,217.14Z" style="fill:#4a5b75"/><path d="M237.13,150.93c7.65,8.26,11.83,21.57,9,31.21-1.39,6.89-11.83,25.71-23,27.55-21.58,4.13-1.4-17.45.69-21.12,6.27-8.72,6.27-20.2,2.79-29.38-.7-2.29-2.09-5.05-2.79-7.34" style="fill:#46556e"/><path d="M120.53,150.93c-7.66,8.26-11.84,21.57-9,31.21,1.39,6.89,11.83,25.71,23,27.55,21.57,4.13,1.39-17.45-.7-21.12-6.26-8.72-6.26-20.2-2.78-29.38.69-2.29,2.08-5.05,2.78-7.34" style="fill:#46556e"/><path d="M73.63,133.61c1.64,7.23,9.1,15.85,17.55,15.33,5.58,0,17.91-16.21,11.16-20.54" style="fill:#552e15"/><path d="M257.45,30.66s34.44,48.31,20,82.9l24-1.86S308.9,46,257.45,30.66Z" style="fill:#98a4b1"/><rect x="52.72" y="114.02" width="244.02" height="15.04" transform="translate(-8.88 13.88) rotate(-4.44)" style="fill:#5f4424"/><rect x="269.49" y="101.41" width="38.19" height="22.57" transform="translate(-7.85 22.64) rotate(-4.43)" style="fill:#74869a"/><path d="M223.46,123.66a13.44,13.44,0,1,0,13.44-13.44A13.44,13.44,0,0,0,223.46,123.66Z" style="fill:#9e5431"/><path d="M225.78,126.18a8.6,8.6,0,1,0,8.6-8.6A8.6,8.6,0,0,0,225.78,126.18Z" style="fill:#733e1e"/><path d="M137.6,123.66a13.44,13.44,0,1,1-13.44-13.44A13.44,13.44,0,0,1,137.6,123.66Z" style="fill:#9e5431"/><path d="M135.28,126.18a8.6,8.6,0,1,1-8.6-8.6A8.6,8.6,0,0,1,135.28,126.18Z" style="fill:#733e1e"/><circle cx="180.53" cy="117.36" r="52.33" style="fill:#9e5431"/><path d="M202.33,69.79A52.33,52.33,0,0,1,145.22,156a52.33,52.33,0,1,0,57.11-86.19Z" style="fill:#733e1e"/><path d="M249.2,172.59c.3-8.42-8.22-23.35-8.22-23.35,2.88-38.1-11.26-49.6-11.26-49.6,4.86,24.3-1.05,33-1.05,33l-6.88,5.87-14.95-7-22.66,4.82h-6.89l-22.66-4.82-14.95,7-6.88-5.87s-5.91-8.72-1.05-33c0,0-14.14,11.5-11.25,49.6,0,0-8.53,14.93-8.23,23.35.29,8,62.23,24,68.21,25.62v.14l.27-.07.26.07v-.14C187,196.56,248.91,180.57,249.2,172.59Z" style="fill:#9f9b97"/><path d="M192.41,123.85c5.51-2.18,16.07-2.45,23-1.09,13.31,2.73,14.69,7.64,16.07,14.73,1.83,10.09-8.72,23.73,6,32.19-15.6,2.73-44.06-.55-53.7-8.73-5.05-4.36-3.68-11.18-4.13-16.37a141.12,141.12,0,0,1-.92-14.18" style="fill:#bbbbbc"/><path d="M165.84,123.85c-5.51-2.18-16.07-2.45-23-1.09-13.31,2.73-14.69,7.64-16.07,14.73-1.83,10.09,8.72,23.73-6,32.19,15.6,2.73,44.06-.55,53.7-8.73,5.05-4.36,3.67-11.18,4.13-16.37a141.12,141.12,0,0,0,.92-14.18" style="fill:#bbbbbc"/><path d="M219,270.27v11.86c17.3,1.32,30.75,11.33,30.75,23.49H180.39V270.27Z" style="fill:#2e3a54"/><rect x="180.39" y="270.27" width="16.05" height="35.35" style="fill:#20314a"/><path d="M225.8,282.87c-9.64-1.38-9.18,12.85-18.36,3.21,5.51-7.8,12.85-13.77,17.44-2.75" style="fill:#bbbbbc"/><path d="M139.93,270.27v11.86c-17.3,1.32-30.76,11.33-30.76,23.49h69.32V270.27Z" style="fill:#2e3a54"/><rect x="162.44" y="270.27" width="16.05" height="35.35" style="fill:#20314a"/><path d="M133.08,282.87c9.64-1.38,9.18,12.85,18.36,3.21-5.51-7.8-12.86-13.77-17.45-2.75" style="fill:#bbbbbc"/><path d="M72.45,122.24c6.9,4.35,6.37,9.93,16,12,10.66,2.78,18.67-3.55,17.5-14.58-2-20.4-40.57-13-43.17,3.45" style="fill:#552e15"/><path d="M69.84,137l3.88.59,3,.47.93.16.33.05-.32,0-.85-.13-2.78-.43Z" style="fill:#46556e"/><path d="M151.61,131.49c-6.42,2.18-12.85,4.09-14.23,8.73,3.22-1.09,6-2.73,10.1-3.55-4.59,4.37-6,9.28-4.13,14.19,6.43-3,9.18-8.19,17.44-10.92-2.29,4.91-4.59,9.28,1.38,13.64,1.84-3.27,1.84-6.27,4.59-9.54,1.84-1.91,4.59-2.19,4.13-4.91" style="fill:#9f9b97"/><path d="M184.66,140.76c7.35,3,8.27,8.19,13.78,11.73h0c.91-3,0-6-.92-9,6,1.64,10.1,5.18,16.52,6,1.38-3.82-7.34-7.91-11.93-9.55,6.42-1.63,14.69.28,21.57.28.92-3.82-7.34-9.28-11.93-10.37" style="fill:#9f9b97"/><path d="M192.1,101.73c11-13.09,37.19-11,34.43,10.32-8.95.69-43.38,6.2-35.12-10.32" style="fill:#9f9b97"/><path d="M168.27,101.73c-11-13.09-37.18-11-34.43,10.32,8.95.69,43.38,6.2,35.12-10.32" style="fill:#9f9b97"/><path d="M215.68,119.74c0,13.14-15.74,23.79-35.15,23.79s-35.15-10.65-35.15-23.79S161.12,96,180.53,96,215.68,106.61,215.68,119.74Z" style="fill:#d95b4a"/><path d="M193.19,97.55c6.91,4.35,11.24,10.55,11.24,17.43,0,13.14-15.74,23.79-35.15,23.79a50.05,50.05,0,0,1-12.66-1.6c6.27,3.94,14.67,6.36,23.91,6.36,19.41,0,35.15-10.65,35.15-23.79C215.68,109.63,206.35,101,193.19,97.55Z" style="fill:#a9473a"/><path d="M180,121.24c0,3.8-6.12,6.88-13.67,6.88s-13.67-3.08-13.67-6.88,6.12-6.88,13.67-6.88S180,117.44,180,121.24Z" style="fill:#f48577"/><path d="M179.44,97c18.32,0,35.78.69,51.71,1.93a41.71,41.71,0,0,0,.26-4.63c0-25.91-23.27-46.91-52-46.91s-52,21-52,46.91a44.29,44.29,0,0,0,.25,4.63C143.65,97.64,161.12,97,179.44,97Z" style="fill:#9bb1c3"/><path d="M179.44,47.34a58.12,58.12,0,0,0-7.64.51c20.1,6.66,35,26.17,36.61,49.69,7.85.33,15.47.77,22.74,1.34a41.71,41.71,0,0,0,.26-4.63C231.41,68.34,208.14,47.34,179.44,47.34Z" style="fill:#889dac"/><path d="M243.44,99c0,3.15-28.17,5.71-62.91,5.71s-62.9-2.56-62.9-5.71,28.16-5.72,62.9-5.72S243.44,95.83,243.44,99Z" style="fill:#5b788c"/><polygon points="191.74 96.47 170.17 96.47 170.17 19.46 191.74 12.14 191.74 96.47" style="fill:#fff5ca"/><polygon points="185.6 14.22 185.6 96.47 191.74 96.47 191.74 12.14 185.6 14.22" style="fill:#f4e6aa"/><path d="M172.46,18.07c-4.43-.53-3.4,5.57-3.4,9.06,0,1.56-1.62,6.44-1,7,2.22,1.4,2.22-5.4,3.25-6.09.88,1,.59,4.87,2.36,3.31,1.48-1-.29-3.84.89-5.06,1.92-1.91,2.95,1.92,2.95,3.49,0,2.26-.89,3.83-1.33,6.1-.88,5.4,4.14,6.1,4.87,1,.3-2.61-2.65-9.06-.29-10.28s1.18,1.57,2.21,2.44c1.78,1.74,1.63-.35,2.22-1.39s.44-3.66,2.21-2.09c1.48,1.22,0,3.13-.29,4.53s-.59,3.66.88,3.83c2.66.35,1-3,1.18-3.66.45-2.44.15-1.57,1.19,0,.73,1.22.59,3,2.65,2.44.59-2.09-.44-3.48-.88-5.4a30.49,30.49,0,0,1-.15-5.23c0-2.79,1.92-8.19-.15-9.93-1.62-1.57-6.49,2.09-8.71,2.79-2.8.7-5.61,1.22-8.41,2.09-.74.17-1.33.7-2.07.87" style="fill:#ffe286"/><path d="M179.25,18.68c-6.94-5.41.59-9.59.45-16.56,2.65,1,4.57,6.45,4.13,9.59-.59,4.87-1.18,6.09-4.58,7" style="fill:#ed2c24"/><path d="M179.65,18.27c-3.68-2.86.31-5.08.24-8.78,1.41.56,2.42,3.42,2.19,5.09-.31,2.58-.63,3.23-2.43,3.69" style="fill:#ffd244"/><path d="M140.85,200.44a6.52,6.52,0,1,1-6.52-6.52A6.52,6.52,0,0,1,140.85,200.44Z" style="fill:#5b788c"/><path d="M139.47,200.44a6.52,6.52,0,1,1-6.52-6.52A6.52,6.52,0,0,1,139.47,200.44Z" style="fill:#9bb1c3"/><path d="M233,200.76a6.52,6.52,0,1,1-6.52-6.52A6.52,6.52,0,0,1,233,200.76Z" style="fill:#5b788c"/><path d="M231.61,200.76a6.52,6.52,0,1,1-6.52-6.52A6.52,6.52,0,0,1,231.61,200.76Z" style="fill:#9bb1c3"/><path d="M179,238.91V238l-25.65-7.5V204.35h54.3v26.18L182,238v.88l-1.5-.44Zm1.5-2.47h0l25.2-7.37V206.3h-50.4v22.77Z" style="fill:#46556e"/><path d="M79.21,138.68c-5-2.76-9.64-3.22-11.47,3.67-3.22,10.56,5.51,15.15,15.15,16.07,7.34.91,23-3.68,26.16-11.48,4.13-9.64-11-13.77-16.52-8.26" style="fill:#552e15"/><path d="M253.65,231.86c-1.84-4.13-3.67-9.18.92-12.85,3.67-2.76,22-6.43,27.08-5,4.13.91,7.8,4.59,6.88,9.64-1.37,4.59-6,4.13-10.55,5.05-7.81,1.37-18.36,1.83-25.25,5" style="fill:#552e15"/><path d="M256.24,229.84c-2.69,2.07-10.74,7.16-4.61,16.5,1.47,2.24,5.74-.35,7.53,1.72,4,3.73,5.16,9.94,11.89,10.35,10.32.42,21.09-5,24.23-14.9,1.8-5.8-4.48-20.7-12.56-19.46" style="fill:#552e15"/><path d="M261.93,207.49c.09.23,1.53-.18,3.83-.76,1.15-.3,2.53-.61,4.06-.93s3.22-.58,5-.76a36,36,0,0,1,5-.15,20.85,20.85,0,0,1,4,.61c2.23.58,3.48,1.4,3.64,1.18s-.93-1.35-3.27-2.29a16.26,16.26,0,0,0-4.25-1,27.64,27.64,0,0,0-5.3,0,36.79,36.79,0,0,0-5.17.93,35.88,35.88,0,0,0-4.07,1.3C263.14,206.5,261.85,207.3,261.93,207.49Z" style="fill:#9f9b97"/><path d="M262.34,202.63c.14.21,1.25-.36,3.17-.83a32.51,32.51,0,0,1,7.65-.87,34.29,34.29,0,0,1,4.23.29,21.45,21.45,0,0,1,3.36.75c1.87.56,2.9,1.26,3.07,1.06s-.7-1.23-2.64-2.15a15.54,15.54,0,0,0-3.53-1.16,24,24,0,0,0-4.49-.45,21.71,21.71,0,0,0-8,1.42C263.17,201.5,262.21,202.47,262.34,202.63Z" style="fill:#9f9b97"/><path d="M261.53,196.14c0,.23,1.25.44,3.24.33s4.68-.47,7.58-.51a14.63,14.63,0,0,1,3.95.43,6.57,6.57,0,0,1,2.72,1.45c1.31,1.23,1.71,2.45,2,2.36s.13-.36,0-.93a5.55,5.55,0,0,0-1.12-2.23,6.05,6.05,0,0,0-1.3-1.2,8,8,0,0,0-1.81-.9,13.21,13.21,0,0,0-4.42-.64,42.29,42.29,0,0,0-7.71,1C262.71,195.72,261.54,195.91,261.53,196.14Z" style="fill:#9f9b97"/><path d="M68.17,184c.16.17.9-.3,2-1.12s2.54-2,4.2-3.19c.83-.59,1.64-1.12,2.38-1.57s1.45-.82,2-1.1c1.19-.58,2-.88,2-1.12s-.93-.32-2.34,0a12.9,12.9,0,0,0-2.36.85,19,19,0,0,0-2.63,1.57,23.27,23.27,0,0,0-4,3.69C68.46,183.07,68,183.82,68.17,184Z" style="fill:#9f9b97"/><path d="M67,179.12c.23.1.69-.54,1.55-1.36a17.89,17.89,0,0,1,3.83-2.7c1.63-.89,3.21-1.62,4.33-2.26s1.75-1.18,1.64-1.38-.88,0-2.1.3a23.23,23.23,0,0,0-4.67,1.9A10.7,10.7,0,0,0,67.6,177C66.86,178.18,66.76,179,67,179.12Z" style="fill:#9f9b97"/><path d="M65.33,173c.07.08.33,0,.72-.16s.91-.48,1.58-.82l5.12-2.84c2-1.1,3.83-2.08,5.14-2.82s2.11-1.24,2-1.47-1-.08-2.5.4A34,34,0,0,0,72,167.77a31.8,31.8,0,0,0-5,3.32,8.56,8.56,0,0,0-1.32,1.29C65.37,172.72,65.26,173,65.33,173Z" style="fill:#9f9b97"/></svg>