<svg id="Capa_1" data-name="Capa 1" xmlns="http://www.w3.org/2000/svg" viewBox="0 0 361 305"><rect x="246.61" y="229.87" width="43.11" height="15.3" transform="translate(22.96 498.68) rotate(-88.34)" style="fill:#ad2324"/><rect x="242.79" y="233.59" width="43.11" height="7.65" transform="translate(19.36 494.75) rotate(-88.34)" style="fill:#8c1c1d"/><path d="M261.15,215.67c0,.86,3.38,1.66,7.6,1.78s7.67-.47,7.69-1.34-3.38-1.66-7.6-1.78S261.17,214.81,261.15,215.67Z" style="fill:#8c1c1d"/><path d="M272.43,206.81c2.32-1,8.92-2.37,7.28-5.8.32-.12.64-.25,1-.4a3.52,3.52,0,0,0,1.55-.39h0c1.26,2.82-.32,5.08-3,6.61a44.19,44.19,0,0,1-5.51,2.3c-3.2,1.27-3.1,3.67-3.27,6.74a1.7,1.7,0,0,1,0,.22c-.35,0-.7-.05-1.06-.06l-.92,0a1.86,1.86,0,0,0-.54.07h-.06a2.35,2.35,0,0,1,0-.27C268,211.68,268.27,208.56,272.43,206.81Z" style="fill:#815020"/><path d="M282.22,200.22s0,0,0,0a4.52,4.52,0,0,1,.41,2.35c-.63-.63-1.24-1.28-1.84-2A3.64,3.64,0,0,0,282.22,200.22Z" style="fill:#d59d51"/><path d="M280.06,200.87c.65.72,1.31,1.43,2,2.11a21.52,21.52,0,0,1-2.09-.73,2.4,2.4,0,0,0-.26-1.23Z" style="fill:#d59d51"/><path d="M279.66,203.09l.08-.13a22.42,22.42,0,0,0,2.55.85,4.55,4.55,0,0,1-.56.91A20,20,0,0,1,279.66,203.09Z" style="fill:#d59d51"/><path d="M278.32,204.37c.1-.07.22-.13.31-.2a16.3,16.3,0,0,0,2.46,1.26,8.27,8.27,0,0,1-1,.83A24.28,24.28,0,0,1,278.32,204.37Z" style="fill:#d59d51"/><path d="M276.18,205.44l.32-.13A27.7,27.7,0,0,0,279,206.9c-.3.16-.6.31-.91.45A12.57,12.57,0,0,1,276.18,205.44Z" style="fill:#d59d51"/><path d="M276.81,207.57c-.9-.45-1.79-.9-2.68-1.37.43-.15.89-.31,1.35-.49a16.26,16.26,0,0,0,1.92,2l-.41.16A.29.29,0,0,0,276.81,207.57Z" style="fill:#d59d51"/><path d="M273.77,206.84c.83.44,1.66.87,2.5,1.28l-1.57.61C274.41,208.09,274.11,207.45,273.77,206.84Z" style="fill:#d59d51"/><path d="M273.24,209.32c-.71-.62-1.44-1.21-2.17-1.8a9.09,9.09,0,0,1,1.36-.71l.4-.15A21.26,21.26,0,0,1,274,209l-.33.13A4.68,4.68,0,0,0,273.24,209.32Z" style="fill:#d59d51"/><path d="M268.83,210c.05-.09.08-.19.13-.28a15,15,0,0,0,2.59.89,3.66,3.66,0,0,0-.43.74A17.62,17.62,0,0,1,268.83,210Z" style="fill:#d59d51"/><path d="M270.43,215.62a1.85,1.85,0,0,0,0,.24,1.7,1.7,0,0,1,0,.22c-.35,0-.7-.05-1.06-.06l-.92,0a1.86,1.86,0,0,0-.54.07h-.06a2.35,2.35,0,0,1,0-.27l0-.34A12.64,12.64,0,0,0,270.43,215.62Z" style="fill:#d59d51"/><path d="M267.87,214.71c0-.47.08-.92.14-1.36.83.33,1.66.66,2.5,1,0,.19,0,.38,0,.58A11.35,11.35,0,0,1,267.87,214.71Z" style="fill:#d59d51"/><path d="M268.1,212.6a.68.68,0,0,0,0-.15c.89,0,1.78-.06,2.67-.07a8.68,8.68,0,0,0-.2,1.19C269.75,213.27,268.93,212.93,268.1,212.6Z" style="fill:#d59d51"/><path d="M282.24,199.35c.13,0,.29.64-.07,1.37s-1.05.93-1.11.82.3-.55.61-1.08S282.05,199.35,282.24,199.35Z" style="fill:#d59d51"/><path d="M282.8,199.18c.14,0,.12.72-.31,1.41s-.94,1-1.06,1,.18-.66.58-1.26S282.62,199.15,282.8,199.18Z" style="fill:#d59d51"/><path d="M283.34,199.75c.13.06,0,.72-.61,1.33a2.43,2.43,0,0,1-.85.59c-.25.11-.42.13-.45.06s.05-.21.22-.39.41-.41.67-.66C282.81,200.16,283.18,199.68,283.34,199.75Z" style="fill:#d59d51"/><path d="M281.45,200.81c0,.06-.11.2-.41.29a1.51,1.51,0,0,1-1.18-.26c-.8-.57-.9-1.36-.77-1.4s.49.53,1.09.93S281.39,200.65,281.45,200.81Z" style="fill:#d59d51"/><path d="M281.06,201.54c0,.07-.15.14-.41.15a1.7,1.7,0,0,1-.94-.31c-.67-.47-.79-1.16-.65-1.2s.47.38,1,.73S281.06,201.37,281.06,201.54Z" style="fill:#d59d51"/><path d="M280.69,201.53c0,.15-.56.18-1.15.06s-1.1-.35-1.06-.5.56-.18,1.15-.06S280.74,201.38,280.69,201.53Z" style="fill:#d59d51"/><rect x="82.78" y="215.97" width="15.3" height="43.11" transform="translate(-6.85 2.72) rotate(-1.66)" style="fill:#ad2324"/><rect x="90.43" y="215.86" width="7.65" height="43.11" transform="translate(-6.85 2.84) rotate(-1.66)" style="fill:#8c1c1d"/><path d="M97.45,215.67c0,.86-3.38,1.66-7.6,1.78s-7.67-.47-7.69-1.34,3.38-1.66,7.6-1.78S97.43,214.81,97.45,215.67Z" style="fill:#8c1c1d"/><path d="M86.17,206.81c-2.32-1-8.92-2.37-7.28-5.8-.32-.12-.65-.25-1-.4a3.52,3.52,0,0,1-1.55-.39h0c-1.26,2.82.32,5.08,3,6.61a43.57,43.57,0,0,0,5.51,2.3c3.2,1.27,3.1,3.67,3.28,6.74a.83.83,0,0,0,0,.22c.35,0,.7-.05,1.06-.06l.92,0a1.9,1.9,0,0,1,.54.07h.05a1.18,1.18,0,0,0,0-.27C90.57,211.68,90.33,208.56,86.17,206.81Z" style="fill:#815020"/><path d="M76.38,200.22l0,0a4.52,4.52,0,0,0-.41,2.35c.63-.63,1.24-1.28,1.84-2A3.64,3.64,0,0,1,76.38,200.22Z" style="fill:#d59d51"/><path d="M78.54,200.87c-.65.72-1.31,1.43-2,2.11a21.52,21.52,0,0,0,2.09-.73A2.4,2.4,0,0,1,78.9,201Z" style="fill:#d59d51"/><path d="M78.94,203.09l-.08-.13a22.42,22.42,0,0,1-2.55.85,4.55,4.55,0,0,0,.56.91A20,20,0,0,0,78.94,203.09Z" style="fill:#d59d51"/><path d="M80.28,204.37c-.1-.07-.22-.13-.31-.2a16.3,16.3,0,0,1-2.46,1.26,8.27,8.27,0,0,0,1,.83A24.28,24.28,0,0,0,80.28,204.37Z" style="fill:#d59d51"/><path d="M82.43,205.44l-.33-.13a27.7,27.7,0,0,1-2.54,1.59c.3.16.6.31.91.45A13.59,13.59,0,0,0,82.43,205.44Z" style="fill:#d59d51"/><path d="M81.79,207.57c.9-.45,1.79-.9,2.68-1.37-.43-.15-.89-.31-1.35-.49a16.26,16.26,0,0,1-1.92,2l.41.16A.29.29,0,0,1,81.79,207.57Z" style="fill:#d59d51"/><path d="M84.83,206.84c-.83.44-1.66.87-2.5,1.28l1.57.61C84.19,208.09,84.49,207.45,84.83,206.84Z" style="fill:#d59d51"/><path d="M85.36,209.32c.71-.62,1.44-1.21,2.17-1.8a9.09,9.09,0,0,0-1.36-.71l-.4-.15A21.26,21.26,0,0,0,84.58,209l.33.13A4.68,4.68,0,0,1,85.36,209.32Z" style="fill:#d59d51"/><path d="M89.77,210c0-.09-.08-.19-.13-.28a15,15,0,0,1-2.59.89,3.66,3.66,0,0,1,.43.74A17.62,17.62,0,0,0,89.77,210Z" style="fill:#d59d51"/><path d="M88.17,215.62a2.12,2.12,0,0,0,0,.24.83.83,0,0,0,0,.22c.35,0,.7-.05,1.06-.06l.92,0a1.9,1.9,0,0,1,.54.07h.05a1.18,1.18,0,0,0,0-.27l0-.34A12.64,12.64,0,0,1,88.17,215.62Z" style="fill:#d59d51"/><path d="M90.73,214.71c0-.47-.09-.92-.14-1.36-.83.33-1.66.66-2.5,1,0,.19,0,.38,0,.58A11.35,11.35,0,0,0,90.73,214.71Z" style="fill:#d59d51"/><path d="M90.5,212.6a.68.68,0,0,1,0-.15c-.89,0-1.78-.06-2.67-.07a8.68,8.68,0,0,1,.2,1.19C88.85,213.27,89.67,212.93,90.5,212.6Z" style="fill:#d59d51"/><path d="M76.36,199.35c-.13,0-.29.64.07,1.37s1,.93,1.11.82-.3-.55-.61-1.08S76.55,199.35,76.36,199.35Z" style="fill:#d59d51"/><path d="M75.8,199.18c-.14,0-.12.72.31,1.41s.94,1,1.06,1-.18-.66-.58-1.26S76,199.15,75.8,199.18Z" style="fill:#d59d51"/><path d="M75.26,199.75c-.13.06,0,.72.61,1.33a2.52,2.52,0,0,0,.85.59c.25.11.42.13.45.06s0-.21-.22-.39-.41-.41-.67-.66C75.79,200.16,75.42,199.68,75.26,199.75Z" style="fill:#d59d51"/><path d="M77.15,200.81c0,.06.11.2.41.29a1.51,1.51,0,0,0,1.18-.26c.8-.57.9-1.36.77-1.4s-.49.53-1.09.93S77.21,200.65,77.15,200.81Z" style="fill:#d59d51"/><path d="M77.54,201.54c0,.07.15.14.41.15a1.7,1.7,0,0,0,.94-.31c.67-.47.79-1.16.65-1.2s-.47.38-1,.73S77.54,201.37,77.54,201.54Z" style="fill:#d59d51"/><path d="M77.91,201.53c0,.15.56.18,1.15.06s1.1-.35,1.06-.5-.56-.18-1.15-.06S77.86,201.38,77.91,201.53Z" style="fill:#d59d51"/><path d="M259.94,248.06c0,12-35.52,21.78-79.33,21.78s-79.33-9.75-79.33-21.78,35.51-21.78,79.33-21.78S259.94,236,259.94,248.06Z" style="fill:#282523"/><polyline points="97.06 152.78 262.86 154.68 176.09 1.17" style="fill:#9d8a8a"/><polygon points="166.32 25.46 239.2 154.41 262.86 154.68 176.09 1.17 97.06 152.78 99.93 152.81 166.32 25.46" style="fill:#847575"/><path d="M121.35,102.73c21.9-1,32.85-9.47,53.9-15,10.11-3,43.8-11.46,40.43-17.94,15.8,1.62,7.95,9,0,13.31-11.25,6.08-21.9,6.52-35.38,9.62-26.11,5.48-34.53,12-61.49,12.46-1.68-1,0-1.5,0-2" style="fill:#cebfbf"/><path d="M109.36,122.66c21.9-1,44.64-9.47,65.7-15,10.1-3,52.21-15.95,48.85-22.43,24.42,2.5-.85,14-9.27,17.45-13.47,5.48-19.37,6.48-34.53,10-26.11,5.49-46.32,12-73.27,12.46-1.69-1,0-1.49,0-2" style="fill:#cebfbf"/><path d="M102,142.6c21.9-1,52.22-9.47,73.27-14.95,10.11-3,62.33-18.44,59-24.92,24.42,2.49-.84,14-9.27,17.44-13.47,5.48-29.47,9-44.63,12.46-26.11,5.48-53.91,12-80.86,12.46-1.68-1,0-1.5,0-2" style="fill:#cebfbf"/><path d="M160.1,33c7-.54,11.81-3.74,17.52-5.83,4.23-1.54,10.6-2.6,10-6.24.12.79,8,1.73,9.1,2.54,5.66,4.15-10.31,8.14-14.61,9.22-1.37.34-28.6,5.3-24.58.81" style="fill:#cebfbf"/><path d="M144.94,57.87c20.27-.82,52.19-7,51.08-22.11.3,4.11,13.48,3.17,9.13,9.33C201.76,49.88,181.59,57,169.08,58c-5.6.47-26.45,4.48-26.67.33" style="fill:#cebfbf"/><path d="M131.46,77.81c18.24-.8,33.36-6.72,49.75-10.8,9.18-2.28,26.17-5.1,26.33-12.53,0,.08,6.67,2.37,7.35,3.09,1.73,1.81,1.27,3.8-.4,5.62-3.57,3.91-12.45,6-18.88,7.68-9.9,2.65-20.41,4.48-30.66,6.59-6.73,1.38-13.76,3.08-20.93,3.43-4.39.22-13.53.47-15.09-2.59" style="fill:#cebfbf"/><rect x="94.5" y="148.58" width="170.14" height="97.63" rx="5.55" style="fill:#d96c62"/><rect x="90.32" y="236.24" width="178.01" height="2.44" style="fill:#943131"/><rect x="90.32" y="169.66" width="178.01" height="2.44" style="fill:#943131"/><rect x="90.32" y="153.01" width="178.01" height="2.44" style="fill:#943131"/><path d="M258.64,148.48H222.88v97.63h35.76a5.55,5.55,0,0,0,5.55-5.55V154A5.54,5.54,0,0,0,258.64,148.48Z" style="fill:#943131"/><polygon points="256.55 245.07 255.16 242.66 256.55 240.26 259.33 240.26 260.72 242.66 259.33 245.07 256.55 245.07" style="fill:#d96c62"/><polygon points="256.55 232.31 255.16 229.9 256.55 227.5 259.33 227.5 260.72 229.9 259.33 232.31 256.55 232.31" style="fill:#d96c62"/><polygon points="256.55 219.55 255.16 217.14 256.55 214.74 259.33 214.74 260.72 217.14 259.33 219.55 256.55 219.55" style="fill:#d96c62"/><polygon points="256.55 180.71 255.16 178.3 256.55 175.9 259.33 175.9 260.72 178.3 259.33 180.71 256.55 180.71" style="fill:#d96c62"/><polygon points="256.55 164.06 255.16 161.66 256.55 159.25 259.33 159.25 260.72 161.66 259.33 164.06 256.55 164.06" style="fill:#d96c62"/><polygon points="97.32 245.07 95.93 242.66 97.32 240.26 100.09 240.26 101.48 242.66 100.09 245.07 97.32 245.07" style="fill:#d96c62"/><polygon points="97.32 232.31 95.93 229.9 97.32 227.5 100.09 227.5 101.48 229.9 100.09 232.31 97.32 232.31" style="fill:#d96c62"/><polygon points="97.32 219.55 95.93 217.14 97.32 214.74 100.09 214.74 101.48 217.14 100.09 219.55 97.32 219.55" style="fill:#d96c62"/><polygon points="97.32 180.71 95.93 178.3 97.32 175.9 100.09 175.9 101.48 178.3 100.09 180.71 97.32 180.71" style="fill:#d96c62"/><polygon points="97.32 164.06 95.93 161.66 97.32 159.25 100.09 159.25 101.48 161.66 100.09 164.06 97.32 164.06" style="fill:#d96c62"/><polygon points="97.32 245.07 95.93 242.66 97.32 240.26 100.09 240.26 101.48 242.66 100.09 245.07 97.32 245.07" style="fill:#943131"/><polygon points="97.32 232.31 95.93 229.9 97.32 227.5 100.09 227.5 101.48 229.9 100.09 232.31 97.32 232.31" style="fill:#943131"/><polygon points="97.32 219.55 95.93 217.14 97.32 214.74 100.09 214.74 101.48 217.14 100.09 219.55 97.32 219.55" style="fill:#943131"/><polygon points="97.32 180.71 95.93 178.3 97.32 175.9 100.09 175.9 101.48 178.3 100.09 180.71 97.32 180.71" style="fill:#943131"/><polygon points="97.32 164.06 95.93 161.66 97.32 159.25 100.09 159.25 101.48 161.66 100.09 164.06 97.32 164.06" style="fill:#943131"/><path d="M235.58,236.94c0,4.8-5.56,12.17-8.69,15.48-9.73,10.29-26,15.89-39.68,17.92-21.05,3.14-42.62-5.62-57-21-3.2-3.41-6.27-7.45-6.27-12.38V198a27.73,27.73,0,0,1,27.73-27.74h56.2A27.74,27.74,0,0,1,235.58,198Z" style="fill:#751517"/><circle cx="179.74" cy="203.95" r="56.86" style="fill:#c52026"/><path d="M179.74,147.09a57.15,57.15,0,0,0-11.25,1.12,56.87,56.87,0,0,1,0,111.49,56.87,56.87,0,1,0,11.25-112.61Z" style="fill:#981c20"/><path d="M168.17,198.83a53.42,53.42,0,0,0-4.44,16.09c-1.66,11.65,4.44,11.09,14.43,11.65,8.32.55,18.3,1.66,18.3-8.33,0-3.32-4.43-18.3-6.65-20" style="fill:#ab4038"/><path d="M212.42,183.05c5.55,15.54,29.4,51.6,5.55,60.47,1.66-20,4.44-45.49-6.66-63.24" style="fill:#391e11"/><path d="M145,183.05c-5.55,15.54-29.4,51.6-5.55,60.47-1.66-20-4.43-45.49,6.66-63.24" style="fill:#391e11"/><path d="M182.39,229.23a2.43,2.43,0,1,1-2.43-2.42A2.43,2.43,0,0,1,182.39,229.23Z" style="fill:#4c50a1"/><path d="M182.39,220.91a2.43,2.43,0,1,1-2.43-2.43A2.43,2.43,0,0,1,182.39,220.91Z" style="fill:#4c50a1"/><path d="M182.39,212.59a2.43,2.43,0,1,1-2.43-2.43A2.43,2.43,0,0,1,182.39,212.59Z" style="fill:#4c50a1"/><rect x="189" y="260.82" width="13.66" height="20.71" style="fill:#751517"/><rect x="154.6" y="260.82" width="13.66" height="20.71" style="fill:#751517"/><path d="M211.11,276.52v9.56c13.94,1.06,24.78,9.13,24.78,18.92H180V276.52Z" style="fill:#c52026"/><rect x="180.04" y="276.52" width="12.93" height="28.48" style="fill:#981c20"/><path d="M216.63,286.67c-7.77-1.11-7.4,10.36-14.79,2.59,4.43-6.29,10.35-11.1,14-2.22" style="fill:#bbbbbc"/><path d="M147.44,276.52v9.56c-13.94,1.06-24.78,9.13-24.78,18.92h55.85V276.52Z" style="fill:#c52026"/><rect x="165.58" y="276.52" width="12.93" height="28.48" style="fill:#981c20"/><path d="M141.92,286.67c7.77-1.11,7.4,10.36,14.8,2.59-4.44-6.29-10.36-11.1-14.06-2.22" style="fill:#bbbbbc"/><path d="M143.67,157.59a10.83,10.83,0,1,1-10.83-10.82A10.83,10.83,0,0,1,143.67,157.59Z" style="fill:#fbc083"/><circle cx="134.87" cy="159.62" r="6.93" style="fill:#d09559"/><path d="M213.77,157.59a10.83,10.83,0,1,0,10.83-10.82A10.83,10.83,0,0,0,213.77,157.59Z" style="fill:#fbc083"/><circle cx="222.57" cy="159.62" r="6.93" style="fill:#d09559"/><circle cx="179.19" cy="152.52" r="42.16" style="fill:#fbc083"/><path d="M196.75,114.19a42.16,42.16,0,0,1-46,69.44,42.16,42.16,0,1,0,46-69.44Z" style="fill:#d09559"/><path d="M261.54,145.29c1.11-12.2,20.53-20.52,23.86-33.28,2.21-10-5.55-16.09-15-13.87-10,2.77-12.21,15-20.53,18.86-7.77-15.53-18.31-8.32-12.2,6.66,4.43,11.09,7.21,21.63,21.08,21.08" style="fill:#552e15"/><path d="M236.07,218.74c11.39-2.14,20.29-26.49,23.18-36.23,4.21-15.17,4.54-28.9,6.18-44.34l.12-1.11-25-6.36c5,1.3-6,32.77-7.57,35.61-4.5,8.38-14.67,10.37-7.24,23.91,3.37,6.16,14.65,15.27,11.24,23.41-.49,1.06-1,2.5-1.5,3.56" style="fill:#c52026"/><path d="M101.87,145.29C100.76,133.09,81.35,124.77,78,112c-2.22-10,5.55-16.09,15-13.87,10,2.77,12.2,15,20.52,18.86,7.77-15.53,18.31-8.32,12.21,6.66-4.44,11.09-7.21,21.63-21.08,21.08" style="fill:#552e15"/><path d="M127.34,218.74c-11.38-2.14-20.28-26.49-23.17-36.23-4.21-15.17-4.55-28.9-6.18-44.34l-.12-1.11,25-6.36c-5,1.3,6,32.77,7.57,35.61,4.51,8.38,14.67,10.37,7.25,23.91-3.37,6.16-14.65,15.27-11.24,23.41.48,1.06,1,2.5,1.49,3.56" style="fill:#c52026"/><path d="M227.54,168.58c-.11-6.25-.23-12.24-2.27-18.22a37.12,37.12,0,0,0-4.48-9.43c-.4-.56-2.18-2.08-2.3-2.69,3.91,19.58-.85,26.6-.85,26.6l-5.54,4.73-12-11.22-18.25,3.89h-5.22l-18.26-3.89-12,11.22-5.55-4.73s-4.76-7-.85-26.6c-.12.61-1.9,2.13-2.29,2.69a36.81,36.81,0,0,0-4.49,9.43c-2,6-2.15,12-2.27,18.22-.23,12.71-9.54,25.3-2.21,37.8,4.34,7.39,5.15,19.35,12.37,23.52,8,4.6,17,5.12,24.59,10.36,2.48,1.72,10.61,1.57,13.61,2.4l-.05-23.95v-.94h.05s0,24.9,0,24.9c3-.83,11.12-.68,13.6-2.4,7.55-5.24,16.64-5.76,24.59-10.36,7.22-4.17,8-16.13,12.37-23.52C237.08,193.88,227.77,181.29,227.54,168.58Z" style="fill:#020202"/><rect x="89.8" y="230.87" width="12.69" height="35.76" transform="translate(-4.85 1.93) rotate(-1.12)" style="fill:#ad2324"/><rect x="89.8" y="230.93" width="6.35" height="35.76" transform="matrix(1, -0.02, 0.02, 1, -4.87, 1.87)" style="fill:#8c1c1d"/><path d="M89.45,230.93c0,.72,2.86,1.24,6.37,1.17s6.33-.7,6.32-1.42-2.87-1.24-6.37-1.17S89.44,230.21,89.45,230.93Z" style="fill:#8c1c1d"/><path d="M98.44,223.14c1.89-.9,7.29-2.33,5.8-5.1l.77-.37a3,3,0,0,0,1.28-.39h0c1.16,2.28-.06,4.22-2.25,5.6A36.54,36.54,0,0,1,99.58,225c-2.61,1.19-2.42,3.17-2.45,5.72,0,.07,0,.13,0,.19a8.64,8.64,0,0,0-.88,0h-.77A1.5,1.5,0,0,0,95,231h0a1.64,1.64,0,0,1,0-.23C95,227.35,95.06,224.75,98.44,223.14Z" style="fill:#815020"/><path d="M106.29,217.28v0a3.73,3.73,0,0,1,.44,1.93c-.55-.5-1.09-1-1.61-1.54A3,3,0,0,0,106.29,217.28Z" style="fill:#d59d51"/><path d="M104.52,217.91c.57.56,1.15,1.12,1.74,1.66a18,18,0,0,1-1.77-.52,1.82,1.82,0,0,0-.26-1Z" style="fill:#d59d51"/><path d="M104.28,219.76a.6.6,0,0,0,.06-.11,19.53,19.53,0,0,0,2.15.6,3.74,3.74,0,0,1-.43.78A16.94,16.94,0,0,1,104.28,219.76Z" style="fill:#d59d51"/><path d="M103.22,220.87a1.6,1.6,0,0,0,.25-.18,12.3,12.3,0,0,0,2.09.95,7,7,0,0,1-.8.73A19.8,19.8,0,0,1,103.22,220.87Z" style="fill:#d59d51"/><path d="M101.49,221.85l.26-.12a23,23,0,0,0,2.17,1.21c-.24.15-.49.28-.74.41A11.41,11.41,0,0,1,101.49,221.85Z" style="fill:#d59d51"/><path d="M102.1,223.59l-2.27-1,1.09-.46a14.33,14.33,0,0,0,1.67,1.55l-.33.15A.24.24,0,0,0,102.1,223.59Z" style="fill:#d59d51"/><path d="M99.55,223.1c.7.34,1.41.66,2.12,1l-1.27.56C100.13,224.11,99.86,223.6,99.55,223.1Z" style="fill:#d59d51"/><path d="M99.21,225.18c-.61-.48-1.24-1-1.87-1.41a7.57,7.57,0,0,1,1.1-.63l.32-.15a19.54,19.54,0,0,1,1.09,1.88l-.27.12Z" style="fill:#d59d51"/><path d="M95.59,226c0-.07.06-.15.1-.23a12.8,12.8,0,0,0,2.17.63,3.73,3.73,0,0,0-.32.63A13.46,13.46,0,0,1,95.59,226Z" style="fill:#d59d51"/><path d="M97.14,230.51a1.34,1.34,0,0,1,0,.2c0,.07,0,.13,0,.19a8.64,8.64,0,0,0-.88,0h-.77A1.5,1.5,0,0,0,95,231h0a1.64,1.64,0,0,1,0-.23c0-.09,0-.18,0-.28A10.48,10.48,0,0,0,97.14,230.51Z" style="fill:#d59d51"/><path d="M95,229.86c0-.38,0-.76.06-1.13.7.24,1.41.48,2.11.69,0,.16,0,.32,0,.49A9.19,9.19,0,0,1,95,229.86Z" style="fill:#d59d51"/><path d="M95.09,228.11s0-.09,0-.13l2.2-.17c-.06.32-.09.65-.12,1C96.48,228.59,95.79,228.35,95.09,228.11Z" style="fill:#d59d51"/><path d="M106.26,216.56c.11,0,.27.51,0,1.14s-.84.81-.89.72.22-.47.46-.92S106.11,216.56,106.26,216.56Z" style="fill:#d59d51"/><path d="M106.72,216.39c.12,0,.13.59-.19,1.18s-.74.91-.84.84.11-.55.42-1.07S106.58,216.38,106.72,216.39Z" style="fill:#d59d51"/><path d="M107.19,216.85c.11,0,0,.59-.45,1.12a2.18,2.18,0,0,1-.68.53c-.2.09-.34.12-.37.06s0-.18.17-.33.32-.35.52-.57C106.77,217.2,107.06,216.79,107.19,216.85Z" style="fill:#d59d51"/><path d="M105.67,217.8s-.08.17-.33.25a1.23,1.23,0,0,1-1-.16c-.68-.44-.79-1.1-.69-1.13s.43.42.94.72S105.61,217.67,105.67,217.8Z" style="fill:#d59d51"/><path d="M105.38,218.42c0,.06-.12.12-.33.14a1.41,1.41,0,0,1-.8-.22c-.57-.36-.7-.93-.58-1s.4.29.83.56S105.37,218.28,105.38,218.42Z" style="fill:#d59d51"/><path d="M105.07,218.42c0,.13-.45.18-.95.1s-.93-.24-.9-.37.46-.17,1-.1S105.1,218.3,105.07,218.42Z" style="fill:#d59d51"/><rect x="244.57" y="242.41" width="35.76" height="12.69" transform="translate(8.61 506.28) rotate(-88.88)" style="fill:#ad2324"/><rect x="247.75" y="245.64" width="35.76" height="6.35" transform="matrix(0.02, -1, 1, 0.02, 11.64, 509.51)" style="fill:#8c1c1d"/><path d="M269.15,230.93c0,.72-2.86,1.24-6.37,1.17s-6.33-.7-6.32-1.42,2.87-1.24,6.37-1.17S269.16,230.21,269.15,230.93Z" style="fill:#8c1c1d"/><path d="M260.16,223.14c-1.89-.9-7.29-2.33-5.8-5.1l-.77-.37a3,3,0,0,1-1.28-.39h0c-1.16,2.28.06,4.22,2.25,5.6A36,36,0,0,0,259,225c2.6,1.19,2.41,3.17,2.44,5.72a1.15,1.15,0,0,0,0,.19,8.64,8.64,0,0,1,.88,0h.77a1.5,1.5,0,0,1,.44.07h.05a1.64,1.64,0,0,0,0-.23C263.61,227.35,263.54,224.75,260.16,223.14Z" style="fill:#815020"/><path d="M252.31,217.28v0a3.73,3.73,0,0,0-.44,1.93c.55-.5,1.09-1,1.61-1.54A3,3,0,0,1,252.31,217.28Z" style="fill:#d59d51"/><path d="M254.08,217.91c-.57.56-1.15,1.12-1.74,1.66a18,18,0,0,0,1.77-.52,1.82,1.82,0,0,1,.26-1Z" style="fill:#d59d51"/><path d="M254.32,219.76a.6.6,0,0,1-.06-.11,19.53,19.53,0,0,1-2.15.6,3.74,3.74,0,0,0,.43.78A16.94,16.94,0,0,0,254.32,219.76Z" style="fill:#d59d51"/><path d="M255.38,220.87a1.6,1.6,0,0,1-.25-.18,12.3,12.3,0,0,1-2.09.95,7,7,0,0,0,.8.73A19.8,19.8,0,0,0,255.38,220.87Z" style="fill:#d59d51"/><path d="M257.11,221.85l-.26-.12a23,23,0,0,1-2.17,1.21c.24.15.49.28.74.41A11.41,11.41,0,0,0,257.11,221.85Z" style="fill:#d59d51"/><path d="M256.5,223.59l2.27-1c-.35-.15-.72-.29-1.09-.46a14.33,14.33,0,0,1-1.67,1.55l.33.15A.24.24,0,0,1,256.5,223.59Z" style="fill:#d59d51"/><path d="M259.05,223.1c-.7.34-1.41.66-2.12,1l1.27.56C258.47,224.11,258.74,223.6,259.05,223.1Z" style="fill:#d59d51"/><path d="M259.39,225.18c.61-.48,1.24-1,1.87-1.41a7.57,7.57,0,0,0-1.1-.63l-.32-.15a19.54,19.54,0,0,0-1.09,1.88l.28.12Z" style="fill:#d59d51"/><path d="M263,226c0-.07-.06-.15-.1-.23a12.8,12.8,0,0,1-2.17.63,3.73,3.73,0,0,1,.32.63A13.46,13.46,0,0,0,263,226Z" style="fill:#d59d51"/><path d="M261.46,230.51a1.34,1.34,0,0,0,0,.2,1.15,1.15,0,0,0,0,.19,8.64,8.64,0,0,1,.88,0h.77a1.5,1.5,0,0,1,.44.07h.05a1.64,1.64,0,0,0,0-.23c0-.09,0-.18,0-.28A10.48,10.48,0,0,1,261.46,230.51Z" style="fill:#d59d51"/><path d="M263.62,229.86c0-.38,0-.76-.06-1.13-.7.24-1.41.48-2.11.69,0,.16,0,.32,0,.49A9.19,9.19,0,0,0,263.62,229.86Z" style="fill:#d59d51"/><path d="M263.51,228.11s0-.09,0-.13l-2.2-.17a7.84,7.84,0,0,1,.11,1C262.12,228.59,262.81,228.35,263.51,228.11Z" style="fill:#d59d51"/><path d="M252.34,216.56c-.11,0-.27.51,0,1.14s.84.81.89.72-.22-.47-.46-.92S252.49,216.56,252.34,216.56Z" style="fill:#d59d51"/><path d="M251.88,216.39c-.12,0-.14.59.19,1.18s.74.91.84.84-.11-.55-.42-1.07S252,216.38,251.88,216.39Z" style="fill:#d59d51"/><path d="M251.41,216.85c-.11,0,0,.59.45,1.12a2.18,2.18,0,0,0,.68.53c.2.09.34.12.37.06s0-.18-.17-.33-.32-.35-.52-.57C251.83,217.2,251.54,216.79,251.41,216.85Z" style="fill:#d59d51"/><path d="M252.93,217.8s.08.17.33.25a1.23,1.23,0,0,0,1-.16c.68-.44.79-1.1.69-1.13s-.43.42-.94.72S253,217.67,252.93,217.8Z" style="fill:#d59d51"/><path d="M253.22,218.42c0,.06.12.12.33.14a1.41,1.41,0,0,0,.8-.22c.57-.36.7-.93.58-1s-.4.29-.83.56S253.23,218.28,253.22,218.42Z" style="fill:#d59d51"/><path d="M253.53,218.42c0,.13.46.18.95.1s.93-.24.9-.37-.46-.17-.95-.1S253.5,218.3,253.53,218.42Z" style="fill:#d59d51"/><path d="M179.75,136.48c16.4,0,32,.48,46.3,1.36a25.17,25.17,0,0,0,.22-3.27c0-18.26-20.83-33.07-46.52-33.07s-46.53,14.81-46.53,33.07a23.53,23.53,0,0,0,.23,3.27C147.71,137,163.35,136.48,179.75,136.48Z" style="fill:#9bb1c3"/><path d="M179.75,101.5a66.75,66.75,0,0,0-6.84.36c18,4.7,31.35,18.45,32.77,35,7,.22,13.85.54,20.37.94a25.17,25.17,0,0,0,.22-3.27C226.27,116.31,205.44,101.5,179.75,101.5Z" style="fill:#889dac"/><path d="M184.59,137.25c.1-2.55.16-5.24.16-8,0-16.13-1.8-29.21-4-29.21s-4,13.08-4,29.21c0,2.79,0,5.48.15,8Z" style="fill:#5b788c"/><path d="M237,135.73c0,2.26-25.21,4.08-56.31,4.08s-56.32-1.82-56.32-4.08,25.21-4.08,56.32-4.08S237,133.48,237,135.73Z" style="fill:#5b788c"/><path d="M207.51,147.22c0,10.59-12.68,19.17-28.32,19.17s-28.32-8.58-28.32-19.17,12.67-19.16,28.32-19.16S207.51,136.64,207.51,147.22Z" style="fill:#d95b4a"/><path d="M189.38,129.35c5.57,3.5,9.06,8.49,9.06,14,0,10.58-12.68,19.16-28.32,19.16a40.76,40.76,0,0,1-10.2-1.28,36.61,36.61,0,0,0,19.27,5.12c15.64,0,28.32-8.58,28.32-19.17C207.51,139.07,200,132.12,189.38,129.35Z" style="fill:#a9473a"/><path d="M178.72,148.43c0,3.06-4.93,5.54-11,5.54s-11-2.48-11-5.54,4.93-5.54,11-5.54S178.72,145.37,178.72,148.43Z" style="fill:#f48577"/><ellipse cx="180.04" cy="191.68" rx="11.71" ry="21.06" style="fill:#5e1919"/><path d="M180,189.4c-5.79.23-8.56,6.92-10.19,12.62,2,6.4,5.82,10.72,10.2,10.72,4.22,0,7.91-4,10-10C189.15,196.78,186.32,189.15,180,189.4Z" style="fill:#f48577"/></svg>