<svg id="Capa_1" data-name="Capa 1" xmlns="http://www.w3.org/2000/svg" viewBox="0 0 361 305"><path d="M318.05,72.57c2.13-8.21,8.06-36.06-7.07-35.89-3.32-.19-9.13,5.25-13.56,6.54s-9.78.72-14.86,2.1c-12.09,3-14.22,11.25-9.89,23.15-6.73-1-10.59,1.45-9.49,9.21,1.43,10.12,10.89-.86,19.11.12,10.43,1.23,18.51,7.65,28.75,1" style="fill:#833c1c"/><path d="M274.47,172.32l35.87-4.39s39.14-11.29,11.09-99.41l-35.22,8.77s-6,59.82-22.6,31.42" style="fill:#516c31"/><path d="M43,72.57C40.82,64.36,34.89,36.51,50,36.68c3.32-.19,9.13,5.25,13.56,6.54s9.78.72,14.86,2.1c12.09,3,14.22,11.25,9.89,23.15,6.73-1,10.59,1.45,9.49,9.21-1.43,10.12-10.89-.86-19.11.12C68.28,79,60.2,85.45,50,78.84" style="fill:#833c1c"/><path d="M86.53,172.32l-35.87-4.39S11.52,156.64,39.57,68.52l35.22,8.77s6,59.82,22.6,31.42" style="fill:#516c31"/><path d="M249.12,63.37c0,7-5.19,12.71-11.59,12.71s-11.59-5.69-11.59-12.71,5.19-12.72,11.59-12.72S249.12,56.34,249.12,63.37Z" style="fill:#fbc083"/><path d="M243.06,65.74a7.42,7.42,0,1,1-7.41-7.41A7.42,7.42,0,0,1,243.06,65.74Z" style="fill:#d09559"/><ellipse cx="177.51" cy="62.48" rx="55.36" ry="35.43" style="fill:#fbc083"/><path d="M177.51,27.05c-21.61,0-40.31,7.93-49.43,19.48,1.73.09,3.46.14,5.21.16a132.31,132.31,0,0,1,33.87-5.62c11-.44,22.32.76,31.64,7.19,7,4.84,14.81,12.48,15.24,21.59.43,9-3.58,16.42-8.74,23.26,16.48-6.13,27.57-17.55,27.57-30.63C232.87,42.91,208.08,27.05,177.51,27.05Z" style="fill:#d09559"/><path d="M123.64,52.66a10.76,10.76,0,0,0-6.23-2c-6.4,0-11.6,5.69-11.6,12.72s5.2,12.71,11.6,12.71a10.58,10.58,0,0,0,4.7-1.1C122.29,66.26,123,57.79,123.64,52.66Z" style="fill:#fbc083"/><path d="M123,59.33a7.41,7.41,0,1,0-.8,13.24C122.33,67.82,122.63,63.24,123,59.33Z" style="fill:#d09559"/><path d="M124.15,53s53.2-28.08,106.64,0c0,0-16.7-40.48-53.32-44.24,0,0-28.36-1.88-69.9,39.72,0,0-12.26-3.93-17.52-10.44,0,0,8.73,33.06,22.57,32.08" style="fill:#5e7e38"/><path d="M203.1,40C196.33,34,188.63,27.33,179.3,25.9c-9.49-1.46-18.43,1.91-27,5.73a102.09,102.09,0,0,0-23.57,14.56c-5.23,4.28-11.18,10.68-17.93,12.45-4.68,1.23-9.18.21-13.45-1.7,3.82,7.21,9,13.64,15.23,13.2L124.15,53s38.82-20.47,83.44-9Z" style="fill:#516c31"/><path d="M115.89,57.24c2-3.27,5.87-3.27,9.78-1.31,9.14,3.92,11.75,12.4,22.84,15,20.22,5.21,81.41,17.1,84.36-8.46s-37.93-34.4-49-35.43c-14-1.31-14.92.93-29.41,2.8C141,31.6,113.87,41.4,114.58,58.54" style="fill:#516c31"/><path d="M264.78,211c-4,4.05-15.78,4.25-20.88,4.14-7.11-.15-19.53-2.64-21-11.05-1.85-10.77,13.57-19,22.34-20.11,0,0-16.51-11.64.75-7.13l10.51,2.25" style="fill:#fbc083"/><path d="M90.24,211c4,4.05,15.78,4.25,20.88,4.14,7.11-.15,19.53-2.64,21-11.05,1.85-10.77-13.57-19-22.34-20.11,0,0,16.51-11.64-.75-7.13L98.5,179.07" style="fill:#fbc083"/><polygon points="193.02 292.36 180.47 292.36 182.08 244.31 203.25 244.31 193.02 292.36" style="fill:#4d4c4c"/><path d="M188.68,244.31h-6.6l-1.61,48.05h1.47C184.3,276.36,186.68,260.36,188.68,244.31Z" style="fill:#3d3d3e"/><polygon points="175.75 292.36 163.2 292.36 152.97 244.31 174.13 244.31 175.75 292.36" style="fill:#4d4c4c"/><path d="M171.42,279c.4,4.43.75,8.89,1.17,13.35h3.16l-1.62-48.05h-5.79C169.3,255.88,170.37,267.45,171.42,279Z" style="fill:#3d3d3e"/><path d="M285.61,165.4c0,58.63-48.4,106.16-108.1,106.16S69.41,224,69.41,165.4s48.4-106.17,108.1-106.17S285.61,106.76,285.61,165.4Z" style="fill:#4d4c4c"/><path d="M292.64,225.67l-5.87-47.24h-2.54a260.74,260.74,0,0,0,1.38-30.32c0-54.66-48.4-99-108.1-99s-108.1,44.31-108.1,99a282.13,282.13,0,0,0,1.25,30.32h0l-5.87,47.24,76.91,40.38s31.93-57.66,35.26-57.69c3.58,0,34,57.69,34,57.69Z" style="fill:#5e7e38"/><path d="M205.05,72.39c18.45,25.88,30.41,57.15,37.79,87.89,6.64,27.66,9.62,55.94,11.57,84.29l38.23-18.9-5.87-47.24h-2.54a260.74,260.74,0,0,0,1.38-30.32c0-52.59-44.81-95.6-101.38-98.78A123.71,123.71,0,0,1,205.05,72.39Z" style="fill:#516c31"/><line x1="138.95" y1="254.1" x2="168.38" y2="152.05" style="fill:#5e7e38"/><line x1="186.09" y1="153.39" x2="211.92" y2="250.23" style="fill:#5e7e38"/><polyline points="168.38 131.72 175.75 95.1 182.4 131.72" style="fill:#5e7e38"/><path d="M69.48,199.16s119.66-49,216.13,0c0,0,3.5-15.41,0-26.92,0,0-91.85-57.45-215.41,1.6A94.49,94.49,0,0,0,69.48,199.16Z" style="fill:#833c1c"/><path d="M285.61,172.24s-18.26-11.42-49.44-18.84v28.75a194.48,194.48,0,0,1,49.44,17S289.11,183.75,285.61,172.24Z" style="fill:#6e3318"/><line x1="126.69" y1="257.97" x2="145.06" y2="250.23" style="fill:#5e7e38"/><line x1="206.25" y1="247.39" x2="228.23" y2="258.63" style="fill:#5e7e38"/><line x1="65.5" y1="219.84" x2="134.17" y2="255.99" style="fill:#5e7e38"/><line x1="220.67" y1="254.1" x2="291.91" y2="219.84" style="fill:#5e7e38"/><path d="M208.06,279.71v8.49c12.38.94,22,8.1,22,16.8H180.47V279.71Z" style="fill:#394a23"/><rect x="180.47" y="279.71" width="11.48" height="25.29" style="fill:#2e3b1e"/><path d="M149.36,279.71v8.49c-12.39.94-22,8.1-22,16.8h49.59V279.71Z" style="fill:#394a23"/><rect x="165.46" y="279.71" width="11.48" height="25.29" style="fill:#2e3b1e"/><polyline points="132.25 261.83 178.05 194.25 222.77 260.62" style="fill:none;stroke:#2a5227;stroke-miterlimit:10;stroke-width:1.8491182267785073px"/><polygon points="175.75 50.83 189.88 79.47 221.48 84.06 198.62 106.35 204.02 137.82 175.75 122.96 147.49 137.82 152.88 106.35 130.02 84.06 161.62 79.47 175.75 50.83" style="fill:#dd8630"/><path d="M175.75,50.83c-.21.1.91,2.87,3.15,7.87,1.11,2.5,2.51,5.56,4.17,9.13l2.67,5.73c.48,1,1,2.06,1.47,3.14.26.54.51,1.08.77,1.63.36.75.72,1.5,1.08,2.27L204.36,83l8.18,1.29,4.29.67.27,0,.08,0,.12,0,.22,0,.43.09-.57.5-2.49,2.38-5.66,5.43-12.64,12.17c1.51,9,3.1,18.55,4.75,28.45l-.07,0-3.22-1.7-7-3.7-15.29-8-15.29,8-7,3.7-3.22,1.7-.07,0c1.66-9.9,3.24-19.42,4.75-28.45L142.27,93.52l-5.66-5.43-2.49-2.38-.57-.5.43-.09.22,0,.12,0,.08,0,.27,0,4.29-.67L147.14,83l15.3-2.44c.36-.77.72-1.52,1.08-2.27.26-.55.52-1.09.77-1.63.5-1.08,1-2.12,1.47-3.14l2.67-5.73c1.66-3.57,3.06-6.63,4.18-9.13,2.23-5,3.35-7.77,3.14-7.87s-1.72,2.46-4.33,7.28c-1.31,2.41-2.88,5.39-4.71,8.87L160.8,78.34l-.34,0h-.09l-.21,0-.43,0-1.74.23-3.61.47-7.66,1-8.2,1.09-4.31.58-7.73,1.08L150.86,107q-1.25,7-2.55,14.39l-3.5,20.11,30.94-16.22,30.94,16.22-3.5-20.11Q201.89,114,200.64,107L225,82.91l-7.73-1.08-4.3-.58-8.21-1.09-7.66-1-3.6-.47-1.75-.23-.43,0-.21,0h-.08l-.35,0L184.79,67c-1.82-3.48-3.4-6.46-4.71-8.87C177.47,53.29,176,50.73,175.75,50.83Z" style="fill:#ebe84f"/><path d="M164,96.32c-2.49-1.07-5.69-2.84-8.53-3.56C148,91,146.94,97,146.23,104.15c-.35,3.91,0,15.29,3.91,17.78,4.27,2.13,11.38-3.91,16.36-3.91" style="fill:#d09559"/><path d="M164,96.32c.08-.18-.65-.68-2-1.51-.68-.41-1.52-.9-2.55-1.43a22.28,22.28,0,0,0-3.66-1.54,12.33,12.33,0,0,0-2.4-.44,7.13,7.13,0,0,0-2.8.33,5.66,5.66,0,0,0-1.41.71,5.87,5.87,0,0,0-1.2,1.08,9.18,9.18,0,0,0-1.57,2.72,19.29,19.29,0,0,0-.84,3c-.21,1-.36,2-.49,3.06-.07.52-.12,1-.18,1.56s-.09,1.11-.12,1.65c0,1.1,0,2.19,0,3.31a40.16,40.16,0,0,0,.72,6.47,22.88,22.88,0,0,0,.82,3.08,12,12,0,0,0,1.4,2.89,7.17,7.17,0,0,0,1.14,1.28,3.24,3.24,0,0,0,.35.27l.22.15a1.3,1.3,0,0,0,.26.14l.42.17.42.12a5.6,5.6,0,0,0,1.6.19,8.63,8.63,0,0,0,1.47-.14,20.3,20.3,0,0,0,4.6-1.65c1.3-.62,2.43-1.21,3.43-1.69s1.86-.88,2.58-1.16c1.42-.57,2.28-.69,2.28-.89s-.22-.19-.66-.24a6.58,6.58,0,0,0-1.9.1,19.33,19.33,0,0,0-2.88.77c-1.08.36-2.29.84-3.6,1.32a20.62,20.62,0,0,1-4.21,1.19,5,5,0,0,1-2.06-.12L151,121l-.2-.09,0,0,0,0,0,0-.18-.15a4.11,4.11,0,0,1-.67-.83,10.45,10.45,0,0,1-1-2.31,24.58,24.58,0,0,1-.66-2.75,43.28,43.28,0,0,1-.62-6.08c0-1.05-.05-2.09,0-3.1,0-.51,0-1,.09-1.48l.15-1.51a26.15,26.15,0,0,1,1-5.48,6.81,6.81,0,0,1,1-2,3.83,3.83,0,0,1,1.54-1.2,7.15,7.15,0,0,1,3.95-.13,27.29,27.29,0,0,1,3.52,1.06l2.71,1C163.05,96.31,163.94,96.49,164,96.32Z" style="fill:#cd5a28"/><path d="M160.81,104.86c-1.06-6.41,1-10.88,6.05-15.3,3.56-3.11,2.65-8.65,2.13-16.35-.21-3.17-5.28-9.62-2.71-12.53,3.38-3.83,14-.41,15.87,3.38,3.23,6.6,1,15.45,1.92,18.83,1.09,4,14.12-1.47,16.29,1.78s-.42,8.45-.07,12.36c.36,7.12-.71,16.36-5,22-5.33,7.83-16.36,7.83-24.54,5.34-9.25-2.49-13.51-4.27-10.31-14.23.71-2.13,2.13-2.84,1.78-5.33" style="fill:#d09559"/><path d="M160.81,104.86c.05,0,.07-.18.07-.51,0-.17,0-.37,0-.61v-.83a15.56,15.56,0,0,1,.83-5.33,14.11,14.11,0,0,1,1.82-3.39,20.4,20.4,0,0,1,3.14-3.4l.47-.42.24-.21.27-.26a4.42,4.42,0,0,0,.53-.53l.48-.6a9.32,9.32,0,0,0,1.29-2.85,15.05,15.05,0,0,0,.45-3.15,32,32,0,0,0,0-3.25c0-1.1-.1-2.21-.17-3.35,0-.56-.07-1.13-.11-1.71,0-.29,0-.57-.05-.87l0-.43a5.17,5.17,0,0,0-.07-.55,9.79,9.79,0,0,0-.55-1.92c-.22-.6-.46-1.17-.71-1.74-.49-1.14-1-2.26-1.41-3.39a12.69,12.69,0,0,1-.48-1.69,4.19,4.19,0,0,1-.06-1.52,1.88,1.88,0,0,1,.19-.58,1.91,1.91,0,0,1,.38-.47,3.6,3.6,0,0,1,1.31-.73,8.65,8.65,0,0,1,3.56-.27,16.28,16.28,0,0,1,3.81.92,14.11,14.11,0,0,1,3.51,1.83,6,6,0,0,1,1.26,1.25c.08.11.12.22.19.32l.19.46.2.47.1.24.08.24a18.47,18.47,0,0,1,.9,4.14,36.14,36.14,0,0,1,.18,4.45c0,1.53-.11,3.08-.15,4.7a21.94,21.94,0,0,0,.06,2.54,7.45,7.45,0,0,0,.24,1.44,4.34,4.34,0,0,0,.2.5,2.73,2.73,0,0,0,.3.48,2,2,0,0,0,.37.39l.2.18.2.14a4.55,4.55,0,0,0,.83.41l.39.12.38.09a6.7,6.7,0,0,0,.73.1c.24,0,.47,0,.7.05a20.28,20.28,0,0,0,2.61-.1c1.68-.15,3.31-.4,4.9-.57.8-.08,1.59-.14,2.33-.14a5.45,5.45,0,0,1,1.91.24.8.8,0,0,1,.37.23s0,0,0,0l0,0,0,.1.11.18a2.4,2.4,0,0,1,.17.4,6,6,0,0,1,.28,1.92,32.22,32.22,0,0,1-.57,4.53c-.12.79-.25,1.6-.32,2.46,0,.41,0,.86-.05,1.29l.06,1.23c.06,1.48.06,3,0,4.49s-.19,3-.4,4.39a32.34,32.34,0,0,1-2.15,8.15,9.58,9.58,0,0,1-.42.92c-.16.29-.28.61-.46.89l-.49.85-.56.83-.56.81c-.2.26-.4.49-.6.74A13.71,13.71,0,0,1,192,121a15.3,15.3,0,0,1-6.5,3.22,25,25,0,0,1-7,.57,33.33,33.33,0,0,1-6.5-1c-2.09-.56-4.09-1-5.88-1.65a11.64,11.64,0,0,1-4.49-2.41,5.45,5.45,0,0,1-1.57-3.84,15.4,15.4,0,0,1,.42-3.83c.13-.58.27-1.13.41-1.64a7.4,7.4,0,0,1,.52-1.32c.2-.4.41-.78.58-1.15a5.32,5.32,0,0,0,.39-1.06,3.59,3.59,0,0,0,0-1.52c-.07-.33-.14-.49-.18-.48s-.08.18-.1.5a4.9,4.9,0,0,1-.28,1.34,12.92,12.92,0,0,1-1.17,2,8.54,8.54,0,0,0-.7,1.42c-.18.52-.37,1.07-.54,1.66-.08.3-.17.61-.25.92s-.16.65-.22,1a13.62,13.62,0,0,0-.23,2.2,7.9,7.9,0,0,0,.36,2.49,6.34,6.34,0,0,0,1.41,2.4,9.74,9.74,0,0,0,2.31,1.76,20,20,0,0,0,2.7,1.22c1.88.72,3.88,1.26,6,1.88a33.35,33.35,0,0,0,6.87,1.25,26.68,26.68,0,0,0,7.65-.46,17.56,17.56,0,0,0,7.55-3.6,16.69,16.69,0,0,0,1.6-1.55c.24-.28.49-.57.71-.86s.44-.59.64-.89l.63-.91c.2-.32.39-.64.58-1s.35-.66.52-1a10.48,10.48,0,0,0,.48-1,27.82,27.82,0,0,0,1.5-4.28,37.39,37.39,0,0,0,.93-4.5c.24-1.52.38-3.07.47-4.64s.1-3.13,0-4.76c0-.37,0-.75,0-1.12a9.45,9.45,0,0,1,0-1c.05-.71.17-1.46.3-2.23a33.25,33.25,0,0,0,.62-5,8.32,8.32,0,0,0-.44-2.85,3.69,3.69,0,0,0-.3-.71l-.19-.35-.1-.17-.05-.09-.08-.11a4.59,4.59,0,0,0-.36-.41c-.13-.12-.26-.22-.4-.33a2.91,2.91,0,0,0-.41-.24l-.21-.11-.21-.08a7.88,7.88,0,0,0-2.91-.43,24.55,24.55,0,0,0-2.61.16c-1.68.17-3.3.42-4.87.56a19.65,19.65,0,0,1-2.26.1l-.52,0c-.17,0-.32,0-.47-.06l-.2-.05-.19,0a1.38,1.38,0,0,1-.25-.13c-.12-.09-.13-.09-.16-.17a8.25,8.25,0,0,1-.15-.93c-.06-.68-.06-1.46-.05-2.22,0-1.55.12-3.14.13-4.73a36.68,36.68,0,0,0-.24-4.79A20.31,20.31,0,0,0,184,65.15l-.1-.28-.12-.28-.24-.56-.25-.56a5.68,5.68,0,0,0-.38-.64A8.39,8.39,0,0,0,181.06,61a16.55,16.55,0,0,0-4.18-2.14,18.82,18.82,0,0,0-4.43-1,11,11,0,0,0-4.6.45,5.66,5.66,0,0,0-2.14,1.29,3.86,3.86,0,0,0-.84,1.09,4.29,4.29,0,0,0-.42,1.3,6.51,6.51,0,0,0,.12,2.36,13.12,13.12,0,0,0,.61,2c.47,1.26,1,2.4,1.53,3.51.25.55.5,1.09.71,1.62a8.61,8.61,0,0,1,.48,1.5,1.86,1.86,0,0,1,0,.33l0,.44c0,.29.05.58.07.87,0,.58.11,1.15.15,1.72.1,1.12.2,2.22.27,3.28a21.74,21.74,0,0,1-.23,5.89,7.51,7.51,0,0,1-.94,2.34c-.12.16-.24.33-.36.48a4.18,4.18,0,0,1-.4.44l-.2.21-.25.24-.48.45a21.25,21.25,0,0,0-3.17,3.79,14.53,14.53,0,0,0-1.75,3.8,13.91,13.91,0,0,0-.38,5.7c.05.32.09.6.14.84s.11.44.16.6C160.7,104.71,160.77,104.86,160.81,104.86Z" style="fill:#cd5a28"/><path d="M173.87,112.33c5.22-1.43,16.6-3.21,21.39.35,4.78,3.2,5.21,10.67-.44,13.52-16.08,7.11-35.29-16.36-20.08-15.3" style="fill:#d09559"/><path d="M173.87,112.33c.06.18,1.14,0,3.07-.17a69.38,69.38,0,0,1,8.14-.57,27.88,27.88,0,0,1,5.47.48,11.9,11.9,0,0,1,2.75.87,7.58,7.58,0,0,1,3.91,4.25,6.71,6.71,0,0,1,.36,3,5.92,5.92,0,0,1-1.12,2.87,5.7,5.7,0,0,1-1.11,1.14l-.32.24-.35.22a5,5,0,0,1-.73.37l-.4.16-.43.15c-.28.11-.58.18-.86.27a15.7,15.7,0,0,1-1.76.36,14.84,14.84,0,0,1-3.52.11,20,20,0,0,1-6.54-1.73,24.26,24.26,0,0,1-5.32-3.24,19,19,0,0,1-3.73-3.88,9.06,9.06,0,0,1-1.08-2,3.86,3.86,0,0,1-.29-1.78,2,2,0,0,1,.64-1.24,3.7,3.7,0,0,1,1.21-.67,12.58,12.58,0,0,1,2.1-.46c.5-.08.78-.15.78-.25s-.25-.2-.78-.31a7.26,7.26,0,0,0-2.37,0,4.4,4.4,0,0,0-1.73.66,3.29,3.29,0,0,0-1.35,2,4.06,4.06,0,0,0-.1,1.3,5.82,5.82,0,0,0,.23,1.3,10.18,10.18,0,0,0,1.1,2.49,19.42,19.42,0,0,0,3.91,4.58,25.57,25.57,0,0,0,5.71,3.8,21.82,21.82,0,0,0,7.38,2.11,18,18,0,0,0,4.14-.08,16.26,16.26,0,0,0,4.15-1.14,6.47,6.47,0,0,0,1.05-.53l.49-.31.47-.35a8.22,8.22,0,0,0,1.61-1.67,8.51,8.51,0,0,0,1.59-4.21,9.57,9.57,0,0,0-2.78-7.65,11,11,0,0,0-1.51-1.21,9.32,9.32,0,0,0-1.66-.92,14.21,14.21,0,0,0-3.35-.91,26.73,26.73,0,0,0-5.93-.17,40.9,40.9,0,0,0-8.28,1.45C174.82,111.66,173.82,112.15,173.87,112.33Z" style="fill:#cd5a28"/><path d="M193.54,103.08c11.73-4.63,14.58,7.11,3.91,12.09-5,2.49-18.14,4.27-23.48,2.49-10-3.56-1.06-11.74,5.69-11.74" style="fill:#d09559"/><path d="M193.54,103.08c0,.09.29.09.74,0,.23,0,.51-.09.83-.13s.7-.12,1.12-.15a10.11,10.11,0,0,1,3,0,6,6,0,0,1,1.65.5,4,4,0,0,1,1.39,1.11,4.09,4.09,0,0,1,.51,3.86,8.48,8.48,0,0,1-3,4,12.7,12.7,0,0,1-2.46,1.5c-.46.24-.92.41-1.38.62s-1,.36-1.49.5a48.77,48.77,0,0,1-6.55,1.44,56.91,56.91,0,0,1-6.72.65c-1.09,0-2.15,0-3.17,0-.51,0-1-.08-1.5-.12l-.72-.11-.35,0-.33-.08-.64-.16-.64-.23c-.22-.07-.41-.18-.61-.26a4.37,4.37,0,0,1-.57-.3,4.49,4.49,0,0,1-1.66-1.43,2.4,2.4,0,0,1-.29-.84l0-.11V113a3.65,3.65,0,0,1,.07-.46,4.93,4.93,0,0,1,.89-1.79,11.17,11.17,0,0,1,2.87-2.56,15,15,0,0,1,2.7-1.35c1.56-.59,2.52-.69,2.52-.9s-1-.44-2.8-.13a12.18,12.18,0,0,0-3.16,1,11.72,11.72,0,0,0-3.63,2.67,6.71,6.71,0,0,0-1.43,2.46,4.45,4.45,0,0,0,.29,3.39,6.66,6.66,0,0,0,2.41,2.42,7.53,7.53,0,0,0,.73.41c.24.11.49.25.74.35l.78.32.83.24.42.11.42.08.83.16c.55.06,1.11.13,1.68.18,1.12.08,2.26.11,3.41.08a52.42,52.42,0,0,0,7.07-.63,44.76,44.76,0,0,0,6.95-1.59c.55-.16,1.11-.4,1.65-.59s1.09-.48,1.59-.75a15.47,15.47,0,0,0,2.86-1.87,10.55,10.55,0,0,0,3.63-5.35,6.87,6.87,0,0,0,.11-3.12,5.56,5.56,0,0,0-1.34-2.62,5.85,5.85,0,0,0-2.18-1.46,7.89,7.89,0,0,0-2.18-.42,10.47,10.47,0,0,0-4.46.89,5.62,5.62,0,0,0-.78.39C193.69,102.82,193.5,103,193.54,103.08Z" style="fill:#cd5a28"/><path d="M190.33,97c2.49-1.07,9.25-3.91,11.74-2.13,6.05,4.62-1.42,12.09-5.34,13.87-4.62,2.13-21,6-24.89,1.78-6.05-6,12.45-11.38,17.43-12.45" style="fill:#d09559"/><path d="M190.33,97c.08.18,1.18-.13,3.13-.68,1-.27,2.17-.61,3.54-.86a15.1,15.1,0,0,1,2.18-.27,4.54,4.54,0,0,1,2.08.33l.1,0,.07.06a1.15,1.15,0,0,1,.2.16,4.26,4.26,0,0,1,.43.42l.21.22.18.24a3.84,3.84,0,0,1,.32.5,3.68,3.68,0,0,1,.41,2.33,6.93,6.93,0,0,1-1,2.63,13.67,13.67,0,0,1-2,2.51,16.51,16.51,0,0,1-2.66,2.16,9.25,9.25,0,0,1-1.48.8c-.55.24-1.13.45-1.73.65a60.26,60.26,0,0,1-7.68,2,45.1,45.1,0,0,1-7.82.87,17,17,0,0,1-3.56-.29,7.66,7.66,0,0,1-1.49-.48,3.6,3.6,0,0,1-1.1-.78,2.87,2.87,0,0,1-.69-1,1.47,1.47,0,0,1,0-1,3.52,3.52,0,0,1,.61-1.06,8,8,0,0,1,1-1,17.65,17.65,0,0,1,2.41-1.64c.82-.48,1.65-.91,2.46-1.29,3.23-1.53,6-2.51,7.91-3.22s3-1.09,2.94-1.28-1.2-.14-3.22.26a48.86,48.86,0,0,0-8.41,2.46c-.87.35-1.77.74-2.69,1.21a18.23,18.23,0,0,0-2.82,1.72,10.48,10.48,0,0,0-1.37,1.25,5.44,5.44,0,0,0-1.11,1.82,3.94,3.94,0,0,0-.23,1.21,4.08,4.08,0,0,0,.17,1.26,5.32,5.32,0,0,0,1.19,2c.11.12.25.26.4.4a4,4,0,0,0,.44.38,5.25,5.25,0,0,0,.49.33l.5.28a9.08,9.08,0,0,0,2,.71,18.7,18.7,0,0,0,4.13.43,44.78,44.78,0,0,0,8.33-.86,56.86,56.86,0,0,0,8-2.12c.64-.22,1.28-.47,1.92-.76a11.19,11.19,0,0,0,1.86-1,18.08,18.08,0,0,0,3-2.58,15.66,15.66,0,0,0,2.29-3.06,9.12,9.12,0,0,0,1.19-3.6,5.94,5.94,0,0,0-.85-3.64,5.57,5.57,0,0,0-.53-.72c-.09-.11-.18-.22-.28-.32l-.3-.29a6.2,6.2,0,0,0-.62-.53,3.14,3.14,0,0,0-.36-.25l-.22-.13-.21-.1a5.06,5.06,0,0,0-1.62-.36,9.16,9.16,0,0,0-1.41.06,14.07,14.07,0,0,0-2.4.5,25.12,25.12,0,0,0-3.56,1.36C191.21,96.23,190.26,96.87,190.33,97Z" style="fill:#cd5a28"/><path d="M192.48,84c9.25-1.42,21,7.74,9.59,14.14-4.27,2.13-23.12,6.4-27.39,2.49-7.82-7.11,14.23-10,18.14-10.67,1.07-.36,2.14-.36,3.2-.71" style="fill:#d09559"/><path d="M192.48,84c0,.22,1.21.1,3.22.45a17.39,17.39,0,0,1,3.54,1,14.41,14.41,0,0,1,4.08,2.44,7.9,7.9,0,0,1,1.69,2,4.31,4.31,0,0,1,.61,2.42,4.26,4.26,0,0,1-1.11,2.4,10.35,10.35,0,0,1-2.5,2l-.36.21-.18.11-.18.07-.17.08-.2.08-.41.16c-.56.21-1.16.4-1.76.59-1.21.36-2.47.69-3.77,1a80.23,80.23,0,0,1-8.1,1.47,35.93,35.93,0,0,1-8,.26c-.32,0-.61-.09-.91-.13s-.59-.12-.85-.2a4.29,4.29,0,0,1-1.36-.62,4,4,0,0,1-.56-.5,5,5,0,0,1-.49-.58,1.68,1.68,0,0,1-.39-1,1.44,1.44,0,0,1,.38-.91,5.28,5.28,0,0,1,1.07-1,16,16,0,0,1,2.82-1.45,46.58,46.58,0,0,1,5.72-1.85c1.8-.48,3.45-.86,4.9-1.19s2.69-.6,3.76-.87l.15,0,.08,0,.17-.06.31-.11.62-.18c.38-.12.73-.22,1-.32.54-.23.79-.39.76-.48s-.34-.11-.87-.06l-1,0c-.2,0-.42,0-.67.07l-.38.06-.2,0-.1,0s0,0-.05,0c-1,.1-2.32.22-3.81.41s-3.19.44-5.07.81a42.63,42.63,0,0,0-6.09,1.61,17.26,17.26,0,0,0-3.34,1.57,7.34,7.34,0,0,0-1.64,1.38,4.42,4.42,0,0,0-.68,1,3.63,3.63,0,0,0-.33,1.37,4.27,4.27,0,0,0,.79,2.52,6.06,6.06,0,0,0,.73.91,5.65,5.65,0,0,0,.86.81,6.73,6.73,0,0,0,2.19,1.07,11.09,11.09,0,0,0,1.1.28c.36.06.73.14,1.09.18a27.43,27.43,0,0,0,4.34.15c1.45-.05,2.9-.18,4.36-.36a74,74,0,0,0,8.4-1.58c1.33-.34,2.64-.7,3.92-1.11.64-.22,1.27-.43,1.9-.69.15,0,.31-.13.47-.19l.24-.11.25-.12.26-.12.22-.14.44-.27a12.07,12.07,0,0,0,3.06-2.64,6.68,6.68,0,0,0,1.52-3.81,6.48,6.48,0,0,0-1.09-3.65,9.79,9.79,0,0,0-2.26-2.39A15,15,0,0,0,199.74,84a15.49,15.49,0,0,0-4-.61C193.59,83.32,192.45,83.81,192.48,84Z" style="fill:#cd5a28"/></svg>