<svg id="Capa_1" data-name="Capa 1" xmlns="http://www.w3.org/2000/svg" viewBox="0 0 361 305"><path d="M268.5,256.62c3.92,11.74,13.7,26.42,18.59,40.12-7.83,3.91-48.88,3.78-32.25-9.92,7.83-6.85,13.66-4.76,13.66-4.76-7.43-.91-11.74-14.68-14.67-17.61" style="fill:#4d4c4c"/><path d="M247.86,303.4l-6.06-5.94c-9.35,8.17-21.2,10-27.41,3.94l15.41-15.71L249.12,266l18.05,17.71Z" style="fill:#394a23"/><rect x="248.38" y="266.3" width="11.48" height="25.29" transform="translate(-122.97 265.09) rotate(-45.56)" style="fill:#2e3b1e"/><path d="M238,300.59c5.53-4.24-2-11.13,7.56-11,1.22,6.72.59,13.46-7.34,10.29" style="fill:#bbbbbc"/><path d="M72.77,256.62c-3.92,11.74-13.7,26.42-18.59,40.12,7.83,3.91,48.88,3.78,32.25-9.92-7.83-6.85-13.66-4.76-13.66-4.76,7.43-.91,11.74-14.68,14.67-17.61" style="fill:#4d4c4c"/><path d="M93.41,303.4l6.06-5.94c9.35,8.17,21.2,10,27.41,3.94l-15.41-15.71L92.15,266,74.1,283.7Z" style="fill:#394a23"/><rect x="74.5" y="273.2" width="25.29" height="11.48" transform="translate(-170.38 140.8) rotate(-44.44)" style="fill:#2e3b1e"/><path d="M103.28,300.59c-5.53-4.24,2-11.13-7.56-11-1.22,6.72-.59,13.46,7.34,10.29" style="fill:#bbbbbc"/><path d="M231.48,102.45c14.9,3.39,36.87,12.8,48.11,37.38,6.07,13.26,18.1-6.21,32.2-1.14,17.1,6.15-12,59.45-31.88,67.53-20.39,8.29-33.24-22.64-45.5-24.43-9-1.31,28.27,20.58,21.14,15.62-.66-.33-1.31-1-2-1.32" style="fill:#516c31"/><path d="M257.92,238.77c-4.05,4-15.78,4.25-20.89,4.14-7.1-.15-19.52-2.64-21-11.06-1.85-10.76,13.57-19,22.34-20.1,0,0-16.52-11.64.75-7.14l10.51,2.26" style="fill:#fbc083"/><path d="M83.38,238.77c4,4,15.78,4.25,20.88,4.14,7.11-.15,19.53-2.64,21-11.06,1.85-10.76-13.57-19-22.35-20.1,0,0,16.52-11.64-.75-7.14l-10.51,2.26" style="fill:#fbc083"/><path d="M278.75,193.19c0,58.64-48.4,106.17-108.1,106.17S62.54,251.83,62.54,193.19,110.94,87,170.65,87,278.75,134.56,278.75,193.19Z" style="fill:#4d4c4c"/><path d="M285.78,253.47l-5.87-47.25h-2.54a260.46,260.46,0,0,0,1.38-30.31c0-54.66-48.4-99-108.1-99s-108.11,44.31-108.11,99a279.31,279.31,0,0,0,1.26,30.31h0l-5.87,47.25,76.91,40.38S167.32,174,170.65,173.93c3.58,0,33.44,119.92,33.44,119.92Z" style="fill:#5e7e38"/><path d="M198.19,100.18c18.45,25.89,30.41,57.16,37.79,87.9,6.64,27.66,9.62,55.94,11.57,84.29l38.23-18.9-5.87-47.25h-2.54a260.46,260.46,0,0,0,1.38-30.31c0-52.6-44.81-95.6-101.38-98.78A124,124,0,0,1,198.19,100.18Z" style="fill:#516c31"/><ellipse cx="170.65" cy="90.28" rx="55.36" ry="35.43" style="fill:#fbc083"/><path d="M170.65,54.85c-21.61,0-40.31,7.93-49.43,19.48,1.73.09,3.46.14,5.21.16a132.76,132.76,0,0,1,33.87-5.63c11-.44,22.32.77,31.64,7.2,7,4.84,14.81,12.47,15.24,21.59.43,8.94-3.58,16.42-8.74,23.26C214.92,114.78,226,103.36,226,90.28,226,70.71,201.22,54.85,170.65,54.85Z" style="fill:#d09559"/><path d="M242.26,91.16c0,7-5.19,12.72-11.59,12.72s-11.59-5.69-11.59-12.72,5.19-12.71,11.59-12.71S242.26,84.14,242.26,91.16Z" style="fill:#fbc083"/><path d="M236.2,93.54a7.42,7.42,0,1,1-7.41-7.41A7.42,7.42,0,0,1,236.2,93.54Z" style="fill:#d09559"/><path d="M222.84,78.45c.38.56,2.6,16.94,2,33.27l-11.07-10.14s6.27-19.22,5.58-25.28S222.84,78.45,222.84,78.45Z" style="fill:#7b6b69"/><path d="M117.54,75.49c-.38.57-2.81,19.9-2.25,36.23l11.07-10.14s-6.27-19.22-5.58-25.28S117.54,75.49,117.54,75.49Z" style="fill:#7b6b69"/><path d="M141.06,83.68c0,1.66-.57,3-1.28,3s-1.28-1.35-1.28-3,.57-3,1.28-3S141.06,82,141.06,83.68Z" style="fill:#fff"/><path d="M117.29,80.82s53.2-28.08,106.64,0c0,0-16.7-40.48-53.32-44.24,0,0-28.36-1.89-69.9,39.72,0,0-12.26-3.93-17.52-10.44,0,0,8.73,33.06,22.57,32.08" style="fill:#5e7e38"/><path d="M196.24,67.82c-6.77-6.08-14.47-12.69-23.8-14.12-9.49-1.46-18.43,1.91-27,5.72A102.13,102.13,0,0,0,121.91,74c-5.23,4.28-11.18,10.67-17.93,12.45-4.68,1.23-9.18.21-13.45-1.71,3.82,7.22,9,13.65,15.23,13.21l11.53-17.12s38.82-20.48,83.44-8.95Z" style="fill:#516c31"/><path d="M255.59,216.33l2.49,18.26a19.66,19.66,0,0,1-16.83,22.13l-6.81.93a19.66,19.66,0,0,1-22.14-16.82l-2.48-18.26Z" style="fill:#5e7e38;stroke:#2a5227;stroke-miterlimit:10;stroke-width:1.8491182267785073px"/><line x1="256.87" y1="225.73" x2="211.07" y2="232.41" style="fill:none;stroke:#2a5227;stroke-miterlimit:10;stroke-width:1.8491182267785073px"/><path d="M217.79,83.48s-15.26-5.64-21.4,5.57l-3.7-15s13.43-5.11,21.65,1Z" style="fill:#988481"/><path d="M124.37,82.38S140,78,145.26,89.65L150.15,75s-13-6.17-21.66-.74Z" style="fill:#988481"/><line x1="132.09" y1="281.9" x2="161.52" y2="179.85" style="fill:#5e7e38"/><line x1="179.23" y1="181.19" x2="205.06" y2="278.02" style="fill:#5e7e38"/><polyline points="161.52 159.51 168.89 122.89 175.54 159.51" style="fill:#5e7e38"/><path d="M62.62,207.38s119.66-49,216.13,0c0,0,3.5-15.4,0-26.91,0,0-91.85-57.46-215.41,1.6A94.44,94.44,0,0,0,62.62,207.38Z" style="fill:#833c1c"/><path d="M236.24,191.87s15.64,19.92,17.1,32.63,0,1.5,0,1.5,3.66,7.79,18.48,4.57c0,0,11.19-4.52,6.72-13.29,0,0-5-18.7-19.52-31.45" style="fill:#833c1c"/><path d="M278.75,180.47s-18.26-11.42-49.44-18.85v28.75a194.86,194.86,0,0,1,49.44,17S282.25,192,278.75,180.47Z" style="fill:#6e3318"/><path d="M254.9,194.59c-.3,4-2.88,7.09-5.75,6.88l-22.44-.59c-3-.23-5.22-3.84-4.9-8.08L224,164c.32-4.23,3-7.47,6.06-7.24l22.27,2.8c2.87.22,5,3.66,4.65,7.67Z" style="fill:#66615c"/><path d="M251.3,190.94c-.23,3-2.18,5.36-4.35,5.2l-17.1-.46c-2.29-.17-3.95-2.9-3.7-6.1l1.65-21.79c.24-3.19,2.29-5.64,4.58-5.47l17,2.13c2.17.17,3.75,2.76,3.52,5.79Z" style="fill:#833c1c"/><path d="M171.32,105.64c6.44-8.32,15.6-16.49,26.64-16.77,13.88-.36,23.76,9.21,29.39,21,6.82,14.31-3,26.1-.49,40.15a13.76,13.76,0,0,0,11,10.69c4.41.75,13.48-1.45,9.11-7.72,5.6,8-1,15.06-9.29,16.27-10,1.43-18.76-6.44-27.09-10.59-3.88-1.93-8.11-4.14-12.48-4.67-10.68-1.3-22.72.67-27.64-11.62" style="fill:#988481"/><path d="M180.16,121.4a1.73,1.73,0,0,0,1.48,1.19c11.34,1.15,22.24,7.58,28.09,17.45,4.05,6.84,7,16.75,14.69,20.45,5.1,2.47,18.3,5.95,24,1.68-1.59,3.72-5.85,6.41-10.71,7.12-10,1.43-18.76-6.44-27.09-10.59-3.88-1.93-8.11-4.14-12.48-4.67-10.68-1.3-22.72.67-27.64-11.62l.53-24.12A90.66,90.66,0,0,1,180.16,121.4Z" style="fill:#897875"/><path d="M170.76,105.64c-6.43-8.32-15.59-16.49-26.64-16.77-13.88-.36-23.76,9.21-29.39,21-6.82,14.31,3,26.1.49,40.15a13.75,13.75,0,0,1-11,10.69c-4.4.75-13.48-1.45-9.1-7.72-5.61,8,1,15.06,9.28,16.27,10,1.43,18.77-6.44,27.09-10.59,3.88-1.93,8.11-4.14,12.48-4.67,10.68-1.3,22.72.67,27.65-11.62" style="fill:#988481"/><path d="M161.92,121.4a1.71,1.71,0,0,1-1.47,1.19c-11.35,1.15-22.24,7.58-28.09,17.45-4.06,6.84-7.05,16.75-14.69,20.45-5.11,2.47-18.3,5.95-24,1.68,1.59,3.72,5.84,6.41,10.7,7.12,10,1.43,18.77-6.44,27.09-10.59,3.88-1.93,8.11-4.14,12.48-4.67,10.68-1.3,22.72.67,27.65-11.62L171,118.29A92.41,92.41,0,0,0,161.92,121.4Z" style="fill:#897875"/><path d="M116.78,80.46a10.76,10.76,0,0,0-6.23-2c-6.41,0-11.6,5.69-11.6,12.71s5.19,12.72,11.6,12.72a10.72,10.72,0,0,0,4.7-1.1C115.43,94.06,116.18,85.59,116.78,80.46Z" style="fill:#fbc083"/><path d="M116.11,87.12A7.41,7.41,0,1,0,112.42,101a7.35,7.35,0,0,0,2.89-.59C115.47,95.62,115.77,91,116.11,87.12Z" style="fill:#d09559"/><path d="M195.75,170.59a3.51,3.51,0,1,1-3.51-3.51A3.51,3.51,0,0,1,195.75,170.59Z" style="fill:#542815"/><path d="M171.32,168.28a3.51,3.51,0,1,1-3.5-3.51A3.5,3.5,0,0,1,171.32,168.28Z" style="fill:#542815"/><path d="M86.32,216.33l-2.49,18.26a19.64,19.64,0,0,0,16.82,22.13l6.82.93a19.64,19.64,0,0,0,22.13-16.82l2.49-18.26Z" style="fill:#5e7e38;stroke:#2a5227;stroke-miterlimit:10;stroke-width:1.8491182267785073px"/><line x1="85.04" y1="225.73" x2="130.84" y2="232.41" style="fill:none;stroke:#2a5227;stroke-miterlimit:10;stroke-width:1.8491182267785073px"/><line x1="119.83" y1="285.77" x2="138.2" y2="278.02" style="fill:#5e7e38"/><line x1="199.39" y1="275.19" x2="221.37" y2="286.43" style="fill:#5e7e38"/><line x1="58.64" y1="247.63" x2="127.31" y2="283.79" style="fill:#5e7e38"/><line x1="213.81" y1="281.9" x2="285.05" y2="247.63" style="fill:#5e7e38"/><ellipse cx="170.65" cy="127.85" rx="10.53" ry="18.58" style="fill:#5e1919"/><path d="M173.07,136.51c-4.12-2.57-8.54,1.49-9.17,5.61,1.83,2.69,4.18,4.31,6.75,4.31s4.7-1.48,6.49-4C176.23,140.17,175,137.71,173.07,136.51Z" style="fill:#f48577"/><ellipse cx="170.65" cy="98.22" rx="38.54" ry="27.36" style="fill:#d95b4a"/><path d="M180,71.69c10.71,4.86,17.81,13.37,17.81,23.06,0,15.11-17.25,27.36-38.53,27.36a53.28,53.28,0,0,1-9.4-.83,50.36,50.36,0,0,0,20.73,4.3c21.28,0,38.53-12.25,38.53-27.36C209.18,85.42,196.78,74.67,180,71.69Z" style="fill:#a9473a"/><path d="M169.52,85.91c0,4.21-5.66,7.61-12.64,7.61s-12.63-3.4-12.63-7.61,5.65-7.61,12.63-7.61S169.52,81.71,169.52,85.91Z" style="fill:#f48577"/><rect x="139.42" y="161.44" width="203.74" height="9.03" transform="translate(-50.98 147.56) rotate(-30.92)" style="fill:#5f4424"/><path d="M171.31,238.2a29.41,29.41,0,0,1-6.09,4.85l-20.17,12.07c-13.4,8-30.49,4.12-38.17-8.71s-3-29.74,10.35-37.77l20.17-12.07a29.24,29.24,0,0,1,7.15-3.07Z" style="fill:#98a4b1"/><path d="M172.45,215.91A91.25,91.25,0,0,1,158.52,226c-14.62,8.75-28.55,12.38-31.11,8.1s7.22-14.84,21.83-23.59a90.78,90.78,0,0,1,15.49-7.5Z" style="fill:#74869a"/><rect x="316.53" y="106.22" width="18.9" height="18.05" transform="translate(-12.91 183.8) rotate(-30.91)" style="fill:#74869a"/><path d="M338.71,134.89,350.22,128c11.57-6.93,15.58-21.53,8.94-32.61s-21.39-14.45-33-7.52l-11.5,6.88Zm1-7.25L321.57,97.28l8.7-5.22c8.76-5.23,19.92-2.69,24.94,5.7s2,19.43-6.76,24.67Z" style="fill:#74869a"/><path d="M283.58,128.54c6-1,8.08-9,14.46-8.38,6.69.5,13.79,10.57,17.71,16.77,6.18,9.61,4.81,12.89-3.91,14.21-6.31,1.11-11.66,6.66-16.79,10.34-3.82,2.63-8,6.77-13.56,4.86-5.24-2-8.63-10.26-10.85-15.9-5.15-13.63,2-19.12,11.85-22.73" style="fill:#833c1c"/><path d="M75.32,221.53c-1-1-1-2.94,2.93,1C85.1,230.33,88,244,91,253.82c10.76,40.11,43.05,4.89,30.33-20.55,5.87,2.93,24.46,10.76,25.44-1,1-8.81-18.59-11.74-24.46-14.68-18.59-12.72-30.33-18.59-47.94,2" style="fill:#833c1c"/><path d="M105.08,201.44c-18.33-3.23-24.89-25.07-28.28-40.67-5.21-24,9.63-40.38,23.69-59.13-26.42,3.92-71.81,27.64-73.77,53.08-2,29.35,29.71,78.89,57.11,79.87" style="fill:#516c31"/></svg>