<svg id="Capa_1" data-name="Capa 1" xmlns="http://www.w3.org/2000/svg" viewBox="0 0 361 305"><path d="M237,74.65c29.79,6.77,56.3,22.83,68.73,52,7.13,16.71,9.82,35.92,3.46,53.37-3.89,10.66-16.15,23-28.41,21.26-9-1.31-12.58-26.71-19.71-31.66-.66-.33-1.32-1-2-1.32" style="fill:#516c31"/><path d="M115.13,70.16c-11.28,2.57-22.84,2.28-34,5.85-20.45,6.55-43,19.57-49.57,41.55C26,136.2,29.45,159.73,46.55,171.39c6.56,4.47,14.92,6.86,22.84,5.71,9-1.31,14.54-7,21.67-12,.66-.33,1.32-1,2-1.31" style="fill:#516c31"/><path d="M263.41,211c-4,4.05-15.77,4.25-20.88,4.14-7.11-.15-19.53-2.64-21-11.05-1.85-10.77,13.57-19,22.35-20.11,0,0-16.52-11.64.75-7.13l10.51,2.25" style="fill:#fbc083"/><path d="M88.87,211c4,4.05,15.78,4.25,20.89,4.14,7.1-.15,19.52-2.64,21-11.05,1.85-10.77-13.57-19-22.34-20.11,0,0,16.52-11.64-.75-7.13l-10.51,2.25" style="fill:#fbc083"/><polygon points="191.65 292.36 179.1 292.36 180.72 244.31 201.88 244.31 191.65 292.36" style="fill:#4d4c4c"/><path d="M187.32,244.31h-6.6l-1.62,48.05h1.48C182.94,276.36,185.32,260.36,187.32,244.31Z" style="fill:#3d3d3e"/><polygon points="174.39 292.36 161.83 292.36 151.6 244.31 172.77 244.31 174.39 292.36" style="fill:#4d4c4c"/><path d="M170.05,279c.41,4.43.75,8.89,1.18,13.35h3.16l-1.62-48.05H167C167.94,255.88,169,267.45,170.05,279Z" style="fill:#3d3d3e"/><path d="M284.24,165.4c0,58.63-48.39,106.16-108.1,106.16S68,224,68,165.4s48.4-106.17,108.1-106.17S284.24,106.76,284.24,165.4Z" style="fill:#4d4c4c"/><path d="M291.27,225.67l-5.87-47.24h-2.53a260.8,260.8,0,0,0,1.37-30.32c0-54.66-48.39-99-108.1-99S68,93.45,68,148.11a282.13,282.13,0,0,0,1.25,30.32h0l-5.87,47.24,76.91,40.38s32.49-119.88,35.82-119.92c3.58,0,33.44,119.92,33.44,119.92Z" style="fill:#5e7e38"/><path d="M203.68,72.39c18.45,25.88,30.42,57.15,37.8,87.89,6.64,27.66,9.61,55.94,11.56,84.29l38.23-18.9-5.87-47.24h-2.53a260.8,260.8,0,0,0,1.37-30.32c0-52.59-44.8-95.6-101.37-98.78A123.65,123.65,0,0,1,203.68,72.39Z" style="fill:#516c31"/><ellipse cx="176.14" cy="62.48" rx="55.36" ry="35.43" style="fill:#fbc083"/><path d="M176.14,27.05c-21.6,0-40.3,7.93-49.42,19.48,1.72.09,3.46.14,5.2.16a132.31,132.31,0,0,1,33.87-5.62c11-.44,22.33.76,31.65,7.19,7,4.84,14.8,12.48,15.24,21.59.42,9-3.58,16.42-8.75,23.26C220.41,87,231.5,75.56,231.5,62.48,231.5,42.91,206.72,27.05,176.14,27.05Z" style="fill:#d09559"/><path d="M247.76,63.37c0,7-5.19,12.71-11.59,12.71s-11.6-5.69-11.6-12.71,5.19-12.72,11.6-12.72S247.76,56.34,247.76,63.37Z" style="fill:#fbc083"/><path d="M213.41,59.64c0,5.52-1.9,10-4.26,10s-4.27-4.49-4.27-10,1.91-10,4.27-10S213.41,54.11,213.41,59.64Z"/><path d="M241.7,65.74a7.42,7.42,0,1,1-7.42-7.41A7.42,7.42,0,0,1,241.7,65.74Z" style="fill:#d09559"/><path d="M148.1,59.64c0,5.52-1.91,10-4.27,10s-4.27-4.49-4.27-10,1.91-10,4.27-10S148.1,54.11,148.1,59.64Z"/><path d="M228.34,50.65c.37.56,2.59,16.94,2,33.27L219.31,73.78s6.27-19.21,5.57-25.28S228.34,50.65,228.34,50.65Z" style="fill:#7b6b69"/><path d="M123,47.7c-.38.56-2.8,19.89-2.25,36.22l11.07-10.14s-6.27-19.21-5.58-25.28S123,47.7,123,47.7Z" style="fill:#7b6b69"/><path d="M211.84,55.88c0,1.67-.58,3-1.29,3s-1.28-1.35-1.28-3,.58-3,1.28-3S211.84,54.22,211.84,55.88Z" style="fill:#fff"/><path d="M146.56,55.88c0,1.67-.58,3-1.29,3s-1.28-1.35-1.28-3,.57-3,1.28-3S146.56,54.22,146.56,55.88Z" style="fill:#fff"/><path d="M122.78,53S176,24.94,229.43,53c0,0-16.71-40.48-53.33-44.24,0,0-28.36-1.88-69.9,39.72,0,0-12.26-3.93-17.51-10.44,0,0,8.72,33.06,22.56,32.08" style="fill:#5e7e38"/><path d="M201.73,40C195,34,187.26,27.33,177.94,25.9c-9.49-1.46-18.44,1.91-27,5.73a102,102,0,0,0-23.56,14.56c-5.23,4.28-11.19,10.68-17.94,12.45-4.67,1.23-9.17.21-13.45-1.7,3.83,7.21,9,13.64,15.23,13.2L122.78,53s38.82-20.47,83.44-9C204.73,42.72,203.24,41.37,201.73,40Z" style="fill:#516c31"/><path d="M261.08,188.53l2.49,18.26a19.66,19.66,0,0,1-16.82,22.14l-6.82.92A19.64,19.64,0,0,1,217.8,213l-2.49-18.26Z" style="fill:#5e7e38;stroke:#2a5227;stroke-miterlimit:10;stroke-width:1.8491182267785073px"/><line x1="262.37" y1="197.93" x2="216.56" y2="204.61" style="fill:none;stroke:#2a5227;stroke-miterlimit:10;stroke-width:1.8491182267785073px"/><path d="M220.65,54s-12-11-21.92-3L201,35.75s14.36.36,19.65,9.12Z" style="fill:#988481"/><path d="M132.81,54s12-11,21.92-3l-2.27-15.29s-14.36.36-19.65,9.12Z" style="fill:#988481"/><line x1="137.59" y1="254.1" x2="167.01" y2="152.05" style="fill:#5e7e38"/><line x1="184.73" y1="153.39" x2="210.55" y2="250.23" style="fill:#5e7e38"/><polyline points="167.01 131.72 174.39 95.1 181.03 131.72" style="fill:#5e7e38"/><path d="M68.12,179.59s119.66-49.05,216.12,0c0,0,3.5-15.41,0-26.92,0,0-91.84-57.45-215.41,1.6A94.26,94.26,0,0,0,68.12,179.59Z" style="fill:#833c1c"/><path d="M241.74,164.07S257.38,184,258.83,196.7s0,1.51,0,1.51,3.67,7.79,18.49,4.56c0,0,11.18-4.52,6.72-13.29,0,0-5-18.69-19.53-31.45" style="fill:#833c1c"/><path d="M284.24,152.67S266,141.25,234.81,133.83v28.74a194.44,194.44,0,0,1,49.43,17S287.74,164.18,284.24,152.67Z" style="fill:#6e3318"/><path d="M260.4,166.79c-.31,4-2.88,7.1-5.76,6.88l-22.43-.59c-3-.23-5.22-3.84-4.9-8.07l2.19-28.85c.32-4.23,3-7.48,6.06-7.25l22.26,2.81c2.88.21,5,3.65,4.66,7.67Z" style="fill:#66615c"/><path d="M256.79,163.14c-.23,3-2.18,5.36-4.35,5.2l-17.1-.46c-2.29-.17-3.94-2.9-3.7-6.09l1.65-21.8c.24-3.19,2.29-5.64,4.58-5.47l17,2.13c2.17.17,3.74,2.76,3.51,5.8Z" style="fill:#833c1c"/><path d="M189.65,72.16c8.93-5.58,20.35-10.06,30.81-6.5,11.1,3.78,17.65,14.56,19.52,25.67,1.06,6.35,1.62,14.58.22,20.92-2.37,10.64-9.4,18-16.61,25.61-3.27,3.47-7.32,7.26-9.73,11.4,0,0-1.31,8.14,5.44,7.15-11.41,1.67-12.41-7.78-10.08-16.44,2.37-8.82,3.29-15.52-7.4-18.12-8.1-2-25.37-4.11-25.68-15.49" style="fill:#988481"/><path d="M162.63,72.16c-8.93-5.58-20.35-10.06-30.8-6.5-11.1,3.78-17.66,14.56-19.52,25.67-1.07,6.35-1.63,14.58-.22,20.92,2.36,10.64,9.39,18,16.6,25.61,3.27,3.47,7.33,7.26,9.73,11.4,0,0,1.31,8.14-5.44,7.15,11.42,1.67,12.41-7.78,10.08-16.44-2.37-8.82-3.29-15.52,7.4-18.12,8.1-2,25.38-4.11,25.68-15.49" style="fill:#988481"/><path d="M201,87.1c5.47,1.46,11.07,3.16,15.58,6.75a28.3,28.3,0,0,1,9.46,28.73c-1.79,6.63-6.43,10.93-9.54,16.79a11.64,11.64,0,0,0-1.39,7.94c-.46.64-.89,1.29-1.28,1.95,0,0-1.31,8.14,5.44,7.15-11.41,1.67-12.41-7.78-10.08-16.44,2.37-8.82,3.29-15.52-7.4-18.12-8.1-2-25.37-4.11-25.68-15.49l8.17-20.67C189.86,84.74,195.52,85.62,201,87.1Z" style="fill:#897875"/><path d="M151.26,87.1c-5.48,1.46-11.08,3.16-15.59,6.75a28.27,28.27,0,0,0-9.45,28.73c1.79,6.63,6.43,10.93,9.54,16.79a11.69,11.69,0,0,1,1.38,7.94,23.31,23.31,0,0,1,1.28,1.95s1.31,8.14-5.44,7.15c11.42,1.67,12.41-7.78,10.08-16.44-2.37-8.82-3.29-15.52,7.4-18.12,8.1-2,25.38-4.11,25.68-15.49L168,85.69C162.42,84.74,156.77,85.62,151.26,87.1Z" style="fill:#897875"/><path d="M214.68,79.56c0,15.11-17.26,27.36-38.54,27.36s-38.53-12.25-38.53-27.36S154.86,52.2,176.14,52.2,214.68,64.45,214.68,79.56Z" style="fill:#d95b4a"/><path d="M122.28,52.66a10.8,10.8,0,0,0-6.24-2c-6.4,0-11.59,5.69-11.59,12.72S109.64,76.08,116,76.08a10.55,10.55,0,0,0,4.7-1.1C120.93,66.26,121.67,57.79,122.28,52.66Z" style="fill:#fbc083"/><path d="M185.54,53c10.7,4.86,17.81,13.37,17.81,23.06,0,15.11-17.26,27.36-38.54,27.36a54,54,0,0,1-9.39-.82,50.27,50.27,0,0,0,20.72,4.3c21.28,0,38.54-12.25,38.54-27.36C214.68,66.75,202.28,56,185.54,53Z" style="fill:#a9473a"/><ellipse cx="162.38" cy="67.25" rx="12.64" ry="7.61" style="fill:#f48577"/><path d="M121.61,59.33a7.41,7.41,0,1,0-.8,13.24C121,67.82,121.27,63.24,121.61,59.33Z" style="fill:#d09559"/><path d="M201.24,142.79a3.51,3.51,0,1,1-3.5-3.5A3.5,3.5,0,0,1,201.24,142.79Z" style="fill:#542815"/><path d="M176.82,140.48a3.51,3.51,0,1,1-3.51-3.51A3.51,3.51,0,0,1,176.82,140.48Z" style="fill:#542815"/><path d="M91.81,188.53l-2.49,18.26a19.67,19.67,0,0,0,16.83,22.14l6.81.92A19.66,19.66,0,0,0,135.1,213l2.49-18.26Z" style="fill:#5e7e38;stroke:#2a5227;stroke-miterlimit:10;stroke-width:1.8491182267785073px"/><line x1="90.53" y1="197.93" x2="136.34" y2="204.61" style="fill:none;stroke:#2a5227;stroke-miterlimit:10;stroke-width:1.8491182267785073px"/><line x1="125.33" y1="257.97" x2="143.7" y2="250.23" style="fill:#5e7e38"/><line x1="204.88" y1="247.39" x2="226.87" y2="258.63" style="fill:#5e7e38"/><line x1="64.13" y1="219.84" x2="132.81" y2="255.99" style="fill:#5e7e38"/><line x1="219.31" y1="254.1" x2="290.55" y2="219.84" style="fill:#5e7e38"/><path d="M206.69,279.71v8.49c12.38.94,22,8.1,22,16.8H179.1V279.71Z" style="fill:#394a23"/><rect x="179.1" y="279.71" width="11.48" height="25.29" style="fill:#2e3b1e"/><path d="M211.6,288.72c-6.9-1-6.57,9.2-13.14,2.3,3.94-5.58,9.19-9.85,12.48-2" style="fill:#bbbbbc"/><path d="M148,279.71v8.49c-12.38.94-22,8.1-22,16.8h49.6V279.71Z" style="fill:#394a23"/><rect x="164.09" y="279.71" width="11.48" height="25.29" style="fill:#2e3b1e"/><path d="M143.09,288.72c6.89-1,6.56,9.2,13.13,2.3-3.94-5.58-9.19-9.85-12.48-2" style="fill:#bbbbbc"/><path d="M42.57,127.86C24,127.2,30.51,154,41.92,158.52c6.2,2.28,18.27.65,24.14-1,7.83-2.29,8.81-7.83,9.78-15,1.31-11.41-3.91-15.33-15-17.28" style="fill:#6e3318"/><path d="M63.62,140.06c-6.2,7.18,6.19,8.16,11.41,4.24,4.89-3.91,4.57-20.22-1.63-23.81" style="fill:#833c1c"/><path d="M81.64,179.62H78.37a14.67,14.67,0,0,0,.57-4l-9.65-9.15a20.47,20.47,0,0,0-4.47-12.63c5.48-2.23,9.25-6.84,9.25-12.19,0-7.52-7.45-13.62-16.64-13.62s-16.65,6.1-16.65,13.62c0,5.35,3.78,10,9.26,12.19a20.41,20.41,0,0,0-4.48,12.63l-9.65,9.15a14.67,14.67,0,0,0,.57,4H33.21a3.57,3.57,0,1,0,0,7.07h7.47a23.5,23.5,0,0,0,16.75,6.56,23.49,23.49,0,0,0,16.74-6.56h7.47a3.57,3.57,0,1,0,0-7.07Zm-37.27-38c0-5.9,5.84-10.68,13.06-10.68s13.05,4.78,13.05,10.68c0,4.42-3.27,8.21-8,9.84a8.48,8.48,0,0,0-5.1-2.26,8.48,8.48,0,0,0-5.11,2.26C47.65,149.88,44.37,146.09,44.37,141.67Z" style="fill:#516173"/><path d="M38,186.29a19,19,0,0,0-6.39,13.89c0,11.66,11.55,21.11,25.79,21.11s25.8-9.45,25.8-21.11a19,19,0,0,0-6.4-13.89Z" style="fill:#d3d3d3"/><path d="M74.67,204.72c0,7.79-7.72,14.11-17.25,14.11s-17.23-6.32-17.23-14.11,7.71-14.11,17.23-14.11S74.67,196.93,74.67,204.72Z" style="fill:#f5b940"/><path d="M75.68,240.49c4.08-2.48,6.74-6.44,6.74-10.92A11.66,11.66,0,0,0,80.36,223h1.28a3.57,3.57,0,1,0,0-7.07H33.21a3.57,3.57,0,1,0,0,7.07H34.5a11.59,11.59,0,0,0-2.06,6.56c0,4.48,2.65,8.44,6.73,10.92-10.23,1.33-8.65,3.73-8.65,6.48H84.33C84.33,244.22,85.91,241.82,75.68,240.49Z" style="fill:#516173"/><path d="M50.36,150.66a11.06,11.06,0,0,1,1.16.85l.4-.15A15.73,15.73,0,0,1,50.36,150.66Z" style="fill:#465361"/><path d="M51.92,132a15.43,15.43,0,0,0-4.84-1c-3.83,2.49-6.3,6.33-6.3,10.65a12,12,0,0,0,3.29,8.11,6.12,6.12,0,0,1,2.34-.53,6.47,6.47,0,0,1,2.92.8,10.11,10.11,0,0,1-5-8.38C44.37,137.38,47.46,133.69,51.92,132Z" style="fill:#465361"/><path d="M53.47,150.66c.36-.19.71-.4,1-.61A10.38,10.38,0,0,0,53.47,150.66Z" style="fill:#465361"/><path d="M81.64,179.62H78.37a14.67,14.67,0,0,0,.57-4l-9.65-9.15a20.47,20.47,0,0,0-4.47-12.63c5.48-2.23,9.25-6.84,9.25-12.19,0-7.52-7.45-13.62-16.64-13.62a20.15,20.15,0,0,0-5.51.78A17.71,17.71,0,0,1,56.75,131c.23,0,.45,0,.68,0,7.21,0,13.05,4.78,13.05,10.68,0,4.42-3.27,8.21-8,9.84a11.32,11.32,0,0,0-2.76-1.73,16.31,16.31,0,0,1-6,4.08,20.47,20.47,0,0,1,4.47,12.63l9.65,9.15a14.67,14.67,0,0,1-.57,4h3.27a3.81,3.81,0,0,1,4,3.53A3.41,3.41,0,0,1,73,186a14.25,14.25,0,0,1,1.27.71h7.34a3.57,3.57,0,1,0,0-7.07Z" style="fill:#465361"/><path d="M75.68,240.49c4.08-2.48,6.74-6.44,6.74-10.92A11.66,11.66,0,0,0,80.36,223h1.28a3.57,3.57,0,1,0,0-7.07H68.33a3.57,3.57,0,1,1,0,7.07H67a11.66,11.66,0,0,1,2.06,6.56c0,4.48-2.65,8.44-6.73,10.92,10.23,1.33,11.82,3.73,11.82,6.48H84.33C84.33,244.22,85.91,241.82,75.68,240.49Z" style="fill:#465361"/><polygon points="76.35 221.4 79.94 221.53 85.14 182.79 81.54 182.66 76.35 221.4" style="fill:#465361"/><polygon points="37.96 221.4 34.37 221.53 29.18 182.79 32.77 182.66 37.96 221.4" style="fill:#516173"/><path d="M46.35,229a5.93,5.93,0,1,1-5.93-6A6,6,0,0,1,46.35,229Z" style="fill:#798fa8"/><path d="M54.16,196.79A7.81,7.81,0,1,1,46.35,189,7.8,7.8,0,0,1,54.16,196.79Z" style="fill:#fff"/><path d="M55.46,143.65c-5.87-1.31-11.09,3.91-16.63,1.3-5.87-2.61-8.16-12.39-9.13-18.26-1.64-9.13,1-11.09,9.45-9.13,6.2,1.3,13.38-1,19.57-2,4.57-.65,10.11-2.28,14.36,1,3.91,3.26,3.58,10.43,3.26,15.33-1,11.74-9.79,13.37-20.23,12.72" style="fill:#833c1c"/><rect x="203.1" y="143.83" width="203.74" height="9.03" transform="translate(156.18 453.1) rotate(-89.92)" style="fill:#5f4424"/><path d="M330.86,245.54a29.29,29.29,0,0,1,1,7.72l0,23.5c0,15.63-12.17,28.27-27.13,28.24s-27.06-12.71-27-28.33l0-23.5a29.72,29.72,0,0,1,1.05-7.72Z" style="fill:#98a4b1"/><path d="M312.34,233.09a91.07,91.07,0,0,1,1.49,17.14c0,17-4.1,30.85-9.08,30.84s-9-13.83-9-30.87a90,90,0,0,1,1.55-17.14Z" style="fill:#74869a"/><rect x="295.69" y="40.61" width="18.9" height="18.06" transform="translate(255 354.69) rotate(-89.9)" style="fill:#74869a"/><path d="M328.53,48.84l0-13.41c0-13.49-10.43-24.44-23.34-24.46S281.8,21.86,281.78,35.35l0,13.41Zm-5.68-4.62-35.39-.06V34c0-10.2,8-18.46,17.73-18.45s17.68,8.31,17.66,18.51Z" style="fill:#74869a"/><path d="M288.19,150.3c2.18-5.69-3.74-11.51,0-16.72,3.79-5.52,16.06-6.61,23.39-6.88,11.41-.51,13.56,2.32,10.32,10.52-2.21,6-.1,13.43.5,19.72.36,4.62,1.83,10.34-2.61,14.16-4.4,3.5-13.2,2.31-19.2,1.39-14.37-2.39-15.51-11.35-13.69-21.66" style="fill:#833c1c"/></svg>