<svg id="Capa_1" data-name="Capa 1" xmlns="http://www.w3.org/2000/svg" viewBox="0 0 361 305"><polygon points="207.57 53.26 205.19 40.47 214.6 31.91 226.4 36.16 228.78 48.95 219.37 57.5 207.57 53.26" style="fill:#332a2b"/><polygon points="181.55 53.71 179.17 40.92 188.59 32.37 200.38 36.61 202.77 49.4 193.35 57.95 181.55 53.71" style="fill:#332a2b"/><polygon points="162.04 51.67 159.66 38.88 169.07 30.33 180.87 34.57 183.25 47.36 173.84 55.92 162.04 51.67" style="fill:#332a2b"/><polygon points="136.02 51.67 133.64 38.88 143.06 30.33 154.86 34.57 157.24 47.36 147.82 55.92 136.02 51.67" style="fill:#332a2b"/><polygon points="164.37 33.23 170.93 44.32 165.02 55.79 152.54 56.18 145.98 45.1 151.9 33.62 164.37 33.23" style="fill:#020202"/><polygon points="173.93 55.2 170.33 42.73 178.87 33.23 191.02 36.21 194.62 48.69 186.07 58.19 173.93 55.2" style="fill:#020202"/><polygon points="216.41 50.84 209.42 61.64 196.97 60.71 191.52 48.99 198.51 38.2 210.95 39.12 216.41 50.84" style="fill:#020202"/><rect x="205.24" y="29.76" width="9.64" height="13.28" transform="translate(76.14 202.28) rotate(-60.92)" style="fill:#8dbcd2"/><path d="M213.61,44.18l-12-6.7,4.93-8.85,12,6.69Zm-11.36-6.89,11.17,6.22,4.45-8L206.7,29.3Z" style="fill:#c9e4ee"/><polyline points="218.21 35.42 220.34 49.71 213.52 43.84" style="fill:#64a4c3"/><polygon points="220.68 50.33 213.36 44.03 213.68 43.66 220 49.09 217.96 35.45 218.45 35.38 220.68 50.33" style="fill:#c9e4ee"/><polyline points="200.84 52.97 220.34 49.71 213.52 43.84" style="fill:#c9e4ee"/><polygon points="200.88 53.21 200.8 52.73 219.78 49.55 213.36 44.03 213.68 43.66 220.9 49.87 200.88 53.21" style="fill:#c9e4ee"/><polyline points="206.6 28.96 193.33 34.69 201.91 37.39" style="fill:#c9e4ee"/><polygon points="192.63 34.73 206.5 28.73 206.7 29.19 194.04 34.65 201.99 37.15 201.84 37.62 192.63 34.73" style="fill:#c9e4ee"/><polyline points="213.52 43.84 200.84 52.97 201.91 37.39" style="fill:#64a4c3"/><polygon points="200.56 53.48 201.67 37.37 202.16 37.41 201.13 52.46 213.37 43.64 213.66 44.04 200.56 53.48" style="fill:#c9e4ee"/><polyline points="200.84 52.97 193.33 34.69 201.91 37.39" style="fill:#8dbcd2"/><polygon points="200.62 53.06 192.91 34.3 201.99 37.15 201.84 37.62 193.76 35.08 201.07 52.88 200.62 53.06" style="fill:#c9e4ee"/><polygon points="142.29 63.13 144.38 51.98 136.5 44.44 126.53 48.05 124.45 59.2 132.33 66.74 142.29 63.13" style="fill:#332a2b"/><polygon points="164.2 63.73 166.28 52.58 158.41 45.04 148.44 48.65 146.36 59.8 154.24 67.34 164.2 63.73" style="fill:#332a2b"/><polygon points="180.65 62.1 182.73 50.95 174.85 43.41 164.89 47.02 162.81 58.17 170.68 65.71 180.65 62.1" style="fill:#332a2b"/><polygon points="202.56 62.3 204.64 51.16 196.76 43.62 186.8 47.23 184.72 58.38 192.6 65.92 202.56 62.3" style="fill:#332a2b"/><polygon points="227.19 69.8 235.67 63.09 234.55 51.78 224.94 47.16 216.45 53.86 217.58 65.18 227.19 69.8" style="fill:#020202"/><polygon points="210.26 65.1 220.57 62.95 224 52.2 217.11 43.6 206.79 45.75 203.37 56.5 210.26 65.1" style="fill:#332a2b"/><polygon points="201.45 71.54 211.76 69.39 215.19 58.64 208.3 50.04 197.98 52.19 194.56 62.95 201.45 71.54" style="fill:#020202"/><polygon points="178.8 45.98 173.21 55.61 178.12 65.68 188.62 66.11 194.21 56.48 189.3 46.42 178.8 45.98" style="fill:#020202"/><polygon points="170.61 65.09 173.72 54.23 166.58 45.87 156.33 48.38 153.23 59.24 160.37 67.6 170.61 65.09" style="fill:#020202"/><polygon points="134.86 60.95 140.68 70.43 151.17 69.72 155.84 59.53 150.01 50.05 139.53 50.76 134.86 60.95" style="fill:#020202"/><polygon points="226.45 80.35 224.07 67.56 233.49 59.01 245.28 63.25 247.67 76.05 238.25 84.6 226.45 80.35" style="fill:#332a2b"/><polygon points="200.44 80.81 198.05 68.01 207.47 59.46 219.27 63.7 221.65 76.5 212.23 85.05 200.44 80.81" style="fill:#332a2b"/><polygon points="180.92 78.77 178.54 65.98 187.96 57.42 199.76 61.67 202.14 74.46 192.72 83.01 180.92 78.77" style="fill:#332a2b"/><polygon points="154.91 78.77 152.53 65.98 161.94 57.42 173.74 61.67 176.12 74.46 166.71 83.01 154.91 78.77" style="fill:#332a2b"/><polygon points="125.62 84.75 115.6 76.99 117.02 64.04 128.47 58.85 138.5 66.62 137.07 79.57 125.62 84.75" style="fill:#020202"/><polygon points="145.74 81.89 133.51 79.31 129.53 66.96 137.79 57.19 150.02 59.76 154 72.12 145.74 81.89" style="fill:#b3812c"/><path d="M139.13,67.24c4.08-1.15,8.23-2,12.36-2.89L150,59.76,137.84,57.2C138.23,60.51,138.07,64.07,139.13,67.24Z" style="fill:#e3ab23"/><polygon points="156.15 89.36 143.92 86.79 139.94 74.43 148.19 64.66 160.42 67.24 164.4 79.59 156.15 89.36" style="fill:#020202"/><polygon points="183.25 60.33 189.81 71.41 183.9 82.89 171.43 83.28 164.87 72.19 170.78 60.72 183.25 60.33" style="fill:#020202"/><polygon points="192.81 82.3 189.21 69.82 197.76 60.33 209.9 63.31 213.5 75.79 204.96 85.28 192.81 82.3" style="fill:#020202"/><polygon points="235.29 77.94 228.3 88.73 215.86 87.81 210.4 76.09 217.39 65.29 229.84 66.22 235.29 77.94" style="fill:#020202"/><polygon points="136.38 93.43 139.26 80.77 130.96 71.77 119.78 75.44 116.9 88.1 125.2 97.09 136.38 93.43" style="fill:#332a2b"/><polygon points="154.86 87.59 157.74 74.93 149.44 65.93 138.26 69.6 135.38 82.26 143.68 91.25 154.86 87.59" style="fill:#332a2b"/><polygon points="178.68 95.64 181.55 82.97 173.25 73.98 162.07 77.64 159.19 90.3 167.49 99.3 178.68 95.64" style="fill:#332a2b"/><polygon points="196.9 94.55 199.78 81.89 191.48 72.89 180.3 76.55 177.42 89.21 185.72 98.21 196.9 94.55" style="fill:#332a2b"/><polygon points="221.07 95.81 223.95 83.15 215.65 74.15 204.47 77.81 201.59 90.48 209.89 99.47 221.07 95.81" style="fill:#332a2b"/><polygon points="247.96 103.2 257.67 95.94 257.02 82.94 246.66 77.2 236.95 84.47 237.6 97.47 247.96 103.2" style="fill:#020202"/><polygon points="229.42 99.37 240.91 97.39 245.25 85.25 238.1 75.08 226.6 77.06 222.26 89.21 229.42 99.37" style="fill:#332a2b"/><polygon points="219.36 106.33 230.86 104.35 235.2 92.2 228.04 82.04 216.55 84.02 212.21 96.17 219.36 106.33" style="fill:#020202"/><polygon points="195.7 76.02 189.03 86.77 193.93 98.52 205.49 99.51 212.16 88.76 207.27 77.01 195.7 76.02" style="fill:#020202"/><polygon points="185.68 97.5 189.67 85.21 182.23 75.31 170.79 77.7 166.8 89.99 174.24 99.89 185.68 97.5" style="fill:#020202"/><polygon points="146.44 91.08 152.38 102.2 163.98 101.88 169.66 90.44 163.73 79.32 152.13 79.64 146.44 91.08" style="fill:#020202"/><polygon points="136.29 97.45 146.85 91.89 147.95 78.9 138.49 71.48 127.93 77.04 126.83 90.03 136.29 97.45" style="fill:#020202"/><polygon points="124.05 97.55 126.93 84.89 118.63 75.89 107.45 79.55 104.57 92.21 112.87 101.21 124.05 97.55" style="fill:#020202"/><polygon points="229.12 112.08 226.74 99.29 236.16 90.74 247.96 94.98 250.34 107.77 240.92 116.33 229.12 112.08" style="fill:#332a2b"/><polygon points="209.61 105.29 207.23 92.5 216.65 83.94 228.44 88.19 230.83 100.98 221.41 109.53 209.61 105.29" style="fill:#332a2b"/><polygon points="183.59 112.08 181.21 99.29 190.63 90.74 202.43 94.98 204.81 107.77 195.39 116.33 183.59 112.08" style="fill:#332a2b"/><polygon points="164.08 110.05 161.7 97.25 171.12 88.7 182.91 92.94 185.3 105.74 175.88 114.29 164.08 110.05" style="fill:#332a2b"/><polygon points="138.07 110.05 135.68 97.25 145.1 88.7 156.9 92.94 159.28 105.74 149.86 114.29 138.07 110.05" style="fill:#332a2b"/><polygon points="108.78 116.03 98.76 108.27 100.18 95.32 111.63 90.13 121.65 97.89 120.23 110.84 108.78 116.03" style="fill:#020202"/><polygon points="128.9 116.64 116.67 114.07 112.69 101.72 120.94 91.94 133.18 94.52 137.16 106.87 128.9 116.64" style="fill:#332a2b"/><polygon points="139.31 120.64 127.08 118.06 123.1 105.71 131.35 95.94 143.58 98.51 147.56 110.86 139.31 120.64" style="fill:#020202"/><polygon points="166.41 91.6 172.97 102.69 167.06 114.17 154.59 114.56 148.03 103.47 153.94 91.99 166.41 91.6" style="fill:#020202"/><polygon points="175.97 113.58 172.37 101.1 180.91 91.6 193.06 94.59 196.66 107.06 188.12 116.56 175.97 113.58" style="fill:#020202"/><polygon points="218.45 109.21 211.46 120.01 199.02 119.08 193.56 107.36 200.55 96.57 213 97.49 218.45 109.21" style="fill:#020202"/><polygon points="229 116.1 217.97 110 217.52 96.98 228.09 90.06 239.12 96.16 239.57 109.18 229 116.1" style="fill:#020202"/><polygon points="242.13 116.84 239.75 104.05 249.16 95.49 260.96 99.74 263.35 112.53 253.93 121.08 242.13 116.84" style="fill:#020202"/><path d="M180.5,119.17c-31.61,0-60.52-3.88-82.82-10.3q-.06,1.35-.06,2.73V212a67.93,67.93,0,0,0,67.93,67.93h29.9A67.93,67.93,0,0,0,263.38,212V111.6q0-1.38-.06-2.73C241,115.29,212.11,119.17,180.5,119.17Z" style="fill:#603f6b"/><path d="M263.32,108.87c-16.11,4.63-35.67,7.95-57.2,9.43.95,32.19,3.29,64.37,1.31,96.55a313.48,313.48,0,0,1-11,65A67.93,67.93,0,0,0,263.38,212V111.6Q263.38,110.22,263.32,108.87Z" style="fill:#432b4a"/><path d="M229.23,171.09s1.64-1.89,6.09,2.43c7.34,7.13,20.67,24.59,20.67,24.59s8.83,20.26-28.88,22.87l-1.82-16s18.48,1.33,18-1.37-7.73-11.27-15.28-13.93" style="fill:#fbc083"/><path d="M136,171.09s-1.63-1.89-6.08,2.43c-7.34,7.13-20.67,24.59-20.67,24.59s-8.83,20.26,28.88,22.87L140,205s-18.49,1.33-18-1.37,7.73-11.27,15.29-13.93" style="fill:#fbc083"/><rect x="196.85" y="253.6" width="14.52" height="35.32" style="fill:#fbc083"/><rect x="196.85" y="253.6" width="14.52" height="19.47" style="fill:#301d37"/><rect x="156.77" y="253.6" width="14.52" height="35.32" style="fill:#fbc083"/><rect x="156.77" y="253.6" width="14.52" height="19.47" style="fill:#301d37"/><path d="M195.87,102.12c2.54-5.59,35-14.09,48,7.1,6.55,10.71,4,20.78-1.09,26.68,6.53-5.28,8.7,4.65,7.61,8.68-1.81,5.27-7.25,9.93-11.24,14,19.95,1.55-4.71,20.47-12,23.26,8.34,3.1-11.24,11.48-17,6.21-4.36-4.35,2.9-19.24,5.8-23" style="fill:#be7329"/><path d="M167.34,102.12c-2.54-5.59-35-14.09-48,7.1-6.55,10.71-4,20.78,1.09,26.68-6.53-5.28-8.7,4.65-7.61,8.68,1.81,5.27,7.25,9.93,11.24,14-20,1.55,4.71,20.47,12,23.26-8.34,3.1,11.24,11.48,17,6.21,4.36-4.35-2.9-19.24-5.8-23" style="fill:#be7329"/><path d="M221.34,166.31c3.74,1,10.53-.68,13.25,2.72,3.06,3.73.68,17,.34,21.39-1.7,12.57-4.08,26.5-10.53,37.36,0-10.53-2.38-21.39-3.06-31.92-.34-9.17.68-18.34.68-27.51" style="fill:#ad7bb5"/><path d="M144.58,166.31c-3.73,1-10.52-.68-13.24,2.72-3.06,3.73-.68,17-.34,21.39,1.7,12.57,4.07,26.5,10.53,37.36,0-10.53,2.37-21.39,3.05-31.92.34-9.17-.68-18.34-.68-27.51" style="fill:#ad7bb5"/><path d="M225.73,225.15l-.36,0a29,29,0,0,0,.29-4v-39c0-19.13-19.25-34.64-43-34.64s-43,15.51-43,34.64v39a28.84,28.84,0,0,0,.29,4l-.68,0L129.15,248s17.8,20.54,53.36,20.1c35.55.44,53.35-20.1,53.35-20.1Z" style="fill:#89529e"/><path d="M227.06,229c1.06-.34-4.91-44.16-4.21-49.93h-.35a19,19,0,0,0-4.21,1c-.35,8.49,3.51,18,3.86,26.49.7,8.83,2.46,16,4.56,24.45" style="fill:#77401b"/><path d="M139.67,226.42c0-1.81,31.32,14.48,86,0V214.19c-54.67,14.49-86-1.81-86,0" style="fill:#77401b"/><path d="M183.88,220.22c-.18,4.08-.33,8.16-.48,12.24a174.08,174.08,0,0,0,42.26-6V214.19A173.61,173.61,0,0,1,183.88,220.22Z" style="fill:#613517"/><path d="M224.56,201.16c-1.19,0-2.56-.16-3.07-1a42.59,42.59,0,0,1-1.2-5.22c-1.86,0-3.73,1.14-5.25,2-5.61,2.89-1,4.92-.34,9,.51,3.4-2.89,6.79-1.7,10.36,1.36,3.74,4.92,7.3,7.81,9.85,2.21,1.87,2.21,2.21,4.75,1,1.7-1,3.23-2.21,4.93-3.23,3.57-2.21,9-8.62,8.85-13.21-.34-7-6.79-18.23-13.27-15.66-.92.37-2.32-1.67-2.3-1.43" style="fill:#fbc083"/><path d="M138.86,229c-1.05-.34,4.92-44.16,4.22-49.93h.35a19,19,0,0,1,4.21,1c.35,8.49-3.51,18-3.86,26.49-.7,8.83-2.46,16-4.57,24.45" style="fill:#77401b"/><path d="M141.37,201.16c1.19,0,2.56-.16,3.07-1a40.94,40.94,0,0,0,1.19-5.22c1.87,0,3.73,1.14,5.26,2,5.61,2.89,1,4.92.34,9-.51,3.4,2.89,6.79,1.7,10.36-1.36,3.74-4.93,7.3-7.81,9.85-2.21,1.87-2.21,2.21-4.76,1-1.7-1-3.22-2.21-4.92-3.23-3.57-2.21-9-8.62-8.86-13.21.34-7,6.79-18.23,13.27-15.66.92.37,2.33-1.67,2.3-1.43" style="fill:#fbc083"/><path d="M200.94,213.68H165.85v-29h35.09ZM167.5,212h31.8V186.29H167.5Z" style="fill:#301d37"/><ellipse cx="183.19" cy="152.35" rx="47.17" ry="49.16" style="fill:#fbc083"/><path d="M202.84,107.66a50,50,0,0,1,15.34,36.28c0,27.15-21.12,49.16-47.17,49.16a45.39,45.39,0,0,1-19.65-4.47,46,46,0,0,0,31.83,12.88c26.05,0,47.17-22,47.17-49.16C230.36,132.51,219.08,115.43,202.84,107.66Z" style="fill:#d09559"/><path d="M230.17,154.76c-2.37-3.4-15.62-5.77-20.37-8.15-12.91-7.13-24.12-24.12-28.53-38-6.12-18.68,26.15-9.85,34.64-5.44,14.94,7.48,19,24.8,17,40.08-.68,4.42-1,8.83-2.72,12.57" style="fill:#ea9937"/><path d="M133,154.76c2.37-3.4,15.62-5.77,20.37-8.15,12.91-7.13,24.12-24.12,28.53-38,6.12-18.68-26.15-9.85-34.64-5.44-14.94,7.48-19,24.8-17,40.08.68,4.42,1,8.83,2.72,12.57" style="fill:#ea9937"/><path d="M197.67,154.12c0,5.26,3.24,9.52,7.22,9.52s7.21-4.26,7.21-9.52-3.23-9.51-7.21-9.51S197.67,148.87,197.67,154.12Z"/><path d="M199.23,151.74c0,1.86,1.08,3.36,2.42,3.36s2.41-1.5,2.41-3.36-1.08-3.36-2.41-3.36S199.23,149.88,199.23,151.74Z" style="fill:#fff"/><path d="M206.51,149.33c3.73.34,6.79-3.4,9.84-5.1-.33,3.06-3,5.1-6.11,5.78h7.13c-2.37,1.35-4.75,2.37-7.47,1.69"/><path d="M167.34,154.12c0,5.26-3.23,9.52-7.21,9.52s-7.22-4.26-7.22-9.52,3.23-9.51,7.22-9.51S167.34,148.87,167.34,154.12Z"/><path d="M165.78,151.74c0,1.86-1.08,3.36-2.41,3.36s-2.42-1.5-2.42-3.36,1.08-3.36,2.42-3.36S165.78,149.88,165.78,151.74Z" style="fill:#fff"/><path d="M158.51,149.33c-3.74.34-6.79-3.4-9.85-5.1.34,3.06,3.06,5.1,6.11,5.78h-7.13c2.38,1.35,4.76,2.37,7.47,1.69"/><path d="M211.35,173.69c0,10.53-12.61,19.06-28.16,19.06S155,184.22,155,173.69s12.6-19.05,28.16-19.05S211.35,163.17,211.35,173.69Z" style="fill:#d95b4a"/><path d="M193.33,155.92c5.54,3.48,9,8.44,9,14,0,10.52-12.6,19.06-28.16,19.06A40.34,40.34,0,0,1,164,187.66a36.35,36.35,0,0,0,19.16,5.09c15.55,0,28.16-8.53,28.16-19.06C211.35,165.59,203.87,158.67,193.33,155.92Z" style="fill:#a9473a"/><path d="M182.72,174.89c0,3.05-4.9,5.51-10.95,5.51s-11-2.46-11-5.51,4.9-5.51,11-5.51S182.72,171.85,182.72,174.89Z" style="fill:#f48577"/><path d="M200.85,104.6c8.15,2.72,14.49,7.7,18.12,15.4-5,.45-11.78-3.62-16.76-5.43,8.15,5.88,11.32,17.66,11.77,27.17-6.79-5-12.68-15.85-18.11-22.64-4.53-5.89-9.06-12.68-9.06-19" style="fill:#be7329"/><path d="M161.68,104.6c-8.15,2.72-14.49,7.7-18.11,15.4,5,.45,11.77-3.62,16.75-5.43-8.15,5.88-11.32,17.66-11.77,27.17,6.79-5,12.68-15.85,18.11-22.64,4.53-5.89,9.06-12.68,9.06-19" style="fill:#be7329"/><path d="M182.67,74s-52.31,26.57-52.84,57.26c0,0,15.17-26.57,52.84-26,37.66-.61,52.83,26,52.83,26C235,100.52,182.67,74,182.67,74Z" style="fill:#89529e"/><path d="M212.19,93.79a138.1,138.1,0,0,0-40.39-1.56c2.93,2,6.13,3.74,8.77,6.22a1.71,1.71,0,0,1-1.25,2.87c-11.71.13-23.22,4.93-32.87,11.34a76.3,76.3,0,0,0-16.2,14.17,29.26,29.26,0,0,0-.42,4.38s15.17-26.57,52.84-26c37.66-.61,52.83,26,52.83,26C235.26,117.15,224.15,104,212.19,93.79Z" style="fill:#764787"/><path d="M220.93,277.5v9.23c13.46,1,23.93,8.81,23.93,18.27H190.93V277.5Z" style="fill:#3e2e54"/><rect x="190.93" y="277.5" width="12.49" height="27.5" style="fill:#2e204b"/><path d="M226.26,287.3c-7.5-1.07-7.14,10-14.28,2.5,4.28-6.07,10-10.71,13.57-2.14" style="fill:#bbbbbc"/><path d="M145.87,277.5v9.23c-13.46,1-23.93,8.81-23.93,18.27h53.93V277.5Z" style="fill:#3e2e54"/><rect x="163.38" y="277.5" width="12.49" height="27.5" style="fill:#2e204b"/><path d="M140.54,287.3c7.5-1.07,7.14,10,14.28,2.5-4.28-6.07-10-10.71-13.57-2.14" style="fill:#bbbbbc"/><path d="M215.57,253.6c-1.81-2.27-2.49-6.12-5.43-7.25-3.63-1.58-5.67,1.81-9.51,1.59-.46,3.62-1.14,5.88,2.49,7.24,2.26.91,6.11.23,7.69,0" style="fill:#020202"/><path d="M233.46,232.86c0-.28-1.43-1.42-2.85-2.28-4.28-2.56-6-3.7-9.4.29-2,2.28-4,5.41-2.85,8.26,2,4.56,7.12,2.28,10.54,4" style="fill:#020202"/><path d="M231,242.73c-.23-2,0-4.08-.46-6.12-.68-4.75-4.3-4.75-9-5.43-.23,2.94-3,9.28-2,11.77,1.13,2.49,7.7,3,10.19,3.17.45.46-.23,0-.68,0" style="fill:#332a2b"/><path d="M224,236.26c0-.28-1.43-1.42-2.85-2.28-4.28-2.56-6-3.7-9.41.29-2,2.28-4,5.41-2.85,8.26,2,4.56,7.13,2.28,10.55,4" style="fill:#020202"/><path d="M209.23,249.75c.91-3.17-1.13-6.12,2.26-7.7,5.89-2.49,7.93,1.36,12.68,3.85-1.13,1.58-5,4.3-6.79,5.21-1.58,1.13-.68,1.13-2.72,1.35-1.81,0-4.75-1.58-6.34-2.49,0-.22.23-.22.46-.45" style="fill:#332a2b"/><path d="M232,235.22S217.38,251.65,199.49,254c0,0,11.18,24.85,27.67,7.47C227.16,261.45,258,257.14,232,235.22Z" style="fill:#301d37"/><path d="M151.26,253.6c1.82-2.27,2.49-6.12,5.44-7.25,3.62-1.58,5.66,1.81,9.51,1.59.45,3.62,1.13,5.88-2.49,7.24-2.27.91-6.12.23-7.7,0" style="fill:#020202"/><path d="M133.37,232.86c0-.28,1.43-1.42,2.85-2.28,4.28-2.56,6-3.7,9.41.29,2,2.28,4,5.41,2.85,8.26-2,4.56-7.13,2.28-10.55,4" style="fill:#020202"/><path d="M135.87,242.73c.22-2,0-4.08.45-6.12.68-4.75,4.3-4.75,9.06-5.43.22,2.94,2.94,9.28,2,11.77-1.13,2.49-7.69,3-10.19,3.17-.45.46.23,0,.68,0" style="fill:#332a2b"/><path d="M142.89,236.26c0-.28,1.42-1.42,2.85-2.28,4.27-2.56,6-3.7,9.4.29,2,2.28,4,5.41,2.85,8.26-2,4.56-7.13,2.28-10.55,4" style="fill:#020202"/><path d="M157.6,249.75c-.9-3.17,1.14-6.12-2.26-7.7-5.89-2.49-7.93,1.36-12.68,3.85,1.13,1.58,5,4.3,6.79,5.21,1.59,1.13.68,1.13,2.72,1.35,1.81,0,4.75-1.58,6.34-2.49,0-.22-.23-.22-.45-.45" style="fill:#332a2b"/><path d="M134.81,235.22s14.64,16.43,32.53,18.76c0,0-11.18,24.85-27.67,7.47C139.67,261.45,108.86,257.14,134.81,235.22Z" style="fill:#301d37"/><rect x="191.99" y="229.07" width="1.64" height="38.15" transform="translate(-59.27 60.51) rotate(-15.49)" style="fill:#301d37"/><rect x="153.36" y="247.32" width="38.15" height="1.64" transform="matrix(0.27, -0.96, 0.96, 0.27, -112.76, 348.01)" style="fill:#301d37"/><rect x="172.07" y="218.48" width="22.23" height="15.03" style="fill:#ba9175"/><path d="M212.94,146.27c-5.44-3.4-11.89,2.38-18,1.7,5.44-.68,13.93-11.21,19.7-2.72" style="fill:#be7329"/><path d="M152.4,146.27c5.43-3.4,11.88,2.38,18,1.7-5.44-.68-13.93-11.21-19.7-2.72" style="fill:#be7329"/><path d="M138.82,62.93a2,2,0,1,1-2-2A2,2,0,0,1,138.82,62.93Z" style="fill:#fff"/></svg>