<svg data-name="Capa 1" xmlns="http://www.w3.org/2000/svg" viewBox="0 0 361 305"><path d="M226.84 285.69c-.54.68-2.73 3.28-3.68 2.6-1.51-1 2.18-5.47 2.59-6" fill="#d19659"/><path d="M234.9 279.13c.76 3.94.38 8.94-3.2 11.39-1.33.92-4 2-5.31.39-.77-.93-.53-3-.73-4.11-.41-2.33-1-5.28-.73-7.67" fill="#fcc184"/><path d="M134.19 285.69c.54.68 2.73 3.28 3.68 2.6 1.51-1-2.18-5.47-2.59-6" fill="#d19659"/><path d="M126.13 279.13c-.76 3.94-.38 8.94 3.2 11.39 1.33.92 4 2 5.31.39.77-.93.53-3 .73-4.11.41-2.33 1-5.28.73-7.67" fill="#fcc184"/><path d="M212.73 217.42s23.88 52 28.31 63.3c0 0-25.07 4.25-27.12 3.6M148.27 217.42s-23.88 52.83-28.27 64.27c0 0 25.07 4.33 27.12 3.66" fill="#234376"/><path d="M179.81 286.69c0-3.2-1.8-5.79-4-5.79h-27.67c-2.22 0-4 2.59-4 5.79v11.86c0 3.2 1.8 5.79 4 5.79h31.67z" fill="#6e3318"/><path d="M175.83 280.9H166v23.44h13.85v-17.65c-.04-3.2-1.85-5.79-4.02-5.79z" fill="#562915"/><path d="M181.41 287.22c0-3.19 1.8-5.78 4-5.78h27.64c2.23 0 4 2.59 4 5.78v11.87c0 3.19-1.79 5.78-4 5.78h-31.64z" fill="#6e3318"/><path d="M185.39 281.44h9.87v23.43h-13.85v-17.65c0-3.22 1.78-5.78 3.98-5.78z" fill="#562915"/><path d="M224.3 293.46c0 1.89-2 3.42-4.43 3.42h-78.4c-2.45 0-4.43-1.53-4.43-3.42l10-73.59a3.42 3.42 0 0 1 3.42-3.42h60.52a3.42 3.42 0 0 1 3.42 3.42z" fill="#294d88"/><path d="M214.34 219.87a3.42 3.42 0 0 0-3.42-3.42H150.4a3.37 3.37 0 0 0-2.29.89.86.86 0 0 1 .18.16 19.13 19.13 0 0 1 3.13 6.17 14.7 14.7 0 0 0 5.94 7.62c4.78 3.3 10.19 5.41 15.19 8.33 8.53 5 19.87 8 21.41 19.33 1.73 12.73-1.84 25.72-5.25 37.93h31.15c2.45 0 4.43-1.53 4.43-3.42z" fill="#234376"/><path d="M196.85 267.43c0 3.62-1.8 6.55-4 6.55h-24.46c-2.22 0-4-2.93-4-6.55v-35.38c0-3.61 1.81-6.54 4-6.54h24.44c2.22 0 4 2.93 4 6.54z" fill="none" stroke="#1f3863" stroke-miterlimit="10" stroke-width="2.131"/><ellipse cx="179.89" cy="206.6" rx="37.51" ry="29.58" fill="#fcc184"/><path d="M179.89 177a46.36 46.36 0 0 0-13.14 1.87c.74 0 1.48-.06 2.23-.06 20.72 0 37.51 13.25 37.51 29.58 0 12.69-10.13 23.51-24.36 27.71 19.67-.91 35.28-13.78 35.28-29.52 0-16.32-16.8-29.58-37.52-29.58z" fill="#d19659"/><path d="M215.34 183.44a63.93 63.93 0 0 1-1.75-8.34c-1.64-11.71-17.74-26.42-16.65-38.3.44-4.75 1.25-23-.27-27.79-1.34-4.23-4.44-6.77-7.75-9.26l-11.56-8.69c-2.37-1.78-5.14-2.9-7.26-5-3.1-3.09-.85-5.47 1.18-8.39s4.07-5.54 6-8.37c-2.72 2.36-5.45 4.7-8.14 7.09-3.16 2.79-6.71 5.16-6.36 9.83.33 4.45 2.54 8.63 3.89 12.83 1.62 5 4 10 4.54 15.32 1.46 13.17-12 40.52-19.55 50.93-5.19 7.14-7.14 14.06-10 22.4-3.45 10-4.11 9.84-7.86 19.76-.11.32-5 8.78-4.78 8.89s5.49-3.09 11.48-4.41c.94-3 1.72-6 3.55-8.6a.92.92 0 0 1 1.69.48c.07 2.37.07 4.73.18 7.07 14.54-2.45 42.82-2.13 83 5.46-6.92-15.81-8.92-16.27-13.58-32.91z" fill="#3b68b2"/><path d="M177.31 69.28L173.06 73a5.46 5.46 0 0 1-1.27 1.62c-.21.19-1.66 1.83-1 .89-.36.52-.72 1-1 1.59a11.58 11.58 0 0 0-1.37 3.41c-.19.68-.38 1.36-.52 2 0-.08-.3 1.88-.25 1.29a32.09 32.09 0 0 0-.24 4c0 .68 0 1.36.07 2v.6c0 .12 0 .19.06.32 1.09 6 5.92 10.38 9.72 15 4.68 5.68 8.67 12.05 10.1 19.37 1.63 8.35.68 16.08-.59 24.39a54.59 54.59 0 0 0 1.48 22.13c2 7.41 5.65 13.87 9.29 20.56 3.89 7.15 8.15 14.11 12.66 20.91q8.86 1.31 18.69 3.14c-6.89-15.78-9-16.24-13.56-32.88a63.93 63.93 0 0 1-1.75-8.34c-1.58-11.61-17.73-26.32-16.58-38.2.43-4.75 1.24-23-.28-27.79-1.34-4.23-4.43-6.77-7.75-9.26l-11.56-8.69c-2.37-1.78-5.14-2.9-7.26-5-3.1-3.09-.85-5.47 1.18-8.39s4.02-5.56 5.98-8.39z" fill="#335b9c"/><ellipse cx="179.89" cy="216.33" rx="29.04" ry="14.8" fill="#d85b4a"/><path d="M206.52 292.74c13.36 0 24.18 5.55 24.18 12.4h-48.35c0-6.85 10.82-12.4 24.17-12.4zM154.54 292.74c-13.35 0-24.18 5.55-24.18 12.4h48.36c0-6.85-10.83-12.4-24.18-12.4z" fill="#6e3318" stroke="#471c10" stroke-miterlimit="10" stroke-width=".533"/><path d="M189.14 202.3c7.12 2.7 11.74 7 11.74 11.88 0 8.18-13 14.8-29 14.8a54.79 54.79 0 0 1-9.25-.77 49.65 49.65 0 0 0 17.31 2.91c16 0 29-6.62 29-14.79 0-6.53-8.3-12.06-19.8-14.03z" fill="#a9473a"/><ellipse cx="171.27" cy="211.46" rx="11.11" ry="4.86" fill="#f58677"/><path d="M221.3 253.74a2.76 2.76 0 0 1-2.86 2.66h-75.69a2.76 2.76 0 0 1-2.86-2.66 2.77 2.77 0 0 1 2.86-2.67h75.69a2.77 2.77 0 0 1 2.86 2.67z" fill="#b77d2f"/><path d="M205.47 256.48c.2.06.49-.33 1-.87a10.63 10.63 0 0 1 .89-.9 12.81 12.81 0 0 1 1.21-1c1.81-1.3 3.59-2 3.49-2.41 0-.19-.58-.25-1.39-.09a8.06 8.06 0 0 0-3 1.32 7.59 7.59 0 0 0-1.34 1.23 4.84 4.84 0 0 0-.78 1.28c-.31.83-.26 1.39-.08 1.44zM200.14 256.48c.2.06.5-.33 1-.87a10.63 10.63 0 0 1 .89-.9 12.81 12.81 0 0 1 1.21-1c1.81-1.3 3.59-2 3.49-2.41-.05-.19-.58-.25-1.39-.09a8 8 0 0 0-2.94 1.32 7.26 7.26 0 0 0-1.34 1.23 4.89 4.89 0 0 0-.79 1.28c-.36.83-.27 1.39-.13 1.44zM194.81 256.48c.21.06.5-.33 1-.87a12.39 12.39 0 0 1 .89-.9 14.24 14.24 0 0 1 1.21-1c1.81-1.3 3.6-2 3.49-2.41 0-.19-.57-.25-1.39-.09a8.1 8.1 0 0 0-2.94 1.32 7.59 7.59 0 0 0-1.34 1.23 5.18 5.18 0 0 0-.79 1.28c-.35.83-.31 1.39-.13 1.44zM189.49 256.48c.2.06.49-.33 1-.87a10.39 10.39 0 0 1 .88-.9 14.45 14.45 0 0 1 1.22-1c1.81-1.3 3.59-2 3.49-2.41-.05-.19-.58-.25-1.39-.09a8.06 8.06 0 0 0-2.95 1.32 7.59 7.59 0 0 0-1.34 1.23 5.18 5.18 0 0 0-.79 1.28c-.35.83-.3 1.39-.12 1.44zM184.16 256.48c.2.06.5-.33 1-.87a10.63 10.63 0 0 1 .89-.9 12.81 12.81 0 0 1 1.21-1c1.81-1.3 3.59-2 3.49-2.41 0-.19-.58-.25-1.39-.09a8 8 0 0 0-2.94 1.32 7 7 0 0 0-1.34 1.23 4.89 4.89 0 0 0-.79 1.28c-.36.83-.29 1.39-.13 1.44zM178.83 256.48c.2.06.5-.33 1-.87a12.39 12.39 0 0 1 .89-.9 14.24 14.24 0 0 1 1.21-1c1.81-1.3 3.59-2 3.49-2.41-.05-.19-.57-.25-1.39-.09a8.1 8.1 0 0 0-2.94 1.32 7.26 7.26 0 0 0-1.34 1.23 5.18 5.18 0 0 0-.79 1.28c-.35.83-.31 1.39-.13 1.44zM173.51 256.48c.2.06.49-.33 1-.87a10.39 10.39 0 0 1 .88-.9 14.45 14.45 0 0 1 1.22-1c1.81-1.3 3.59-2 3.48-2.41 0-.19-.57-.25-1.38-.09a8.06 8.06 0 0 0-2.95 1.32 7.59 7.59 0 0 0-1.34 1.23 5.18 5.18 0 0 0-.79 1.28c-.35.83-.3 1.39-.12 1.44zM168.18 256.48c.2.06.49-.33 1-.87a10.63 10.63 0 0 1 .89-.9 12.81 12.81 0 0 1 1.21-1c1.81-1.3 3.59-2 3.49-2.41-.05-.19-.58-.25-1.39-.09a8.06 8.06 0 0 0-3 1.32 7.19 7.19 0 0 0-1.33 1.23 4.64 4.64 0 0 0-.79 1.28c-.26.83-.26 1.39-.08 1.44zM162.85 256.48c.2.06.5-.33 1-.87a10.63 10.63 0 0 1 .89-.9 14.24 14.24 0 0 1 1.21-1c1.81-1.3 3.59-2 3.49-2.41 0-.19-.58-.25-1.39-.09a8 8 0 0 0-2.94 1.32 7.26 7.26 0 0 0-1.34 1.23 5.18 5.18 0 0 0-.79 1.28c-.35.83-.31 1.39-.13 1.44zM157.52 256.48c.21.06.5-.33 1-.87a10.39 10.39 0 0 1 .88-.9 14.24 14.24 0 0 1 1.21-1c1.82-1.3 3.6-2 3.49-2.41 0-.19-.57-.25-1.38-.09a8.06 8.06 0 0 0-3 1.32 7.59 7.59 0 0 0-1.34 1.23 5.18 5.18 0 0 0-.79 1.28c-.29.83-.24 1.39-.07 1.44zM152.2 256.48c.2.06.49-.33 1-.87a10.63 10.63 0 0 1 .89-.9 12.81 12.81 0 0 1 1.21-1c1.81-1.3 3.59-2 3.49-2.41-.05-.19-.58-.25-1.39-.09a8.06 8.06 0 0 0-2.95 1.32 7.59 7.59 0 0 0-1.34 1.23 4.84 4.84 0 0 0-.78 1.28c-.33.83-.33 1.39-.13 1.44zM146.87 256.48c.2.06.5-.33 1-.87a10.63 10.63 0 0 1 .89-.9 12.81 12.81 0 0 1 1.21-1c1.81-1.3 3.59-2 3.49-2.41-.05-.19-.58-.25-1.39-.09a8 8 0 0 0-2.94 1.32 7.26 7.26 0 0 0-1.34 1.23 5.18 5.18 0 0 0-.79 1.28c-.36.83-.31 1.39-.13 1.44zM141.54 256.48c.21.06.5-.33 1-.87a12.39 12.39 0 0 1 .89-.9 14.24 14.24 0 0 1 1.21-1c1.81-1.3 3.6-2 3.49-2.41-.05-.19-.57-.25-1.39-.09a8.1 8.1 0 0 0-2.94 1.32 7.59 7.59 0 0 0-1.34 1.23 5.18 5.18 0 0 0-.79 1.28c-.35.83-.3 1.39-.13 1.44z" fill="#915924"/><ellipse cx="218.3" cy="254.32" rx="3.08" ry=".72" transform="rotate(-44.79 218.292 254.32)" fill="#915924"/><path d="M210.79 256.48c.21.06.5-.33 1-.87a12.39 12.39 0 0 1 .89-.9 14.24 14.24 0 0 1 1.21-1c1.82-1.3 3.6-2 3.49-2.41 0-.19-.57-.25-1.38-.09a8.06 8.06 0 0 0-2.95 1.32 7.59 7.59 0 0 0-1.34 1.23 5.18 5.18 0 0 0-.79 1.28c-.35.83-.3 1.39-.13 1.44z" fill="#915924"/><path fill="#b77d2f" d="M178.153 258.497l5.51-1.936 6.196 17.633-5.51 1.936z"/><path fill="#b77d2f" d="M172.928 271.549l3.389-13.976 5.675 1.377-3.388 13.975z"/><circle cx="179.95" cy="254.47" r="5.62" fill="#b77d2f"/><path d="M175.19 251.49c-.18.08-.06.76.4 1.75a11.56 11.56 0 0 0 2.52 3.44 9.67 9.67 0 0 0 1.94 1.43 6.15 6.15 0 0 0 1.87.67c1.14.2 1.84 0 1.83-.22s-.64-.35-1.53-.76a8.89 8.89 0 0 1-1.48-.84 14.3 14.3 0 0 1-1.64-1.33c-2.21-2.1-3.53-4.34-3.91-4.14zM178.69 249c-.18 0-.41.59-.3 1.59A7.19 7.19 0 0 0 180 254a7.1 7.1 0 0 0 3 2.28 5.88 5.88 0 0 0 .66.17 5 5 0 0 0 .53 0c.3-.06.44-.14.44-.24s-.5-.35-1.18-.86a12.81 12.81 0 0 1-4.07-5.07c-.33-.74-.47-1.28-.69-1.28z" fill="#915924"/><path d="M183.37 261c-.82 1.39-2.88 1.69-4.59.67-1.71-1-2.42-3-1.59-4.35l3.47-5.84c.82-1.39 2.88-1.69 4.59-.68 1.71 1 2.42 3 1.59 4.36z" fill="#b77d2f"/><path d="M179 254c-.09-.05-.22 0-.4.22a2.28 2.28 0 0 0-.44 1 6.14 6.14 0 0 0 .43 3.39 6.38 6.38 0 0 0 2 2.74c.75.54 1.38.55 1.43.37s-.29-.51-.71-1.11a12 12 0 0 1-1.37-2.55 11.13 11.13 0 0 1-.76-2.77c-.05-.68.04-1.14-.18-1.29zM181.08 251c-.19 0-.37.53-.44 1.41a10.14 10.14 0 0 0 .5 3.4 11 11 0 0 0 1.55 3.05c.54.69 1 1 1.14.93.36-.23-.54-2.09-1.32-4.42-.37-1.18-.63-2.25-.85-3s-.37-1.37-.58-1.37zM183.75 250.39c-.1 0-.16.16-.19.33a5.94 5.94 0 0 0-.08.66 6.61 6.61 0 0 0 0 1.06 9.41 9.41 0 0 0 .34 1.31c.19.42.39.83.58 1.16s.39.61.55.84c.32.46.62.73.81.68s.23-.46.14-1.08a6.09 6.09 0 0 0-.29-1c-.13-.37-.27-.73-.44-1.12s-.27-.74-.38-1.07-.21-.66-.33-.94a1.88 1.88 0 0 0-.4-.67c-.06-.15-.22-.2-.31-.16zM175.67 260c-.17.11-.12.52.11 1.08a6 6 0 0 0 1.4 2 4.16 4.16 0 0 0 2.34 1.08c.67 0 1.06-.12 1.07-.32s-.31-.43-.79-.67a9.69 9.69 0 0 1-1.64-1.16c-.58-.54-1.09-1.14-1.54-1.53s-.78-.57-.95-.48zM175.14 263.75c-.17.11-.12.51.11 1.08a6.15 6.15 0 0 0 1.39 2 4.22 4.22 0 0 0 2.35 1.08c.66 0 1-.12 1.07-.32s-.31-.44-.8-.67a10.11 10.11 0 0 1-1.64-1.16c-.57-.54-1.09-1.14-1.53-1.53s-.79-.59-.95-.48zM174.07 267.48c-.17.11-.12.51.11 1.08a6.21 6.21 0 0 0 1.4 2 4.14 4.14 0 0 0 2.34 1.07c.67 0 1.06-.12 1.08-.31s-.32-.44-.8-.67a10.11 10.11 0 0 1-1.64-1.16c-.58-.54-1.09-1.14-1.53-1.53s-.79-.59-.96-.48zM180.55 265.29c.13.16.53.07 1.09-.21a7.42 7.42 0 0 0 2-1.46 5.3 5.3 0 0 0 1.31-2.2c.15-.65.1-1.07-.08-1.13s-.5.22-.84.68-.83 1-1.44 1.64-1.18 1.19-1.58 1.67-.59.85-.46 1.01zM182.15 270.08c.12.16.53.07 1.09-.21a7.58 7.58 0 0 0 2-1.46 5.32 5.32 0 0 0 1.31-2.19c.14-.66.1-1.08-.09-1.14s-.49.23-.83.68-.83 1-1.44 1.65-1.19 1.18-1.58 1.66-.61.86-.46 1.01zM183.75 274.35c.12.15.53.06 1.09-.21a8 8 0 0 0 2-1.46 5.45 5.45 0 0 0 1.32-2.2c.14-.66.1-1.08-.09-1.14s-.49.23-.83.69-.83 1-1.44 1.64-1.19 1.18-1.58 1.66-.6.86-.47 1.02z" fill="#915924"/><path d="M158 189.82c-.32 1.44-1.38 2.43-2.36 2.21l-8.58-3.37c-.83-.18-1.28-1.31-1-2.53l2.4-10.81c.27-1.22 1.16-2 2-1.87l9.19.58c1 .22 1.52 1.56 1.21 3z" fill="#8fc0d6"/><path d="M164.41 179.23c-.24 1.11-1 1.87-1.81 1.7l-6.6-2.59c-.64-.14-1-1-.78-2l1.85-8.32c.21-.93.89-1.57 1.53-1.43l7.08.44c.75.17 1.17 1.2.92 2.31z" fill="#f7d98d"/><path d="M162.32 174.9c0 .2.25.42.68.66a16.24 16.24 0 0 0 1.72.85 7.57 7.57 0 0 0 2 .57c.55.06.91 0 1-.22s-.19-.46-.61-.74a10.62 10.62 0 0 0-1.74-1 5.82 5.82 0 0 0-2-.5c-.68.05-1.03.18-1.05.38zM163.65 172.77c-.16.36 1.08 1.21 2.78 1.86s3.25.66 3.34.27-1.19-1.13-2.86-1.63-3.1-.87-3.26-.5zM148.73 192.74c.15.13.56-.06 1-.55a7.19 7.19 0 0 0 1.39-2.2 7.61 7.61 0 0 0 .57-2.52c0-.68-.13-1.1-.32-1.12s-.43.33-.68.9-.57 1.34-.91 2.19-.68 1.62-.9 2.19-.3.98-.15 1.11zM151.66 193.54c.34.21 1.32-.78 2-2.29a6.54 6.54 0 0 0 .59-2.06c0-.56 0-.92-.21-1s-.47.21-.76.65a14.77 14.77 0 0 0-.94 1.78c-.64 1.45-1.02 2.7-.68 2.92zM160.72 168.24a.28.28 0 0 0-.15 0v.11a.24.24 0 0 0 .12.13.27.27 0 0 0 .15 0 .34.34 0 0 0 .15-.09l.06-.05a1.13 1.13 0 0 0 .33-.29 2.28 2.28 0 0 0 .42-1c.15-.79-.09-1.55-.51-1.55s-.77.51-.92 1.28.01 1.55.35 1.46zM162.32 168.51c.39.07.9-.54 1.24-1.49a3 3 0 0 0 .19-1.34c0-.36-.17-.6-.37-.64s-.42.12-.62.39a4.31 4.31 0 0 0-.57 1.12c-.34.93-.27 1.88.13 1.96zM145 182.35c-.23.31.16 1 1.06 1.31a1.92 1.92 0 0 0 1.15 0c.29-.12.45-.29.45-.49a.71.71 0 0 0-.37-.54 3.26 3.26 0 0 0-.82-.34c-.58-.21-1.22-.29-1.47.06zM145.27 179.42c-.24.32.3 1.09 1.29 1.43a2.46 2.46 0 0 0 1.34.11c.37-.09.57-.27.57-.47s-.18-.39-.43-.55a5.25 5.25 0 0 0-1-.46c-.8-.27-1.53-.38-1.77-.06z" fill="#1a305a"/><ellipse cx="206.72" cy="272.93" rx="4.93" ry="9" transform="rotate(-9.32 206.772 272.986)" fill="#8fc0d6"/><path d="M200.13 275c0 .42 1.08.68 2.19.25a3.23 3.23 0 0 0 1.31-.81c.27-.33.35-.61.23-.77s-.4-.18-.75-.12a6.23 6.23 0 0 0-1.27.34c-.97.39-1.68.75-1.71 1.11z" fill="#1a305a"/><ellipse cx="203.07" cy="277.17" rx="1.79" ry=".72" transform="rotate(-26.57 203.03 277.118)" fill="#1a305a"/><path d="M208.92 276.37c-.18.35.46 1 1.44 1.46s1.84.49 2 .13-.47-1-1.44-1.46-1.81-.5-2-.13zM210 274.5c0 .21.18.39.41.55a5.62 5.62 0 0 0 .87.49c.67.31 1.35.57 1.65.29.14-.14.13-.4 0-.72a2.38 2.38 0 0 0-1-.88 2.19 2.19 0 0 0-1.35-.2c-.4.09-.58.28-.58.47zM206.26 266.78c.16.12.44 0 .77-.22a3.2 3.2 0 0 0 .87-1.29 3 3 0 0 0 .16-1.57c-.09-.42-.27-.65-.47-.65s-.38.22-.55.53a10.46 10.46 0 0 0-.5 1.19c-.34.91-.6 1.75-.28 2.01zM208.39 268.11a.57.57 0 0 0 .67.13 1.8 1.8 0 0 0 1.14-2c-.1-.32-.28-.49-.48-.49a.77.77 0 0 0-.54.35 3.7 3.7 0 0 0-.44.67 3.32 3.32 0 0 0-.35.74.75.75 0 0 0 0 .6z" fill="#1a305a"/></svg>