<svg data-name="Capa 1" xmlns="http://www.w3.org/2000/svg" viewBox="0 0 361 305"><path d="M147.56 216.29s-12.93 16.26-21.42 24.43c0 0-20.74 5 20.23 42.47" fill="#234376"/><path d="M120.41 246.23c.75 2.84 3.92 4.47 7.07 3.63l5.33-1.41c3.15-.84 3.44-4.67 2.69-7.51l-.1-5.73c-.75-2.84-3.92-4.47-7.07-3.63L123 233a5.64 5.64 0 0 0-4.34 6.66z" fill="#fcc184"/><path d="M129.05 233.92c1 1.57.83 3.47-.38 4.25-1.22.78-3 .14-4-1.42l-7.82-12.2c-1-1.57-.83-3.47.39-4.25 1.21-.78 3-.14 4 1.43z" fill="#fcc184"/><path d="M128.21 234.14c-.09 1.86 1 3.43 2.44 3.51 1.45.07 2.7-1.38 2.79-3.24l.74-14.47c.09-1.86-1-3.43-2.44-3.5-1.45-.08-2.69 1.37-2.79 3.23z" fill="#fcc184"/><path d="M119.51 238.21l5.79 7.06c1.08 1.51 1.54 2.71-.12 3.67l-.94.8c-1.65 1-2.87-1.29-3.94-2.8l-1.7-2.06" fill="#fcc184" stroke="#d19659" stroke-miterlimit="10" stroke-width=".533"/><path d="M121.41 235l5.78 7.06c1.08 1.51 1.54 2.72-.11 3.67l-1 .8c-1.65 1-2.86-1.29-3.94-2.8l-3.25-4" fill="#fcc184" stroke="#d19659" stroke-miterlimit="10" stroke-width=".533"/><path d="M134.25 232.74l-7.7 5c-1.45 1.14-2.17 2.24-.43 4.06l.95 1.32c1.75 1.82 3.48-.07 4.94-1.22l3.14-2" fill="#fcc184" stroke="#d19659" stroke-miterlimit="10" stroke-width=".533"/><path d="M213.23 216.29s12.93 16.26 21.43 24.43c0 0 20.73 5-20.23 42.47" fill="#234376"/><path d="M180.24 285.88c0-3.19-1.8-5.78-4-5.78h-27.67c-2.22 0-4 2.59-4 5.78v11.87c0 3.19 1.8 5.79 4 5.79h31.67z" fill="#6e3318"/><path d="M176.26 280.1h-9.87v23.44h13.85v-17.66c0-3.19-1.78-5.78-3.98-5.78z" fill="#562915"/><path d="M181.84 285.89c0-3.2 1.8-5.79 4-5.79h27.66c2.23 0 4 2.59 4 5.79v11.86c0 3.19-1.8 5.79-4 5.79h-31.66z" fill="#6e3318"/><path d="M185.82 280.1h9.87v23.44h-13.85v-17.65c0-3.2 1.78-5.79 3.98-5.79z" fill="#562915"/><path d="M224.81 292.13c0 1.88-2 3.42-4.43 3.42H142c-2.45 0-4.43-1.54-4.43-3.42l10-73.59a3.42 3.42 0 0 1 3.42-3.42h60.53a3.42 3.42 0 0 1 3.41 3.42z" fill="#294d88"/><path d="M214.84 218.54a3.42 3.42 0 0 0-3.42-3.42H150.9a3.4 3.4 0 0 0-2.29.88 1.29 1.29 0 0 1 .18.16 18.93 18.93 0 0 1 3.13 6.17 14.66 14.66 0 0 0 5.94 7.62c4.78 3.3 10.19 5.42 15.19 8.34 8.53 5 19.87 8 21.41 19.32 1.73 12.73-1.84 25.72-5.25 37.94h31.15c2.45 0 4.43-1.54 4.43-3.42z" fill="#234376"/><path d="M197.28 266.1c0 3.61-1.8 6.54-4 6.54h-24.46c-2.23 0-4-2.93-4-6.54v-35.38c0-3.62 1.81-6.55 4-6.55h24.44c2.22 0 4 2.93 4 6.55z" fill="none" stroke="#1f3863" stroke-miterlimit="10" stroke-width="2.131"/><ellipse cx="180.4" cy="205.47" rx="37.51" ry="29.58" fill="#fcc184"/><path d="M180.4 175.89a46.38 46.38 0 0 0-13.15 1.87c.74 0 1.48-.06 2.23-.06 20.72 0 37.52 13.3 37.52 29.58 0 12.69-10.14 23.51-24.37 27.71 19.68-.91 35.28-13.78 35.28-29.52 0-16.34-16.8-29.58-37.51-29.58z" fill="#d19659"/><path d="M215.84 182.31a65.62 65.62 0 0 1-1.75-8.34c-1.64-11.71-17.73-26.42-16.64-38.3.43-4.75 1.24-23-.28-27.79-1.34-4.23-4.43-6.77-7.75-9.26l-11.56-8.69c-2.37-1.78-5.14-2.9-7.26-5-3.1-3.09-.85-5.47 1.18-8.39s4.08-5.54 6-8.37c-2.71 2.36-5.45 4.7-8.14 7.09-3.16 2.79-6.7 5.16-6.36 9.83.34 4.45 2.55 8.63 3.9 12.83 1.61 5 3.94 10 4.53 15.32 1.46 13.17-12 40.52-19.55 50.93-5.19 7.14-7.14 14-10 22.4-3.46 10-4.11 9.84-7.86 19.76-.12.31-5 8.78-4.79 8.88s5.49-3.08 11.48-4.4c.94-3 1.73-6 3.56-8.6a.91.91 0 0 1 1.68.48c.07 2.37.07 4.72.18 7.07 14.55-2.45 42.82-2.13 83 5.45-6.9-15.8-8.96-16.21-13.57-32.9z" fill="#3b68b2"/><path d="M177.81 68.15l-4.25 3.68a5.5 5.5 0 0 1-1.26 1.63c-.22.19-1.67 1.83-1 .89a16.7 16.7 0 0 0-1 1.59 11.58 11.58 0 0 0-1.37 3.41c-.19.68-.38 1.36-.52 2.05a9.75 9.75 0 0 1-.24 1.29 34.1 34.1 0 0 0-.25 4c0 .68 0 1.36.07 2v.59c0 .11 0 .2.06.33 1.09 6 5.92 10.38 9.73 15 4.67 5.68 8.66 12 10.09 19.37 1.64 8.35.68 16.08-.59 24.39a54.59 54.59 0 0 0 1.48 22.13c2 7.41 5.65 13.87 9.29 20.56 3.89 7.15 8.15 14.11 12.66 20.9q8.86 1.32 18.69 3.15c-6.88-15.78-9-16.24-13.56-32.88a65.62 65.62 0 0 1-1.75-8.34c-1.64-11.71-17.73-26.42-16.64-38.3.43-4.75 1.25-23-.28-27.79-1.33-4.23-4.43-6.77-7.75-9.26l-11.56-8.69c-2.36-1.78-5.13-2.9-7.26-5-3.1-3.09-.85-5.47 1.18-8.39s4.08-5.46 6.03-8.31z" fill="#335b9c"/><path d="M210.49 218.57c0 6.61-17.91 14.69-31.3 14.69s-28.53-8.08-28.53-14.69 15.14-9.21 28.53-9.21 31.3 2.64 31.3 9.21z" fill="#fff"/><ellipse cx="180.4" cy="209.87" rx="29.04" ry="14.8" fill="#d85b4a"/><path d="M207 291.94c13.35 0 24.17 5.55 24.17 12.39h-48.32c0-6.84 10.82-12.39 24.15-12.39zM155 291.94c-13.35 0-24.18 5.55-24.18 12.39h48.36c.04-6.84-10.79-12.39-24.18-12.39z" fill="#6e3318" stroke="#471c10" stroke-miterlimit="10" stroke-width=".533"/><path d="M189.64 195.84c7.13 2.7 11.74 7 11.74 11.89 0 8.17-13 14.79-29 14.79a54.58 54.58 0 0 1-9.24-.77 49.59 49.59 0 0 0 17.3 2.92c16 0 29-6.63 29-14.8 0-6.53-8.29-12.06-19.8-14.03z" fill="#a9473a"/><ellipse cx="171.77" cy="205" rx="11.11" ry="4.86" fill="#f58677"/><path d="M221.8 252.93a2.77 2.77 0 0 1-2.86 2.67h-75.69a2.77 2.77 0 0 1-2.85-2.67 2.76 2.76 0 0 1 2.85-2.66h75.69a2.76 2.76 0 0 1 2.86 2.66z" fill="#b77d2f"/><path d="M206 255.35c.2.06.5-.34 1-.88.23-.27.55-.57.89-.9a14.63 14.63 0 0 1 1.21-1c1.81-1.3 3.59-2 3.49-2.41 0-.19-.58-.25-1.39-.09a8 8 0 0 0-2.94 1.32 7.26 7.26 0 0 0-1.34 1.23 4.89 4.89 0 0 0-.79 1.28c-.39.84-.34 1.4-.13 1.45zM200.64 255.35c.2.06.5-.34 1-.88.24-.27.55-.57.89-.9s.76-.64 1.21-1c1.81-1.3 3.6-2 3.49-2.41-.05-.19-.57-.25-1.39-.09a8.1 8.1 0 0 0-2.94 1.32 7.59 7.59 0 0 0-1.34 1.23 5.18 5.18 0 0 0-.79 1.28c-.35.84-.31 1.4-.13 1.45zM195.32 255.35c.2.06.49-.34 1-.88.23-.27.54-.57.88-.9s.77-.64 1.22-1c1.81-1.3 3.59-2 3.48-2.41 0-.19-.57-.25-1.38-.09a8.06 8.06 0 0 0-2.95 1.32 7.59 7.59 0 0 0-1.34 1.23 5.18 5.18 0 0 0-.79 1.28c-.35.84-.3 1.4-.12 1.45zM190 255.35c.2.06.49-.34 1-.88.23-.27.55-.57.89-.9a14.63 14.63 0 0 1 1.21-1c1.81-1.3 3.59-2 3.49-2.41-.05-.19-.58-.25-1.39-.09a8 8 0 0 0-2.94 1.32 7 7 0 0 0-1.34 1.23 4.89 4.89 0 0 0-.79 1.28c-.37.84-.32 1.4-.13 1.45zM184.66 255.35c.2.06.5-.34 1-.88.24-.27.55-.57.89-.9s.76-.64 1.21-1c1.81-1.3 3.59-2 3.49-2.41 0-.19-.58-.25-1.39-.09a8.1 8.1 0 0 0-2.94 1.32 7.26 7.26 0 0 0-1.34 1.23 5.18 5.18 0 0 0-.79 1.28c-.35.84-.31 1.4-.13 1.45zM179.33 255.35c.21.06.5-.34 1-.88.23-.27.54-.57.88-.9s.76-.64 1.21-1c1.82-1.3 3.6-2 3.49-2.41 0-.19-.57-.25-1.38-.09a8.06 8.06 0 0 0-3 1.32 7.59 7.59 0 0 0-1.34 1.23 5.18 5.18 0 0 0-.79 1.28c-.29.84-.24 1.4-.07 1.45zM174 255.35c.2.06.49-.34 1-.88.23-.27.55-.57.89-.9a14.63 14.63 0 0 1 1.21-1c1.81-1.3 3.59-2 3.49-2.41-.05-.19-.58-.25-1.39-.09a8.06 8.06 0 0 0-2.95 1.32 7.19 7.19 0 0 0-1.33 1.23 4.64 4.64 0 0 0-.79 1.28c-.35.84-.3 1.4-.13 1.45zM168.68 255.35c.2.06.5-.34 1-.88.23-.27.55-.57.89-.9a14.63 14.63 0 0 1 1.21-1c1.81-1.3 3.59-2 3.49-2.41-.05-.19-.58-.25-1.39-.09a8 8 0 0 0-2.94 1.32 7.26 7.26 0 0 0-1.34 1.23 5.18 5.18 0 0 0-.79 1.28c-.35.84-.31 1.4-.13 1.45zM163.35 255.35c.21.06.5-.34 1-.88.24-.27.55-.57.89-.9s.76-.64 1.21-1c1.81-1.3 3.6-2 3.49-2.41 0-.19-.57-.25-1.39-.09a8.1 8.1 0 0 0-2.94 1.32 7.59 7.59 0 0 0-1.34 1.23 5.18 5.18 0 0 0-.79 1.28c-.35.84-.3 1.4-.13 1.45zM158 255.35c.2.06.49-.34 1-.88.23-.27.54-.57.88-.9s.77-.64 1.22-1c1.81-1.3 3.59-2 3.49-2.41 0-.19-.58-.25-1.39-.09a8.06 8.06 0 0 0-3 1.32 7.59 7.59 0 0 0-1.34 1.23 4.84 4.84 0 0 0-.78 1.28c-.28.84-.23 1.4-.08 1.45zM152.7 255.35c.2.06.5-.34 1-.88.23-.27.55-.57.89-.9s.76-.64 1.21-1c1.81-1.3 3.59-2 3.49-2.41-.05-.19-.58-.25-1.39-.09a8 8 0 0 0-2.94 1.32 7.26 7.26 0 0 0-1.34 1.23 5.18 5.18 0 0 0-.79 1.28c-.36.84-.31 1.4-.13 1.45zM147.37 255.35c.2.06.5-.34 1-.88.24-.27.55-.57.89-.9s.76-.64 1.21-1c1.82-1.3 3.6-2 3.49-2.41-.05-.19-.57-.25-1.39-.09a8.1 8.1 0 0 0-2.94 1.32 7.59 7.59 0 0 0-1.34 1.23 5.18 5.18 0 0 0-.79 1.28c-.35.84-.31 1.4-.13 1.45zM142.05 255.35c.2.06.49-.34 1-.88.23-.27.54-.57.88-.9s.77-.64 1.22-1c1.81-1.3 3.59-2 3.48-2.41 0-.19-.57-.25-1.38-.09a8.06 8.06 0 0 0-2.95 1.32 7.59 7.59 0 0 0-1.34 1.23 5.18 5.18 0 0 0-.79 1.28c-.35.84-.3 1.4-.12 1.45z" fill="#915924"/><ellipse cx="218.81" cy="253.19" rx="3.08" ry=".72" transform="rotate(-44.79 218.799 253.195)" fill="#915924"/><path d="M211.3 255.35c.2.06.49-.34 1-.88.23-.27.54-.57.88-.9s.77-.64 1.22-1c1.81-1.3 3.59-2 3.49-2.41-.05-.19-.58-.25-1.39-.09a8.06 8.06 0 0 0-2.95 1.32 7.59 7.59 0 0 0-1.34 1.23 5.18 5.18 0 0 0-.79 1.28c-.35.84-.3 1.4-.12 1.45z" fill="#915924"/><path fill="#b77d2f" d="M178.67 257.361l5.51-1.936 6.195 17.634-5.51 1.936z"/><path fill="#b77d2f" d="M173.438 270.416l3.389-13.975 5.675 1.376-3.389 13.976z"/><circle cx="180.45" cy="253.34" r="5.62" fill="#b77d2f"/><path d="M175.69 250.36c-.17.08-.06.76.4 1.75a11.87 11.87 0 0 0 2.52 3.44 9.67 9.67 0 0 0 1.94 1.43 6.2 6.2 0 0 0 1.88.67c1.13.2 1.83 0 1.82-.22s-.64-.36-1.53-.76a9.31 9.31 0 0 1-1.48-.84 15.22 15.22 0 0 1-1.64-1.33c-2.21-2.1-3.53-4.34-3.91-4.14zM179.19 247.86c-.18 0-.41.59-.3 1.59a7.67 7.67 0 0 0 4.61 5.73 5.49 5.49 0 0 0 .67.17 4.75 4.75 0 0 0 .52 0q.45-.09.45-.24c0-.22-.51-.35-1.18-.86a12.18 12.18 0 0 1-2.37-2.27 12 12 0 0 1-1.7-2.8c-.33-.77-.48-1.32-.7-1.32z" fill="#915924"/><path d="M183.88 259.88c-.83 1.39-2.89 1.69-4.6.67-1.71-1-2.42-3-1.59-4.36l3.47-5.83c.83-1.39 2.88-1.69 4.59-.68 1.71 1 2.42 3 1.6 4.36z" fill="#b77d2f"/><path d="M179.54 252.9c-.08-.05-.22 0-.4.22a2.4 2.4 0 0 0-.44 1 6.18 6.18 0 0 0 .43 3.38 6.43 6.43 0 0 0 2 2.75c.74.54 1.37.55 1.42.37s-.29-.51-.71-1.11a12.46 12.46 0 0 1-1.37-2.55 11 11 0 0 1-.75-2.77c-.09-.72 0-1.19-.18-1.29zM181.59 249.88c-.2 0-.38.53-.44 1.41a9.85 9.85 0 0 0 .49 3.4 10.81 10.81 0 0 0 1.56 3c.54.7 1 1 1.14.94.35-.23-.55-2.1-1.32-4.43-.37-1.17-.64-2.25-.85-3s-.38-1.32-.58-1.32zM184.25 249.26c-.09 0-.15.16-.19.33a5.94 5.94 0 0 0-.08.66 6.64 6.64 0 0 0 0 1.06 9.41 9.41 0 0 0 .34 1.31c.19.42.39.83.58 1.16s.4.61.55.84c.32.46.62.73.81.67s.24-.45.14-1.07a6.09 6.09 0 0 0-.29-1c-.13-.37-.26-.73-.44-1.12s-.27-.74-.38-1.07-.21-.66-.33-1a1.91 1.91 0 0 0-.39-.66c-.11-.1-.23-.15-.32-.11zM176.17 258.89c-.16.11-.11.52.11 1.08a6.21 6.21 0 0 0 1.4 2 4.16 4.16 0 0 0 2.34 1.08c.67 0 1.06-.12 1.08-.32s-.32-.44-.8-.67a10.11 10.11 0 0 1-1.64-1.16c-.58-.54-1.09-1.14-1.53-1.53s-.79-.59-.96-.48zM175.64 262.62c-.17.11-.12.51.11 1.08a6.05 6.05 0 0 0 1.4 2 4.14 4.14 0 0 0 2.34 1.07c.67 0 1.06-.12 1.07-.31s-.31-.44-.79-.67a9.69 9.69 0 0 1-1.64-1.16c-.58-.54-1.09-1.14-1.54-1.53s-.78-.59-.95-.48zM174.57 266.35c-.16.11-.11.51.12 1.08a6 6 0 0 0 1.39 2 4.17 4.17 0 0 0 2.34 1.07c.67 0 1.06-.12 1.08-.31s-.31-.44-.8-.67a10.77 10.77 0 0 1-1.64-1.16c-.58-.54-1.09-1.14-1.53-1.53s-.79-.59-.96-.48zM181.05 264.16c.13.15.53.07 1.09-.21a7.65 7.65 0 0 0 2-1.46 5.45 5.45 0 0 0 1.32-2.2c.14-.66.1-1.07-.09-1.13s-.5.22-.83.68-.83 1-1.44 1.64-1.19 1.19-1.58 1.67-.59.85-.47 1.01zM182.65 269c.13.16.53.07 1.09-.21a7.42 7.42 0 0 0 2-1.46 5.21 5.21 0 0 0 1.31-2.19c.15-.66.1-1.08-.08-1.14s-.5.23-.84.68-.83 1-1.44 1.65-1.18 1.18-1.58 1.66-.59.81-.46 1.01zM184.25 273.21c.13.16.53.07 1.09-.21a7.42 7.42 0 0 0 2-1.46 5.32 5.32 0 0 0 1.31-2.19c.14-.66.1-1.08-.08-1.14s-.5.23-.84.68-.83 1-1.44 1.65-1.18 1.18-1.58 1.66-.59.86-.46 1.01z" fill="#915924"/><path d="M207.94 214.74v3.45c0 2.42-4.19 4.39-5.92 5.3-5.31 2.76-30.6 3-37.23 1.86-3.7-.62-9.35-1.84-11.94-4.75-1.29-1.45-1.32-3.18-1.09-5-3.18 4.19 0 7.13 3.81 10.11 6.49 5 15.34 7.57 23.49 7.57 13.39 0 31.3-8.08 31.3-14.68 0-1.5-.89-2.77-2.42-3.86z" fill="#391212"/><path d="M158.49 188.69c-.32 1.44-1.38 2.43-2.36 2.21l-8.57-3.37c-.83-.18-1.29-1.32-1-2.53l2.4-10.81c.27-1.22 1.16-2.05 2-1.87l9.2.58c1 .22 1.52 1.56 1.2 3z" fill="#8fc0d6"/><path d="M164.92 178.1c-.25 1.11-1.06 1.87-1.81 1.7l-6.6-2.59c-.64-.14-1-1-.78-2l1.84-8.32c.21-.93.9-1.57 1.53-1.43l7.08.44c.75.17 1.17 1.2.92 2.31z" fill="#f7d98d"/><path d="M162.82 173.77c0 .2.25.42.68.66a15.59 15.59 0 0 0 1.73.85 7.4 7.4 0 0 0 2 .57c.55.05.91 0 1-.22s-.2-.46-.62-.74a9.56 9.56 0 0 0-1.74-.95 5.82 5.82 0 0 0-2-.5c-.68 0-1.03.13-1.05.33zM164.15 171.64c-.16.36 1.08 1.2 2.78 1.86s3.26.66 3.35.27-1.19-1.13-2.87-1.64-3.1-.86-3.26-.49zM149.24 191.61c.14.12.55-.07 1-.55a7.71 7.71 0 0 0 1.95-4.72c0-.68-.13-1.1-.32-1.12s-.43.33-.68.9-.57 1.34-.91 2.19-.68 1.62-.9 2.19-.3.97-.14 1.11zM152.17 192.41c.33.21 1.31-.78 2-2.29a6.54 6.54 0 0 0 .59-2.06c0-.56 0-.92-.21-1s-.47.2-.76.65a14.77 14.77 0 0 0-.94 1.78c-.65 1.45-1.03 2.7-.68 2.92zM161.22 167.11a.23.23 0 0 0-.14 0s-.05 0-.05.11a.24.24 0 0 0 .12.13.43.43 0 0 0 .15 0 .34.34 0 0 0 .15-.09l.06-.05a1.3 1.3 0 0 0 .33-.29 2.16 2.16 0 0 0 .42-1c.16-.78-.09-1.54-.51-1.55s-.76.52-.91 1.29.04 1.53.38 1.45zM162.82 167.37c.4.08.9-.53 1.25-1.48a3.17 3.17 0 0 0 .18-1.34c0-.36-.17-.6-.36-.64s-.43.12-.63.39a4.4 4.4 0 0 0-.56 1.11c-.34.94-.27 1.89.12 1.96zM145.51 181.22c-.23.31.16 1 1.06 1.3a1.85 1.85 0 0 0 1.15 0c.29-.12.45-.29.45-.49a.71.71 0 0 0-.37-.54 3 3 0 0 0-.81-.34c-.6-.15-1.24-.26-1.48.07zM145.77 178.29c-.23.32.31 1.09 1.3 1.43a2.45 2.45 0 0 0 1.34.11c.36-.09.56-.28.56-.47s-.18-.39-.43-.55a5.25 5.25 0 0 0-1-.46c-.79-.27-1.54-.35-1.77-.06z" fill="#1a305a"/><ellipse cx="207.22" cy="271.8" rx="4.93" ry="9" transform="rotate(-9.32 207.296 271.855)" fill="#8fc0d6"/><path d="M200.64 273.9c0 .41 1.08.68 2.19.25a3.16 3.16 0 0 0 1.3-.82c.27-.32.36-.6.24-.76s-.41-.18-.75-.12a6.3 6.3 0 0 0-1.28.34c-.97.36-1.68.71-1.7 1.11z" fill="#1a305a"/><ellipse cx="203.58" cy="276.04" rx="1.79" ry=".72" transform="rotate(-26.57 203.516 276.003)" fill="#1a305a"/><path d="M209.43 275.23c-.19.36.46 1 1.43 1.47s1.85.49 2 .13-.46-1-1.44-1.46-1.81-.49-1.99-.14zM210.49 273.37c0 .2.18.39.41.55a6.13 6.13 0 0 0 .87.49c.68.31 1.35.57 1.65.29.14-.14.14-.4 0-.72a2.26 2.26 0 0 0-1-.88 2.16 2.16 0 0 0-1.34-.2c-.4.1-.59.28-.59.47zM206.76 265.65c.16.12.44 0 .77-.22a3.2 3.2 0 0 0 1-2.87c-.1-.41-.28-.64-.48-.64s-.38.22-.54.53a7.76 7.76 0 0 0-.5 1.19c-.3.91-.57 1.75-.25 2.01zM208.89 267c.11.16.35.22.67.13a1.8 1.8 0 0 0 1.14-2c-.1-.32-.28-.49-.48-.49a.75.75 0 0 0-.53.35 4.76 4.76 0 0 0-.45.66 4.48 4.48 0 0 0-.35.74.77.77 0 0 0 0 .61z" fill="#1a305a"/><path d="M240.07 246.23a5.64 5.64 0 0 1-7.07 3.63l-5.33-1.41c-3.15-.84-3.44-4.67-2.69-7.51l.1-5.73c.75-2.84 3.92-4.47 7.07-3.63l5.33 1.41c3.15.84 5.09 3.82 4.33 6.66z" fill="#fcc184"/><path d="M231.74 233.92c-1 1.57-.83 3.47.39 4.25 1.21.78 3 .14 4-1.42l7.82-12.2c1-1.57.84-3.47-.38-4.25-1.22-.78-3-.14-4 1.43z" fill="#fcc184"/><path d="M232.58 234.14c.1 1.86-1 3.43-2.44 3.51-1.44.07-2.69-1.38-2.78-3.24l-.74-14.47c-.1-1.86 1-3.43 2.44-3.5 1.44-.08 2.69 1.37 2.78 3.23z" fill="#fcc184"/><path d="M241.28 238.21l-5.79 7.06c-1.07 1.51-1.54 2.71.12 3.67l.94.8c1.66 1 2.87-1.29 3.95-2.8l1.69-2.06" fill="#fcc184" stroke="#d19659" stroke-miterlimit="10" stroke-width=".533"/><path d="M239.39 235l-5.79 7c-1.07 1.51-1.54 2.72.12 3.67l.94.8c1.66 1 2.87-1.29 3.94-2.8l3.26-4" fill="#fcc184" stroke="#d19659" stroke-miterlimit="10" stroke-width=".533"/><path d="M226.54 232.74l7.7 5c1.46 1.14 2.18 2.24.43 4.06l-.95 1.32c-1.74 1.82-3.47-.07-4.93-1.22l-3.14-2" fill="#fcc184" stroke="#d19659" stroke-miterlimit="10" stroke-width=".533"/></svg>