<svg data-name="Capa 1" xmlns="http://www.w3.org/2000/svg" viewBox="5 0 187.83 197.56"><path d="M.65 196.8S180.39 207.9 187.15.65H.65z" fill="#6edbd1" stroke="#6edbd1" stroke-miterlimit="10" stroke-width="1.305"/><path d="M124.13 82.2c.48.55-2.21 1-8.08 1.3q-7.56.33-10.64.12.07 14.59.92 30.82l1.28 16.95-9.13.2c-3.46.13-7.77.1-12.92-.12h-.12v-23.58l-1-.23h-19.2l.48 10-.3 12.87v.16c-3.52-.16-6.84-.26-13.19-.32l-8.44-.08c0-.39-.46-10.76-.46-10.76s-.5-11-.5-12.38L43 93a89.23 89.23 0 0 0-.68-13.12l-7.24-.08-7.36-.16c2.85-3.6 19-14.72 48.49-44.39L104 63.14c7 7.48 13.67 11.26 20.12 19.06" fill="#fff"/></svg>
