<svg id="Capa_1" data-name="Capa 1" xmlns="http://www.w3.org/2000/svg" viewBox="-3.5 0 149.38 157.05"><path d="M4.39,0C3.94,4.59,3.7,9.22,3.7,13.9A138.68,138.68,0,0,0,142.38,152.57q3.47,0,6.88-.17V0Z" style="fill:#6edbd1"/><path d="M147.36,139.63c.08.41.16,1.07.24,1.37A3,3,0,0,0,147.36,139.63Z" style="fill:#7edfd6"/><path d="M148,30.51c0-.19,0-.38,0-.56l-.07.28Z" style="fill:#7edfd6"/><path d="M147.93,30.23l-.3-1C147.75,30.74,147.84,30.66,147.93,30.23Z" style="fill:#7edfd6"/><path d="M68.77,128.18l.41.12A1,1,0,0,0,68.77,128.18Z" style="fill:#7edfd6"/><path d="M62.35,124.4c-.5-.38-1-.69-1.39-1h-.13A9.09,9.09,0,0,0,62.35,124.4Z" style="fill:#7edfd6"/><path d="M64.54,126.45l-1.26-.86C63.72,125.92,64.14,126.2,64.54,126.45Z" style="fill:#7edfd6"/><path d="M26.74,93.64l-.39,0C26.58,93.73,26.7,93.72,26.74,93.64Z" style="fill:#7edfd6"/><path d="M70.37,128.74c-.41-.18-.8-.31-1.19-.44C69.8,128.59,70.72,129.15,70.37,128.74Z" style="fill:#7edfd6"/><path d="M147.22,139.38a2,2,0,0,1,.14.25C147.31,139.36,147.26,139.21,147.22,139.38Z" style="fill:#7edfd6"/><path d="M144.9,152.6h.15C145.69,152.57,145.44,152.57,144.9,152.6Z" style="fill:#7edfd6"/><path d="M138.38,1.42c-1,0-2.09.06-3.12.11C137.64,1.63,138.37,1.56,138.38,1.42Z" style="fill:#7edfd6"/><path d="M92.71,141.17c.67,1.27-3.66-1.4-3.74-.47,2,.57,3.45,1,4.16,1.79-1.75-.15-3.92-1.58-5-1.21,1,.32,2,.58,3,.88,1.69,1.08-1.06.64.67,1.26a7.26,7.26,0,0,1,2.49.57c.94.35,2,.75,3,1.22a32.66,32.66,0,0,0,5.57,2.27l-1-.19L106,149s0,0,0,.06a.62.62,0,0,0,.24-.13,15,15,0,0,0,3.42,1.5,34,34,0,0,0,5,1.27c.75-.17,3.65.31,6.58.77a47.5,47.5,0,0,0,6.81.55,25.52,25.52,0,0,1-4.78-.61l.4-.68c3.44.45.14.7,3.49.69-.24-.53-1.42-.68-2.85-.75a26,26,0,0,1-4.3-.34,36.27,36.27,0,0,1,3.64,0c-2.41-.27-4.73-.85-6.89-1.18a31.49,31.49,0,0,0-5.89-.54c-1.31-.52-.57-.77.45-.64-3.56-.26-2.38-1-5.4-1.38a3.33,3.33,0,0,1,1.67,0c.77.11,1.73.27,2.74.47a33.44,33.44,0,0,0,5.79.9c4.24,1.54,10.16,1.75,15.1,1.95.16.68-3.41,1-1.47,1.51,4.88.81,4.95.07,7.75-.27,3.51.31.33,1.18,5.93,1.26-1.1.19-2.22.27-3.33.4,3.23,1.05,3.1-.36,5.55-.21-.81-.23-.82-.45-3.62-.39-.28-.32,1.85-.51,2.87-.58h-.65a9.57,9.57,0,0,1,1.63-.66,9.16,9.16,0,0,1,2.73-.21c-.23.22-.32.27-.08.35a2.14,2.14,0,0,0,.47.07,4.48,4.48,0,0,0,.06-.62,26.58,26.58,0,0,1,.23-2.84l.12.94c-.19-2.6-.11-5.24-.21-6.88l.14.14c-.23-1.94-.93-2.67-.77-5.48.28.28,1,3.64.92.53.41.44.46,3.88.3,6.69.16-2.81.84-4.22.88-.77.54-.94-.22-3.25,0-5.07-.16.33-.34-.26-.51-.13.72-.09.06-6.73-.44-6.83l.4,3.39c-.58.25-1-4-1.28-2.62.91-1.59-.45-9,.32-10.72l-.47,1.22c.28-7-.77-12.72-1-19.75.28,2.41,1.28,2.61.94,6.94.19-6.61,1-1.94,1.48-4,.37-5.15-.92-2.67-1.24-4.27l.18,3.59c-1.15-4.61.26-13.35-.46-20.48.3-.52.17,1.46.28,2.43.6-3.2-.12-3.11-.35-5,.1-3.31.36-7.29,1.09-5.25.18-3.63-.44.39-.67-1.55l.17-.67-.83-3.85c.24-3.15.64-7,1.33-8.39-.14-7.37-1.64-2.57-1.92-8,.38-3,.56.58.84.87L148.49,51c.81,1.7.41,5.54,1.35,5.24-1-4-.27-5.38-.9-10.72l-.09.34c-.64-2.37-.19-7.86-.31-11,.39,1.27.43,4.71.58,7,.32-3.5,0-12.32-.84-15.33.13-2,.48-6.3.82-3.39.14-7.09-1.2-3-.95-9.08l.64.25A38.75,38.75,0,0,0,149,7.1q-.21-3.22-.4-6.39c-.73,0-1.41,0-2.1,0L145.3.64c-.44,0-.87-.08-1.31-.14l-.39.78c-1.37-.33-4.18-.49-4.71-.79l3.25-.26c-2.72-.66-3.21.62-6.55.16,0,.24,2.79.77,2.79,1,1.82-.06,3.63-.09,5.45-.1h2.5l1.64,0q-.12,6.8-.24,13.61c-.06,5,0,10,.27,15,.09-.52.2-1.14.35-.79-.19,1.5,0,4.26-.4,3.83l-.06-.49c.18,3.59-.78,6.84-.77,9,.53,1.4-.22,7.42.69,5.82l-.58,2.36c.34.79.78.4,1,1.86-.07,2.47-.43,2.52-.66.58-.35,9.41-.25,20.57,0,30.24l-.42-2.59c-.22,2.33.75,8.45-.34,6.46.43,4.71-.31,12.86.83,13.19-1.1,3.12-.48,11.41-.32,18,1-1.11.27,5.38.72,7.14-.75.91-.77-5.49-1.27-5.59,1.16,6.75-.84,18.68,1.08,21.55-.07.81-.15.82-.23.54,0,1.3-.33,3-.41,4.31.33.77.49-2,.61,1.07-.08,2.47-.61,1.06-.85,2.08l0,.45a1.59,1.59,0,0,0,0,.36c0,.1,0,.21.07.33s.09.51.14.81a4.8,4.8,0,0,1-.72.17l-.42.08-.41,0-.48.05c-1.26.12-2.41.29-3.28.4a3.89,3.89,0,0,0-1.7.44c-1.39-.25-2.83-.72-1.29-.83a34.65,34.65,0,0,1-7.27-.15c-.89-.1-1.79-.2-2.92-.29s-2.51-.29-4.38-.42c2.6.28,1.39-.59,5.1.1a27.93,27.93,0,0,0-7.46-1.28c-1.6-.19-3.29-.45-4.94-.71-.83-.14-1.65-.27-2.43-.46s-1.53-.42-2.24-.65l-2.49.14c-1.79-.33-2.67-.74-2.8-1s.47-.27,1.73-.1c-2.91-1-5.15-1.65-7.24-2.21s-4-1.17-6.2-1.94c-.23-.18,0-.21.74.07-2.11-.79-4.19-1.66-6.29-2.48-.7-.08-3.06-.79-2.79-.17a5.29,5.29,0,0,1,1.92.38A32.2,32.2,0,0,1,92.71,141.17Z" style="fill:#7edfd6"/><path d="M87.06,139.24h-.2l.25.11S87.08,139.27,87.06,139.24Z" style="fill:#7edfd6"/><path d="M147.87,153.81c-1-.14-1.83-.21-2.22-.24l.29.08.42.06C146.73,153.75,147.22,153.79,147.87,153.81Z" style="fill:#7edfd6"/><path d="M35.56,101.69c-.25,1.35,2.86,3.07,4.62,5.5-2-2-2-1.09-2-.6a8.2,8.2,0,0,1,3.24,2.9,23.59,23.59,0,0,0,4.35,5c-.19.41-2.57-1.71-3.16-1.66,1.4,1.18,3.19,2.64,4.72,3.86a8.71,8.71,0,0,0,3.47,2L54,121.49l2.88,2.36c.9.72,1.72,1.44,2.55,2s1.62,1.15,2.39,1.66c-3.8-2.33-1.13.17-4.16-1.24,1,.52,2.4,1.16,3.91,1.95L64,129.5c.83.42,1.72.81,2.61,1.24a109.82,109.82,0,0,0,10.49,4.4c.31,1.1.53,1.31-.55,1.62,3.15,1.93,3.73,2,4.26,2s1,0,4.18,1.54l-2.88-1.47a6.7,6.7,0,0,0,4.76.39l-3.71-1.61c-1.22-.57-2.42-1.19-3.63-1.78.17-.24,1.36.23,2.67.83s2.83,1.21,3.54,1.47c2.47.35-3.73-2.21-2.68-2.38-1.22-.13-4-1.68-5.86-2.46l-.16-.45c-3.07-2.14-5.31-2.46-8.13-4.35-.21-.24-.21-.32-.13-.33a14.12,14.12,0,0,1-4.23-1.73l1.31.88c-1.39-.53-3.62-1.75-5.1-2.41-.74-.33-1.27-.54-1.42-.44s.09.52,1,1.37c-1.13-.81-2.16-1.74-3.23-2.62s-2.14-1.75-3.18-2.67c1.23,0,3.32,0,7.09,2.85l.65,0a25.8,25.8,0,0,0-4.89-3.51c-1.59-.83-2.63-1.22-2-.18a9.07,9.07,0,0,1-3.26-1.7,26.88,26.88,0,0,1-3.61-3.24c-1.21-1.25-2.5-2.54-3.69-3.83a34,34,0,0,0-3.6-3.47c.1-.67,2.57,1.62,3.84,2.42,1.28,1.29,2.28,2.12,2.06,2.56,2.93,2.59,2.92,2,3,1.54,0-.22.05-.42.47-.18a7.13,7.13,0,0,1,.94.74c.46.38,1.07.9,1.87,1.62,3,3-4.52-2.77.2,1.42,1.47.6,2.88,1.23,4.38,1.74l-1.14-.86-1.09-.89L53,116l-2-1.57-1.85-1.57c-1.65-1.41-3.25-2.77-4.66-4.2s-2.83-2.71-4-4.08l-3.35-3.8-2.65-3.44c-1.63-2.06-2.7-3.85-3.5-5L29.75,90.4A145,145,0,0,1,20,73.91c-.76-1.41-1.36-2.89-2-4.34s-1.36-2.89-1.92-4.39l-1.79-4.45L12.71,56.2A130.58,130.58,0,0,1,8,37.61c-.66-3.13-1-6.32-1.42-9.49-.15-1.6-.27-3.2-.4-4.79l-.2-2.4-.08-2.4c-.1-2-.18-3.7-.25-5.15s-.07-2.67-.13-3.74a17.31,17.31,0,0,0-1-5.34C4,6,4,11,3.54,9.25c.52.9.69,4,.8,8.22-.52.45-.35-3.89-.45-2.79l0,.81a4.67,4.67,0,0,1-.5-2.5A30,30,0,0,0,3,17.22a40.4,40.4,0,0,0,.11,4.9c.33,3.26.8,6.34,1.58,8,0,3.93-1.23-2.52-1.7-4.51,0,.86.08,1.71.12,2.53s.17,1.64.25,2.44c.17,1.59.33,3.14.49,4.64s.49,3,.72,4.42.48,2.88.82,4.29.65,2.84,1,4.27S7.16,51,7.56,52.49c.76,3,1.85,6,3,9.29.93-.1,1.07,1.12,2.37,2.68L13,65.68c-.06-.61,1.24.93.43-1.66a23,23,0,0,0,1.74,4.57A22.31,22.31,0,0,0,17,71.52c.64.83,1.22,1.59,1.9,2.39A21.62,21.62,0,0,1,21,76.75l-.61-.11,1.34,2.5c.4.69.77,1.29,1.13,1.87.72,1.16,1.42,2.24,2.49,3.83,1.53,3.23.65,2-.59.11s-2.68-4.3-2.71-3.16l1.19,1.68a16.88,16.88,0,0,1-3.77-3.37c1,1.43,1.83,2.67,2.53,3.86s1.27,2.31,1.94,3.4A44.83,44.83,0,0,0,29,94.77a16.54,16.54,0,0,1-3.1-3.23c-1.26-1.62-2.53-3.39-3.06-4.16,1.33,2.2,4.13,5.84,3.9,6.26l.86,0c2.69,3.63-.86-.12-.36,1.33,3.12,4.38,3.89,4.24,4.42,4S32.67,98.33,35.56,101.69Z" style="fill:#7edfd6"/><path d="M127,151.7a29.75,29.75,0,0,0-3.36-.39C124.77,151.46,125.89,151.6,127,151.7Z" style="fill:#7edfd6"/><path d="M106,149a1.25,1.25,0,0,1-.45.13C105.93,149.22,106.09,149.18,106,149Z" style="fill:#7edfd6"/><path d="M103.71,149.38c-.41-.44.9-.07,1.84-.21C104.17,149,100.76,148,103.71,149.38Z" style="fill:#7edfd6"/><path d="M41.07.09c-1-.25,1.07-.62,1.37-.89-4-.26-4.18.73-7.67.42,5.39-.53-2-.4-3.71-.79,1,.63,3,1.06,7.05,1.24l.44-.41C40.69-.35,39.57-.1,41.07.09Z" style="fill:#7edfd6"/><path d="M62.13-.93l-3.2.62c-.54-.3-5.63-.31-5.39-.95A33.05,33.05,0,0,0,50-.72a7.31,7.31,0,0,0-4.13-.12c7.63.44,5.35.59,11.94.78A4.91,4.91,0,0,1,56,0l4.31.35C60.73-.4,66.3-.45,62.13-.93Z" style="fill:#7edfd6"/><path d="M68.44-.46C65-.42,63.1.17,64.8.58l7.33-.5C70,.09,67.36.16,68.44-.46Z" style="fill:#7edfd6"/><path d="M73.53-.45a11.47,11.47,0,0,0,6,.39C75.57,0,77.41-.91,73.53-.45Z" style="fill:#7edfd6"/><path d="M98.42.15,91.63-.27C90.37-1.1,94.88-.53,97-.9c-5.77-.17-3.93.1-8.29.61a51.05,51.05,0,0,0-6.16.61C91.29-.35,91.72,1.67,98.42.15Z" style="fill:#7edfd6"/><path d="M114.48,1.06C118.56,2,122.3.5,127,.93c-.5,0-.15.13-1.12.25l3.93-.1.19.22C129.72.72,133.8.48,135.55,0c-4-.62-2,.73-5.58.05.85-.27,1.47-.67,2.28-.88a16.21,16.21,0,0,0-4.09,1c-2.62.07-1.83-.27-2-.49-2.92.34-3,1.2-7.42,1-2.87-.52,1.69-.81-3.21-.6,2.43.94-4.94-.15-6.83.44-3.65-.18-6-.75-5.25-1.09.1.73-3.11,1.35-5.88,1.55l6.17-.6,2.09.85A56.46,56.46,0,0,1,115,1Z" style="fill:#7edfd6"/><path d="M149.68,73.5c.3-2.67-.28-2.42-.7-2.86C148.85,74.76,149.48,70.73,149.68,73.5Z" style="fill:#7edfd6"/><path d="M127.45,155c1.41,0,2.82,0,4.23,0l-2.16-.19a19.52,19.52,0,0,1,3.47-.68C129.89,154.11,126.91,154.27,127.45,155Z" style="fill:#7edfd6"/><path d="M136.74,154.13l-1.53,0A1.82,1.82,0,0,0,136.74,154.13Z" style="fill:#7edfd6"/><path d="M133.55,154l-.56.08,2.22,0A3.31,3.31,0,0,0,133.55,154Z" style="fill:#7edfd6"/><path d="M124.38,154.14l-3.6-.4-3.59-.59,2.69.68C120.56,153.36,123.17,154.66,124.38,154.14Z" style="fill:#7edfd6"/><path d="M87.94,143.85c-.15-.28-.3-.56-.44-.85-2.06-1-4.56-1.77-6.77-2.63s-4.13-1.8-5.11-2.87c1.61,1.28-3.71-1.17,1,1.53A40.06,40.06,0,0,1,82,141.16C84.21,142.07,86.46,143.15,87.94,143.85Z" style="fill:#7edfd6"/><path d="M73.16,135.51c.74.22-.16-.45-.59-.89-1.36-.87-3-1.51-2.42-.85C71.73,133.73,71.43,135.1,73.16,135.51Z" style="fill:#7edfd6"/><path d="M55.64,123.75c1,.82,2.55,1.91,1.13.6-3.15-2.46-2.82-1.22-4.63-2.21C54.5,124.57,57.43,125.56,55.64,123.75Z" style="fill:#7edfd6"/><path d="M36.89,98.77a3.48,3.48,0,0,0,1,1.82,10.36,10.36,0,0,0,1.56,1.6A15.78,15.78,0,0,1,36.89,98.77Z" style="fill:#7edfd6"/><polygon points="33 101 33.6 101.96 35.06 102.48 33 101" style="fill:#7edfd6"/><path d="M19.34,81.34c-.67-.79-1.25-1.64-1.88-2.46l1.08,2,1.16,2Z" style="fill:#7edfd6"/><path d="M17.34,77.19c-.61-1.19-1.28-2.35-1.81-3.57.13.45.25.92.4,1.36C16.67,76.78,16.72,76,17.34,77.19Z" style="fill:#7edfd6"/><path d="M12.26,66.29a2.53,2.53,0,0,1,.3,1.08c.53,1.09,1.16,2.14,1.76,3.2l-1.08-2.12Z" style="fill:#7edfd6"/><path d="M5.83,4c.48.91.4-2.65.64-3.72C6.36,0,5.44,2.26,5.83,4Z" style="fill:#7edfd6"/><g style="opacity:0.27"><path d="M99.32,72.6a20,20,0,1,1,0-28.29A20,20,0,0,1,99.32,72.6Z" style="fill:#fff"/></g><path d="M136,99c-2.34-3.13-6-5.94-8.11-8l-5.72-5.72c-2.28-2.29-4.9-4.22-7.11-6.59C114,77.47,113,76.27,112,75.14a31.94,31.94,0,0,0,4.66-16.45c.1-15.87-12.32-30-28.08-31.66A31.62,31.62,0,0,0,53.73,55.29a25.37,25.37,0,0,0,.84,10.12c.88,2.82,1.36,5.84,3,8.37a39.94,39.94,0,0,0,5.28,7,31.59,31.59,0,0,0,39.07,4.46c2.39,2.52,4.83,5.12,5.19,5.49,1,1,1.91,2,2.85,2.93L112,95.82c4.49,4.6,9.32,8.78,13.86,13.32a7.16,7.16,0,0,0,10.13,0C139.43,105.7,138.42,102.17,136,99ZM71,72.6c-7.69-7.69-7.2-20-.14-28a18.31,18.31,0,0,1,8.47-5.29,19.68,19.68,0,0,1,25.21,22.58c-.74,3.69-2.42,8.17-5.24,10.72a.52.52,0,0,0-.11.1,21.76,21.76,0,0,1-9.06,5.12A20.17,20.17,0,0,1,71,72.6Z" style="fill:#fff"/><path d="M136,99c-2.34-3.13-6-5.94-8.11-8l-5.72-5.72c-2.28-2.29-4.9-4.22-7.11-6.59C114,77.47,113,76.27,112,75.14a31.94,31.94,0,0,0,4.66-16.45c.1-15.87-12.32-30-28.08-31.66A31.62,31.62,0,0,0,53.73,55.29a25.37,25.37,0,0,0,.84,10.12c.88,2.82,1.36,5.84,3,8.37a39.94,39.94,0,0,0,5.28,7,31.59,31.59,0,0,0,39.07,4.46c2.39,2.52,4.83,5.12,5.19,5.49,1,1,1.91,2,2.85,2.93L112,95.82c4.49,4.6,9.32,8.78,13.86,13.32a7.16,7.16,0,0,0,10.13,0C139.43,105.7,138.42,102.17,136,99ZM71,72.6c-7.69-7.69-7.2-20-.14-28a18.31,18.31,0,0,1,8.47-5.29,19.68,19.68,0,0,1,25.21,22.58c-.74,3.69-2.42,8.17-5.24,10.72a.52.52,0,0,0-.11.1,21.76,21.76,0,0,1-9.06,5.12A20.17,20.17,0,0,1,71,72.6Z" style="fill:none"/><path d="M70.44,72.76c.36.3,0-.37.29.14C70.6,72.94,70.48,72.93,70.44,72.76Z" style="fill:#fff"/><path d="M71.91,73.92a6.23,6.23,0,0,1,2.2,1.22,13,13,0,0,0,1.1.72,4.19,4.19,0,0,0,1.19.44c.19,0-.22.35.21.44,1.67.15,3.83,1.21,5.72,1.93l-.14.1c.37.14.87-.21,1.25-.11,0,.08-.14.1-.06.21.12-.21.72-.05.9-.22.15.1.12.28.32.4l.24-.26c.61-.64,1.51,0,2.33-.38,0,.06-.11.12,0,.17,1.31-.51,3-.75,4.33-1.38,0,.11,0,.3.1.37,0-.3.39-.51.73-.71.28.2.53-.51,1-.56v.08c.18-.43.54-.07.62-.52l.3.1c-.06-.43.54-.06.69-.38l-.06-.07c.18-.23.41-.12.58-.31l0,0c.43-.41.84-.42.65-.67.31.09-.41.42.07.54.71-.68,1.45-1.33,2.19-2a14.25,14.25,0,0,0,2.05-2.06c.23-.09.35-.18.48-.15.06-.19.38-.63.33-.87,0,.06.21,0,.28-.1.3-.23-.1-.51.22-.77,0,.18.06.27.19.29a3,3,0,0,1,.3-1.17c0,.08,0,.18.1.21-.06-.51.4-.68.39-1.1l.11.2c.45-.47-.28-.32,0-.74,0,.14.09.12.15.17-.12-.58.26-1.27.3-1.77a.11.11,0,0,0,.07,0,6.86,6.86,0,0,0,.4-1.62c.14-.18.42.19.5-.37-.36-.08.08-1-.41-.74a3.5,3.5,0,0,0,.36-1.49c.11.23.49-.16.46.24l.27-.27c.14.07-.1.3.1.24a7.94,7.94,0,0,1,0-1A3.55,3.55,0,0,1,104.5,59c.14.28.42-.15.47,0-.23-.29-.44-.57-.7-.84,0-.19.3,0,.19-.33-.1,0-.16-.1-.24-.19s-.13-.79.22-.91c.13-.09.1.32.21.09s-.16-.37-.2-.73h0c0-.25-.26-.68-.42-.4,0,.17.21-.09.14.17a1.36,1.36,0,0,1-.41-.89c.08.11.17.07.28.11a6.67,6.67,0,0,1-.8-1.39c-.17,0,.37.11.29.21.07-.73-.68-1.27-.54-1.91.06.08-.22.13-.17.11-.08-.32.16-.39,0-.56.13-.07-.14-.24-.27-.43s.05-.08.14.1a5.88,5.88,0,0,1-1-2c-.08.06-.52-.21-.58-.35l.23-.06c0-.2-.29-.46-.14-.58-.4-.17.87,1.05.45.74.11-.2-.63-.39-.31-.46-.18-.27-.56-.4-.54-.78,0,.1.4.06.25-.16-.29-.37-.16-.05-.44-.32l-.21-.14c-.19.12-.22-.35-.32-.07.13-.16-.48-.46-.17-.64l.27-.13c-.14-.15-.45-.07-.64-.11A.16.16,0,0,1,99.6,46c-.36.26-.28-.39-.7-.32-.16-.41-.7-.76-.66-1.1-.33-.13-.66-.19-.87-.5.08,0,.17.07.25,0-.09-.25-.21-.2-.42-.28.08,0-.2-.48-.31-.77-.34-.09-.39.17-.51.27,0-.54-.88-.29-1-.81.12,0,.51.08.35-.16,0-.54-.68-.05-1-.47l-.08.37c-.07-.31-.7-.15-.48-.45-.2,0-.44-.37-.55,0-.56-.62-1.76-.6-2-1.35-.13,0-.37-.13-.38.06s.29,0,.31.1c-.1,0-.15.06-.17.1-.2-.15-.38-.23-.06-.44-.46-.38-.72.39-1.32.08.07-.13,0-.2-.17-.23l-.42.15c-.41-.15-.17-.38-.13-.62-.24,0-.53-.08-.67.08l-.22-.36c.16.26-.22.11-.34.16l.12,0c0-.11-.32-.08-.46-.07,0,.16.28.26.42.32-.13.09-.31,0-.49.15.09-.23-.35-.23-.54-.27s-.26.2-.32.18-.34,0-.16-.21.15.14.28,0c-.13-.11-.09-.33-.4-.19s0,.48-.38.3c.11-.06.14-.15.23-.23L86,39.32l0,.22c0-.06,0-.08,0-.11-.13.23-.61.06-.7.32-.19,0-.41-.15-.6-.17l0,0a.66.66,0,0,0-.73.14v-.05a.86.86,0,0,0-.56.19c-.33-.14-.2-.83-.52-.51-.33.05-.45.47-.31.59-.59-.07-1.16.41-1.75.2-.06.1,0,.15-.15.24-.85.11-1.61.74-2.39.57.19-.17-.07-.21-.12-.33-.12.26-.31-.1-.25.25.1.17.12.27.37.26a3,3,0,0,1-1.45.55c.17,0,.1.13,0,.23-.11-.3-.47-.18-.66.06l.06.19L76,42.05c-.06.1.1.41-.23.39a.38.38,0,0,0-.17-.14c-.18.28-.36.73-.71.76L74.55,43c-.1.1-.17.37.06.3-.53.17-.81.37-1.09.29a9.79,9.79,0,0,1-1.9,2.76l-.09-.12c-.29.14.11.28-.1.37-.05-.16-.38,0-.37-.3-.38.23-.14.57-.24.82.13.15,0-.24.19-.06s-.44.39-.24.6c-.15,0-.28-.16-.35-.28l0,.29c-.46.08-.1-.94-.63-.9l-.1.22c-.38,0,.08-.74-.35-.28,0,.31.2.73.43.61-.23.5.45.59.11,1.05-.23,0,.22-.4,0-.44s-.2.51-.37.69c.22-.18.36.17.33.34-.25.19-.15-.3-.37,0,.11.14,0,.53.3.3.27.31-.29.32-.13.65-.31,0-.35-.66-.69-.32.27.06.05.64.51.6a.28.28,0,0,1-.43-.13c-.25.16.19.75-.31.61l.2.19c-.1,0-.21.11-.39.18s.05.78-.32.62c0,.08-.16.55.16.46s-.08-.41.34-.43c-.38.09-.12.43-.08.63l-.15,0c0,.12-.09.34,0,.45a.15.15,0,0,0-.24,0l.19.18c0,.44-.42,0-.49.39L67.85,53c0,.08-.24.16-.24.37.18.14.38.35.53.46s-.25,0-.09.32l-.18-.36c-.06-.07-.39.11-.46.42s.25.6.44.31c0,.16-.21.35-.34.19,0,.37.24,0,.3.33a5,5,0,0,0-.68.65l-.31-.39,0,.22c-.24-.34-.24.11-.51-.11a.71.71,0,0,0,.06.51c.54-.36.58.6,1,.52,0,.59-1.15.25-.49.94.12-.09.44.23.33-.15-.07.36.43.28.22.69-.16-.33-.46.33-.7-.16.14,0,.12-.25.09-.33-.18.14-.44-.06-.47.33s0,.56.26.52,0-.36.24-.19c.06.46-.33.53.11.73,0-.29.25-.36.42-.35l.09.33-.17-.06c-.11.53.31.15.28.66l-.32.25c-.29-.11.1-.75-.37-.66,0,.35.24.45.13.78,0-.07-.06-.17-.1-.24,0,.12-.62.28-.24.75.15.25.16.06.34.05.09.54.31.68.37,1-.34,0,0,.62-.34.28a1,1,0,0,0-.29-1.15c-.4.24,0-.44-.38-.53,0,.45-.38.46-.64.55,0,.14.11.25.16.32.25,0,.23-.13.48-.16a1.64,1.64,0,0,0,.47,1.21.21.21,0,0,1-.4,0,16.49,16.49,0,0,1,.33,1.79c.3-.45.23.6.5.27,0-.32.23-.64.44-.52,0,.18-.17,0-.23.13.27.17-.27.46.14.58-.27-.47-.5,0-.83,0,.29.34-.22.05-.1.43a6,6,0,0,1,.79,1.14c-.08.63.56,1.29.76,1.73,0,.31-.42.31-.33.59s.21-.4.32.11h-.09c.15.09.26.92.76.78l-.4.06c0,.1.14.13.21.18-.11.07-.15.22-.29.13-.08.43.4.53.6.8l.06-.31c.48.36.52.8.92,1.2l-.19.13.33.16c-.22.08-.12.4.14.41-.33-.1-.68-.19-1-.31,0-.28.37,0,.44-.22s-.27-.6-.49-.54c.09.18.14.16.29.23-.2.24-.37,0-.63,0,.08.08.09.26.18.22a1.25,1.25,0,0,1-.6-.52c.24.12.08-.22.2-.19-.23.13-.51-.09-.69-.5.11-.43-.58-.6-.77-1.09a1.81,1.81,0,0,1,.91.36c0-.34-.18-.29-.21-.63a1.26,1.26,0,0,1-.9-.27L67.2,68c-.25-.29-.52-.16-.67-.62s-.28-.79-.41-1.16-.22-.73-.31-1l.19-.08a1,1,0,0,1-.5-.66,2.73,2.73,0,0,0-.28-.82,4.81,4.81,0,0,0-.23-1.2,1.3,1.3,0,0,1,0-.94,12,12,0,0,1-.36-2,8.13,8.13,0,0,1,0-2.09l.28.27c-.2-.28.18-.16.15-.42-.25.28-.29-.37-.45-.58a3.59,3.59,0,0,0,.09-2.1l.2,0c-.23-.65.24-1.28.51-2,.1-.06.33-.13.37-.34A2.78,2.78,0,0,1,65.7,51a5.23,5.23,0,0,1,.8-1.36,6.87,6.87,0,0,1,.86-2.31c.41-.71.88-1.41,1.26-2.18l.27.05A6.25,6.25,0,0,1,70.41,43c.64-.64,1.33-1.17,1.82-1.71l.14.4c.42-.17.74-.68.48-.86.44-.15.83-.79,1.25-.65.43-.17.38-.45.69-.68a10.69,10.69,0,0,0,1.93-.89l-.21.06c-.05.12,0,.28.22.22.25-.24,1.13-.33.65-.67,1-.08,2-.92,3-.75-.1-.12.11-.19.19-.3a13.37,13.37,0,0,0,2.3-.33c.13.05-.18.24.15.23.18-.07,0-.18.22-.28,1.3-.36,2.67.14,3.85.19a16.12,16.12,0,0,1,6.22,1.32l-.06.08c.78-.08,1.3,1,2,.73.1.16.53.34.33.44.62,0,1.18,1,2,1.14a.27.27,0,0,0-.19-.07c.52.63,1.26.81,1.77,1.51-.09,0-.23-.1-.31,0,.12.35.85.19.66.66.14.12.26-.09.17-.15a41.3,41.3,0,0,1,3.77,4.28c.44,1.33-.64.46.18,1.22,0,.12.18,0,.11,0,.31.31-.19.81.15,1,.21-.23.23.1.39,0,.18.82,0,1.08.42,1.59h-.16c.66.56.71,1.47,1.34,2a23.24,23.24,0,0,1,1,6.24,18.88,18.88,0,0,1-.21,3.18,25.38,25.38,0,0,1-.67,3,28.38,28.38,0,0,1-2.48,5.67,14.66,14.66,0,0,1-2,2.61,16.72,16.72,0,0,1-2.46,2,3,3,0,0,0-1.83,1.06c0-.08,0-.13,0-.14.14.31-.61.44-.53.76a26.23,26.23,0,0,1-4.14,2.07c.23-.12.26-.41,0-.29l-.23.3-.07-.06c-.18.11-.35.33-.11.37a15.1,15.1,0,0,1-6,1,31.89,31.89,0,0,1-5.89-.81c-.89-.32-2.18-.62-3.15-.93a59.75,59.75,0,0,1-7-5.16A2.3,2.3,0,0,1,71.91,73.92Z" style="fill:#fff"/><path d="M70,72.36c0-.19-.1-.49.23-.45C70.18,72,70.17,72.28,70,72.36Z" style="fill:#fff"/><path d="M67.32,64.26s0-.13.05-.16.21.14.15.24C67.47,64.25,67.41,64.29,67.32,64.26Z" style="fill:#fff"/><path d="M66.93,62.24c.15,0,.37.4.44.65Z" style="fill:#fff"/><path d="M67.3,60.29c.12-.17.19-.13.19.08C67.41,60.39,67.37,60.33,67.3,60.29Z" style="fill:#fff"/><path d="M67,60.18a.39.39,0,0,1,.16-.32C67,59.87,67.21,60.21,67,60.18Z" style="fill:#fff"/><path d="M67.56,56.13c0-.1-.09-.33.08-.39C67.51,55.82,67.76,56.24,67.56,56.13Z" style="fill:#fff"/><path d="M67.7,54.24c0-.06.06-.08,0-.16s.17.05.16.15Z" style="fill:#fff"/><polygon points="95.05 42.34 94.83 42.29 94.93 42.18 95.05 42.34" style="fill:#fff"/><path d="M103.49,54.81c.13.19-.11.17-.12.21C103.32,54.83,103.56,55.05,103.49,54.81Z" style="fill:#fff"/><polygon points="103.88 63.3 103.89 63.24 104.17 63.33 103.88 63.3" style="fill:#fff"/><path d="M135.21,98.8c.65.73-.13-.58.48.44A.62.62,0,0,1,135.21,98.8Z" style="fill:#fff"/><path d="M137.35,102a4.5,4.5,0,0,1,.81,2.39,5.09,5.09,0,0,1-.66,2.69,10,10,0,0,1-4,3.8c-.39.16,0-.4-.88-.06a5.94,5.94,0,0,1-5.92-.91,23.92,23.92,0,0,1-2.41-2.52l-2.19-2.52.27.09c-.52-.61-1.5-1-2.08-1.61,0-.07.27.1.2-.11-.32,0-1.19-1-1.57-1.08-.18-.3,0-.41-.27-.78l-.54-.14c-1.42-.46-2.34-2.27-3.88-3.32.11,0,.27.11.21,0-2.38-1.77-4.86-4.52-7.27-6.77.16,0,.37,0,.31-.22-.32.09-1.07-.6-1.71-1.21-.07-.49-1.24-.91-1.83-1.77h.1c-.74-.34-.66-1-1.33-1.13,0-.14-.08-.3-.13-.47-.22.07-.33-.12-.49-.4l-.12-.22-.07-.12a.32.32,0,0,0-.09,0,.93.93,0,0,0-.38.24l0,.09c-.43.36-.66.25-1.14.61l-.07,0c-1.1.73-1.92.78-1.75,1.08-.52,0,1.11-.64.29-.68a26.56,26.56,0,0,1-12.46,3.32c-.49-.12-.8-.15-.91-.27s-.62.06-1,.09a3.76,3.76,0,0,0-1,.08c.14,0-.27-.18-.5-.21-.76-.19-.89.32-1.72,0,.35,0,.47-.12.37-.25a10.49,10.49,0,0,1-2.59-.12c.15,0,.36,0,.34-.11-1,.07-1.66-.45-2.51-.47l.35-.1c-1.23-.56-.49.27-1.56-.2.28,0,.21-.07.28-.13a7,7,0,0,1-1.93-.38c-.67-.25-1.32-.52-1.84-.68.07,0,.07-.05.07-.05a12.71,12.71,0,0,1-1.62-.79c-.54-.31-1.13-.54-1.7-.85-.36-.32.36-.3-.72-.91-.08.17-.55-.08-.94-.28s-.7-.4-.53,0c-.82-.71-2.1-1.81-2.67-2.24.44.22-.08-.69.59-.12l-.34-.61c.17,0,.46.49.44.21A18.15,18.15,0,0,1,63,80.56a7.09,7.09,0,0,1-2.44-1.7c.5.4.1-.54.41-.24-.57-.33-1.13-.69-1.68-1.06-.28-.35.18-.24-.27-.71-.06.08-.27-.12-.44-.23s-1.1-1.49-.89-1.85c0-.24.45.56.29.08-.44-.69-.57-.63-1-1.34l0,0c-.23-.49-.87-1.38-.79-.75.16.36.13-.23.29.33a4.56,4.56,0,0,1-1.12-1.93c.15.25.23.19.37.26a15,15,0,0,1-1.52-3.23c-.17,0,.43.35.39.55A9,9,0,0,0,54,66.45a6,6,0,0,1-.56-2.13c.09.21-.21.18-.16.15-.16-.77.1-.79-.09-1.27.13-.07-.17-.62-.28-1.13-.15-.25.05-.14.13.3a13.32,13.32,0,0,1-.39-5.29,3,3,0,0,1-.26-1.44l.22.17c.16-.33.11-1.28.32-1.32-.09-.43-.14.37-.14,1.12s0,1.47,0,.92c.21-.27-.23-1.57.06-1.31A6.19,6.19,0,0,1,53.06,53c-.08.2.2.66.29.05.14-1.08-.06-.33,0-1.21l0-.57c-.22-.09.26-.94-.08-.61.2-.08.3-1.58.64-1.37l.23.23a3.75,3.75,0,0,0-.08-1.22c0-.05.14-.15.18-.12-.39-.21.39-1.06.3-1.7.49-.88,1-2.34,1.49-2.63a6.39,6.39,0,0,1,.95-2.15c0,.17-.17.38-.1.47a2.59,2.59,0,0,0,.56-1,17.13,17.13,0,0,0,1.28-1.19c.34-.69,0-.62-.08-.77.75-.3,1.08-1.9,2-2.29-.13.24-.57,1-.07.57.77-.23.67-1.26,1.62-1.92l-.45-.06c.5-.2,1.06-1.3,1.22-1,.18-.36,1.07-.78.75-1,.79-.5,1.66-1.21,2.5-1.83a4.85,4.85,0,0,1,2.33-1.07c.2-.19.79-.47.59-.56-.48.05-.46.44-.67.4.2-.13.2-.24.19-.29.54-.23.94-.43.62.1a2.1,2.1,0,0,0,1.08-.8,2.51,2.51,0,0,1,1.33-.92c0,.16.13.16.56-.06.24-.2.49-.39.74-.57,1-.33.67.1.79.32.5-.25,1.15-.44,1.34-.7l.73.1c-.53-.07.39-.29.63-.4l-.23.12c.13.08.73-.15,1-.26-.11-.13-.77,0-1.13,0,.25-.17.68-.26,1-.49-.06.26.93-.06,1.38-.1s.52-.33.67-.36.83-.12.47.12c-.17.06-.42-.05-.68.12.35,0,.34.23,1,0,.5-.2-.21-.46.8-.46-.25.1-.28.21-.47.32h.94V26c.13,0,0,.07.11.09.25-.26,1.42-.2,1.61-.48a11.5,11.5,0,0,1,1.46.12l-.08,0a4.07,4.07,0,0,0,1.75-.1l0,0a6.92,6.92,0,0,0,1.4-.08c.75.23.19.86,1,.65.75.11,1.24-.22,1-.41a16.65,16.65,0,0,0,2.17.34,7,7,0,0,1,2,.66c.22,0,.11-.12.53-.07l3,1a8.73,8.73,0,0,1,2.48,1.39c-.58-.17-.14.18-.18.3.53,0,.42.44.73.23,0-.19.16-.29-.33-.61a13.43,13.43,0,0,1,1.85,1,5.19,5.19,0,0,1,1.34,1c-.22-.28,0-.17.28-.07-.25.22.45.78,1.07,1.09l.19-.1.24.42c.25.1.49-.15.89.45a.38.38,0,0,0,0,.29,5.51,5.51,0,0,1,2,1.45l.24.65c.24.22.75.49.41,0l1,1.3a2.67,2.67,0,0,1,.41.89c2,1.29,3.79,4.12,4.95,6.49h-.16c.17.7.38.22.49.72-.22-.15-.06.62-.44.18.27,1,.76,1.08,1.09,1.67.22,0-.33-.44,0-.42s.37,1.36.68,1.42c0,.28-.29.16-.44.07l.33.54c-.08.82-1.12-1.41-1.26-.52l.22.51c-.12.59-.79-1.26-.45.07.33.52.9.88.84.33.46,1.18.91.33,1.22,1.69-.07.41-.31-1.07-.48-.74,0,.68.43,1.23.5,1.81,0-.65.37-.19.52.21,0,.72-.38-.39-.18.59.22.12.51,1,.47.21.46.28.06,1.06.43,1.55-.22.36-.76-.93-.74.18.24-.21.54,1.3.84.68,0,.44-.21.5-.41.21,0,.62.58,1.46.09,1.7l.28.2c-.08.19-.13.48-.26.79s.12.71.16,1.08,0,.65-.18.62c.05.18,0,1.41.26,1,.22-.77-.17-.9.22-1.32-.31.54,0,1.12.08,1.58l-.16.07c0,.27,0,.88.11,1.06-.07-.21-.18-.11-.24.1l.21.3c0,1.1-.44.21-.51,1.26l-.08-.81c0,.17-.23.5-.24,1,.18.23.37.64.51.83,0,.61-.29.22-.18.84l-.11-.8c0-.13-.44.44-.6,1.21,0,.51.09,1.35.38.59-.08.4-.36.91-.43.56-.16.89.26-.06.19.73-.23.28-.7,1.18-1.09,1.67,0-.29,0-.58-.09-.87l-.17.5c0-.74-.32.26-.48-.2a4.23,4.23,0,0,0-.25,1.12c.83-.83.21,1.34.72,1.22-.46,1.42-1.32.43-1.34,2.1.21-.18.2.63.49-.27-.45.8.13.76-.54,1.65.22-.79-.81.55-.49-.59.1.14.39-.53.43-.7-.32.26-.36-.26-.78.56-.29.63-.43.9-.18.91s.15-.32.32-.09c0,.18-.19.25-.27.34s-.06.07,0,.1a.68.68,0,0,0,.3,0c-.12-.07,0-.14.13-.16a1.22,1.22,0,0,1,.33,0,.14.14,0,0,0,.11,0l-.21,0c0,.09.09.08.17,0l.11-.06s0,0,0,0,0,0,.11.12l.14.66a.7.7,0,0,1-.35-.23l-.19-.21-.06-.08c0-.05-.08-.09-.3,0a.23.23,0,0,0,.12.1l.06,0h0l.07.06a2.54,2.54,0,0,1,.61.67c-.14-.1-.3-.26-.45-.36.18.22-.08.86,1,1.47.5.35.23,0,.36-.1a17.23,17.23,0,0,0,1.86,1.57c-.36.13,1,1,.13.64a5.56,5.56,0,0,0-2-1.8c0,.63-.63-.79-1.11-.72.68.78.36,1,.28,1.31a2,2,0,0,0,.59.46c.26-.08,0-.34.17-.54a6.32,6.32,0,0,0,2.24,1.78c.2.34-.06.44-.41.15,1,.87,2.15,1.85,3.09,2.79-.38-.87,1.16.91,1,.28-.47-.55-.74-1.17-.33-1,.32.32-.13.12,0,.31.57.22.42.85,1.07,1-1-.78-.52.19-.9.26.79.49-.18.13.48.75a22.87,22.87,0,0,1,2.43,1.87,19.72,19.72,0,0,0,3.07,3.06c.3.53-.23.5.18,1s-.12-.67.55.23l-.13,0c.29.19,1.29,1.58,1.89,1.42l-.51.06a1.41,1.41,0,0,0,.48.31c-.08.1,0,.35-.28.18.33.66,1.11.93,1.67,1.43l-.21-.5a27.52,27.52,0,0,1,2.51,2.29l-.18.13.61.43c-.28,0,.1.6.5.76-.57-.34-1.15-.66-1.73-1-.29-.47.6.2.51-.18s-.94-1.09-1.23-1.05a2.19,2.19,0,0,0,.66.47c-.11.32-.58-.14-1-.21.17.14.35.43.45.39a5.24,5.24,0,0,1-1.34-1c.46.25-.08-.32.13-.26-.23.16-.82-.26-1.46-.93-.28-.68-1.45-1-2.16-1.87a5,5,0,0,1,1.62.71c-.4-.56-.56-.51-.94-1.08a2.71,2.71,0,0,1-1.48-.57l.11-.17c-.64-.5-.85-.28-1.53-1-1.16-1.3-2.43-2.58-3.35-3.53l.11-.18c-.82-.21-1.88-1.55-2.77-2.06-1.14-1.25-2.91-2.3-3.3-3.18-1.16-1-2.1-2-3.09-3.06l-.94-1-.51-.56c-.07-.09-.2-.18-.22-.28l.19-.33.77-1.34c.22-.41.37-.66.56-1l0,.59c.06-.58.31-.24.51-.74-.48.45.06-.8,0-1.22a9.34,9.34,0,0,0,1.24-4l.21,0c0-1.25.61-2.55.9-4a1.5,1.5,0,0,0,.36-.85,15.56,15.56,0,0,1-.3-2.46c.06-.86.06-2.25.15-3.14-.67-3.19-1.13-6.49-2.68-9.5l.12-.31c-.85-1.41-1.71-3-2.64-4.48-.49-.72-.91-1.48-1.43-2.1s-1-1.22-1.5-1.72l.47-.06c-.47-.75-1.46-1.37-1.5-1a6.39,6.39,0,0,0-1-1,2.41,2.41,0,0,1-.84-.92,5,5,0,0,0-1.57-1c-.67-.58-1.14-1-1.63-1.31s-1-.58-1.76-1l.35.23c.2,0,.3-.12,0-.36-.57-.27-2-1.18-1.64-.47-1.48-1.06-3.86-1.48-5.42-2.25.11.17-.32.08-.52.13-.38-.1-.75-.22-1.13-.34l-1.13-.25A7.09,7.09,0,0,0,88,28.7c-.24-.09.42-.19-.21-.26-.38,0,0,.17-.49.21-2.51.07-5.12-.27-7.4.22a34.71,34.71,0,0,0-11.25,4.7l0-.11c-.89,1-2.72,1.52-3.16,2.63-.3.12-.89.77-.85.47-.6.87-2.26,1.91-2.94,3.32a1,1,0,0,0,.2-.33,26.93,26.93,0,0,0-2.66,3.63c0-.16.18-.43.12-.53-.5.44-.38,1.49-1,1.57-.16.32.09.33.18.13a24.84,24.84,0,0,0-3.06,10.47c-.55,2.6-.83.09-.64,2.21-.1.16.18.13.08.15.1.81-.56,1.26-.3,1.83.28-.24.17.37.35.38-.11,1.6-.32,2,.1,3.19l-.17-.06c.34.7.56,1.46.83,2.17a9.71,9.71,0,0,0,1,2.1,23.27,23.27,0,0,0,2.06,5.59c.22.35.53.81.82,1.25l.88,1.28c.59.83,1.19,1.64,1.82,2.4a22.4,22.4,0,0,0,2,2.14c.76.63,1.46,1.33,2.24,1.92a30.45,30.45,0,0,0,4.94,3.16,27.73,27.73,0,0,0,11,3.27,33.73,33.73,0,0,0,11.58-1.09,7.53,7.53,0,0,0,3.84-1.29c0,.09-.16.16,0,.16,0-.33,1.3-.64,1.31-1l1.64-.91.94-.53c.16-.09.32-.19.47-.26l.37.39,2.43,2.54,3.21,3.34c-.37-.35-.74-.34-.31.08l.58.31v.14c.32.26.75.47.53.09,1.46,1.41,2.88,2.85,4.24,4.3s2.73,2.84,4.12,4.25q4.17,4.23,8.51,8.36c.31.36.67.74,1.06,1.14.2.2.32.29.49.45s.35.26.53.37a5.39,5.39,0,0,0,2.37.71,5.28,5.28,0,0,0,3.29-.42,5.09,5.09,0,0,0,1.42-1,7,7,0,0,0,1.15-1.37,4.26,4.26,0,0,0,.5-3.28,8.57,8.57,0,0,0-1.87-3.43,2.12,2.12,0,0,1,.75.28A4.4,4.4,0,0,1,137.35,102Z" style="fill:#fff"/><path d="M134.42,97.92c0-.27-.43-.84.11-.58C134.47,97.49,134.57,97.88,134.42,97.92Z" style="fill:#fff"/><path d="M122.15,83.62c-.05,0-.15-.23-.18-.3.18.15.44.21.52.4C122.31,83.56,122.28,83.65,122.15,83.62Z" style="fill:#fff"/><path d="M118.61,80.33c.15-.06,1,.52,1.46.91Z" style="fill:#fff"/><path d="M115.94,76.86c-.16-.37,0-.34.3,0C116.21,77,116.06,76.89,115.94,76.86Z" style="fill:#fff"/><path d="M115.49,76.85a1.55,1.55,0,0,1-.37-.66C115,76.28,115.75,76.78,115.49,76.85Z" style="fill:#fff"/><path d="M116.42,70.34c.09-.23.15-.78.37-1C116.61,69.6,116.56,70.59,116.42,70.34Z" style="fill:#fff"/><path d="M117.56,65.71a1,1,0,0,0,.07-.39c.12-.26.17.05.14.29Z" style="fill:#fff"/><polygon points="61.3 36.12 61.6 35.71 61.65 35.86 61.3 36.12" style="fill:#fff"/><path d="M55,70.76c.25.45,0,.38,0,.47C54.8,70.8,55.19,71.33,55,70.76Z" style="fill:#fff"/><polygon points="68.03 85.41 67.9 85.33 68.11 85.1 68.03 85.41" style="fill:#fff"/><path d="M86.23,43.25A14.29,14.29,0,0,0,74.49,49.4a14.3,14.3,0,0,1,19.9,19.9,14.3,14.3,0,0,0-8.16-26Z" style="fill:#fff;opacity:0.37"/></svg>
