<svg id="Capa_1" data-name="Capa 1" xmlns="http://www.w3.org/2000/svg" xmlns:xlink="http://www.w3.org/1999/xlink" viewBox="0 0 1920 1080"><defs><clipPath id="clip-path"><path d="M25.34,1080c-1-8.54,1.8-16,1.8-24.2,0-8,2.77-15.74,2.4-23.68-.53-11-4.8-21.51-8.4-32a291.94,291.94,0,0,1,.23-187.78c4.49-13,10-26.07,9.89-39.86-.15-33.72-20.16-64.29-20.38-99.43-.08-7.5,18.06-95.62,24-89.17a105.66,105.66,0,0,1-26.53-88.8c2.1-11.91,6.22-23.45,7.12-35.44,1.2-16.11-3.37-32.07-4.87-48.11a126.27,126.27,0,0,1,29.15-92.16c-28.33-40.09-34-95.17-14.32-140,2.55-5.84,5.55-11.69,6.15-18,.9-9.89-4.12-19.19-7.87-28.4-22.1-55-.3-94.72,56.5-111.65,22.85-6.82,47.06-7,70.88-7.19q85.32-.67,170.55-1.28Q482.35,11.7,643.08,10.5c366.79-2.7,733.73,5.32,1100.22-1.65,30.12-.6,60.84-1,89.54,8.17,116.3,37.31,60.32,150.24,67.59,239.33,3.52,43.54,23.6,71.64,3.9,119.07-4.65,11.16-10.79,22.1-12,34.17-1,10.26,1.65,20.53,4,30.64a484,484,0,0,1-.37,220.08c-2.92,12.21-6.29,24.58-5.47,37.09.9,13.86,6.89,26.9,10.57,40.31,12.88,46.31,3.74,104,2.77,151.59-.68,31.84-.6,63.77.9,95.61,1.5,31.47,7.94,63.24,7,94.57" style="fill:none"/></clipPath></defs><rect y="-0.2" width="1920" height="1078.08" style="fill:#362111"/><g id="Layer_1" data-name="Layer 1"><g style="clip-path:url(#clip-path)"><g id="Layer_1-2" data-name="Layer 1"><path d="M38.68-.37a1.89,1.89,0,0,1-3.08.6L35-.37H-1v1079H1917.29V-.37Z" style="fill:#ba785a"/><path d="M1479.46,987.08c-6.14-10.86-13.26-21.5-17.15-33.49a64.62,64.62,0,0,1-.6-36.79c6.81-25.63,24-47,30.94-72.46,7.95-28.85-3.22-61.29-15.66-87.3-13.71-28.54-32.07-54.92-53.27-78.45-18.51-20.53-38.74-39.11-55.08-61.52a353.71,353.71,0,0,1-22.78-35.67c-7-12.36-12.81-25.62-21.65-36.79-13.27-16.71-30.8-26.07-51.41-30.79-25.32-5.85-51.93-6.45-76.5-15.22-28.1-10-52.75-26.75-78.83-40.83-14.39-7.8-29.15-15.51-45.33-18.59-15.74-3-31.78-2.47-47.59-.45-30.94,4-62.34,13.19-93.81,10.72-31.1-2.47-61.29-17.76-92.77-15.29-33.49,2.63-65,15.21-97.71,22-24,5-50.35,8-71.48,21.51-24.43,15.58-36.49,41.74-53,64.37-7.87,10.64-16.79,20.38-27.73,27.79-11.31,7.65-22.93,14.84-34.39,22.26-18.88,12.21-38.07,24.5-54.7,39.86a174.83,174.83,0,0,0-39,52.08c-13.78,28-21.2,58.9-32.07,88.12-12,32.3-24.95,64.37-33.27,97.86-4,16.26-6.07,32.9-10.26,49.16s-9.82,33.12-10,50.2c-.15,15.36,4.19,29.3,8.84,43.76,2.77,8.62,4.64,17.09,4.72,25.7,5.32,12.29,6.74,26.08,6.52,39.79H1476.17c1.35-2.47,2.62-4.94,3.89-7.49,6.45-13.49,10.72-28.1,11-43.09S1486.66,1000,1479.46,987.08Z" style="fill:#b07256"/><rect x="-1.04" y="1021.03" width="1906.94" height="58.45" style="fill:#915f48"/><path d="M610,1025.75a71.35,71.35,0,0,0,17.24,27c7.19,7,15.51,12.36,23.75,18.13,3.82,2.63,7.72,5.25,11.69,7.72h611c.53-1,1.13-2,1.65-2.92,4.57-8.47,7.64-17.31,11.17-26.23,4-9.81,8.69-19.33,13.41-28.85,9.36-18.88,20.75-39.56,20.45-61-.22-19.56-8.31-38.22-18.5-54.93-10.64-17.45-23.68-33.41-37-49.08-6.14-7.26-11.84-15.13-18.51-21.95a101.68,101.68,0,0,0-22-16.94c-15.66-9-32.89-14.53-49.68-21.2-17.31-6.89-33.27-15.44-47.8-26.83-5.62-4.42-10.72-9.21-16-14-3.9-3.67-8-7.19-13-9.52-6.74-3.14-14.38-4.42-21.8-5.09-12-1.05-24-2-36-2.7s-24-1.12-35.89-2.85c-10.79-1.57-21.65-2.77-32.59-3.52C888,725.2,803,742.81,730.6,783.57a397.94,397.94,0,0,0-51.86,34.62c-16,12.66-30.34,27-46.15,39.79-14.09,11.46-28.78,23.68-34.77,40.91a61.25,61.25,0,0,0-2.85,30.5c1.65,10,4.95,19.48,8.24,29,0,0,17.16,24.65,7.65,28.24-29.75,11.24,1.27,13.57-.53,20.24S607.63,1019.23,610,1025.75Z" style="fill:#915f48"/><polygon points="1322.93 405.54 1311.92 405.54 1311.92 393.48 1311.92 386.43 637.23 390.18 594.67 394.3 594.67 401.34 594.67 405.54 582.01 405.54 566.87 1048.08 581.63 1048.08 610.33 1048.08 614 448.4 649 450.95 1290.94 445.1 1294.61 1048.08 1323.31 1048.08 1338.07 1048.08 1322.93 405.54" style="fill:#915f48"/><polygon points="367.78 51.11 438.44 44.67 1557.32 38.97 1557.32 105.89 1528.47 118.55 457.92 127.62 367.78 121.62 367.78 51.11" style="fill:#5a4836"/><polygon points="367.78 40.25 438.44 33.8 1557.32 28.11 1557.32 95.02 1528.47 107.69 457.92 116.75 367.78 110.76 367.78 40.25" style="fill:#816544"/><path d="M1488.46,71.87c0,1.65,12.43,3,27.8,3s27.8-1.35,27.8-3-12.44-3-27.8-3S1488.46,70.22,1488.46,71.87Z" style="fill:#5a4836"/><path d="M1452.64,56.51c0,.82,5.32,1.57,13.86,2.32s20.31,1.72,33.65,2.17,25.77.15,34.61-1c1.13-.15,2.1-.22,3.15-.37s1.87-.37,2.77-.52c1.73-.38,3.15-.68,4.27-1.05,2.33-.6,3.38-1.2,3.23-1.58s-1.73-.6-4.2-.67a40.41,40.41,0,0,0-4.42,0c-.82,0-1.72.07-2.62.07s-2,0-3.08-.07c-8.39.07-20-.3-33-.68s-25.1-.75-33.94-.45S1452.64,55.68,1452.64,56.51Z" style="fill:#5a4836"/><path d="M1520.23,36.8c0,1.65,6.22,3,13.93,3s13.94-1.35,13.94-3-6.22-3-13.94-3S1520.23,35.15,1520.23,36.8Z" style="fill:#5a4836"/><path d="M474.48,98.09c0,1.65,19.56,3,43.76,3s43.76-1.35,43.76-3-19.56-3-43.76-3S474.48,96.45,474.48,98.09Z" style="fill:#5a4836"/><path d="M470.51,80.64c0,1.64,15.13,3,33.79,3s33.8-1.35,33.8-3-15.14-3-33.8-3S470.51,79,470.51,80.64Z" style="fill:#5a4836"/><path d="M418.81,65.27c0,1.58,23.22,3.23,52.22,2.48a305.57,305.57,0,0,0,36.87-3.07c9.22-1.5,14.61-3,14.24-3.75s-6.3-.75-15.59-.38-22,.75-36.12,1.28C442.18,62.5,418.81,63.55,418.81,65.27Z" style="fill:#5a4836"/><path d="M697.18,98.09c0,1.65,53.42,3,119.29,3s119.29-1.35,119.29-3-53.43-3-119.29-3S697.18,96.45,697.18,98.09Z" style="fill:#5a4836"/><path d="M872.14,89.4c0,1.65,16,3,35.82,3s35.82-1.35,35.82-3-16-3-35.82-3S872.14,87.75,872.14,89.4Z" style="fill:#5a4836"/><path d="M836.33,45.57c0,.82,23.15,1.57,60.54,2.1s89.09.89,146.19.89,108.8-.29,146.19-.89,60.55-1.28,60.55-2.1-23.16-1.58-60.55-2.1-89.09-.9-146.19-.9-108.8.3-146.19.9S836.33,44.74,836.33,45.57Z" style="fill:#5a4836"/><polygon points="1528.62 1048.9 1600.63 1048.9 1575.53 57.48 1522.03 57.48 1528.62 1048.9" style="fill:#816544"/><polygon points="1575.53 57.48 1600.63 1048.9 1576.2 1048.9 1554.62 57.48 1575.53 57.48" style="fill:#5a4836"/><path d="M1564.44,1044.63c-1,.3-2.78-33.72-3.08-76s.68-76.28,1.73-76.28,1.8,34.09,2,76.06S1565.56,1044.33,1564.44,1044.63Z" style="fill:#5a4836"/><ellipse cx="1542.63" cy="1008.74" rx="1.87" ry="31.7" style="fill:#5a4836"/><path d="M1546.68,275c1,0,1.8,24.65,2,54.85s.45,54.62-.67,55.07-2.78-24.05-3.08-54.77C1544.8,299.66,1545.7,275,1546.68,275Z" style="fill:#5a4836"/><path d="M1538.51,308.88c1.12.07,2,60.39,3.9,135s1.12,135.85.22,135.7c-1.12-.07-2-60.39-3.89-134.95S1537.61,308.73,1538.51,308.88Z" style="fill:#5a4836"/><polygon points="393.78 1048.9 321.69 1048.9 346.87 57.48 400.37 57.48 393.78 1048.9" style="fill:#816544"/><polygon points="346.87 57.48 321.69 1048.9 346.12 1048.9 367.78 57.48 346.87 57.48" style="fill:#5a4836"/><path d="M358,1044.63c1,.3,2.77-33.72,3.07-76s-.67-76.28-1.72-76.28-1.8,34.09-2,76.06S356.84,1044.33,358,1044.63Z" style="fill:#5a4836"/><path d="M379.77,1040.44c1.05,0,1.87-14.17,1.87-31.7s-.82-31.7-1.87-31.7-1.88,14.17-1.88,31.7S378.79,1040.44,379.77,1040.44Z" style="fill:#5a4836"/><path d="M375.72,275c-1.05,0-1.8,24.65-2,54.85s-.45,54.62.67,55.07,2.77-24.05,3.07-54.77C377.59,299.66,376.69,275,375.72,275Z" style="fill:#5a4836"/><path d="M383.89,308.88c-1.13.07-2,60.39-3.9,135s-1.12,135.85-.22,135.7c1.12-.07,2-60.39,3.89-134.95S384.79,308.73,383.89,308.88Z" style="fill:#5a4836"/><rect x="264.07" y="939.8" width="597.43" height="35.89" style="fill:#5f4424"/><rect x="264.07" y="933.43" width="597.43" height="35.89" style="fill:#825d31"/><polygon points="304.01 1034.44 272.24 1034.44 326.12 904.21 357.89 904.21 304.01 1034.44" style="fill:#5f4424"/><polygon points="287 1034.44 255.23 1034.44 309.11 904.21 340.88 904.21 287 1034.44" style="fill:#825d31"/><polygon points="304.01 1034.44 272.24 1034.44 326.12 904.21 357.89 904.21 304.01 1034.44" style="fill:#5f4424"/><polygon points="287 1034.44 255.23 1034.44 309.11 904.21 340.88 904.21 287 1034.44" style="fill:#825d31"/><polygon points="798.11 1034.44 829.88 1034.44 776 904.21 744.23 904.21 798.11 1034.44" style="fill:#5f4424"/><polygon points="815.12 1034.44 846.89 1034.44 793.01 904.21 761.24 904.21 815.12 1034.44" style="fill:#825d31"/><polygon points="798.11 1034.44 829.88 1034.44 776 904.21 744.23 904.21 798.11 1034.44" style="fill:#5f4424"/><polygon points="815.12 1034.44 846.89 1034.44 793.01 904.21 761.24 904.21 815.12 1034.44" style="fill:#825d31"/><polygon points="211.92 895.44 892.3 895.44 803.21 806.95 301.01 806.95 211.92 895.44" style="fill:#825d31"/><rect x="211.92" y="895.44" width="680.38" height="22.85" style="fill:#5f4424"/><path d="M856.18,873.64a11,11,0,0,0-1.5-.08c-1,0-2.47-.07-4.42-.07-3.89-.08-9.66-.08-17.08-.23-14.84-.07-36.34-.15-62.87-.3-53.13-.15-126.48-.3-207.49-.3s-154.35.15-207.48.3c-26.53.15-48,.23-62.87.3-7.42.08-13.19.15-17.08.23-1.95.07-3.45.07-4.42.07a11,11,0,0,0-1.5.08,12.53,12.53,0,0,0,1.5.07c1,0,2.47.08,4.42.08,3.89.07,9.66.07,17.08.22,14.84.08,36.34.23,62.87.3,53.13.15,126.48.3,207.48.3s154.36-.15,207.49-.3c26.53-.15,48-.22,62.87-.3,7.42-.07,13.19-.15,17.08-.22,2-.08,3.45-.08,4.42-.08A5,5,0,0,0,856.18,873.64Z" style="fill:#5f4424"/><path d="M813.62,837.52a9.83,9.83,0,0,0-1.35-.07c-.9,0-2.25-.08-4-.08-3.53-.07-8.77-.07-15.51-.22-13.42-.15-32.9-.23-57-.3-48.11-.15-114.57-.3-187.93-.3s-139.82.15-187.93.3c-24.05.07-43.54.22-57,.3q-10.11.11-15.51.22c-1.8.08-3.15.08-4.05.08a9.75,9.75,0,0,0-1.34.07,8.55,8.55,0,0,0,1.34.08c.9,0,2.25.07,4.05.07,3.52.08,8.77.08,15.51.23,13.41.15,32.9.22,57,.3,48.11.15,114.57.3,187.93.3s139.82-.15,187.93-.3c24.05-.08,43.53-.23,57-.3q10.11-.12,15.51-.23c1.79-.07,3.14-.07,4-.07A8.62,8.62,0,0,0,813.62,837.52Z" style="fill:#5f4424"/><path d="M747.76,850.26c-.08-.15-.38-.15-1-.15s-1.42.22-2.47.3l-1.72.22a15,15,0,0,1-2,.15,18.82,18.82,0,0,1-2.18.15,21,21,0,0,1-2.32.15c-6.44.3-11.76.68-11.69,1.28,0,.3,1.35.52,3.45.75a59.72,59.72,0,0,0,8.39.07,35.66,35.66,0,0,0,8.32-1.35,11.28,11.28,0,0,0,2.4-1C747.53,850.63,747.76,850.41,747.76,850.26Z" style="fill:#5f4424"/><ellipse cx="733.89" cy="843.89" rx="3.22" ry="1.05" style="fill:#5f4424"/><path d="M766.86,850.26c-.07,0-.15.15-.22.45s-.15.75-.3,1.27a8.49,8.49,0,0,1-2.25,3.9c-.3.37-.75.6-1.12,1a9.07,9.07,0,0,1-1.43.83A20.68,20.68,0,0,1,758.1,859a37.68,37.68,0,0,1-8.62,1c-3.15.08-6.14-.07-8.84-.22s-5.17-.45-7.27-.6c-4.12-.38-6.74-.6-6.74-.3s2.47,1,6.59,1.72c2,.37,4.5.75,7.27,1a70,70,0,0,0,9.06.45,34.36,34.36,0,0,0,9.07-1.28,15.26,15.26,0,0,0,3.82-1.57,11.4,11.4,0,0,0,1.58-1c.45-.45.9-.75,1.27-1.2a8.11,8.11,0,0,0,2-4.79,4.23,4.23,0,0,0-.07-1.43C767,850.41,766.94,850.26,766.86,850.26Z" style="fill:#5f4424"/><path d="M341.63,854.53c-.15-.07-.53.3-1.2,1s-1.58,1.73-2.78,2.85a9.63,9.63,0,0,1-4.79,2.47c-.23,0-.53.08-.75.08h-.82a13.29,13.29,0,0,1-1.65-.23l-1.73-.44a17.53,17.53,0,0,1-1.72-.68l-1.42-.67h0l.37-.15c.3-.08.53-.15.75-.23a55.81,55.81,0,0,1,5.77-1c3.37-.37,5.55-.52,5.55-.82s-2.1-.6-5.62-.6a32.47,32.47,0,0,0-6.15.6l-.9.22-.45.15c-.22.08-.52.15-.75.23-1,.45-2.17.9-3.29,1.35,1,.6,2,1.2,3.14,1.8.68.37.83.44,1.13.59l.9.45a18.24,18.24,0,0,0,1.87.75,17.07,17.07,0,0,0,2,.53,9.11,9.11,0,0,0,1.95.15h1c.3-.08.6-.08,1-.15a9.37,9.37,0,0,0,3.3-1.35,11.53,11.53,0,0,0,2.25-2,19.79,19.79,0,0,0,2.4-3.45C341.55,855.13,341.78,854.61,341.63,854.53Z" style="fill:#5f4424"/><path d="M348,854.53c0,.15.67.45,1.87.9s3.15.9,5.24,1.72a14.33,14.33,0,0,1,3.15,1.73,7.92,7.92,0,0,1,2.4,3.14,16.17,16.17,0,0,1,1,4.42c0,.38.07.83.07,1.2v1h0c-.45.07-.82.22-1.27.3a77.16,77.16,0,0,1-9.82,1.8,43,43,0,0,1-8.09.15c-4.57-.45-7.27-1.8-7.42-1.43-.07.15.53.6,1.73,1.2a21.3,21.3,0,0,0,5.47,1.72,33.82,33.82,0,0,0,8.46.3A57.78,57.78,0,0,0,361,870.94c.45-.07.9-.22,1.35-.3s.82-.22,1.27-.3l.15-.07c.08,0,.15,0,.08-.08v-1c0-.53-.08-1.13-.08-1.65a7.75,7.75,0,0,0-.15-1.35,16.62,16.62,0,0,0-1.27-5c-.23-.38-.38-.75-.6-1.12A8.85,8.85,0,0,0,361,859a9.71,9.71,0,0,1-.83-.9,8.25,8.25,0,0,0-.89-.75,13.57,13.57,0,0,0-3.68-1.73,46.7,46.7,0,0,0-5.54-1.12C348.82,854.38,348.07,854.38,348,854.53Z" style="fill:#5f4424"/><path d="M467.06,848.16c-.15,0-.3.3-.37.83a6.34,6.34,0,0,0,.3,2.24,1.83,1.83,0,0,1,.07.53c0,.07-.07.07-.07.15a1,1,0,0,0-.38.22c-.22.08-.45.15-.75.23-1.05.3-2.39.52-3.74.82l-1,.23h-.07l-.08-.08c-.07-.07-.15-.22-.22-.3a6.5,6.5,0,0,1-.38-.75,11,11,0,0,1-.67-2.84v-1.05a.36.36,0,0,1,.07-.23c0-.07,0-.07.08-.07s.3,0,.45.07h.3c.07,0,.07-.15,0-.3a1.1,1.1,0,0,0-.6-.52.87.87,0,0,0-.75.07,2,2,0,0,0-.53.6,4.78,4.78,0,0,0-.45,1.43,8.68,8.68,0,0,0,.3,3.52,5.56,5.56,0,0,0,.38,1,4,4,0,0,0,.3.53l.07.15.15.22.3.37c.23.23.38.6.75.45s.6-.07.9-.15l1.05-.22a29.6,29.6,0,0,0,3.9-1c.3-.15.6-.22.9-.37a3.79,3.79,0,0,0,1-.75,1.72,1.72,0,0,0,.3-1.35,3.56,3.56,0,0,0-.3-.9c-.45-.83-.67-1.42-.9-1.87C467.36,848.39,467.21,848.16,467.06,848.16Z" style="fill:#5f4424"/><path d="M482,852.36c-.07,0-.15.15-.22.45s-.15.67-.3,1.2a9.26,9.26,0,0,1-2,3.67,11.45,11.45,0,0,1-2.25,1.8,15.31,15.31,0,0,1-3.15,1.27,26.16,26.16,0,0,1-7.87.82,52.12,52.12,0,0,1-14.38-2.84c-3.6-1.28-5.7-2.33-5.92-2s1.79,1.73,5.32,3.38A39.43,39.43,0,0,0,466,863.6a24.63,24.63,0,0,0,8.54-1.05A14.72,14.72,0,0,0,478,860.9a9.08,9.08,0,0,0,2.47-2.32,8.57,8.57,0,0,0,1.73-4.5,3.28,3.28,0,0,0-.08-1.27C482.12,852.51,482.05,852.36,482,852.36Z" style="fill:#5f4424"/><path d="M866.82,886.38c0-.3-5.24-.53-13.71-.75s-20.16-.3-33-.3-24.58.15-33.05.3-13.71.45-13.71.75,5.24.52,13.71.75,20.16.3,33.05.3,24.57-.15,33-.3S866.82,886.68,866.82,886.38Z" style="fill:#5f4424"/><ellipse cx="830.63" cy="863" rx="12.74" ry="1.05" style="fill:#5f4424"/><path d="M828.53,850.26c0-.3-3.67-.53-9.66-.75s-14.24-.3-23.31-.3-17.31.15-23.3.3-9.67.45-9.67.75,3.67.52,9.67.75,14.24.3,23.3.3,17.31-.15,23.31-.3S828.53,850.56,828.53,850.26Z" style="fill:#5f4424"/><path d="M386.29,831.15c0-.15-1.58-.3-4.43-.37s-7-.23-12.06-.3c-10.19-.15-24.28-.3-39.86-.3s-29.68.15-39.87.3c-5.09.07-9.21.22-12.06.3s-4.42.22-4.42.37,1.57.3,4.42.38,7,.22,12.06.3c10.19.15,24.28.3,39.87.3s29.67-.15,39.86-.3c5.1-.08,9.22-.23,12.06-.3A29.23,29.23,0,0,0,386.29,831.15Z" style="fill:#5f4424"/><ellipse cx="306.56" cy="818.34" rx="20.23" ry="1.05" style="fill:#5f4424"/><ellipse cx="283.18" cy="863" rx="18.06" ry="1.05" style="fill:#5f4424"/><path d="M365,892.75c0-.15-1.87-.3-5.17-.38s-8.16-.22-14.16-.3c-11.91-.15-28.4-.3-46.61-.3s-34.69.15-46.6.3c-6,.08-10.79.23-14.16.3s-5.18.23-5.18.38,1.88.3,5.18.37,8.16.23,14.16.3c11.91.15,28.4.3,46.6.3s34.7-.15,46.61-.3c6-.07,10.79-.22,14.16-.3S365,892.9,365,892.75Z" style="fill:#5f4424"/><path d="M294.87,884.28c0-.3-3.6-.53-9.37-.75s-13.71-.3-22.55-.3-16.79.15-22.56.3-9.36.45-9.36.75,3.59.52,9.36.75,13.72.3,22.56.3,16.78-.15,22.55-.3S294.87,884.58,294.87,884.28Z" style="fill:#5f4424"/><path d="M720,763.56a4.86,4.86,0,0,0,4.72,5h8.69a24.93,24.93,0,0,0,39,0H781a5,5,0,0,0,0-10H777.2a23.07,23.07,0,0,0,.68-5.62l-11.24-13a32.92,32.92,0,0,0-5.25-18,19.41,19.41,0,1,0-17.23,0,33.61,33.61,0,0,0-5.25,18l-11.24,13a23.07,23.07,0,0,0,.68,5.62h-3.82A4.84,4.84,0,0,0,720,763.56Zm38.89-45c-2-2-4.13-3.22-5.92-3.22s-4,1.2-5.92,3.22a15.21,15.21,0,1,1,21.13-14A15.47,15.47,0,0,1,758.85,718.53Z" style="fill:#516173"/><path d="M775.48,768.06a30.05,30.05,0,1,1-52.68,19.78,30.29,30.29,0,0,1,7.42-19.78Z" style="fill:#d3d3d3"/><circle cx="752.88" cy="794.29" r="20.08" transform="translate(-341.13 765.01) rotate(-45)" style="fill:#f5b940"/><path d="M731.65,845.16a19.36,19.36,0,0,1-7.87-15.51,19.72,19.72,0,0,1,2.4-9.36h-1.5a5,5,0,0,1,0-10H781a5,5,0,0,1,0,10h-1.5a19.51,19.51,0,0,1,2.39,9.36,19.16,19.16,0,0,1-7.86,15.51c11.91,1.88,19.85,5.32,19.85,9.22h-82.2C711.71,850.48,719.73,847,731.65,845.16Z" style="fill:#516173"/><path d="M761.09,717.33c-.45.38-.9.75-1.34,1.2l-.45-.23A19.65,19.65,0,0,0,761.09,717.33Z" style="fill:#465361"/><path d="M759.3,690.8a15.57,15.57,0,0,1,5.62-1.42,19.31,19.31,0,0,1,3.52,26.68,5.65,5.65,0,0,0-2.7-.75,6.2,6.2,0,0,0-3.37,1.12,15.18,15.18,0,0,0,5.77-11.91A15.34,15.34,0,0,0,759.3,690.8Z" style="fill:#465361"/><path d="M757.5,717.33a6.72,6.72,0,0,1-1.2-.9C756.67,716.73,757.05,717,757.5,717.33Z" style="fill:#465361"/><path d="M724.68,758.54h3.82a23.07,23.07,0,0,1-.68-5.62l11.24-13a32.92,32.92,0,0,1,5.25-18,19.36,19.36,0,0,1,8.62-36.72,18.49,18.49,0,0,1,6.44,1.13,21.69,21.69,0,0,0-5.62,3.07c-.22,0-.52-.07-.75-.07a15.21,15.21,0,0,0-5.92,29.22,13.09,13.09,0,0,1,3.22-2.47,18.7,18.7,0,0,0,7,5.77,33.55,33.55,0,0,0-5.24,18l-11.24,13a23.07,23.07,0,0,0,.67,5.62h-3.82a4.87,4.87,0,0,0-4.72,5,5.32,5.32,0,0,0,1.87,4c-.52.3-1,.68-1.5,1h-8.54a4.87,4.87,0,0,1-4.72-5A4.74,4.74,0,0,1,724.68,758.54Z" style="fill:#465361"/><path d="M731.65,845.16a19.36,19.36,0,0,1-7.87-15.51,19.72,19.72,0,0,1,2.4-9.36h-1.5a5,5,0,0,1,0-10h15.51a5,5,0,0,0,0,10h1.5a19.51,19.51,0,0,0-2.4,9.36,19.14,19.14,0,0,0,7.87,15.51c-11.92,1.88-19.86,5.32-19.86,9.22H711.79C711.71,850.48,719.73,847,731.65,845.16Z" style="fill:#465361"/><path d="M1646.64,244.14c.15.07.37-.08.6-.3l1-1a5,5,0,0,1,3.6-1.2,7.31,7.31,0,0,1,3.67,1.65c.82.68,1.35,1.28,1.65,1.13s.15-1-.6-2.1a6.27,6.27,0,0,0-1.73-1.73,5.6,5.6,0,0,0-2.84-1,5.78,5.78,0,0,0-3.08.6,4.38,4.38,0,0,0-1.79,1.72,4.17,4.17,0,0,0-.6,1.5C1646.49,243.84,1646.49,244.06,1646.64,244.14Z" style="fill:#482f14"/><path d="M1651.51,236.27a.48.48,0,0,0,.52-.08c.15-.07.23-.15.38-.22a3.78,3.78,0,0,1,.52-.23,2.63,2.63,0,0,1,2.47,0,6,6,0,0,1,2.1,2c.53.67.83,1.2,1.13,1.12s.45-.67.22-1.72a5.16,5.16,0,0,0-.75-1.65,4.32,4.32,0,0,0-1.72-1.57,3.85,3.85,0,0,0-2.55-.38,4.75,4.75,0,0,0-1,.45,2.9,2.9,0,0,0-.67.6,3.9,3.9,0,0,1-.45.6c-.08.15-.15.37-.23.52S1651.36,236.19,1651.51,236.27Z" style="fill:#482f14"/><path d="M38.68-.37a1.89,1.89,0,0,1-3.08.6L35-.37H-1v1079H299.21c-18.13-22.85-54.17-37.54-76.58-48.7,9-24.73,18-49.46,18-76.43s-24.73-47.21-27-67.44c-2.25-11.24,15.74-24.73,18-36,2.24-13.49-6.75-22.48-4.5-31.47,4.5-29.23,29.22-51.7,33.72-80.93,4.5-33.72-11.24-47.21-29.22-76.43-20.24-31.47-11.24-36,0-69.68,9-20.24,15.73-47.21,13.48-69.69-2.24-27-27-45-31.47-67.44-2.25-20.23,15.74-38.22,18-60.69,0-9-9-27-9-29.23,2.25-15.73,42.49-32.67,47-48.48,5.92-14.09-2.1-53.2,25.4-71.56,12.51-8.32,45.93-22.85,60.92-37.84,18-18,40.61-110.22,67.59-114.72,24.72-2.25,53.12-39.86,82.35-37.62,22.48,2.25,42.71,2.25,62.94,2.25,29.22,0,56.2,0,83.17-6.74,60.7-11.24,49.46,9,110.15-9,13.49-6.75,74.11-6,56.2-9-19.93-3.38,60.7,4.49,67.44,11.23C906,58.83,960,25.11,984.69,31.86c60.69,20.23,123.64,20.23,186.58,20.23,39.19,0,74.11-10.49,108.88-27.5-28.1,19.85,148.59,115.47,229.14,74.18,0,0,110.45,211,193.17,173.77-21.43,13.33-31.92,32.29-29.9,58.29,0,13.49,11.24,24.73,11.24,36-2.24,15.74-11.24,18-20.23,33.72-20.23,40.46-20.23,96.66-15.73,139.37,4.49,27,11.24,54,24.72,76.43,6.75,11.24,24.73,29.23,27,40.47,4.5,20.23-2.25,15.73-9,36-13.49,24.73-22.48,42.71-15.74,71.94,4.5,18,22.48,47.2,20.23,65.19-2.24,11.24-15.73,18-18,33.72,0,15.73,11.24,20.23,11.24,33.72,2.25,22.48,2.25,9-4.5,29.22-2.24,11.24-13.48,24.73-18,36-11.24,36-20.23,40.46-40.46,69.68-11.39,13-13.34,31.92-17.84,46.46h309.55V-.37Z" style="fill:#754123"/><path d="M103,681.51C130.32,673,154.9,657.53,178,641c15.66-11.24,29.22-22.41,46-28.55,2.1-5.7,4.8-12.37,7.65-20.91,9-20.23,15.73-47.21,13.48-69.69-2.24-27-27-45-31.47-67.43-2.25-20.24,15.74-38.22,18-60.7,0-9-9-27-9-29.22a13,13,0,0,1,.75-2.78c-25.32,6.52-50.28,15.44-75.15,24.58C101,403.74,50.67,425-.51,430.34V687c1.57.3,3.07.53,4.64.83C37.25,693.05,71,691.55,103,681.51Z" style="fill:#693a20"/><path d="M-.51,690.21v388.44H299.21c-4.49-14.54-50.12-37.61-61.44-50.65-20.23-29.23,17.16-23.53,5.92-59.5-4.5-11.24-8.69-30.8-10.94-42-6.74-20.23-17.53-18.58-15.29-41.06,0-13.49,17.84-14.61,17.84-30.35-2.25-15.73-11.54-13.93-13.79-25.17-2.25-18,15.74-47.21,20.23-65.19,6.75-29.23,22.56-57.92,9.07-82.65-6.74-20.23-34-22.93-29.52-43.16,2.24-11.24,5.17-2.25,11.91-13.49.9-1.5,12.44-19.33,13.26-20.83-14.38.9-28.32,12.21-41.21,20.68-23.9,15.74-45.11,34.17-70.81,47.36C91.05,694.78,45.5,697-.51,690.21Z" style="fill:#5b341d"/><path d="M1768.4,386.28c-28.32-10.41-56.8-20.6-85.87-27.2a23,23,0,0,1,1.42,7.64c-2.25,15.74-11.24,18-20.23,33.72-20.23,40.47-20.23,96.67-15.73,139.38,3.89,23.6,9.59,47.13,19.93,67.74,1.5.07,3.07.15,4.57.3,27.27,2.54,44.73,17.6,66.16,33,23.08,16.56,47.66,32,74.94,40.54,32.07,10,65.79,11.54,98.9,6.22,1.58-.23,3.15-.53,4.65-.83V430.34C1866,425,1815.68,403.74,1768.4,386.28Z" style="fill:#693a20"/><path d="M1782.19,672.52c-25.7-13.19-46.83-31.62-70.81-47.36a83.05,83.05,0,0,0-41.29-13.41c.83,1.5,1.72,3,2.55,4.5,6.74,11.24,24.73,29.22,27,40.46,4.5,20.23-2.24,15.74-9,36-13.49,24.73-22.48,42.71-15.73,71.93,4.49,18,22.48,47.21,20.23,65.19-2.25,11.24-15.74,18-18,33.72,0,15.74,11.24,20.23,11.24,33.72,2.25,22.48,2.25,9-4.49,29.22-2.25,11.24-13.49,24.73-18,36-11.24,36-20.23,40.47-40.46,69.69-11.39,13-13.34,31.92-17.83,46.46h309.54V690.21C1871.21,697,1825.65,694.78,1782.19,672.52Z" style="fill:#5b341d"/><path d="M1709.43,664.35c-.52-.82-1.57-1.35-3.3-1.35a7.65,7.65,0,0,0-1.35.08c-.45.07-1,.15-1.57.22s-1.12.23-1.72.45-1.28.45-2,.68a38.05,38.05,0,0,0-9.07,5.09,56.42,56.42,0,0,0-10,9.82,65.26,65.26,0,0,0-8.77,14.54c-.67,1.35-1.19,2.84-1.79,4.27s-1.13,3-1.58,4.49a93.34,93.34,0,0,0-2.47,9.52,120.5,120.5,0,0,0-.3,42.49A145.27,145.27,0,0,0,1678,794.21a122.62,122.62,0,0,0,18.59,28.32c6.52,7.27,13,12.07,18,14.54s8.54,2.62,9.74,1,.23-4.72-1.87-9.14-5.4-10.42-8.92-18a264.85,264.85,0,0,1-10.86-27,223.54,223.54,0,0,1-8.62-34.09,145.94,145.94,0,0,1-1.87-34,89.27,89.27,0,0,1,5.62-26.08,108.9,108.9,0,0,1,8.61-16.71C1709.06,669.07,1710.48,666.08,1709.43,664.35Z" style="fill:#7f4b30"/><path d="M1703.44,830.7a5.12,5.12,0,0,0-2-2.25,8,8,0,0,0-1.58-.75c-.3-.07-.6-.22-1-.29s-.68-.08-1-.15a12,12,0,0,0-2.4,0,21.5,21.5,0,0,0-2.7.52,21.82,21.82,0,0,0-6.06,2.85,33.42,33.42,0,0,0-11.17,12.89,44.77,44.77,0,0,0-3.37,9.21,51.71,51.71,0,0,0-1.28,10.27,49.63,49.63,0,0,0,1,10.19,42.13,42.13,0,0,0,3.07,9.14c2.7,5.62,6.37,10.27,10.34,13.11,1,.68,2,1.35,2.92,1.88a19.27,19.27,0,0,0,2.85,1.27,25,25,0,0,0,2.7.75,14.26,14.26,0,0,0,2.4.22,5,5,0,0,0,1-.07,3.94,3.94,0,0,0,1-.23,8.79,8.79,0,0,0,1.65-.59,4.79,4.79,0,0,0,2.1-2.1,7.78,7.78,0,0,0,.75-2.93V892c0-.3-.08-.53-.08-.83s-.07-.6-.07-.9a12.29,12.29,0,0,0-.3-1.72,17.31,17.31,0,0,0-.3-1.87c-.23-1.13-.38-2.48-.68-3.9-.45-2.62-.82-5.62-1.12-8.92-.15-1.65-.3-3.37-.38-5.17s-.07-3.67-.07-5.54.15-3.75.22-5.47.3-3.45.53-5c.45-3.15.9-6,1.42-8.55.3-1.27.6-2.54.83-3.74l.45-1.8a13.21,13.21,0,0,0,.37-1.72c.08-.3.08-.6.15-.9s.08-.53.15-.83a10.43,10.43,0,0,0,.15-1.57A5.56,5.56,0,0,0,1703.44,830.7Z" style="fill:#7f4b30"/><path d="M1694.44,901.14a4.31,4.31,0,0,0-2.77-1.43,10,10,0,0,0-4.42.68c-3.37,1.2-7.34,4.05-11.16,8.17a63.75,63.75,0,0,0-10.57,16,84.55,84.55,0,0,0-7,22.18,67.62,67.62,0,0,0,.07,24.57,42.72,42.72,0,0,0,3.75,11.24,33,33,0,0,0,6.52,9.15,23.67,23.67,0,0,0,8,5.24,16.58,16.58,0,0,0,6.9,1.12c.45-.07.9-.07,1.35-.15s.82-.22,1.2-.29a6.38,6.38,0,0,0,1.87-.9,4.21,4.21,0,0,0,1.8-2.55c.45-2-.68-4.12-1.8-6.45a31.1,31.1,0,0,1-1.65-3.67,21.62,21.62,0,0,1-1-4.12,40.84,40.84,0,0,1-.45-4.94c-.08-1.88-.08-4.05,0-6.45a144.91,144.91,0,0,1,2-16.86c1-6.29,2.32-12.36,3.59-18s2.4-10.64,3.37-15a92.12,92.12,0,0,0,1.8-10.71,20.62,20.62,0,0,0-.07-3.82A6.43,6.43,0,0,0,1694.44,901.14Z" style="fill:#7f4b30"/><path d="M1614.57,1080.6c4.12-8.32,9.14-17.31,14.68-26.83,5.85-10,11.62-19.55,16.94-28.25s10-16.56,14-23.22,7-12.22,8.77-16.26a23.78,23.78,0,0,0,1.8-5.1,4.59,4.59,0,0,0-.3-3.37,3.39,3.39,0,0,0-3.23-1.28,16.67,16.67,0,0,0-6,1.5c-4.65,2-10.49,5.85-16.79,11.32a177.65,177.65,0,0,0-20.08,21,231.16,231.16,0,0,0-20.23,29.15,176.36,176.36,0,0,0-15.14,32.89c-.89,2.85-1.72,5.7-2.47,8.47Z" style="fill:#7f4b30"/><path d="M1697.44,363.13c-.82-.6-2.32-.15-4.5,1.2a39.21,39.21,0,0,0-3.74,2.77,53.07,53.07,0,0,0-4.65,4.2c-1.72,1.64-3.52,3.44-5.47,5.54s-4,4.42-6.14,6.89c-1.13,1.28-2.17,2.63-3.3,4s-2.25,2.84-3.45,4.34-2.32,3.07-3.52,4.72-2.4,3.3-3.59,5-2.4,3.6-3.6,5.47c-.6.9-1.2,1.88-1.8,2.85s-1.27,1.95-1.8,2.92c-2.32,4.05-4.79,8.25-7,12.74-.6,1.13-1.12,2.25-1.72,3.45-.3.6-.6,1.12-.9,1.72s-.53,1.2-.83,1.8c-1.05,2.4-2.17,4.87-3.22,7.34s-2,5.1-2.92,7.8c-.23.67-.53,1.34-.75,1.94l-.68,2c-.45,1.35-.82,2.77-1.27,4.12-.82,2.77-1.72,5.54-2.4,8.47s-1.42,5.77-2,8.76-1.05,6-1.57,9.07a46.11,46.11,0,0,0-.6,4.65c-.15,1.57-.38,3.14-.53,4.72-.07.75-.15,1.57-.22,2.39s-.15,1.58-.23,2.4c-.07,1.58-.15,3.15-.22,4.8-.15,3.22-.38,6.44-.23,9.66s.08,6.45.15,9.74c.08,1.65.15,3.53.3,5.18s.3,3.44.53,5.17a185.3,185.3,0,0,0,3.52,19.48c1.42,6.29,3.15,12.29,4.94,18.21a291.29,291.29,0,0,0,12.59,33c9.37,20.53,20.53,38,32.52,50.95a97.69,97.69,0,0,0,18.29,15.67,70.87,70.87,0,0,0,8.91,4.79,49.8,49.8,0,0,0,8.17,2.7,28.08,28.08,0,0,0,11.84.37,11.23,11.23,0,0,0,3-1.12,2.08,2.08,0,0,0,1-1.42,2.16,2.16,0,0,0-.83-1.5,17.82,17.82,0,0,0-2.4-1.65c-2.09-1.2-5-2.7-8.39-5a57.53,57.53,0,0,1-5.39-4.12,77.08,77.08,0,0,1-5.85-5.55A113.62,113.62,0,0,1,1695,640.08c-8.39-12.59-16.63-29.23-23.9-48.48-3.67-9.67-7-19.94-10-30.73-1.5-5.39-2.85-10.86-4-16.48s-2.25-11.24-2.92-16.79c-.15-1.42-.3-2.77-.45-4.12s-.22-2.62-.3-4c-.07-2.85-.15-5.7-.22-8.55s0-5.62.07-8.39c0-1.35.08-2.77.08-4.12,0-.67.07-1.35.07-2s.08-1.35.15-2c.08-1.35.23-2.69.3-4s.15-2.7.38-4c.37-2.63.67-5.25,1-7.87s.9-5.1,1.35-7.64,1-5,1.57-7.42c.3-1.2.6-2.48.83-3.67l.45-1.8c.15-.6.37-1.2.52-1.8.67-2.32,1.27-4.72,2-7l2.25-6.74c.15-.53.38-1.13.53-1.65s.37-1.05.6-1.65c.37-1.05.82-2.17,1.19-3.22,1.5-4.27,3.38-8.32,5-12.29.37-1,.82-2,1.27-2.92s.9-1.88,1.28-2.85c.9-1.88,1.65-3.75,2.55-5.47s1.72-3.52,2.54-5.25,1.58-3.37,2.48-4.94,1.57-3.15,2.32-4.72,1.5-3,2.25-4.42c1.5-2.85,2.77-5.55,4-8s2.4-4.72,3.29-6.82,1.8-4,2.48-5.62a34.51,34.51,0,0,0,1.5-4.35C1698.27,365.3,1698.27,363.73,1697.44,363.13Z" style="fill:#7f4b30"/><path d="M1710.93,265.72a4,4,0,0,0-1.5-2.78,11.29,11.29,0,0,0-4.35-2.24,22.37,22.37,0,0,0-7.19-.83,31.49,31.49,0,0,0-9.89,2,36.19,36.19,0,0,0-10.94,6.66,41.75,41.75,0,0,0-9,11.47,57.6,57.6,0,0,0-5.4,14c-.6,2.47-1.05,4.87-1.42,7.42a61.67,61.67,0,0,0-.68,7.49,101,101,0,0,0,2.48,27,98.77,98.77,0,0,0,6.67,20.3,51.13,51.13,0,0,0,7.64,12.52c2.47,2.7,4.79,4,6.67,3.44,3.89-1,5.47-8.84,5.62-20.15.15-5.7-.08-12.29-.23-19.41s-.37-14.76,0-22.25,1.28-14.09,2.85-19.11a30.83,30.83,0,0,1,6.14-11.69,45.61,45.61,0,0,1,4.28-4.2c1.49-1.27,2.92-2.39,4.19-3.44C1709.35,269.69,1711.08,267.74,1710.93,265.72Z" style="fill:#7f4b30"/><path d="M1583.84,168.08c-.82-.22-1.94.23-3.37,1.5a7.88,7.88,0,0,0-1.12,1.12,11.85,11.85,0,0,0-1,1.5c-.38.6-.75,1.13-1.12,1.8s-.68,1.35-1,2.1a40.21,40.21,0,0,0-3.3,11.31c-.15,1.05-.3,2.25-.38,3.38s-.07,2.32-.14,3.52.07,2.39.14,3.59.23,2.4.38,3.68c1.27,10,5,20.38,10.71,30.42a119.61,119.61,0,0,0,9.9,14.68,132.06,132.06,0,0,0,12.43,13.79c2.25,2.17,4.58,4.35,7,6.3a82.91,82.91,0,0,0,7.5,5.69,70.81,70.81,0,0,0,16.63,8.39,77.83,77.83,0,0,0,16.64,3.67c2.62.38,5.17.45,7.64.6s4.79.08,7,0a104.2,104.2,0,0,0,21.28-2.62c5.17-1.35,8.25-2.92,8.92-4.94s-1.42-4.13-5.55-6.3-10.49-4.19-18-6.44c-1.88-.53-3.83-1.2-5.85-1.8s-4-1.27-6.07-2a102.88,102.88,0,0,1-12.29-5.25,72.47,72.47,0,0,1-11.84-7.79c-1.87-1.43-3.89-3.3-5.92-5.1s-4-3.74-6.07-5.69c-4-4-7.94-7.94-11.53-11.92s-7-7.86-10-11.69a114.08,114.08,0,0,1-13.71-21.43c-.38-.82-.75-1.57-1.05-2.39a19.08,19.08,0,0,0-1-2.25c-.22-.75-.52-1.5-.75-2.17s-.45-1.43-.67-2.1a60.3,60.3,0,0,1-1.65-7.27c-.07-.53-.22-1-.3-1.57L1586,173c-.08-.45-.15-.9-.23-1.27s-.15-.75-.22-1.13A3.21,3.21,0,0,0,1583.84,168.08Z" style="fill:#7f4b30"/><path d="M1512.51,100.19c-1.65.68-2.92,3.22-3.52,7.42a57.25,57.25,0,0,0,.37,16.19,109.27,109.27,0,0,0,5.62,21.5,107.45,107.45,0,0,0,11.92,23.31,70.68,70.68,0,0,0,18,18.73c6.74,4.64,14.24,7.27,21.28,7.27a29.75,29.75,0,0,0,9.59-1.58,23.65,23.65,0,0,0,6.9-3.67,15.61,15.61,0,0,0,2.24-2,8.28,8.28,0,0,0,1.43-2,4.45,4.45,0,0,0,.67-3.15c-.45-1.8-2.47-2.47-5.24-3.22-1.35-.37-2.93-.82-4.57-1.35a38.85,38.85,0,0,1-5.18-2.32,49.64,49.64,0,0,1-11.83-9.52,129.32,129.32,0,0,1-13-16.48c-4.34-6.45-8.32-13-11.91-19s-6.75-11.62-9.59-16.26a79,79,0,0,0-7.42-10.8C1516,100.72,1514.16,99.52,1512.51,100.19Z" style="fill:#7f4b30"/><path d="M1272.05,24.21c-.37,0-.82.23-1.27.9a8.9,8.9,0,0,0-1.12,3.07,23.12,23.12,0,0,0,1.12,11.69A48.12,48.12,0,0,0,1278.5,54a93,93,0,0,0,13.19,13.79c10.34,8.92,23.6,17.31,38.74,25,7.56,3.83,15.73,7.42,24.27,10.72,4.27,1.65,8.7,3.22,13.27,4.65,2.24.74,4.57,1.42,7,2.09a69.61,69.61,0,0,0,7.57,1.73c9.22,1.65,18.21,3.29,27.13,4.64s17.46,2.48,25.77,3.22c16.64,1.43,32.08,1.13,45-.89s23.45-5.62,30.35-9.37,10.34-7.12,10-8.92c-.37-2-4.42-2.17-11.24-2s-16.56.6-28.47-.07a330.11,330.11,0,0,1-41.66-5.17c-7.87-1.35-16.11-3-24.73-4.72s-17.61-3.6-26.9-5.25c-1.88-.37-4-.82-6.15-1.42s-4.19-1.12-6.37-1.8c-4.19-1.27-8.39-2.62-12.51-4-8.24-2.77-16.11-5.7-23.53-8.62-14.83-5.92-28-11.91-38.44-17.76a126.07,126.07,0,0,1-13.49-8.61,49.31,49.31,0,0,1-8.69-7.95,31.8,31.8,0,0,1-4.19-6.22c-.45-.82-.83-1.57-1.13-2.09S1272.5,24.21,1272.05,24.21Z" style="fill:#7f4b30"/><path d="M979.59,27.43c-.67.68-.59,2.18.45,4.43l.45.89c.15.3.38.6.53.9a20.42,20.42,0,0,0,1.35,2,5.29,5.29,0,0,0,.82,1,10.53,10.53,0,0,0,1,1.05c.67.75,1.42,1.5,2.17,2.32a74.69,74.69,0,0,0,12.81,9.52,121.81,121.81,0,0,0,18.73,9c14.24,5.55,31.7,10,51.11,13a439,439,0,0,0,63.47,4.87h4.19c1.5,0,3-.07,4.42-.07s2.93-.15,4.35-.15,2.85-.15,4.27-.3c5.69-.37,11.16-1,16.56-1.72s10.57-1.58,15.66-2.55,10-2,14.84-3.15c19.25-4.57,36.19-10.56,49.9-17.31s24-14.31,29.9-21a29.33,29.33,0,0,0,2-2.48c.6-.82,1.13-1.49,1.58-2.24a24.9,24.9,0,0,0,2-4c.82-2.32.82-3.82,0-4.42s-2.25-.37-4.27.45c-1,.45-2.25.9-3.6,1.58-.67.3-1.42.67-2.17,1s-1.58.75-2.47,1.12A204.15,204.15,0,0,1,1239.23,32a409.8,409.8,0,0,1-47.73,10.2c-4.57.74-9.21,1.42-14,2s-9.67,1.2-14.61,1.65-10,.9-15.06,1.2c-1.28.07-2.55.15-3.75.15s-2.47.07-3.75.07h-7.79c-21.58-.15-42.11-1-60.54-2.4a435.22,435.22,0,0,1-48.49-6.14c-6.74-1.28-12.81-2.7-18-4.2s-9.59-2.92-13.19-4.19-6.44-2.4-8.54-3.08C981.84,26.76,980.34,26.76,979.59,27.43Z" style="fill:#7f4b30"/><path d="M834.23,27.43c-.83,1.8.45,4.43,3.59,7.57s8.1,6.75,14.77,10.27a104.93,104.93,0,0,0,11.24,5.09,117.88,117.88,0,0,0,13.48,4.35,135,135,0,0,0,32.45,4.57,128,128,0,0,0,32.89-3.52,120.74,120.74,0,0,0,13.79-4.27,95.63,95.63,0,0,0,11.39-5.32c6.74-3.75,11.69-7.57,14.61-10.94s4-6.07,3.07-7.8c-1.94-3.59-11.09-2.39-24.35-.52-3.3.45-7,.9-10.79,1.42s-7.94.9-12.21,1.2a274.85,274.85,0,0,1-27.88.9c-19.78-.45-38-3-51.62-4.64a117.24,117.24,0,0,0-16.79-1.2C837.82,24.74,835.05,25.64,834.23,27.43Z" style="fill:#7f4b30"/><path d="M670.88,27.43a3.68,3.68,0,0,0-.23,3.38,11.23,11.23,0,0,0,1.13,2.39,12.17,12.17,0,0,0,.82,1.35A15.94,15.94,0,0,0,673.72,36a37,37,0,0,0,2.85,3.07c1.12,1,2.4,2,3.75,3.15a16.86,16.86,0,0,0,2.25,1.57c.74.52,1.57,1,2.39,1.57a29.35,29.35,0,0,0,2.63,1.5c.9.53,1.87,1,2.84,1.5,7.87,3.9,17.91,6.89,29.08,8.62a143.73,143.73,0,0,0,17.38,1.5c1.5,0,3,.07,4.5.07s3.07,0,4.57-.07,3.14-.08,4.72-.15l1.2-.08a8.16,8.16,0,0,0,1.27-.07l1.35-.08,1.2-.15c6.44-.67,12.36-1.65,18.13-2.7s11.17-2.39,16.41-3.74a163.33,163.33,0,0,0,27.13-9.59c7.57-3.53,13.56-7.42,17.23-11.39a13.75,13.75,0,0,0,3.45-5.77,3.32,3.32,0,0,0-1-3.45,4.89,4.89,0,0,0-3.14-.67,47.37,47.37,0,0,0-4.8,0c-4,.22-10,.82-17.53,1.64S795,24.14,785,25.34c-5,.6-10.27,1.27-15.74,1.94s-11.09,1.35-16.56,1.95a14.73,14.73,0,0,1-1.87.15c-.23,0-.6.08-1,.08l-1,.07-4.13.23-4.12.22c-1.35.08-2.69.08-4,.15-5.32.15-10.34.3-15.14.23a200.21,200.21,0,0,1-25.1-1.58c-.9-.15-1.73-.22-2.62-.37s-1.73-.23-2.48-.38-1.57-.22-2.32-.37-1.5-.23-2.25-.38c-1.42-.3-2.77-.45-4-.67a33.52,33.52,0,0,0-3.53-.52,10.43,10.43,0,0,0-1.57-.15,9.41,9.41,0,0,0-1.42-.15,12.82,12.82,0,0,0-2.48,0A5.46,5.46,0,0,0,670.88,27.43Z" style="fill:#7f4b30"/><path d="M453.57,28.93c-.67.68-.75,2-.07,3.9a12.64,12.64,0,0,0,1.72,3.22c.38.6.83,1.2,1.35,1.87s1.05,1.28,1.65,1.95c.3.3.6.68,1,1.05s.68.68,1.05,1L462.57,44c1.72,1.28,3.52,2.78,5.69,4.13a101.15,101.15,0,0,0,14.84,7.71c11.31,4.57,25.17,8.32,40.54,10.94a446.82,446.82,0,0,0,49.68,5.17l12.81.68c2.1.07,4.19.22,6.22.3,1,.07,2.17.15,3.22.15s2.17.07,3.22.07,2.17,0,3.22.08h3.08c2,0,4.12,0,6.14-.08,4-.07,8.09-.22,12-.37,15.66-.83,30-3.15,41.74-6.82l4.27-1.35c1.35-.45,2.7-1,4-1.5s2.55-1,3.75-1.5,2.32-1.12,3.44-1.65c2.18-1,4.2-2.24,6-3.29A29.92,29.92,0,0,0,688.93,55c.75-.6,1.5-1.13,2.18-1.65a36.83,36.83,0,0,0,3.52-3,16.92,16.92,0,0,0,2.25-2.69c1.12-1.65,1.42-2.85,1-3.75s-1.72-1.35-3.6-1.42a16.69,16.69,0,0,0-3.29.15c-1.2.15-2.7.22-4.27.44-6.22.83-14.84,2.18-25.56,2.93-1.34.15-2.69.15-4.12.22l-4.27.23c-1.5.07-3,.07-4.49.15s-3.08,0-4.65.07c-6.37,0-13.19-.07-20.46-.37-3.59-.15-7.34-.3-11.16-.6-1.87-.08-3.82-.23-5.84-.38s-3.9-.22-5.85-.37c-1-.08-1.95-.15-2.92-.15l-3-.23c-1-.07-2.1-.15-3.15-.3L588,44.07c-4.27-.3-8.62-.6-13-.83-17.31-1-33.57-1.72-48.11-2.77s-27.42-2.47-38-4.27c-5.32-.9-10-1.87-14.09-2.85-2.09-.45-3.89-1.05-5.69-1.42-.82-.22-1.65-.52-2.47-.75-.38-.07-.83-.22-1.2-.3s-.75-.22-1.13-.37c-.75-.23-1.42-.45-2.09-.6s-1.28-.38-1.8-.53c-1.2-.3-2.25-.52-3.07-.75C455.6,28.11,454.32,28.26,453.57,28.93Z" style="fill:#7f4b30"/><path d="M370.77,122.6a5.07,5.07,0,0,0,3.23.45,42.34,42.34,0,0,0,4.34-.75c1.73-.38,3.67-.83,6.07-1.43s5.17-1.19,8.17-1.94,6.52-1.58,10.34-2.48,7.94-2,12.44-3.44c2.25-.75,4.64-1.5,7.12-2.48,1.27-.52,2.55-1,4-1.72.67-.3,1.5-.75,2.17-1s1.13-.6,1.65-.9c4.5-2.47,9.14-5.09,13.64-8.17l3.37-2.24c1.12-.75,2.25-1.5,3.3-2.33,2.17-1.57,4.27-3.22,6.29-4.79s4-3.3,5.85-5,3.67-3.29,5.39-4.94,3.3-3.38,4.8-5a53.2,53.2,0,0,0,4.34-5c1.35-1.65,2.63-3.3,3.82-4.87a56.07,56.07,0,0,0,3.3-4.65c1.95-3.07,3.6-5.92,4.95-8.46a47.1,47.1,0,0,0,2.77-7.05c1.2-4.12,1.05-6.89-.53-8.16s-4.42-.83-8.09.9a55.7,55.7,0,0,0-6.22,3.52c-2.32,1.42-4.87,3.07-7.57,5-1.27,1-2.77,2-4.27,2.92s-3,2.1-4.49,3.22-3.15,2.25-4.8,3.37-3.37,2.4-5,3.6-3.52,2.4-5.39,3.67-3.6,2.62-5.62,3.9-3.9,2.62-5.85,4c-1,.67-2,1.35-3,2s-2,1.35-3.07,2c-4,2.77-8.17,5.24-12.06,7.86l-1.43,1c-.37.22-.67.45-1,.67-.75.45-1.58.9-2.48,1.43-1.72,1-3.67,1.94-5.54,2.92-3.82,2-7.72,3.9-11.39,5.92s-7.05,4.12-10.12,6.22a61.91,61.91,0,0,0-8,6.67,28.07,28.07,0,0,0-5.09,6.82,11.79,11.79,0,0,0-1.5,5.69A3,3,0,0,0,370.77,122.6Z" style="fill:#7f4b30"/><path d="M266.84,207.72c-.6.82-.6,2-.22,3.52a34,34,0,0,0,2.4,5.55c1.12,2.17,2.4,4.72,3.74,7.56a59.06,59.06,0,0,1,3.45,9.6c.23.9.45,1.79.6,2.69a9.34,9.34,0,0,0,.3,1.35l.22,1.43c.15,1,.23,1.94.3,2.92,0,.52.08,1,.08,1.5s.07,1,.07,1.5a56.62,56.62,0,0,1-1.42,13.33c-2,9.52-6.44,20.16-12.51,30.95A268.84,268.84,0,0,1,244,319.52c-6.74,9-13.26,16.86-18.88,23.53S215,355.19,212,359.38s-4.34,7.2-3.29,8.92,4.49,1.87,9.74.3,12.29-5,20.23-10.27a155.09,155.09,0,0,0,25.48-21.5A161.28,161.28,0,0,0,289,303.63c1.8-3.29,3.53-6.59,5-10a100.7,100.7,0,0,0,4-10.34,92,92,0,0,0,4.5-21.13,64.8,64.8,0,0,0-1.28-20.31,53.48,53.48,0,0,0-6.74-16.71,47,47,0,0,0-9.29-11,41.6,41.6,0,0,0-8.77-5.85,20.88,20.88,0,0,0-6.44-1.94C268.57,206.52,267.44,206.9,266.84,207.72Z" style="fill:#7f4b30"/><path d="M189.81,340.65c-1.42,1.42-1.34,4.12.08,7.87s4.5,8.31,8.17,13.18c.9,1.2,1.87,2.48,2.84,3.75s1.95,2.55,2.78,3.82,1.72,2.55,2.62,3.9c.75,1.35,1.57,2.62,2.17,4a38.13,38.13,0,0,1,3.07,8.39c.23.75.38,1.58.53,2.33l.22,1.19c.08.23.08.38.15.6l.08.68c.07.9.22,1.8.37,2.7.08.45.08,1,.15,1.49s.08,1.05.15,1.58c.15,1,.15,2,.3,3.07s.15,1.95.23,3,.15,1.95.15,2.92.07,2,.07,2.92,0,1.95,0,2.85v2.77c0,.9-.07,1.88-.07,2.77s-.08,1.8-.15,2.7c0,.45-.08.9-.08,1.35s-.07.9-.07,1.27c-.08.9-.15,1.73-.15,2.55s-.15,1.65-.23,2.48-.15,1.64-.22,2.39c-.23,1.58-.38,3.15-.6,4.57-.08.75-.23,1.5-.3,2.18s-.23,1.42-.38,2.09-.22,1.35-.3,2-.22,1.27-.37,1.87-.22,1.28-.3,1.87-.22,1.2-.3,1.73c-.22,1.12-.37,2.25-.52,3.22s-.3,1.95-.38,2.85-.15,1.72-.15,2.47a9.22,9.22,0,0,0,.15,2.1A4.93,4.93,0,0,0,211,459a3.81,3.81,0,0,0,3.14.75,12.92,12.92,0,0,0,2.18-.52,16,16,0,0,0,2.54-1.2,28.62,28.62,0,0,0,2.78-1.95,32.66,32.66,0,0,0,2.92-2.62l1.57-1.58c.53-.6,1-1.2,1.5-1.8s1-1.27,1.57-1.94,1-1.43,1.43-2.18,1-1.5,1.5-2.32l1.34-2.47a60,60,0,0,0,2.63-5.4c.45-1,.82-1.95,1.2-2.92s.75-2,1.12-3.07.67-2.1,1-3.22c.15-.53.3-1.13.45-1.65a14.5,14.5,0,0,0,.38-1.65c.22-1.13.52-2.25.75-3.45s.37-2.32.6-3.52a30.92,30.92,0,0,0,.45-3.67c.15-1.2.3-2.47.37-3.75s.15-2.55.23-3.82,0-2.55,0-3.9-.08-2.62-.15-4-.15-2.7-.3-4l-.23-1.95c-.07-.67-.15-1.27-.22-1.95-.23-1.42-.45-2.77-.68-4.12l-.15-1.05c-.07-.37-.15-.67-.22-1-.15-.68-.38-1.43-.53-2.1a36.51,36.51,0,0,0-1.27-4.12,49.21,49.21,0,0,0-7.94-14.62,64.38,64.38,0,0,0-4.95-5.62,62.67,62.67,0,0,0-5-4.34c-1.65-1.35-3.22-2.4-4.79-3.45l-4.43-2.7a68.67,68.67,0,0,0-13.86-6C193.94,339.22,191.24,339.22,189.81,340.65Z" style="fill:#7f4b30"/><path d="M200.3,453.05c-.67,1.94,1.58,4.57,5,8.31a86.91,86.91,0,0,1,12.21,16,88.64,88.64,0,0,1,5.77,12.21,108.82,108.82,0,0,1,4.49,15.14,162.93,162.93,0,0,1,3.6,37.17,219.21,219.21,0,0,1-3.67,37.91c-1,5.77-2.32,11.24-3.67,16.26s-2.85,9.67-4.35,13.79c-3,8.32-6.07,14.76-8.24,19.48s-3.37,7.87-2.17,9.52,4.87,1.35,10.26-1.65a46.69,46.69,0,0,0,8.77-6.67,74.89,74.89,0,0,0,9.37-10.94c12.36-17.38,22.33-45.48,22.55-77.4a133.34,133.34,0,0,0-7-44.89,95.94,95.94,0,0,0-8.69-18.51,70.88,70.88,0,0,0-11.32-14.23,56.13,56.13,0,0,0-12.13-9,36.75,36.75,0,0,0-10.57-4c-.75-.15-1.5-.3-2.17-.37a17.31,17.31,0,0,0-2-.15,10.4,10.4,0,0,0-3.15.22C201.65,451.47,200.68,452.07,200.3,453.05Z" style="fill:#7f4b30"/><path d="M221.29,638.88c-.68.75-.83,2-.53,3.52a16.34,16.34,0,0,0,.75,2.62c.15.45.38,1,.6,1.5s.45,1.12.67,1.72a31.66,31.66,0,0,0,1.73,3.68c.6,1.34,1.2,2.84,2,4.34.37.75.67,1.57,1,2.4s.67,1.65,1,2.47a27.51,27.51,0,0,1,1,2.62c.38.9.75,1.8,1.13,2.78A152.85,152.85,0,0,1,238.3,694c.89,5.32,1.64,10.87,2.09,16.64s.53,11.91.38,18.06-.75,12.28-1.43,18.05-1.79,11.39-2.92,16.64a194.3,194.3,0,0,1-8.54,27.5,30,30,0,0,1-1.2,2.77c-.37.9-.75,1.87-1.12,2.7s-.75,1.72-1.13,2.55-.67,1.64-1.05,2.39c-.75,1.5-1.34,3-1.94,4.35s-1.2,2.55-1.65,3.75c-.23.6-.45,1.12-.68,1.72s-.45,1-.6,1.5a16.34,16.34,0,0,0-.75,2.62c-.3,1.57-.15,2.77.53,3.52s1.8,1,3.45.75a16.89,16.89,0,0,0,2.77-.75,15,15,0,0,0,1.65-.67c.52-.3,1.12-.6,1.72-1,1.2-.67,2.55-1.49,4-2.47s2.77-2.17,4.27-3.45a26.82,26.82,0,0,0,2.25-2.09l2.32-2.33c.83-.82,1.5-1.64,2.33-2.54s1.49-1.8,2.32-2.78c6.22-7.71,12.06-18.13,16.56-30.34a137,137,0,0,0,5.39-19.71,144.55,144.55,0,0,0,2.4-21.81,150.44,150.44,0,0,0-1.12-21.95,135.65,135.65,0,0,0-4.35-20.08c-4-12.59-9.51-23.31-15.73-31.17-.83-1-1.58-2-2.33-2.85s-1.5-1.8-2.32-2.62-1.57-1.58-2.32-2.33a20.08,20.08,0,0,0-2.25-2.1c-1.5-1.27-3-2.47-4.27-3.44-1.43-1-2.77-1.8-4-2.47a11.55,11.55,0,0,0-1.73-.9c-.6-.23-1.12-.45-1.64-.68a18.71,18.71,0,0,0-2.85-.75C223.08,637.9,222,638.13,221.29,638.88Z" style="fill:#7f4b30"/><path d="M221.29,803.73a7.65,7.65,0,0,0-1.58,2.62,21.54,21.54,0,0,0-.75,3.37c-.37,2.4-.6,5-1,8.17s-.83,6.59-1.5,10.79-1.5,8.84-2.4,13.86c-2,10.12-4,19.56-5,26.83a48.5,48.5,0,0,0-.6,9.36,12.3,12.3,0,0,0,.68,3.53,6,6,0,0,0,1.65,2.54,4.93,4.93,0,0,0,2.77,1.28,9.16,9.16,0,0,0,3.89-.45,24.62,24.62,0,0,0,9.52-6.37c6.59-6.6,12.89-17.54,15.51-31.17a61.78,61.78,0,0,0,.68-19.94,41.22,41.22,0,0,0-5.77-16.56c-2.78-4.42-6.37-7.34-9.45-8.46a7.88,7.88,0,0,0-4-.6A4,4,0,0,0,221.29,803.73Z" style="fill:#7f4b30"/><path d="M215.29,872.66c-1.95.3-3.52,2.93-4.34,7.57s-.9,11.32,0,19.18,2.69,16.94,4.64,26.46c1,4.72,1.87,9.59,2.7,14.53s1.42,9.89,1.87,15.06c.08,1.28.23,2.55.3,3.9s.08,2.62.15,4c.15,2.62.3,5.25.3,7.79s.15,5,.15,7.57V986c-.07,9.74-.22,18.43-.3,25.78,0,1.87.08,3.67.08,5.39s.07,3.3.15,4.87.22,3,.37,4.27.3,2.55.45,3.68c.75,4.49,2.1,7.19,4.05,7.64s4.34-1.43,7-5.25c.67-1,1.34-2,2-3.22s1.35-2.55,2-4,1.35-3,2.1-4.65,1.35-3.44,2-5.32a154,154,0,0,0,6.75-27.12c.37-2.62.67-5.32,1-8.09s.45-5.62.6-8.55.15-5.92.15-8.91c0-1.5-.08-3-.08-4.57s-.22-3.15-.3-4.8a116.93,116.93,0,0,0-2.92-18.43,140.73,140.73,0,0,0-4.87-16.11c-3.6-9.89-7.35-18.06-10.57-24.81a139.8,139.8,0,0,0-8.61-15.73C219.49,874.39,217.31,872.36,215.29,872.66Z" style="fill:#7f4b30"/><path d="M1793.5,473.28c-19,11.24-37.91,22.48-56.87,30.94,25.33,19.71,47.43,11.24,75.91,16.86,19-14.08,12.66-33.72,0-50.65a43.62,43.62,0,0,0-28.48,2.85" style="fill:#593019"/><path d="M1882,580.13c6.29,0,9.51,14.09,15.81-8.47-3.15,0-12.67,2.85-12.67,2.85" style="fill:#593019"/><path d="M1918.86,502.35c-3-.75-5.77-.75-9.36-3.3l-.53,2.78c-7.12,4.34-13.71,5.92-15.88,16.93,5,1,16,5.1,20.9,8.39Z" style="fill:#593019"/><path d="M1730.26,580.13c15.81-16.86,37.92-16.86,44.29,8.47-15.81,2.85-28.48,0-41.07-5.62" style="fill:#593019"/><path d="M57.19,473.5a43.68,43.68,0,0,0-28.48,2.85h9.52c-13.27,7.87-26.6,15.74-39.87,22.7V517c18.74,6.9,37,2.93,58.83,7.27C76.14,510.07,69.85,490.44,57.19,473.5Z" style="fill:#593019"/><path d="M126.8,583.2c6.29,0,9.51,14.09,15.81-8.46-3.15,0-12.67,2.84-12.67,2.84" style="fill:#593019"/><path d="M152.05,504.45c-6.3,5.62-12.66,8.47-12.66,19.71,6.29,0,22.1,2.84,25.32,5.62,3.15-8.47,3.15-19.71,3.15-25.33-6.29-2.85-9.52,0-15.81-2.85" style="fill:#593019"/><path d="M176.33,277.93c3.59-21.73,7.19-43.53,13-63.47-31.32,6.67-39.19,29-61.82,47.14-1.5,23.6,17.69,31.39,38.74,32.59a44.39,44.39,0,0,0,16.19-23.6" style="fill:#613a21"/><path d="M37.55,276.81c-4,4.87-16.86-1.8-3.74,17.53,2-2.4,6-11.46,6-11.46" style="fill:#613a21"/><path d="M81.46,346.87c-.22-8.47,1.73-15.14-6.89-22.33-4,4.87-16.41,15.13-20.61,15.73,4.42,7.87,13,15.14,17.31,18.74,6.22-3,6.15-7.27,12.37-10.27" style="fill:#613a21"/><path d="M135.26,160.74c2.7,22.93-11.54,39.86-35,28.4,8-13.94,18.36-21.73,30.8-27.8" style="fill:#613a21"/><path d="M1796.73,292.54c21.2-6.14,42.33-12.36,62.79-15.73-19.56-25.41-43.09-22.71-69.24-35.3-21.88,8.92-20.68,29.53-12.66,49a43.94,43.94,0,0,0,28.25,4.35" style="fill:#613a21"/><path d="M1737.68,167c-6.15-1.58-5.7-16-17.38,4.19,3.07.83,13,.45,13,.45" style="fill:#613a21"/><path d="M1693.54,236.87c7.5-3.9,14.39-5,17.16-15.89-6.14-1.57-20.75-8.24-23.08-11.76-5.17,7.42-7.94,18.28-9.36,23.75,5.39,4.27,9.21,2.4,14.61,6.67" style="fill:#613a21"/><path d="M1884.62,204.8c-19.56,12.36-40.91,6.89-40.76-19.19,16,1.2,27.57,7.12,38.36,15.74" style="fill:#613a21"/><path d="M1717.67,75c14.16-16.94,28.33-33.8,43.39-48.11-30.42-10.19-48.48,5.17-77.18,9.29-13.19,19.56-.75,36,16.78,47.73a43.87,43.87,0,0,0,25.93-12.14" style="fill:#613a21"/><path d="M1598.68,3.61c-6,2.09-13.64-10.12-12.14,13.18,3-1,11-6.82,11-6.82" style="fill:#613a21"/><path d="M1600.93,86.26c4.12-7.42,9.14-12.14,5.39-22.78-6,2.09-21.8,4.72-25.7,3.07-.15,9,3.52,19.63,5.4,25,6.89.53,8.91-3.15,15.81-2.62" style="fill:#613a21"/><path d="M165.31,834.52c-12.59-18.13-25.18-36.26-34.92-54.55-17.83,26.6-7.86,48.11-11.46,76.88,15.36,17.91,34.54,10.19,50.5-3.59a44.4,44.4,0,0,0-4.79-28.18" style="fill:#422716"/><path d="M65,930.36c.45,6.3-13.34,10.49,9.51,15.14-.22-3.15-3.67-12.44-3.67-12.44" style="fill:#422716"/><path d="M145.38,950c-6.07-5.92-9.29-12-20.53-11.24.45,6.3-1.2,22.26-3.82,25.63,8.61,2.55,19.85,1.72,25.47,1.35,2.33-6.52-.67-9.44,1.65-16" style="fill:#422716"/><path d="M54.19,779.07c18,14.54,19.56,36.65-5.25,44.74-3.89-15.59-2-28.4,2.7-41.36" style="fill:#422716"/><path d="M1864.76,845c-21.58-4.42-43.23-8.84-62.94-15.36,5.47,31.55,27.5,40.24,44.73,63.55,23.53,2.32,32.08-16.49,34.1-37.47a44.26,44.26,0,0,0-22.93-17.09" style="fill:#422716"/><path d="M1858.32,983.64c4.64,4.27-2.47,16.78,17.38,4.42-2.32-2.1-11.24-6.45-11.24-6.45" style="fill:#422716"/><path d="M1746.07,881.51c23.08-1.88,39.42,13,27,36-13.56-8.54-21-19.11-26.6-31.85" style="fill:#422716"/><path d="M228.1,1037.29c.75,1,1.65,2.1,2.55,3.15s1.88,2.17,2.92,3.37c2,2.4,4.43,4.79,6.9,7.42,1.2,1.35,2.55,2.62,3.89,4s2.7,2.77,4.13,4.2c5.62,5.77,11.84,12,18.28,18.51.82.82,1.65,1.72,2.47,2.54h37.24a16.09,16.09,0,0,0-1-1.34,184.49,184.49,0,0,0-18.21-21.51,168.36,168.36,0,0,0-21.58-18.43c-1.8-1.28-3.52-2.48-5.24-3.6s-3.45-2.17-5.18-3.15a99.66,99.66,0,0,0-9.59-5.09c-.75-.38-1.5-.68-2.24-1.05l-2.18-.9c-1.42-.52-2.77-1-4-1.5a32.07,32.07,0,0,0-6.82-1.65c-4-.52-6.6,0-7.72,1.65s-.45,4.35,1.42,7.72C225.26,1033.39,226.53,1035.27,228.1,1037.29Z" style="fill:#7f4b30"/><path d="M108.29,964a71.31,71.31,0,0,0-2.17-13.12,150.79,150.79,0,0,0-12.67-31.17c-2.92-5.54-6.22-11.24-9.81-16.93-.45-.68-.9-1.43-1.35-2.18s-.9-1.42-1.43-2.17-1-1.5-1.49-2.25l-1.58-2.25a109.08,109.08,0,0,0-7-8.69,132.1,132.1,0,0,0-32.29-26.67A106,106,0,0,0,6.61,846.06a73.14,73.14,0,0,0-8.32-1.2V856.1q2.35.79,4.94,1.8a132.86,132.86,0,0,1,26.83,14.24,149.36,149.36,0,0,1,27.8,24.58c2.17,2.47,4.2,5,6.07,7.49.45.6.9,1.27,1.42,1.87s.9,1.28,1.35,1.95c.9,1.35,1.87,2.7,2.77,4.05,3.68,5.39,7,10.56,10.19,15.58a248.48,248.48,0,0,1,14.92,27.28,107.09,107.09,0,0,1,4.19,10.86,70.3,70.3,0,0,1,2.18,8.4c.07.6.22,1.12.3,1.65s.15,1,.22,1.49c.15.9.22,1.73.37,2.4.15,1.35.53,2.17,1.13,2.4s1.35-.3,2.32-1.57a18.47,18.47,0,0,0,1.35-2.48c.23-.52.37-1.05.6-1.72a15.39,15.39,0,0,0,.52-2A40.8,40.8,0,0,0,108.29,964Z" style="fill:#7f4b30"/><path d="M98.4,943.1c.67,2.4,6.14,2.7,13.34,4.5,1.79.45,3.74,1,5.69,1.72s4,1.57,6.22,2.62a61,61,0,0,1,6.44,3.6c2.18,1.42,4.28,3,6.45,4.72a78.14,78.14,0,0,1,18,22.25c3.75,6.67,5.85,11.62,8.32,11.54,1.2-.07,2.25-1.42,3-4a28.32,28.32,0,0,0,.3-11.24,44.39,44.39,0,0,0-1.8-7.57,64.74,64.74,0,0,0-3.6-8.24,55,55,0,0,0-13.11-16,52.79,52.79,0,0,0-9-6.07,49.31,49.31,0,0,0-9.37-3.9,47.22,47.22,0,0,0-9.07-1.72,39.64,39.64,0,0,0-8,.15,26.16,26.16,0,0,0-10.87,3.59,10.72,10.72,0,0,0-2.47,2.25A2.07,2.07,0,0,0,98.4,943.1Z" style="fill:#7f4b30"/><path d="M48.94,198.28a5.51,5.51,0,0,0,1.58,3.6c1,1.19,2.32,2.47,3.59,3.82a27.16,27.16,0,0,1,3.45,4.64,40.91,40.91,0,0,1,3.07,6.52c1.95,5.25,3.45,11.17,5,15.51s3.37,7.57,5.77,7.8,5-2.63,6.45-7.87a32.53,32.53,0,0,0,1.2-9.52,37.19,37.19,0,0,0-2.25-12.06,32.15,32.15,0,0,0-3.15-6.15,24,24,0,0,0-4.42-5.09A21.38,21.38,0,0,0,64.08,196,19.09,19.09,0,0,0,61.46,195a17.1,17.1,0,0,0-2.48-.6,13,13,0,0,0-7.41.75C49.92,196,49,197.08,48.94,198.28Z" style="fill:#7f4b30"/><path d="M71.42,231.25c.15,1.27,2.62,1.95,6.37,3.52a64.38,64.38,0,0,1,14.69,8.69,100.74,100.74,0,0,1,9,7.95c3.07,3.07,6.22,6.51,9.44,10.26a185.19,185.19,0,0,1,18.21,26.6,149.45,149.45,0,0,1,12.81,29.22A100.25,100.25,0,0,1,145,330.68a55.35,55.35,0,0,1,.59,11.39,38.76,38.76,0,0,1-1.49,9.07,37.73,37.73,0,0,1-2.63,6.59c-1.87,3.6-3.29,5.85-2.54,6.82.37.45,1.19.6,2.47.3a15.08,15.08,0,0,0,5.17-2.62,26.92,26.92,0,0,0,6.29-6.82,37.05,37.05,0,0,0,4.87-11.31,58.77,58.77,0,0,0,1.65-14.47,75.52,75.52,0,0,0-1.95-16.11,121.82,121.82,0,0,0-13.18-33.72A138.73,138.73,0,0,0,122.75,251a107.6,107.6,0,0,0-11.91-10.5,80.86,80.86,0,0,0-11.92-7.41c-7.72-3.9-15.06-5.32-20.08-5a7.4,7.4,0,0,0-1.8.23,8.47,8.47,0,0,0-1.5.3,16.21,16.21,0,0,0-2.32.82Q71.32,230.35,71.42,231.25Z" style="fill:#7f4b30"/><path d="M69.92,334.65c0,2.55,9.45,4.05,23.08,8.92a132.89,132.89,0,0,1,22.78,10.57c2,1.12,4,2.47,6.07,3.82s4.05,2.77,6.07,4.34a108.29,108.29,0,0,1,11.84,10.34,124.83,124.83,0,0,1,10.34,11.77,113.73,113.73,0,0,1,8.09,12.14c.6,1.05,1.13,2,1.73,3s1.05,2,1.57,3c1,1.95,1.87,4,2.77,5.85.45,1,.75,1.95,1.2,2.84s.83,1.88,1.13,2.78.67,1.8,1,2.69c.15.45.3.9.45,1.28a10.69,10.69,0,0,1,.37,1.27c.53,1.73,1.13,3.37,1.5,4.95s.9,3.07,1.28,4.49.75,2.7,1.05,4,.59,2.33.89,3.38.6,1.94.83,2.77a13.49,13.49,0,0,0,.75,2c.52,1.13,1.12,1.73,1.72,1.8s1.2-.52,1.8-1.65a19.13,19.13,0,0,0,.9-2.1l.45-1.34c.15-.53.22-1,.37-1.58.23-1.12.45-2.32.68-3.74s.22-2.85.37-4.5a38.74,38.74,0,0,0,0-5.17,51.32,51.32,0,0,0-.45-5.77c-.07-.53-.07-1-.15-1.57l-.22-1.58c-.15-1.05-.38-2.17-.53-3.22a30.8,30.8,0,0,0-.75-3.37c-.3-1.13-.52-2.32-.89-3.45a71.91,71.91,0,0,0-2.33-7.12c-.45-1.2-.9-2.47-1.42-3.67s-1-2.47-1.65-3.67A102.29,102.29,0,0,0,164,374.37a103.57,103.57,0,0,0-11.84-14,97.41,97.41,0,0,0-14.09-11.77c-2.4-1.72-4.87-3.22-7.34-4.72s-5-2.77-7.42-3.9A93.3,93.3,0,0,0,96,331.66c-1-.15-2-.3-2.92-.38l-2.85-.22c-.9-.08-1.8-.08-2.62-.15H85.13c-.82,0-1.57,0-2.32.07s-1.42.08-2.17.15c-1.35.15-2.62.3-3.75.45a20.46,20.46,0,0,0-2.92.68,21.53,21.53,0,0,0-2.17.75C70.52,333.46,69.92,334.05,69.92,334.65Z" style="fill:#7f4b30"/><path d="M84.91,691.33c.6-.15,1-.75,1.5-1.65.07-.22.22-.45.3-.75a6.7,6.7,0,0,1,.37-.82c.15-.3.23-.6.38-.9s.3-.6.45-1A12.89,12.89,0,0,1,89,684.29a9,9,0,0,0,.75-1c.23-.3.6-.6.9-1a20.83,20.83,0,0,1,5-3.45,42.36,42.36,0,0,1,17.61-3.67h2.62a8.73,8.73,0,0,1,1.35.07c.45,0,.9.08,1.35.08.9.07,1.8.22,2.7.3s1.8.3,2.62.52a9.34,9.34,0,0,1,1.35.3c.45.15.82.23,1.27.38a4.91,4.91,0,0,1,.6.22l.15.08.3.15.75.3,1.57.6.38.15.45.3.82.6,1.65,1.12.83.6c.3.22.52.37.89.67,1.28,1.2,2.63,2.33,3.9,3.52,2.85,2.55,5.62,5.1,8.54,7.65,1.2,1,2.33,2.1,3.52,3.15-.52-5.47-1-10.87-1.49-16.19-.15-1.42-.23-2.85-.38-4.2s-.22-2.62-.3-4c0-.3-.07-.67-.07-1l.07-.9.08-1.72c0-.6.07-1.13.07-1.73a10.42,10.42,0,0,1,.23-1.65l.22-1.57c.08-.45.23-.82.3-1.27s.23-.83.3-1.28.23-.82.38-1.2a31.85,31.85,0,0,1,1.79-4.64,45,45,0,0,1,10.57-14.31,48.72,48.72,0,0,1,10.34-7c2.77-1.43,4.65-2.25,4.8-3.45s-1.73-2.62-5.7-3.15a23.87,23.87,0,0,0-7.12.38,32,32,0,0,0-8.91,3.14,45.17,45.17,0,0,0-17.91,16.86,48.94,48.94,0,0,0-3.3,6.6c-.23.6-.45,1.2-.67,1.8a15.82,15.82,0,0,0-.6,1.8c-.15.59-.38,1.27-.53,1.87a11.89,11.89,0,0,0-.37,1.65c-.15,0-.15-.08-.23-.08h0v.08h-.15l-.22-.08c-.38-.07-.68-.22-1.05-.3l-2-.45c-.67-.15-1.34-.22-2-.37-1.35-.23-2.62-.3-3.89-.45s-2.55-.15-3.83-.15h-1.87c-.6,0-1.2.07-1.8.07-1.2.08-2.4.23-3.59.3a50.3,50.3,0,0,0-13,3.38,37.64,37.64,0,0,0-10.42,6.21,23.46,23.46,0,0,0-6.37,8.62,13.2,13.2,0,0,0-.75,2.25c-.15.75-.3,1.5-.37,2.17a15.34,15.34,0,0,0,.07,3.75,9.48,9.48,0,0,0,.3,1.5c.15.45.3.9.45,1.27s.3.75.45,1a7.28,7.28,0,0,0,.6.75C83.71,691.18,84.39,691.48,84.91,691.33Z" style="fill:#7f4b30"/><path d="M1917.37,600.74c-.9.37-1.8.82-2.7,1.27a83.12,83.12,0,0,0-10,6.07,74.15,74.15,0,0,0-10.49,8.84,83.32,83.32,0,0,0-17.54,26.3,91.93,91.93,0,0,0-4.94,15.44,108.33,108.33,0,0,0-2.4,14.69c-.15,1.19-.23,2.32-.3,3.44s-.15,2.25-.23,3.37c-.07,2.18-.14,4.35-.07,6.37,0,1.05,0,2,.07,3s.08,2,.15,2.92c.08,1.88.23,3.75.38,5.47,1.42,13.79,4.27,22,6.59,21.88,2.48-.15,4-8.54,5.7-21.65.22-1.65.45-3.3.67-5.1.15-.9.23-1.8.38-2.7s.3-1.87.45-2.77c.22-1.87.6-3.82.9-5.84.15-1,.37-2,.52-3s.38-2,.6-3.07c.82-4.12,1.8-8.39,3.07-12.67a110.78,110.78,0,0,1,4.5-13,91,91,0,0,1,13.41-22.25,109.37,109.37,0,0,1,11.47-11.92l-.15-15.13Z" style="fill:#7f4b30"/><path d="M1878.78,700.32c.07-.6-.3-1.2-1.2-1.87a10.44,10.44,0,0,0-4.27-1.65,20.2,20.2,0,0,0-7.35.07,30.16,30.16,0,0,0-9.14,3.15c-6.29,3.3-12.51,8.92-17.76,16A97.1,97.1,0,0,0,1826,740.71a104.06,104.06,0,0,0-6,27.12,76.46,76.46,0,0,0-.07,12.37,53.2,53.2,0,0,0,1.87,10.86,33.36,33.36,0,0,0,3.67,8.7,20.86,20.86,0,0,0,4.87,5.62,10.4,10.4,0,0,0,2.33,1.42,9.46,9.46,0,0,0,2,.6c1.12.15,1.87-.08,2.17-.6.67-1-.3-2.85-1.2-5.62a39.1,39.1,0,0,1-1.72-12.14c-.15-10.64,2.54-26.23,8.46-42.41a131.2,131.2,0,0,1,10-21.73,65.49,65.49,0,0,1,11.32-14.69A40.66,40.66,0,0,1,1869,706a36.56,36.56,0,0,1,4.73-2.48C1876.6,702.27,1878.63,701.52,1878.78,700.32Z" style="fill:#7f4b30"/><path d="M1721.42,346.64c.07,2.48,7.19,4.05,17.53,7.2a157.79,157.79,0,0,1,17.61,6.59,163.47,163.47,0,0,1,20.23,10.87c13.94,8.76,25.85,18.5,35.15,25.17a102.4,102.4,0,0,0,11.54,7.5c3,1.49,5,1.94,5.92,1.12s.37-2.92-1.13-5.92a79.13,79.13,0,0,0-7.79-11.54,152.63,152.63,0,0,0-14-15.21,127,127,0,0,0-20.39-15.81,104.87,104.87,0,0,0-23.82-11.17A80.65,80.65,0,0,0,1741,341.7a48.46,48.46,0,0,0-14.39,1.5C1723.14,344.25,1721.42,345.44,1721.42,346.64Z" style="fill:#7f4b30"/><path d="M1809.84,378.11c1,.75,2.55.53,4.64.08s5-1.42,8.47-2.47a262.49,262.49,0,0,1,27.73-6.82,141.21,141.21,0,0,1,15.21-2,54.5,54.5,0,0,1,11.31.23,18.71,18.71,0,0,1,6.45,2c1.64.9,2.92,1.88,4.12,1.65a2.18,2.18,0,0,0,1.5-1.35,6.19,6.19,0,0,0,.37-3.52,12.36,12.36,0,0,0-2.17-5.17,18.74,18.74,0,0,0-5.32-4.87c-4.42-2.85-10-4.35-15.89-4.95a66.53,66.53,0,0,0-18.73,1c-12.89,2.4-23.75,7.57-30.57,13.19a25.07,25.07,0,0,0-7,8.16C1808.79,375.57,1808.94,377.37,1809.84,378.11Z" style="fill:#7f4b30"/><path d="M1839.89-.67a5.4,5.4,0,0,1-.83.6,65.05,65.05,0,0,0-12.29,13.42,91.05,91.05,0,0,0-9.59,18,116,116,0,0,0-6.29,21.36,128.41,128.41,0,0,0-2.48,23.75A108.29,108.29,0,0,0,1810,96.22c.15.83.3,1.57.45,2.4s.37,1.57.52,2.4.38,1.57.6,2.39c.08.38.23.75.3,1.2l.3,1c.08,0,.23.15.3.38a2.18,2.18,0,0,0-.3.37h0l-.3.15-.52.23a6.82,6.82,0,0,0-1,.52c-.68.38-1.43.68-2,1s-1.35.75-2,1.12-1.28.83-1.88,1.2a50.54,50.54,0,0,0-12.06,11.39A56.62,56.62,0,0,0,1781.44,146a40.89,40.89,0,0,0-.15,16.86c.9,3.82,2.17,5.69,3.07,5.62s1.58-2.18,2.4-5.62a77.15,77.15,0,0,1,4.5-13.94A58.57,58.57,0,0,1,1803,131.21a45.81,45.81,0,0,1,9.67-7.49c.45-.22.9-.52,1.42-.75l1.42-.67c.45-.23,1-.38,1.5-.6a6.15,6.15,0,0,1,.75-.3l1-.38a17.09,17.09,0,0,1,1.79-.6c.68-.15,1.35-.3,2-.45,1.35-.3,2.62-.59,4-.89,2.77-.53,5.54-1,8.39-1.65-1.12-2.63-2.17-5.25-3.3-8a70.62,70.62,0,0,1-3-8.16l-.08-.38-.15-.67c-.07-.3-.15-.6-.22-1-.15-.6-.3-1.27-.45-1.87s-.23-1.27-.38-2-.22-1.35-.3-2A101.74,101.74,0,0,1,1826,76.74a133.28,133.28,0,0,1,1.8-20.83A125.65,125.65,0,0,1,1832.32,37c3.82-11.69,9.21-21.36,15.21-27.95a44.52,44.52,0,0,1,12.14-9.6l-19.78-.15Z" style="fill:#7f4b30"/><path d="M105.44,106.34c-.67,1,1.28,3.74,6.07,7.19a50.86,50.86,0,0,0,9.37,5.17,81.62,81.62,0,0,0,13.48,4.35,110.2,110.2,0,0,0,16.94,2.32,132.32,132.32,0,0,0,19.48-.37,179.07,179.07,0,0,0,43.09-9.52,188.07,188.07,0,0,0,39.64-19.33A156.6,156.6,0,0,0,269,84.53a114.9,114.9,0,0,0,12.06-12C287.9,64.6,292,57,293.82,51.26s1.57-9.06.45-9.44S291.2,44,287.83,48a121.91,121.91,0,0,1-15.44,15.81c-3.6,3-7.64,6.15-12.14,9.29s-9.59,6.3-15,9.29a240,240,0,0,1-37.09,16.64,219.38,219.38,0,0,1-39.26,10,172,172,0,0,1-17.46,1.8,127.5,127.5,0,0,1-15.21-.08,103.78,103.78,0,0,1-12.44-1.5c-3.67-.67-6.74-1.42-9.37-2C109.19,106.11,106.12,105.29,105.44,106.34Z" style="fill:#7f4b30"/><path d="M1735.28,1080.6l.83-1.27c.22-.3.37-.6.6-.9l.67-.9c.45-.6.9-1.2,1.35-1.88l1.57-1.79a18,18,0,0,1,1.65-1.8,8.36,8.36,0,0,0,.82-.9l.9-.9a81.43,81.43,0,0,1,18.44-13.41,128.06,128.06,0,0,1,21.65-9.22,140.52,140.52,0,0,1,19-4.57c5.54-.9,10-1.35,13.34-1.8a26.23,26.23,0,0,0,4-.82c1-.38,1.57-.83,1.72-1.35s-.15-1.28-.9-2a14.07,14.07,0,0,0-3.59-2.47,41.51,41.51,0,0,0-14.84-3.82,79.91,79.91,0,0,0-22.55,1.35,93.26,93.26,0,0,0-26.08,9.52,75.75,75.75,0,0,0-12.14,8.16,68,68,0,0,0-9.82,9.82c-.37.45-.67.82-1,1.35s-.68.9-1,1.35a22.52,22.52,0,0,0-1.8,2.69c-.52.9-1.12,1.8-1.65,2.7s-1,1.87-1.42,2.77l-.67,1.35c-.15.45-.38.9-.53,1.35-.37.9-.67,1.8-1,2.7s-.52,1.8-.75,2.7-.37,1.42-.52,2.17l13.86-.15Z" style="fill:#7f4b30"/><path d="M1796.35,1037.51c.6,0,1.12-.52,1.65-1.35a12.47,12.47,0,0,0,.82-1.49c.3-.6.6-1.2.9-2a40.84,40.84,0,0,1,2.48-4.57,22.91,22.91,0,0,1,4.12-4.72c3.37-3.08,8.69-5.7,15.73-8.62,3.52-1.5,7.35-3.07,11.62-5.32a53.67,53.67,0,0,0,6.52-4,34.47,34.47,0,0,0,6.51-6.07l-.67.75c.75-.82,1.5-1.65,2.25-2.54a30.08,30.08,0,0,0,1.87-2.78,33.26,33.26,0,0,0,3.6-8.46c.82-2.63,1.27-4.88,1.87-6.82a26.74,26.74,0,0,1,3.9-9.07c.45-.6.9-1.12,1.35-1.72.6-.6,1.12-1.13,1.65-1.73s1.27-1.12,1.87-1.65c.3-.3.6-.52.9-.82a9.05,9.05,0,0,1,1-.75c1.28-1,2.55-2,3.9-2.85.67-.45,1.27-.9,1.95-1.35s1.27-.82,2-1.19,1.27-.83,1.87-1.2,1.2-.75,1.8-1.05c1.2-.68,2.32-1.43,3.37-2s2-1.19,3-1.79,1.79-1.05,2.54-1.58c3-2,4.57-3.67,4.27-4.79s-2.54-1.73-6.29-1.65a22.73,22.73,0,0,0-3.07.22c-1.13.15-2.32.3-3.67.53s-2.7.52-4.2.9c-.75.15-1.5.37-2.25.6s-1.57.45-2.4.75-1.64.52-2.47.82-1.72.67-2.55,1a52.93,52.93,0,0,0-5.47,2.62,13.9,13.9,0,0,0-1.42.75l-1.35.9c-.9.6-1.87,1.2-2.77,1.87s-2,1.43-2.92,2.25a33.32,33.32,0,0,0-2.85,2.85,39.43,39.43,0,0,0-2.55,3.3,13.9,13.9,0,0,1-1.2,1.72c-.3.6-.67,1.2-1,1.8l-.53.9-.45.9c-.3.6-.59,1.27-.82,1.87-.45,1.2-1,2.47-1.35,3.67-.82,2.4-1.42,4.65-2,6.6a27.42,27.42,0,0,1-2,4.72,11.46,11.46,0,0,0-.75,1.12,5.52,5.52,0,0,0-.83,1l-.67.75c-1.65,2.18-4.5,4.27-7.72,6.3s-6.82,3.89-10.34,5.92a76.38,76.38,0,0,0-10.12,6.74,44.54,44.54,0,0,0-4.34,4c-.68.75-1.28,1.43-1.88,2.18s-1.12,1.49-1.64,2.24a25.21,25.21,0,0,0-3.68,9.07,22.85,22.85,0,0,0-.15,7,16.45,16.45,0,0,0,.6,2.4,7.54,7.54,0,0,0,.83,1.73A2.36,2.36,0,0,0,1796.35,1037.51Z" style="fill:#7f4b30"/><path d="M282.73,228.25c-.52.6-.52,1.57,0,3.07a16.29,16.29,0,0,0,4,5.32,29.34,29.34,0,0,0,9.37,5.47c1.05.38,2.1.6,3.22,1s2.25.45,3.52.67a42.32,42.32,0,0,0,7.64.3,55.63,55.63,0,0,0,16.49-3.52,75.22,75.22,0,0,0,8.32-3.67,94.85,94.85,0,0,0,8.24-4.8,125.18,125.18,0,0,0,30-28,133,133,0,0,0,20-35.59,101.89,101.89,0,0,0,4.72-17.54,70.88,70.88,0,0,0,1-16.11,49.25,49.25,0,0,0-2.39-13.34,36.56,36.56,0,0,0-4.5-9.21,24.16,24.16,0,0,0-2.4-2.93,15.23,15.23,0,0,0-2.17-1.79c-1.35-.83-2.32-1-3-.6-1.42.9-1.12,3.89-.75,8.46a69.44,69.44,0,0,1,.15,8.1,62,62,0,0,1-1.2,10.41,96.46,96.46,0,0,1-3.29,12.44,122.18,122.18,0,0,1-5.77,13.86,168.25,168.25,0,0,1-18.59,29.6,153.5,153.5,0,0,1-24.12,24.95C323,221.36,315,225.85,308.06,228a34.81,34.81,0,0,1-16.94,1C286.78,228,283.85,227.05,282.73,228.25Z" style="fill:#7f4b30"/><path d="M1580.55,64.9c-1.35.82-1.73,3.15-1,6.74a43.41,43.41,0,0,0,6.07,13.64,77.48,77.48,0,0,0,6.22,8.24,74.78,74.78,0,0,0,8.54,8.25,94.27,94.27,0,0,0,23,14.16,100.09,100.09,0,0,0,25.71,7.42,89.92,89.92,0,0,0,21.65.67c6.14-.67,11-1.87,14.31-3.45s5-3.14,4.8-4.72-2-3-5.1-4.27a122.62,122.62,0,0,0-12.89-3.89c-5.32-1.43-11.46-3.08-18.13-5.17-3.3-1-6.82-2.18-10.34-3.53s-7.12-2.77-10.79-4.34a172.82,172.82,0,0,1-35-20.53C1589.09,67.9,1583.39,63.25,1580.55,64.9Z" style="fill:#7f4b30"/><rect x="1751.79" y="183.84" width="16.03" height="22.03" transform="translate(127.99 881.92) rotate(-29.15)" style="fill:#8dbcd2"/><path d="M1758.29,208.84l-11.17-19.93,14.69-8.17L1773,200.68Zm-10-19.63,10.35,18.51,13.26-7.42-10.34-18.51Z" style="fill:#c9e4ee"/><polyline points="1772.45 200.53 1762.93 222.56 1758.43 208.32" style="fill:#64a4c3"/><polygon points="1762.93 223.68 1758.06 208.47 1758.81 208.17 1763.01 221.36 1772.07 200.38 1772.82 200.68 1762.93 223.68" style="fill:#c9e4ee"/><polyline points="1732.58 210.12 1762.93 222.56 1758.43 208.32" style="fill:#c9e4ee"/><polygon points="1732.43 210.49 1732.73 209.74 1762.33 221.81 1758.06 208.47 1758.81 208.17 1763.61 223.23 1732.43 210.49" style="fill:#c9e4ee"/><polyline points="1761.73 181.27 1737.98 177.75 1747.72 189.06" style="fill:#c9e4ee"/><polygon points="1736.93 177.22 1761.73 180.89 1761.66 181.64 1739.03 178.35 1748.02 188.84 1747.42 189.36 1736.93 177.22" style="fill:#c9e4ee"/><polyline points="1758.43 208.32 1732.58 210.12 1747.72 189.06" style="fill:#64a4c3"/><polygon points="1731.76 210.57 1747.42 188.84 1748.02 189.29 1733.41 209.67 1758.43 207.94 1758.51 208.69 1731.76 210.57" style="fill:#c9e4ee"/><polyline points="1732.58 210.12 1737.98 177.75 1747.72 189.06" style="fill:#8dbcd2"/><polygon points="1732.21 210.04 1737.68 176.85 1748.02 188.84 1747.42 189.36 1738.2 178.72 1733.03 210.19 1732.21 210.04" style="fill:#c9e4ee"/><rect x="175.41" y="551.26" width="16.04" height="22.03" transform="translate(-401.33 473.66) rotate(-63.31)" style="fill:#8dbcd2"/><path d="M189.81,575l-20.38-10.27L177,549.71,197.38,560Zm-19.33-10.65,19,9.52,6.82-13.56-19-9.52Z" style="fill:#c9e4ee"/><polyline points="196.78 560.12 201.35 583.73 189.66 574.44" style="fill:#64a4c3"/><polygon points="201.95 584.7 189.37 574.81 189.89 574.14 200.75 582.68 196.41 560.2 197.23 560.05 201.95 584.7" style="fill:#c9e4ee"/><polyline points="169.28 590.47 201.35 583.73 189.66 574.44" style="fill:#c9e4ee"/><polygon points="169.36 590.85 169.13 590.1 200.38 583.5 189.37 574.81 189.89 574.14 202.25 583.95 169.36 590.85" style="fill:#c9e4ee"/><polyline points="177.15 550.23 155.5 560.65 169.96 564.54" style="fill:#c9e4ee"/><polygon points="154.37 560.8 176.93 549.86 177.3 550.61 156.69 560.57 170.03 564.17 169.81 564.92 154.37 560.8" style="fill:#c9e4ee"/><polyline points="189.66 574.44 169.28 590.47 169.96 564.54" style="fill:#64a4c3"/><polygon points="168.83 591.29 169.51 564.54 170.33 564.54 169.66 589.57 189.37 574.14 189.89 574.81 168.83 591.29" style="fill:#c9e4ee"/><polyline points="169.28 590.47 155.5 560.65 169.96 564.54" style="fill:#8dbcd2"/><polygon points="168.91 590.62 154.82 560.05 170.03 564.17 169.81 564.92 156.25 561.32 169.66 590.32 168.91 590.62" style="fill:#c9e4ee"/><rect x="1743.1" y="742.84" width="10.27" height="14.16" transform="translate(520.37 2202.86) rotate(-73.02)" style="fill:#8dbcd2"/><path d="M1753.56,757.27l-14-4.27,3.15-10.34,14,4.27Zm-13.33-4.65,13,4,2.85-9.29-13-4Z" style="fill:#c9e4ee"/><polyline points="1756.41 747.15 1761.81 761.54 1753.41 756.97" style="fill:#64a4c3"/><polygon points="1762.33 762.07 1753.27 757.19 1753.57 756.75 1761.36 760.94 1756.19 747.23 1756.64 747 1762.33 762.07" style="fill:#c9e4ee"/><polyline points="1742.25 769.26 1761.81 761.54 1753.41 756.97" style="fill:#c9e4ee"/><polygon points="1742.33 769.48 1742.17 769.03 1761.21 761.47 1753.27 757.19 1753.57 756.75 1762.41 761.54 1742.33 769.48" style="fill:#c9e4ee"/><polyline points="1742.92 743.03 1730.34 751.95 1739.93 752.85" style="fill:#c9e4ee"/><polygon points="1729.66 752.1 1742.78 742.81 1743.07 743.18 1731.09 751.72 1739.93 752.55 1739.85 753.07 1729.66 752.1" style="fill:#c9e4ee"/><polyline points="1753.41 756.97 1742.25 769.26 1739.93 752.85" style="fill:#64a4c3"/><polygon points="1742.1 769.86 1739.63 752.85 1740.15 752.77 1742.47 768.66 1753.19 756.75 1753.64 757.12 1742.1 769.86" style="fill:#c9e4ee"/><polyline points="1742.25 769.26 1730.34 751.95 1739.93 752.85" style="fill:#8dbcd2"/><polygon points="1742.03 769.41 1729.81 751.57 1739.93 752.55 1739.85 753.07 1730.86 752.25 1742.47 769.11 1742.03 769.41" style="fill:#c9e4ee"/><path d="M1052.65,868.39c-32.22.45-61.67,7.12-84.82,18.06a.81.81,0,0,0-.52.23,1.64,1.64,0,0,1-.3.15V887c-3.15,3.89-5.25,29.07-4.87,59.49s3.22,55.6,6.44,59.35v.15c.07.07.15.07.3.15a.79.79,0,0,0,.52.22c23.46,10.27,53.13,16.19,85.35,15.74s62-7.2,85.2-18.21a1.14,1.14,0,0,0,.45.15c3.6-.08,6.14-26.9,5.69-60s-3.74-60-7.34-59.87a1,1,0,0,0-.45.15C1114.77,873.94,1085,867.94,1052.65,868.39Z" style="fill:#351904"/><path d="M1125.64,989.41a355.59,355.59,0,0,1-35.67,5.24c-41.74,4.05-83.85,1.35-125.14-4.57,1,8.39,2.4,14,3.82,15.74v.15a1.64,1.64,0,0,0,.3.15.81.81,0,0,0,.53.22c23.45,10.27,53.13,16.19,85.35,15.74,32.37-.45,62-7.2,85.19-18.21a1.14,1.14,0,0,0,.45.15c1.88,0,3.45-7.42,4.5-19.26A197.43,197.43,0,0,1,1125.64,989.41Z" style="fill:#44230b"/><path d="M962.06,935.68c0,3.52,0,7.05.08,10.72.07,5.32.22,10.41.45,15.36,11.46,1.65,22.92,3.07,34.54,4a523.43,523.43,0,0,0,81.15.07,499.11,499.11,0,0,0,67.81-9.36c.08-4.05,0-8.17,0-12.52-.07-3.67-.15-7.26-.22-10.71Z" style="fill:#44230b"/><path d="M1052.65,868.39c-32.22.45-61.67,7.12-84.82,18.06a.81.81,0,0,0-.52.23,1.64,1.64,0,0,1-.3.15V887c-2.7,3.37-4.65,22.33-4.87,46.9l183.65-2.47c-1-27-3.89-47.36-7-47.28a1,1,0,0,0-.44.15C1114.77,873.94,1085,867.94,1052.65,868.39Z" style="fill:#44230b"/><path d="M1067.64,968.35a510.87,510.87,0,0,1-80.93-1.72c-8.09-.83-16.11-1.88-24.05-3.07.45,9.36,1.05,17.75,1.87,24.57,12.44,1.8,25,3.3,37.47,4.35,26.75,2.32,53.88,3,80.7.9a368.66,368.66,0,0,0,39.49-5.32,212.69,212.69,0,0,0,22.78-5.32c.52-7,.9-15.29,1-24.43A499.56,499.56,0,0,1,1067.64,968.35Z" style="fill:#44230b"/><path d="M1052.65,868.39c-32.22.45-61.67,7.12-84.82,18.06a.81.81,0,0,0-.52.23,1.64,1.64,0,0,1-.3.15V887c-2.1,2.62-3.75,14.76-4.5,31.62,6.82-2.85,13.79-5.47,20.83-7.87a199,199,0,0,1,32-7.94,238.17,238.17,0,0,1,35.81-2.4c31.55-.08,62.57,4.27,93.37,10.19-1.35-16-3.52-26.45-5.77-26.45a1,1,0,0,0-.45.15C1114.77,873.94,1085,867.94,1052.65,868.39Z" style="fill:#351904"/><ellipse cx="971.64" cy="946.39" rx="6.29" ry="57.77" transform="translate(-12.59 13.11) rotate(-0.77)" style="fill:#754c35"/><path d="M968.5,885.18c3.68-.08,7,27.27,7.42,61.14s-2.17,61.22-5.84,61.3l9.22-.15c3.67-.08,6.29-25.33,5.84-61.3S981.32,885,977.65,885Z" style="fill:#5e6d7b"/><path d="M969.78,885.1c3.67-.07,7,27.28,7.42,61.15s-2.18,61.22-5.85,61.29l9.29,3.75c3.68-.08,6.22-29.23,5.77-65.19s-3.82-65-7.49-65Z" style="fill:#465260"/><path d="M1044.26,867.27c3.67-.08,7.12,34.84,7.72,77.93s-2,78.08-5.62,78.15l9.22-.15c3.67-.07,6.14-35,5.62-78.15s-4-78-7.72-77.93Z" style="fill:#5e6d7b"/><path d="M1045.53,867.27c3.68-.08,7.12,34.84,7.72,77.93s-2,78.08-5.62,78.15l9.22-.15c3.67-.07,6.14-35,5.62-78.15s-4-78-7.72-77.93Z" style="fill:#465260"/><path d="M1127.36,879.48c3.67-.07,7,28.93,7.49,64.67s-2.09,64.74-5.77,64.81l9.22-3.52c3.67-.07,6.29-27.57,5.85-61.44s-3.83-61.3-7.5-61.22Z" style="fill:#5e6d7b"/><path d="M1128.63,879.48c3.68-.07,7,30.8,7.5,64.67s-2.1,64.74-5.77,64.81l9.21-3.52c3.68-.07,6.3-27.57,5.85-61.44s-3.82-61.3-7.49-61.22Z" style="fill:#465260"/><path d="M1279,921.44c0-39.93-7.87-76.58-20.9-105.5a1.33,1.33,0,0,0-.3-.67c-.08-.08-.08-.23-.15-.3h-.15c-4.8-4-36-7-73.74-7s-68.93,3.07-73.73,7h-.15c-.07.07-.07.22-.15.3a1.33,1.33,0,0,0-.3.67c-13.11,28.92-20.9,65.57-20.9,105.5,0,40.09,7.94,77,21.13,105.88a1,1,0,0,0-.23.6c0,4.42,33.27,8.1,74.33,8.1s74.34-3.6,74.34-8.1a1,1,0,0,0-.23-.6C1271.08,998.4,1279,961.53,1279,921.44Z" style="fill:#4c2c1a"/><path d="M1127.81,1009.86c-2.62-14.68-4.72-29.44-5.92-44.28-4.35-51.85-.22-103.93,7.72-155-10.42,1.19-17.46,2.77-19.56,4.42h-.15c-.07.07-.07.22-.15.3a1.33,1.33,0,0,0-.3.67c-13.11,28.92-20.9,65.57-20.9,105.5,0,40.09,7.94,77,21.13,105.88a1,1,0,0,0-.23.6c0,2.33,9.14,4.42,23.75,5.92A217,217,0,0,1,1127.81,1009.86Z" style="fill:#5b341d"/><path d="M1197.05,808.07c-4.35-.07-8.77-.15-13.34-.15-6.6,0-13,.08-19,.3-2.25,14.16-4.13,28.4-5.55,42.79a653,653,0,0,0-1.42,100.56,622,622,0,0,0,10.49,84.22c5,.15,10.19.15,15.51.15,4.57,0,9-.07,13.34-.15V808.07Z" style="fill:#5b341d"/><path d="M1279,921.44c0-39.93-7.87-76.58-20.9-105.5a1.33,1.33,0,0,0-.3-.67c-.08-.08-.08-.23-.15-.3h-.15c-4.12-3.38-27.65-6.15-58.08-6.82v227.64c33.57-.75,58.75-4,58.75-7.87a1,1,0,0,0-.22-.6C1271.08,998.4,1279,961.53,1279,921.44Z" style="fill:#5b341d"/><path d="M1154.79,938.38a630.72,630.72,0,0,1,3.44-100.26c1.2-10,2.62-19.93,4.2-29.82-11.62.37-22,1.05-30.5,2-2.4,15.36-4.49,30.87-6,46.38-3.38,33.12-4.65,66.69-2.4,100a467.14,467.14,0,0,0,5.92,49.08,242.55,242.55,0,0,0,6.29,28.33c8.62.82,18.89,1.35,30.2,1.65A629.67,629.67,0,0,1,1154.79,938.38Z" style="fill:#5b341d"/><path d="M1279,921.44c0-39.93-7.87-76.58-20.9-105.5a1.33,1.33,0,0,0-.3-.67c-.08-.08-.08-.23-.15-.3h-.15c-3.23-2.63-18.21-4.87-39.12-6.07,3.37,8.54,6.6,17.16,9.37,25.92a237.92,237.92,0,0,1,9.29,39.79,304,304,0,0,1,2.4,44.44c-.45,39-6.37,77.48-14.16,115.54,19.85-1.42,32.89-3.9,32.89-6.67a1,1,0,0,0-.22-.6C1271.08,998.4,1279,961.53,1279,921.44Z" style="fill:#4c2c1a"/><ellipse cx="1183.71" cy="819.76" rx="71.56" ry="7.79" style="fill:#351904"/><path d="M1259.61,816.91c0,4.58-33.94,8.25-75.83,8.25s-75.83-3.67-75.83-8.25v11.47c0,4.57,31.32,8.24,75.83,8.24s75.83-3.67,75.83-8.24Z" style="fill:#6e7f8d"/><path d="M1259.61,818.41c0,4.57-33.94,8.25-75.83,8.25S1108,823,1108,818.41l-4.87,11.47c0,4.57,36.12,8.24,80.7,8.24s80.71-3.67,80.71-8.24Z" style="fill:#556273"/><path d="M1280.45,911.1c0,4.57-43.31,8.25-96.74,8.25S1087,915.67,1087,911.1v11.47c0,4.57,43.31,8.24,96.74,8.24s96.74-3.67,96.74-8.24Z" style="fill:#6e7f8d"/><path d="M1280.45,912.68c0,4.57-43.31,8.24-96.74,8.24s-96.74-3.67-96.74-8.24v11.46c0,4.57,43.31,8.24,96.74,8.24s96.74-3.67,96.74-8.24Z" style="fill:#556273"/><path d="M1264,1013.84c0,4.57-35.89,8.24-80.25,8.24s-80.25-3.67-80.25-8.24l4.19,11.46c0,4.57,34,8.24,76,8.24s76-3.67,76-8.24Z" style="fill:#6e7f8d"/><path d="M1264,1015.41c0,4.57-38.21,8.24-80.25,8.24s-80.25-3.67-80.25-8.24l4.19,11.46c0,4.57,34,8.25,76,8.25s76-3.68,76-8.25Z" style="fill:#556273"/><path d="M1488.83,921.44c0-39.93-7.87-76.58-20.91-105.5a1.31,1.31,0,0,0-.29-.67c-.08-.08-.08-.23-.15-.3h-.15c-4.8-4-36-7-73.74-7s-68.93,3.07-73.73,7h-.15c-.07.07-.07.22-.15.3a1.33,1.33,0,0,0-.3.67c-13.11,28.92-20.91,65.57-20.91,105.5,0,40.09,8,77,21.14,105.88a1,1,0,0,0-.23.6c0,4.42,33.27,8.1,74.33,8.1s74.33-3.6,74.33-8.1a1,1,0,0,0-.22-.6C1480.89,998.4,1488.83,961.53,1488.83,921.44Z" style="fill:#4c2c1a"/><path d="M1337.62,1009.86c-2.62-14.68-4.72-29.44-5.92-44.28-4.35-51.85-.23-103.93,7.72-155-10.42,1.19-17.46,2.77-19.56,4.42h-.15c-.07.07-.07.22-.15.3a1.33,1.33,0,0,0-.3.67c-13.11,28.92-20.91,65.57-20.91,105.5,0,40.09,8,77,21.14,105.88a1,1,0,0,0-.23.6c0,2.33,9.14,4.42,23.75,5.92A236.92,236.92,0,0,1,1337.62,1009.86Z" style="fill:#5b341d"/><path d="M1406.86,808.07c-4.35-.07-8.77-.15-13.34-.15-6.6,0-13,.08-19,.3-2.24,14.16-4.12,28.4-5.54,42.79a653,653,0,0,0-1.42,100.56,620.38,620.38,0,0,0,10.49,84.22c5,.15,10.19.15,15.51.15,4.57,0,9-.07,13.34-.15V808.07Z" style="fill:#5b341d"/><path d="M1488.83,921.44c0-39.93-7.87-76.58-20.91-105.5a1.31,1.31,0,0,0-.29-.67c-.08-.08-.08-.23-.15-.3h-.15c-4.13-3.38-27.65-6.15-58.08-6.82v227.64c33.57-.75,58.75-4,58.75-7.87a1,1,0,0,0-.22-.6C1480.89,998.4,1488.83,961.53,1488.83,921.44Z" style="fill:#5b341d"/><path d="M1364.67,938.38a629.55,629.55,0,0,1,3.45-100.26c1.19-10,2.62-19.93,4.19-29.82-11.61.37-22,1.05-30.5,2-2.39,15.36-4.49,30.87-6,46.38-3.37,33.12-4.65,66.69-2.4,100a469.81,469.81,0,0,0,5.92,49.08,240.56,240.56,0,0,0,6.3,28.33c8.61.82,18.88,1.35,30.19,1.65A621.21,621.21,0,0,1,1364.67,938.38Z" style="fill:#5b341d"/><path d="M1488.83,921.44c0-39.93-7.87-76.58-20.91-105.5a1.31,1.31,0,0,0-.29-.67c-.08-.08-.08-.23-.15-.3h-.15c-3.23-2.63-18.21-4.87-39.12-6.07,3.37,8.54,6.6,17.16,9.37,25.92a237.92,237.92,0,0,1,9.29,39.79,304,304,0,0,1,2.4,44.44c-.45,39-6.37,77.48-14.17,115.54,19.86-1.42,32.9-3.9,32.9-6.67a1,1,0,0,0-.22-.6C1480.89,998.4,1488.83,961.53,1488.83,921.44Z" style="fill:#4c2c1a"/><ellipse cx="1393.59" cy="819.76" rx="71.56" ry="7.79" style="fill:#8d5d42"/><path d="M1469.42,816.91c0,4.58-33.94,8.25-75.83,8.25s-75.83-3.67-75.83-8.25v11.47c0,4.57,31.32,8.24,75.83,8.24s75.83-3.67,75.83-8.24Z" style="fill:#6e7f8d"/><path d="M1469.42,818.41c0,4.57-33.94,8.25-75.83,8.25s-75.83-3.68-75.83-8.25l-4.87,11.47c0,4.57,36.12,8.24,80.7,8.24s80.7-3.67,80.7-8.24Z" style="fill:#556273"/><path d="M1490.33,911.1c0,4.57-43.31,8.25-96.74,8.25s-96.73-3.68-96.73-8.25v11.47c0,4.57,43.31,8.24,96.73,8.24s96.74-3.67,96.74-8.24Z" style="fill:#6e7f8d"/><path d="M1490.33,912.68c0,4.57-43.31,8.24-96.74,8.24s-96.73-3.67-96.73-8.24v11.46c0,4.57,43.31,8.24,96.73,8.24s96.74-3.67,96.74-8.24Z" style="fill:#556273"/><path d="M1473.77,1013.84c0,4.57-35.89,8.24-80.25,8.24s-80.25-3.67-80.25-8.24l4.19,11.46c0,4.57,34,8.24,76,8.24s76-3.67,76-8.24Z" style="fill:#6e7f8d"/><path d="M1473.77,1015.41c0,4.57-38.22,8.24-80.25,8.24s-80.25-3.67-80.25-8.24l4.19,11.46c0,4.57,34,8.25,76,8.25s76-3.68,76-8.25Z" style="fill:#556273"/><path d="M1129.08,822.68l-10.94-73.8-7.11,1,10.64,71.78A40.93,40.93,0,0,1,1129.08,822.68Z" style="fill:#5f4424"/><path d="M1094.69,756.15a22.81,22.81,0,0,1-1.72-5.92l-2.78-18.44c-1.79-12.29,6.22-23.6,18-25.4s22.78,6.82,24.58,19l2.77,18.44a23.88,23.88,0,0,1,.07,6.14Z" style="fill:#98a4b1"/><path d="M1110.73,763.71a71.35,71.35,0,0,1-3.23-13.26c-2-13.41-.45-24.73,3.53-25.33s8.69,9.82,10.71,23.16a74.29,74.29,0,0,1,.82,13.63Z" style="fill:#74869a"/><path d="M1223,771.21c-15.21-15.51-40.16-17-40.16-17l-4.27,16.56c14.61-3.3,30.35,4.72,41.36,12.36Z" style="fill:#98a4b1"/><path d="M1118.37,765.21s40.39-12.14,60.32,5.55L1183,754.2C1182.88,754.2,1140.47,734.19,1118.37,765.21Z" style="fill:#98a4b1"/><path d="M1168.12,824.33a1.66,1.66,0,0,1,1.5.75h.75L1187.31,759,1177,756.37,1159.66,824C1162.35,824.56,1165.2,824.33,1168.12,824.33Z" style="fill:#5f4424"/><rect x="1167.1" y="755.11" width="27.12" height="16.04" transform="translate(148.76 1717.86) rotate(-75.65)" style="fill:#74869a"/><path d="M1191.43,824.78l2.32.45c1.5-.3,3-.67,4.5-1l4.94-102.13-7.19-.38-5,103Z" style="fill:#5f4424"/><path d="M1178.84,724.67a23.9,23.9,0,0,1-.53-6.14l.9-18.66c.6-12.36,10.72-22,22.56-21.43s21,11.09,20.38,23.45l-.9,18.66a23.68,23.68,0,0,1-1.12,6.07Z" style="fill:#98a4b1"/><path d="M1193.08,735.24a65.82,65.82,0,0,1-.53-13.64c.68-13.49,4.42-24.35,8.32-24.13s6.59,11.32,6,24.81a69.67,69.67,0,0,1-1.87,13.56Z" style="fill:#74869a"/><rect x="347.83" y="859.9" width="7.19" height="161.77" transform="translate(-165.18 79.57) rotate(-10.47)" style="fill:#5f4424"/><path d="M385.84,1012.94a25.36,25.36,0,0,1,1.94,5.84l3.38,18.36c2.24,12.21-5.4,23.83-17.09,26s-23-6-25.25-18.21l-3.37-18.36a24.19,24.19,0,0,1-.3-6.14Z" style="fill:#98a4b1"/><path d="M369.58,1006a73.92,73.92,0,0,1,3.67,13.19c2.47,13.33,1.27,24.65-2.63,25.4s-9.06-9.52-11.46-22.78a70.61,70.61,0,0,1-1.27-13.64Z" style="fill:#74869a"/><rect x="330.08" y="856.22" width="14.31" height="14.99" transform="translate(-151.41 75.71) rotate(-10.47)" style="fill:#74869a"/><path d="M355.41,859.78l-1.94-10.49c-2-10.57-11.69-17.54-21.81-15.74S315,845.46,316.9,856l2,10.49ZM350.24,857l-27.65,5.1-1.5-7.94c-1.49-7.95,3.53-15.59,11.17-17s15,3.89,16.48,11.84Z" style="fill:#74869a"/><rect x="807.25" y="425.55" width="301.83" height="26.6" style="fill:#5f4424"/><rect x="807.25" y="420.75" width="301.83" height="26.6" style="fill:#825d31"/><rect x="799.23" y="550.76" width="317.79" height="28.02" style="fill:#5f4424"/><rect x="799.23" y="545.74" width="317.79" height="27.95" style="fill:#825d31"/><polygon points="1074.68 395.27 1085.77 595.04 1096.94 594.37 1085.85 394.6 1074.68 395.27" style="fill:#5f4424"/><polygon points="1076.71 395.12 1087.8 594.97 1098.89 594.22 1087.8 394.45 1076.71 395.12" style="fill:#825d31"/><polygon points="839.25 395.27 828.16 595.04 816.99 594.37 828.08 394.6 839.25 395.27" style="fill:#5f4424"/><polygon points="837.23 395.12 826.13 594.97 815.04 594.22 826.13 394.45 837.23 395.12" style="fill:#825d31"/><ellipse cx="954.57" cy="463.99" rx="30.35" ry="32.3" style="fill:#454d63"/><circle cx="954.57" cy="455.89" r="30.35" style="fill:#676e84"/><path d="M963,426.67a30.33,30.33,0,0,1-29.52,50.95A30.35,30.35,0,1,0,963,426.67Z" style="fill:#5c6276"/><path d="M949,487.22c1.2-9.07,2.47-20.54,4.87-29.6.6,8.24,4.27,24.65,2.47,29.6" style="fill:#454d63"/><rect x="941.83" y="484.67" width="25.48" height="5.1" style="fill:#c9e4ee"/><ellipse cx="861.28" cy="475.45" rx="30.35" ry="32.3" style="fill:#454d63"/><circle cx="861.28" cy="467.36" r="30.35" style="fill:#676e84"/><path d="M869.67,438.13a30.34,30.34,0,0,1-29.52,51,30.31,30.31,0,0,0,51.48-21.73A30.48,30.48,0,0,0,869.67,438.13Z" style="fill:#5c6276"/><path d="M855.66,498.68c1.2-9.07,2.47-20.53,4.87-29.6.6,8.24,4.27,24.65,2.47,29.6" style="fill:#454d63"/><rect x="848.54" y="496.13" width="25.48" height="5.1" style="fill:#c9e4ee"/><path d="M1017.51,480.4a3.37,3.37,0,0,0,3.22,3.52h6.07a17.35,17.35,0,0,0,13.56,6.44,17.63,17.63,0,0,0,13.57-6.44H1060a3.54,3.54,0,0,0,0-7.05h-2.63a16.7,16.7,0,0,0,.45-3.89l-7.79-9.07a23,23,0,0,0-3.6-12.44,13.42,13.42,0,1,0-19.33-12.06,13.6,13.6,0,0,0,7.49,12.06,23.48,23.48,0,0,0-3.59,12.44l-7.8,9.07a16.7,16.7,0,0,0,.45,3.89H1021A3.43,3.43,0,0,0,1017.51,480.4Zm26.9-31.25c-1.42-1.42-2.85-2.25-4.12-2.25s-2.7.83-4.12,2.25a10.57,10.57,0,1,1,14.68-9.74A10.44,10.44,0,0,1,1044.41,449.15Z" style="fill:#516173"/><path d="M1056,483.47a20.83,20.83,0,1,1-31.32,0Z" style="fill:#d3d3d3"/><circle cx="1040.29" cy="501.68" r="13.94" style="fill:#afaca8"/><path d="M1025.53,537a13.47,13.47,0,0,1-5.47-10.79,13.26,13.26,0,0,1,1.65-6.44h-1.05a3.54,3.54,0,0,1,0-7h39.11a3.54,3.54,0,0,1,0,7h-1A13.38,13.38,0,0,1,1054.9,537c8.24,1.27,13.79,3.67,13.79,6.37h-57.1C1011.74,540.64,1017.29,538.32,1025.53,537Z" style="fill:#516173"/><path d="M1046,448.33a7.45,7.45,0,0,0-.89.82c-.08-.08-.23-.08-.3-.15C1045.16,448.78,1045.61,448.55,1046,448.33Z" style="fill:#465361"/><path d="M1044.71,429.89a11.47,11.47,0,0,1,3.9-1,13.45,13.45,0,0,1,2.47,18.51,3.68,3.68,0,0,0-1.87-.53,4.17,4.17,0,0,0-2.33.83,10.51,10.51,0,0,0,4-8.25A10.64,10.64,0,0,0,1044.71,429.89Z" style="fill:#465361"/><path d="M1043.51,448.33a3.34,3.34,0,0,1-.82-.6C1042.91,447.88,1043.21,448.1,1043.51,448.33Z" style="fill:#465361"/><path d="M1020.73,476.87h2.63a16.7,16.7,0,0,1-.45-3.89l7.79-9.07a23,23,0,0,1,3.6-12.44,13.42,13.42,0,0,1,5.91-25.47,14,14,0,0,1,4.43.75,12.12,12.12,0,0,0-3.9,2.17h-.53a10.57,10.57,0,0,0-4.12,20.3,9.37,9.37,0,0,1,2.25-1.72,14,14,0,0,0,4.8,4.05,23.36,23.36,0,0,0-3.6,12.44l-7.79,9.06a16.78,16.78,0,0,0,.45,3.9h-2.63a3.37,3.37,0,0,0-3.22,3.52,3.44,3.44,0,0,0,1.35,2.77c-.37.23-.67.45-1,.68h-5.92a3.54,3.54,0,0,1,0-7.05Z" style="fill:#465361"/><path d="M1025.53,537a13.47,13.47,0,0,1-5.47-10.79,13.26,13.26,0,0,1,1.65-6.44h-1.05a3.54,3.54,0,0,1,0-7h10.71a3.54,3.54,0,0,0,0,7h1.05a13.38,13.38,0,0,0,3.82,17.23c-8.24,1.27-13.78,3.67-13.78,6.37h-10.72C1011.74,540.64,1017.29,538.32,1025.53,537Z" style="fill:#465361"/><path d="M1043.14,437.91a2.86,2.86,0,0,1-2.85,2.85h0a2.86,2.86,0,0,1-2.85-2.85V425.4a2.85,2.85,0,0,1,2.85-2.85h0a2.85,2.85,0,0,1,2.85,2.85Z" style="fill:#465361"/><path d="M1004.4,557.5c-12.67-15.14-35.07-18.28-35.07-18.28l-5,14.68c13.41-1.94,27.12,6.45,36.49,14.17Z" style="fill:#98a4b1"/><path d="M910.21,544.69s37.39-8.09,54.17,9.29l5-14.69S932.46,518.16,910.21,544.69Z" style="fill:#98a4b1"/><rect x="871.28" y="607.03" width="146.72" height="9.67" transform="translate(60.45 1308.23) rotate(-71.16)" style="fill:#5f4424"/><rect x="954.44" y="539.89" width="24.58" height="14.54" transform="translate(136.64 1285.33) rotate(-71.16)" style="fill:#74869a"/><rect x="882.33" y="579.01" width="7.87" height="177.89" style="fill:#5f4424"/><path d="M909,752.77a25.27,25.27,0,0,1,.9,6.75v20.53c0,13.64-10.57,24.65-23.68,24.65s-23.68-11.09-23.6-24.73V759.44a25.19,25.19,0,0,1,.9-6.74Z" style="fill:#98a4b1"/><path d="M892.82,741.91a80.06,80.06,0,0,1,1.35,15c0,14.92-3.52,26.9-7.87,26.9s-7.86-12.06-7.86-27a80.09,80.09,0,0,1,1.35-15Z" style="fill:#74869a"/><rect x="878.44" y="573.54" width="15.74" height="16.48" style="fill:#74869a"/><path d="M906.69,581.1V569.42c0-11.77-9.15-21.36-20.39-21.36s-20.45,9.52-20.45,21.28V581Zm-5-4H870.87v-8.84c0-8.92,6.89-16.11,15.43-16.11s15.44,7.19,15.44,16.11Z" style="fill:#74869a"/><path d="M889.08,559.45a2.86,2.86,0,0,1-2.85,2.85h0a2.86,2.86,0,0,1-2.85-2.85V546.94a2.85,2.85,0,0,1,2.85-2.85h0a2.85,2.85,0,0,1,2.85,2.85Z" style="fill:#465361"/><path d="M980.94,560.2a2.85,2.85,0,0,1-2.84,2.85h0a2.85,2.85,0,0,1-2.85-2.85V547.69a2.84,2.84,0,0,1,2.85-2.85h0a2.84,2.84,0,0,1,2.84,2.85Z" style="fill:#465361"/></g></g></g><path d="M967.1,141a7.1,7.1,0,0,1-7.1,7.1h0a7.1,7.1,0,0,1-7.1-7.1V109.77a7.09,7.09,0,0,1,7.1-7.09h0a7.09,7.09,0,0,1,7.1,7.09Z" style="fill:#465361"/></svg>