<svg id="Capa_1" data-name="Capa 1" xmlns="http://www.w3.org/2000/svg" xmlns:xlink="http://www.w3.org/1999/xlink" viewBox="0 0 1920 1080"><defs><clipPath id="clip-path"><path d="M26.08,1080.66c-1-8.56,1.81-16.06,1.81-24.24,0-8,2.77-15.76,2.4-23.71-.53-11-4.81-21.54-8.41-32.05a292.35,292.35,0,0,1,.23-188c4.5-13.06,10-26.12,9.9-39.92-.15-33.77-20.18-64.39-20.41-99.58-.07-7.51,18.09-95.76,24-89.3A105.81,105.81,0,0,1,9.05,494.88c2.1-11.93,6.23-23.48,7.13-35.49,1.2-16.14-3.38-32.12-4.88-48.18a126.47,126.47,0,0,1,29.19-92.3c-28.36-40.15-34.07-95.3-14.33-140.25,2.55-5.86,5.55-11.71,6.15-18,.9-9.91-4.12-19.21-7.88-28.44C2.3,77.13,24.13,37.35,81,20.39c22.88-6.82,47.12-7,71-7.2q85.44-.67,170.8-1.27,161-1.14,321.93-2.33c367.33-2.7,734.81,5.33,1101.83-1.65,30.17-.6,60.94-1.05,89.68,8.18,116.46,37.37,60.41,150.46,67.69,239.68,3.52,43.6,23.63,71.74,3.9,119.24-4.65,11.18-10.81,22.14-12,34.22-1,10.28,1.65,20.56,4,30.69a484.83,484.83,0,0,1-.37,220.4c-2.93,12.23-6.3,24.61-5.48,37.15.9,13.88,6.9,26.94,10.58,40.37,12.91,46.37,3.75,104.16,2.78,151.81-.68,31.89-.6,63.86.9,95.75,1.5,31.52,8,63.34,7,94.7" style="fill:none"/></clipPath></defs><rect x="-0.68" width="1922.82" height="1079.67" style="fill:#362111"/><g id="Layer_1" data-name="Layer 1"><g style="clip-path:url(#clip-path)"><g id="Layer_1-2" data-name="Layer 1"><path d="M40.94-.77a1.88,1.88,0,0,1-3.07.6l-.6-.6h-36v1080.6H1922.31V-.77Z" style="fill:#be6a3a"/><path d="M1482.34,987.61c-6.15-10.88-13.28-21.54-17.18-33.55a64.79,64.79,0,0,1-.6-36.84c6.83-25.67,24-47.05,31-72.57,8-28.89-3.23-61.38-15.68-87.42-13.74-28.59-32.12-55-53.36-78.57-18.53-20.56-38.79-39.17-55.15-61.61a356.55,356.55,0,0,1-22.82-35.72c-7-12.38-12.83-25.66-21.68-36.84-13.29-16.74-30.85-26.12-51.48-30.85-25.37-5.85-52-6.45-76.62-15.23-28.14-10.06-52.83-26.79-78.94-40.9-14.41-7.8-29.19-15.53-45.4-18.61-15.76-3-31.82-2.47-47.66-.45-31,4.05-62.43,13.21-94,10.73-31.14-2.47-61.38-17.78-92.9-15.31-33.54,2.63-65.13,15.24-97.85,22.07-24.09,5-50.43,8-71.59,21.53-24.47,15.61-36.55,41.8-53.13,64.46-7.88,10.66-16.81,20.42-27.77,27.84-11.33,7.66-23,14.86-34.44,22.29C536.22,604.29,517,616.6,500.35,632a175,175,0,0,0-39,52.16c-13.81,28.06-21.24,59-32.12,88.25-12,32.34-25,64.46-33.32,98-4.05,16.29-6.08,32.94-10.28,49.23s-9.83,33.17-10.06,50.28c-.15,15.38,4.21,29.34,8.86,43.82,2.77,8.63,4.65,17.11,4.73,25.74,5.32,12.31,6.75,26.12,6.52,39.85H1479c1.35-2.48,2.63-5,3.9-7.51,6.46-13.5,10.73-28.14,11-43.15S1489.55,1000.51,1482.34,987.61Z" style="fill:#ac6036"/><path d="M611.63,1026.33a71.66,71.66,0,0,0,17.26,27.09c7.21,7,15.54,12.38,23.79,18.16,3.83,2.62,7.73,5.25,11.71,7.73h611.89c.52-1,1.12-2,1.65-2.93,4.58-8.48,7.65-17.33,11.18-26.26,4-9.83,8.71-19.36,13.43-28.89,9.38-18.92,20.79-39.63,20.49-61.09-.23-19.58-8.33-38.27-18.54-55-10.65-17.49-23.71-33.47-37.07-49.16-6.15-7.28-11.85-15.15-18.53-22a101.32,101.32,0,0,0-22.06-17c-15.69-9-32.95-14.56-49.76-21.24-17.33-6.9-33.32-15.46-47.87-26.86-5.63-4.43-10.73-9.24-16-14-3.9-3.67-8-7.2-13-9.53-6.75-3.15-14.41-4.43-21.84-5.1-12-1-24-2-36.09-2.7s-24.09-1.13-35.95-2.85c-10.8-1.58-21.68-2.78-32.64-3.53C890,725.34,804.87,743,732.38,783.79a398.36,398.36,0,0,0-51.93,34.67c-16.06,12.68-30.39,27-46.23,39.85-14.11,11.48-28.81,23.71-34.82,41a61.4,61.4,0,0,0-2.85,30.54c1.65,10,5,19.52,8.26,29,0,0,17.18,24.68,7.65,28.29-29.79,11.25,1.28,13.58-.53,20.26S609.23,1019.8,611.63,1026.33Z" style="fill:#8e512c"/><rect x="-0.33" y="1021.6" width="1909.73" height="58.53" style="fill:#8e512c"/><polygon points="1325.58 405.21 1314.55 405.21 1314.55 393.13 1314.55 386.07 638.88 389.82 596.25 393.95 596.25 401.01 596.25 405.21 583.57 405.21 568.41 1048.69 583.19 1048.69 611.93 1048.69 615.61 448.13 650.66 450.68 1293.54 444.83 1297.21 1048.69 1325.96 1048.69 1340.74 1048.69 1325.58 405.21" style="fill:#8e512c"/><rect x="1570.29" y="991.88" width="23.64" height="78.42" style="fill:#5f4424"/><rect x="1564.74" y="991.88" width="23.64" height="78.42" style="fill:#825d31"/><rect x="1531.72" y="986.11" width="23.64" height="78.42" style="fill:#412c0f"/><rect x="1526.24" y="986.11" width="23.64" height="78.42" style="fill:#614520"/><rect x="977.16" y="986.11" width="23.64" height="78.42" style="fill:#412c0f"/><rect x="971.61" y="986.11" width="23.64" height="78.42" style="fill:#614520"/><rect x="939.57" y="991.88" width="23.64" height="78.42" style="fill:#5f4424"/><rect x="934.09" y="991.88" width="23.64" height="78.42" style="fill:#825d31"/><polygon points="1711.37 1004.57 820.63 1004.57 937.24 959.62 1594.76 959.62 1711.37 1004.57" style="fill:#825d31"/><rect x="820.63" y="1004.57" width="890.74" height="11.63" style="fill:#5f4424"/><path d="M982.42,876.39V831.67l4.72-4.73H971.31V876.7a22.35,22.35,0,1,0,11.11-.31Z" style="fill:#e9f5f1"/><path d="M977.39,921.19a22.87,22.87,0,0,1-6.53-44.8v-49.9h17.33l-5.4,5.41v44.19a22.87,22.87,0,0,1-5.4,45.1Zm-5.63-93.8V877l-.3.07a21.92,21.92,0,1,0,10.81-.3l-.38-.08V831.44l4.05-4.05Z" style="fill:#74a6d8"/><path d="M977.24,919.47a19.28,19.28,0,0,0,19.28-19.29H958A19.22,19.22,0,0,0,977.24,919.47Z" style="fill:#54b850"/><path d="M993.75,929.45v42.92a5.78,5.78,0,1,0,11.55,0V929.45Z" style="fill:#e9f5f1"/><path d="M999.52,978.6a6.21,6.21,0,0,1-6.22-6.23V929h12.45v43.37A6.21,6.21,0,0,1,999.52,978.6ZM994.2,930v42.4a5.33,5.33,0,1,0,10.65,0V930Z" style="fill:#74a6d8"/><path d="M994.57,964.87v7.28a5,5,0,0,0,9.91,0v-7.28Z" style="fill:#ec1e24"/><path d="M975.59,929.45v42.92a5.78,5.78,0,1,0,11.55,0V929.45Z" style="fill:#e9f5f1"/><path d="M981.36,978.6a6.21,6.21,0,0,1-6.22-6.23V929h12.45v43.37A6.26,6.26,0,0,1,981.36,978.6ZM976,930v42.4a5.33,5.33,0,1,0,10.65,0V930Z" style="fill:#74a6d8"/><path d="M976.41,964.87v7.28a5,5,0,0,0,9.91,0v-7.28Z" style="fill:#4868b0"/><path d="M957.35,929.45v42.92a5.78,5.78,0,0,0,11.56,0V929.45Z" style="fill:#e9f5f1"/><path d="M963.13,978.6a6.22,6.22,0,0,1-6.23-6.23V929h12.46v43.37A6.17,6.17,0,0,1,963.13,978.6ZM957.8,930v42.4a5.33,5.33,0,0,0,10.66,0V930Z" style="fill:#74a6d8"/><path d="M958.25,964.87v7.28a5,5,0,0,0,9.91,0v-7.28Z" style="fill:#e4d91b"/><path d="M1557.53,897.71V880.22l4.73-4.73h-15.83v22.44a22.53,22.53,0,1,0,11.1-.22Z" style="fill:#e9f5f1"/><path d="M1552.51,942.51a22.87,22.87,0,0,1-6.53-44.8V875.12h17.33l-5.4,5.4v16.89a22.87,22.87,0,0,1-5.4,45.1Zm-5.63-66.57v22.37l-.3.07a21.92,21.92,0,1,0,10.8-.3L1557,898V880l4-4.06Z" style="fill:#74a6d8"/><path d="M1552.43,940.78a19.28,19.28,0,0,0,19.29-19.29h-38.5A19.18,19.18,0,0,0,1552.43,940.78Z" style="fill:#8c53a0"/><path d="M1648.63,945.13V925.32l8-9.08h-20.26v28.89l-18.39,30.09c3.45-.9,49.08,0,49.08,0Z" style="fill:#e9f5f1"/><path d="M1617,976l18.91-31V915.79h21.68l-8.47,9.76v19.51l18.76,30.69H1667c-.23,0-20.49-.38-34.82-.38-10.51,0-13.43.23-14.11.38Zm15.23-1.58c12.76,0,30,.3,34,.37l-18-29.49V925.17l7.43-8.48h-18.76v28.52l-17.93,29.41C1620.87,974.47,1625.22,974.4,1632.2,974.4Z" style="fill:#74a6d8"/><polygon points="1633.55 955.26 1622.82 971.47 1660.42 971.47 1649.61 955.26 1633.55 955.26" style="fill:#e4d91b"/><path d="M892.07,826.27v42.92a5.78,5.78,0,1,0,11.55,0V826.27Z" style="fill:#e9f5f1"/><path d="M897.84,875.42a6.22,6.22,0,0,1-6.23-6.23V825.82h12.46v43.37A6.21,6.21,0,0,1,897.84,875.42Zm-5.32-48.7v42.4a5.33,5.33,0,0,0,10.65,0v-42.4Z" style="fill:#74a6d8"/><path d="M892.89,861.69V869a5,5,0,0,0,9.91,0v-7.28Z" style="fill:#ec1e24"/><rect x="1595.58" y="830.99" width="4.88" height="157.51" style="fill:#2c2829"/><rect x="1570.89" y="984.68" width="44.05" height="3.83" style="fill:#2c2829"/><rect x="928.31" y="830.99" width="4.88" height="157.51" style="fill:#2c2829"/><rect x="889.51" y="846.68" width="49.9" height="3.98" style="fill:#2c2829"/><rect x="925.91" y="867.77" width="59.36" height="2.48" style="fill:#2c2829"/><rect x="903.62" y="984.68" width="108.89" height="3.83" style="fill:#2c2829"/><path d="M998.62,945.73H964.11a22.74,22.74,0,1,0,0,45.48h34.51a22.74,22.74,0,1,0,0-45.48Zm-1.2,43.9H965.31a21.16,21.16,0,1,1,0-42.32h32.11a21.16,21.16,0,1,1,0,42.32Z" style="fill:#2c2829"/><rect x="1588.9" y="940.78" width="64.84" height="2.4" style="fill:#2c2829"/><rect x="1542.83" y="887.35" width="63.64" height="4.2" style="fill:#2c2829"/><path d="M938.37,848.63a5.51,5.51,0,0,1-5.48,5.48h-4.35a5.51,5.51,0,0,1-5.48-5.48h0a5.51,5.51,0,0,1,5.48-5.48h4.35a5.51,5.51,0,0,1,5.48,5.48Z" style="fill:#545252"/><path d="M938.37,870.32a5.51,5.51,0,0,1-5.48,5.47h-4.35a5.5,5.5,0,0,1-5.48-5.47h0a5.5,5.5,0,0,1,5.48-5.48h4.35a5.46,5.46,0,0,1,5.48,5.48Z" style="fill:#545252"/><path d="M1605.64,889.45a5.51,5.51,0,0,1-5.48,5.48h-4.35a5.51,5.51,0,0,1-5.48-5.48h0a5.51,5.51,0,0,1,5.48-5.48h4.35a5.51,5.51,0,0,1,5.48,5.48Z" style="fill:#545252"/><path d="M1605.64,942.06a5.51,5.51,0,0,1-5.48,5.47h-4.35a5.5,5.5,0,0,1-5.48-5.47h0a5.5,5.5,0,0,1,5.48-5.48h4.35a5.46,5.46,0,0,1,5.48,5.48Z" style="fill:#545252"/><path d="M1581.47,964.64V949.19l6.23-7.13h-15.83v22.58l-14.41,23.57c2.7-.68,38.35,0,38.35,0Z" style="fill:#e9f5f1"/><path d="M1556.48,988.88l14.94-24.39V941.61h17.26l-6.76,7.73v15.15l14.79,24.17h-.83c-.15,0-16-.3-27.24-.3-8.18,0-10.51.15-11,.3Zm12.16-1.42c9.76,0,23,.22,26.42.3l-14-23V949l5.71-6.46h-14.41v22.29l-14,22.89C1559.56,987.53,1562.26,987.46,1568.64,987.46Z" style="fill:#74a6d8"/><polygon points="1569.69 972.52 1561.29 985.21 1590.63 985.21 1582.22 972.52 1569.69 972.52" style="fill:#4868b0"/><path d="M1499.53,974.62l19.43,3.83,7.36,9.61,1.57-7.81,2.4-12L1502,962.62l-26-23.94c.22,3.53-9.61,48.1-9.61,48.1Z" style="fill:#e9f5f1"/><path d="M1475.44,937.55l26.64,24.62,28.66,5.7-4.2,21.24-7.88-10.21-19.13-3.83-33.77,12.39.15-.83c.07-.22,4.35-20,7.2-34.07,2-10.28,2.4-13.21,2.4-14ZM1474,952.79c-2.47,12.45-6.15,29.41-7,33.32l32.5-11.94,19.66,3.91L1526,987l3.67-18.39-28-5.55-25.36-23.34C1476.11,941.61,1475.36,946,1474,952.79Z" style="fill:#74a6d8"/><ellipse cx="1426.21" cy="991.51" rx="53.28" ry="5.25" style="fill:#ec1e24"/><ellipse cx="1428.84" cy="981.75" rx="28.22" ry="6.15" style="fill:#ec1e24"/><path d="M1441.75,991.13l42.84-1.42a5.78,5.78,0,1,0-.45-11.56l-42.85,1.43Z" style="fill:#e9f5f1"/><path d="M1490.6,983.7a6.22,6.22,0,0,1-6,6.46l-43.3,1.42-.45-12.45,43.3-1.43A6.28,6.28,0,0,1,1490.6,983.7Zm-48.48,7,42.4-1.42a5.33,5.33,0,0,0-.3-10.66l-42.4,1.43Z" style="fill:#74a6d8"/><path d="M1477.09,989.11l7.28-.23a5,5,0,1,0-.3-9.9l-7.28.22Z" style="fill:#ec1e24"/><path d="M1649.76,243.57c.15.07.38-.08.6-.3l1-1a5,5,0,0,1,3.6-1.2,7.34,7.34,0,0,1,3.68,1.65c.82.68,1.35,1.28,1.65,1.13s.15-1-.6-2.1a6.27,6.27,0,0,0-1.73-1.73,5.77,5.77,0,0,0-2.85-1,5.88,5.88,0,0,0-3.08.6,4.49,4.49,0,0,0-1.8,1.73,4.58,4.58,0,0,0-.6,1.5C1649.61,243.27,1649.61,243.49,1649.76,243.57Z" style="fill:#482f14"/><path d="M1654.64,235.69a.48.48,0,0,0,.52-.08c.15-.07.23-.15.38-.22a3.78,3.78,0,0,1,.52-.23,2.65,2.65,0,0,1,2.48,0,6,6,0,0,1,2.1,2c.53.68.83,1.2,1.13,1.13s.45-.68.22-1.73a5.16,5.16,0,0,0-.75-1.65,4.41,4.41,0,0,0-1.72-1.58A3.86,3.86,0,0,0,1657,233a4.32,4.32,0,0,0-1,.45,2.51,2.51,0,0,0-.67.6,4.46,4.46,0,0,1-.45.6c-.08.15-.15.37-.23.52S1654.49,235.61,1654.64,235.69Z" style="fill:#482f14"/><path d="M39.44-1.29a1.88,1.88,0,0,1-3.07.6l-.61-.6h-36v1080.6H300.36c-18.16-22.89-54.25-37.6-76.69-48.78,9-24.76,18-49.53,18-76.54s-24.76-47.28-27-67.54c-2.25-11.26,15.76-24.76,18-36,2.26-13.51-6.75-22.51-4.5-31.52,4.5-29.26,29.27-51.78,33.77-81,4.5-33.77-11.26-47.28-29.27-76.54-20.26-31.52-11.25-36,0-69.79,9-20.26,15.76-47.28,13.51-69.79-2.25-27-27-45-31.52-67.54-2.25-20.26,15.76-38.27,18-60.78,0-9-9-27-9-29.27,2.25-15.76,42.55-32.72,47.05-48.55,5.93-14.11-2.1-53.28,25.44-71.67,12.53-8.33,46-22.88,61-37.89,18-18,40.67-110.39,67.69-114.89,24.76-2.25,53.2-39.92,82.47-37.67,22.51,2.25,42.77,2.25,63,2.25,29.27,0,56.28,0,83.3-6.75,60.78-11.26,49.53,9,110.31-9,13.51-6.75,74.22-6,56.28-9-20-3.38,60.78,4.5,67.54,11.25C908.05,58,962.08,24.22,986.84,31c60.79,20.26,123.82,20.26,186.86,20.26,39.24,0,74.21-10.51,109-27.54C1254.59,43.58,1431.54,139.34,1512.21,98c0,0,110.61,211.32,193.46,174-21.47,13.36-32,32.34-29.94,58.38,0,13.51,11.25,24.77,11.25,36-2.25,15.76-11.25,18-20.26,33.77-20.26,40.52-20.26,96.8-15.76,139.58,4.5,27,11.26,54,24.77,76.54,6.75,11.26,24.76,29.27,27,40.52,4.5,20.26-2.25,15.76-9,36-13.51,24.77-22.52,42.78-15.76,72,4.5,18,22.51,47.28,20.26,65.29-2.25,11.26-15.76,18-18,33.77,0,15.76,11.25,20.26,11.25,33.77,2.26,22.51,2.26,9-4.5,29.26-2.25,11.26-13.51,24.77-18,36-11.25,36-20.26,40.53-40.52,69.79-11.41,13.06-13.36,32-17.86,46.53h310V-1.29Z" style="fill:#754123"/><path d="M103.9,681.59c27.32-8.56,51.93-24,75-40.6,15.69-11.26,29.27-22.44,46.08-28.59,2.1-5.7,4.8-12.38,7.65-20.94,9-20.26,15.76-47.27,13.51-69.79-2.25-27-27-45-31.52-67.53-2.25-20.27,15.76-38.28,18-60.79,0-9-9-27-9-29.26a12.48,12.48,0,0,1,.75-2.78c-25.36,6.53-50.35,15.46-75.27,24.61-47.27,17.49-97.7,38.8-149,44.13v257c1.57.3,3.07.53,4.65.83C38,693.14,71.78,691.64,103.9,681.59Z" style="fill:#693a20"/><path d="M.2,690.29v389H300.36c-4.5-14.56-50.2-37.67-61.53-50.73C218.57,999.31,256,1005,244.76,969c-4.51-11.26-8.71-30.85-11-42.1-6.75-20.26-17.56-18.61-15.31-41.12,0-13.51,17.86-14.64,17.86-30.4-2.25-15.76-11.56-14-13.81-25.21-2.25-18,15.76-47.28,20.26-65.29,6.76-29.26,22.59-58,9.08-82.77-6.75-20.26-34.06-23-29.56-43.22,2.25-11.26,5.18-2.25,11.93-13.51.9-1.5,12.46-19.36,13.28-20.86-14.41.9-28.36,12.23-41.27,20.71-23.94,15.76-45.18,34.22-70.91,47.43C91.9,694.87,46.27,697.12.2,690.29Z" style="fill:#5e361d"/><path d="M1771.7,385.92c-28.36-10.43-56.88-20.63-86-27.24a23,23,0,0,1,1.42,7.66c-2.25,15.76-11.26,18-20.26,33.77-20.26,40.52-20.26,96.8-15.76,139.57,3.9,23.64,9.61,47.2,20,67.84,1.5.08,3.08.15,4.58.3,27.32,2.55,44.8,17.64,66.26,33.09,23.11,16.59,47.73,32.05,75,40.6,32.12,10.06,65.89,11.56,99.06,6.23,1.57-.22,3.15-.53,4.65-.83V430.05C1869.48,424.72,1819.05,403.41,1771.7,385.92Z" style="fill:#693a20"/><path d="M1785.51,672.58c-25.74-13.21-46.9-31.67-70.91-47.42a83.1,83.1,0,0,0-41.35-13.44c.82,1.5,1.72,3,2.55,4.51,6.75,11.25,24.76,29.26,27,40.52,4.51,20.26-2.25,15.76-9,36-13.51,24.76-22.51,42.77-15.76,72,4.5,18,22.51,47.27,20.26,65.28-2.25,11.26-15.76,18-18,33.77,0,15.76,11.26,20.26,11.26,33.77,2.25,22.51,2.25,9-4.5,29.27-2.26,11.25-13.51,24.76-18,36-11.26,36-20.27,40.52-40.53,69.79-11.4,13-13.35,32-17.86,46.52h310V690.29C1874.66,697.12,1829,694.87,1785.51,672.58Z" style="fill:#5e361d"/><path d="M1712.65,664.4c-.53-.82-1.58-1.35-3.31-1.35a7.65,7.65,0,0,0-1.35.08c-.45.07-1,.15-1.57.22s-1.13.23-1.73.45-1.27.45-2,.68a37.82,37.82,0,0,0-9.08,5.1,56.22,56.22,0,0,0-10.06,9.83,65.43,65.43,0,0,0-8.78,14.56c-.67,1.35-1.2,2.85-1.8,4.28s-1.12,3-1.57,4.5a93.55,93.55,0,0,0-2.48,9.53,120.6,120.6,0,0,0-.3,42.55,145.25,145.25,0,0,0,12.53,39.62,123.25,123.25,0,0,0,18.61,28.37c6.53,7.27,13,12.08,18,14.55s8.56,2.63,9.76,1,.22-4.72-1.88-9.15-5.4-10.43-8.93-18a267,267,0,0,1-10.88-27,225.08,225.08,0,0,1-8.63-34.14,146.33,146.33,0,0,1-1.87-34.07,90.15,90.15,0,0,1,5.62-26.11,109.68,109.68,0,0,1,8.63-16.74C1712.27,669.13,1713.7,666.13,1712.65,664.4Z" style="fill:#7f4b30"/><path d="M1706.64,831a5.06,5.06,0,0,0-2-2.25,7.9,7.9,0,0,0-1.57-.75c-.31-.07-.61-.22-1-.3s-.68-.07-1.05-.15a13.73,13.73,0,0,0-2.4,0,21,21,0,0,0-2.7.53,21.78,21.78,0,0,0-6.08,2.85,33.51,33.51,0,0,0-11.18,12.91,45,45,0,0,0-3.38,9.23,51.72,51.72,0,0,0-1.28,10.28,49.72,49.72,0,0,0,1,10.2,41.78,41.78,0,0,0,3.08,9.16c2.7,5.63,6.37,10.28,10.35,13.13,1,.68,2,1.35,2.93,1.88a18.82,18.82,0,0,0,2.85,1.27,25.69,25.69,0,0,0,2.7.75,14.34,14.34,0,0,0,2.4.23,4.31,4.31,0,0,0,1.05-.08,3.53,3.53,0,0,0,1-.22,8.78,8.78,0,0,0,1.65-.6,4.74,4.74,0,0,0,2.1-2.1,7.6,7.6,0,0,0,.75-2.93v-1.65c0-.3-.07-.53-.07-.83s-.08-.6-.08-.9a11,11,0,0,0-.3-1.72,15.31,15.31,0,0,0-.3-1.88c-.22-1.13-.37-2.48-.67-3.9-.45-2.63-.83-5.63-1.13-8.93-.15-1.65-.3-3.38-.37-5.18s-.08-3.68-.08-5.55.15-3.75.23-5.48.3-3.45.52-5c.45-3.15.9-6,1.43-8.55.3-1.28.6-2.55.82-3.76l.45-1.8a15.14,15.14,0,0,0,.38-1.72c.07-.3.07-.6.15-.9s.07-.53.15-.83a11.91,11.91,0,0,0,.15-1.57A5.63,5.63,0,0,0,1706.64,831Z" style="fill:#7f4b30"/><path d="M1697.64,901.53a4.35,4.35,0,0,0-2.78-1.42,10,10,0,0,0-4.43.67c-3.37,1.2-7.35,4.06-11.18,8.18a64.25,64.25,0,0,0-10.58,16,84.4,84.4,0,0,0-7.05,22.21,67.83,67.83,0,0,0,.07,24.61,43.36,43.36,0,0,0,3.75,11.26,33,33,0,0,0,6.53,9.15,23.91,23.91,0,0,0,8,5.26,16.6,16.6,0,0,0,6.91,1.12c.45-.07.9-.07,1.35-.15s.82-.22,1.2-.3a5.92,5.92,0,0,0,1.87-.9,4.14,4.14,0,0,0,1.8-2.55c.46-1.95-.67-4.13-1.8-6.45a32,32,0,0,1-1.65-3.68,21.91,21.91,0,0,1-1-4.13,40.83,40.83,0,0,1-.45-4.95c-.08-1.88-.08-4.05,0-6.45a145.11,145.11,0,0,1,2-16.89c1-6.3,2.32-12.38,3.6-18s2.4-10.65,3.38-15a94.56,94.56,0,0,0,1.8-10.73,21.48,21.48,0,0,0-.08-3.82A6.57,6.57,0,0,0,1697.64,901.53Z" style="fill:#7f4b30"/><path d="M1617.64,1081.26c4.13-8.33,9.16-17.34,14.71-26.87,5.85-10.05,11.63-19.58,17-28.29s10.06-16.58,14-23.26a184.08,184.08,0,0,0,8.78-16.28,23.29,23.29,0,0,0,1.8-5.11,4.5,4.5,0,0,0-.3-3.37c-.52-.83-1.57-1.35-3.22-1.28a16.76,16.76,0,0,0-6,1.5c-4.65,2-10.5,5.85-16.81,11.33a178.16,178.16,0,0,0-20.11,21,232,232,0,0,0-20.26,29.2,176.58,176.58,0,0,0-15.16,32.94c-.9,2.85-1.72,5.7-2.47,8.48Z" style="fill:#7f4b30"/><path d="M1700.64,362.73c-.83-.6-2.33-.15-4.5,1.21a39.21,39.21,0,0,0-3.76,2.77,56.3,56.3,0,0,0-4.65,4.2c-1.72,1.66-3.53,3.46-5.48,5.56s-4,4.42-6.15,6.9c-1.13,1.28-2.18,2.63-3.3,4s-2.25,2.85-3.45,4.35-2.33,3.08-3.53,4.73-2.4,3.3-3.6,5-2.4,3.6-3.6,5.47c-.6.9-1.21,1.88-1.81,2.86s-1.27,1.95-1.8,2.92c-2.32,4.05-4.8,8.26-7,12.76-.6,1.13-1.13,2.25-1.73,3.45-.3.6-.6,1.13-.9,1.73s-.52,1.2-.82,1.8c-1,2.4-2.18,4.88-3.23,7.35s-2,5.11-2.93,7.81c-.22.67-.52,1.35-.75,1.95l-.67,2c-.45,1.35-.83,2.78-1.28,4.13-.82,2.78-1.72,5.55-2.4,8.48s-1.42,5.78-2,8.78-1,6-1.58,9.08a46.48,46.48,0,0,0-.6,4.65c-.15,1.58-.38,3.16-.53,4.73-.07.75-.15,1.58-.22,2.4s-.15,1.58-.23,2.4c-.07,1.58-.15,3.16-.22,4.81-.15,3.22-.38,6.45-.23,9.68s.08,6.45.15,9.75c.08,1.65.15,3.53.3,5.18s.3,3.45.53,5.18a185.39,185.39,0,0,0,3.53,19.51c1.42,6.3,3.15,12.31,4.95,18.23a287.88,287.88,0,0,0,12.61,33.1c9.38,20.56,20.56,38,32.56,51a98.16,98.16,0,0,0,18.31,15.68,69.9,69.9,0,0,0,8.93,4.8,49.25,49.25,0,0,0,8.18,2.7,28,28,0,0,0,11.86.38,10.73,10.73,0,0,0,3-1.13,2,2,0,0,0,1-1.42,2.18,2.18,0,0,0-.82-1.5,18.49,18.49,0,0,0-2.4-1.65c-2.11-1.2-5-2.71-8.41-5a56.51,56.51,0,0,1-5.4-4.13,79,79,0,0,1-5.86-5.55,113.3,113.3,0,0,1-12.45-15.76c-8.41-12.61-16.66-29.27-23.94-48.55-3.68-9.68-7-20-10.06-30.77-1.5-5.4-2.85-10.88-4-16.51s-2.25-11.26-2.93-16.81c-.15-1.42-.3-2.78-.45-4.13s-.22-2.62-.3-4.05c-.07-2.85-.15-5.7-.22-8.55s0-5.63.07-8.41c0-1.35.08-2.77.08-4.13,0-.67.07-1.35.07-2s.08-1.35.15-2c.08-1.35.23-2.7.3-4.05s.15-2.7.38-4c.38-2.62.68-5.25,1-7.88s.9-5.1,1.35-7.65,1-5,1.57-7.43c.3-1.2.6-2.48.83-3.68l.45-1.8c.15-.6.37-1.2.52-1.8.68-2.32,1.28-4.73,2-7l2.25-6.75c.15-.53.38-1.13.53-1.65s.37-1.05.6-1.65c.37-1.05.82-2.18,1.2-3.23,1.5-4.28,3.37-8.33,4.95-12.31.37-1,.83-2,1.28-2.92s.9-1.88,1.27-2.85c.9-1.88,1.65-3.76,2.55-5.48s1.73-3.53,2.55-5.26,1.58-3.37,2.48-4.95,1.58-3.15,2.33-4.73,1.5-3,2.25-4.42c1.5-2.86,2.77-5.56,4-8s2.4-4.73,3.3-6.83,1.8-4,2.47-5.63a33,33,0,0,0,1.5-4.35C1701.46,364.91,1701.46,363.34,1700.64,362.73Z" style="fill:#7f4b30"/><path d="M1714.15,265.18a4.06,4.06,0,0,0-1.5-2.78,11.28,11.28,0,0,0-4.36-2.25,22.79,22.79,0,0,0-7.2-.82,31.34,31.34,0,0,0-9.91,2,36.52,36.52,0,0,0-11,6.68,41.67,41.67,0,0,0-9,11.48,58,58,0,0,0-5.4,14c-.6,2.47-1,4.87-1.43,7.43a61.83,61.83,0,0,0-.67,7.5,101.3,101.3,0,0,0,2.47,27,99.57,99.57,0,0,0,6.68,20.34,51.2,51.2,0,0,0,7.66,12.53c2.47,2.7,4.8,4,6.68,3.45,3.9-1.05,5.47-8.85,5.62-20.18.15-5.7-.07-12.31-.22-19.44s-.38-14.78,0-22.28,1.27-14.11,2.85-19.14a30.94,30.94,0,0,1,6.15-11.71,48.16,48.16,0,0,1,4.28-4.2c1.5-1.27,2.93-2.4,4.2-3.45C1712.57,269.16,1714.3,267.21,1714.15,265.18Z" style="fill:#7f4b30"/><path d="M1586.88,167.4c-.83-.22-2,.23-3.38,1.5a8,8,0,0,0-1.13,1.13,14.33,14.33,0,0,0-1,1.5c-.37.6-.75,1.12-1.12,1.8s-.68,1.35-1,2.1a40.68,40.68,0,0,0-3.31,11.33c-.15,1.05-.3,2.25-.37,3.38s-.08,2.33-.15,3.53.07,2.4.15,3.6.22,2.4.37,3.68c1.28,10,5,20.41,10.74,30.46a119.9,119.9,0,0,0,9.9,14.71,133.6,133.6,0,0,0,12.46,13.81c2.25,2.17,4.58,4.35,7,6.3a81.18,81.18,0,0,0,7.5,5.7,70.71,70.71,0,0,0,16.66,8.41,78.52,78.52,0,0,0,16.66,3.68c2.63.37,5.18.45,7.65.6s4.81.07,7.06,0a104.42,104.42,0,0,0,21.31-2.63c5.18-1.35,8.25-2.93,8.93-4.95s-1.43-4.13-5.55-6.31-10.51-4.2-18.09-6.45c-1.87-.53-3.83-1.2-5.85-1.8s-4-1.28-6.08-2a102.45,102.45,0,0,1-12.31-5.25,71.77,71.77,0,0,1-11.85-7.8c-1.88-1.43-3.91-3.31-5.93-5.11s-4-3.75-6.08-5.7c-4-4-8-8-11.56-11.93s-7-7.88-10-11.71a114.73,114.73,0,0,1-13.73-21.46c-.38-.83-.75-1.58-1-2.4a19.08,19.08,0,0,0-1-2.25c-.22-.75-.52-1.5-.75-2.18s-.45-1.42-.67-2.1a60.42,60.42,0,0,1-1.65-7.28c-.08-.52-.23-1.05-.3-1.58s-.15-1-.23-1.42-.15-.9-.22-1.28-.15-.75-.23-1.12A3.22,3.22,0,0,0,1586.88,167.4Z" style="fill:#7f4b30"/><path d="M1515.44,99.41c-1.65.68-2.93,3.23-3.53,7.43a57.39,57.39,0,0,0,.37,16.21,109.68,109.68,0,0,0,5.63,21.54,107.69,107.69,0,0,0,11.93,23.34,70.91,70.91,0,0,0,18,18.76c6.76,4.65,14.26,7.28,21.32,7.28a29.81,29.81,0,0,0,9.6-1.58,23.77,23.77,0,0,0,6.9-3.68,14.82,14.82,0,0,0,2.26-2,8.21,8.21,0,0,0,1.42-1.95,4.49,4.49,0,0,0,.68-3.16c-.45-1.8-2.48-2.47-5.26-3.22-1.35-.38-2.92-.83-4.57-1.35a37.73,37.73,0,0,1-5.18-2.33,49.79,49.79,0,0,1-11.86-9.53,129.79,129.79,0,0,1-13-16.51c-4.35-6.45-8.33-13-11.93-19.06s-6.76-11.63-9.61-16.28a77.63,77.63,0,0,0-7.43-10.81C1519,99.94,1517.09,98.74,1515.44,99.41Z" style="fill:#7f4b30"/><path d="M1274.63,23.32c-.38,0-.83.23-1.28.9a8.89,8.89,0,0,0-1.12,3.08A23.2,23.2,0,0,0,1273.35,39a48.37,48.37,0,0,0,7.73,14.18A94.21,94.21,0,0,0,1294.29,67c10.35,8.93,23.64,17.33,38.79,25,7.58,3.83,15.76,7.43,24.32,10.74,4.28,1.65,8.7,3.22,13.28,4.65,2.25.75,4.58,1.42,7,2.1a74.23,74.23,0,0,0,7.58,1.73c9.23,1.65,18.23,3.3,27.16,4.65s17.49,2.47,25.82,3.22c16.66,1.43,32.12,1.13,45.1-.9s23.49-5.62,30.39-9.38,10.36-7.13,10-8.93c-.37-2-4.43-2.17-11.26-2s-16.58.6-28.51-.07a331.33,331.33,0,0,1-41.72-5.18c-7.88-1.35-16.14-3-24.77-4.73s-17.63-3.6-26.94-5.25c-1.87-.38-4-.83-6.15-1.43s-4.2-1.12-6.38-1.8c-4.2-1.27-8.4-2.62-12.53-4-8.26-2.78-16.14-5.71-23.57-8.63-14.85-5.93-28.06-11.94-38.49-17.79a125.41,125.41,0,0,1-13.51-8.63,49.09,49.09,0,0,1-8.7-8,31.92,31.92,0,0,1-4.21-6.23c-.45-.83-.82-1.58-1.12-2.1S1275.08,23.32,1274.63,23.32Z" style="fill:#7f4b30"/><path d="M981.74,26.55c-.68.67-.6,2.17.45,4.43l.45.9c.15.3.38.6.53.9a21.76,21.76,0,0,0,1.35,1.95,5.59,5.59,0,0,0,.82,1.05,13.31,13.31,0,0,0,1,1c.67.75,1.42,1.5,2.17,2.33a75.57,75.57,0,0,0,12.84,9.53,122.23,122.23,0,0,0,18.76,9c14.25,5.55,31.74,10,51.17,13a440.47,440.47,0,0,0,63.56,4.88H1139c1.5,0,3-.07,4.42-.07s2.93-.15,4.36-.15,2.85-.15,4.27-.3c5.71-.38,11.19-1.06,16.59-1.73s10.58-1.58,15.68-2.55,10.06-2,14.86-3.15c19.29-4.58,36.25-10.58,50-17.34s24.09-14.33,29.94-21.09a29.41,29.41,0,0,0,2-2.47c.6-.83,1.12-1.5,1.57-2.25a25,25,0,0,0,2-4c.82-2.33.82-3.83,0-4.43s-2.25-.37-4.28.45c-1,.45-2.25.9-3.6,1.58-.68.3-1.43.67-2.18,1s-1.57.75-2.47,1.13a206.9,206.9,0,0,1-30.47,11,410.8,410.8,0,0,1-47.8,10.2c-4.58.75-9.23,1.43-14,2s-9.68,1.2-14.63,1.65-10,.9-15.08,1.2c-1.28.07-2.55.15-3.75.15s-2.48.07-3.76.07h-7.8c-21.61-.15-42.17-1-60.63-2.4a433.79,433.79,0,0,1-48.56-6.15c-6.75-1.28-12.83-2.7-18-4.2s-9.6-2.93-13.2-4.21-6.46-2.4-8.56-3.07S982.49,25.87,981.74,26.55Z" style="fill:#7f4b30"/><path d="M836.16,26.55c-.83,1.8.45,4.43,3.6,7.58s8.11,6.75,14.78,10.28a107.14,107.14,0,0,0,11.26,5.1,118.43,118.43,0,0,0,13.51,4.35,134.72,134.72,0,0,0,32.49,4.58,127.48,127.48,0,0,0,32.94-3.53,120.49,120.49,0,0,0,13.81-4.27A96.71,96.71,0,0,0,970,45.31c6.75-3.75,11.7-7.58,14.63-11s4-6.08,3.08-7.8c-1.95-3.6-11.11-2.4-24.39-.53-3.3.45-7,.9-10.81,1.43s-8,.9-12.23,1.2a275.46,275.46,0,0,1-27.91.9c-19.81-.45-38.05-3-51.71-4.65a117.49,117.49,0,0,0-16.81-1.2C839.76,23.85,837,24.75,836.16,26.55Z" style="fill:#7f4b30"/><path d="M672.57,26.55a3.67,3.67,0,0,0-.23,3.38,11.28,11.28,0,0,0,1.13,2.4,12.17,12.17,0,0,0,.82,1.35,14.84,14.84,0,0,0,1.13,1.42,35.47,35.47,0,0,0,2.85,3.08c1.13,1,2.4,2,3.75,3.15a18.31,18.31,0,0,0,2.25,1.58c.76.52,1.58,1.05,2.41,1.57A27.85,27.85,0,0,0,689.3,46c.9.53,1.88,1,2.85,1.5,7.88,3.91,17.94,6.91,29.12,8.63a142.2,142.2,0,0,0,17.41,1.51c1.5,0,3,.07,4.5.07s3.08,0,4.58-.07,3.15-.08,4.73-.15l1.2-.08a8.16,8.16,0,0,0,1.27-.07l1.35-.08,1.21-.15c6.45-.68,12.38-1.65,18.16-2.7s11.18-2.4,16.43-3.75A162.11,162.11,0,0,0,819.27,41c7.58-3.53,13.59-7.43,17.26-11.41A13.68,13.68,0,0,0,840,23.85a3.35,3.35,0,0,0-1-3.46,4.94,4.94,0,0,0-3.15-.67,47.39,47.39,0,0,0-4.8,0c-4.06.22-10.06.82-17.56,1.65s-16.59,1.88-26.64,3.08c-5,.6-10.28,1.27-15.76,1.95s-11.11,1.35-16.59,2a16.83,16.83,0,0,1-1.87.15c-.23,0-.6.07-1,.07l-1,.08-4.13.22-4.12.23c-1.35.07-2.7.07-4.06.15-5.32.15-10.35.3-15.15.22A201.06,201.06,0,0,1,698,27.9c-.9-.15-1.73-.23-2.63-.38a23.44,23.44,0,0,1-2.48-.37c-.82-.15-1.57-.23-2.32-.38s-1.5-.22-2.25-.37c-1.43-.3-2.78-.45-4.06-.68a33.35,33.35,0,0,0-3.52-.52,10.56,10.56,0,0,0-1.58-.15,9.41,9.41,0,0,0-1.42-.15,12.82,12.82,0,0,0-2.48,0A5.76,5.76,0,0,0,672.57,26.55Z" style="fill:#7f4b30"/><path d="M455,28.05c-.68.67-.75,2-.08,3.9a12.28,12.28,0,0,0,1.73,3.23A20,20,0,0,0,458,37.05c.52.6,1.05,1.28,1.65,2,.3.3.6.67,1,1.05a12.55,12.55,0,0,0,1.05,1l2.32,2.1c1.73,1.28,3.53,2.78,5.71,4.13A101.27,101.27,0,0,0,484.51,55c11.34,4.58,25.22,8.33,40.6,11a450.79,450.79,0,0,0,49.75,5.17l12.84.68c2.1.07,4.2.22,6.22.3,1.06.07,2.18.15,3.23.15s2.18.07,3.23.07,2.17,0,3.23.08h3.07c2,0,4.13,0,6.16-.08,4-.07,8.1-.22,12-.37,15.69-.83,30.09-3.15,41.8-6.83l4.28-1.35c1.35-.45,2.7-1.05,4-1.5s2.56-1,3.76-1.5,2.32-1.13,3.45-1.65c2.17-1,4.2-2.25,6-3.31a27.82,27.82,0,0,0,2.55-1.65c.75-.6,1.5-1.12,2.18-1.65a38.33,38.33,0,0,0,3.53-3,16.94,16.94,0,0,0,2.25-2.7c1.12-1.65,1.42-2.85,1-3.75s-1.72-1.35-3.6-1.43a17.63,17.63,0,0,0-3.3.15c-1.2.15-2.7.23-4.28.45-6.23.83-14.86,2.18-25.59,2.93-1.35.15-2.7.15-4.12.22l-4.28.23c-1.5.07-3,.07-4.5.15s-3.08,0-4.66.07c-6.38,0-13.2-.07-20.48-.37-3.61-.15-7.36-.3-11.18-.6-1.88-.08-3.83-.23-5.86-.38s-3.9-.22-5.85-.37c-1-.08-2-.15-2.93-.15l-3-.23c-1.05-.07-2.1-.15-3.15-.3l-3.23-.22c-4.28-.3-8.63-.6-13-.83-17.33-1-33.62-1.72-48.18-2.77s-27.46-2.48-38-4.28c-5.33-.9-10-1.88-14.11-2.85-2.1-.45-3.9-1-5.7-1.43-.83-.22-1.65-.52-2.48-.75-.38-.07-.83-.22-1.2-.3s-.75-.22-1.13-.38c-.75-.22-1.42-.45-2.1-.6s-1.27-.37-1.8-.52c-1.2-.3-2.25-.53-3.08-.75C457.05,27.22,455.7,27.37,455,28.05Z" style="fill:#7f4b30"/><path d="M372,121.85a5,5,0,0,0,3.22.45,40,40,0,0,0,4.36-.75c1.72-.37,3.67-.82,6.07-1.42s5.18-1.21,8.18-2,6.53-1.57,10.36-2.47,7.95-2,12.46-3.45c2.25-.75,4.65-1.51,7.13-2.48,1.27-.53,2.55-1,4-1.73.68-.3,1.5-.75,2.18-1.05.52-.3,1.12-.6,1.65-.9,4.5-2.47,9.15-5.1,13.66-8.18l3.37-2.25c1.13-.75,2.26-1.5,3.31-2.32,2.17-1.58,4.27-3.23,6.3-4.81s4-3.3,5.85-5,3.68-3.3,5.41-5,3.3-3.38,4.8-5a53.34,53.34,0,0,0,4.35-4.95c1.35-1.65,2.63-3.31,3.83-4.88s2.32-3.08,3.3-4.65c1.95-3.08,3.6-5.93,4.95-8.48a46.26,46.26,0,0,0,2.78-7.06c1.2-4.12,1.05-6.9-.53-8.18s-4.42-.82-8.1.9a56.7,56.7,0,0,0-6.23,3.53c-2.33,1.43-4.88,3.08-7.58,5-1.27,1-2.77,2-4.28,2.93s-3,2.1-4.5,3.22-3.15,2.25-4.8,3.38-3.38,2.4-5,3.6-3.53,2.4-5.4,3.68-3.6,2.62-5.63,3.9-3.9,2.63-5.85,4c-1,.67-2,1.35-3,2s-2,1.35-3.08,2c-4.05,2.78-8.18,5.25-12.08,7.88l-1.43,1c-.37.23-.67.45-1.05.68-.75.45-1.58.9-2.48,1.43-1.72,1-3.67,2-5.55,2.92-3.83,2-7.73,3.9-11.41,5.93s-7.05,4.13-10.13,6.23a63.6,63.6,0,0,0-8,6.68,28.36,28.36,0,0,0-5.1,6.83,11.83,11.83,0,0,0-1.5,5.7A3,3,0,0,0,372,121.85Z" style="fill:#7f4b30"/><path d="M267.94,207.1c-.6.82-.6,2-.22,3.53a34,34,0,0,0,2.4,5.55c1.13,2.17,2.4,4.73,3.75,7.58a59.4,59.4,0,0,1,3.45,9.6c.23.9.45,1.8.6,2.7a9.47,9.47,0,0,0,.3,1.36c.08.45.15,1,.23,1.42.15,1,.22,1.95.3,2.93,0,.52.07,1,.07,1.5s.08,1,.08,1.5a57.43,57.43,0,0,1-1.43,13.36c-2,9.53-6.45,20.18-12.53,31a269.54,269.54,0,0,1-19.88,29.94c-6.76,9-13.29,16.88-18.91,23.56S216,354.78,213,359s-4.35,7.21-3.3,8.93,4.5,1.88,9.76.3,12.3-4.95,20.26-10.28a155,155,0,0,0,25.51-21.53,161.8,161.8,0,0,0,24.92-33.25c1.8-3.3,3.52-6.6,5-10a103.45,103.45,0,0,0,4.06-10.36,92.24,92.24,0,0,0,4.5-21.16,65,65,0,0,0-1.28-20.34,53.51,53.51,0,0,0-6.75-16.73,46.54,46.54,0,0,0-9.31-11,41.48,41.48,0,0,0-8.78-5.86,20.64,20.64,0,0,0-6.45-2C269.67,205.9,268.54,206.27,267.94,207.1Z" style="fill:#7f4b30"/><path d="M190.8,340.22c-1.42,1.43-1.35,4.13.08,7.88s4.5,8.33,8.18,13.21c.9,1.2,1.87,2.48,2.85,3.75s2,2.55,2.77,3.83c1,1.27,1.73,2.55,2.63,3.9.75,1.35,1.58,2.63,2.18,4a38.73,38.73,0,0,1,3.07,8.4c.23.75.38,1.58.53,2.33.07.37.15.82.22,1.2.08.22.08.37.15.6l.08.67c.07.91.22,1.81.37,2.71.08.45.08,1,.15,1.5s.08,1.05.15,1.57c.15,1.05.15,2,.3,3.08s.15,1.95.23,3,.15,1.95.15,2.93.07,1.95.07,2.92,0,2,0,2.86v2.77c0,.9-.07,1.88-.07,2.78s-.08,1.8-.15,2.7c0,.45-.08.9-.08,1.35s-.07.9-.07,1.28c-.08.9-.15,1.72-.15,2.55s-.15,1.65-.23,2.48-.15,1.65-.22,2.4c-.23,1.57-.38,3.15-.6,4.57-.08.75-.23,1.5-.3,2.18s-.23,1.43-.38,2.1-.22,1.35-.3,2-.22,1.27-.37,1.87-.23,1.28-.3,1.88-.23,1.2-.3,1.73c-.23,1.12-.38,2.25-.53,3.22s-.3,1.95-.37,2.85-.15,1.73-.15,2.48a9.22,9.22,0,0,0,.15,2.1,4.9,4.9,0,0,0,1.42,2.93,3.88,3.88,0,0,0,3.15.75,13,13,0,0,0,2.18-.53,14.85,14.85,0,0,0,2.55-1.2,27,27,0,0,0,2.78-1.95,31.42,31.42,0,0,0,2.93-2.63l1.57-1.57c.53-.6,1-1.2,1.5-1.8s1-1.28,1.58-1.95,1-1.43,1.42-2.18,1-1.5,1.5-2.33l1.36-2.47c1-1.73,1.8-3.53,2.62-5.4.45-1,.83-2,1.2-2.93s.75-2,1.13-3.08.67-2.1,1-3.22c.15-.53.3-1.13.45-1.66a13.58,13.58,0,0,0,.38-1.65c.22-1.12.52-2.25.75-3.45s.37-2.32.6-3.53a30.92,30.92,0,0,0,.45-3.67c.15-1.2.3-2.48.38-3.75s.15-2.56.22-3.83,0-2.55,0-3.9-.07-2.63-.15-4-.15-2.7-.3-4c-.07-.67-.15-1.27-.23-1.95s-.15-1.28-.22-1.95c-.23-1.43-.45-2.78-.68-4.13l-.15-1.05c-.07-.37-.15-.67-.22-1.05-.15-.67-.38-1.42-.53-2.1a37.32,37.32,0,0,0-1.27-4.13,49,49,0,0,0-8-14.63,61.57,61.57,0,0,0-4.95-5.63,63,63,0,0,0-5-4.35,57.44,57.44,0,0,0-4.8-3.45c-1.58-1-3.08-1.88-4.43-2.7a68.12,68.12,0,0,0-13.88-6C194.93,338.8,192.23,338.8,190.8,340.22Z" style="fill:#7f4b30"/><path d="M201.31,452.78c-.68,2,1.57,4.58,5,8.33a86.66,86.66,0,0,1,12.24,16.06,89.08,89.08,0,0,1,5.77,12.24,108.93,108.93,0,0,1,4.51,15.15,164,164,0,0,1,3.6,37.22,220.9,220.9,0,0,1-3.68,38c-1.05,5.77-2.32,11.25-3.67,16.28s-2.86,9.68-4.36,13.81c-3,8.33-6.08,14.78-8.25,19.51s-3.38,7.88-2.18,9.53,4.88,1.35,10.28-1.65a46.39,46.39,0,0,0,8.78-6.68,74.46,74.46,0,0,0,9.38-11c12.38-17.41,22.37-45.55,22.59-77.52a133.49,133.49,0,0,0-7-45,95.87,95.87,0,0,0-8.7-18.53,71.49,71.49,0,0,0-11.33-14.26,56.5,56.5,0,0,0-12.16-9,36.56,36.56,0,0,0-10.58-4c-.75-.15-1.5-.3-2.18-.38s-1.35-.15-1.95-.15a10.37,10.37,0,0,0-3.15.23C202.66,451.21,201.68,451.81,201.31,452.78Z" style="fill:#7f4b30"/><path d="M222.32,638.89c-.68.75-.83,2-.53,3.53a16.34,16.34,0,0,0,.75,2.62c.15.45.38,1,.6,1.5s.45,1.13.68,1.73a31.66,31.66,0,0,0,1.73,3.68c.6,1.35,1.2,2.85,1.95,4.35.37.75.67,1.57,1.05,2.4s.67,1.65,1,2.48a28,28,0,0,1,1.05,2.62c.37.9.75,1.8,1.12,2.78A151.65,151.65,0,0,1,239.35,694c.9,5.33,1.65,10.88,2.1,16.66s.53,11.93.38,18.09-.75,12.3-1.43,18.08-1.8,11.41-2.92,16.66a194.4,194.4,0,0,1-8.56,27.54,29.08,29.08,0,0,1-1.2,2.78c-.37.9-.75,1.87-1.12,2.7s-.75,1.73-1.13,2.55-.68,1.65-1.05,2.4c-.75,1.5-1.35,3-1.95,4.36s-1.2,2.55-1.65,3.75c-.23.6-.45,1.12-.68,1.72s-.45,1-.6,1.5a16.72,16.72,0,0,0-.75,2.63c-.3,1.58-.15,2.78.53,3.53s1.8,1,3.45.75a18.36,18.36,0,0,0,2.78-.75,17.44,17.44,0,0,0,1.65-.68c.52-.3,1.12-.6,1.72-1,1.2-.68,2.55-1.5,4-2.48s2.78-2.18,4.28-3.45a28.8,28.8,0,0,0,2.25-2.1l2.32-2.33c.83-.82,1.51-1.65,2.33-2.55s1.5-1.8,2.33-2.78c6.23-7.73,12.08-18.16,16.58-30.39a137.27,137.27,0,0,0,5.4-19.73,146.39,146.39,0,0,0,2.41-21.84,150.9,150.9,0,0,0-1.13-22,137.35,137.35,0,0,0-4.35-20.11c-4-12.61-9.53-23.34-15.76-31.22-.83-1-1.58-2-2.33-2.85s-1.5-1.8-2.32-2.63-1.58-1.57-2.33-2.32a20.08,20.08,0,0,0-2.25-2.1c-1.5-1.28-3-2.48-4.28-3.45s-2.78-1.81-4-2.48a12,12,0,0,0-1.72-.9c-.6-.23-1.13-.45-1.65-.68a18.71,18.71,0,0,0-2.85-.75C224.12,637.91,223,638.14,222.32,638.89Z" style="fill:#7f4b30"/><path d="M222.32,804a7.69,7.69,0,0,0-1.58,2.63A21.54,21.54,0,0,0,220,810c-.37,2.4-.6,5-1,8.18s-.83,6.61-1.5,10.81-1.5,8.85-2.41,13.88c-2,10.13-4.05,19.59-5,26.87a47.86,47.86,0,0,0-.6,9.38,12.24,12.24,0,0,0,.67,3.52,6,6,0,0,0,1.65,2.55,5,5,0,0,0,2.78,1.28,9.21,9.21,0,0,0,3.9-.45,24.64,24.64,0,0,0,9.53-6.38c6.61-6.6,12.91-17.56,15.54-31.22a62.16,62.16,0,0,0,.67-20,41,41,0,0,0-5.78-16.58c-2.77-4.43-6.38-7.36-9.45-8.48a7.94,7.94,0,0,0-4-.6A4.05,4.05,0,0,0,222.32,804Z" style="fill:#7f4b30"/><path d="M216.32,873c-2,.3-3.53,2.92-4.36,7.58s-.9,11.33,0,19.21,2.7,17,4.66,26.49c1,4.73,1.87,9.6,2.7,14.56s1.42,9.9,1.87,15.08c.08,1.27.23,2.55.3,3.9s.08,2.63.15,4c.15,2.62.3,5.25.3,7.8s.15,5,.15,7.58v7.28c-.07,9.76-.22,18.46-.3,25.82,0,1.87.08,3.67.08,5.4s.07,3.3.15,4.88.22,3,.37,4.27.3,2.55.45,3.68c.75,4.5,2.11,7.2,4.06,7.65s4.35-1.42,7-5.25a35.6,35.6,0,0,0,2-3.23c.68-1.2,1.35-2.55,2-4s1.35-3,2.1-4.66,1.35-3.45,2-5.32a153.68,153.68,0,0,0,6.76-27.17c.37-2.62.67-5.33,1.05-8.1s.45-5.63.6-8.56.15-5.93.15-8.93c0-1.5-.08-3-.08-4.57s-.22-3.16-.3-4.81a117.31,117.31,0,0,0-2.92-18.46A141.07,141.07,0,0,0,242.43,919a268.85,268.85,0,0,0-10.58-24.84,140.27,140.27,0,0,0-8.63-15.76C220.52,874.74,218.34,872.72,216.32,873Z" style="fill:#7f4b30"/><path d="M1796.84,473.05c-19,11.25-38,22.51-56.95,31,25.36,19.73,47.5,11.25,76,16.88,19-14.11,12.68-33.77,0-50.73a43.64,43.64,0,0,0-28.51,2.86" style="fill:#593019"/><path d="M1885.47,580.06c6.3,0,9.53,14.1,15.83-8.48-3.15,0-12.68,2.85-12.68,2.85" style="fill:#593019"/><path d="M1922.39,502.16c-3-.75-5.78-.75-9.38-3.3l-.53,2.78c-7.13,4.35-13.73,5.93-15.91,17,5,1,16,5.1,20.94,8.4Z" style="fill:#593019"/><path d="M1733.51,580.06c15.83-16.89,38-16.89,44.35,8.48-15.84,2.85-28.52,0-41.13-5.63" style="fill:#593019"/><path d="M58,473.27a43.74,43.74,0,0,0-28.52,2.85H39C25.71,484,12.35,491.88-.93,498.86V516.8c18.76,6.9,37,2.92,58.91,7.27C77,509.89,70.66,490.23,58,473.27Z" style="fill:#593019"/><path d="M127.69,583.13c6.3,0,9.53,14.11,15.83-8.48-3.15,0-12.68,2.85-12.68,2.85" style="fill:#593019"/><path d="M153,504.26c-6.3,5.63-12.68,8.48-12.68,19.74,6.3,0,22.14,2.85,25.36,5.63,3.15-8.48,3.15-19.74,3.15-25.37-6.3-2.85-9.53,0-15.83-2.85" style="fill:#593019"/><path d="M177.29,277.41c3.61-21.76,7.21-43.6,13-63.56-31.37,6.68-39.25,29-61.91,47.2-1.5,23.64,17.71,31.45,38.79,32.65a44.46,44.46,0,0,0,16.21-23.64" style="fill:#613a21"/><path d="M38.32,276.29c-4.06,4.87-16.89-1.8-3.76,17.56,2-2.4,6-11.48,6-11.48" style="fill:#613a21"/><path d="M82.29,346.45c-.22-8.48,1.73-15.16-6.9-22.36C71.33,329,59,339.25,54.75,339.85c4.43,7.88,13.06,15.16,17.34,18.76,6.22-3,6.15-7.28,12.38-10.28" style="fill:#613a21"/><path d="M136.17,160.05c2.7,23-11.56,39.92-35,28.44,8-14,18.38-21.76,30.84-27.84" style="fill:#613a21"/><path d="M1800.07,292.05c21.24-6.16,42.4-12.39,62.88-15.76-19.58-25.44-43.15-22.74-69.33-35.35-21.92,8.93-20.72,29.57-12.69,49.08a43.94,43.94,0,0,0,28.29,4.35" style="fill:#613a21"/><path d="M1740.94,166.28c-6.16-1.58-5.71-16-17.41,4.2,3.07.82,13,.45,13,.45" style="fill:#613a21"/><path d="M1696.74,236.29c7.5-3.9,14.4-5,17.18-15.91-6.15-1.58-20.79-8.25-23.11-11.78-5.18,7.43-8,18.31-9.38,23.79,5.4,4.27,9.23,2.4,14.63,6.68" style="fill:#613a21"/><path d="M1888.09,204.17c-19.58,12.38-41,6.91-40.82-19.21,16.06,1.2,27.62,7.13,38.42,15.76" style="fill:#613a21"/><path d="M1720.9,74.2c14.18-17,28.37-33.84,43.45-48.18-30.47-10.2-48.55,5.18-77.29,9.31-13.21,19.58-.75,36.09,16.81,47.8a44,44,0,0,0,26-12.16" style="fill:#613a21"/><path d="M1601.73,2.69c-6,2.1-13.65-10.14-12.15,13.2,3-1.05,11-6.83,11-6.83" style="fill:#613a21"/><path d="M1604,85.46c4.12-7.43,9.15-12.16,5.4-22.82-6,2.1-21.84,4.73-25.74,3.08-.15,9,3.53,19.66,5.4,25,6.91.52,8.93-3.15,15.84-2.63" style="fill:#613a21"/><path d="M166.26,834.82c-12.6-18.16-25.21-36.32-35-54.63-17.86,26.64-7.88,48.18-11.48,77,15.39,17.94,34.6,10.21,50.58-3.6a44.48,44.48,0,0,0-4.8-28.21" style="fill:#422716"/><path d="M65.78,930.8c.45,6.3-13.36,10.51,9.53,15.16-.22-3.15-3.68-12.46-3.68-12.46" style="fill:#422716"/><path d="M146.3,950.46c-6.08-5.93-9.3-12-20.56-11.26.45,6.31-1.2,22.29-3.83,25.67,8.63,2.55,19.89,1.72,25.52,1.35,2.32-6.53-.68-9.46,1.65-16" style="fill:#422716"/><path d="M55,779.29c18,14.56,19.58,36.7-5.26,44.8-3.9-15.61-2-28.44,2.7-41.42" style="fill:#422716"/><path d="M1868.21,845.33c-21.62-4.43-43.3-8.86-63-15.39,5.48,31.6,27.54,40.3,44.8,63.64,23.56,2.33,32.12-16.51,34.15-37.52a44.33,44.33,0,0,0-23-17.11" style="fill:#422716"/><path d="M1861.75,984.15c4.66,4.28-2.47,16.81,17.41,4.43-2.32-2.1-11.25-6.45-11.25-6.45" style="fill:#422716"/><path d="M1749.34,881.87c23.11-1.87,39.47,13.06,27.09,36.1-13.58-8.56-21.09-19.14-26.64-31.89" style="fill:#422716"/><path d="M229.15,1037.88c.75,1,1.65,2.11,2.55,3.16s1.87,2.17,2.93,3.37c2,2.4,4.42,4.81,6.9,7.43,1.2,1.35,2.55,2.63,3.9,4.05s2.7,2.78,4.13,4.21c5.63,5.77,11.86,12,18.31,18.53.82.83,1.65,1.73,2.48,2.55h37.29a16.21,16.21,0,0,0-1-1.35,185,185,0,0,0-18.24-21.53,168.88,168.88,0,0,0-21.61-18.46c-1.8-1.28-3.53-2.48-5.25-3.61s-3.46-2.17-5.18-3.15a101.26,101.26,0,0,0-9.61-5.1c-.75-.38-1.5-.68-2.25-1s-1.42-.6-2.18-.9c-1.42-.53-2.77-1-4-1.5a31.54,31.54,0,0,0-6.83-1.65c-4-.53-6.6,0-7.73,1.65s-.45,4.35,1.43,7.73C226.3,1034,227.57,1035.86,229.15,1037.88Z" style="fill:#7f4b30"/><path d="M109.16,964.49A70.91,70.91,0,0,0,107,951.36,151.42,151.42,0,0,0,94.3,920.14c-2.93-5.55-6.23-11.25-9.83-17-.45-.67-.9-1.42-1.35-2.17s-.9-1.43-1.43-2.18-1-1.5-1.5-2.25l-1.58-2.25a109.5,109.5,0,0,0-7-8.71,132.32,132.32,0,0,0-32.34-26.71,106,106,0,0,0-32-12.53A70.52,70.52,0,0,0-1,845.18v11.25q2.37.8,5,1.8a133.46,133.46,0,0,1,26.86,14.26,149.5,149.5,0,0,1,27.84,24.62c2.18,2.47,4.21,5,6.08,7.5.45.6.9,1.28,1.43,1.88s.9,1.27,1.35,2c.9,1.35,1.87,2.7,2.77,4,3.68,5.4,7.06,10.58,10.21,15.61a247.19,247.19,0,0,1,14.93,27.31,108.74,108.74,0,0,1,4.21,10.88,70.13,70.13,0,0,1,2.17,8.41c.08.6.23,1.13.3,1.65s.15,1,.23,1.5c.15.9.22,1.73.37,2.4.15,1.35.53,2.18,1.13,2.4s1.35-.3,2.32-1.57a18.47,18.47,0,0,0,1.35-2.48c.23-.52.38-1.05.61-1.72a15.55,15.55,0,0,0,.52-2A40.91,40.91,0,0,0,109.16,964.49Z" style="fill:#7f4b30"/><path d="M99.25,943.56c.68,2.4,6.15,2.7,13.36,4.5,1.8.45,3.75,1.05,5.7,1.73s4,1.57,6.23,2.62A63,63,0,0,1,131,956c2.18,1.43,4.28,3,6.46,4.73a78.4,78.4,0,0,1,18,22.29c3.75,6.68,5.85,11.63,8.33,11.56,1.2-.08,2.25-1.43,3-4.06a28.36,28.36,0,0,0,.3-11.25,44.5,44.5,0,0,0-1.8-7.58,63.67,63.67,0,0,0-3.61-8.26,55,55,0,0,0-13.13-16,52.93,52.93,0,0,0-9-6.08,49.39,49.39,0,0,0-9.38-3.9,46.61,46.61,0,0,0-9.08-1.73,40.59,40.59,0,0,0-8,.15,26.2,26.2,0,0,0-10.88,3.6,10.81,10.81,0,0,0-2.48,2.26A2.07,2.07,0,0,0,99.25,943.56Z" style="fill:#7f4b30"/><path d="M49.72,197.64a5.55,5.55,0,0,0,1.58,3.61c1,1.2,2.32,2.47,3.6,3.82a27.64,27.64,0,0,1,3.45,4.65,42.35,42.35,0,0,1,3.08,6.53c2,5.26,3.45,11.18,5,15.54s3.37,7.58,5.78,7.8,5-2.62,6.45-7.88a32.51,32.51,0,0,0,1.2-9.53,37.3,37.3,0,0,0-2.25-12.08A32.15,32.15,0,0,0,74.49,204a24.69,24.69,0,0,0-4.43-5.11,21.53,21.53,0,0,0-5.18-3.45,18.72,18.72,0,0,0-2.63-1,16.67,16.67,0,0,0-2.47-.6,13.07,13.07,0,0,0-7.43.75C50.7,195.39,49.8,196.44,49.72,197.64Z" style="fill:#7f4b30"/><path d="M72.24,230.66c.15,1.28,2.62,2,6.37,3.53a64.16,64.16,0,0,1,14.71,8.7,102.45,102.45,0,0,1,9,8c3.07,3.07,6.23,6.53,9.45,10.28A185.19,185.19,0,0,1,130,287.77,149.88,149.88,0,0,1,142.85,317a100.5,100.5,0,0,1,3.08,13.21,55.59,55.59,0,0,1,.6,11.41,38.91,38.91,0,0,1-1.5,9.08,37.86,37.86,0,0,1-2.63,6.6c-1.88,3.6-3.3,5.86-2.55,6.83.37.45,1.2.6,2.47.3a15,15,0,0,0,5.18-2.63,27,27,0,0,0,6.31-6.82,37.49,37.49,0,0,0,4.87-11.34,58.74,58.74,0,0,0,1.65-14.48,75.7,75.7,0,0,0-2-16.13,122.06,122.06,0,0,0-13.2-33.77,138.92,138.92,0,0,0-21.54-28.89,107.87,107.87,0,0,0-11.93-10.51,81.66,81.66,0,0,0-11.93-7.43c-7.73-3.9-15.09-5.33-20.12-5a7.39,7.39,0,0,0-1.8.22,9.46,9.46,0,0,0-1.5.31,16.21,16.21,0,0,0-2.32.82Q72.12,229.76,72.24,230.66Z" style="fill:#7f4b30"/><path d="M70.73,334.22c0,2.55,9.46,4,23.12,8.93a134,134,0,0,1,22.81,10.58c2,1.13,4,2.48,6.08,3.83s4.05,2.77,6.08,4.35a106.5,106.5,0,0,1,11.85,10.36A122.73,122.73,0,0,1,151,384.05a112.47,112.47,0,0,1,8.1,12.15c.6,1.05,1.13,2,1.73,3s1,2,1.58,3c1.05,2,1.87,4,2.77,5.85.45,1,.75,1.95,1.2,2.85s.83,1.88,1.13,2.78.67,1.8,1,2.7c.15.45.3.9.45,1.28a13.24,13.24,0,0,1,.38,1.27c.52,1.73,1.12,3.38,1.5,4.95s.9,3.08,1.28,4.51.75,2.7,1,4,.6,2.33.9,3.38.6,1.95.82,2.78a16.14,16.14,0,0,0,.75,2c.53,1.13,1.13,1.73,1.73,1.8s1.2-.52,1.8-1.65a19.13,19.13,0,0,0,.9-2.1l.45-1.35c.15-.52.23-1,.38-1.57.22-1.13.45-2.33.67-3.76s.23-2.85.38-4.5a40.65,40.65,0,0,0,0-5.18,54.16,54.16,0,0,0-.45-5.78c-.08-.52-.08-1-.15-1.57l-.23-1.58c-.15-1.05-.37-2.17-.52-3.22a28.44,28.44,0,0,0-.76-3.38c-.3-1.13-.52-2.33-.9-3.45a71.12,71.12,0,0,0-2.32-7.13c-.45-1.2-.9-2.48-1.43-3.68s-1.05-2.48-1.65-3.68A100.08,100.08,0,0,0,153.13,360,97.63,97.63,0,0,0,139,348.18c-2.4-1.73-4.88-3.23-7.35-4.73-2.48-1.35-4.95-2.78-7.43-3.9a93.3,93.3,0,0,0-27.39-8.33c-1-.15-1.95-.3-2.93-.38l-2.85-.22c-.9-.08-1.8-.08-2.63-.15H86c-.83,0-1.58,0-2.33.07s-1.42.08-2.17.15c-1.36.15-2.63.3-3.76.45a20.46,20.46,0,0,0-2.92.68,20.93,20.93,0,0,0-2.18.75C71.33,333,70.73,333.62,70.73,334.22Z" style="fill:#7f4b30"/><path d="M85.74,691.42c.6-.15,1.05-.75,1.5-1.65a6.15,6.15,0,0,0,.3-.75,8,8,0,0,1,.38-.83c.15-.3.22-.6.37-.9s.3-.6.45-1a13.58,13.58,0,0,1,1.13-1.95,9.88,9.88,0,0,0,.75-1c.23-.3.6-.6.9-1a21.11,21.11,0,0,1,5-3.45,42.61,42.61,0,0,1,17.63-3.68h2.63a7.65,7.65,0,0,1,1.35.08c.45,0,.9.07,1.35.07.9.08,1.8.23,2.7.3a26,26,0,0,1,2.63.53,8.18,8.18,0,0,1,1.35.3c.45.15.83.22,1.28.37a5.47,5.47,0,0,1,.6.23l.15.07.3.15.75.3,1.57.6.38.16.45.3.82.6,1.65,1.12.83.6c.3.23.53.38.9.68,1.28,1.2,2.63,2.32,3.9,3.52,2.85,2.56,5.63,5.11,8.56,7.66,1.2,1.05,2.32,2.1,3.52,3.15-.52-5.48-1-10.88-1.5-16.21-.15-1.42-.22-2.85-.37-4.2s-.23-2.63-.3-4c0-.3-.08-.67-.08-1l.08-.9.07-1.73c0-.6.08-1.13.08-1.73a11.75,11.75,0,0,1,.22-1.65l.23-1.57c.07-.45.22-.83.3-1.28s.22-.82.3-1.27.22-.83.37-1.21a30.93,30.93,0,0,1,1.81-4.65,45,45,0,0,1,10.58-14.33,49.24,49.24,0,0,1,10.35-7c2.78-1.43,4.65-2.25,4.8-3.45s-1.72-2.63-5.7-3.15a23.9,23.9,0,0,0-7.13.37,32.21,32.21,0,0,0-8.93,3.15,45.29,45.29,0,0,0-17.93,16.89,48.36,48.36,0,0,0-3.3,6.6l-.68,1.8a18.08,18.08,0,0,0-.6,1.8c-.15.6-.38,1.28-.53,1.88a12.22,12.22,0,0,0-.37,1.65c-.15,0-.15-.07-.23-.07h0V661h-.15l-.22-.07c-.38-.08-.68-.23-1.05-.3l-2-.45c-.67-.16-1.35-.23-2-.38-1.35-.23-2.63-.3-3.91-.45s-2.55-.15-3.82-.15h-1.88c-.6,0-1.2.07-1.8.07-1.2.08-2.4.23-3.6.3a51,51,0,0,0-13.06,3.38,37.74,37.74,0,0,0-10.43,6.23A23.41,23.41,0,0,0,83,677.76a13.2,13.2,0,0,0-.75,2.25c-.15.75-.3,1.5-.37,2.18a15.36,15.36,0,0,0,.07,3.75,9.48,9.48,0,0,0,.3,1.5c.15.45.3.9.45,1.28s.3.75.45,1a8.55,8.55,0,0,0,.6.75C84.54,691.27,85.22,691.57,85.74,691.42Z" style="fill:#7f4b30"/><path d="M1920.89,600.69c-.9.38-1.8.83-2.71,1.28a82.83,82.83,0,0,0-10,6.08,74.26,74.26,0,0,0-10.51,8.85,83.49,83.49,0,0,0-17.56,26.34,93.11,93.11,0,0,0-5,15.46,108.86,108.86,0,0,0-2.4,14.71c-.15,1.2-.23,2.32-.3,3.45s-.15,2.25-.23,3.38c-.07,2.17-.15,4.35-.07,6.37,0,1.06,0,2,.07,3s.08,2,.15,2.92c.08,1.88.23,3.75.38,5.48,1.43,13.81,4.28,22,6.6,21.91,2.48-.15,4-8.55,5.71-21.68.22-1.66.45-3.31.67-5.11.15-.9.23-1.8.38-2.7s.3-1.87.45-2.77c.22-1.88.6-3.83.9-5.86.15-1,.37-2,.52-3s.38-2,.6-3.08c.83-4.12,1.8-8.4,3.08-12.68a111.07,111.07,0,0,1,4.5-13,91.42,91.42,0,0,1,13.43-22.29A109.64,109.64,0,0,1,1921,615.85l-.15-15.16Z" style="fill:#7f4b30"/><path d="M1882.24,700.42c.07-.6-.3-1.2-1.2-1.87a10.43,10.43,0,0,0-4.28-1.65,20,20,0,0,0-7.35.07,30.27,30.27,0,0,0-9.16,3.15c-6.3,3.3-12.53,8.93-17.78,16a96.38,96.38,0,0,0-13.13,24.76,103.88,103.88,0,0,0-6,27.16,76.7,76.7,0,0,0-.07,12.39,53.4,53.4,0,0,0,1.87,10.88,33,33,0,0,0,3.68,8.7,20.61,20.61,0,0,0,4.88,5.63,10.08,10.08,0,0,0,2.32,1.43,9.53,9.53,0,0,0,2,.6c1.12.15,1.87-.08,2.17-.6.68-1-.3-2.86-1.2-5.63a39.25,39.25,0,0,1-1.73-12.16c-.15-10.65,2.56-26.26,8.48-42.47A130,130,0,0,1,1855.75,725a65.43,65.43,0,0,1,11.33-14.71,40.65,40.65,0,0,1,5.4-4.2,36,36,0,0,1,4.73-2.48C1880.06,702.37,1882.09,701.62,1882.24,700.42Z" style="fill:#7f4b30"/><path d="M1724.65,346.23c.08,2.47,7.21,4,17.56,7.2a159,159,0,0,1,17.64,6.6,164.59,164.59,0,0,1,20.26,10.88c14,8.78,25.89,18.54,35.19,25.22a100.45,100.45,0,0,0,11.56,7.5c3,1.5,5,1.95,5.93,1.13s.37-2.93-1.13-5.93a79.88,79.88,0,0,0-7.8-11.56,153.17,153.17,0,0,0-14-15.23,126.85,126.85,0,0,0-20.41-15.83A105,105,0,0,0,1765.55,345a81.24,81.24,0,0,0-21.31-3.75,48.9,48.9,0,0,0-14.41,1.5C1726.38,343.82,1724.65,345,1724.65,346.23Z" style="fill:#7f4b30"/><path d="M1813.2,377.74c1,.75,2.55.53,4.65.08s5-1.43,8.48-2.48a265.12,265.12,0,0,1,27.77-6.83,143.91,143.91,0,0,1,15.23-2,54.08,54.08,0,0,1,11.33.22,18.68,18.68,0,0,1,6.46,2c1.65.9,2.92,1.87,4.12,1.65a2.2,2.2,0,0,0,1.51-1.35,6.22,6.22,0,0,0,.37-3.53,12.29,12.29,0,0,0-2.18-5.18,18.6,18.6,0,0,0-5.32-4.87c-4.43-2.86-10-4.36-15.91-5a66.74,66.74,0,0,0-18.76,1c-12.91,2.4-23.79,7.58-30.62,13.21a25.08,25.08,0,0,0-7,8.18C1812.15,375.19,1812.3,377,1813.2,377.74Z" style="fill:#7f4b30"/><path d="M1843.29-1.59a6.1,6.1,0,0,1-.82.6,64.4,64.4,0,0,0-12.31,13.43,90.82,90.82,0,0,0-9.6,18,115.52,115.52,0,0,0-6.31,21.39,128,128,0,0,0-2.47,23.79,108.76,108.76,0,0,0,1.57,19.81c.15.82.3,1.57.45,2.4s.38,1.57.53,2.4.37,1.58.6,2.4c.07.38.22.75.3,1.2l.3,1c.07,0,.22.15.3.38a1.77,1.77,0,0,0-.3.37h0l-.3.15-.53.23a7.86,7.86,0,0,0-1,.52c-.67.38-1.42.68-2,1s-1.36.75-2,1.13-1.27.82-1.87,1.2a50.33,50.33,0,0,0-12.08,11.41,56.81,56.81,0,0,0-11,23.93,40.86,40.86,0,0,0-.15,16.89c.9,3.83,2.18,5.7,3.08,5.63s1.57-2.18,2.4-5.63a77.51,77.51,0,0,1,4.5-14,58.61,58.61,0,0,1,11.78-17.71,45.84,45.84,0,0,1,9.68-7.5c.45-.23.9-.53,1.43-.75s1-.45,1.42-.68,1-.37,1.51-.6c.22-.07.45-.22.75-.3l1-.37a15.9,15.9,0,0,1,1.8-.61c.68-.15,1.35-.3,2-.45,1.35-.3,2.63-.6,4.06-.9,2.77-.52,5.55-1,8.4-1.65-1.13-2.62-2.18-5.25-3.3-8a71,71,0,0,1-3-8.18l-.08-.38-.15-.67c-.07-.3-.15-.6-.22-1-.15-.6-.3-1.27-.45-1.87s-.23-1.28-.38-2-.22-1.35-.3-2a102,102,0,0,1-1.12-16.8,133.79,133.79,0,0,1,1.8-20.87,126.65,126.65,0,0,1,4.57-18.91c3.83-11.7,9.23-21.38,15.24-28a44.36,44.36,0,0,1,12.15-9.6l-19.81-.15Z" style="fill:#7f4b30"/><path d="M106.3,105.57c-.67,1,1.28,3.75,6.08,7.2a50.38,50.38,0,0,0,9.38,5.18,82,82,0,0,0,13.51,4.35,110.25,110.25,0,0,0,17,2.33,131.4,131.4,0,0,0,19.51-.38,179.08,179.08,0,0,0,43.15-9.53,187.91,187.91,0,0,0,39.7-19.36,154.29,154.29,0,0,0,15.53-11.63,114.32,114.32,0,0,0,12.08-12c6.83-7.95,11-15.61,12.76-21.31s1.57-9.08.45-9.45-3.08,2.17-6.45,6.22A121.53,121.53,0,0,1,273.5,63c-3.61,3-7.66,6.15-12.16,9.3s-9.61,6.31-15,9.31a240.08,240.08,0,0,1-37.14,16.66,219.47,219.47,0,0,1-39.33,10,169.3,169.3,0,0,1-17.48,1.8,128,128,0,0,1-15.23-.07,106,106,0,0,1-12.46-1.5c-3.68-.68-6.75-1.43-9.38-2C110.06,105.34,107,104.52,106.3,105.57Z" style="fill:#7f4b30"/><path d="M1738.53,1081.26c.3-.45.53-.83.83-1.28.23-.3.38-.6.6-.9l.68-.9c.45-.6.9-1.2,1.35-1.87s1-1.2,1.57-1.81a18,18,0,0,1,1.65-1.8,9.71,9.71,0,0,0,.83-.9l.9-.9a102,102,0,0,1,8.33-7.05,103.17,103.17,0,0,1,10.13-6.38,128.14,128.14,0,0,1,21.69-9.23,139.4,139.4,0,0,1,19-4.58c5.56-.9,10.06-1.35,13.36-1.8a26.67,26.67,0,0,0,4-.82c1-.38,1.57-.83,1.72-1.35s-.15-1.28-.9-2a14.15,14.15,0,0,0-3.6-2.48,41.52,41.52,0,0,0-14.86-3.82,80.2,80.2,0,0,0-22.59,1.35,93.38,93.38,0,0,0-26.11,9.53,76.48,76.48,0,0,0-12.16,8.18,67.64,67.64,0,0,0-9.83,9.83c-.37.45-.67.82-1,1.35s-.67.9-1,1.35a19.81,19.81,0,0,0-1.8,2.7c-.53.9-1.13,1.8-1.65,2.7s-1,1.88-1.43,2.78l-.68,1.35c-.15.45-.37.9-.52,1.35-.38.9-.68,1.8-1,2.7s-.53,1.8-.75,2.7c-.15.75-.38,1.43-.53,2.18l13.88-.15Z" style="fill:#7f4b30"/><path d="M1799.69,1038.11c.6,0,1.13-.53,1.65-1.35a13.46,13.46,0,0,0,.83-1.5c.3-.6.6-1.2.9-2a41.81,41.81,0,0,1,2.48-4.58,23.57,23.57,0,0,1,4.12-4.73c3.38-3.07,8.71-5.7,15.76-8.63,3.53-1.5,7.36-3.07,11.63-5.33a52.25,52.25,0,0,0,6.53-4,34.32,34.32,0,0,0,6.53-6.08l-.67.75c.75-.82,1.5-1.65,2.25-2.55a30,30,0,0,0,1.87-2.77,33.57,33.57,0,0,0,3.61-8.48c.82-2.63,1.27-4.88,1.87-6.83A26.9,26.9,0,0,1,1863,971c.45-.6.9-1.13,1.35-1.73.61-.6,1.13-1.12,1.66-1.72s1.27-1.13,1.87-1.66c.3-.3.6-.52.9-.82a8,8,0,0,1,1-.75,44.13,44.13,0,0,1,3.9-2.85c.68-.45,1.28-.9,2-1.35s1.28-.83,2-1.2l1.88-1.21c.6-.37,1.2-.75,1.8-1,1.2-.67,2.33-1.42,3.38-2s2-1.2,3-1.8,1.8-1,2.55-1.58c3-2,4.58-3.68,4.28-4.8s-2.56-1.73-6.31-1.65a22.73,22.73,0,0,0-3.07.22c-1.13.15-2.33.3-3.68.53s-2.7.52-4.2.9c-.75.15-1.5.37-2.25.6s-1.58.45-2.41.75-1.65.52-2.47.82-1.73.68-2.55,1.06a51.16,51.16,0,0,0-5.48,2.62,14,14,0,0,0-1.43.75l-1.35.9c-.9.6-1.87,1.2-2.77,1.88s-2,1.42-2.93,2.25a33.32,33.32,0,0,0-2.85,2.85,37.42,37.42,0,0,0-2.55,3.3,15.19,15.19,0,0,1-1.2,1.73c-.31.6-.68,1.2-1,1.8l-.53.9-.45.9a19.13,19.13,0,0,0-.82,1.88c-.45,1.2-1,2.47-1.35,3.67-.83,2.41-1.43,4.66-2,6.61a26.06,26.06,0,0,1-2,4.73,11.46,11.46,0,0,0-.75,1.12,4.59,4.59,0,0,0-.83,1l-.68.75c-1.65,2.17-4.5,4.27-7.73,6.3s-6.82,3.9-10.35,5.93a76.88,76.88,0,0,0-10.13,6.75,43.62,43.62,0,0,0-4.35,4c-.68.75-1.28,1.43-1.88,2.18s-1.13,1.5-1.65,2.25a25.11,25.11,0,0,0-3.68,9.08,22.92,22.92,0,0,0-.15,7,16.45,16.45,0,0,0,.6,2.4,7.54,7.54,0,0,0,.83,1.73A2.38,2.38,0,0,0,1799.69,1038.11Z" style="fill:#7f4b30"/><path d="M283.85,227.66c-.52.6-.52,1.58,0,3.08a16.35,16.35,0,0,0,4,5.32,29.33,29.33,0,0,0,9.38,5.48c1.05.38,2.1.6,3.23,1s2.25.45,3.52.67a42.55,42.55,0,0,0,7.66.3A55.75,55.75,0,0,0,328.13,240a73.61,73.61,0,0,0,8.33-3.68c2.77-1.43,5.47-3,8.25-4.8a125.61,125.61,0,0,0,30-28.07,132.88,132.88,0,0,0,20-35.64,101.49,101.49,0,0,0,4.73-17.56,70.63,70.63,0,0,0,1-16.14,49.7,49.7,0,0,0-2.4-13.35,36.38,36.38,0,0,0-4.51-9.23,23.41,23.41,0,0,0-2.4-2.93,14.7,14.7,0,0,0-2.17-1.8c-1.35-.83-2.33-1-3-.6-1.42.9-1.12,3.9-.75,8.48a69.39,69.39,0,0,1,.15,8.1,62.07,62.07,0,0,1-1.2,10.43,96.83,96.83,0,0,1-3.3,12.46,120.75,120.75,0,0,1-5.78,13.88,168.08,168.08,0,0,1-18.61,29.64,153.58,153.58,0,0,1-24.16,25c-8.18,6.61-16.21,11.11-23.11,13.21a34.65,34.65,0,0,1-17,1C287.9,227.36,285,226.46,283.85,227.66Z" style="fill:#7f4b30"/><path d="M1583.57,64.07c-1.35.82-1.72,3.15-1,6.75a43.41,43.41,0,0,0,6.08,13.66,80.15,80.15,0,0,0,6.23,8.25,75.8,75.8,0,0,0,8.55,8.26,94.09,94.09,0,0,0,23,14.18,107.24,107.24,0,0,0,13.14,4.73,105.7,105.7,0,0,0,12.6,2.7,90.31,90.31,0,0,0,21.69.68c6.15-.68,11-1.88,14.33-3.45s5-3.16,4.8-4.73-2-3-5.1-4.28a120.52,120.52,0,0,0-12.91-3.9c-5.32-1.43-11.48-3.08-18.16-5.18-3.3-1-6.82-2.18-10.35-3.53s-7.13-2.77-10.81-4.35a172.57,172.57,0,0,1-35-20.56C1592.13,67.07,1586.43,62.42,1583.57,64.07Z" style="fill:#7f4b30"/><rect x="1867.4" y="448.29" width="16.06" height="22.06" transform="translate(13.85 971.9) rotate(-29.16)" style="fill:#8dbcd2"/><path d="M1873.61,473.35l-11.18-20,14.71-8.18,11.18,20Zm-10.06-19.66,10.36,18.53,13.28-7.43-10.35-18.53Z" style="fill:#c9e4ee"/><polyline points="1887.79 465.02 1878.26 487.08 1873.76 472.82" style="fill:#64a4c3"/><polygon points="1878.19 488.2 1873.38 472.97 1874.13 472.67 1878.34 485.88 1887.42 464.87 1888.17 465.17 1878.19 488.2" style="fill:#c9e4ee"/><polyline points="1847.87 474.62 1878.26 487.08 1873.76 472.82" style="fill:#c9e4ee"/><polygon points="1847.72 475 1848.02 474.25 1877.59 486.33 1873.38 472.97 1874.13 472.67 1878.94 487.75 1847.72 475" style="fill:#c9e4ee"/><polyline points="1876.99 445.73 1853.27 442.2 1863.03 453.54" style="fill:#c9e4ee"/><polygon points="1852.22 441.68 1877.06 445.36 1876.99 446.11 1854.25 442.8 1863.33 453.24 1862.73 453.83 1852.22 441.68" style="fill:#c9e4ee"/><polyline points="1873.76 472.82 1847.87 474.62 1863.03 453.54" style="fill:#64a4c3"/><polygon points="1847.05 475.07 1862.65 453.31 1863.33 453.76 1848.7 474.17 1873.76 472.37 1873.76 473.2 1847.05 475.07" style="fill:#c9e4ee"/><polyline points="1847.87 474.62 1853.27 442.2 1863.03 453.54" style="fill:#8dbcd2"/><polygon points="1847.49 474.55 1852.97 441.3 1863.33 453.24 1862.73 453.83 1853.5 443.18 1848.25 474.7 1847.49 474.55" style="fill:#c9e4ee"/><rect x="211.63" y="147.28" width="30.77" height="22.29" transform="translate(-24.51 274.04) rotate(-59.6)" style="fill:#8dbcd2"/><path d="M208.89,166.28,225,138.81l20.26,11.86-16.13,27.46Zm16.51-25.89-15,25.51,18.23,10.73,15-25.51Z" style="fill:#c9e4ee"/><polyline points="228.92 177.38 195.75 181.51 209.64 166.05" style="fill:#64a4c3"/><polygon points="194.25 182.26 209.26 165.68 210.09 166.5 197.18 180.76 228.85 176.78 229 177.91 194.25 182.26" style="fill:#c9e4ee"/><polyline points="189.22 136.26 195.75 181.51 209.64 166.05" style="fill:#c9e4ee"/><polygon points="188.7 136.33 189.82 136.18 196.13 180.23 209.26 165.68 210.09 166.5 195.38 182.86 188.7 136.33" style="fill:#c9e4ee"/><polyline points="244.46 150.89 231.92 119.9 225.25 139.56" style="fill:#c9e4ee"/><polygon points="231.85 118.25 244.98 150.67 243.93 151.12 232 121.48 225.77 139.79 224.65 139.41 231.85 118.25" style="fill:#c9e4ee"/><polyline points="209.64 166.05 189.22 136.26 225.25 139.56" style="fill:#64a4c3"/><polygon points="188.1 135.58 225.25 139.04 225.17 140.16 190.35 136.94 210.16 165.75 209.19 166.43 188.1 135.58" style="fill:#c9e4ee"/><polyline points="189.22 136.26 231.92 119.9 225.25 139.56" style="fill:#8dbcd2"/><polygon points="189 135.73 232.82 118.92 225.77 139.79 224.65 139.41 231.02 120.88 189.45 136.78 189 135.73" style="fill:#c9e4ee"/><rect x="175.79" y="725.66" width="10.28" height="14.18" transform="translate(-572.71 691.75) rotate(-73.02)" style="fill:#8dbcd2"/><path d="M186.37,740l-14-4.27,3.15-10.36,14,4.28ZM173,735.39l13,4,2.85-9.31-13-4Z" style="fill:#c9e4ee"/><polyline points="189.22 729.91 194.63 744.32 186.22 739.74" style="fill:#64a4c3"/><polygon points="195.15 744.85 186.07 739.97 186.3 739.44 194.1 743.72 189 729.99 189.45 729.76 195.15 744.85" style="fill:#c9e4ee"/><polyline points="175.04 752.05 194.63 744.32 186.22 739.74" style="fill:#c9e4ee"/><polygon points="175.12 752.28 174.97 751.83 194.03 744.25 186.07 739.97 186.3 739.44 195.23 744.32 175.12 752.28" style="fill:#c9e4ee"/><polyline points="175.64 725.71 163.11 734.72 172.64 735.54" style="fill:#c9e4ee"/><polygon points="162.36 734.87 175.49 725.56 175.79 725.94 163.86 734.49 172.72 735.32 172.64 735.84 162.36 734.87" style="fill:#c9e4ee"/><polyline points="186.22 739.74 175.04 752.05 172.64 735.54" style="fill:#64a4c3"/><polygon points="174.89 752.65 172.42 735.62 172.94 735.54 175.19 751.45 186 739.52 186.37 739.89 174.89 752.65" style="fill:#c9e4ee"/><polyline points="175.04 752.05 163.11 734.72 172.64 735.54" style="fill:#8dbcd2"/><polygon points="174.82 752.2 162.59 734.34 172.72 735.32 172.64 735.84 163.64 735.02 175.27 751.9 174.82 752.2" style="fill:#c9e4ee"/><rect x="1841.69" y="517.76" width="10.28" height="14.18" transform="translate(805.42 2137.83) rotate(-73.02)" style="fill:#8dbcd2"/><path d="M1852.22,532.18l-14-4.28,3.15-10.35,14,4.27Zm-13.43-4.58,13.06,4,2.85-9.31-13.06-4Z" style="fill:#c9e4ee"/><polyline points="1855 522.05 1860.48 536.46 1852 531.88" style="fill:#64a4c3"/><polygon points="1860.93 537.06 1851.92 532.1 1852.15 531.65 1859.95 535.93 1854.77 522.12 1855.3 521.97 1860.93 537.06" style="fill:#c9e4ee"/><polyline points="1840.89 544.18 1860.48 536.46 1852 531.88" style="fill:#c9e4ee"/><polygon points="1840.97 544.49 1840.74 543.96 1859.8 536.46 1851.92 532.1 1852.15 531.65 1861.08 536.53 1840.97 544.49" style="fill:#c9e4ee"/><polyline points="1841.49 517.92 1828.96 526.85 1838.49 527.75" style="fill:#c9e4ee"/><polygon points="1828.21 527.08 1841.34 517.7 1841.64 518.15 1829.63 526.63 1838.49 527.45 1838.49 527.98 1828.21 527.08" style="fill:#c9e4ee"/><polyline points="1852 531.88 1840.89 544.18 1838.49 527.75" style="fill:#64a4c3"/><polygon points="1840.67 544.79 1838.27 527.75 1838.71 527.68 1841.04 543.66 1851.85 531.73 1852.22 532.03 1840.67 544.79" style="fill:#c9e4ee"/><polyline points="1840.89 544.18 1828.96 526.85 1838.49 527.75" style="fill:#8dbcd2"/><polygon points="1840.67 544.34 1828.43 526.55 1838.49 527.45 1838.49 527.98 1829.48 527.15 1841.04 544.03 1840.67 544.34" style="fill:#c9e4ee"/><rect x="334.66" y="507.49" width="478.77" height="536.47" style="fill:#502715"/><rect x="346.81" y="528.2" width="454.3" height="494.97" style="fill:#1f110c"/><rect x="340.21" y="656.82" width="464.51" height="10.73" style="fill:#502715"/><polygon points="774.85 999.46 371.65 999.46 347.19 1021.38 799.39 1021.38 774.85 999.46" style="fill:#391d12"/><polygon points="774.85 633.86 371.65 633.86 347.19 655.85 799.39 655.85 774.85 633.86" style="fill:#391d12"/><path d="M377.05,573.3c-3.22-5.78-1.05-23-11.78-20.86-11.85,2.63,5.78,19,5.78,24.84" style="fill:#885121"/><path d="M404,634.39c2.11,6.22,16.29,16.28,7.43,22.81-10,7-10.13-17-14.48-21" style="fill:#885121"/><path d="M392.29,635a51.15,51.15,0,0,0-7.66,10.28h0c-3-10.81-4.27-21.54-14.18-30.25,2.18-1,3-3.07,3.75-3.37-10.65-.53-17.78-30.39-27.76-37.3a26.33,26.33,0,0,1,7.58-2.47l24.54.45" style="fill:#dfb769"/><path d="M416.9,633.71a151.26,151.26,0,0,1-25.14-39.32c-5.78-13.13-6.15-27.69-11.18-41.12h0c-3.45,5.85-2.7,11.63-1.95,19.13-.9-4-3.53-8-5.55-10.58a73.57,73.57,0,0,0-1.58,10.28c-2.48-7.58-9.53-9.68-16.13-5,5.78,13.14,17.71,24.39,23.79,38.2,5.77,13.13,10.13,26.86,16.58,39.62a123.81,123.81,0,0,0,2-13.06c1,2.18,3,4.81,3.6,6.23.75-.3-.23-2.47-.23-2.47,5,7.35,11.63,2.7,15.46-2.48" style="fill:#ffe0a5"/><path d="M743.93,986.33c-.52,6.6,8.63,21.39-2.1,23.86-11.93,2.56-2.62-19.66-5.1-25" style="fill:#885121"/><path d="M743.11,919.54c-.68-6.52,8.1-21.53-2.7-23.86-11.94-2.25-2.18,19.74-4.43,25.14" style="fill:#885121"/><path d="M732.23,923.82a51.31,51.31,0,0,1-11.18-6.23h0c1.72,11.11,5,21.39-.38,33.4,2.4,0,4,1.57,4.8,1.5-9.45,4.87-3.52,35-9.75,45.47,2.4-.07,5.55-.07,7.95-.9l22.14-10.58" style="fill:#dfb769"/><path d="M755.11,914.82a153.27,153.27,0,0,0-6.6,46.22c.15,14.33,5.93,27.77,6.9,42.1h0c-5.62-3.9-7.27-9.46-9.75-16.58.82,4,.07,8.78-.68,11.93a87.84,87.84,0,0,1-5.7-8.71c.9,8-4.58,12.76-12.61,11.26-.15-14.33,6-29.49,5.78-44.58-.15-14.33-2-28.59-1.35-42.92,2.4,3.15,4.88,7.13,7.28,11,0-2.4.75-5.55.68-7.2.82,0,.82,2.4.82,2.4,1.5-8.78,9.46-7.28,15.08-4.2" style="fill:#ffe0a5"/><path d="M784.46,986.33c-.53,6.6,8.63,21.39-2.11,23.86-11.93,2.56-2.62-19.66-5.1-25" style="fill:#885121"/><path d="M783.63,919.54c-.68-6.52,8.1-21.53-2.7-23.86-11.93-2.25-2.18,19.74-4.43,25.14" style="fill:#885121"/><path d="M772.75,923.82a51.31,51.31,0,0,1-11.18-6.23h0c1.72,11.11,5,21.39-.38,33.4,2.4,0,4,1.57,4.81,1.5-9.46,4.87-3.53,35-9.76,45.47,2.4-.07,5.55-.07,8-.9l22.14-10.58" style="fill:#dfb769"/><path d="M795.71,914.82a153,153,0,0,0-6.6,46.22c.15,14.33,5.93,27.77,6.9,42.1h0c-5.63-3.9-7.28-9.46-9.75-16.58.82,4,.07,8.78-.68,11.93a87.84,87.84,0,0,1-5.7-8.71c.9,8-4.58,12.76-12.61,11.26-.15-14.33,6-29.49,5.78-44.58-.15-14.33-1.95-28.59-1.35-42.92,2.4,3.15,4.88,7.13,7.28,11,0-2.4.75-5.55.67-7.2.83,0,.83,2.4.83,2.4,1.5-8.78,9.45-7.28,15.08-4.2" style="fill:#ffe0a5"/><polygon points="786.56 488.43 361.45 488.43 334.66 507.49 813.35 507.49 786.56 488.43" style="fill:#1f110c"/><path d="M597.38,638.21c6.6-.3,21.08,9.38,23.93-1.27,2.93-11.78-19.51-3.3-24.76-5.93" style="fill:#885121"/><path d="M530.66,635.06c-6.52-.9-21.83,7.36-23.71-3.53-1.8-12,19.81-1.42,25.22-3.6" style="fill:#885121"/><path d="M535.32,624.33a51.14,51.14,0,0,0-5.86-11.41h0c11,2.1,21.24,5.78,33.4.75-.08,2.41,1.42,4.06,1.35,4.88,5.18-9.3,35.12-2.32,45.77-8.18-.15,2.4-.3,5.56-1.2,7.88L597.38,640" style="fill:#dfb769"/><path d="M525.49,646.92a148.6,148.6,0,0,1,46.37-5c14.26.68,27.54,6.91,41.8,8.33h0c-3.75-5.77-9.23-7.57-16.21-10.28,3.9,1,8.71.38,11.93-.22a94.06,94.06,0,0,0-8.48-6c7.88,1.2,12.91-4.21,11.71-12.16-14.33-.68-29.72,5-44.8,4.28-14.33-.68-28.52-2.93-42.85-2.78a123.33,123.33,0,0,0,10.81,7.65c-2.4-.07-5.63.53-7.21.45,0,.83,2.33.9,2.33.9-8.86,1.2-7.58,9.23-4.65,14.94" style="fill:#ffe0a5"/><path d="M356,545.91c-5.86.53-19.14-7.5-21.31,2.1-2.18,10.66,17.56,2.18,22.36,4.28" style="fill:#885121"/><path d="M415.63,546.06c5.85.53,19.21-7.43,21.31,2.18,2.1,10.65-17.56,2.1-22.36,4.2" style="fill:#885121"/><path d="M410.22,553c3.9,0,2.48,9.6,2.7,14.33.6,14.93,8.33,23.79,21.32,30.77,11.78,6.3,27,6.22,36.32,17.48,9.15,11,7.5,27.17,4.42,39.92-3.52,14.79-10.8,23.49,1.5,35.5-6.67,1.65-11.7,3.9-18.76,3.82-9.68-.15-8.63-5.25-15.08-8.85-.52,4.65,1.65,8.55,4.28,12.31-4.58-.23-10.73,2.55-14.26.82-5.55-2.7-5.4-10.2-8.18-14.78.15,5.25.23,10.58-.07,15.83-9.83-2.47-20.34-2.85-30.25-5.48a155.61,155.61,0,0,1,0-16.73c4.36-1,9.76-1.28,13.29-3.53-4.36-.3-8.93-.07-13.29-.37,13.89-23,22.82-50.51-9-62.66-12-4.58-27.84-6.61-33.47-20.64-4.73-11.78-2.25-35.34,4.13-46.3" style="fill:#dfb769"/><path d="M419.68,535.26a136.56,136.56,0,0,1-41.2,6.3c-12.76,0-24.84-5-37.6-5.78h0c3.53,5,8.48,6.38,14.86,8.56-3.52-.75-7.8,0-10.65.67a69.23,69.23,0,0,0,7.8,5c-7.13-.75-11.33,4.21-10,11.34,12.76,0,26.26-5.63,39.77-5.56,12.76,0,25.52,1.5,38.35.83-2.85-2.1-6.38-4.28-9.91-6.38,2.1,0,5-.68,6.38-.68,0-.67-2.1-.67-2.1-.67,7.8-1.43,6.38-8.48,3.6-13.51" style="fill:#ffe0a5"/><path d="M366.25,577.2c-.08.08,0,.38.07,1a5.09,5.09,0,0,0,.83,2.63,3.58,3.58,0,0,0,1.65,1.12l.68.23.45.15c.15,0,.37.15.37-.08s.23-.6.38-.9a2.7,2.7,0,0,1,.22-.45,34.55,34.55,0,0,1,2.78-3.68l.37-.45v-.15s0-.07.08.08a5.78,5.78,0,0,0,2.77,3c1.88,1.05,2.71,2,2.93,2s-.07-.37-.37-.9a11.36,11.36,0,0,0-1.88-1.88,5.38,5.38,0,0,1-2.1-2.7c-.08-.22-.15-.75-.23-1.12a6.06,6.06,0,0,0-.15-1.2c-.07-.45-.07-.83-.15-1.28l-.07-.67c0-.23-.08,0-.08.07l-.15.3c-.37.75-.67,1.65-1,2.33l-.6,1.12a1.61,1.61,0,0,1-.37.53,35.6,35.6,0,0,0-2.78,3.9c-.07.15-.15.38-.22.53v.07h-.15l-.23-.07a3.31,3.31,0,0,1-1.35-.75c-.68-.61-.75-1.58-1-2.11C366.55,577.43,366.32,577.13,366.25,577.2Z"/><path d="M381.48,576.3c-.15.08-.15.6.15,1.28a4.1,4.1,0,0,0,2.1,2.4,1.9,1.9,0,0,0,2.1-.37,3.17,3.17,0,0,0,.9-1.21c.3-.75.38-1.2.15-1.27s-.52.22-1,.75-1.13,1-1.65.75a6.05,6.05,0,0,1-1.73-1.65C382,576.53,381.71,576.23,381.48,576.3Z"/><path d="M385.08,576.3c.15.38,1.8,0,3.61.6s3.37,1.58,3.6,1.2-1-1.65-3.15-2.47a5.19,5.19,0,0,0-3-.08C385.38,575.85,385.08,576.15,385.08,576.3Z"/><path d="M395,573.6c-.15.08-.15.45.07,1a4.42,4.42,0,0,0,1.51,1.73c1.42,1,2.77,1.2,2.92.9s-.9-1.2-2.17-2S395.36,573.45,395,573.6Z"/><path d="M397.69,573.6c0,.38,3.6.9,8,1.13s8.18.15,8.1-.23-3.6-.9-8-1.12S397.69,573.23,397.69,573.6Z"/><path d="M378,593.34c.08.07.46-.08,1.06-.3a13.78,13.78,0,0,1,2.7-1.13,54.46,54.46,0,0,1,9.38-2.25,32.32,32.32,0,0,0,6.9-2,5.32,5.32,0,0,0-.82-.52v.67l-.08.45v.61c0,.22-.07.15-.15.07l.23.45a5.87,5.87,0,0,0,1.35-.3c.45-.15.52-.22.82-.3.45-.15.83-.38,1.13-.45.6-.15,1-.3,1-.38a4,4,0,0,0-1.27-.07,12.8,12.8,0,0,0-1.28.22,2.83,2.83,0,0,1-.6.15h-.45a.15.15,0,0,0,.15-.15l.08-.07v-.08c0-.07.07-.15.07-.22,0-.23.08-.38.08-.6v-.83l-.9.3a40.54,40.54,0,0,1-6.68,1.73c-3.76.68-7.21,1.5-9.46,2.7a13,13,0,0,0-2.55,1.58C378.18,593,377.88,593.26,378,593.34Z"/><path d="M410.22,587.93c.23.38,1.95-.52,4.06-1.27s4-1,4-1.43-2-.75-4.43.08a10.36,10.36,0,0,0-2.77,1.5C410.45,587.41,410.15,587.78,410.22,587.93Z"/><path d="M390.49,604.14c-.08,0,.22.68,1.05,1.43a5.36,5.36,0,0,0,4.73,1.5,11.23,11.23,0,0,0,6.15-4.05c.07-.08.07,0,.07-.08h.23c.37.08.67.08,1,.15a6.79,6.79,0,0,0,2.18.15c1.57.08,3-.3,4.5-.3a4.53,4.53,0,0,0,1-.07h0a4.2,4.2,0,0,0,.15.6,1.48,1.48,0,0,0,.15.37,1.68,1.68,0,0,0,.3.45,2.19,2.19,0,0,1,.38.3l.45.15a2.33,2.33,0,0,0,.75-.3l.45-.3.9-.52c.6-.38,1.13-.68,1.65-1l.75-.45h.08l.15.07.22.08a10.55,10.55,0,0,0,6.76.15,17.45,17.45,0,0,0,4.12-1.8c.9-.6,1.35-.9,1.28-1s-2.1,1.05-5.63,1.88a10.14,10.14,0,0,1-6.08-.38l-.52-.22a1,1,0,0,0-.45-.15l-.38.22c-.3.15-.6.38-.9.53a19.83,19.83,0,0,0-1.72,1.05c-.46.3-.91.52-1.43.82h0a.24.24,0,0,1-.08-.15.85.85,0,0,1-.07-.45c0-.37-.08-.75-.08-1.12-.75,0-1.57.07-2.4.07-1.57,0-3.07.38-4.42.3a6,6,0,0,1-2-.15c-.3-.07-.68-.07-1-.15l-.82-.07c-.23-.08-.23.15-.38.22l-.3.3a10.79,10.79,0,0,1-5.33,3.9,5.19,5.19,0,0,1-4.2-1C391,604.52,390.56,604.07,390.49,604.14Z"/><path d="M439.86,608.65a.52.52,0,0,0,.3.45,1.08,1.08,0,0,0,1.06-.08,1.13,1.13,0,0,0,.52-.75.58.58,0,0,0-.15-.6.71.71,0,0,0-.53-.15,1.4,1.4,0,0,0-.6.23C440.39,608,439.86,608.2,439.86,608.65Z"/><path d="M409.32,614.87c-.07.08,1.88,1.13,5.33,1.36a22.46,22.46,0,0,0,6.08-.53,24,24,0,0,0,7-2.93l2-1.27h-3.23c.15.37.3.75.53,1.2l.67-.53c2.25-1.27,5-1.95,7.28-3a2.88,2.88,0,0,0,.83-.45l.37-.22h0l.15.15a2.79,2.79,0,0,0,.68.6,5.3,5.3,0,0,0,3.07,1.2c2,.07,3.38-.08,4.43-.08s1.58.08,1.65-.07-.52-.3-1.57-.53-2.63-.15-4.36-.37a4.69,4.69,0,0,1-2.47-1.13c-.15-.15-.3-.37-.53-.6l-.37-.45-.3-.3-.15-.15-.15.08c-.38.22-.75.37-1.13.6a8.17,8.17,0,0,1-.82.37c-2.18,1-4.88,1.5-7.51,3l-.9.68-1.5,1.2h2.93c-.15-.45-.23-.83-.38-1.28a27.52,27.52,0,0,1-6.45,2.93,24.09,24.09,0,0,1-5.7.75C411.42,615.32,409.4,614.65,409.32,614.87Z"/><path d="M414.73,620.28c0,.07.15.15.45.22s.67.38,1.27.68a9.94,9.94,0,0,0,5.25,1,3.53,3.53,0,0,0,.9-.15l.23-.07c.07-.08.07,0,0,.07v.15l-.08.23c-.37,1.27-.82,2.55-1.12,4a38.65,38.65,0,0,0-.83,4.58c-.07.82-.22,1.65-.3,2.47s-.07,1.66-.07,2.56c0,.67-.08,1.27-.08,2l-.07,1.27v.6a1.83,1.83,0,0,0,.45-.37c1-.83,1.87-1.73,2.78-2.48,1.2-1,2.32-2.1,3.37-3.07s2.25-1.81,3.23-2.56c.52-.37,1-.82,1.42-1.2l.45-.37.31-.23c.07-.07,0-.22,0-.37,0-.38-.08-.68-.08-1a5.81,5.81,0,0,0-1.28-2.92,7.11,7.11,0,0,0-1.87-1.43,4.23,4.23,0,0,0-1.73-.83c-.07.08.45.53,1.43,1.28a14.15,14.15,0,0,1,1.57,1.5,4.47,4.47,0,0,1,.9,2.55v.68c0,.07,0,.07-.37.3-.53.37-1,.75-1.5,1.12-1.05.75-2.18,1.65-3.3,2.48s-2.25,2-3.46,3.08l-.82.75h0v-.6c0-.83.07-1.65.07-2.48s.15-1.58.3-2.4a36.12,36.12,0,0,1,.75-4.43c.23-1.42.68-2.7,1-4a11.36,11.36,0,0,0,.38-1.5l.22-.82v-.08h-.07l-.23.08-.37.15-1.51.45a2.78,2.78,0,0,1-.75.15,9.72,9.72,0,0,1-4.95-.53c-.6-.22-1.05-.3-1.35-.45S414.73,620.2,414.73,620.28Z"/><path d="M443.47,623c-.08,0-.23.15-.53.6a10.75,10.75,0,0,0-1.27,1.95,12.2,12.2,0,0,0-1,8.48l.45,1.58.15.6s0,.15.08.15l.15-.08.3-.07a4.25,4.25,0,0,1,1-.3,9.22,9.22,0,0,1,2.85.07l1.43.23h.07l-.07.07c-.38.83-1,2-1.35,3.08a40.43,40.43,0,0,0-3.08,15.16,19.44,19.44,0,0,0,0,2c.08.83.15,1.65.15,2.48.08.3,0,.75.15.9l.9-.38,1.35-.6c.6-.3,1.2-.52,1.8-.82a23,23,0,0,1,6.76-2.18,10.8,10.8,0,0,1,3.15.23,4,4,0,0,1,.82.22c.45.15.83.38,1.28.53l.3.15a.78.78,0,0,1,.08-.38l.07-.75.15-1a16.37,16.37,0,0,0-.53-5.93c-1-3.52-2.47-6-3.07-7.88a3.52,3.52,0,0,1-.15-2.1c.15-.45.37-.67.3-.75a1.38,1.38,0,0,0-.53.6,3.55,3.55,0,0,0-.07,2.4c.45,2,1.8,4.58,2.62,8a16.76,16.76,0,0,1,.38,5.55l-.08.53s.08.15-.07.07l-.23-.15-.82-.22a9.66,9.66,0,0,0-3.6-.3,22.87,22.87,0,0,0-7.21,2.25,11.37,11.37,0,0,0-1.72.82l-.45.23h0c0-.53-.08-1-.08-1.5a18.1,18.1,0,0,1,0-2,41.73,41.73,0,0,1,2.85-14.71c.38-1.13.83-2,1.35-3.23.23-.45.45-1,.68-1.42.15-.15-.08-.15-.23-.15h-.37l-.75-.08-1-.07-.75-.08a9,9,0,0,0-3.15,0,1.49,1.49,0,0,1-.45.08c-.07.07-.15,0-.15-.08-.15-.37-.22-.75-.37-1a12.62,12.62,0,0,1,.52-8c.38-.9.75-1.58,1-2A1.89,1.89,0,0,1,443.47,623Z"/><path d="M460.5,635.51c.08.08.3-.07.68-.37a6,6,0,0,0,1.42-1.58,4.88,4.88,0,0,0,.83-3.23,5.77,5.77,0,0,0-2.1-3.52,20.12,20.12,0,0,0-6.16-3.31c-1.65-.52-2.7-.75-2.77-.6s.9.68,2.4,1.51a35,35,0,0,1,5.63,3.37,5.79,5.79,0,0,1,1.8,2.63,4.07,4.07,0,0,1-.45,2.55c-.38.75-.75,1.28-1,1.73S460.43,635.44,460.5,635.51Z"/><path d="M421,649c-.08-.08-.3.07-.83.3a2.65,2.65,0,0,0-1.05.52.63.63,0,0,0-.15.38,2.76,2.76,0,0,0,.08.37c.15.23.22.23.37.38s.23.15.45.3l.3.15a.51.51,0,0,0,.3-.15c.3-.08.53-.23.83-.3a2.6,2.6,0,0,1,.75-.23q.78-.22,1.8-.45a36.55,36.55,0,0,1,4.2-.45c1.35,0,2.63-.07,3.83-.07l-.45-1.13c-1,1.05-1.8,3.76.3,2.71l.45-.16.45-.3a1.34,1.34,0,0,0,.6-.45,8,8,0,0,1,.83-.75c.9-.9,1.5-1.35,1.42-1.5s-.9.08-1.95.9c-.3.15-.52.45-.82.6s-.38.23-.38.23h-.15c-.08,0-.15,0-.08-.15l.08-.08h0s.15-.15.15-.22l1.2-1.05h-1.65c-1.2,0-2.48-.08-3.83,0a19.74,19.74,0,0,0-4.42.6,12.93,12.93,0,0,0-1.88.6,3.78,3.78,0,0,0-.83.37l-.37.23a.87.87,0,0,0-.23.15c-.07.07-.07,0-.3-.08a.29.29,0,0,1-.15-.07c-.15.07-.15.07-.22.07s.07,0,.22.08c.08-.15.53-.38.68-.53C420.88,649.39,421.1,649,421,649Z"/><path d="M410.22,663.35c.15.23,1.35-.82,3.68-1.8a34.06,34.06,0,0,1,9.53-1.95c1.95-.23,3.83-.38,5.48-.75a13.64,13.64,0,0,0,4.35-1.58c2.33-1.35,3.15-2.85,3-2.92s-1.27,1-3.45,2-5.63,1.5-9.53,1.8a25.77,25.77,0,0,0-9.83,2.41C411.12,661.93,410.15,663.28,410.22,663.35Z"/><path d="M411.12,667c0,.23,2.78-.07,7.13-.6s10.51-1.35,17.19-2.17c6.68-1,12.75-1.73,17.11-2.7s7.05-1.51,7-1.66-2.78.08-7.13.68-10.43,1.35-17.19,2.25-12.76,1.73-17.11,2.63S411.12,666.73,411.12,667Z"/><path d="M418.33,676c0,.15,2.55,0,6.53-.53a140.18,140.18,0,0,0,15.38-3.52c5.93-1.65,11.18-3.31,15.08-4.51s6.23-1.95,6.16-2.17-2.48.3-6.46,1.2-9.3,2.47-15.16,4.13-11.25,3-15.15,3.9C420.73,675.21,418.33,675.73,418.33,676Z"/><path d="M542.22,646.92c6.6-.3,21.09,9.38,23.94-1.28,2.93-11.78-19.51-3.3-24.76-5.93" style="fill:#885121"/><path d="M475.43,643.84c-6.52-.9-21.83,7.35-23.71-3.53-1.8-12,19.81-1.42,25.21-3.6" style="fill:#885121"/><path d="M480.16,633.11a51.11,51.11,0,0,0-5.85-11.41h0c11,2.1,21.24,5.78,33.39.75-.07,2.41,1.43,4.06,1.35,4.88,5.18-9.3,35.12-2.32,45.78-8.18-.15,2.4-.3,5.56-1.2,7.88l-11.41,21.76" style="fill:#dfb769"/><path d="M470.33,655.7a148.67,148.67,0,0,1,46.38-5c14.25.68,27.54,6.91,41.8,8.33h0c-3.76-5.77-9.24-7.57-16.21-10.28,3.9,1,8.7.38,11.93-.22a97,97,0,0,0-8.48-6c7.88,1.2,12.91-4.21,11.7-12.16-14.33-.68-29.71,5-44.8,4.28-14.33-.68-28.51-2.93-42.84-2.78a121.61,121.61,0,0,0,10.8,7.65c-2.4-.07-5.63.53-7.2.45,0,.83,2.32.9,2.32.9-8.85,1.2-7.58,9.23-4.65,14.94" style="fill:#ffe0a5"/><path d="M769.45,623.58c6.3-1.88,22.73,3.9,22.88-7.05,0-12.16-19.73,1.57-25.51.3" style="fill:#885121"/><path d="M704,636.79c-6.53.67-19.36,12.45-23.86,2.4-4.73-11.26,18.83-6.23,23.64-9.61" style="fill:#885121"/><path d="M705.89,625.23a52.72,52.72,0,0,0-8.41-9.68h0c11.26-.68,22,.45,32.57-7.35.45,2.32,2.33,3.6,2.48,4.35,2.77-10.28,33.54-10.81,42.4-19.14.45,2.33,1.12,5.48.82,8l-5.7,23.86" style="fill:#dfb769"/><path d="M701.91,649.62a150.74,150.74,0,0,1,43.82-16.13c14-2.86,28.37-.08,42.55-2.11h0c-5-4.65-10.73-5.1-18.23-6.07,4.05,0,8.55-1.73,11.55-3.16a97.2,97.2,0,0,0-9.68-3.75c8-.82,11.56-7.2,8.41-14.71-14,2.86-27.62,12.09-42.4,15.09-14,2.85-28.37,4.12-42.25,7.73,3.6,1.72,8,3.22,12.31,4.8-2.33.45-5.33,1.87-6.83,2.18.15.75,2.48.3,2.48.3-8.26,3.3-5.11,10.8-.9,15.6" style="fill:#ffe0a5"/><path d="M752.86,632.28c-2,6.31-15.83,16.74-6.83,23,10.13,6.75,9.68-17.34,13.89-21.39" style="fill:#885121"/><path d="M778.15,570.53c3.08-5.86.38-23,11.26-21.17,11.93,2.33-5.25,19.14-5.1,25" style="fill:#885121"/><path d="M786.71,578.48a50.28,50.28,0,0,0,12.68-1.65h0c-5.7,9.68-12.53,18.08-11.93,31.22-2.18-.9-4.28,0-5-.3,7.05,8-9.61,33.91-7.58,45.85-2.18-.9-5.18-2.11-7.05-3.76l-16.66-18" style="fill:#dfb769"/><path d="M768.7,561.67a148.61,148.61,0,0,1-10.88,45.4c-5.41,13.28-15.69,23.64-21.84,36.62h0c6.68-1.58,10.2-6.15,15.16-11.86-2.25,3.38-3.3,8.11-3.76,11.34a81,81,0,0,0,8.48-6c-3.75,7.06-.37,13.58,7.58,15.16,5.41-13.28,5.26-29.64,11-43.6,5.4-13.28,12.31-25.89,17-39.47-3.45,2-7.12,4.8-10.88,7.58.9-2.18,1.35-5.48,2-6.91-.75-.3-1.65,2-1.65,2,1.88-8.71-6.15-10.28-12.45-9.38" style="fill:#ffe0a5"/><path d="M427.41,996.31c4.5,4.8,6.6,22.06,16.51,17.34,10.88-5.41-10.21-17-11.63-22.74" style="fill:#885121"/><path d="M386.36,943.63c-3.53-5.55-19.74-11.85-12.76-20.33,8-9.23,14,14.1,19.14,16.88" style="fill:#885121"/><path d="M397.62,940.18a50.32,50.32,0,0,0,4.87-11.86h0c5.56,9.76,9.38,19.89,21.09,25.89-1.88,1.5-2.18,3.68-2.78,4.21,10.43-2.11,24.62,25.21,35.95,29.41a31.12,31.12,0,0,1-6.76,4.28l-23.93,5.48" style="fill:#dfb769"/><path d="M374,947.46a151.09,151.09,0,0,1,33.92,32c8.78,11.33,12.68,25.37,20.86,37.15h0c1.95-6.53-.23-11.93-2.7-19.06,1.8,3.6,5.4,6.9,7.95,8.93a93.65,93.65,0,0,0-1-10.36c4.27,6.75,11.55,7.13,16.88,1-8.78-11.33-23.11-19.36-32.34-31.3-8.78-11.33-16.29-23.56-25.74-34.36a125.47,125.47,0,0,0,1.2,13.2c-1.5-1.87-4.05-3.9-5-5.18-.6.53.83,2.41.83,2.41-6.61-5.93-11.94.22-14.41,6.15" style="fill:#ffe0a5"/><path d="M381.63,993c2.33,6.15-2.4,22.89,8.63,22.36,12.16-.82-2.92-19.58-2-25.44" style="fill:#885121"/><path d="M364,928.62c-1.13-6.45-13.74-18.53-4-23.63,10.88-5.48,7.5,18.38,11.26,22.88" style="fill:#885121"/><path d="M375.63,929.75a49.71,49.71,0,0,0,9.08-9.08h0c1.42,11.18,1.05,22,9.6,32-2.32.6-3.45,2.55-4.2,2.77,10.43,2.1,13.06,32.72,21.91,41-2.32.6-5.32,1.5-7.88,1.35l-24.23-4.06" style="fill:#dfb769"/><path d="M351.09,927.42a149.49,149.49,0,0,1,19.06,42.63c3.75,13.8,2,28.29,5,42.32h0c4.28-5.33,4.35-11.11,4.8-18.61.3,4,2.33,8.4,3.9,11.33a82.68,82.68,0,0,0,3.08-9.9c1.35,7.88,8,11,15.23,7.35-3.75-13.81-13.88-26.71-17.93-41.27-3.75-13.81-6-28.07-10.58-41.65-1.43,3.68-2.7,8.18-4,12.61-.6-2.33-2.25-5.18-2.63-6.68-.75.22-.15,2.55-.15,2.55-3.82-8-11.1-4.35-15.6.15" style="fill:#ffe0a5"/><polygon points="617.04 986.26 531.64 986.26 515.43 1006.67 633.25 1006.67 617.04 986.26" style="fill:#115079"/><path d="M633.4,1012.6c0,6.07-5.86,10.95-13.14,10.95H527.74c-7.28,0-13.13-4.88-13.13-10.95h0c0-6.08,5.85-11,13.13-11h92.45c7.28,0,13.21,5,13.21,11Z" style="fill:#19679a"/><path d="M532.09,1021.23c-1.43-5.26-4.88-13.44,1.43-16.89,6.3,2.93,3.45,12.23,3.45,17.49-3.45,0-2.78-1.73-2.1-1.21" style="fill:#cc6f28"/><polygon points="726.22 1004.57 709.11 959.02 689.3 954.66 712.87 1017.55 726.22 1004.57" style="fill:#9e1d21"/><path d="M709,1021.45c-5,1.28-10.13-.9-11.63-5l-19.28-51.33c-1.5-4,1.27-8.33,6.22-9.61h0c5-1.27,10.14.9,11.64,5l19.28,51.32c1.5,4-1.27,8.33-6.23,9.61Z" style="fill:#da2427"/><path d="M680.9,967.05c4-1.88,9.9-5.56,14-2.86-1,4.13-9.23,4.58-13.51,5.63-.75-2,.83-2,.53-1.42" style="fill:#cc6f28"/><path d="M374.8,1028.28l-43.22,11.41-5.78-3.38,1.2,4.58,2.85,10.73,48.1-12.69a22.46,22.46,0,1,0,13.59-33.16A22.71,22.71,0,0,0,374.8,1028.28Z" style="fill:#e9f5f1"/><path d="M419.45,1021.68a22.88,22.88,0,0,1-41.65,17.78l-48.17,12.68-4.43-16.81,6.53,3.83,42.7-11.26a22.68,22.68,0,0,1,17-22.51A23,23,0,0,1,419.45,1021.68Zm-89.3,29.41,48-12.68.15.3a22,22,0,1,0-3-10.43v.37l-43.83,11.56-4.95-2.93Z" style="fill:#74a6d8"/><path d="M397.32,1048.09A19.27,19.27,0,0,0,416.68,1029l-38.5-.22A19.25,19.25,0,0,0,397.32,1048.09Z" style="fill:#54b850"/><path d="M1400,522.5a56.21,56.21,0,1,0,56.13,56.2A56.15,56.15,0,0,0,1400,522.5Zm0,94a37.75,37.75,0,1,1,37.74-37.75A37.73,37.73,0,0,1,1400,616.45Z" style="fill:#636464"/><path d="M1406.25,522.87c-1.2-.15-2.33-.22-3.53-.3-.6,6.16-1,12.31-1.5,18.46a16.4,16.4,0,0,1,2.7.23C1404.9,535.11,1405.65,529,1406.25,522.87Z" style="fill:#cbc9c7"/><path d="M1417.13,525.2a52.46,52.46,0,0,0-7.58-1.88c-.6,6.16-1.35,12.24-2.32,18.39,1.2.22,2.32.52,3.45.82C1412.85,536.76,1415.33,531.05,1417.13,525.2Z" style="fill:#cbc9c7"/><path d="M1428.16,530.08a51.92,51.92,0,0,0-8-3.83c-1.8,5.85-4.28,11.56-6.46,17.26a46.89,46.89,0,0,1,4.73,2.25A181.84,181.84,0,0,1,1428.16,530.08Z" style="fill:#cbc9c7"/><path d="M1437.54,537a53.64,53.64,0,0,0-6.53-5.1c-3.45,5.1-6.75,10.28-9.68,15.68,1.05.75,2.11,1.5,3.08,2.33A93.2,93.2,0,0,1,1437.54,537Z" style="fill:#cbc9c7"/><path d="M1445.72,546.21a56.5,56.5,0,0,0-5.78-7,102.52,102.52,0,0,0-13.2,12.91,39,39,0,0,1,3.67,4.28A104.56,104.56,0,0,1,1445.72,546.21Z" style="fill:#cbc9c7"/><path d="M1452.48,558.89a59.11,59.11,0,0,0-5-10c-5.32,3.08-10.65,6.23-15.31,10.28a38.56,38.56,0,0,1,2.26,4.28C1440.47,562.05,1446.55,560.62,1452.48,558.89Z" style="fill:#cbc9c7"/><path d="M1455.18,568.57a60.26,60.26,0,0,0-1.58-6.52c-5.93,1.72-11.93,3.15-17.93,4.57a38.25,38.25,0,0,1,1.12,4.21C1443,570.6,1449,569.47,1455.18,568.57Z" style="fill:#cbc9c7"/><path d="M1454.05,593.56a53.83,53.83,0,0,0,1.65-8.55c-6.08-.83-12.3-.83-18.31-2a34,34,0,0,1-.67,3.82C1442.42,589.06,1448.87,590.41,1454.05,593.56Z" style="fill:#cbc9c7"/><path d="M1450.9,602.27a47.7,47.7,0,0,0,2.18-5.48c-5-3.38-11.56-4.65-17.19-6.68-.3,1-.6,1.88-1,2.78C1439.42,597.24,1445.8,598.82,1450.9,602.27Z" style="fill:#cbc9c7"/><path d="M1427.71,627.56a42.56,42.56,0,0,0,5.78-3.83c-3.45-5-7.2-10.28-9.45-16.06-1,.83-2,1.5-2.93,2.25C1422.23,616.08,1425.09,621.78,1427.71,627.56Z" style="fill:#cbc9c7"/><path d="M1419.76,631.31c1.72-.68,3.45-1.43,5.1-2.25-2.55-5.71-5.33-11.26-6.68-17.34-.37.23-.82.45-1.2.68C1417.43,618.78,1418.71,625,1419.76,631.31Z" style="fill:#cbc9c7"/><path d="M1408.88,634.24a64.9,64.9,0,0,0,7.73-1.81c-1-6.15-2.26-12.3-2.86-18.53a24.16,24.16,0,0,1-3.3,1.12C1410.15,621.33,1409.33,627.78,1408.88,634.24Z" style="fill:#cbc9c7"/><path d="M1392.07,615.63a37.75,37.75,0,0,1,5.85-74.6c.53-6.15.9-12.38,1.5-18.53A56.23,56.23,0,0,0,1389.74,634C1390.12,627.86,1391.24,621.63,1392.07,615.63Z" style="fill:#cbc9c7"/><path d="M1399.42,616.45a36.78,36.78,0,0,1-4.05-.3c-.53,4.2-1.2,8.33-1.65,12.53-.23,1.88-.38,3.83-.53,5.86a41.35,41.35,0,0,0,5.26.37A65.89,65.89,0,0,1,1399.42,616.45Z" style="fill:#cbc9c7"/><path d="M1402.8,616.38a60.82,60.82,0,0,0-1.13,18.53l3.91-.22c.37-6.31,1.2-12.61,1.5-18.84C1405.73,616.08,1404.3,616.23,1402.8,616.38Z" style="fill:#cbc9c7"/><path d="M1430,601.44a42,42,0,0,1-3.38,3.9c1.88,5.86,5.93,11.34,9.46,16.36a59.53,59.53,0,0,0,6.83-6.83C1438.52,610.67,1433.19,606.62,1430,601.44Z" style="fill:#cbc9c7"/><path d="M1445,612.32a62,62,0,0,0,4.5-7.05c-4.87-3.68-11.18-5.25-16-9.23a14,14,0,0,1-1.35,2.33C1434.77,603.84,1440.39,608.05,1445,612.32Z" style="fill:#cbc9c7"/><path d="M1437.62,579.83c6.08,1.2,12.3,1.2,18.38,1.95.08-1,.08-2,.08-3.08a52.5,52.5,0,0,0-.45-6.9c-6.08.9-12.16,2-18.31,2.25a32.34,32.34,0,0,1,.3,4.65Z" style="fill:#cbc9c7"/><rect x="1188.93" y="507.19" width="206.66" height="137.85" style="fill:#868686"/><path d="M1188.93,574.73v20l186.63-87.65h-42.93Q1260.82,541,1188.93,574.73Z" style="fill:#9d9d9d"/><path d="M1188.93,623.5V645h206.66V526.55Q1292.27,575.06,1188.93,623.5Z" style="fill:#7b7c7c"/><polygon points="1364.15 488.43 1220.45 488.43 1188.93 507.19 1395.6 507.19 1364.15 488.43" style="fill:#545554"/><path d="M1375,612.25c0,7.2-6.3,13-14.1,13H1223.75c-7.81,0-14.11-5.85-14.11-13V538.71c0-7.21,6.3-13,14.11-13h137.18c7.8,0,14.1,5.85,14.1,13Z" style="fill:none;stroke:#545554;stroke-miterlimit:10;stroke-width:0.7504163980484009px"/><path d="M1370.53,610.22c0,6.83-6,12.31-13.36,12.31H1227.43c-7.36,0-13.36-5.48-13.36-12.31V540.66c0-6.83,6-12.31,13.36-12.31h129.74c7.36,0,13.36,5.48,13.36,12.31Z" style="fill:#448ac9"/><path d="M1239.81,597.62c0,4.57-4,8.32-9,8.32h0c-5,0-9-3.75-9-8.32V541c0-4.57,4-8.33,9-8.33h0c5,0,9,3.76,9,8.33Z" style="fill:#fff"/><path d="M1357.62,528.35a10.26,10.26,0,0,1,.23,2.18v69.56c0,6.83-6,12.31-13.36,12.31h-130.2c1.13,5.78,6.61,10.13,13.14,10.13h129.74c7.36,0,13.36-5.48,13.36-12.31V540.66C1370.53,534,1364.83,528.58,1357.62,528.35Z" style="fill:#3d7db5"/><polygon points="1194.03 640.91 1191.63 637.01 1194.03 633.11 1198.91 633.11 1201.31 637.01 1198.91 640.91 1194.03 640.91" style="fill:none;stroke:#545554;stroke-miterlimit:10;stroke-width:0.7444881087900797px"/><polygon points="1384.04 640.91 1381.56 637.01 1384.04 633.11 1388.84 633.11 1391.32 637.01 1388.84 640.91 1384.04 640.91" style="fill:none;stroke:#545554;stroke-miterlimit:10;stroke-width:0.7444881087900797px"/><polygon points="1384.04 519.87 1381.56 516.04 1384.04 512.14 1388.84 512.14 1391.32 516.04 1388.84 519.87 1384.04 519.87" style="fill:none;stroke:#545554;stroke-miterlimit:10;stroke-width:0.7444881087900797px"/><polygon points="1195.38 519.87 1192.91 516.04 1195.38 512.14 1200.26 512.14 1202.66 516.04 1200.26 519.87 1195.38 519.87" style="fill:none;stroke:#545554;stroke-miterlimit:10;stroke-width:0.7444881087900797px"/><ellipse cx="1385.01" cy="582.01" rx="6" ry="5.55" style="fill:#545554"/><path d="M1390.19,582a5.2,5.2,0,1,1-5.18-4.73A5,5,0,0,1,1390.19,582Z" style="fill:#f48120"/><ellipse cx="1385.01" cy="569.7" rx="6" ry="5.55" style="fill:#545554"/><path d="M1390.19,569.7A5.2,5.2,0,1,1,1385,565,5,5,0,0,1,1390.19,569.7Z" style="fill:#f48120"/><ellipse cx="1385.01" cy="557.39" rx="6" ry="5.55" style="fill:#545554"/><path d="M1390.19,557.39a5.2,5.2,0,1,1-5.18-4.72A5,5,0,0,1,1390.19,557.39Z" style="fill:#f48120"/><ellipse cx="1385.01" cy="545.16" rx="6" ry="5.55" style="fill:#545554"/><path d="M1390.19,545.16a5.2,5.2,0,1,1-5.18-4.73A5,5,0,0,1,1390.19,545.16Z" style="fill:#f48120"/><path d="M1205.66,518.75c0,4-3.52,7.2-7.88,7.2s-7.87-3.23-7.87-7.2,3.52-7.21,7.87-7.21S1205.66,514.77,1205.66,518.75Z" style="fill:#545554"/><path d="M1204.54,518.75c0,3.45-3,6.15-6.76,6.15s-6.75-2.78-6.75-6.15,3-6.16,6.75-6.16S1204.54,515.37,1204.54,518.75Z" style="fill:#ed2525"/></g></g></g></svg>