<svg data-name="Capa 1" xmlns="http://www.w3.org/2000/svg" viewBox="0 0 361 305"><path d="M179.6 280.2c0-4.46-1.33-8.08-3-8.08h-20.47c-1.64 0-3 3.62-3 8.08v16.58c0 4.47 1.34 8.09 3 8.09h23.47z" fill="#6e3318"/><path d="M176.52 272.12h-7.62v32.75h10.7V280.2c0-4.46-1.37-8.08-3.08-8.08z" fill="#562915"/><path d="M180.86 280.2c0-4.46 1.34-8.08 3-8.08h20.49c1.65 0 3 3.62 3 8.08v16.58c0 4.47-1.34 8.09-3 8.09h-23.49z" fill="#6e3318"/><path d="M183.31 272.12h7.63v32.75h-10.71V280.2c0-4.46 1.38-8.08 3.08-8.08z" fill="#562915"/><path d="M179.06 34.16c-7.11.31-31.85 59-31.85 59 17.69-6.17 31.85-5 31.85-5s14.16-1.21 31.85 5c0 .01-24.74-58.69-31.85-59z" fill="#823790"/><path d="M182.58 44.38c1 4.63 2.09 9.27 2.92 13.94a125.75 125.75 0 0 1 2.19 26.89c0 1-.09 2.07-.16 3.1a91.55 91.55 0 0 1 23.38 4.86s-22.46-53.29-30.73-58.59c.63 3.32 1.68 6.65 2.4 9.8z" fill="#6d2e78"/><path d="M233.67 128.7A18.48 18.48 0 1 0 200 115.57l-23.21-5.88-23.21 5.88A18.48 18.48 0 1 0 120 128.7c-13.2 12.53-36.69 41.36-13 71.27 0 0 22.47 24.35 69.86 14.73 47.4 9.62 69.86-14.73 69.86-14.73 23.65-29.91.16-58.74-13.05-71.27z" fill="#ee89b8"/><path d="M226.82 132.29a16.25 16.25 0 1 0-29.57-11.55l-20.42-5.17-20.41 5.17a16.25 16.25 0 1 0-29.57 11.55c-11.62 11-32.28 36.37-11.46 62.68 0 0 19.76 21.41 61.44 12.95 41.69 8.46 61.44-12.95 61.44-12.95 20.82-26.31.16-51.66-11.45-62.68z" fill="#d16d9c"/><path d="M232.43 163l-10.1 7.47q14.28 18 28.46 36.17c1 1.33 2.58 2.39 3.51 3.76 2.81 4.11 1.58 9.24 4.92 13.26 1.65 2 3.93 5.33 6.38 6.35 7.16 3 1.38-11.17.69-12.93.61.13 11 .17 8.59-2.12-2-1.9-5.11-2.92-7.59-4.88a11.33 11.33 0 0 0-3.8-2.14z" fill="#fcc184"/><path d="M242.78 178l-10.35-15-10.1 7.47 6.24 7.88a24.34 24.34 0 0 0 14.21-.35z" fill="#d19659"/><path d="M128.57 163l10.1 7.47q-14.28 18-28.46 36.17c-1 1.33-2.58 2.39-3.51 3.76-2.81 4.11-1.58 9.24-4.92 13.26-1.65 2-3.93 5.33-6.38 6.35-7.16 3-1.38-11.17-.69-12.93-.61.13-11 .17-8.59-2.12 2-1.9 5.11-2.92 7.59-4.88a11.33 11.33 0 0 1 3.8-2.14z" fill="#fcc184"/><path d="M118.22 178l10.35-15 10.1 7.47-6.24 7.88a24.34 24.34 0 0 1-14.21-.35z" fill="#d19659"/><circle cx="218.64" cy="159.37" r="17.97" fill="#63366b"/><circle cx="140.21" cy="159.38" r="17.97" fill="#63366b"/><path d="M231 162.61a18 18 0 0 0-16.09-19.68 18.51 18.51 0 0 0-3.41 0 18 18 0 1 1 8.81 34.36A18 18 0 0 0 231 162.61zM128 163a18 18 0 0 1 15.47-20.18 18.51 18.51 0 0 1 3.4-.12 18 18 0 1 0-7.74 34.63A18 18 0 0 1 128 163z" fill="#733f7d"/><path d="M211.51 298.57c17.8-11.59 29.67-32.43 29.67-56.22 0-36.4-27.81-65.91-62.12-65.91s-62.12 29.56-62.12 65.91c0 23.79 11.87 44.63 29.67 56.22z" fill="#844890"/><path d="M179.06 176.44a59.16 59.16 0 0 0-32.36 9.64c23 4.48 44 27.67 45.49 60.72.82 18.1-3.2 35.68-9.14 51.77h28.46c17.8-11.59 29.67-32.43 29.67-56.22 0-36.35-27.81-65.91-62.12-65.91z" fill="#764080"/><path d="M138.59 215.82a4.8 4.8 0 0 1 4.13-3.6c-1.43-3.09-4.43-6.09-6.74-5-3.57 1.78-.59 6.35 2.61 8.6zM147.63 217c3.49-1.23 5.31-7.76 2.4-10.46-3.51-3.13-5.4 2-6.33 5.75a5 5 0 0 1 3.93 4.71zM139.55 221a5.64 5.64 0 0 1-1.2-3.51 5.85 5.85 0 0 1 .16-1.34c-3.69-.82-8.7-1.18-8.7 3.07 0 4.87 6.09 3.7 9.74 1.78zM141.63 229.78c3.29.75 4-3.41 3.51-6.91 1.81 2.53 5.37 4.38 7.06 2 2.48-2.81-1.55-6.06-4.55-7.27-.05 2.86-2.11 5.17-4.64 5.17a4.32 4.32 0 0 1-2.84-1.1c-1.52 3-2.02 7.33 1.46 8.11zM116.8 235.07a3.47 3.47 0 0 1 .72.19c.15-1.37.33-2.72.56-4.06a22.5 22.5 0 0 0-1.28 3.87zM120.74 239.77c3.48-1.23 5.3-7.76 2.39-10.46-2.33-2.08-3.95-.51-5 1.89-.23 1.34-.41 2.69-.56 4.06a5.17 5.17 0 0 1 3.17 4.51zM118.24 245.66c1.81 2.54 5.38 4.38 7.07 2 2.47-2.8-1.55-6-4.56-7.26a5.15 5.15 0 0 1-3.61 5c.07 2 .23 4 .46 5.91a10 10 0 0 0 .64-5.65zM140.28 242.2c-3.57 1.74-.59 6.33 2.61 8.58a4.8 4.8 0 0 1 4.13-3.6c-1.43-3.09-4.43-6.1-6.74-4.98zM154.33 241.47c-3.51-3.12-5.4 2-6.33 5.76a5 5 0 0 1 3.93 4.7c3.49-1.23 5.31-7.76 2.4-10.46zM142.66 252.43a5.77 5.77 0 0 1 .15-1.33c-3.69-.83-8.7-1.19-8.7 3.06 0 4.89 6.09 3.71 9.74 1.79a5.68 5.68 0 0 1-1.19-3.52zM156.51 259.8c2.47-2.8-1.56-6.05-4.56-7.26 0 2.86-2.11 5.16-4.64 5.16a4.27 4.27 0 0 1-2.84-1.1c-1.52 3-2 7.35 1.46 8.14 3.29.74 3.95-3.41 3.51-6.92 1.81 2.54 5.37 4.38 7.07 1.98zM123.27 264.12c-3.58 1.73-.6 6.33 2.61 8.58a4.78 4.78 0 0 1 4.13-3.61c-1.43-3.09-4.44-6.09-6.74-4.97zM137.31 263.39c-3.51-3.12-5.4 2-6.33 5.75a5 5 0 0 1 3.94 4.71c3.48-1.23 5.3-7.76 2.39-10.46zM125.64 274.35a5.92 5.92 0 0 1 .16-1.34c-.66-.14-1.35-.27-2-.36q1.31 2.73 2.85 5.33l.23-.12a5.63 5.63 0 0 1-1.24-3.51zM132.42 279.74c1.81 2.53 5.38 4.38 7.07 2 2.48-2.81-1.55-6.06-4.55-7.27-.05 2.87-2.11 5.17-4.65 5.17a4.29 4.29 0 0 1-2.84-1.1c-.08.16-.16.33-.23.5a66.28 66.28 0 0 0 4.53 6.43 9.9 9.9 0 0 0 .67-5.73zM162.78 179.37c-1.6.46-3.18 1-4.72 1.59a5.58 5.58 0 0 1 1.15 3c1.72-.62 3.03-2.51 3.57-4.59zM151.13 188a5.57 5.57 0 0 1-1.18-3.17 63.26 63.26 0 0 0-6.77 4.46c2.08.87 5.54-.06 7.95-1.29zM153.21 196.75c3.29.74 3.95-3.41 3.51-6.92 1.81 2.54 5.37 4.38 7.07 2 2.47-2.8-1.56-6.05-4.56-7.26 0 2.86-2.11 5.16-4.64 5.16a4.27 4.27 0 0 1-2.84-1.1c-1.52 3-2.02 7.37 1.46 8.12zM171.84 209.38a4.78 4.78 0 0 1 4.13-3.61c-1.43-3.09-4.44-6.09-6.74-5-3.58 1.76-.59 6.36 2.61 8.61zM180.88 210.53c3.48-1.23 5.31-7.76 2.39-10.46-3.5-3.12-5.4 2-6.32 5.75a5 5 0 0 1 3.93 4.71zM163.06 212.76c0 4.89 6.08 3.71 9.73 1.79a5.68 5.68 0 0 1-1.19-3.55 5.92 5.92 0 0 1 .16-1.34c-3.69-.79-8.7-1.15-8.7 3.1zM180.9 211.14c-.05 2.86-2.11 5.16-4.65 5.16a4.29 4.29 0 0 1-2.84-1.1c-1.51 3-2 7.35 1.47 8.14 3.28.74 3.94-3.41 3.5-6.92 1.82 2.54 5.38 4.38 7.07 2 2.48-2.82-1.55-6.08-4.55-7.28zM175.72 240c-1.43-3.1-4.43-6.1-6.74-5-3.57 1.73-.59 6.33 2.61 8.58a4.78 4.78 0 0 1 4.13-3.58zM180.63 244.72c3.49-1.23 5.31-7.76 2.4-10.46-3.51-3.12-5.4 2-6.33 5.75a5 5 0 0 1 3.93 4.71zM171.36 245.22a5.77 5.77 0 0 1 .15-1.33c-3.69-.83-8.7-1.19-8.7 3.06 0 4.89 6.09 3.71 9.74 1.79a5.68 5.68 0 0 1-1.19-3.52zM180.65 245.33c-.05 2.86-2.11 5.16-4.64 5.16a4.27 4.27 0 0 1-2.84-1.1c-1.52 3-2 7.35 1.46 8.14 3.29.74 4-3.41 3.51-6.92 1.81 2.54 5.37 4.38 7.07 2 2.47-2.82-1.56-6.07-4.56-7.28zM157.65 274.9c-3.58 1.74-.59 6.33 2.61 8.58a4.77 4.77 0 0 1 4.13-3.6c-1.39-3.09-4.39-6.1-6.74-4.98zM165.36 279.93a5 5 0 0 1 3.94 4.7c3.48-1.23 5.3-7.75 2.39-10.46-3.51-3.12-5.4 1.99-6.33 5.76zM160 285.13a5.77 5.77 0 0 1 .16-1.33c-3.69-.82-8.7-1.19-8.7 3.06 0 4.89 6.08 3.71 9.73 1.79a5.68 5.68 0 0 1-1.19-3.52zM169.32 285.24c0 2.86-2.11 5.16-4.65 5.16a4.29 4.29 0 0 1-2.84-1.1c-1.51 3-2 7.35 1.47 8.14 3.28.74 3.94-3.41 3.5-6.92 1.81 2.54 5.38 4.38 7.07 2 2.48-2.82-1.55-6.07-4.55-7.28zM190.05 178c-.94-.17-1.89-.33-2.85-.46a13.6 13.6 0 0 0 2.17 1.94 5.4 5.4 0 0 1 .68-1.48zM198.94 180.42l-.6-.2c0 .15.06.29.07.44a4.13 4.13 0 0 0 .53-.24zM190.32 184.68a5.75 5.75 0 0 1-1-4.85c-3.69-.82-8.7-1.19-8.7 3.06-.03 4.89 6.05 3.71 9.7 1.79zM192.41 193.47c3.28.74 4-3.41 3.51-6.92 1.81 2.54 5.37 4.38 7.06 2 2.48-2.8-1.55-6.05-4.55-7.26-.05 2.86-2.11 5.16-4.65 5.16a4.25 4.25 0 0 1-2.83-1.1c-1.52 3-2.02 7.33 1.46 8.12zM206.14 208.65a4.79 4.79 0 0 1 4.13-3.61c-1.43-3.09-4.43-6.09-6.73-5-3.54 1.76-.6 6.36 2.6 8.61zM215.19 209.8c3.48-1.23 5.3-7.76 2.39-10.46-3.51-3.12-5.4 2-6.33 5.75a5 5 0 0 1 3.94 4.71zM197.37 212c0 4.89 6.08 3.71 9.73 1.78a5.63 5.63 0 0 1-1.19-3.51 5.92 5.92 0 0 1 .15-1.34c-3.68-.79-8.69-1.15-8.69 3.07zM209.18 222.61c3.29.74 3.95-3.41 3.51-6.92 1.81 2.53 5.37 4.38 7.07 2 2.47-2.81-1.56-6.06-4.56-7.27 0 2.87-2.11 5.17-4.64 5.17a4.29 4.29 0 0 1-2.84-1.1c-1.51 3-2.02 7.33 1.46 8.12zM211.6 244.91c-1.43-3.09-4.43-6.09-6.74-5-3.57 1.73-.59 6.33 2.61 8.58a4.81 4.81 0 0 1 4.13-3.58zM218.91 239.21c-3.51-3.12-5.4 2-6.33 5.75a5 5 0 0 1 3.93 4.71c3.49-1.23 5.31-7.76 2.4-10.46zM207.24 250.17a5.92 5.92 0 0 1 .15-1.34c-3.69-.82-8.7-1.18-8.7 3.07 0 4.89 6.09 3.71 9.74 1.79a5.68 5.68 0 0 1-1.19-3.52zM216.53 250.27c-.05 2.87-2.11 5.17-4.64 5.17a4.27 4.27 0 0 1-2.84-1.1c-1.52 3-2 7.35 1.46 8.14 3.29.74 4-3.41 3.51-6.92 1.81 2.54 5.37 4.38 7.07 2 2.47-2.82-1.56-6.08-4.56-7.29zM199.11 281.39a4.77 4.77 0 0 1 4.13-3.6c-1.43-3.09-4.44-6.09-6.74-5-3.57 1.76-.59 6.35 2.61 8.6zM208.15 282.55c3.48-1.23 5.31-7.76 2.39-10.46-3.5-3.12-5.4 2-6.32 5.75a5 5 0 0 1 3.93 4.71zM198.87 283.05a5.85 5.85 0 0 1 .16-1.34c-3.69-.82-8.7-1.18-8.7 3.07 0 4.88 6.08 3.71 9.73 1.78a5.69 5.69 0 0 1-1.19-3.51zM208.17 283.15c0 2.86-2.11 5.17-4.65 5.17a4.34 4.34 0 0 1-2.84-1.1c-1.51 3-2 7.34 1.47 8.13 3.29.75 3.94-3.41 3.5-6.91 1.82 2.53 5.38 4.38 7.07 2 2.48-2.83-1.55-6.08-4.55-7.29zM234.42 218.65c-3.58 1.73-.6 6.32 2.61 8.57a5.18 5.18 0 0 1 1.84-2.71c-.53-1.93-1.13-3.82-1.82-5.66a2.82 2.82 0 0 0-2.63-.2zM236.79 228.88a5.85 5.85 0 0 1 .16-1.34c-3.69-.82-8.7-1.18-8.7 3.07 0 4.88 6.08 3.71 9.73 1.78a5.63 5.63 0 0 1-1.19-3.51zM238.6 233.05c-1.51 3-2 7.34 1.47 8.13a2.76 2.76 0 0 0 1.24 0 69.73 69.73 0 0 0-.53-7.13 4.37 4.37 0 0 1-2.18-1zM228.68 262c-3.57 1.74-.59 6.33 2.61 8.58a4.78 4.78 0 0 1 4.13-3.6c-1.42-3.06-4.42-6.07-6.74-4.98zM236.4 267.06a3.8 3.8 0 0 1 .58.15c.73-1.95 1.38-3.95 1.93-6-1.2 1.31-2 3.79-2.51 5.85zM231.21 270.93c-3.69-.83-8.7-1.19-8.7 3.06 0 4.89 6.09 3.71 9.74 1.79a5.67 5.67 0 0 1-1.2-3.52 5.77 5.77 0 0 1 .16-1.33z" fill="#6f2c7b"/><path d="M229.5 166.31c0 16.35-15.75 29.6-35.17 29.6h-30.54c-19.43 0-35.18-13.25-35.18-29.6s15.75-29.6 35.18-29.6h30.54c19.42 0 35.17 13.25 35.17 29.6z" fill="#844890"/><path d="M194.4 136.71h-30.68a40.35 40.35 0 0 0-17.39 3.85c5.93 8.77 20.07 10.92 31.21 12.16 6.68.75 14.14.87 20.22 3.58s10.38 7.22 12.24 12.7a20.3 20.3 0 0 1-1.58 17.37 46.37 46.37 0 0 1-7.57 9.28c16.44-2.55 28.89-14.67 28.89-29.24.01-16.41-15.82-29.7-35.34-29.7z" fill="#764080"/><path d="M188.19 138.42s12.64 19.39 13.81 40.08c0 0-6.93 4.59-23 4.49" fill="none" stroke="#7b1a51" stroke-miterlimit="10" stroke-width="2.519"/><path d="M170 138.42s-12.64 19.39-13.86 40.08c0 0 6.94 4.59 23 4.49" fill="none" stroke="#7b1a51" stroke-miterlimit="10" stroke-width="2.519"/><path d="M122.72 125.57c2.38-.71 5-6.44 2.71-8.28-3.35-2.71-5.45 5.2-4 7.52-.38-1.79-2.12-9.94-5.89-8-4 2.1 2.3 8.14 4.56 8.65-2.27-1.07-7.87-.39-6.78 3.29s6.4.31 7.6-1.73c-2.57.5-3.67 7-.51 7.64 3.38 1 3.36-5.46 2.42-7.24 1.09 3.68 7.59 3.1 8.3-.4.8-4.39-5.45-2.8-7.68-2.19" fill="#fff"/><circle cx="121.63" cy="125.7" r="3.75" fill="#febe31"/><path d="M235.32 136.12c1.45-.42 3-3.9 1.64-5-2-1.64-3.3 3.15-2.4 4.56-.23-1.08-1.28-6-3.57-4.82s1.4 4.94 2.76 5.25c-1.37-.65-4.76-.24-4.1 2s3.88.19 4.6-1.05c-1.56.31-2.22 4.27-.31 4.63 2.06.64 2-3.31 1.47-4.38.66 2.23 4.6 1.87 5-.25.49-2.66-3.3-1.7-4.65-1.33" fill="#fff"/><circle cx="234.66" cy="136.2" r="2.27" fill="#febe31"/><ellipse cx="179.06" cy="118.42" rx="43.61" ry="34.95" fill="#fcc184"/><ellipse cx="210.17" cy="115.92" rx="6.83" ry="8.63" fill="#f9aa84"/><ellipse cx="147.96" cy="115.92" rx="6.83" ry="8.63" fill="#f9aa84"/><path d="M200.36 71.15c-8.32 0-15.85 2.35-21.3 6.15-5.45-3.8-13-6.15-21.3-6.15-16.63 0-30.11 9.4-30.11 21s13.48 21 30.11 21c8.32 0 15.85-2.35 21.3-6.15 5.45 3.8 13 6.15 21.3 6.15 16.63 0 30.11-9.39 30.11-21s-13.47-21-30.11-21z" fill="#ee89b8"/><path d="M218.48 102.57c-11.6 0-36.35-1.08-40.09-10.73-4.44 7.17-15.72 11.5-26.88 12.23-7.19.47-15.59-.45-21.33-3.5 4.66 7.4 15.25 12.56 27.58 12.56 8.32 0 15.85-2.35 21.3-6.15 5.45 3.8 13 6.15 21.3 6.15 11.54 0 21.56-4.53 26.62-11.17a60.3 60.3 0 0 1-8.5.61z" fill="#d97da8"/><ellipse cx="138.44" cy="84.9" rx="9.58" ry="3.04" transform="rotate(-60.41 138.437 84.9)" fill="#f6afce"/><path d="M149.34 185.91s32 10.1 57.91 0" fill="#764080"/><path d="M162.78 295.43c-8.67 0-15.7 4.08-15.7 9.12h31.4c0-5.04-7.03-9.12-15.7-9.12zM197.26 295.43c8.67 0 15.7 4.08 15.7 9.12h-31.4c0-5.04 7.02-9.12 15.7-9.12z" fill="#6e3318" stroke="#471c10" stroke-miterlimit="10" stroke-width=".63"/><ellipse cx="178.58" cy="134.93" rx="6.68" ry="15.37" fill="#391212" stroke="#911b1d" stroke-miterlimit="10" stroke-width="1.26"/><path d="M141.13 190.38s30.09 10.22 75.85 0c.02 0-39.98 17.78-75.85 0z" fill="#fff"/><path d="M214.36 247.86a3.27 3.27 0 0 0-.09-.7 3.45 3.45 0 0 0-.14-.34 3.74 3.74 0 0 0-.85-1.15 3.68 3.68 0 0 0-2.67-1 3.73 3.73 0 0 0-.37-7.46 3.73 3.73 0 0 0-.37-7.45 3.73 3.73 0 0 0-.37-7.46 3.73 3.73 0 0 0-.36-7.46 3.73 3.73 0 0 0-.37-7.46 3.73 3.73 0 0 0-.37-7.46 3.73 3.73 0 0 0-.37-7.45l-29.74 3.71-29.78-3.71a3.73 3.73 0 0 0-.37 7.45 3.73 3.73 0 0 0-.36 7.46 3.73 3.73 0 0 0-.37 7.46 3.73 3.73 0 0 0-.37 7.46 3.73 3.73 0 0 0-.37 7.46 3.73 3.73 0 0 0-.37 7.45 3.73 3.73 0 0 0-.37 7.46 3.7 3.7 0 0 0-2.67 1 3.86 3.86 0 0 0-.85 1.15 5.12 5.12 0 0 0 0 2.8 6 6 0 0 0 .25.71c.1.21.23.42.35.62a4.27 4.27 0 0 0 .89 1 3.31 3.31 0 0 0 2.06.8 2.1 2.1 0 0 0 .91-.15 2 2 0 0 0 .72-.4 2.57 2.57 0 0 0 .8-1.49 3 3 0 0 0 0 1.62 2.51 2.51 0 0 0 1.09 1.21 3.83 3.83 0 0 0 2.66 1.08 3.72 3.72 0 0 0 3.73-3.7 3.74 3.74 0 0 0 7.47 0 3.74 3.74 0 0 0 7.47 0 3.73 3.73 0 0 0 7.46 0 3.74 3.74 0 0 0 7.47 0 3.74 3.74 0 0 0 7.47 0 3.73 3.73 0 0 0 7.46 0 3.73 3.73 0 0 0 3.74 3.7 3.65 3.65 0 0 0 3.73-3.28 3.08 3.08 0 0 0 .61.92 1.73 1.73 0 0 0 .74.42 2.43 2.43 0 0 0 1 .12 3.87 3.87 0 0 0 2.27-1 4.14 4.14 0 0 0 .89-1.1 6.82 6.82 0 0 0 .35-.7 7.15 7.15 0 0 0 .21-.7 4.7 4.7 0 0 0 .15-1.44z" fill="#fff"/><path d="M205.58 194.33l1.67 44.09s-2.28 9.13-9.66 2.2l-6.2-5.35s15.07 1.73 14.19 7.95c-.64 4.41-6.86 4.21-10.12 4.14-5.74-.13-11.42-.13-17.17-.13M151 194.33l-1.67 44.09s2.28 9.13 9.66 2.2l6.2-5.35S150.13 237 151 243.22c.63 4.41 6.86 4.21 10.12 4.14 5.74-.13 11.42-.13 17.17-.13" fill="none" stroke="#c56eac" stroke-miterlimit="10" stroke-width=".63"/><path d="M193.09 209.69v2.09c0 .52 0 1.05-.09 1.44l-.1.64M192 216.86l-.28.59a13.67 13.67 0 0 1-.72 1.24c-.3.43-.61.85-.86 1.15l-.44.49M187.31 222.33a14.74 14.74 0 0 1-1.84 1c-.49.19-1 .38-1.35.49l-.64.16M180.23 224.57h-3.78M173.09 224l-.63-.16c-.37-.11-.86-.3-1.35-.49a14.74 14.74 0 0 1-1.84-1M166.87 220.33s-.17-.2-.44-.49-.56-.72-.85-1.15a10.79 10.79 0 0 1-.72-1.25l-.28-.58M163.73 213.86l-.1-.64c0-.39 0-.92-.09-1.44v-2M167.64 206.3h4.41M175.82 206.3h5.04M184.01 206.3h5.04M189.68 211.97h-5.04M180.86 211.97h-5.04M172.05 211.97h-5.04" fill="none" stroke="#dfb5d5" stroke-miterlimit="10" stroke-width=".63"/><path d="M106.62 106.49c1.69-2.58-.42-10.09-4-10-5.34.1-1 9.28 2.25 10.29-1.79-1.39-10-7.73-11.94-2.83-2.11 5.18 8.68 5.88 11.23 4.56-3 .8-7.77 5.91-3.8 8.53s6.32-4.82 5.82-7.71c-2 2.53 2.14 9.6 5.62 7.66 4-1.71-1.17-7.86-3.48-8.8 4 2.62 9.66-3.12 7.55-7-2.75-4.81-7.4 1.69-9 4" fill="#fff"/><circle cx="105.68" cy="107.48" r="4.65" fill="#febe31"/><path d="M118.18 92.7c.61-3-4.18-9.18-7.51-7.76-4.91 2.1 2.55 9 6 8.69-2.18-.62-12.13-3.42-12.13 1.87 0 5.59 10.26 2.17 12.13 0-2.49 1.86-5 8.39-.31 9.33s4-6.85 2.49-9.33c-.94 3.11 5.59 8.08 8.08 5 3.11-3.11-4-6.84-6.53-6.84 4.67.93 7.78-6.53 4.36-9.33-4.36-3.42-6.22 4.35-6.85 7.15" fill="#fff"/><circle cx="117.69" cy="93.97" r="4.65" fill="#febe31"/><path d="M104 133.92c1.47-2 .07-8.14-2.85-8.23-4.31-.14-1.19 7.43 1.4 8.38-1.38-1.2-7.71-6.64-9.51-2.77-1.91 4.09 6.76 5.09 8.87 4.13-2.45.52-6.5 4.45-3.41 6.72s5.29-3.62 5-6c-1.74 1.95 1.34 7.82 4.22 6.39 3.33-1.21-.63-6.38-2.45-7.23 3.1 2.27 7.92-2.12 6.37-5.34-2-4-6 1.07-7.44 2.9" fill="#fff"/><circle cx="103.22" cy="134.68" r="3.75" fill="#febe31"/><path d="M119.54 151.37c1.71-.5 3.56-4.6 1.94-5.92-2.39-1.94-3.89 3.72-2.83 5.38-.27-1.28-1.52-7.11-4.21-5.69-2.86 1.51 1.65 5.82 3.26 6.19-1.62-.77-5.62-.28-4.84 2.35s4.57.22 5.42-1.24c-1.83.36-2.62 5-.36 5.46 2.42.75 2.4-3.9 1.73-5.17.78 2.63 5.42 2.21 5.93-.29.57-3.14-3.89-2-5.49-1.56" fill="#fff"/><circle cx="118.76" cy="151.46" r="2.68" fill="#febe31"/><path d="M99.29 152.07c1.44-.43 3-3.91 1.64-5-2-1.65-3.3 3.15-2.4 4.56-.23-1.09-1.29-6-3.58-4.83s1.4 4.94 2.77 5.25c-1.37-.65-4.77-.24-4.11 2s3.88.19 4.61-1.05c-1.56.31-2.22 4.27-.31 4.64 2 .63 2-3.31 1.47-4.39.66 2.23 4.6 1.88 5-.24.49-2.67-3.3-1.7-4.66-1.33" fill="#fff"/><circle cx="98.62" cy="152.14" r="2.27" fill="#febe31"/><path d="M94.44 163.74c1.4-.41 2.93-3.78 1.59-4.86-2-1.6-3.19 3.05-2.32 4.42-.22-1.05-1.25-5.84-3.47-4.68s1.36 4.79 2.68 5.09c-1.33-.63-4.62-.23-4 1.93s3.77.18 4.47-1c-1.51.3-2.16 4.14-.3 4.49 2 .62 2-3.2 1.42-4.25.64 2.16 4.46 1.82 4.88-.23.47-2.59-3.2-1.65-4.52-1.29" fill="#fff"/><circle cx="93.8" cy="163.82" r="2.2" fill="#febe31"/><path d="M124.88 71.33c1.44-.43 3-3.9 1.64-5-2-1.65-3.3 3.15-2.4 4.56-.23-1.08-1.29-6-3.58-4.82s1.4 4.93 2.77 5.24c-1.37-.65-4.77-.23-4.11 2s3.89.19 4.61-1.05c-1.56.3-2.22 4.26-.31 4.63 2 .64 2-3.31 1.47-4.39.66 2.24 4.6 1.88 5-.24.49-2.66-3.3-1.7-4.66-1.33" fill="#fff"/><circle cx="124.21" cy="71.41" r="2.27" fill="#febe31"/><path d="M240.08 107.88c.61-3-4.18-9.18-7.51-7.75-4.91 2.1 2.55 9 6 8.68-2.18-.62-12.13-3.42-12.13 1.87 0 5.6 10.26 2.18 12.13 0-2.49 1.87-5 8.4-.31 9.33s4-6.84 2.49-9.33c-.94 3.11 5.59 8.09 8.08 5 3.11-3.11-4-6.85-6.53-6.85 4.67.94 7.78-6.53 4.35-9.33-4.35-3.42-6.21 4.36-6.84 7.16" fill="#fff"/><circle cx="239.59" cy="109.15" r="4.65" fill="#febe31"/><path d="M233.41 89.25c1.45-.43 3-3.91 1.64-5-2-1.65-3.3 3.15-2.4 4.56-.23-1.09-1.28-6-3.57-4.83s1.4 4.94 2.76 5.25c-1.37-.65-4.76-.23-4.1 2s3.88.18 4.6-1.06c-1.56.31-2.22 4.27-.31 4.64 2.06.64 2-3.31 1.47-4.39.66 2.23 4.6 1.88 5-.24.49-2.67-3.3-1.7-4.65-1.33" fill="#fff"/><circle cx="232.75" cy="89.32" r="2.27" fill="#febe31"/><path d="M197.48 161l-34.37-5.36c-1.19 0-2.15 1.28-2.15 2.87h0c0 1.58 1 2.87 2.15 2.87l34.37-5.38M200.66 171.07l-40.37-5.36a2.71 2.71 0 0 0-2.52 2.87h0a2.72 2.72 0 0 0 2.52 2.87l40.37-5.37" fill="none" stroke="#7b1a51" stroke-miterlimit="10" stroke-width="1.26"/><path d="M159.18 166l37.72-5.36a2.65 2.65 0 0 1 2.36 2.87h0a2.66 2.66 0 0 1-2.36 2.87L159.18 161M157.77 176.11l40.37-5.36a2.71 2.71 0 0 1 2.52 2.87h0a2.71 2.71 0 0 1-2.52 2.86l-40.37-5.36" fill="none" stroke="#7b1a51" stroke-miterlimit="10" stroke-width="1.26"/><ellipse cx="179.06" cy="113.03" rx="20.06" ry="15.41" fill="#d85b4a"/><path d="M184.93 98.3c3.82 2.8 6.2 6.75 6.2 11.13 0 8.51-9 15.41-20.06 15.41a26 26 0 0 1-5.87-.67 23.47 23.47 0 0 0 13.86 4.28c11.08 0 20.06-6.9 20.06-15.42 0-6.94-5.98-12.81-14.19-14.73z" fill="#a9473a"/><ellipse cx="170.29" cy="108.6" rx="6.54" ry="4.82" fill="#f58677"/></svg>