<svg data-name="Capa 1" xmlns="http://www.w3.org/2000/svg" viewBox="0 0 361 305"><path d="M210.54 60.72c-1.19-.95-2.51-3-4.25-3.15-.74 2.51 1.31 4.25 3.49 4.84-6 2.54.21 8 1.22 1.77 4.19 6 6.4-1.56 1.19-1.29 7.9-1.28-2.08-9.27-1.83-.42" fill="#fff"/><path d="M205 61.65c.29 2.55 2 6.23.7 8.89-4.24-1.19-4.9-5.68-3.79-9.3-9 6.34-11.27-7.47-1.44-3.34-4.79-11.31 7.93-7.74 2.9-.55 8.88-10.14 11.39 11.25-1 3" fill="#208ecb"/><path d="M142.37 64.66c.49-3-4.53-9-7.8-7.46-4.83 2.28 2.89 8.86 6.28 8.45-2.2-.54-12.25-3-12 2.32.21 5.6 10.34 1.79 12.12-.45-2.42 2-4.66 8.58 0 9.33s3.78-7 2.13-9.41c-.81 3.14 5.9 7.87 8.27 4.66 3-3.22-4.3-6.68-6.78-6.59 4.7.76 7.52-6.82 4-9.48-4.48-3.26-6.05 4.58-6.57 7.4" fill="#fff"/><circle cx="141.92" cy="65.95" r="4.65" fill="#febe31"/><path d="M150.85 57.1c-2.45-.47-2.14 4.43-.54 6.11 7.58 8 13.58-6.1 5-9.15-7.63-2.75-15.47 8.69-6.73 14.38 6.8 4.34 18.79-6.25 15.53-13.55-4.55-10.06-25.54-.51-21.67 10.6 7 19 37.39 2.44 22.28-12.77" fill="#ed1f24"/><path d="M150.85 57.1s-.12-.07-.41-.11a1.39 1.39 0 0 0-.52.1 1.47 1.47 0 0 0-.58.49 3.52 3.52 0 0 0-.53 2 7 7 0 0 0 .49 2.69 4.1 4.1 0 0 0 .91 1.41c.2.2.4.42.62.62s.46.4.71.59a6.73 6.73 0 0 0 1.76 1 4.51 4.51 0 0 0 2.21.27 4.61 4.61 0 0 0 2.22-1 6.11 6.11 0 0 0 1.58-2 7.37 7.37 0 0 0 .5-5.34c-1-3.92-6.36-6.11-10.47-4a9.73 9.73 0 0 0-4.68 5 7.93 7.93 0 0 0 .43 7.26 9.44 9.44 0 0 0 2.65 2.8 7.23 7.23 0 0 0 3.75 1.41 12 12 0 0 0 7.56-2.31 16.08 16.08 0 0 0 5.39-6.07 10.1 10.1 0 0 0 1.08-4.17 7.79 7.79 0 0 0-.29-2.24 8 8 0 0 0-1-2 7.68 7.68 0 0 0-3.43-2.83 10.44 10.44 0 0 0-4.23-.76A17.25 17.25 0 0 0 148.8 52a16.62 16.62 0 0 0-5.8 5.17 11 11 0 0 0-1.54 3.59 9 9 0 0 0 0 3.86l.26.93a7.17 7.17 0 0 0 .34.85 11.68 11.68 0 0 0 .79 1.63 13.58 13.58 0 0 0 2.1 2.87 12.22 12.22 0 0 0 5.85 3.39 14.44 14.44 0 0 0 6.27.07 17.15 17.15 0 0 0 5.36-2 14.12 14.12 0 0 0 6.3-7.36 10.2 10.2 0 0 0 .54-4 9.47 9.47 0 0 0-.3-1.77c-.07-.27-.15-.54-.22-.8s-.2-.49-.29-.73-.2-.46-.3-.68a6 6 0 0 0-.34-.61c-.23-.38-.43-.75-.66-1.06a15.5 15.5 0 0 0-1.24-1.51c-.74-.75-1.15-1.12-1.19-1.07a5.66 5.66 0 0 0 .93 1.29c.34.39.65 1 1.07 1.57a11.5 11.5 0 0 1 .57 1.06c.09.19.21.38.29.59l.24.66c.08.23.18.46.25.7s.11.5.17.76a9.42 9.42 0 0 1 .21 1.64 9.54 9.54 0 0 1-.63 3.66 13.24 13.24 0 0 1-6.07 6.62 16.24 16.24 0 0 1-5 1.8 13.28 13.28 0 0 1-5.67-.16 10.78 10.78 0 0 1-5.11-3 8.38 8.38 0 0 1-1-1.22 8.91 8.91 0 0 1-.85-1.36 10.4 10.4 0 0 1-.69-1.47 5.45 5.45 0 0 1-.3-.76l-.21-.76a8.12 8.12 0 0 1 1.39-6.21 14.9 14.9 0 0 1 5.28-4.62 15.71 15.71 0 0 1 7-2 8.89 8.89 0 0 1 3.53.63 6 6 0 0 1 2.68 2.21 5.64 5.64 0 0 1 1 3.31 8.55 8.55 0 0 1-.9 3.46 14.67 14.67 0 0 1-4.8 5.42 10.42 10.42 0 0 1-6.48 2.07 5.63 5.63 0 0 1-3-1.09 8.25 8.25 0 0 1-2.23-2.3 6.42 6.42 0 0 1-.39-5.87 8.4 8.4 0 0 1 3.99-4.33c3.38-1.83 7.82 0 8.69 3.07a6.17 6.17 0 0 1-.33 4.49 4.2 4.2 0 0 1-3 2.48 4.7 4.7 0 0 1-3.35-.94c-.24-.16-.46-.34-.68-.51s-.4-.37-.6-.55a3.45 3.45 0 0 1-.83-1.16 5.21 5.21 0 0 1-.28-4.18 1.23 1.23 0 0 1 .83-.61c.26-.01.4-.03.4-.06z" fill="#90191c"/><path d="M234.64 88.45c.05-1.88-3.56-1.06-4.62.34-5 6.62 6.2 9.37 7.43 2.61 1.11-6-8.36-10.45-11.53-3.25-2.4 5.58 7 13.22 12 9.91 6.94-4.62-2.73-19.08-10.53-14.85-13.26 7.5 2.74 28.14 12.23 15" fill="#ed4a95"/><path d="M234.64 88.45s.05-.1.05-.32a1 1 0 0 0-.58-.79 2.7 2.7 0 0 0-1.54-.18 5.28 5.28 0 0 0-2 .69 3.14 3.14 0 0 0-1 .86 9.53 9.53 0 0 0-.75 1.15 4.28 4.28 0 0 0-.44 3.19 4 4 0 0 0 2.72 2.55 5.65 5.65 0 0 0 4.14-.26c2.89-1.29 3.9-5.64 1.77-8.52a7.53 7.53 0 0 0-4.37-3 6.16 6.16 0 0 0-5.52 1.24 7.34 7.34 0 0 0-1.81 2.37 5.65 5.65 0 0 0-.62 3.07 9.24 9.24 0 0 0 2.7 5.47 12.31 12.31 0 0 0 5.26 3.34 8 8 0 0 0 3.33.3 6.09 6.09 0 0 0 1.69-.51 6.4 6.4 0 0 0 1.46-1 6.07 6.07 0 0 0 1.75-3 8.14 8.14 0 0 0 0-3.33 13.39 13.39 0 0 0-2.61-5.63 12.82 12.82 0 0 0-4.66-3.78 8.48 8.48 0 0 0-2.93-.73 7.28 7.28 0 0 0-3 .48 7.06 7.06 0 0 0-1.28.68 11 11 0 0 0-1.13.8 8.07 8.07 0 0 0-1 .92 7.23 7.23 0 0 0-.89 1 9.36 9.36 0 0 0-1.83 4.87 11.12 11.12 0 0 0 .72 4.75 13.67 13.67 0 0 0 2.32 3.87 10.84 10.84 0 0 0 6.35 3.87 7.77 7.77 0 0 0 3.1-.11 9 9 0 0 0 1.3-.45q.28-.15.57-.27c.18-.1.34-.22.51-.32a5.54 5.54 0 0 0 .88-.64c.26-.23.51-.42.71-.63a12.78 12.78 0 0 0 1-1.13c.45-.65.67-1 .62-1.05s-.36.26-.88.83c-.26.29-.65.58-1.05 1-.21.19-.47.35-.72.54a5.61 5.61 0 0 1-.87.54c-.16.08-.31.18-.49.26l-.54.21a6.78 6.78 0 0 1-1.18.34 7 7 0 0 1-2.76 0 9.89 9.89 0 0 1-5.58-3.69 12.11 12.11 0 0 1-1.9-3.47 9.87 9.87 0 0 1-.56-4.17 8 8 0 0 1 1.62-4.08 7 7 0 0 1 .77-.87 8.54 8.54 0 0 1 .9-.78 7.86 7.86 0 0 1 1-.68 6.07 6.07 0 0 1 1-.54 6 6 0 0 1 4.64.27 11.24 11.24 0 0 1 4 3.32 11.77 11.77 0 0 1 2.27 4.9 5.08 5.08 0 0 1-1.3 4.78 4 4 0 0 1-2.22 1.02 6.06 6.06 0 0 1-2.59-.24 10.78 10.78 0 0 1-4.54-2.86 7.7 7.7 0 0 1-2.28-4.44 4 4 0 0 1 .44-2.23 6 6 0 0 1 1.38-1.88 4.66 4.66 0 0 1 4.16-1 6.13 6.13 0 0 1 3.55 2.32c1.73 2.21 1 5.61-1.15 6.6a4.54 4.54 0 0 1-3.28.31 3 3 0 0 1-2.13-1.81 3.42 3.42 0 0 1 .27-2.53 8.51 8.51 0 0 1 .61-1.07 2.49 2.49 0 0 1 .74-.74 3.89 3.89 0 0 1 3-.75.85.85 0 0 1 .54.51c.07.16.11.26.14.26z" fill="#902260"/><path d="M114.92 303.73s.68-22.24 2.44-23.49 13.25-5 13.25-5l1.06 4s-6.54 11.86 1.27 18.15" fill="#6e3318" stroke="#471c10" stroke-miterlimit="10" stroke-width=".63"/><path d="M130.6 293.76c-8.67 0-15.69 4.49-15.68 10h31.39c-.01-5.55-7.04-10.02-15.71-10z" fill="#6e3318" stroke="#471c10" stroke-miterlimit="10" stroke-width=".63"/><path d="M177.15 26.17c-7.09.59-29.6 60.17-29.6 60.17 17.44-6.83 31.64-6.16 31.64-6.16s14.1-1.73 32 3.76c.01 0-26.92-57.72-34.04-57.77z" fill="#823790"/><path d="M181.05 36.26c1.23 4.58 2.44 9.18 3.45 13.82a125.92 125.92 0 0 1 3.2 26.79v3.1a91.73 91.73 0 0 1 23.54 4s-24.45-52.4-32.91-57.39c.67 3.27 1.89 6.55 2.72 9.68z" fill="#6d2e78"/><path d="M235.5 124.26a18.48 18.48 0 1 0-34.1-11.85l-23.42-5-23 6.76a18.48 18.48 0 1 0-33.11 14.38c-12.73 13-35.11 42.71-10.33 71.7 0 0 23.36 23.5 70.36 12.09 47.73 7.84 69.26-17.34 69.26-17.34 22.56-30.79-1.99-58.71-15.66-70.74z" fill="#ee89b8"/><path d="M228.79 128.1a16.25 16.25 0 1 0-30-10.42l-20.6-4.41-20.2 6a16.25 16.25 0 1 0-29.12 12.65c-11.19 11.45-30.88 37.56-9.08 63.06 0 0 20.54 20.66 61.88 10.63 42 6.89 60.91-15.25 60.91-15.25 19.82-27.12-1.77-51.68-13.79-62.26z" fill="#d16d9c"/><path d="M191.67 302.71c19.85-5.24 36.1-19.9 41.57-40.16 8.37-31-11.7-63.39-44.82-72.33s-66.76 8.95-75.13 40c-5.47 20.26 1.2 41.1 15.72 55.61z" fill="#844890"/><path d="M188.42 190.22A65 65 0 0 0 155 190c21.19 9.81 36.11 35 29.95 63.57-3.37 15.63-11.3 29.56-20.73 41.72l27.48 7.42c19.85-5.24 36.1-19.9 41.57-40.16 8.34-31.01-11.73-63.39-44.85-72.33z" fill="#764080"/><path d="M140.3 213.18a4.66 4.66 0 0 1 4.82-2c-.67-3-2.88-6.35-5.36-6-3.85.56-2.03 5.25.54 8zM148.77 216.52c3.65-.14 6.91-5.22 4.72-8.28-2.67-3.58-5.67.28-7.44 3.25a4.65 4.65 0 0 1 2.72 5.03zM140 217.83a4.67 4.67 0 0 1 .11-4.4c-3.37-1.66-8.12-3.27-9.1.35-1.08 4.16 5.06 4.74 8.99 4.05zM140 225.87c3 1.49 4.59-1.88 5-5 1.16 2.63 4.18 5.13 6.36 3.53 3-1.75-.1-5.57-2.72-7.38a4.64 4.64 0 0 1-8.16 1.51c-2.15 2.2-3.63 5.76-.48 7.34zM114.85 223.9a4.94 4.94 0 0 1 .64.35c.46-1.13 1-2.23 1.48-3.31a17.25 17.25 0 0 0-2.12 2.96z" fill="#6f2c7b"/><path d="M117.56 228.93c3.65-.14 6.91-5.22 4.72-8.28-1.78-2.38-3.7-1.47-5.31.29-.53 1.08-1 2.18-1.48 3.31a4.64 4.64 0 0 1 2.07 4.68zM113.8 233.3c1.16 2.63 4.18 5.13 6.36 3.53 3-1.75-.1-5.57-2.72-7.38a4.64 4.64 0 0 1-4.64 3.34 51.71 51.71 0 0 0-.92 5.16 7.88 7.88 0 0 0 1.92-4.65zM135.88 236.09c-3.85.55-2 5.24.54 8a4.66 4.66 0 0 1 4.82-2c-.67-3.01-2.88-6.35-5.36-6zM149.6 239.13c-2.67-3.57-5.67.29-7.43 3.25a4.66 4.66 0 0 1 2.72 5c3.64-.1 6.9-5.19 4.71-8.25zM135.81 245.43a4.9 4.9 0 0 1 .46-1.1c-3.37-1.66-8.12-3.28-9.1.35-1.12 4.16 5 4.74 9 4a4.62 4.62 0 0 1-.36-3.25zM147.49 255.31c3-1.74-.11-5.56-2.73-7.37a4.64 4.64 0 0 1-8.16 1.51c-2.15 2.18-3.63 5.73-.45 7.31 3 1.49 4.59-1.87 5-5 1.14 2.66 4.15 5.16 6.34 3.55zM114.41 250.33c-3.85.54-2 5.23.54 8a4.66 4.66 0 0 1 4.82-2c-.67-3.01-2.88-6.33-5.36-6zM128.13 253.37c-2.66-3.58-5.67.28-7.43 3.25a4.65 4.65 0 0 1 2.72 5c3.64-.11 6.9-5.19 4.71-8.25zM114.34 259.66a5.11 5.11 0 0 1 .46-1.1c-.59-.29-1.23-.58-1.88-.84.42 1.78.92 3.55 1.51 5.28h.26a4.61 4.61 0 0 1-.35-3.34zM119.65 266c1.17 2.63 4.19 5.13 6.37 3.53 3-1.75-.1-5.57-2.72-7.38a4.64 4.64 0 0 1-8.16 1.51c-.12.12-.23.24-.34.37a58.49 58.49 0 0 0 2.89 6.66 7.74 7.74 0 0 0 1.96-4.69zM170 190.1c-1.64.19-3.27.44-4.87.76a4.58 4.58 0 0 1 .8 2.77 5.94 5.94 0 0 0 4.07-3.53zM158.82 192.71a4.59 4.59 0 0 1-.41-3 63.91 63.91 0 0 0-7.57 2c1.8 1.35 5.36 1.46 7.98 1z" fill="#6f2c7b"/><path d="M158.81 200.75c3 1.49 4.59-1.88 5-5 1.17 2.63 4.18 5.13 6.37 3.53 3-1.75-.11-5.57-2.73-7.38a4.64 4.64 0 0 1-8.16 1.51c-2.18 2.2-3.66 5.76-.48 7.34zM173.88 216.36a4.65 4.65 0 0 1 4.82-2c-.67-3-2.88-6.34-5.36-6-3.85.56-2.03 5.25.54 8zM182.35 219.7c3.64-.14 6.9-5.23 4.71-8.29-2.66-3.57-5.67.29-7.43 3.25a4.66 4.66 0 0 1 2.72 5.04zM164.63 217c-1.12 4.16 5 4.75 9 4.06a4.64 4.64 0 0 1-.34-3.31 4.39 4.39 0 0 1 .45-1.09c-3.38-1.72-8.13-3.33-9.11.34zM182.23 220.21a4.65 4.65 0 0 1-5.68 3.19 4.56 4.56 0 0 1-2.48-1.67c-2.16 2.18-3.64 5.73-.46 7.31 3 1.49 4.59-1.88 5-5 1.16 2.63 4.18 5.13 6.36 3.53 3.03-1.72-.12-5.57-2.74-7.36zM170.6 243.42c-.66-3-2.88-6.34-5.36-6-3.85.55-2 5.23.55 8a4.64 4.64 0 0 1 4.81-2zM174.25 248.76c3.65-.14 6.91-5.23 4.72-8.29-2.67-3.57-5.67.29-7.43 3.25a4.65 4.65 0 0 1 2.71 5.04zM165.18 246.76a4.06 4.06 0 0 1 .46-1.09c-3.37-1.67-8.13-3.28-9.11.34-1.12 4.16 5 4.75 9 4.06a4.64 4.64 0 0 1-.35-3.31zM174.13 249.27a4.64 4.64 0 0 1-5.67 3.19 4.55 4.55 0 0 1-2.49-1.67c-2.16 2.18-3.64 5.73-.46 7.31 3 1.49 4.6-1.88 5-5 1.17 2.63 4.18 5.13 6.36 3.53 3.02-1.72-.12-5.54-2.74-7.36zM145.12 268.47c-3.85.55-2 5.24.55 8a4.62 4.62 0 0 1 4.81-2c-.67-3.01-2.88-6.35-5.36-6zM151.41 274.76a4.65 4.65 0 0 1 2.72 5c3.65-.14 6.91-5.23 4.72-8.29-2.67-3.53-5.67.33-7.44 3.29zM145.06 277.8a4.2 4.2 0 0 1 .46-1.09c-3.38-1.66-8.13-3.28-9.11.34-1.12 4.16 5 4.75 9 4.06a4.64 4.64 0 0 1-.35-3.31zM154 280.32a4.64 4.64 0 0 1-8.16 1.51c-2.16 2.18-3.64 5.73-.46 7.31 3 1.49 4.6-1.88 5-5 1.17 2.63 4.18 5.13 6.36 3.53 3.03-1.67-.11-5.54-2.74-7.35zM197.18 192.53a59.2 59.2 0 0 0-2.77-.78 12.55 12.55 0 0 0 1.93 2 4.45 4.45 0 0 1 .84-1.22zM205.71 195.8l-.57-.26a2.68 2.68 0 0 1 0 .4 3.41 3.41 0 0 0 .57-.14zM196.68 198.38a4.58 4.58 0 0 1-.77-3.23 4.34 4.34 0 0 1 .31-1.15c-3.56-1.2-8.49-2.18-9 1.53-.55 4.28 5.61 4.05 9.46 2.85zM197.4 208.17c3 1.49 4.6-1.88 5-5 1.16 2.63 4.18 5.13 6.36 3.53 3-1.75-.1-5.57-2.72-7.38a4.64 4.64 0 0 1-8.16 1.51c-2.18 2.17-3.66 5.76-.48 7.34zM207.17 224.67a4.66 4.66 0 0 1 4.82-2c-.67-3-2.88-6.35-5.36-6-3.85.56-2.03 5.25.54 8zM215.64 228c3.64-.14 6.9-5.22 4.71-8.28-2.66-3.58-5.67.28-7.43 3.25a4.65 4.65 0 0 1 2.72 5.03zM197.92 225.27c-1.12 4.16 5 4.74 9 4a4.56 4.56 0 0 1-.34-3.3 4.46 4.46 0 0 1 .45-1.1c-3.38-1.61-8.13-3.22-9.11.4zM206.9 237.35c3 1.5 4.59-1.87 5-5 1.16 2.63 4.18 5.13 6.36 3.53 3-1.75-.1-5.57-2.72-7.38a4.64 4.64 0 0 1-8.16 1.51c-2.18 2.21-3.66 5.77-.48 7.34zM204.11 257c-.67-3-2.88-6.35-5.37-6-3.85.55-2 5.24.55 8a4.66 4.66 0 0 1 4.82-2zM212.47 254c-2.67-3.58-5.67.28-7.43 3.25a4.63 4.63 0 0 1 2.71 5c3.65-.07 6.91-5.16 4.72-8.25zM198.68 260.33a4.9 4.9 0 0 1 .46-1.1c-3.37-1.66-8.13-3.28-9.1.35-1.13 4.16 5 4.74 9 4.05a4.56 4.56 0 0 1-.36-3.3zM207.63 262.84a4.64 4.64 0 0 1-8.16 1.51c-2.15 2.18-3.64 5.73-.46 7.31 3 1.49 4.6-1.87 5-5 1.17 2.63 4.18 5.13 6.37 3.53 3.01-1.72-.13-5.54-2.75-7.35zM183.65 284.81a4.65 4.65 0 0 1 4.82-2c-.67-3-2.88-6.34-5.36-6-3.85.56-2.03 5.25.54 8zM192.12 288.15c3.65-.15 6.91-5.23 4.72-8.29-2.67-3.57-5.67.29-7.44 3.25a4.65 4.65 0 0 1 2.72 5.04zM183.05 286.15a4.06 4.06 0 0 1 .46-1.09c-3.38-1.67-8.13-3.28-9.11.34-1.12 4.16 5 4.75 9 4.06a4.64 4.64 0 0 1-.35-3.31zM192 288.66a4.65 4.65 0 0 1-8.16 1.52c-2.16 2.17-3.64 5.73-.46 7.31 3 1.49 4.59-1.88 5-5 1.16 2.63 4.18 5.13 6.36 3.53 3.02-1.73-.12-5.54-2.74-7.36zM232.17 240.56c-3.85.54-2 5.23.55 8a4.64 4.64 0 0 1 2.4-1.83 54.68 54.68 0 0 0-.45-5.29 3.17 3.17 0 0 0-2.5-.88zM232.11 249.89a4.65 4.65 0 0 1 .46-1.1c-3.37-1.66-8.13-3.27-9.1.35-1.13 4.16 5 4.74 9 4.06a4.64 4.64 0 0 1-.36-3.31zM216.66 276c-3.85.55-2 5.24.55 8a4.64 4.64 0 0 1 4.81-2c-.67-3-2.88-6.33-5.36-6zM217.06 284.25c-3.38-1.66-8.13-3.27-9.11.35-1.12 4.16 5 4.75 9 4.06a4.64 4.64 0 0 1-.34-3.31 4.27 4.27 0 0 1 .45-1.1z" fill="#6f2c7b"/><path d="M231.08 172.44a33.75 33.75 0 0 1-32.45 35l-29.27 1.1a33.75 33.75 0 0 1-35-32.45 33.74 33.74 0 0 1 32.45-35l29.27-1.1a33.73 33.73 0 0 1 35 32.45z" fill="#844890"/><path d="M196.09 140l-29.27 1.1a33.47 33.47 0 0 0-16.42 5c6 9.73 19.61 11.66 30.29 12.67 6.41.6 13.52.47 19.44 3.33a23.54 23.54 0 0 1 12.23 14 26.91 26.91 0 0 1-.76 19.75 52.42 52.42 0 0 1-6.83 10.79 33.74 33.74 0 0 0-8.68-66.64z" fill="#764080"/><path d="M190.62 141.35S204 160.25 206 180.88c0 0-6.76 4.85-22.79 5.35M172.4 142s-11.91 19.84-12.34 40.57c0 0 7.1 4.32 23.13 3.62" fill="none" stroke="#7b1a51" stroke-miterlimit="10" stroke-width="2.519"/><path d="M132.26 120.15c2.36-.8 4.74-6.62 2.4-8.38-3.45-2.58-5.24 5.4-3.67 7.67-.45-1.77-2.5-9.86-6.19-7.73-3.92 2.25 2.61 8.05 4.88 8.48-2.3-1-7.87-.1-6.64 3.54s6.41.07 7.52-2c-2.55.6-3.4 7.17-.22 7.66 3.42.92 3.15-5.58 2.15-7.33 1.22 3.64 7.7 2.81 8.27-.71.64-4.42-5.54-2.59-7.75-1.9" fill="#fff"/><circle cx="131.18" cy="120.32" r="3.75" fill="#febe31"/><path d="M227 123.72c1.43-.48 2.87-4 1.45-5.08-2.09-1.57-3.18 3.27-2.22 4.65-.27-1.08-1.52-6-3.76-4.69s1.59 4.88 3 5.14c-1.39-.6-4.77-.06-4 2.15s3.88 0 4.56-1.23c-1.55.37-2.06 4.35-.14 4.65 2.08.56 1.91-3.39 1.31-4.44.74 2.2 4.66 1.7 5-.43.39-2.69-3.36-1.58-4.7-1.16" fill="#fff"/><circle cx="226.37" cy="123.82" r="2.27" fill="#febe31"/><path d="M224.09 113.86c.83 22.13-18 40.79-42.07 41.7s-44.25-16.29-45.08-38.41 18-40.79 42.07-41.7 44.25 16.3 45.08 38.41z" fill="#fcc184"/><path d="M224.09 113.86c.83 22.13-18 40.79-42.07 41.7s-44.25-16.29-45.08-38.41 18-40.79 42.07-41.7 44.25 16.3 45.08 38.41z" fill="#fcc184"/><ellipse cx="211.36" cy="115.5" rx="6.83" ry="8.63" transform="rotate(-2.16 211.408 115.42)" fill="#f9aa84"/><ellipse cx="149.19" cy="117.86" rx="6.83" ry="8.63" transform="rotate(-2.15 149.451 118.222)" fill="#f9aa84"/><path d="M199.83 62.34a34 34 0 0 0-21 7.92 34 34 0 0 0-21.55-6.32c-16.62.63-29.68 12-29.18 25.41s14.39 23.77 31 23.14a34 34 0 0 0 21-7.91 34 34 0 0 0 21.55 6.31c16.63-.62 29.69-12 29.19-25.41s-14.39-23.76-31.01-23.14z" fill="#ee89b8"/><path d="M219.31 98c-11.59.43-36.38.12-40.54-10.9-4.12 8.46-15.2 13.89-26.32 15.15-7.16.82-15.6.08-21.47-3.24 5 8.38 15.79 14 28.11 13.5a34 34 0 0 0 21-7.92 34 34 0 0 0 21.56 6.31c11.53-.43 21.35-6 26.11-13.93a50.57 50.57 0 0 1-8.45 1.03z" fill="#d97da8"/><ellipse cx="138.68" cy="84.08" rx="9.58" ry="3.04" transform="rotate(-62.57 138.698 84.077)" fill="#f6afce"/><path d="M157 185.79s30.37 14.25 57.4 7.66" fill="#764080"/><path d="M181.18 295.8c8.67 0 15.72 3.52 15.75 8l-31.41.17c-.02-4.48 6.99-8.12 15.66-8.17z" fill="#6e3318" stroke="#471c10" stroke-miterlimit="10" stroke-width=".63"/><path d="M140.62 194.93s28.59 13.86 75.27 9.36c0 0-41.89 12.71-75.27-9.36z" fill="#fff"/><path d="M206.06 260.71a3.28 3.28 0 0 0 0-.7c0-.13-.06-.24-.1-.36a3.62 3.62 0 0 0-.7-1.24 3.66 3.66 0 0 0-2.52-1.28 3.72 3.72 0 0 0 .55-7.42 3.72 3.72 0 0 0 .56-7.41 3.72 3.72 0 0 0 .55-7.42 3.72 3.72 0 0 0 .55-7.42 3.72 3.72 0 0 0 .56-7.42 3.72 3.72 0 0 0 .55-7.42 3.72 3.72 0 0 0 .55-7.41h-29.86l-29-7.34a3.72 3.72 0 0 0-1.29 7.33 3.72 3.72 0 0 0-1.28 7.33 3.72 3.72 0 0 0-1.28 7.32 3.72 3.72 0 0 0-1.28 7.33 3.72 3.72 0 0 0-1.28 7.33 3.72 3.72 0 0 0-1.29 7.33 3.72 3.72 0 0 0-1.28 7.32 3.66 3.66 0 0 0-2.75.63 3.6 3.6 0 0 0-1 1 5 5 0 0 0-.34 2.76c0 .25.1.5.16.73a6.54 6.54 0 0 0 .28.66 3.79 3.79 0 0 0 .76 1.09 3.31 3.31 0 0 0 1.93 1.05 2.18 2.18 0 0 0 .92 0 2 2 0 0 0 .76-.31 2.7 2.7 0 0 0 .95-1.18 2.31 2.31 0 0 0-.19 1.41 2.55 2.55 0 0 0 .94 1.33 3.78 3.78 0 0 0 2.49 1.4 3.71 3.71 0 0 0 4.15-3.21 3.72 3.72 0 0 0 7.38.92 3.72 3.72 0 0 0 7.38.92 3.72 3.72 0 0 0 7.38.92 3.72 3.72 0 0 0 7.38.92 3.72 3.72 0 0 0 7.38.92 3.72 3.72 0 0 0 7.38.91 3.72 3.72 0 0 0 7.38.91 2.13 2.13 0 0 0 .43 1.42 2 2 0 0 0 .69.5 2.29 2.29 0 0 0 1 .24 3.79 3.79 0 0 0 2.37-.73 4.31 4.31 0 0 0 1-1 6.58 6.58 0 0 0 .42-.61c.1-.21.2-.44.29-.67a4.37 4.37 0 0 0 .37-1.38z" fill="#fff"/><path d="M204.08 206.81l-3.78 43.95s-3.39 8.78-9.86 1l-5.44-6.08s14.74 3.57 13.09 9.64c-1.17 4.3-7.31 3.33-10.55 2.86-5.67-.83-11.31-1.53-17-2.24M149.94 200.07l-7.11 43.54S144 253 152.15 247l6.81-4.55s-15.17-.14-15.06 6.14c.08 4.46 6.28 5 9.53 5.36 5.71.58 11.34 1.28 17 2" fill="none" stroke="#c56eac" stroke-miterlimit="10" stroke-width=".63"/><path d="M189.79 220.51l-.26 2.07c-.09.51-.16 1-.26 1.41l-.18.63M187.83 227.48l-.35.55c-.2.34-.55.73-.87 1.15s-.71.76-1 1l-.5.43M182.5 232.34a14.86 14.86 0 0 1-1.95.75c-.51.13-1 .25-1.4.32l-.65.08M175.37 233.48l-4.15-.52M168.19 232.21l-.61-.24c-.36-.16-.82-.4-1.28-.65a15.92 15.92 0 0 1-1.71-1.21M162.47 227.82l-.38-.53c-.21-.34-.47-.79-.71-1.25s-.45-.95-.56-1.33-.21-.61-.21-.61M160.09 221v-.65c0-.39 0-.91.08-1.43l.26-2.08M164.75 213.91l4.79.6M173.14 214.96l4.79.59M181.52 216l4.79.6M185.87 222.09l-4.9-.61M177.3 221.03l-4.9-.61M168.73 219.96l-4.89-.61" fill="none" stroke="#dfb5d5" stroke-miterlimit="10" stroke-width=".63"/><path d="M122.7 113.8c1.6-2.64-.8-10.06-4.42-9.86-5.33.3-.66 9.31 2.64 10.2-1.84-1.33-10.23-7.35-12-2.38-1.91 5.26 8.9 5.55 11.4 4.14-3 .9-7.54 6.19-3.48 8.66s6.14-5 5.53-7.92c-1.94 2.61 2.5 9.51 5.9 7.44 4-1.86-1.46-7.81-3.8-8.66 4.06 2.47 9.53-3.49 7.28-7.28-2.93-4.71-7.34 2-8.88 4.38" fill="#fff"/><circle cx="121.8" cy="114.82" r="4.65" fill="#febe31"/><path d="M124.76 129.53c1.4-2-.23-8.13-3.16-8.12-4.3 0-.91 7.47 1.71 8.33-1.42-1.14-7.94-6.34-9.6-2.41-1.75 4.16 7 4.83 9 3.8-2.43.61-6.33 4.68-3.15 6.84s5.15-3.82 4.77-6.16c-1.67 2 1.63 7.76 4.45 6.23 3.29-1.34-.86-6.35-2.71-7.13 3.17 2.15 7.82-2.42 6.16-5.57-2.17-3.91-6 1.28-7.33 3.17" fill="#fff"/><circle cx="124" cy="130.32" r="3.75" fill="#febe31"/><path d="M134.33 135.81c1.68-.57 3.38-4.73 1.71-6-2.46-1.84-3.75 3.86-2.63 5.48-.31-1.27-1.78-7-4.42-5.52-2.79 1.61 1.87 5.75 3.49 6.05-1.65-.7-5.62-.06-4.75 2.53s4.58 0 5.38-1.44c-1.82.43-2.43 5.12-.16 5.47 2.45.66 2.25-4 1.54-5.23.87 2.6 5.5 2 5.91-.51.46-3.16-4-1.85-5.54-1.36" fill="#fff"/><circle cx="133.55" cy="135.93" r="2.68" fill="#febe31"/><path d="M120.08 150.7c1.43-.48 2.87-4 1.45-5.07-2.09-1.57-3.17 3.27-2.22 4.64-.27-1.07-1.51-6-3.75-4.68s1.58 4.88 3 5.14c-1.4-.6-4.78-.06-4 2.14s3.88 0 4.56-1.22c-1.55.36-2.06 4.35-.14 4.64 2.08.56 1.92-3.38 1.31-4.44.74 2.21 4.67 1.7 5-.43.38-2.68-3.37-1.57-4.71-1.15" fill="#fff"/><circle cx="119.42" cy="150.81" r="2.27" fill="#febe31"/><path d="M112.55 156.53c1.38-.46 2.78-3.89 1.41-4.92-2-1.52-3.08 3.17-2.16 4.51-.26-1.05-1.47-5.8-3.64-4.54s1.54 4.73 2.87 5c-1.35-.58-4.62-.06-3.9 2.08s3.76 0 4.42-1.19c-1.5.35-2 4.21-.13 4.5 2 .54 1.85-3.28 1.26-4.3.72 2.13 4.53 1.65 4.86-.42.38-2.6-3.26-1.53-4.55-1.12" fill="#fff"/><circle cx="111.91" cy="156.63" r="2.2" fill="#febe31"/><path d="M134.09 90.1c1.43-.48 2.87-4 1.45-5.08-2.09-1.57-3.17 3.27-2.22 4.65-.27-1.08-1.51-6-3.76-4.69s1.59 4.88 3 5.14c-1.4-.6-4.78-.06-4 2.15s3.88 0 4.56-1.23c-1.55.37-2.06 4.35-.14 4.65 2.08.56 1.92-3.39 1.31-4.44.74 2.2 4.66 1.7 5-.44.38-2.68-3.37-1.57-4.71-1.15" fill="#fff"/><path d="M134.57 92.17a2.27 2.27 0 1 1 .83-3.11 2.28 2.28 0 0 1-.83 3.11z" fill="#febe31"/><path d="M228.19 106.6c.49-3-4.52-9-7.8-7.47-4.82 2.29 2.89 8.87 6.29 8.46-2.2-.54-12.25-3-12.05 2.32.21 5.59 10.33 1.79 12.12-.46-2.42 2-4.66 8.58 0 9.34s3.78-7 2.13-9.42c-.81 3.14 5.9 7.87 8.27 4.67 3-3.23-4.3-6.68-6.79-6.59 4.7.76 7.53-6.82 4-9.49-4.47-3.25-6.05 4.59-6.56 7.41" fill="#fff"/><circle cx="227.75" cy="107.89" r="4.65" fill="#febe31"/><path d="M226.12 99.64c1.43-.48 2.87-4 1.46-5.07-2.09-1.57-3.18 3.27-2.23 4.64-.27-1.07-1.51-6-3.75-4.68s1.58 4.88 3 5.14c-1.4-.6-4.77-.06-4 2.14s3.89 0 4.56-1.22c-1.54.36-2.06 4.35-.13 4.64 2.07.56 1.91-3.38 1.3-4.44.74 2.21 4.67 1.71 5-.43.39-2.68-3.37-1.57-4.7-1.15" fill="#fff"/><circle cx="225.47" cy="99.75" r="2.27" fill="#febe31"/><path d="M200.76 163.56l-34.55-4.07c-1.19 0-2.1 1.36-2 2.95h0c.06 1.58 1.07 2.83 2.25 2.78l34.15-6.65" fill="none" stroke="#7b1a51" stroke-miterlimit="10" stroke-width="1.26"/><path d="M147.87 121.93s27 10.61 64.51-1.26c0 0-6.83 25.55-32.21 24.6s-32.3-23.34-32.3-23.34z" fill="#391212"/><path d="M147.87 121.93l.31.13.9.35 1.5.53 2.06.67 2.62.76 3.15.8 3.68.78c1.31.23 2.7.48 4.17.71s3 .4 4.64.57 3.32.27 5.08.35 3.59.12 5.48.09 3.83-.1 5.83-.26 4-.37 6.12-.68 4.19-.68 6.34-1.13 4.31-1 6.51-1.58l3.29-1 .72-.22-.15.43-.21.58c-.14.39-.3.77-.45 1.16a42.81 42.81 0 0 1-2.17 4.54 29.59 29.59 0 0 1-10 10.94 24.35 24.35 0 0 1-6.51 2.85 28.14 28.14 0 0 1-6.72.95 45.74 45.74 0 0 1-12.36-1.54 40.37 40.37 0 0 1-5.31-1.84 35 35 0 0 1-4.6-2.44 35.6 35.6 0 0 1-6.94-5.77 37.71 37.71 0 0 1-4.23-5.47 35.13 35.13 0 0 1-2.12-3.85c-.2-.46-.35-.82-.45-1.06l-.15-.36s0 .13.11.38.2.61.37 1.09a38.67 38.67 0 0 0 1.77 4.07 38 38 0 0 0 3.76 6A32.34 32.34 0 0 0 171 145.18a34.51 34.51 0 0 0 13.17.93 33.14 33.14 0 0 0 13.62-4.8 38.84 38.84 0 0 0 11.1-10.79 43 43 0 0 0 2.73-4.54c.2-.39.4-.78.59-1.18l.28-.6.33-.74c.32-.79.63-1.6.88-2.39s.48-1.54.75-2.39l-5.72 1.48-3.24.87c-2.16.5-4.3.91-6.38 1.37s-4.17.67-6.19 1-4 .49-5.93.75-3.82.33-5.65.51-3.62.18-5.34.28-3.38 0-5 0-3.12-.1-4.58-.14-2.84-.2-4.16-.29l-3.69-.41-3.18-.48-2.66-.5-2.11-.49-1.52-.4-.93-.29z" fill="#911b1d"/><path d="M204.32 173.51l-40.54-3.84a2.69 2.69 0 0 0-2.41 3h0a2.7 2.7 0 0 0 2.63 2.73l40.14-6.88" fill="none" stroke="#7b1a51" stroke-miterlimit="10" stroke-width="1.26"/><path d="M162.67 170l37.5-6.78a2.66 2.66 0 0 1 2.46 2.78h0a2.65 2.65 0 0 1-2.25 3l-37.89-3.94M161.65 180.16l40.13-6.88a2.71 2.71 0 0 1 2.63 2.77h0a2.71 2.71 0 0 1-2.41 3l-40.54-3.84" fill="none" stroke="#7b1a51" stroke-miterlimit="10" stroke-width="1.26"/><path d="M160 164.9l-9.4 8.32 37.23 39.42a32.94 32.94 0 0 1 .76 5.61c.28 2.74.26 10.86 1.48 12.83 2.55 3.75 4.92-3 6.13-5.21 1.77-3.14 1.43-6.69 2.29-10.08 3.11.45 7.71 4.06 8.6.17-2.13-1.72-4.44-4.82-7.08-6.56-1.17-.65-3.25-2.08-5.15-2.45z" fill="#fcc184"/><path d="M171.66 178.91L160 164.9l-9.4 8.32 6.89 7.3a24.35 24.35 0 0 0 14.17-1.61z" fill="#d19659"/><circle cx="147.55" cy="158.44" r="17.97" fill="#63366b"/><path d="M135.5 162.5a18 18 0 0 1 14.7-20.74 18.67 18.67 0 0 1 3.4-.25 18 18 0 1 0-6.43 34.89 18 18 0 0 1-11.67-13.9z" fill="#733f7d"/><path d="M215.08 158.43l11.77 4.39L206.28 213c.24 2-1.27 3.69-.85 5.09.72 2.65-5.33 7.65-5.76 9.93-1.88 1.44-5.82 4.61-7.73 3-2.77-2.3 7.55-8.43 5.53-11.28-2.74 1.54-5.74 6.56-8 3.25 1.38-2.37 2.42-6.09 4.26-8.66.85-1 2.28-3.12 3.92-4.14z" fill="#fcc184"/><path d="M223.59 170.77l3.26-8-11.77-4.39-4.39 13.08a21.52 21.52 0 0 0 12.9-.69z" fill="#d19659"/><path d="M151.85 124.14s27.88 9.06 55.28 0l-1.13 5.08s-20.88 8.8-52.38 0z" fill="#fff"/><ellipse cx="179.62" cy="113.8" rx="20.06" ry="15.41" transform="rotate(-2.15 179.918 113.996)" fill="#d85b4a"/><path d="M184.93 98.85c3.92 2.66 6.45 6.52 6.61 10.89.32 8.51-8.39 15.74-19.46 16.16a26.41 26.41 0 0 1-5.89-.45 23.49 23.49 0 0 0 14 3.75c11.07-.42 19.78-7.65 19.46-16.16-.25-6.93-6.44-12.57-14.72-14.19z" fill="#a9473a"/><ellipse cx="170.68" cy="109.71" rx="6.54" ry="4.82" transform="rotate(-2.15 171.2 109.834)" fill="#f58677"/><circle cx="223.29" cy="151.31" r="15.44" fill="#63366b"/><path d="M234 153.69a15.44 15.44 0 0 0-14.45-16.37 15.74 15.74 0 0 0-2.92.09 15.24 15.24 0 0 1 7.67-1.5 15.44 15.44 0 0 1 1 30.72 15.42 15.42 0 0 0 8.7-12.94z" fill="#733f7d"/><path d="M131.38 87.27c-1.18-1.64-3.73 1.4-3.73 3.28 0 8.91 11.38 4 8-2.58-2.95-5.86-13.93-3.52-12 4.69 1.57 6.34 14.51 6.8 16.67.71 2.94-8.45-14.7-14.55-18.63-5.87-6.47 15 20.59 22.28 20.2 4.93" fill="#ed1f24"/><path d="M131.38 87.27s0-.12-.16-.31a1.13 1.13 0 0 0-1-.29 3 3 0 0 0-1.43.85 5.85 5.85 0 0 0-1.23 1.86 3.38 3.38 0 0 0-.27 1.37 9.41 9.41 0 0 0 .11 1.46 4.6 4.6 0 0 0 1.67 3 4.29 4.29 0 0 0 4 .41 6 6 0 0 0 3.34-2.89c1.63-3-.31-7.3-4-8.36a8 8 0 0 0-5.62.3 6.55 6.55 0 0 0-3.88 4.6 7.92 7.92 0 0 0 0 3.18 6 6 0 0 0 1.45 3 9.81 9.81 0 0 0 5.82 2.91 13.22 13.22 0 0 0 6.63-.55 8.35 8.35 0 0 0 3-1.89 6 6 0 0 0 1.11-1.52 6.77 6.77 0 0 0 .59-1.78 6.34 6.34 0 0 0-.45-3.68 8.6 8.6 0 0 0-2.09-2.85 14.17 14.17 0 0 0-5.86-3.1 13.65 13.65 0 0 0-6.41-.22 8.94 8.94 0 0 0-3 1.27 7.72 7.72 0 0 0-2.21 2.31 8.25 8.25 0 0 0-.64 1.4 9.23 9.23 0 0 0-.45 1.41 8.93 8.93 0 0 0-.28 1.44A8 8 0 0 0 120 92a10 10 0 0 0 1.58 5.32 11.57 11.57 0 0 0 3.68 3.57 14 14 0 0 0 4.33 1.8 11.5 11.5 0 0 0 7.9-.79 8.36 8.36 0 0 0 2.58-2.1 8 8 0 0 0 .81-1.21c.11-.21.21-.41.32-.6s.15-.41.23-.6a6.74 6.74 0 0 0 .34-1.12c.07-.36.16-.69.2-1a14.47 14.47 0 0 0 .1-1.58 3.6 3.6 0 0 0-.14-1.3 3.82 3.82 0 0 0-.21 1.28c0 .41-.16.91-.25 1.51-.06.29-.18.6-.27.93a5.6 5.6 0 0 1-.39 1c-.08.18-.15.37-.25.55l-.32.53a7.67 7.67 0 0 1-.79 1.06 7.56 7.56 0 0 1-2.39 1.77 10.62 10.62 0 0 1-7.19.47 12.8 12.8 0 0 1-3.87-1.67 10.46 10.46 0 0 1-3.2-3.22 8.52 8.52 0 0 1-1.25-4.6 6.53 6.53 0 0 1 .09-1.24 7.71 7.71 0 0 1 .26-1.25 7.83 7.83 0 0 1 .41-1.24 7.61 7.61 0 0 1 .54-1.15 6.48 6.48 0 0 1 4.19-2.8 12 12 0 0 1 5.6.24 12.48 12.48 0 0 1 5.14 2.73 5.49 5.49 0 0 1 2 5 4.33 4.33 0 0 1-1.22 2.4 6.89 6.89 0 0 1-2.4 1.49 11.77 11.77 0 0 1-5.76.5 8.39 8.39 0 0 1-4.87-2.34 4.43 4.43 0 0 1-1.09-2.22 6.54 6.54 0 0 1 0-2.53 5 5 0 0 1 3-3.56 6.61 6.61 0 0 1 4.58-.32c2.93.78 4.51 4.21 3.32 6.46a5 5 0 0 1-2.63 2.41 3.3 3.3 0 0 1-3-.18 3.75 3.75 0 0 1-1.42-2.36 7.66 7.66 0 0 1-.16-1.32 2.79 2.79 0 0 1 .14-1.12 4.27 4.27 0 0 1 2.03-2.6.93.93 0 0 1 .8.09c.16.13.26.19.28.18z" fill="#90191c"/><path d="M110.22 136.82c-2.45-.47-2.14 4.43-.54 6.11 7.58 8 13.58-6.1 5-9.15-7.62-2.75-15.46 8.7-6.72 14.38 6.79 4.34 18.78-6.25 15.53-13.55-4.55-10.06-25.55-.51-21.68 10.6 7 18.95 37.4 2.44 22.28-12.77" fill="#ed1f24"/><path d="M110.22 136.82s-.13-.06-.41-.11a1.51 1.51 0 0 0-.53.11 1.49 1.49 0 0 0-.58.48 3.6 3.6 0 0 0-.52 1.95 6.72 6.72 0 0 0 .49 2.69 4 4 0 0 0 .91 1.42c.2.2.39.41.62.61s.45.4.71.59a7 7 0 0 0 1.75 1 4.67 4.67 0 0 0 2.22.26 4.53 4.53 0 0 0 2.21-1 5.86 5.86 0 0 0 1.58-2 7.29 7.29 0 0 0 .51-5.33c-1-3.93-6.37-6.12-10.47-4a9.72 9.72 0 0 0-4.68 5 7.9 7.9 0 0 0 .43 7.26 9.62 9.62 0 0 0 2.64 2.79 7.27 7.27 0 0 0 3.76 1.42 12 12 0 0 0 7.56-2.32 16.14 16.14 0 0 0 5.39-6.06 10.31 10.31 0 0 0 1.08-4.18 7.73 7.73 0 0 0-.3-2.23 8.19 8.19 0 0 0-1-2 7.67 7.67 0 0 0-3.44-2.84 10.4 10.4 0 0 0-4.22-.76 17.51 17.51 0 0 0-7.8 2.18 16.66 16.66 0 0 0-5.85 5.2 10.67 10.67 0 0 0-1.55 3.58 9.35 9.35 0 0 0 0 3.87l.27.92a5.92 5.92 0 0 0 .34.86 12.73 12.73 0 0 0 .78 1.62 11.71 11.71 0 0 0 1 1.51 10 10 0 0 0 1.14 1.36 12.2 12.2 0 0 0 5.84 3.33 14.6 14.6 0 0 0 6.27.08 17.4 17.4 0 0 0 5.36-2 14.18 14.18 0 0 0 6.37-7.35 10.33 10.33 0 0 0 .54-4 10.71 10.71 0 0 0-.3-1.77c-.08-.27-.15-.54-.22-.8s-.2-.49-.3-.72l-.29-.69a6.75 6.75 0 0 0-.34-.6c-.24-.38-.43-.76-.66-1.07a18.74 18.74 0 0 0-1.24-1.51 6.18 6.18 0 0 0-1.19-1.07s.28.49.93 1.29c.33.39.64 1 1.07 1.57.2.32.36.69.57 1.06.09.2.21.39.29.6s.16.43.24.66a7 7 0 0 1 .24.69c.06.25.11.5.17.76a9.42 9.42 0 0 1 .21 1.64 9.58 9.58 0 0 1-.62 3.67 13.28 13.28 0 0 1-6.07 6.62 16.58 16.58 0 0 1-5 1.79 13.11 13.11 0 0 1-5.67-.16 10.76 10.76 0 0 1-5.12-3 8.41 8.41 0 0 1-1-1.21 9.37 9.37 0 0 1-.84-1.36 9.9 9.9 0 0 1-.7-1.47 6.53 6.53 0 0 1-.29-.76l-.21-.76a8.18 8.18 0 0 1 1.38-6.22 15.22 15.22 0 0 1 5.29-4.62 15.7 15.7 0 0 1 7-2 8.58 8.58 0 0 1 3.53.63 6 6 0 0 1 2.68 2.2 6.4 6.4 0 0 1 .75 1.59 6.26 6.26 0 0 1 .23 1.72 8.67 8.67 0 0 1-.9 3.46 14.45 14.45 0 0 1-4.81 5.42 10.46 10.46 0 0 1-6.47 2.08 5.64 5.64 0 0 1-3-1.1 7.87 7.87 0 0 1-2.23-2.3 6.34 6.34 0 0 1-.39-5.86 8.28 8.28 0 0 1 3.92-4.27c3.37-1.83 7.82-.05 8.68 3.07a6.23 6.23 0 0 1-.32 4.49 4.22 4.22 0 0 1-3 2.48 4.79 4.79 0 0 1-3.36-.94l-.67-.51c-.21-.18-.41-.38-.6-.55a3.37 3.37 0 0 1-.83-1.16 5.25 5.25 0 0 1-.29-4.19 1.21 1.21 0 0 1 .83-.6c.35-.08.49-.1.5-.13z" fill="#90191c"/><path d="M125 155.72c.65-1.91-3.32-2.21-4.84-1.12-7.25 5.19 3.37 11.57 6.77 5 3.06-5.81-5.24-13.37-10.77-7-4.24 5 2.91 15.76 9.13 14 8.57-2.53 3.26-20.43-6.08-18.57-16 3.48-6.14 29.71 7.75 19.29" fill="#ed1f24"/><path d="M125 155.72s.08-.09.15-.31a1.07 1.07 0 0 0-.35-1 2.82 2.82 0 0 0-1.52-.67 5.7 5.7 0 0 0-2.23.08 3.34 3.34 0 0 0-1.26.58 8.55 8.55 0 0 0-1.13.93 4.63 4.63 0 0 0-1.46 3.11 4.31 4.31 0 0 0 2 3.45 6.05 6.05 0 0 0 4.3 1c3.34-.4 5.74-4.5 4.47-8.1a8 8 0 0 0-3.51-4.4 6.59 6.59 0 0 0-6-.48 8 8 0 0 0-2.59 1.85 6 6 0 0 0-1.59 2.92 9.82 9.82 0 0 0 1 6.42 13.19 13.19 0 0 0 4.31 5.07 8.6 8.6 0 0 0 3.29 1.36 6.57 6.57 0 0 0 1.88 0 6.79 6.79 0 0 0 1.79-.56 6.35 6.35 0 0 0 2.73-2.5 8.58 8.58 0 0 0 1.1-3.37 14.08 14.08 0 0 0-.89-6.57 13.51 13.51 0 0 0-3.55-5.33 9 9 0 0 0-2.75-1.67 7.5 7.5 0 0 0-3.17-.45 7.92 7.92 0 0 0-1.51.29 11 11 0 0 0-1.41.45 9.06 9.06 0 0 0-1.34.62 7.9 7.9 0 0 0-1.23.77 10 10 0 0 0-3.41 4.38 11.75 11.75 0 0 0-.76 5.07 14 14 0 0 0 1 4.57 11.52 11.52 0 0 0 5.24 6 8.33 8.33 0 0 0 3.21.88 7.77 7.77 0 0 0 1.46 0l.68-.09c.21 0 .41-.11.62-.16a6.45 6.45 0 0 0 1.1-.37c.34-.15.66-.27.93-.42a13.92 13.92 0 0 0 1.35-.84c.68-.53 1-.82 1-.87a4.29 4.29 0 0 0-1.15.58c-.36.22-.85.4-1.38.67-.28.12-.6.2-.92.32a5.47 5.47 0 0 1-1.06.28c-.19 0-.38.09-.58.12h-.62a7.43 7.43 0 0 1-1.33 0 7.92 7.92 0 0 1-2.83-.91 10.64 10.64 0 0 1-4.56-5.57 13 13 0 0 1-.86-4.18 10.55 10.55 0 0 1 .76-4.47 8.51 8.51 0 0 1 3-3.7 6.06 6.06 0 0 1 1.07-.64 6.83 6.83 0 0 1 1.17-.52 7.42 7.42 0 0 1 1.24-.38 6.4 6.4 0 0 1 1.25-.24 6.48 6.48 0 0 1 4.71 1.78 11.94 11.94 0 0 1 3.07 4.69 12.61 12.61 0 0 1 .77 5.77 5.47 5.47 0 0 1-2.88 4.53 4.93 4.93 0 0 1-1.3.42 4.77 4.77 0 0 1-1.36 0 6.6 6.6 0 0 1-2.61-1.08 11.64 11.64 0 0 1-3.76-4.39 8.34 8.34 0 0 1-.93-5.32 4.43 4.43 0 0 1 1.17-2.18 6.37 6.37 0 0 1 2-1.5 5.06 5.06 0 0 1 4.62.33 6.67 6.67 0 0 1 2.93 3.54c1.07 2.84-.81 6.12-3.33 6.46a4.9 4.9 0 0 1-3.48-.73 3.31 3.31 0 0 1-1.63-2.57 3.79 3.79 0 0 1 1.1-2.53 10.14 10.14 0 0 1 1-.9 2.77 2.77 0 0 1 1-.53 4.28 4.28 0 0 1 3.35.2 1 1 0 0 1 .4.71c-.08.17-.07.29.01.3z" fill="#90191c"/><path d="M133.31 104.93c.49-3-4.53-9-7.8-7.46-4.83 2.28 2.89 8.87 6.28 8.45-2.2-.53-12.25-3-12 2.33.21 5.59 10.34 1.79 12.12-.46-2.42 2-4.66 8.58 0 9.33s3.78-7 2.13-9.41c-.81 3.14 5.9 7.87 8.27 4.67 3-3.23-4.3-6.69-6.78-6.6 4.7.76 7.52-6.81 4-9.48-4.48-3.26-6.05 4.58-6.57 7.4" fill="#fff"/><circle cx="132.86" cy="106.22" r="4.65" fill="#febe31"/><path d="M242.52 117.53c-.33-2.62-5.15-.69-6.31 1.47-5.52 10.25 10.61 11.63 10.84 2 .25-8.56-13.84-12.66-16.66-2-2.12 8.26 12.48 16.81 18.73 11.13 8.61-7.89-7.91-25.83-17.79-18.28-16.74 13.26 9.89 38.37 20.18 18.17" fill="#ed1f24"/><path d="M242.52 117.53s.06-.15 0-.44a1.35 1.35 0 0 0-1-.92 3.74 3.74 0 0 0-2.12.12 7.36 7.36 0 0 0-2.54 1.38 4.11 4.11 0 0 0-1.11 1.37c-.13.27-.28.54-.41.83s-.25.59-.36.9a7.6 7.6 0 0 0-.38 2.08 4.9 4.9 0 0 0 .47 2.3 4.71 4.71 0 0 0 1.69 1.89 6.3 6.3 0 0 0 2.49.93 7.65 7.65 0 0 0 5.5-1.24c3.58-2.32 4-8.37.55-11.78a10.29 10.29 0 0 0-6.51-3 8.87 8.87 0 0 0-3.83.51 8 8 0 0 0-3.29 2.3 10.34 10.34 0 0 0-1.92 3.56 7.65 7.65 0 0 0-.18 4.22 12.65 12.65 0 0 0 4.8 6.8 17.08 17.08 0 0 0 7.85 3.41 10.7 10.7 0 0 0 4.52-.29 8 8 0 0 0 2.14-1 8.38 8.38 0 0 0 1.73-1.63 8.12 8.12 0 0 0 1.71-4.36 11 11 0 0 0-.63-4.48 18.26 18.26 0 0 0-4.75-7.09 17.59 17.59 0 0 0-7.13-4.16 11.3 11.3 0 0 0-4.09-.37 9.64 9.64 0 0 0-3.87 1.25l-.84.57a6.39 6.39 0 0 0-.74.62 12.34 12.34 0 0 0-1.38 1.32 11.85 11.85 0 0 0-1.19 1.46 10.53 10.53 0 0 0-1 1.59 12.91 12.91 0 0 0-1.47 7 15.29 15.29 0 0 0 2 6.31 18.78 18.78 0 0 0 3.81 4.71 15 15 0 0 0 9.46 4 10.66 10.66 0 0 0 4.22-.79 8.78 8.78 0 0 0 1.67-.88l.74-.48c.22-.17.42-.36.63-.54l.59-.51c.18-.17.33-.37.49-.54.31-.37.62-.68.85-1a17.89 17.89 0 0 0 1.12-1.73 7 7 0 0 0 .69-1.55 6.25 6.25 0 0 0-1 1.36c-.28.47-.74 1-1.21 1.6-.25.31-.57.6-.88.93-.17.15-.32.34-.5.49l-.59.46c-.2.15-.39.33-.61.48l-.71.42a9.86 9.86 0 0 1-5.48 1.34 14.06 14.06 0 0 1-8.68-3.92 17.33 17.33 0 0 1-3.46-4.44 14.06 14.06 0 0 1-1.72-5.77 11.46 11.46 0 0 1 1.38-6.16 8.33 8.33 0 0 1 .9-1.4 10.29 10.29 0 0 1 1.06-1.47 12.83 12.83 0 0 1 1.26-1.18 5.75 5.75 0 0 1 .67-.55l.7-.47a8.68 8.68 0 0 1 6.73-.66 15.89 15.89 0 0 1 6.41 3.8 16.7 16.7 0 0 1 4.29 6.42 9.28 9.28 0 0 1 .53 3.78 6.3 6.3 0 0 1-1.34 3.44 8.42 8.42 0 0 1-.64.7 6.85 6.85 0 0 1-.72.59 6.27 6.27 0 0 1-1.67.8 9.1 9.1 0 0 1-3.79.24 15.55 15.55 0 0 1-7.06-3 11.12 11.12 0 0 1-4.23-5.85 6 6 0 0 1 .13-3.36 8.58 8.58 0 0 1 1.58-3 6.79 6.79 0 0 1 5.81-2.34 8.86 8.86 0 0 1 5.6 2.54c3 2.81 2.64 7.89-.23 9.8a6.59 6.59 0 0 1-4.65 1.15 4.46 4.46 0 0 1-3.48-2.18 5.1 5.1 0 0 1-.16-3.7c.09-.29.2-.57.3-.84s.24-.53.35-.79a3.69 3.69 0 0 1 .9-1.22 5.56 5.56 0 0 1 4.13-1.66 1.24 1.24 0 0 1 .88.65c.16.18.18.33.22.32z" fill="#90191c"/><path d="M103.62 155.78c-1.35.43.13 2.8 1.39 3.21 6 1.94 5.14-6.74 0-5.94-4.56.69-5.38 8.54.54 9 4.57.33 7.7-8.22 4.1-11-5-3.8-12.93 6.67-8 11.18 8.63 7.59 19.38-8.92 7.69-12.43" fill="#ed4a95"/><path d="M103.62 155.78h-.25a.77.77 0 0 0-.45.62 2 2 0 0 0 .25 1.17 3.91 3.91 0 0 0 1 1.28 2.57 2.57 0 0 0 .89.5 6 6 0 0 0 1 .26 3.35 3.35 0 0 0 2.47-.47 3.18 3.18 0 0 0 1.21-2.67 4.4 4.4 0 0 0-1.24-3c-1.7-1.82-5.17-1.45-6.75.85a5.9 5.9 0 0 0-1.07 4 4.8 4.8 0 0 0 2.32 3.78 5.88 5.88 0 0 0 2.21.73 4.29 4.29 0 0 0 2.44-.33 7.16 7.16 0 0 0 3.33-3.37 9.48 9.48 0 0 0 1.1-4.68 6.15 6.15 0 0 0-.64-2.53 4.47 4.47 0 0 0-.82-1.13 5.24 5.24 0 0 0-1.12-.83 4.74 4.74 0 0 0-2.7-.52 6.32 6.32 0 0 0-2.47.81 10.42 10.42 0 0 0-3.43 3.33 9.76 9.76 0 0 0-1.56 4.35 6.39 6.39 0 0 0 .21 2.34 5.48 5.48 0 0 0 1.12 2.07 5.83 5.83 0 0 0 .83.76 6 6 0 0 0 .87.62 6.34 6.34 0 0 0 .92.51 6 6 0 0 0 1 .39 7.25 7.25 0 0 0 4 .09 8.39 8.39 0 0 0 3.26-1.74 10.16 10.16 0 0 0 2.17-2.55 8.25 8.25 0 0 0 1.18-5.58 5.88 5.88 0 0 0-.88-2.22 6.06 6.06 0 0 0-.66-.82l-.34-.34a3.17 3.17 0 0 0-.36-.28 3.67 3.67 0 0 0-.69-.47 6.85 6.85 0 0 0-.63-.35 9.8 9.8 0 0 0-1.06-.39c-.58-.15-.9-.2-.91-.14s.26.21.79.46c.26.11.56.32.93.52.19.11.36.25.56.39a4.21 4.21 0 0 1 .58.48l.3.28.28.33a6.32 6.32 0 0 1 .52.76A5.47 5.47 0 0 1 114 155a7.38 7.38 0 0 1-1.26 4.79 8.21 8.21 0 0 1-4.75 3.55 5.77 5.77 0 0 1-3.21-.15 4.41 4.41 0 0 1-.78-.32 5.77 5.77 0 0 1-.76-.44 5.24 5.24 0 0 1-.71-.53 4.33 4.33 0 0 1-.62-.58 4.26 4.26 0 0 1-.9-3.23 8.31 8.31 0 0 1 1.34-3.59 8.64 8.64 0 0 1 2.86-2.75 3.6 3.6 0 0 1 3.52-.27 3.4 3.4 0 0 1 1.69 3.06 8 8 0 0 1-.89 3.83A5.64 5.64 0 0 1 107 161a2.63 2.63 0 0 1-1.59.22 4.16 4.16 0 0 1-1.6-.49 3.27 3.27 0 0 1-1.64-2.56 4.54 4.54 0 0 1 .72-3c1.09-1.7 3.59-2 4.75-.8a3.28 3.28 0 0 1 1 2.15 2.18 2.18 0 0 1-.7 1.87 2.5 2.5 0 0 1-1.79.43 6.5 6.5 0 0 1-.9-.16 2.08 2.08 0 0 1-.69-.32 3 3 0 0 1-1.29-1.9c-.01-.44.41-.59.35-.66z" fill="#902260"/><path d="M110.18 175.37c-1-1.58-1.58-4.41-3.47-5.36-1.88 2.52-.31 5.36 1.89 6.93-7.87.32-3.14 9.13.63 2.52 2.21 8.5 7.88.95 1.89-.94 9.45 1.89 1.58-11.34-1.89-1.26M127.73 124.27c-.55-.92-.92-2.56-2-3.11-1.1 1.46-.18 3.11 1.09 4-4.56.18-1.82 5.3.37 1.46 1.28 4.93 4.57.55 1.1-.55 5.47 1.1.91-6.57-1.1-.73" fill="#208ecb"/><path d="M120.61 182.79c.1-1.44 1-3.55.19-5-2.36.77-2.63 3.31-1.92 5.32-5.22-3.36-6.16 4.47-.73 1.91-2.43 6.48 4.65 4.17 1.64.25 5.24 5.49 6.15-6.6-.64-1.67M111.92 191.66c.75-.28 2-.31 2.6-1-.94-1-2.29-.58-3.15.24.52-3.42-3.68-2.12-1.14.06-3.86.25-1.07 3.32.25.9-1.6 3.92 4.76 1.62.7-.71M224.3 83.36c-.94-1.57-1.57-4.41-3.46-5.35-1.89 2.52-.32 5.35 1.89 6.93-7.88.31-3.15 9.13.63 2.52 2.2 8.5 7.87.94 1.89-.95 9.44 1.89 1.57-11.34-1.89-1.26" fill="#208ecb"/><path d="M218.15 76.93c.41 1.21 1.63 2.82 1.27 4.25-2.18-.13-3-2.25-2.82-4.13-3.72 4-6.27-2.44-1-1.47-3.52-5 3-4.6 1.35-.57 3.26-5.87 6.73 4.27-.18 1.57M226 75.76c-.54-.91-.91-2.55-2-3.1-1.1 1.46-.19 3.1 1.09 4-4.56.19-1.82 5.3.37 1.46 1.27 4.93 4.56.55 1.09-.54 5.48 1.09.91-6.57-1.09-.73M251.73 160.55c-.94-1.58-1.57-4.41-3.46-5.35-1.89 2.51-.32 5.35 1.89 6.92-7.87.32-3.15 9.13.63 2.52 2.2 8.5 7.87 1 1.89-.94 9.44 1.89 1.57-11.34-1.89-1.26" fill="#208ecb"/><path d="M253.16 178.83c.29 2.55 2 6.23.71 8.89-4.24-1.19-4.9-5.68-3.79-9.3-9 6.35-11.27-7.46-1.45-3.33-4.78-11.32 7.94-7.75 2.9-.56 8.89-10.13 11.4 11.25-1 3" fill="#208ecb"/><path d="M243.63 169.11c-.46-.77-.76-2.14-1.68-2.6-.92 1.22-.15 2.6.92 3.36-3.83.16-1.53 4.44.3 1.23 1.07 4.13 3.83.46.92-.46 4.59.92.77-5.51-.92-.61M243.14 188.94c-1.06-.22-2.53-1.08-3.69-.64.33 1.82 2.19 2.27 3.74 1.95-3 3.53 2.7 5 1.35.73 4.55 2.43 3.54-3 .34-1.2 4.58-3.33-4.28-5.19-1.3.32" fill="#208ecb"/><path d="M243.74 180.75c-1-1.57-1.58-4.4-3.47-5.35-1.89 2.52-.31 5.35 1.89 6.93-7.87.31-3.15 9.13.63 2.52 2.21 8.5 7.88.94 1.89-.95 9.45 1.89 1.58-11.33-1.89-1.26M216.85 85.5c-1.2-1-2.51-3-4.26-3.15-.73 2.51 1.32 4.25 3.49 4.83-6 2.54.22 8 1.22 1.78 4.2 6 6.4-1.56 1.2-1.29 7.89-1.28-2.08-9.27-1.84-.43M146.82 91.64c-.58-1-1-2.73-2.14-3.31-1.17 1.56-.2 3.31 1.17 4.28-4.87.2-1.95 5.65.39 1.56 1.36 5.26 4.87.59 1.17-.58 5.84 1.17 1-7-1.17-.78M113.24 183.21c.87-.89 2.63-1.78 2.93-3.19-2-.82-3.58.7-4.24 2.42-1.54-5.13-6.55-.52-1.55.84-5.22 2.9.71 5.35.94 1.09.36 6.54 7.73-.89.51-1.46M118.63 196.07c.12-1.08.82-2.63.27-3.75-1.78.52-2.05 2.41-1.57 3.93-3.81-2.64-4.71 3.18-.59 1.41-2 4.78 3.36 3.23 1.22.22 3.77 4.24 4.76-4.77-.44-1.26M259.35 166.07c0-1 .63-2.46.07-3.45-1.61.55-1.77 2.3-1.25 3.68-3.63-2.25-4.18 3.14-.49 1.32-1.58 4.48 3.25 2.81 1.14.14 3.66 3.72 4.14-4.6-.47-1.13M240.89 199.15c-.43.72-.72 2-1.57 2.42-.85-1.14-.14-2.42.85-3.13-3.56-.14-1.42-4.13.29-1.14 1-3.84 3.56-.42.85.43 4.27-.85.71 5.13-.85.57" fill="#fff"/></svg>