<svg id="Capa_1" data-name="Capa 1" xmlns="http://www.w3.org/2000/svg" xmlns:xlink="http://www.w3.org/1999/xlink" viewBox="0 0 286 319.13"><defs><clipPath id="clip-path"><path d="M113.47,140.14c3.26,9.41,6.35,35,6.35,35h40.87s1.82-8.22,3.9-19.41h0l35.93-27.4-3.89-12.07-27.93,14v0a167.32,167.32,0,0,0,1.78-24c-.51-22.52-.86-45.3-4.29-47.59s-10.76-1.26-11.45,0-1.83,44.07-1.83,44.07-39.49,3.89-41.95,5.5S110.21,130.73,113.47,140.14Z" style="fill:none"/></clipPath><clipPath id="clip-path-2"><path d="M148.1,123.27a4.69,4.69,0,0,0,3.34-4.28c.29-6.84.94-23.19.45-25-.61-2.37-3.56-3.32-4.62-3.51S122.46,87,110.75,93.38a4,4,0,0,0-2.31,3.69c.14,2.63,3.28,22.32,5.17,24.16C115.33,122.91,136.17,126.91,148.1,123.27Z" style="fill:none"/></clipPath><clipPath id="clip-path-3"><rect y="221.13" width="286" height="99" rx="13.03" style="fill:none"/></clipPath></defs><circle cx="143.03" cy="118.16" r="96" style="fill:#98d11e"/><polygon points="124.04 227.3 161.47 159.14 166.18 59.48 249.87 167.48 207.41 216.59 150.85 231.27 124.04 227.3" style="fill:#81aa0f"/><path d="M160.69,175.13s10.3-46.3,9.78-68.82-.86-45.3-4.29-47.59-10.76-1.26-11.45,0-1.83,44.07-1.83,44.07-39.49,3.89-41.95,5.5-.74,22.44,2.52,31.85,6.35,35,6.35,35Z" style="fill:#fcc184"/><polyline points="164.59 155.72 200.52 128.32 196.63 116.25 168.7 130.26" style="fill:#fcc184"/><g style="opacity:0.71"><path d="M164.59,155.57a9.91,9.91,0,0,1-4.06,1,13.08,13.08,0,0,1-4.17-.47,11.86,11.86,0,0,1-3.83-1.74,9.47,9.47,0,0,1-2.93-3c1.34.46,2.51,1,3.73,1.42s2.4.82,3.62,1.14,2.45.62,3.71.89Z" style="fill:#b26e30"/></g><g style="opacity:0.28"><g style="clip-path:url(#clip-path)"><path d="M197.4,123s-28.47,22.45-40.83,18.67S144,119.16,144,119.16s-3.51,26.69-32.4,19.61l-1,41.34,35.45-3.26,24.73-1.37,27.47-41,2.92-8.75Z" style="fill:#b26e30"/><path d="M151.16,125.76a4.62,4.62,0,0,0,3.3-4.21c.28-6.74.92-22.85.44-24.68-.61-2.34-3.51-3.27-4.56-3.46s-24.44-3.36-36,2.91a3.93,3.93,0,0,0-2.27,3.64c.14,2.58,3.23,22,5.09,23.8C118.88,125.41,139.41,129.35,151.16,125.76Z" style="fill:#b26e30"/></g></g><path d="M148.1,123.27a4.69,4.69,0,0,0,3.34-4.28c.29-6.84.94-23.19.45-25-.61-2.37-3.56-3.32-4.62-3.51S122.46,87,110.75,93.38a4,4,0,0,0-2.31,3.69c.14,2.63,3.28,22.32,5.17,24.16C115.33,122.91,136.17,126.91,148.1,123.27Z" style="fill:#fcc184"/><path d="M141.66,117.3A43.19,43.19,0,0,1,141,112c-.13-1.76-.16-3.52-.18-5.28s.05-3.52.18-5.28a43.19,43.19,0,0,1,.63-5.28,43.16,43.16,0,0,1,.62,5.28c.13,1.76.17,3.52.18,5.28s-.05,3.52-.18,5.28A45.21,45.21,0,0,1,141.66,117.3Z" style="fill:#b26e30"/><path d="M131.08,117.3a43.19,43.19,0,0,1-.63-5.28c-.13-1.76-.16-3.52-.18-5.28s0-3.52.18-5.28a43.19,43.19,0,0,1,.63-5.28,43.16,43.16,0,0,1,.62,5.28c.13,1.76.17,3.52.18,5.28s0,3.52-.18,5.28A45.21,45.21,0,0,1,131.08,117.3Z" style="fill:#b26e30"/><path d="M120.25,114.81a25.68,25.68,0,0,1-.63-4c-.13-1.34-.16-2.69-.18-4s0-2.69.18-4a25.68,25.68,0,0,1,.63-4,25.65,25.65,0,0,1,.62,4c.13,1.34.17,2.69.18,4s0,2.69-.18,4A26.87,26.87,0,0,1,120.25,114.81Z" style="fill:#b26e30"/><g style="clip-path:url(#clip-path-2)"><path d="M151.69,121.31s-11.12,5-10-22.32c0,0-1.14,21,.69,25.42,0,0,3.56,1.88,5.83.34A13.59,13.59,0,0,0,151.69,121.31Z" style="fill:#b26e30;opacity:0.32"/><path d="M140.31,124.6s-9.56-.22-9.23-15.9c0,0-.82,13,0,17S140.31,124.6,140.31,124.6Z" style="fill:#b26e30;opacity:0.32"/><path d="M128.32,124.75a18.26,18.26,0,0,1-8.07-15.18s-.65,11.74,1.19,15.18S128.32,124.75,128.32,124.75Z" style="fill:#b26e30;opacity:0.32"/><path d="M119.35,123.89a36.48,36.48,0,0,1-9.12-15.19c-2.93-9.59,1.07,15.19,1.07,15.19Z" style="fill:#b26e30;opacity:0.32"/></g><polygon points="162.57 212.13 160.69 175.13 119.82 175.13 120.34 215.14 162.57 212.13" style="fill:#e7aa6d"/><polygon points="171.79 212.34 169.96 195.14 114.1 193.78 112.5 212.91 171.79 212.34" style="fill:#6e3318"/><rect x="113.64" y="172.96" width="55.52" height="16.25" transform="translate(282.8 362.17) rotate(180)" style="fill:#294d88"/><path d="M123.26,173.5h38.3a7.6,7.6,0,0,1,7.6,7.6v0a7.6,7.6,0,0,1-7.6,7.6h-38.3a0,0,0,0,1,0,0V173.5A0,0,0,0,1,123.26,173.5Z" transform="translate(292.41 362.2) rotate(-180)" style="fill:#3563a5"/><circle cx="165.18" cy="181.57" r="1.4" style="fill:#183960"/><circle cx="158.85" cy="181.57" r="1.4" style="fill:#183960"/><circle cx="152.53" cy="181.57" r="1.4" style="fill:#183960"/><circle cx="146.21" cy="181.57" r="1.4" style="fill:#183960"/><circle cx="139.88" cy="181.57" r="1.4" style="fill:#183960"/><path d="M148.32,172.33h2.57a18.5,18.5,0,0,0,0,17.66h-2.57a16.34,16.34,0,0,1-2.59-8A16.52,16.52,0,0,1,148.32,172.33Z" style="fill:#c29626"/><path d="M132.37,172.33h4.54a16.39,16.39,0,0,0,0,17.66h-4.54a15.66,15.66,0,0,1,0-17.66Z" style="fill:#294d88"/><rect x="147.61" y="180.65" width="4.56" height="1.67" transform="translate(299.77 362.97) rotate(180)" style="fill:#c29626"/><path d="M112.73,114.81H119s2,5.59-2,6.55S112.73,114.81,112.73,114.81Z" style="fill:#ffd0a9"/><path d="M122.5,116.74h6.27s2,5.59-2,6.56S122.5,116.74,122.5,116.74Z" style="fill:#ffd0a9"/><path d="M132.28,116.74h6.26s2,5.59-1.95,6.56S132.28,116.74,132.28,116.74Z" style="fill:#ffd0a9"/><path d="M143.45,115.35h6.27s2,5.59-2,6.55S143.45,115.35,143.45,115.35Z" style="fill:#ffd0a9"/><rect y="236.13" width="286" height="84" rx="12" style="fill:#4c4c4d"/><rect y="219.13" width="286" height="84" rx="12" style="fill:#4c4c4d"/><path d="M274,219.13H12a12,12,0,0,0-12,12v12a12,12,0,0,1,12-12H274a12,12,0,0,1,12,12v-12A12,12,0,0,0,274,219.13Z" style="fill:#636366"/><g style="opacity:0.38"><path d="M274,303.13H12a12,12,0,0,1-12-12v16a12,12,0,0,0,12,12H274a12,12,0,0,0,12-12v-16A12,12,0,0,1,274,303.13Z" style="fill:#252528"/></g><circle cx="12.81" cy="267.13" r="8" style="fill:#252528;opacity:0.5700000000000001"/><path d="M8.81,263.13a10.49,10.49,0,0,1,2.43,1.32,16.77,16.77,0,0,1,2,1.72,16,16,0,0,1,1.72,2,10.28,10.28,0,0,1,1.32,2.43,10.49,10.49,0,0,1-2.43-1.32,16,16,0,0,1-2-1.73,16.67,16.67,0,0,1-1.72-2A10.49,10.49,0,0,1,8.81,263.13Z" style="fill:#252528"/><path d="M16.31,263.13A10.49,10.49,0,0,1,15,265.56a16.67,16.67,0,0,1-1.72,2,16,16,0,0,1-2,1.73,10.49,10.49,0,0,1-2.43,1.32,10.28,10.28,0,0,1,1.32-2.43,16,16,0,0,1,1.72-2,16.77,16.77,0,0,1,2-1.72A10.49,10.49,0,0,1,16.31,263.13Z" style="fill:#252528"/><circle cx="271.81" cy="267.13" r="8" style="fill:#252528;opacity:0.5700000000000001"/><path d="M267.81,263.13a10.49,10.49,0,0,1,2.43,1.32,16.77,16.77,0,0,1,2,1.72,16,16,0,0,1,1.72,2,10.28,10.28,0,0,1,1.32,2.43,10.49,10.49,0,0,1-2.43-1.32,16,16,0,0,1-2-1.73,16.67,16.67,0,0,1-1.72-2A10.49,10.49,0,0,1,267.81,263.13Z" style="fill:#252528"/><path d="M275.31,263.13a10.49,10.49,0,0,1-1.32,2.43,16.67,16.67,0,0,1-1.72,2,16,16,0,0,1-2,1.73,10.49,10.49,0,0,1-2.43,1.32,10.28,10.28,0,0,1,1.32-2.43,16,16,0,0,1,1.72-2,16.77,16.77,0,0,1,2-1.72A10.49,10.49,0,0,1,275.31,263.13Z" style="fill:#252528"/><g style="clip-path:url(#clip-path-3)"><polygon points="93.1 210.13 31.49 331.14 217.1 335.13 248.59 210.13 93.1 210.13" style="fill:#fff;opacity:0.09"/><polygon points="151.1 203.13 93.1 339.13 165.1 337.13 209.1 207.13 151.1 203.13" style="fill:#fff;opacity:0.13"/></g><path d="M143,243.43a117.5,117.5,0,1,1,117.5-117.5A117.63,117.63,0,0,1,143,243.43ZM143,33A92.95,92.95,0,1,0,236,125.93,93.05,93.05,0,0,0,143,33Z" style="fill:#303033"/><path d="M143,236.37a117.5,117.5,0,1,1,117.5-117.5A117.63,117.63,0,0,1,143,236.37Zm0-210.45a92.95,92.95,0,1,0,92.95,93A93.06,93.06,0,0,0,143,25.92Z" style="fill:#4c4c4d"/><path d="M143,225.75A117.63,117.63,0,0,1,25.64,113.5c-.08,1.75-.14,3.49-.14,5.26a117.5,117.5,0,0,0,235,0c0-1.77-.06-3.51-.14-5.26A117.63,117.63,0,0,1,143,225.75Z" style="fill:#313133;opacity:0.48"/><path d="M143,32a93.05,93.05,0,0,1,92.79,87.69c.1-1.74.16-3.49.16-5.25a93,93,0,1,0-185.9,0c0,1.76.06,3.51.16,5.25A93.05,93.05,0,0,1,143,32Z" style="fill:#2f2f30"/><path d="M143,10.51A117.62,117.62,0,0,1,260.36,122.75c.08-1.74.14-3.49.14-5.25a117.5,117.5,0,0,0-235,0c0,1.76.06,3.51.14,5.25A117.62,117.62,0,0,1,143,10.51Z" style="fill:#636366"/><circle cx="36.61" cy="119.13" r="8" style="fill:#252528;opacity:0.5700000000000001"/><path d="M32.61,115.13A10.49,10.49,0,0,1,35,116.45a16.77,16.77,0,0,1,2,1.72,16,16,0,0,1,1.72,2,10.28,10.28,0,0,1,1.32,2.43,10.28,10.28,0,0,1-2.43-1.32,16,16,0,0,1-2-1.73,16.67,16.67,0,0,1-1.72-2A10.49,10.49,0,0,1,32.61,115.13Z" style="fill:#252528"/><path d="M40.11,115.13a10.49,10.49,0,0,1-1.32,2.43,16.67,16.67,0,0,1-1.72,2,16,16,0,0,1-2,1.73,10.49,10.49,0,0,1-2.43,1.32,9.94,9.94,0,0,1,1.32-2.43,16,16,0,0,1,1.72-2,16.77,16.77,0,0,1,2-1.72A10.49,10.49,0,0,1,40.11,115.13Z" style="fill:#252528"/><circle cx="246.61" cy="120.13" r="8" style="fill:#252528;opacity:0.5700000000000001"/><path d="M242.61,116.13a10.49,10.49,0,0,1,2.43,1.32,16.77,16.77,0,0,1,2,1.72,16,16,0,0,1,1.72,2,10.28,10.28,0,0,1,1.32,2.43,10.28,10.28,0,0,1-2.43-1.32,16,16,0,0,1-2-1.73,16.67,16.67,0,0,1-1.72-2A10.49,10.49,0,0,1,242.61,116.13Z" style="fill:#252528"/><path d="M250.11,116.13a10.49,10.49,0,0,1-1.32,2.43,16.67,16.67,0,0,1-1.72,2,16,16,0,0,1-2,1.73,10.49,10.49,0,0,1-2.43,1.32,9.94,9.94,0,0,1,1.32-2.43,16,16,0,0,1,1.72-2,16.77,16.77,0,0,1,2-1.72A10.49,10.49,0,0,1,250.11,116.13Z" style="fill:#252528"/><circle cx="145.61" cy="222.13" r="8" style="fill:#252528;opacity:0.5700000000000001"/><path d="M141.61,218.13a10.49,10.49,0,0,1,2.43,1.32,16.77,16.77,0,0,1,2,1.72,16,16,0,0,1,1.72,2,10.28,10.28,0,0,1,1.32,2.43,10.28,10.28,0,0,1-2.43-1.32,16,16,0,0,1-2-1.73,16.67,16.67,0,0,1-1.72-2A10.49,10.49,0,0,1,141.61,218.13Z" style="fill:#252528"/><path d="M149.11,218.13a10.49,10.49,0,0,1-1.32,2.43,16.67,16.67,0,0,1-1.72,2,16,16,0,0,1-2,1.73,10.49,10.49,0,0,1-2.43,1.32,9.94,9.94,0,0,1,1.32-2.43,16,16,0,0,1,1.72-2,16.77,16.77,0,0,1,2-1.72A10.49,10.49,0,0,1,149.11,218.13Z" style="fill:#252528"/><circle cx="143" cy="16.13" r="8" style="fill:#252528;opacity:0.5700000000000001"/><path d="M139,12.13a10.49,10.49,0,0,1,2.43,1.32,16.77,16.77,0,0,1,2,1.72,16,16,0,0,1,1.72,2,10.28,10.28,0,0,1,1.32,2.43,10.49,10.49,0,0,1-2.43-1.32,16,16,0,0,1-2-1.73,16.67,16.67,0,0,1-1.72-2A10.49,10.49,0,0,1,139,12.13Z" style="fill:#252528"/><path d="M146.5,12.13a10.49,10.49,0,0,1-1.32,2.43,16.67,16.67,0,0,1-1.72,2,16,16,0,0,1-2,1.73A10.49,10.49,0,0,1,139,19.63a10.28,10.28,0,0,1,1.32-2.43,16,16,0,0,1,1.72-2,16.77,16.77,0,0,1,2-1.72A10.49,10.49,0,0,1,146.5,12.13Z" style="fill:#252528"/></svg>