<svg data-name="Capa 1" xmlns="http://www.w3.org/2000/svg" viewBox="0 0 366.23 92.99"><path d="M48.21 36.81H40a8.68 8.68 0 00-7.54 4.37L9.62 39a6.64 6.64 0 00-5.47 2C1.38 43.89-.23 48.61 0 53.62A17.38 17.38 0 004.67 65a6.72 6.72 0 005.73 1.82l22.83-3.42A8.71 8.71 0 0040 66.59h8.22a8.69 8.69 0 008.68-8.69V45.5a8.69 8.69 0 00-8.69-8.69z" fill="#be794a"/><path d="M48.21 36.81H40a8.68 8.68 0 00-7.54 4.37L9.62 39a6.64 6.64 0 00-5.47 2C1.38 43.89-.23 48.61 0 53.62A16.74 16.74 0 014.15 43a6.64 6.64 0 015.47-2l22.83 2.17A8.68 8.68 0 0140 38.81h8.22a8.69 8.69 0 018.68 8.69v-2a8.69 8.69 0 00-8.69-8.69z" fill="#dd9973"/><path d="M48.2 64.81H40a8.68 8.68 0 01-6.76-3.23L10.39 65a6.73 6.73 0 01-5.72-1.81A17.38 17.38 0 010 51.84a18.87 18.87 0 000 2 17.39 17.39 0 004.67 11.35A6.73 6.73 0 0010.39 67l22.84-3.42A8.68 8.68 0 0040 66.81h8.2a8.7 8.7 0 008.7-8.69v-2a8.7 8.7 0 01-8.7 8.69z" fill="#68412a"/><path d="M318 36.81h8.22a8.68 8.68 0 017.54 4.37L356.61 39a6.64 6.64 0 015.47 2c2.78 2.92 4.38 7.64 4.12 12.65A17.38 17.38 0 01361.56 65a6.71 6.71 0 01-5.72 1.82L333 63.37a8.71 8.71 0 01-6.76 3.22H318a8.69 8.69 0 01-8.69-8.69V45.5a8.69 8.69 0 018.69-8.69z" fill="#be794a"/><path d="M318 36.81h8.22a8.68 8.68 0 017.54 4.37L356.61 39a6.64 6.64 0 015.47 2c2.78 2.92 4.38 7.64 4.12 12.65A16.74 16.74 0 00362.08 43a6.64 6.64 0 00-5.47-2l-22.83 2.17a8.68 8.68 0 00-7.54-4.37H318a8.69 8.69 0 00-8.69 8.69v-2a8.69 8.69 0 018.69-8.68z" fill="#dd9973"/><path d="M318 64.81h8.21a8.67 8.67 0 006.79-3.23L355.84 65a6.73 6.73 0 005.72-1.81 17.38 17.38 0 004.64-11.35 16.51 16.51 0 010 2 17.39 17.39 0 01-4.64 11.36 6.73 6.73 0 01-5.72 1.8L333 63.58a8.67 8.67 0 01-6.76 3.23H318a8.7 8.7 0 01-8.7-8.69v-2a8.7 8.7 0 008.7 8.69z" fill="#68412a"/><path d="M308.43 69a10.09 10.09 0 01-8.89 10 976.2 976.2 0 01-114.71 6.9A976.36 976.36 0 0167.72 79a10.09 10.09 0 01-8.89-10V31.64a10.1 10.1 0 018.89-10 976.83 976.83 0 01231.82 0 10.1 10.1 0 018.89 10z" fill="#f5bb7f"/><path d="M183.65 92.4A987.27 987.27 0 0167 85.46 16.61 16.61 0 0152.33 69V31.64A16.61 16.61 0 0167 15.14a984.14 984.14 0 01233.36 0 16.61 16.61 0 0114.62 16.5V69a16.61 16.61 0 01-14.62 16.49 985.8 985.8 0 01-115.52 6.91zm0-71.2a974.31 974.31 0 00-115.16 6.85 3.61 3.61 0 00-3.16 3.59V69a3.59 3.59 0 003.16 3.58 964.55 964.55 0 00116.33 6.82 973 973 0 00114-6.85 3.59 3.59 0 003.11-3.55V31.64a3.61 3.61 0 00-3.16-3.59 975.19 975.19 0 00-113.55-6.85z" fill="#be794a"/><path d="M300.31 14.56a984.14 984.14 0 00-233.31 0 16.61 16.61 0 00-14.67 16.49v3.74A16.61 16.61 0 0167 18.29a984.14 984.14 0 01233.36 0 16.61 16.61 0 0114.62 16.5v-3.74a16.61 16.61 0 00-14.67-16.49z" fill="#dd9973"/><path d="M300.31 82.31a985.8 985.8 0 01-115.47 6.94h-1.19a987.28 987.28 0 01-116.7-7 16.6 16.6 0 01-14.62-16.43v3.73A16.6 16.6 0 0067 86a987.28 987.28 0 00116.65 7h1.19a988 988 0 00115.47-7 16.6 16.6 0 0014.62-16.49v-3.69a16.6 16.6 0 01-14.62 16.49z" fill="#68412a"/><path d="M45.68 66.82c-.11.16-.2.32-.31.48a9.38 9.38 0 01-1.57 1.58 10 10 0 01-4.06 2 7.63 7.63 0 01-4.32-.27 8.45 8.45 0 01-3.57-2.67 21.54 21.54 0 01-3.8-9.19c-.19-.85-.34-1.71-.45-2.57l-.43-2.68c-.17-.9-.26-1.81-.49-2.7L26 48.09a23 23 0 00-5.33-9.63 12.58 12.58 0 00-4.73-2.85 10.41 10.41 0 00-5.39-.24 10.18 10.18 0 015.19.8 12.11 12.11 0 014.13 3 22 22 0 014.24 9.37c.8 3.43.86 6.85 1.37 10.58a29.22 29.22 0 001.28 5.46 19.24 19.24 0 002.63 5.19 11.74 11.74 0 004.79 3.87 10.9 10.9 0 006.25.58A13.48 13.48 0 0046 71.76a13.67 13.67 0 002.26-2.18 11 11 0 00.91-1.35 7.46 7.46 0 00.65-1.57 28.32 28.32 0 01-4.14.16zM92.57 22.17a6.67 6.67 0 00-4.46-3.7 4.6 4.6 0 00-3 .17 5.52 5.52 0 00-2.23 1.77 3 3 0 00-.41 2.76 2.53 2.53 0 002 1.66 2.36 2.36 0 01-1.74-1.75 2.55 2.55 0 01.6-2.31 4.84 4.84 0 012.07-1.33 3.56 3.56 0 012.32.09 5.52 5.52 0 013.32 3.19 3.29 3.29 0 01-.05 2.06 4.59 4.59 0 01-1.4 1.69 9.41 9.41 0 01-2 1.22 5.61 5.61 0 01-2.19.39 14.88 14.88 0 01-4.82-1c-3.22-1.2-6.38-2.85-9.62-4.42a44.5 44.5 0 00-10.43-3.94 13.38 13.38 0 00-6.13.06 9.92 9.92 0 00-1.55.56 9.58 9.58 0 00-1.45.84 7.8 7.8 0 00-1.29 1.13c-.18.21-.39.41-.55.63l-.47.67a16.26 16.26 0 00-2.23 5.6 40.56 40.56 0 00-.79 5.6c-.08 1-.12 2-.15 3.05.71 0 3.18 0 3.93.13 0-1 .06-1.94.12-2.9a37.3 37.3 0 01.66-5 13.59 13.59 0 011.63-4.37l.28-.44c.11-.14.23-.25.33-.38a4.3 4.3 0 01.7-.66 5.24 5.24 0 011.83-.91 9.84 9.84 0 014.51-.12 46.22 46.22 0 019.74 3.33 102.47 102.47 0 0010.11 4.07 17.25 17.25 0 005.71.86 7.68 7.68 0 003-.75 13.1 13.1 0 001.28-.76A6.76 6.76 0 0091 28a6.29 6.29 0 001.76-2.58 4.86 4.86 0 00-.19-3.25zM45.74 36.81zM50 37z" fill="#25873a"/><path d="M46 36.82l3.93.13c-.75-.11-3.22-.13-3.93-.13zM50.18 66.58h-.31a.14.14 0 010 .06zM45.43 66.81h.25zM45.68 66.82a28.32 28.32 0 004.17-.16.14.14 0 000-.06l-4.18.2zM11.12 35.12S-3.2 44.53 7.28 59.65c0 0 14.25-6.86 3.84-24.53z" fill="#25873a"/><path d="M47 32.7s-16.53 4.45-11.32 22.1c0 0 15.68-2.05 11.32-22.1zM66.51 22.72s16.26-5.4 10-22.72c.03 0-15.51 3-10 22.72zM47.42 68.07S63 75.2 70.24 58.28c0 0-13.38-8.42-22.82 9.79zM18.22 73.7s8.18 3.74 12-5.14c-.02 0-7.05-4.43-12 5.14zM37.49 21.46s4.5 7.79 12.75 2.75c0 0-3.17-7.68-12.75-2.75zM79.39 28s-8.94 1-7.61 10.6c0-.04 8.31.12 7.61-10.6z" fill="#25873a"/><path d="M10.93 36.1c-.41 1.72-.79 3.43-1.18 5.13s-.72 3.42-1 5.14-.56 3.43-.75 5.16-.33 3.47-.4 5.24a24.68 24.68 0 01-.4-5.29 36.08 36.08 0 01.55-5.29 39.12 39.12 0 013.18-10.09zM46.48 33.77c-1.35 1.84-2.69 3.61-3.89 5.47-.6.93-1.14 1.89-1.65 2.87a25.25 25.25 0 00-1.26 3.11 9.48 9.48 0 01.54-3.41 15.41 15.41 0 011.53-3.1A18.69 18.69 0 0143.88 36a15 15 0 012.6-2.23zM49.85 66.86a17.68 17.68 0 015.58-4.42 11.42 11.42 0 013.43-1.17 5.81 5.81 0 013.57.4A8.59 8.59 0 0059 62a16.87 16.87 0 00-3.15 1.3c-2.03 1.06-3.97 2.33-6 3.56zM67.5 20.44a13.93 13.93 0 01.15-3.23 18.15 18.15 0 01.75-3.16 13.14 13.14 0 011.42-3 6.57 6.57 0 012.34-2.26 12.11 12.11 0 00-1.66 2.65 24 24 0 00-1.15 2.88c-.69 2.02-1.2 4.06-1.85 6.12z" fill="#125e20" opacity=".69"/><path d="M321.49 66.82c.1.16.19.32.31.48a9.32 9.32 0 001.56 1.58 10 10 0 004.07 2 7.6 7.6 0 004.31-.27 8.45 8.45 0 003.57-2.67 21.68 21.68 0 003.81-9.19c.18-.85.33-1.71.45-2.57l.43-2.68c.16-.9.26-1.81.49-2.7l.68-2.68a22.83 22.83 0 015.32-9.63 12.66 12.66 0 014.73-2.85 10.41 10.41 0 015.39-.24 10.14 10.14 0 00-5.18.8 12.05 12.05 0 00-4.14 3 22.08 22.08 0 00-4.23 9.37c-.8 3.43-.87 6.85-1.37 10.58a29.22 29.22 0 01-1.28 5.46 19.27 19.27 0 01-2.64 5.19 11.68 11.68 0 01-4.77 3.89 10.87 10.87 0 01-6.24.58 13.48 13.48 0 01-5.6-2.51 12.93 12.93 0 01-2.26-2.18 11 11 0 01-.92-1.35 8 8 0 01-.65-1.57 28.45 28.45 0 004.16.16zM274.59 22.17a6.66 6.66 0 014.47-3.7 4.61 4.61 0 012.95.17 5.65 5.65 0 012.23 1.77 3 3 0 01.41 2.76 2.54 2.54 0 01-2 1.66 2.38 2.38 0 001.75-1.75 2.58 2.58 0 00-.6-2.31 4.87 4.87 0 00-2.08-1.33 3.56 3.56 0 00-2.32.09 5.5 5.5 0 00-3.31 3.19 3.15 3.15 0 00.05 2.06 4.46 4.46 0 001.39 1.69 9.41 9.41 0 002.05 1.22 5.7 5.7 0 002.2.39 14.83 14.83 0 004.81-1c3.22-1.2 6.39-2.85 9.63-4.42a44.25 44.25 0 0110.42-3.94 13.43 13.43 0 016.14.06 10.3 10.3 0 011.55.56 10 10 0 011.44.84 7.8 7.8 0 011.23 1.08c.19.21.39.41.56.63l.47.67a16.44 16.44 0 012.22 5.6 39.09 39.09 0 01.79 5.6c.08 1 .13 2 .16 3.05-.72 0-3.18 0-3.93.13 0-1-.06-1.94-.12-2.9a37.3 37.3 0 00-.67-5 13.58 13.58 0 00-1.62-4.37l-.29-.44c-.1-.14-.22-.25-.33-.38a3.62 3.62 0 00-.7-.66 5.69 5.69 0 00-.86-.54 6.15 6.15 0 00-1-.37 9.85 9.85 0 00-4.51-.12 46.49 46.49 0 00-9.75 3.33 100.53 100.53 0 01-10.11 4.07 17.21 17.21 0 01-5.71.86 7.76 7.76 0 01-3-.75 14.4 14.4 0 01-1.28-.76 6.76 6.76 0 01-1.12-.91 6.39 6.39 0 01-1.76-2.58 4.93 4.93 0 01.15-3.25zM321.42 36.81zM317.2 37z" fill="#25873a"/><path d="M321.22 36.82l-3.93.13c.75-.11 3.21-.13 3.93-.13zM317 66.58h.3a.14.14 0 010 .06 2.13 2.13 0 01-.3-.06zM321.73 66.81h-.24zM321.49 66.82a28.45 28.45 0 01-4.18-.16.14.14 0 000-.06l4.19.2zM356.05 35.12s14.31 9.41 3.83 24.53c0 0-14.24-6.86-3.83-24.53z" fill="#25873a"/><path d="M320.15 32.7s16.55 4.45 11.33 22.1c0 0-15.67-2.05-11.33-22.1zM300.65 22.72s-16.26-5.4-10-22.72c-.03 0 15.51 3 10 22.72zM319.74 68.07s-15.58 7.13-22.82-9.79c0 0 13.39-8.42 22.82 9.79zM349 73.7s-8.19 3.74-12-5.14c0 0 7-4.43 12 5.14zM329.68 21.46s-4.5 7.79-12.75 2.75c0 0 3.16-7.68 12.75-2.75zM287.77 28s8.94 1 7.61 10.6c0-.04-8.3.12-7.61-10.6z" fill="#25873a"/><path d="M356.23 36.1a39.53 39.53 0 013.19 10.09 39 39 0 01.55 5.29 24.68 24.68 0 01-.4 5.29c-.07-1.77-.19-3.51-.38-5.24s-.44-3.45-.76-5.16-.65-3.43-1-5.14-.78-3.41-1.2-5.13zM320.68 33.77a14.65 14.65 0 012.61 2.23 18.63 18.63 0 012.12 2.71 15.41 15.41 0 011.53 3.1 9.27 9.27 0 01.54 3.41 23.78 23.78 0 00-1.26-3.11 32.75 32.75 0 00-1.65-2.87c-1.19-1.86-2.57-3.63-3.89-5.47zM317.31 66.86c-2-1.23-4-2.5-6-3.53a17 17 0 00-3.16-1.3 8.57 8.57 0 00-3.4-.36 5.82 5.82 0 013.57-.4 11.48 11.48 0 013.44 1.17 17.76 17.76 0 015.55 4.42zM299.67 20.44c-.65-2.06-1.16-4.1-1.86-6.07a24 24 0 00-1.14-2.88A12.55 12.55 0 00295 8.84a6.6 6.6 0 012.35 2.26 12.69 12.69 0 011.41 3 17.31 17.31 0 01.76 3.16 15.12 15.12 0 01.15 3.18z" fill="#125e20" opacity=".69"/></svg>