<svg data-name="Capa 1" xmlns="http://www.w3.org/2000/svg" viewBox="240 0 1440 1080"><path fill="#d18232" d="M-1-.19h256.77v1081.13H-1z"/><path fill="#faac5e" d="M273.79-.19h1369.43v1081.13H273.79z"/><path fill="#d18232" d="M1661.23-.19H1921v1081.13h-259.77z"/><path fill="#b36f2a" d="M-.25 39.6h251.51v84.09H-.25z"/><path fill="#e49648" d="M269.28 39.6h1378.43v84.09H269.28z"/><path fill="#b36f2a" d="M1666.49 39.6h253.01v84.09h-253.01zM2.75 715.31h248.51v84.09H2.75z"/><path fill="#e49648" d="M269.28 715.31h1378.43v84.09H269.28z"/><path fill="#b36f2a" d="M1665.73 715.31h255.26v84.09h-255.26zM-.25 377.46h251.51v84.09H-.25z"/><path fill="#e49648" d="M269.28 377.46h1378.43v84.09H269.28z"/><path fill="#b36f2a" d="M1666.49 377.46h253.01v84.09h-253.01z"/><ellipse cx="204.4" cy="807.13" rx="19.71" ry="60.81" fill="none" stroke="#e08e29" stroke-miterlimit="10" stroke-width="7.508"/><ellipse cx="202.71" cy="821.21" rx="9.01" ry="29.84" fill="none" stroke="#e08e29" stroke-miterlimit="10" stroke-width="7.508"/><path d="M120.63 11.5v901.26a3.75 3.75 0 0 0 3.75 3.76h1.5a3.76 3.76 0 0 0 3.76-3.76V11zM78.58 1068.93v-430a3.84 3.84 0 0 0-3-3.82 3.76 3.76 0 0 0-4.53 3.68v430.14zM188.2 545.63h1.5a3.75 3.75 0 0 0 3.75-3.75V186.76a3.75 3.75 0 0 0-3.75-3.76h-1.5a3.76 3.76 0 0 0-3.76 3.76v355.12a3.75 3.75 0 0 0 3.76 3.75z" fill="#e08e29"/><ellipse cx="333.2" cy="402.01" rx="41.67" ry="186.9" fill="none" stroke="#e08e29" stroke-miterlimit="10" stroke-width="7.508"/><ellipse cx="327.54" cy="472.12" rx="21.4" ry="87.27" fill="none" stroke="#e08e29" stroke-miterlimit="10" stroke-width="7.508"/><ellipse cx="322.47" cy="491.26" rx="5.07" ry="28.72" fill="none" stroke="#e08e29" stroke-miterlimit="10" stroke-width="7.508"/><path d="M838.8 759.84c0 17.41-4.54 31.53-10.14 31.53s-10.13-14.12-10.13-31.53 4.53-31.54 10.13-31.54 10.14 14.12 10.14 31.54z" fill="none" stroke="#e08e29" stroke-miterlimit="10" stroke-width="7.508"/><ellipse cx="1180.01" cy="208.6" rx="20.27" ry="89.53" fill="none" stroke="#e08e29" stroke-miterlimit="10" stroke-width="7.508"/><ellipse cx="1177.76" cy="250.83" rx="10.14" ry="23.65" fill="none" stroke="#e08e29" stroke-miterlimit="10" stroke-width="7.508"/><ellipse cx="1175.13" cy="214.79" rx="37.16" ry="118.24" fill="none" stroke="#e08e29" stroke-miterlimit="10" stroke-width="7.508"/><ellipse cx="1869.22" cy="253.48" rx="19.14" ry="42.79" fill="none" stroke="#e08e29" stroke-miterlimit="10" stroke-width="7.508"/><ellipse cx="1873.16" cy="260.51" rx="3.94" ry="18.3" fill="none" stroke="#e08e29" stroke-miterlimit="10" stroke-width="7.508"/><path d="M1701.77 1069.68V855a3.75 3.75 0 0 0-3.75-3.75h-1.5a3.75 3.75 0 0 0-3.76 3.75v214.73zM1780.6 470.55h.75a3.75 3.75 0 0 0 3.76-3.75V3.57a3.76 3.76 0 0 0-3.76-3.76h-.75a3.75 3.75 0 0 0-3.75 3.76V466.8a3.75 3.75 0 0 0 3.75 3.75zM1813.64 604.94h-3a3.75 3.75 0 0 1-3.76-3.75V406a3.76 3.76 0 0 1 3.76-3.76h3a3.75 3.75 0 0 1 3.75 3.76v195.2a3.75 3.75 0 0 1-3.75 3.74zM1701.77 727.78a2.26 2.26 0 0 1-2.25 2.26 2.26 2.26 0 0 1-2.25-2.26v-63.3a2.25 2.25 0 0 1 2.25-2.25 2.25 2.25 0 0 1 2.25 2.25z" fill="#e08e29"/><path d="M1854.18 67.38a3.75 3.75 0 0 1-3.75-3.75V3.57a3.75 3.75 0 0 1 3.75-3.76 3.75 3.75 0 0 1 3.75 3.76v60.06a3.75 3.75 0 0 1-3.75 3.75z" fill="#e0902b"/><path d="M1869.2 858c0 3.31-1.64 6-3.66 6h-4c-2 0-3.66-2.67-3.66-6V605.67c0-3.31 1.64-6 3.66-6h4c2 0 3.66 2.67 3.66 6zM1791.87 1066.67V769.89c0-5.68-1.69-10.29-3.78-10.29h-6c-2.09 0-3.78 4.61-3.78 10.29v296.78z" fill="#e08e29"/><ellipse cx="1471.67" cy="767.03" rx="20.27" ry="229.65" fill="none" stroke="#e08e29" stroke-miterlimit="10" stroke-width="7.508"/><ellipse cx="1179.82" cy="675.02" rx="32.47" ry="46.95" fill="none" stroke="#e08e29" stroke-miterlimit="10" stroke-width="7.508"/><ellipse cx="1180.01" cy="681.95" rx="20.27" ry="24.96" fill="none" stroke="#e08e29" stroke-miterlimit="10" stroke-width="7.508"/><ellipse cx="1181.51" cy="685.81" rx="6.38" ry="10.93" fill="none" stroke="#e08e29" stroke-miterlimit="10" stroke-width="7.508"/><ellipse cx="673.82" cy="807.13" rx="19.71" ry="60.81" fill="none" stroke="#e08e29" stroke-miterlimit="10" stroke-width="7.508"/><ellipse cx="672.13" cy="821.21" rx="9.01" ry="29.84" fill="none" stroke="#e08e29" stroke-miterlimit="10" stroke-width="7.508"/><ellipse cx="716.05" cy="173.69" rx="18.02" ry="77.14" fill="none" stroke="#e08e29" stroke-miterlimit="10" stroke-width="7.508"/><ellipse cx="713.8" cy="200.25" rx="9.01" ry="29.56" fill="none" stroke="#e08e29" stroke-miterlimit="10" stroke-width="7.508"/><ellipse cx="786.43" cy="297.57" rx="8.45" ry="128.94" fill="none" stroke="#e08e29" stroke-miterlimit="10" stroke-width="7.508"/><ellipse cx="1576.4" cy="148.36" rx="19.14" ry="42.79" fill="none" stroke="#e08e29" stroke-miterlimit="10" stroke-width="7.508"/><ellipse cx="1580.34" cy="155.39" rx="3.94" ry="18.3" fill="none" stroke="#e08e29" stroke-miterlimit="10" stroke-width="7.508"/><ellipse cx="441.84" cy="1010.96" rx="21.96" ry="34.91" fill="none" stroke="#e0902b" stroke-miterlimit="10" stroke-width="7.508"/><ellipse cx="441.84" cy="1019.4" rx="5.07" ry="8.45" fill="none" stroke="#e0902b" stroke-miterlimit="10" stroke-width="7.508"/><ellipse cx="441.84" cy="999.13" rx="32.09" ry="60.25" fill="none" stroke="#e0902b" stroke-miterlimit="10" stroke-width="7.508"/><path d="M401.42 27.93v706.9a3.75 3.75 0 0 0 3.75 3.75h.75a3.75 3.75 0 0 0 3.76-3.75V29zM283.55 746.09h4.5a3.75 3.75 0 0 1 3.75 3.75v326.59a3.75 3.75 0 0 1-3.75 3.76h-4.5a3.76 3.76 0 0 1-3.76-3.76V749.84a3.75 3.75 0 0 1 3.76-3.75zM590.62 11.5v901.26a3.75 3.75 0 0 0 3.75 3.76h1.5a3.75 3.75 0 0 0 3.75-3.76V11zM548.57 1068.93v-430a3.84 3.84 0 0 0-3-3.82 3.76 3.76 0 0 0-4.53 3.68v430.14zM426.19 821.17h-2.25a3.75 3.75 0 0 1-3.75-3.76v-288.3a3.75 3.75 0 0 1 3.75-3.75h2.25a3.75 3.75 0 0 1 3.76 3.75v288.3a3.76 3.76 0 0 1-3.76 3.76zM306.07 13.45v156.79a3.75 3.75 0 0 0 3.75 3.75h3.76a3.75 3.75 0 0 0 3.75-3.75v-154q-5.65-1.24-11.26-2.79z" fill="#e08e29"/><path d="M339.1 82a3.09 3.09 0 0 1-3 3.18 3.09 3.09 0 0 1-3-3.18V2.68a3.1 3.1 0 0 1 3-3.18 3.1 3.1 0 0 1 3 3.18z" fill="#e0902b"/><path d="M760.29 981.11a3.75 3.75 0 0 1-3.75 3.76 3.76 3.76 0 0 1-3.76-3.76V689.57a3.76 3.76 0 0 1 3.76-3.76 3.76 3.76 0 0 1 3.75 3.76zM658.19 545.63h1.5a3.75 3.75 0 0 0 3.75-3.75V186.76a3.75 3.75 0 0 0-3.75-3.76h-1.5a3.76 3.76 0 0 0-3.76 3.76v355.12a3.75 3.75 0 0 0 3.76 3.75zM834.62 570.41h-2.25a3.76 3.76 0 0 1-3.76-3.76V3.57a3.76 3.76 0 0 1 3.76-3.76h2.25a3.75 3.75 0 0 1 3.75 3.76v563.08a3.75 3.75 0 0 1-3.75 3.76zM869.91 1069.68V839.19a3.76 3.76 0 0 0-3.76-3.76h-3a3.75 3.75 0 0 0-3.75 3.76v230.49zM1068.86 806.9h-3a3.75 3.75 0 0 1-3.75-3.75V451a3.75 3.75 0 0 1 3.75-3.75h3a3.75 3.75 0 0 1 3.76 3.75v352.15a3.75 3.75 0 0 1-3.76 3.75zM995.29 1035.89h-3a3.75 3.75 0 0 1-3.75-3.75V700.29a3.75 3.75 0 0 1 3.75-3.75h3a3.75 3.75 0 0 1 3.75 3.75v331.85a3.75 3.75 0 0 1-3.75 3.75zM900.69 407.49h4.5a3.75 3.75 0 0 1 3.76 3.75v184.69a3.76 3.76 0 0 1-3.76 3.76h-4.5a3.76 3.76 0 0 1-3.76-3.76V411.24a3.76 3.76 0 0 1 3.76-3.75zM890.93 291.49a3 3 0 0 1 3-3 3 3 0 0 1 3 3v67.41a3 3 0 0 1-3 3 3 3 0 0 1-3-3zM981.77 472.05h3a3.75 3.75 0 0 0 3.75-3.75V3.57a3.75 3.75 0 0 0-3.75-3.76h-3A3.75 3.75 0 0 0 978 3.57V468.3a3.75 3.75 0 0 0 3.77 3.75zM1110.16 361a2.26 2.26 0 0 1-2.26 2.26 2.26 2.26 0 0 1-2.25-2.26V1.75a2.25 2.25 0 0 1 2.25-2.25 2.26 2.26 0 0 1 2.26 2.25zM1163.46 593.68a3.75 3.75 0 0 1-3.75-3.75V466.05a3.75 3.75 0 0 1 3.75-3.76 3.76 3.76 0 0 1 3.76 3.76v123.88a3.76 3.76 0 0 1-3.76 3.75zM1156 1053.91h-5.25a3.76 3.76 0 0 1-3.76-3.75V794.89a3.76 3.76 0 0 1 3.76-3.75h5.25a3.75 3.75 0 0 1 3.76 3.75v255.27a3.75 3.75 0 0 1-3.76 3.75zM1172.47 898.5a3.75 3.75 0 0 1-3.75-3.76V761.86a3.75 3.75 0 0 1 3.75-3.76 3.76 3.76 0 0 1 3.76 3.76v132.88a3.76 3.76 0 0 1-3.76 3.76zM1327.13 1066.67h1.5a3.75 3.75 0 0 0 3.76-3.75V432.26a3.75 3.75 0 0 0-3.76-3.75h-1.5a3.75 3.75 0 0 0-3.75 3.75v630.66a3.75 3.75 0 0 0 3.75 3.75zM1258.06 234.06h1.5a3.76 3.76 0 0 0 3.76-3.76V11.07a3.76 3.76 0 0 0-3.76-3.75h-1.5a3.75 3.75 0 0 0-3.75 3.75V230.3a3.75 3.75 0 0 0 3.75 3.76z" fill="#e08e29"/><path d="M1219.77 93a3.68 3.68 0 0 1-3.75 3.59 3.68 3.68 0 0 1-3.76-3.59V3.1A3.68 3.68 0 0 1 1216-.5a3.68 3.68 0 0 1 3.75 3.6z" fill="#e0902b"/><path d="M1378.94 436.27a3.75 3.75 0 0 0 3.75 3.75 3.75 3.75 0 0 0 3.75-3.75V3.26a3.75 3.75 0 0 0-3.75-3.76 3.75 3.75 0 0 0-3.75 3.76zM1314.37 337.56a3.75 3.75 0 0 1-3.76 3.75 3.75 3.75 0 0 1-3.75-3.75v-105.3a3.75 3.75 0 0 1 3.75-3.75 3.75 3.75 0 0 1 3.76 3.75zM1409 1069.68V855a3.75 3.75 0 0 0-3.76-3.75h-1.5A3.75 3.75 0 0 0 1400 855v214.73zM1487.8 470.55h.75a3.75 3.75 0 0 0 3.75-3.75V3.57a3.75 3.75 0 0 0-3.75-3.76h-.75a3.75 3.75 0 0 0-3.75 3.76V466.8a3.75 3.75 0 0 0 3.75 3.75zM1520.83 604.94h-3a3.75 3.75 0 0 1-3.75-3.75V406a3.75 3.75 0 0 1 3.75-3.76h3a3.76 3.76 0 0 1 3.76 3.76v195.2a3.75 3.75 0 0 1-3.76 3.74zM1409 727.78a2.26 2.26 0 0 1-2.26 2.26 2.26 2.26 0 0 1-2.25-2.26v-63.3a2.25 2.25 0 0 1 2.25-2.25 2.25 2.25 0 0 1 2.26 2.25z" fill="#e08e29"/><path d="M1561.38 67.38a3.75 3.75 0 0 1-3.76-3.75V3.57a3.76 3.76 0 0 1 3.76-3.76 3.75 3.75 0 0 1 3.75 3.76v60.06a3.75 3.75 0 0 1-3.75 3.75z" fill="#e0902b"/><path d="M1631.2 387.21a3 3 0 0 1-3 3 3 3 0 0 1-3-3V2.51a3 3 0 0 1 3-3 3 3 0 0 1 3 3zM1572.64 765.61h-3.76a3.75 3.75 0 0 1-3.75-3.75V603.44a3.75 3.75 0 0 1 3.75-3.75h3.76a3.75 3.75 0 0 1 3.75 3.75v158.42a3.75 3.75 0 0 1-3.75 3.75zM1638.71 1070a3.71 3.71 0 0 1-3.76 3.66 3.71 3.71 0 0 1-3.75-3.66V670.2a3.71 3.71 0 0 1 3.75-3.66 3.71 3.71 0 0 1 3.76 3.66z" fill="#e08e29"/><path d="M1557.62 1068.93V960.81a3.75 3.75 0 0 0-3.75-3.75h-6a3.75 3.75 0 0 0-3.75 3.75v108.12z" fill="#e0902b"/><path d="M360.13 346.67V98.91c0-2.07-6.9-6.75-8.68-6.75h-57.73c-1.78 0-8.67 4.68-8.67 6.75v247.76z" fill="#6e6a72"/><path d="M351.37 92.16h-19v254.51h27.78V98.91c-.02-2.07-6.98-6.75-8.78-6.75z" fill="#66666b"/><path d="M357.12 342.27a1.12 1.12 0 0 1-1.12 1.12 1.12 1.12 0 0 1-1.13-1.12v-241a1.13 1.13 0 0 1 1.13-1.13 1.13 1.13 0 0 1 1.12 1.13zM290.3 342.27a1.12 1.12 0 0 1-1.12 1.12 1.13 1.13 0 0 1-1.13-1.12v-241a1.14 1.14 0 0 1 1.13-1.13 1.13 1.13 0 0 1 1.12 1.13z" fill="#4c555e"/><path d="M345.86 165.74h-47.3a3.76 3.76 0 0 1-3.75-3.76V135.7a3.75 3.75 0 0 1 3.75-3.75h47.3a3.75 3.75 0 0 1 3.75 3.75V162a3.76 3.76 0 0 1-3.75 3.74z" fill="#c4afa1"/><path d="M1022.31 347.42V99.66c0-2.07-11.37-6.75-14.31-6.75h-95.25c-2.93 0-14.31 4.68-14.31 6.75v247.76z" fill="#697236"/><path d="M1007.37 92.91h-30.85v254.51h45V99.66c.04-2.07-11.24-6.75-14.15-6.75z" fill="#606d35"/><path d="M1017.06 343.57c0 .63-.84 1.14-1.88 1.14-1 0-1.87-.51-1.87-1.14v-243c0-.63.84-1.14 1.87-1.14 1 0 1.88.51 1.88 1.14zM906.69 343.55c0 .62-.84 1.13-1.87 1.13-1 0-1.88-.51-1.88-1.13v-243c0-.62.84-1.13 1.88-1.13 1 0 1.87.51 1.87 1.13z" fill="#455a2e"/><path d="M1130.87 334.67l-43.49-244.2c-.36-2-7.94-5.45-9.69-5.14l-56.57 10.08c-1.75.31-7.68 6.12-7.32 8.16l43.49 244.21z" fill="#c5492b"/><path d="M1077.69 85.33l-18.47 3.29 44.67 250.86 27-4.81-43.49-244.2c-.4-2.04-7.96-5.47-9.71-5.14z" fill="#bb4528"/><path d="M1127.06 330.38a1.13 1.13 0 0 1-.91 1.31 1.12 1.12 0 0 1-1.3-.91L1082.59 93.5a1.13 1.13 0 0 1 .91-1.31 1.13 1.13 0 0 1 1.31.91zM1061.27 342.1a1.12 1.12 0 0 1-.91 1.3 1.12 1.12 0 0 1-1.31-.91l-42.25-237.27a1.13 1.13 0 0 1 .91-1.31 1.13 1.13 0 0 1 1.31.91z" fill="#9b3723"/><path d="M1088.07 154.29a3.77 3.77 0 0 1-3 4.36l-46.19 8.23a3.76 3.76 0 0 1-4.36-3l-4.54-25.5a3.77 3.77 0 0 1 3-4.36l46.2-8.22a3.74 3.74 0 0 1 4.35 3z" fill="#c4afa1"/><path d="M896.18 348.18V165.46c0-1.53-4.27-5-5.38-5H855c-1.1 0-5.37 3.45-5.37 5v182.72z" fill="#6e6a72"/><path d="M890.74 160.48h-11.82v187.7h17.26V165.46c0-1.53-4.32-4.98-5.44-4.98z" fill="#66666b"/><path d="M893.93 344.57a.79.79 0 0 1-.75.83.79.79 0 0 1-.75-.83V167a.79.79 0 0 1 .75-.83.79.79 0 0 1 .75.83zM852.64 344.57a.79.79 0 0 1-.75.83.79.79 0 0 1-.75-.83V167a.79.79 0 0 1 .75-.83.79.79 0 0 1 .75.83z" fill="#4c555e"/><path d="M889.43 211.75a2.6 2.6 0 0 1-2.33 2.79H858a2.59 2.59 0 0 1-2.33-2.79v-19.21a2.59 2.59 0 0 1 2.33-2.78h29.1a2.59 2.59 0 0 1 2.33 2.78z" fill="#c4afa1"/><path d="M818.85 689h247c2.06 0 6.73-5.59 6.73-7v-46.76c0-1.44-4.67-7-6.73-7h-247z" fill="#c5492b"/><path d="M1072.62 681.93v-15.42H818.85V689h247c2.15 0 6.77-5.61 6.77-7.07z" fill="#bb4528"/><path d="M823.4 686.78c-.62-.11-1.12-.52-1.12-1 0-.51.5-.92 1.12-.48h240.06c.62-.44 1.12 0 1.12.48 0 .5-.5.91-1.12 1zM823.4 632a.74.74 0 0 1-1.12-.63 1 1 0 0 1 1.12-.87h240.06a1 1 0 0 1 1.12.87.74.74 0 0 1-1.12.63z" fill="#9b3723"/><path d="M1002.75 680.77c-2 0-3.71-1.37-3.71-3v-38.24c0-1.69 1.66-3 3.71-3h25.61c2.05 0 3.71 1.36 3.71 3v38.19c0 1.68-1.66 3-3.71 3z" fill="#c4afa1"/><path d="M848.88 628.22h247.77c2.07 0 6.75-3.45 6.75-4.34V595c0-.89-4.68-4.34-6.75-4.34H848.88v37.54z" fill="#6e6a72"/><path d="M1103.4 624v-9.3H848.88v13.52h247.77c2.07 0 6.75-3.39 6.75-4.22z" fill="#66666b"/><path d="M854 627.47c-.62-.56-1.13-.81-1.13-1.12 0-.31.51-.57 1.13-.39h241c.62-.18 1.13.08 1.13.39s-.51.56-1.13 1.12zM854 593.68c-.62-.25-1.13-.5-1.13-.81 0-.31.51-.57 1.13-.69h241c.62.12 1.13.38 1.13.69 0 .31-.51.56-1.13.81z" fill="#4c555e"/><path d="M1034.37 623c-2.1 0-3.8-.83-3.8-1.86V597.8c0-1 1.7-1.87 3.8-1.87h26.19c2.1 0 3.8.84 3.8 1.87v23.3c0 1-1.7 1.86-3.8 1.86z" fill="#c4afa1"/><path d="M992 139.46h-10l-.51-.47a31.74 31.74 0 0 0-42.25 0l-.51.47h-10a3.09 3.09 0 0 0-3.29 2.84v31.86a3.1 3.1 0 0 0 3.29 2.84h11l.5.42a31.83 31.83 0 0 0 40.35 0l.5-.42h11a3.09 3.09 0 0 0 3.28-2.84V142.3a3.09 3.09 0 0 0-3.36-2.84z" fill="#ad6928"/><path d="M996.89 132h-10.84a36.58 36.58 0 0 0-52.1 0h-10.82a5.92 5.92 0 0 0-5.92 5.92v40.71a5.93 5.93 0 0 0 5.92 5.93h12a36.58 36.58 0 0 0 49.75 0h12a5.93 5.93 0 0 0 5.92-5.92v-40.78a5.9 5.9 0 0 0-5.91-5.86zm1.4 42.35a6.64 6.64 0 0 1-6.81 6.45h-9.61a34.87 34.87 0 0 1-43.74 0h-9.61a6.65 6.65 0 0 1-6.81-6.45v-32.2a6.65 6.65 0 0 1 6.81-6.45h8.57a34.82 34.82 0 0 1 45.82 0h8.57a6.65 6.65 0 0 1 6.81 6.45v32.15z" fill="#ad6928"/><path d="M414 1009.45L345.36 820c-.57-1.58-7.11-3.26-8.47-2.77L293 833.15c-1.35.49-5.3 6-4.73 7.55l68.64 189.43z" fill="#697236"/><path d="M336.89 817.25l-14.33 5.19L393.07 1017l20.93-7.59L345.36 820c-.57-1.56-7.11-3.24-8.47-2.75z" fill="#606d35"/><path d="M410.36 1006.54a.93.93 0 0 1-.55 1.18.92.92 0 0 1-1.17-.55L342 823.11a.91.91 0 0 1 .54-1.17.92.92 0 0 1 1.18.55zM359.32 1025a.91.91 0 0 1-.55 1.17.92.92 0 0 1-1.17-.55L290.91 841.6a.92.92 0 0 1 .55-1.17.91.91 0 0 1 1.17.55z" fill="#455a2e"/><path d="M354.75 871a3 3 0 0 1-1.82 3.9l-35.84 13a3 3 0 0 1-3.9-1.83L306 866.29a3 3 0 0 1 1.83-3.91l35.83-13a3 3 0 0 1 3.91 1.83z" fill="#c4afa1"/><path d="M1629 1029.13V823c0-1.72-9.59-5.62-12.07-5.62h-80.23c-2.48 0-12.06 3.9-12.06 5.62v206.1z" fill="#c5492b"/><path d="M1616.88 817.41h-26.22v211.72H1629V823c0-1.69-9.65-5.59-12.12-5.59z" fill="#bb4528"/><path d="M1624.44 1025.58c0 .51-.67.93-1.5.93s-1.5-.42-1.5-.93V825c0-.52.67-.94 1.5-.94s1.5.42 1.5.94zM1531.34 1025.58c0 .51-.67.93-1.5.93s-1.5-.42-1.5-.93V825c0-.52.67-.94 1.5-.94s1.5.42 1.5.94z" fill="#9b3723"/><path d="M1613.93 875.86c0 1.72-2.34 3.12-5.23 3.12h-65.37c-2.89 0-5.23-1.4-5.23-3.12v-21.54c0-1.72 2.34-3.12 5.23-3.12h65.37c2.89 0 5.23 1.4 5.23 3.12z" fill="#c4afa1"/><path d="M1529.09 1029.88V810.62c0-1.83-4.75-6-6-6h-39.84c-1.22 0-6 4.14-6 6v219.26z" fill="#697236"/><path d="M1523.18 804.65h-12.86v225.23h18.77V810.62c0-1.83-4.7-5.97-5.91-5.97z" fill="#606d35"/><path d="M1526.84 1025.54a.9.9 0 0 1-.75 1 .9.9 0 0 1-.75-1V812.21c0-.55.34-1 .75-1s.75.45.75 1zM1481 1025.54c0 .55-.33 1-.75 1a.9.9 0 0 1-.75-1V812.21c0-.55.34-1 .75-1 .42 0 .75.45.75 1z" fill="#455a2e"/><path d="M1522.34 865.93c0 1.81-1.16 3.29-2.59 3.29h-32.36c-1.43 0-2.59-1.47-2.59-3.29v-22.7c0-1.82 1.16-3.29 2.59-3.29h32.36c1.43 0 2.59 1.47 2.59 3.29z" fill="#c4afa1"/><path fill="#4c4d51" d="M-1 351.93h1922v27.78H-1z"/><path fill="#414245" d="M1156.7 351.93H1921v27.78h-764.3z"/><path fill="#323335" d="M-1 379.71h1922v14.26H-1zM-1 342.92h1922v14.26H-1z"/><path fill="#292a2b" d="M1070.36 379.71h850.63v14.26h-850.63zM1070.36 342.92h850.63v14.26h-850.63z"/><path fill="#4c4d51" d="M-1 1038.89h1922v27.78H-1z"/><path fill="#414245" d="M1156.7 1038.89H1921v27.78h-764.3z"/><path fill="#323335" d="M-1 1066.67h1922v14.26H-1zM-1 1029.88h1922v14.26H-1z"/><path fill="#292a2b" d="M1070.36 1066.67h850.63v14.26h-850.63zM1070.36 1029.88h850.63v14.26h-850.63z"/><path fill="#4c4d51" d="M-1 695.79h1922v27.78H-1z"/><path fill="#414245" d="M1156.7 695.79H1921v27.78h-764.3z"/><path fill="#323335" d="M-1 722.82h1922v14.26H-1zM-1 686.03h1922v14.26H-1z"/><path fill="#292a2b" d="M1069.61 722.82h850.64v14.26h-850.64zM1069.61 686.03h850.64v14.26h-850.64z"/><path fill="#4c4d51" d="M1638.71-.19h27.78v1081.13h-27.78z"/><path fill="#414245" d="M1638.71-.94h27.78v430.2h-27.78z"/><path fill="#323335" d="M1666.49-.19h14.26v1081.13h-14.26zM1629.7-.19h14.26v1081.13h-14.26z"/><path fill="#292a2b" d="M1666.49-.94h14.26v479h-14.26zM1629.7-.94h14.26v479h-14.26z"/><path fill="#4c4d51" d="M248.26-.19h27.78v1081.13h-27.78z"/><path fill="#414245" d="M248.26-.94h27.78v430.2h-27.78z"/><path fill="#323335" d="M276.04-.19h14.26v1081.13h-14.26zM239.25-.19h14.26v1081.13h-14.26z"/><path fill="#292a2b" d="M276.04-.94h14.26v479h-14.26zM239.25-.94h14.26v479h-14.26z"/><path fill="#4c4d51" d="M-1 8.82h1922V36.6H-1z"/><path fill="#414245" d="M1156.7 8.82H1921V36.6h-764.3z"/><path fill="#323335" d="M-1 35.85h1922v14.26H-1zM-1-.94h1922v14.26H-1z"/><path fill="#292a2b" d="M1070.36 35.85h850.63v14.26h-850.63zM1070.36-.94h850.63v14.26h-850.63z"/><path d="M902.52 949.38l.12.06c2 .89 4 1.72 6.05 2.5h.1q1.53.57 3.09 1.11l.17.06q3.09 1.05 6.3 1.94l.36.1c1 .28 2.12.56 3.19.82h.09c1 .26 2.1.49 3.17.72l.34.07c1 .22 2.12.43 3.19.62l.49.09c2.15.38 4.34.71 6.55 1l.62.07c1.08.13 2.16.24 3.25.34h.32c1 .09 2 .16 3.07.23h.62l3.27.15h4.1c50.53 0 91.5-29.64 91.5-66.2v-1.65-.54l-.06-1.09v-.64l-.09-1c0-.22 0-.45-.08-.67s-.07-.63-.11-.94-.07-.46-.1-.7-.09-.6-.14-.91-.09-.46-.13-.7-.11-.59-.17-.89l-.15-.7c-.06-.3-.13-.59-.2-.89s-.11-.46-.17-.69l-.24-.88-.18-.68-.27-.9c-.07-.22-.14-.43-.2-.65s-.22-.63-.32-1-.13-.39-.21-.58c-.13-.36-.26-.73-.4-1.09-.06-.14-.11-.29-.16-.43-.2-.5-.41-1-.62-1.49-.06-.15-.12-.28-.19-.42-.15-.36-.31-.72-.47-1.07l-.28-.58c-.15-.3-.29-.6-.44-.89s-.21-.42-.32-.63l-.44-.83c-.11-.22-.24-.43-.36-.65l-.44-.79-.39-.66-.46-.76-.41-.66c-.16-.25-.32-.5-.49-.75l-.43-.65-.51-.74c-.14-.21-.3-.43-.45-.64s-.35-.49-.53-.73l-.47-.64c-.18-.24-.37-.48-.56-.71l-.48-.63-.6-.73-.49-.59-.7-.81c-.28-.33-.57-.65-.86-1s-.45-.51-.69-.76l-.6-.63-.6-.63-.64-.64c-.2-.2-.39-.4-.6-.59l-.66-.64-.61-.58-.7-.63-.62-.56c-.23-.21-.48-.42-.72-.62s-.41-.36-.62-.54l-.75-.63-.63-.51-.78-.62-.63-.5-.82-.62-.62-.46-.85-.62-.6-.43-.92-.64-.47-.32c-1.22-.82-2.47-1.63-3.76-2.41l-.38-.23-1.08-.63c-.18-.11-.36-.22-.55-.32l-1.05-.6-.61-.33-1-.57-.64-.33-1.06-.55-.65-.32-1.09-.53-.65-.31-1.11-.52-.65-.29c-.38-.18-.76-.35-1.15-.51l-.62-.27-1.2-.5-.56-.23-1.29-.52-.39-.15c-2.2-.85-4.44-1.63-6.74-2.34l-.32-.11-1.43-.42-.54-.16-1.36-.39-.63-.17-1.34-.35-.67-.17-1.33-.33-.7-.16-1.34-.3-.7-.15-1.36-.28-.69-.14-1.39-.26-.65-.12-1.46-.25-.54-.08-1.59-.25h-.21q-2.93-.42-5.9-.7h-.15C959 827.22 955 827 951 827s-8 .2-11.91.56c-27.53 2.59-51.22 14-65.43 30.25-9 10.24-14.16 22.38-14.16 35.39-.03 23.71 17.17 44.49 43.02 56.18z" fill="#e49648"/><path d="M1012.54 814.83l-.43-.13-10.65 17.73.43.13c49.58 15.58 72.39 57.43 50.85 93.3s-79.4 52.36-129 36.78l-.43-.14-10.48 17.5-.14.23.43.14c10.6 3.33 32.41 6.72 32.41 6.72h-7.2c-2.13 0-3.86 1.21-3.86 2.7v2.74c-7.47 1-12.41 2.63-12.41 4.53 0 1.67 3.86 3.17 9.92 4.16a2.46 2.46 0 0 0-.51 1.45v8.21c0 1.79 2.07 3.24 4.63 3.24h.41s-5.33 1.31-5.33 2.32c0 2 7.9 3.6 17.63 3.6s17.63-1.61 17.63-3.6c0-1-2.05-1.93-5.33-2.32h.47c2.46-.26 4.45-1.7 4.43-3.48v-8.16a2.33 2.33 0 0 0-.47-1.45c5.83-1 9.55-2.47 9.55-4.14 0-1.88-4.76-3.54-12.09-4.5v-2.73a1.87 1.87 0 0 0-.86-1.82c48.39.15 94.64-20.19 115.11-54.28 27.41-45.64-1.62-98.9-64.71-118.73z" fill="#e49648"/><path d="M948.81 1019.79c-64.28 0-116.39 4.52-116.39 10.09h232.78c0-5.57-52.11-10.09-116.39-10.09z" fill="#e49648"/><path d="M1004.29 780l-.37-.16-9 20.66.36.16a82.62 82.62 0 1 1-65.85 151.56l-.36-.16-9 20.65.37.17A105.15 105.15 0 1 0 1004.29 780z" fill="#722b15"/><circle cx="952.4" cy="871.37" r="77.13" fill="#d29658"/><path d="M1004.29 780l-.37-.16-.4.93a105.15 105.15 0 0 1-83.28 191.67l-.12.27.37.17a105.15 105.15 0 1 0 83.8-192.88z" fill="#461d11"/><path d="M962.43 794.89a77.14 77.14 0 0 1-55.77 138.59 77.13 77.13 0 1 0 55.77-138.59z" fill="#ba8044"/><path d="M936.66 804.49c-12.14 1.56-21.43 6.24-32.86 10.92 7.86 10.13 7.14 10.91-.72 22.61-6.42 9.35-6.42 16.37-10 27.28 10 3.12 10 6.24 17.86 13.26 8.58 7 12.15 3.12 21.43-.78 7.86-3.9 15.72-7 23.58-10.92 10.71-5.45 10-6.23 15.72-17.93-16.44-5.46-16.44-49.12-35.72-42.1M999.68 832.87c-3-1-8.5-.5-11.53 1.5-1.21.5-8.5 6.51-8.5 7.51 0 4.5 2.43 3 7.29 5 7.89 4 10.31 5 11.53 13.52a26.19 26.19 0 0 1-1.82 16.52c-3 7-6.07 11-15.79 10.51-4.24 0-18.2-6.51-18.2 2.5 0 3.5 14 11.51 15.17 17.52 1.82 5-1.21 10.51 0 15.51 3 13.52 23.67 1.51 31-5 12.74-11.51-1.83-21.52 0-34 1.82-10 11.53-22.52 10.92-32.53-.61-6.51-18.82-24-26.7-16.52M886.76 886.06c8.5-4 14-4.5 22 0 5.5 3 10.51 6 11 12.52.5 5-2 12-2 17.52 0 3.5 4.5 3 1 6.5-1 1-7 1-8.51.5-7-1.5-10.51-7-15-12-4-4.5-13.51-10.51-14.51-16.52-1.5-12 17.52-16.51 21.52-7" fill="#c1752e"/><path d="M887.21 830.14s14 70.55 128.32 85.54M990 804s-112.57 2-88.73 125.12M995.06 807.12c-.63-.43 25.12 92.33-78.22 132.71" fill="none" stroke="#7f451d" stroke-miterlimit="10" stroke-width="3.003"/><path d="M942.36 794.89s-1.81 13 25.73 35.25 57.66 15.79 56.23 13.32M887.21 912.6s19.73 12.15 63.36 35.88" fill="none" stroke="#7f451d" stroke-miterlimit="10" stroke-width="3.003"/><ellipse cx="950.57" cy="1014.93" rx="14.86" ry="4.2" fill="#461d11"/><path d="M961.5 1011.87h-21.77a3.75 3.75 0 0 1-3.75-3.76v-9.76a3.75 3.75 0 0 1 3.75-3.75h21.77a3.76 3.76 0 0 1 3.76 3.75v9.76a3.76 3.76 0 0 1-3.76 3.76zM959.13 990.09h-17.78a3.12 3.12 0 0 1-3.12-3.12v-3.51a3.13 3.13 0 0 1 3.12-3.13h17.78a3.13 3.13 0 0 1 3.12 3.13V987a3.12 3.12 0 0 1-3.12 3.09z" fill="#722b15"/><path d="M972.72 992.15c0 3.46-9.92 6.26-22.15 6.26s-22.15-2.8-22.15-6.26 9.91-6.25 22.15-6.25 22.15 2.8 22.15 6.25zM950.57 1018.87c-54.18 0-98.1 5.27-98.1 11.77h196.2c0-6.5-43.92-11.77-98.1-11.77z" fill="#461d11"/><path d="M1033.58 586.5a3.38 3.38 0 0 1-3.32 3.43h-57.94a3.37 3.37 0 0 1-3.32-3.43v-29.93a3.37 3.37 0 0 1 3.31-3.43h57.94a3.38 3.38 0 0 1 3.32 3.43z" fill="#c3d4d1" stroke="#452410" stroke-miterlimit="10" stroke-width="3.003"/><path d="M1028.21 588.43h-54.58a3.12 3.12 0 0 1-3.12-3.12v-27.55a3.12 3.12 0 0 1 3.12-3.12h54.58a3.12 3.12 0 0 1 3.11 3.12v27.55a3.12 3.12 0 0 1-3.11 3.12z" fill="#c3d4d1" stroke="#653614" stroke-miterlimit="10" stroke-width="3.003"/><path d="M955.5 586.5a3.38 3.38 0 0 1-3.32 3.43h-57.94a3.37 3.37 0 0 1-3.31-3.43v-29.93a3.37 3.37 0 0 1 3.31-3.43h57.94a3.38 3.38 0 0 1 3.32 3.43z" fill="#c3d4d1" stroke="#452410" stroke-miterlimit="10" stroke-width="3.003"/><path d="M950.13 588.43h-54.58a3.12 3.12 0 0 1-3.12-3.12v-27.55a3.12 3.12 0 0 1 3.12-3.12h54.58a3.12 3.12 0 0 1 3.11 3.12v27.55a3.12 3.12 0 0 1-3.11 3.12z" fill="#c3d4d1" stroke="#653614" stroke-miterlimit="10" stroke-width="3.003"/><path d="M953.46 568.09s7.28-9.68 17.3 1" fill="none" stroke="#653614" stroke-miterlimit="10" stroke-width="3.003"/><path fill="#fff" d="M998.4 586.92l-20.22-.34 16.37-30.44 20.22.34-16.37 30.44zM915.81 586.92l-20.22-.34 16.36-30.44 20.22.34-16.36 30.44z"/><path fill="#617672" d="M972.01 571.16h57.81v5.26h-57.81z"/><path d="M1001.32 571.75s14 2.42 14.93 15.17h-6.57s1.5-7-8.45-13.28M893.93 571.16h57.81v5.26h-57.81z" fill="#617672"/><path fill="#452410" d="M956.25 571.16h11.26v5.26h-11.26z"/><path d="M923.06 571.75s-14 2.42-14.92 15.17h6.57s-1.51-7 8.44-13.28" fill="#617672"/><path d="M1570.31 198.82a61.44 61.44 0 0 0-10.39-1.06c5.09 9.9-.07 22.31-8.78 29.16-11.78 9.25-25.76 6.33-39.22 6.58-2.76.05-6.78.45-10.28-.09a72.16 72.16 0 0 0-7.24 20.52c-7.09 37.09 15.4 72.56 50.23 79.21s68.82-18 75.91-55.1-15.4-72.56-50.23-79.22z" fill="#c3985e"/><path d="M1610.72 267.25c-2.74-53.15-50-70.25-50-70.25l-3 15.51c-35.2-6.73-68.87 14.67-75.2 47.79s17.07 65.42 52.27 72.15 68.87-14.67 75.2-47.79a57.74 57.74 0 0 0 .73-17.41z" fill="#f6e2c6"/><path d="M1513.6 279.07c1.16 13.09 16.57 23.11 28.9 23.11 7.31 0 17.72-3.85 23.88-7.32 8.09-5.39 10.4-15 11.17-23.88.77-9.63 1.54-22.34-3.08-31.21-1.16 9.25 1.92 16.18-1.16 25-3.08 8.48-9.63 18.5-17.33 23.12-11.56 6.55-40.06 10.4-43.92-7.71" fill="#cfb591"/><path d="M1540.57 266.36c-1.54 5.77 10 5 13.1 2.69 11.17-7.7-.39-19.64-6.94-25.42 1.93 5 7.71 10 5.78 16.56-1.54 4.24-7.7 7.71-11.94 9.25M1551.7 333c7.32 2.31 20.42-6.94 26.58-10 9.24-5 14.25-13.87 19.65-22.34 10.78-17.33 11.17-40.06 4.62-58.94-1.16-3.08-2.31-6.16-5-8.86-.38 10.4 6.55 20 4.62 30.82a118.92 118.92 0 0 1-7.7 27.73c-8.09 16.18-27.35 37.76-45.07 42.38" fill="#cfb591"/><path d="M1558.67 214a15.2 15.2 0 0 0 2.26 1.7c.73.56 1.61 1.29 2.64 2.14.49.46 1 1 1.59 1.48s1.1 1.16 1.7 1.78a43.37 43.37 0 0 1 7 10.52 57.37 57.37 0 0 1 2.85 7.38 72.83 72.83 0 0 1 2 8.65 95.69 95.69 0 0 1 1 9.73 60.11 60.11 0 0 1-.09 10.55 36.1 36.1 0 0 1-2.89 10.74 94.12 94.12 0 0 1-5.8 10.52 34.44 34.44 0 0 1-8.27 9.18c-.43.28-.84.62-1.3.86l-1.36.77-1.43.61a12.83 12.83 0 0 1-1.49.46 11.87 11.87 0 0 1-1.56.37c-.54.12-1.08.21-1.63.3-1.08.19-2.18.35-3.29.47a53.6 53.6 0 0 1-13.51-.06 32.66 32.66 0 0 1-12.92-4.47 21.78 21.78 0 0 1-8.61-10.22 32.37 32.37 0 0 1-2.12-13.13 48.81 48.81 0 0 1 2-12.85 39.67 39.67 0 0 1 5.27-11.25 26.43 26.43 0 0 1 8.43-8 22.5 22.5 0 0 1 5.14-2.2 25.39 25.39 0 0 1 5.36-.87 17.64 17.64 0 0 1 5.13.61c.41.12.81.27 1.22.4l.61.19.58.25 1.16.5 1.11.58a24.81 24.81 0 0 1 7.39 6 16 16 0 0 1 3.7 7.65 14.62 14.62 0 0 1-.71 7.56 12.22 12.22 0 0 1-3.91 5.31 11 11 0 0 1-5.12 2.16 11.11 11.11 0 0 1-4.48-.33 12.51 12.51 0 0 1-3.08-1.32c-1.58-.93-2.29-1.61-2.36-1.53s.14.21.48.54a6.14 6.14 0 0 0 .67.6 8.21 8.21 0 0 0 1 .74 12.37 12.37 0 0 0 3.12 1.56 11.75 11.75 0 0 0 4.75.53 11.61 11.61 0 0 0 5.62-2.17 13.12 13.12 0 0 0 4.38-5.67 15.62 15.62 0 0 0 .93-8.17 17.06 17.06 0 0 0-3.86-8.37 26.07 26.07 0 0 0-7.75-6.48l-1.18-.63-1.23-.55-.63-.27-.64-.22c-.44-.15-.87-.31-1.32-.44a19.11 19.11 0 0 0-5.64-.73 26.8 26.8 0 0 0-5.76.88 23.82 23.82 0 0 0-5.56 2.32 28.27 28.27 0 0 0-9.09 8.52 41.48 41.48 0 0 0-5.58 11.76 50.67 50.67 0 0 0-2.17 13.38 42.36 42.36 0 0 0 .37 7 29 29 0 0 0 1.87 6.94 23.77 23.77 0 0 0 9.39 11.18 34.59 34.59 0 0 0 13.74 4.75 54.92 54.92 0 0 0 14 0c1.14-.13 2.27-.3 3.39-.5.56-.09 1.12-.19 1.68-.31a22.6 22.6 0 0 0 3.36-.94l1.61-.69 1.5-.85c.51-.28.95-.64 1.42-1a35.7 35.7 0 0 0 8.7-9.73 92.75 92.75 0 0 0 5.86-10.79 37.59 37.59 0 0 0 2.94-11.32 60.19 60.19 0 0 0 0-10.83 93 93 0 0 0-1.2-9.88 71 71 0 0 0-2.19-8.79 56.27 56.27 0 0 0-3.06-7.48 42.65 42.65 0 0 0-7.43-10.57c-.64-.61-1.19-1.25-1.8-1.75l-1.68-1.43c-1.09-.82-2-1.5-2.8-2a14.48 14.48 0 0 0-2.42-1.33z" fill="#c3985e"/><path d="M1557.15 273.33c-.3.22-1 .11-1.73-.41a7.52 7.52 0 0 1-2.22-2.51 11.5 11.5 0 0 1-1.15-3.14c-.18-.86-.22-1.4-.07-1.45.32-.1 1.34 1.56 2.9 3.45s2.9 3.53 2.27 4.06zM1565.87 255.76c.08.32-.32.83-1.06 1.29a9 9 0 0 1-3.15 1.09 11.2 11.2 0 0 1-3.35 0c-.86-.14-1.4-.34-1.38-.53 0-.41 1.93-.81 4.3-1.44a25.69 25.69 0 0 1 3.12-.73c.83-.13 1.43-.02 1.52.32zM1556.17 239.67c.61.25.27 2.48-1.06 4.68s-3.22 3.52-3.51 3.22.63-2.07 1.73-4.22 2.22-3.97 2.84-3.68zM1538.67 233.81c.32-.09.76.29 1.24 1.06A8.65 8.65 0 0 1 1541 238a11.14 11.14 0 0 1 0 3.35c-.15.86-.33 1.4-.52 1.38s-.38-.53-.62-1.3-.51-1.84-.81-3c-.69-2.36-1.05-4.43-.38-4.62zM1521.9 240.79c.37-.54 2.49.21 4.38 1.94s2.83 3.83 2.49 4.07-1.9-1-3.8-2.52-3.48-2.94-3.07-3.49zM1511.92 255.19c.12-.6 2.26-.85 4.77-.22s4.3 2 4.1 2.44-2.17 0-4.56-.46-4.41-1.13-4.31-1.76zM1508.1 271.72c-.09-.6 1.85-1.5 4.44-1.72s4.74.54 4.66 1-2 .75-4.46 1-4.55.34-4.64-.28zM1510.29 289c-.38-.55 1-2.27 3.32-3.48s4.57-1.37 4.66-1-1.59 1.44-3.65 2.73-3.95 2.35-4.33 1.75zM1522.16 302.87c-.62-.21-.61-2.4.46-4.78s2.75-3.9 3.06-3.64-.34 2.1-1.18 4.4-1.7 4.25-2.34 4.02zM1538.87 307.87c-.6.07-1.47-1.88-1.63-4.48s.64-4.72 1.09-4.63.7 2 .94 4.48.22 4.54-.4 4.63zM1555.61 307c-.54.22-1.89-1.42-2.77-3.87s-.71-4.72-.23-4.76 1.26 1.77 2.14 4.06 1.43 4.32.86 4.57zM1571.3 297.78c-.31.54-2.4.13-4.59-1.32s-3.38-3.36-3.06-3.64 2 .67 4.14 1.91 3.84 2.48 3.51 3.05zM1580.29 283.72c-.13.56-2.25.61-4.74-.12s-4.22-2.21-4-2.65 2.19 0 4.54.7 4.33 1.5 4.2 2.07zM1585.1 267.2c.07.61-1.88 1.51-4.46 1.69s-4.73-.62-4.65-1.07 2-.7 4.47-1 4.54-.26 4.64.38zM1584.44 250.74c.2.55-1.53 1.78-4 2.53s-4.74.46-4.77 0 1.84-1.17 4.17-1.91 4.4-1.2 4.6-.62zM1580.63 234.59c.34.49-1.1 2.12-3.35 3.39s-4.53 1.49-4.65 1 1.56-1.55 3.65-2.79 4-2.13 4.35-1.6zM1572.24 219.77c.48.38-.27 2.36-2 4.31s-3.83 2.85-4.07 2.46 1-1.91 2.53-3.79 3.03-3.38 3.54-2.98z" fill="#c3985e"/><path d="M1508.21 230.15c.39 2.31-6.55 8.86-8.47 11.55-2.32 3.47-9.64 17.34-6.17 22 3.47 3.85 3.47-5 3.85-6.55a50.31 50.31 0 0 1 3.86-9.63c1.54-3.47 12.71-14.25 7.32-15.79" fill="#fff"/><path d="M1593.25 313.44a7.12 7.12 0 0 0-3.15-13.3 7 7 0 0 0-7.14 7.09 7.11 7.11 0 0 0 3.6 6.21 5.79 5.79 0 0 0-2.66 4.88v19.57a5.78 5.78 0 0 0 5.78 5.78h.45a5.78 5.78 0 0 0 5.78-5.78v-19.57a5.79 5.79 0 0 0-2.66-4.88z" fill="#845121"/><path d="M1593.2 313.21a7.08 7.08 0 0 0-3-13.27 10.26 10.26 0 0 1 1.83 3.35c1.22 3.43-1.31 6-3.11 8.56 3.91 2.68 5.41 8.83 5.55 13.21a84.8 84.8 0 0 1-1.12 17.37 5.77 5.77 0 0 0 2.51-4.76V318.1a5.78 5.78 0 0 0-2.66-4.89z" fill="#6d3d18"/><path d="M1589.6 305.1a2.52 2.52 0 1 1-2.52-2.52 2.52 2.52 0 0 1 2.52 2.52zM1587.65 327.19a1.5 1.5 0 0 1-1.5 1.5 1.5 1.5 0 0 1-1.5-1.5v-8.06a1.5 1.5 0 0 1 1.5-1.5 1.5 1.5 0 0 1 1.5 1.5z" fill="#b76228"/><path d="M1506.91 313.44a7.12 7.12 0 0 0-3.15-13.3 7 7 0 0 0-7.15 7.09 7.12 7.12 0 0 0 3.61 6.21 5.79 5.79 0 0 0-2.66 4.88v19.57a5.78 5.78 0 0 0 5.78 5.78h.45a5.78 5.78 0 0 0 5.78-5.78v-19.57a5.77 5.77 0 0 0-2.66-4.88z" fill="#845121"/><path d="M1506.86 313.21a7.08 7.08 0 0 0-2.94-13.27 10.65 10.65 0 0 1 1.83 3.35c1.21 3.43-1.32 6-3.12 8.56 3.91 2.68 5.41 8.83 5.55 13.21a84.8 84.8 0 0 1-1.12 17.37 5.77 5.77 0 0 0 2.51-4.76V318.1a5.78 5.78 0 0 0-2.71-4.89z" fill="#6d3d18"/><circle cx="1500.39" cy="305.1" r="2.52" fill="#b76228"/><path d="M1501.31 327.19a1.5 1.5 0 0 1-1.5 1.5 1.5 1.5 0 0 1-1.5-1.5v-8.06a1.5 1.5 0 0 1 1.5-1.5 1.5 1.5 0 0 1 1.5 1.5z" fill="#b76228"/><path d="M1755.83 1029.88V782.12c0-2.07-6.9-6.75-8.68-6.75h-57.72c-1.78 0-8.68 4.68-8.68 6.75v247.76z" fill="#6e6a72"/><path d="M1747.07 775.37h-19v254.51h27.78V782.12c-.02-2.07-6.98-6.75-8.78-6.75z" fill="#66666b"/><path d="M1752.82 1024.91a1.12 1.12 0 0 1-1.12 1.12 1.13 1.13 0 0 1-1.13-1.12v-241a1.13 1.13 0 0 1 1.13-1.13 1.12 1.12 0 0 1 1.12 1.13zM1686 1024.91a1.13 1.13 0 0 1-1.13 1.12 1.13 1.13 0 0 1-1.13-1.12v-241a1.13 1.13 0 0 1 1.13-1.13 1.13 1.13 0 0 1 1.13 1.13z" fill="#4c555e"/><path d="M1741.56 849h-47.3a3.75 3.75 0 0 1-3.75-3.76v-26.32a3.75 3.75 0 0 1 3.75-3.76h47.3a3.76 3.76 0 0 1 3.76 3.76v26.27a3.76 3.76 0 0 1-3.76 3.81z" fill="#c4afa1"/><path d="M1813.64 1029.88v-206.1c0-1.72-5.31-5.62-6.68-5.62h-44.45c-1.37 0-6.68 3.9-6.68 5.62v206.1z" fill="#c5492b"/><path d="M1807 818.16h-14.39v211.72h21v-206.1c.03-1.72-5.24-5.62-6.61-5.62z" fill="#bb4528"/><path d="M1811.39 1025.73a.88.88 0 0 1-.85.93.67.67 0 0 1-.66-.93v-200.6a.67.67 0 0 1 .66-.94.88.88 0 0 1 .85.94zM1759.58 1025.73a.88.88 0 0 1-.85.93.65.65 0 0 1-.65-.93v-200.6a.66.66 0 0 1 .65-.94.88.88 0 0 1 .85.94z" fill="#9b3723"/><path d="M1805.38 875.86a3 3 0 0 1-2.9 3.12h-36.24a3 3 0 0 1-2.9-3.12v-21.54a3 3 0 0 1 2.9-3.12h36.24a3 3 0 0 1 2.9 3.12z" fill="#c4afa1"/><path d="M1920.25 800.15h-91.34c-3.6 0-17.52 4.22-17.52 6.09v223.64h108.86z" fill="#6e6a72"/><path fill="#66666b" d="M1907.49 800.15h12.76v229.74h-12.76z"/><path d="M1821.9 1025.38c0 .56-1 1-2.26 1-1.24 0-2.25-.46-2.25-1V807.89c0-.56 1-1 2.25-1s2.26.46 2.26 1z" fill="#4c555e"/><path d="M1921 836.18h-81.7c-4.22 0-7.64 1.51-7.64 3.38v23.28c0 1.86 3.42 3.37 7.64 3.37h81.7z" fill="#c4afa1"/><path d="M240.75 1029.88V786.5c0-2-7.65-6.63-9.63-6.63h-64.07c-2 0-9.64 4.6-9.64 6.63v243.38z" fill="#c5492b"/><path d="M231.05 779.87H210v250h30.78V786.5c-.03-2.03-7.78-6.63-9.73-6.63z" fill="#bb4528"/><path d="M237 1024.85c.34.61-.22 1.11-.92 1.11a1.32 1.32 0 0 1-1.33-1.11V788.59a1.32 1.32 0 0 1 1.33-1.1c.7 0 1.26.5.92 1.1zM162.67 1024.85a1.14 1.14 0 0 1-1.22 1.11c-.7 0-1.26-.5-1-1.11V788.59c-.23-.6.33-1.1 1-1.1a1.14 1.14 0 0 1 1.22 1.1z" fill="#9b3723"/><path d="M228.74 848.24a4 4 0 0 1-4.19 3.71h-52.43a4 4 0 0 1-4.19-3.71v-25.61a4 4 0 0 1 4.19-3.71h52.43a4 4 0 0 1 4.19 3.71z" fill="#c4afa1"/><path d="M154.41 1029.88v-212c0-1.77-4.14-5.77-5.2-5.77h-34.64c-1.07 0-5.21 4-5.21 5.77v212z" fill="#6e6a72"/><path d="M149.2 812.16h-11.31v217.72h16.52v-212c0-1.72-4.14-5.72-5.21-5.72z" fill="#66666b"/><path d="M152.91 1025.47c0 .53-.33 1-.7 1-.38 0-.68-.43-.8-1V819.66c.12-.53.42-1 .8-1 .37 0 .68.43.7 1zM112.37 1025.47c.23.53-.08 1-.45 1-.38 0-.68-.43-1-1V819.66c.37-.53.67-1 1-1 .37 0 .68.43.45 1z" fill="#4c555e"/><path d="M148.41 871.27c0 1.77-1 3.2-2.28 3.2h-28.48c-1.26 0-2.28-1.43-2.28-3.2v-22.12c0-1.77 1-3.21 2.28-3.21h28.48c1.26 0 2.28 1.44 2.28 3.21z" fill="#c4afa1"/><path d="M106.36 1029.13V809.87c0-1.83-6.69-6-8.41-6H42c-1.73 0-8.41 4.14-8.41 6v219.26z" fill="#697236"/><path d="M98.6 803.9H80.08v225.23h27V809.87c.03-1.87-6.74-5.97-8.48-5.97z" fill="#606d35"/><path d="M104.11 1025.32a1.06 1.06 0 0 1-1.13 1 1.06 1.06 0 0 1-1.12-1V812a1.07 1.07 0 0 1 1.12-1 1.07 1.07 0 0 1 1.13 1zM38.79 1025.32a1.06 1.06 0 0 1-1.12 1 1.06 1.06 0 0 1-1.13-1V812a1.07 1.07 0 0 1 1.13-1 1.07 1.07 0 0 1 1.12 1z" fill="#455a2e"/><path d="M96.6 865.93a3.5 3.5 0 0 1-3.67 3.29H47a3.49 3.49 0 0 1-3.67-3.29v-22.7a3.49 3.49 0 0 1 3.67-3.29h46a3.49 3.49 0 0 1 3.67 3.29z" fill="#c4afa1"/><path d="M1806.17 665.06l-68.63-189.43c-.58-1.59-7.12-3.26-8.47-2.77l-43.88 15.9c-1.36.49-5.3 6-4.73 7.55l68.64 189.43z" fill="#697236"/><path d="M1729.07 472.86l-14.33 5.19 70.5 194.59 20.93-7.58-68.63-189.43c-.54-1.63-7.12-3.26-8.47-2.77z" fill="#606d35"/><path d="M1802.53 662.15a.91.91 0 0 1-.55 1.17.91.91 0 0 1-1.17-.55l-66.69-184a.92.92 0 0 1 .55-1.18.92.92 0 0 1 1.17.55zM1751.49 680.64a.9.9 0 0 1-.54 1.17.92.92 0 0 1-1.18-.55l-66.68-184a.9.9 0 0 1 .54-1.17.92.92 0 0 1 1.18.54z" fill="#455a2e"/><path d="M1746.93 526.61a3 3 0 0 1-1.83 3.91l-35.83 13a3 3 0 0 1-3.91-1.83l-7.17-19.78A3 3 0 0 1 1700 518l35.84-13a3 3 0 0 1 3.9 1.83z" fill="#c4afa1"/><path d="M1858 669l-60.43-172.5c-.5-1.45-5.65-3.3-6.68-2.94l-33.55 11.74c-1 .36-3.9 5-3.4 6.46l60.39 172.55z" fill="#6e6a72"/><path d="M1790.89 493.56l-11 3.83 62 177.25 16-5.6-60.32-172.54c-.5-1.45-5.65-3.3-6.68-2.94z" fill="#66666b"/><path d="M1855 666.25a.77.77 0 0 1-.39 1 .77.77 0 0 1-.93-.55L1795 499.06a.78.78 0 0 1 .38-1 .77.77 0 0 1 .93.56zM1816 679.9a.77.77 0 0 1-.38 1 .77.77 0 0 1-.93-.55L1756 512.71a.77.77 0 0 1 .38-1 .77.77 0 0 1 .93.55z" fill="#4c555e"/><path d="M1806.76 542.44a2.56 2.56 0 0 1-1.27 3.37l-27.4 9.59a2.57 2.57 0 0 1-3.1-1.84l-6.31-18a2.58 2.58 0 0 1 1.28-3.38l27.39-9.59a2.59 2.59 0 0 1 3.11 1.85z" fill="#c4afa1"/><path fill="#6e6a72" d="M-.25 268.59h238v75.08h-238z"/><path fill="#66666b" d="M-.25 268.59h238v27.78h-238z"/><path d="M233 271.6H-.25v2.25H233a1.13 1.13 0 1 0 0-2.25zM233 338.42H-.25v2.25H233a1.13 1.13 0 1 0 0-2.25z" fill="#4c555e"/><path d="M56.81 282.86v47.3a3.75 3.75 0 0 1-3.75 3.75H26.78a3.76 3.76 0 0 1-3.78-3.75v-47.3a3.76 3.76 0 0 1 3.76-3.76h26.3a3.75 3.75 0 0 1 3.75 3.76z" fill="#c4afa1"/><path d="M237.75 210H31.64c-1.72 0-5.61 5.31-5.61 6.68v44.45c0 1.37 3.89 6.68 5.61 6.68h206.11z" fill="#c5492b"/><path d="M26 216.66v14.39h211.75V210H31.64c-1.72 0-5.64 5.3-5.64 6.66z" fill="#bb4528"/><path d="M233.71 213c.52-.47.94-.08.94.4a1.35 1.35 0 0 1-.94 1.11H33.12a1.35 1.35 0 0 1-.94-1.11c0-.48.42-.87.94-.4zM233.71 264.84c.52-.47.94-.07.94.41a1.33 1.33 0 0 1-.94 1.09H33.12a1.33 1.33 0 0 1-.94-1.09c0-.48.42-.88.94-.41z" fill="#9b3723"/><path d="M83.72 218.29a3 3 0 0 1 3.12 2.9v36.24a3 3 0 0 1-3.12 2.9H62.18a3 3 0 0 1-3.12-2.9v-36.24a3 3 0 0 1 3.12-2.9z" fill="#c4afa1"/><path d="M.5 685.28h231c1.93 0 6.29-6.42 6.29-8.07v-53.69c0-1.65-4.36-8.07-6.29-8.07H.5z" fill="#c5492b"/><path d="M237.75 677.23v-17.48H.5v25.53h231c1.89 0 6.25-6.4 6.25-8.05z" fill="#bb4528"/><path d="M4.62 683a1.09 1.09 0 0 1-1.05-1.12 1.09 1.09 0 0 1 1.05-1.13h224.61a1.09 1.09 0 0 1 1.05 1.13 1.09 1.09 0 0 1-1.05 1.12zM4.62 620a1.09 1.09 0 0 1-1.05-1.13 1.09 1.09 0 0 1 1.05-1.12h224.61a1.09 1.09 0 0 1 1.05 1.12 1.09 1.09 0 0 1-1.05 1.13z" fill="#9b3723"/><path d="M172.88 675.52a3.49 3.49 0 0 1-3.45-3.52v-44a3.49 3.49 0 0 1 3.45-3.52h23.87a3.49 3.49 0 0 1 3.46 3.52v44a3.49 3.49 0 0 1-3.46 3.52z" fill="#c4afa1"/><path d="M70.91 573.9l102.91-149.7c.86-1.26 8.83-.31 10.39.66l50.41 31.59c1.56 1 5.63 7.57 4.77 8.82L136.48 615z" fill="#697236"/><path d="M184.21 424.86l16.46 10.32L95 589l-24-15.06L173.82 424.2c.86-1.26 8.83-.31 10.39.66z" fill="#606d35"/><path d="M75.57 572.6c-.26.37 0 .95.52 1.29a1.09 1.09 0 0 0 1.46-.06l100-145.46c.26-.37 0-.95-.52-1.3a1.11 1.11 0 0 0-1.46.06zM134.2 609.32c-.26.38 0 1 .52 1.3a1.11 1.11 0 0 0 1.46-.06l100-145.46c.26-.38 0-1-.52-1.3a1.1 1.1 0 0 0-1.46.06z" fill="#455a2e"/><path d="M156.93 468c-.86 1.25-.09 3.19 1.73 4.33l41.17 25.79c1.82 1.13 4 1 4.85-.21l10.75-15.63c.86-1.25.08-3.19-1.74-4.33l-41.17-25.79c-1.82-1.14-4-1.05-4.85.21z" fill="#c4afa1"/><path d="M1740.06 342.17V107.56c0-2-5.31-6.39-6.68-6.39h-44.45c-1.37 0-6.68 4.43-6.68 6.39v234.61z" fill="#c5492b"/><path d="M1733.44 101.17H1719v241h21V107.56c.06-1.96-5.2-6.39-6.56-6.39z" fill="#bb4528"/><path d="M1737.06 337.6c.47.58.08 1.06-.4 1.06-.49 0-.88-.48-1.1-1.06V109.72c.22-.59.61-1.07 1.1-1.07.48 0 .87.48.4 1.07zM1685.25 337.6c.47.58.07 1.06-.41 1.06s-.87-.48-1.09-1.06V109.72c.22-.59.61-1.07 1.09-1.07.48 0 .88.48.41 1.07z" fill="#9b3723"/><path d="M1731.8 167.45c0 2-1.3 3.54-2.9 3.54h-36.24c-1.6 0-2.9-1.58-2.9-3.54V143c0-1.95 1.3-3.54 2.9-3.54h36.24c1.6 0 2.9 1.58 2.9 3.54z" fill="#c4afa1"/><path d="M1812.89 343.67V149.26c0-1.63-6.69-5.3-8.42-5.3h-56c-1.73 0-8.42 3.67-8.42 5.3v194.41z" fill="#697236"/><path d="M1804.37 144h-18.51v199.67h27V149.26c.03-1.63-6.74-5.26-8.49-5.26z" fill="#606d35"/><path d="M1809.88 339.59a1 1 0 0 1-1.12.88 1 1 0 0 1-1.13-.88V150.8a1 1 0 0 1 1.13-.88 1 1 0 0 1 1.12.88zM1744.57 339.59a1 1 0 0 1-1.13.88 1 1 0 0 1-1.13-.88V150.8a1 1 0 0 1 1.13-.88 1 1 0 0 1 1.13.88z" fill="#455a2e"/><path d="M1803.13 198.82c0 1.63-1.65 3-3.68 3h-46c-2 0-3.68-1.32-3.68-3v-20.37c0-1.63 1.65-2.95 3.68-2.95h46c2 0 3.68 1.32 3.68 2.95z" fill="#c4afa1"/><path d="M1917.23 326.68l-60.39-172.54c-.5-1.45-5.65-3.3-6.68-2.94l-33.55 11.74c-1 .36-3.9 5-3.39 6.46L1873.6 342z" fill="#6e6a72"/><path d="M1850.16 151.2l-11 3.83 62 177.25 16-5.6-60.39-172.55c-.43-1.44-5.58-3.29-6.61-2.93z" fill="#66666b"/><path d="M1914.29 323.89a.77.77 0 0 1-.39 1 .77.77 0 0 1-.93-.55L1854.3 156.7a.78.78 0 0 1 .38-1 .79.79 0 0 1 .94.56zM1875.27 337.54a.76.76 0 0 1-.38 1 .77.77 0 0 1-.93-.55l-58.67-167.65a.77.77 0 0 1 .38-1 .76.76 0 0 1 .93.55z" fill="#4c555e"/><path d="M1866 200.08a2.56 2.56 0 0 1-1.27 3.37l-27.4 9.59a2.57 2.57 0 0 1-3.1-1.84l-6.31-18a2.58 2.58 0 0 1 1.28-3.38l27.39-9.59a2.58 2.58 0 0 1 3.11 1.85z" fill="#c4afa1"/></svg>
