<svg data-name="Capa 1" xmlns="http://www.w3.org/2000/svg" viewBox="0 0 1920 1080"><path fill="#362b1b" d="M.25 896.13h1923.5v187.09H.25z"/><path fill="#482619" d="M240.69 1.25h1442.62v241.19H240.69z"/><path fill="#38170e" d="M675.73 1.25h572.54v87.16H675.73z"/><path fill="#512615" d="M699.77 1.25h524.45v96.17H699.77z"/><path d="M1205.44 1.25v57.24c0 1.17-1.68 2.12-3.76 2.12H721.56c-2.07 0-3.75-1-3.75-2.12V1.25M962 1.25v97.68" fill="none" stroke="#38170e" stroke-miterlimit="10" stroke-width="4.508"/><path d="M1683.31 1.25h-242.8c9.18 13.46 14 27.52 14 42 0 97.38-220.58 176.31-492.69 176.31S469.19 140.61 469.19 43.23c0-14.46 4.86-28.52 14.05-42H.25v250.23h253.21v-9.77h1417.08v9.77h253.21V1.25z" fill="#351c12"/><path fill="#483924" d="M.25 83.9h1923.5v812.23H.25z"/><path d="M1.58 143.43c158 0 286 175.18 286 391.28 0 162.89-72.77 302.53-176.26 361.42h1705.17C1713 837.24 1640.23 697.6 1640.23 534.71c0-215 126.7-389.41 283.52-391.26V83.9H.25v59.54z" fill="#362b1b"/><path d="M1324.16.5v90.72a5 5 0 0 0 2.36 1h57.64a5 5 0 0 0 2.36-1V.5z" fill="#5c2d09"/><path fill="#4e2605" d="M1327.92.5h56.35v91.67h-56.35z"/><path fill="#3c1a00" d="M1324.16.5h31.56v91.67h-31.56z"/><path d="M527.71.5v90.72a5 5 0 0 0 2.36 1h57.64a4.9 4.9 0 0 0 2.36-1V.5z" fill="#5c2d09"/><path fill="#4e2605" d="M531.47.5h56.35v91.67h-56.35z"/><path fill="#3c1a00" d="M527.71.5h31.56v91.67h-31.56z"/><path fill="#5c2d09" d="M1435.36.5h39.07v181.83h-39.07z"/><path fill="#3c1a00" d="M1454.9.5h19.54v181.83h-19.54z"/><path d="M1485.7 286.58a5 5 0 0 1-2.36.94h-57.64a5 5 0 0 1-2.36-.94V183c0-2.71 4-17.91 5.16-17.91h52c1.17 0 5.16 15.2 5.16 17.91v103.58z" fill="#5c2d09"/><path d="M1445.88.5v141.25a1.83 1.83 0 0 1-1.13 1.73 1.88 1.88 0 0 1-2.63-1.63V.5z" fill="#3c1a00"/><path fill="#4e2605" d="M1426.34 181.58h56.35v105.94h-56.35z"/><path fill="#3c1a00" d="M1454.14 181.58h31.56v105.94h-31.56z"/><path fill="#6d3815" d="M1515.01 144.01h45.83v268.24h-45.83z"/><path fill="#4d280f" d="M1538.3 144.01h22.54v268.24h-22.54z"/><path fill="#4d280f" d="M1515.01 144.01h45.83v25.55h-45.83z"/><path d="M1575.11 540.32c0-.14-1.24 1.16-2.78 1.16h-68.06c-1.54 0-2.79-1.3-2.79-1.16V412.55c0-3.35 4.71-22.09 6.1-22.09H1569c1.39 0 6.09 18.74 6.09 22.09v127.77zM1575.87 148.09c0 3.14-9.35 5.69-20.87 5.69h-33.4c-11.53 0-20.87-2.55-20.87-5.69v-8.91c0-3.14 9.34-5.69 20.87-5.69h33.4c11.52 0 20.87 2.55 20.87 5.69z" fill="#6d3815"/><path d="M1555 133.49h-3.22v20.29h3.22c11.5 0 20.83-2.55 20.83-5.69v-8.91c.04-3.18-9.29-5.69-20.83-5.69zM1575.11 132.93c0 .31-1.24.56-2.78.56h-68.06c-1.54 0-2.79-.25-2.79-.56v-28.18c0-.31 1.25-.56 2.79-.56h68.06c1.54 0 2.78.25 2.78.56zM1527.78 362.07a2.22 2.22 0 0 1-2.25 2.18 2.22 2.22 0 0 1-2.26-2.18V165.21a2.22 2.22 0 0 1 2.26-2.18 2.22 2.22 0 0 1 2.25 2.18z" fill="#4d280f"/><path fill="#5f3112" d="M1504.49 411.5h66.87v129.99h-66.87z"/><path fill="#4d280f" d="M1537.55 411.5h37.57v129.99h-37.57z"/><path fill="#773e1a" d="M1814.8 713.55h50.34v284.77h-50.34z"/><path fill="#562e16" d="M1840.35 713.55h25.55v284.77h-25.55z"/><path fill="#562e16" d="M1814.8 713.55h50.34v27.05h-50.34z"/><path d="M1799.77 1084.72v-86.17c0-3.56 5.19-23.53 6.72-23.53h67.71c1.53 0 6.72 20 6.72 23.53v86.17zM1881.67 718.7c0 3.38-10.37 6.12-23.16 6.12h-37.07c-12.8 0-23.17-2.74-23.17-6.12v-9.56c0-3.38 10.37-6.11 23.17-6.11h37.07c12.79 0 23.16 2.73 23.16 6.11z" fill="#773e1a"/><path d="M1859 703h-3.63v21.79h3.63c12.94 0 23.42-2.74 23.42-6.12v-9.56c0-3.35-10.48-6.11-23.42-6.11zM1880.92 701.67c0 .33-1.37.61-3.07.61h-75c-1.7 0-3.08-.28-3.08-.61v-30.34c0-.34 1.38-.61 3.08-.61h75c1.7 0 3.07.27 3.07.61zM1828.33 945.28a2.28 2.28 0 0 1-2.26 2.31 2.28 2.28 0 0 1-2.25-2.31v-209a2.29 2.29 0 0 1 2.25-2.32 2.29 2.29 0 0 1 2.26 2.32z" fill="#562e16"/><path fill="#683718" d="M1802.78 997.56h73.63v87.16h-73.63z"/><path fill="#562e16" d="M1839.6 997.56h41.33v87.16h-41.33z"/><path fill="#773e1a" d="M1709.61 502.41h50.34v284.77h-50.34z"/><path fill="#562e16" d="M1735.16 502.41h25.55v284.77h-25.55z"/><path fill="#562e16" d="M1709.61 501.66h50.34v27.05h-50.34z"/><path d="M1775.73 922.69c0-.15-1.38 1.24-3.07 1.24h-75c-1.7 0-3.08-1.39-3.08-1.24v-136c0-3.56 5.19-23.51 6.72-23.51h67.7c1.53 0 6.72 20 6.72 23.51zM1776.48 506.82c0 3.37-10.37 6.11-23.16 6.11h-37.08c-12.79 0-23.16-2.74-23.16-6.11v-9.56c0-3.38 10.37-6.12 23.16-6.12h37.08c12.79 0 23.16 2.74 23.16 6.12z" fill="#773e1a"/><path d="M1753.81 491.14h-3.63v21.79h3.63c12.93 0 23.42-2.74 23.42-6.11v-9.56c0-3.38-10.48-6.12-23.42-6.12z" fill="#562e16"/><path d="M1775.73 490.53c0 .34-1.38.61-3.07.61h-75c-1.7 0-3.08-.27-3.08-.61v-30.34c0-.33 1.38-.61 3.08-.61h75c1.7 0 3.07.28 3.07.61zM1723.13 733.69a2.28 2.28 0 0 1-2.25 2.32 2.29 2.29 0 0 1-2.25-2.32v-209a2.28 2.28 0 0 1 2.25-2.31 2.27 2.27 0 0 1 2.25 2.31z" fill="#562e16"/><path fill="#683718" d="M1697.59 785.68h73.63v138.25h-73.63z"/><path fill="#562e16" d="M1734.4 785.68h41.33v138.25h-41.33z"/><path fill="#773e1a" d="M1604.42 322.08h50.34v284.77h-50.34z"/><path fill="#562e16" d="M1629.96 322.08h25.55v284.77h-25.55z"/><path fill="#562e16" d="M1604.42 321.33h50.34v27.05h-50.34z"/><path d="M1670.54 742.36c0-.14-1.38 1.24-3.07 1.24h-75c-1.69 0-3.07-1.38-3.07-1.24v-136c0-3.57 5.19-23.52 6.72-23.52h67.71c1.53 0 6.72 20 6.72 23.52zM1671.29 326.49c0 3.38-10.37 6.11-23.17 6.11h-37.07c-12.79 0-23.16-2.73-23.16-6.11v-9.56c0-3.38 10.37-6.12 23.16-6.12h37.07c12.8 0 23.17 2.74 23.17 6.12z" fill="#773e1a"/><path d="M1648.62 310.81H1645v21.79h3.63c12.93 0 23.42-2.73 23.42-6.11v-9.56c-.05-3.38-10.5-6.12-23.43-6.12zM1670.54 310.21c0 .33-1.38.6-3.07.6h-75c-1.69 0-3.07-.27-3.07-.6v-30.35c0-.33 1.38-.6 3.07-.6h75c1.69 0 3.07.27 3.07.6zM1617.94 553.34a2.29 2.29 0 0 1-2.25 2.32 2.29 2.29 0 0 1-2.26-2.32v-209a2.29 2.29 0 0 1 2.26-2.31 2.29 2.29 0 0 1 2.25 2.31z" fill="#562e16"/><path fill="#683718" d="M1592.4 605.35h73.63V743.6h-73.63z"/><path fill="#562e16" d="M1629.21 605.35h41.33V743.6h-41.33zM1484.35.5l440.15 842.68v64.37L1450.73.5h33.62z"/><path fill="#773e1a" d="M1539.49.5l385.01 742.74v99.95L1483.67.5h55.82z"/><path fill="#5c2d09" d="M449.57.5h39.07v181.83h-39.07z"/><path fill="#3c1a00" d="M449.57.5h19.54v181.83h-19.54z"/><path d="M437.64 286.77c0-.37 2.36.75 2.36.75h57.55a5 5 0 0 0 2.36-.94V183c0-2.71-4-17.91-5.16-17.91h-52c-1.18 0-5.16 15.2-5.16 17.91v103.77z" fill="#5c2d09"/><path d="M478.12.5v141.25a1.83 1.83 0 0 0 1.13 1.73 1.88 1.88 0 0 0 2.63-1.63V.5z" fill="#3c1a00"/><path fill="#4e2605" d="M441.3 181.58h56.35v105.94H441.3z"/><path fill="#3c1a00" d="M437.55 181.58h31.56v105.94h-31.56z"/><path fill="#6d3815" d="M362.41 144.01h45.83v268.24h-45.83z"/><path fill="#4d280f" d="M362.41 144.01h23.29v268.24h-23.29z"/><path fill="#4d280f" d="M362.41 144.01h45.83v25.55h-45.83z"/><path d="M348.89 540.32c0-.14 1.24 1.16 2.78 1.16h68.06c1.54 0 2.79-1.3 2.79-1.16V412.55c0-3.35-4.71-22.09-6.1-22.09H355c-1.39 0-6.09 18.74-6.09 22.09zM348.13 148.09c0 3.14 9.35 5.69 20.87 5.69h33.4c11.53 0 20.87-2.55 20.87-5.69v-8.91c0-3.14-9.34-5.69-20.87-5.69H369c-11.52 0-20.87 2.55-20.87 5.69v8.91z" fill="#6d3815"/><path d="M369 133.49h3.22v20.29H369c-11.5 0-20.83-2.55-20.83-5.69v-8.91c-.04-3.18 9.29-5.69 20.83-5.69zM348.89 132.93c0 .31 1.24.56 2.78.56h68.06c1.54 0 2.79-.25 2.79-.56v-28.18c0-.31-1.25-.56-2.79-.56h-68.06c-1.54 0-2.78.25-2.78.56zM396.22 362.07a2.22 2.22 0 0 0 2.25 2.18 2.22 2.22 0 0 0 2.26-2.18V165.21a2.22 2.22 0 0 0-2.26-2.18 2.22 2.22 0 0 0-2.25 2.18z" fill="#4d280f"/><path fill="#5f3112" d="M352.64 411.5h66.87v129.99h-66.87z"/><path fill="#4d280f" d="M348.13 411.5h37.57v129.99h-37.57z"/><path fill="#773e1a" d="M58.11 713.55h50.34v284.77H58.11z"/><path fill="#562e16" d="M58.11 713.55h25.55v284.77H58.11z"/><path fill="#562e16" d="M58.11 713.55h50.34v27.05H58.11z"/><path d="M124.23 1084.72v-86.17c0-3.56-5.19-23.53-6.72-23.53H49.8c-1.53 0-6.72 20-6.72 23.53v86.17zM41.58 718.7c0 3.38 10.37 6.12 23.16 6.12h37.07c12.8 0 23.17-2.74 23.17-6.12v-9.56c0-3.38-10.37-6.11-23.17-6.11H64.74c-12.79 0-23.16 2.73-23.16 6.11v9.56z" fill="#773e1a"/><path d="M65 703h3.63v21.79H65c-12.94 0-23.42-2.74-23.42-6.12v-9.56c0-3.35 10.48-6.11 23.42-6.11zM42.58 701.52c0 .47 3.09.76 3.09.76h75.48c1.7 0 3.08-.28 3.08-.61v-30.34c0-.34-1.38-.61-3.08-.61h-75c-1.7 0-3.07.27-3.07.61v30.19zM95.67 945.28a2.28 2.28 0 0 0 2.26 2.31 2.28 2.28 0 0 0 2.25-2.31v-209a2.29 2.29 0 0 0-2.25-2.28 2.29 2.29 0 0 0-2.26 2.32z" fill="#562e16"/><path fill="#683718" d="M47.59 997.56h73.63v87.16H47.59z"/><path fill="#562e16" d="M42.33 997.56h41.33v87.16H42.33z"/><path fill="#773e1a" d="M163.3 502.41h50.34v284.77H163.3z"/><path fill="#562e16" d="M163.3 502.41h25.55v284.77H163.3z"/><path fill="#562e16" d="M163.3 501.66h50.34v27.05H163.3z"/><path d="M148.27 922.69c0-.15 1.38 1.24 3.07 1.24h75c1.7 0 3.08-1.39 3.08-1.24v-136c0-3.56-5.19-23.51-6.72-23.51H155c-1.53 0-6.72 20-6.72 23.51zM146.77 506.82c0 3.37 10.37 6.11 23.16 6.11H207c12.8 0 23.17-2.74 23.17-6.11v-9.56c0-3.38-10.37-6.12-23.17-6.12h-37.07c-12.79 0-23.16 2.74-23.16 6.12v9.56z" fill="#773e1a"/><path d="M170.19 491.14h3.63v21.79h-3.63c-12.93 0-23.42-2.74-23.42-6.11v-9.56c0-3.38 10.48-6.12 23.42-6.12z" fill="#562e16"/><path d="M147.78 490.39l3.09.75h75.47c1.7 0 3.08-.27 3.08-.61v-30.34c0-.33-1.38-.61-3.08-.61h-75c-1.7 0-3.07.28-3.07.61v30.2zM200.87 733.69a2.28 2.28 0 0 0 2.25 2.32 2.29 2.29 0 0 0 2.25-2.32v-209a2.28 2.28 0 0 0-2.25-2.31 2.27 2.27 0 0 0-2.25 2.31z" fill="#562e16"/><path fill="#683718" d="M152.78 785.68h73.63v138.25h-73.63z"/><path fill="#562e16" d="M147.52 785.68h41.33v138.25h-41.33z"/><path fill="#773e1a" d="M268.49 322.08h50.34v284.77h-50.34z"/><path fill="#562e16" d="M268.49 322.08h25.55v284.77h-25.55z"/><path fill="#562e16" d="M268.49 321.33h50.34v27.05h-50.34z"/><path d="M253.46 742.36c0-.14 1.38 1.24 3.07 1.24h75c1.69 0 3.07-1.38 3.07-1.24v-136c0-3.57-5.19-23.52-6.72-23.52h-67.7c-1.53 0-6.72 20-6.72 23.52zM252 326.49c0 3.38 10.37 6.11 23.16 6.11h37.04c12.79 0 23.16-2.73 23.16-6.11v-9.56c0-3.38-10.37-6.12-23.16-6.12h-37.08c-12.79 0-23.16 2.74-23.16 6.12z" fill="#773e1a"/><path d="M275.38 310.81H279v21.79h-3.63c-12.93 0-23.42-2.73-23.42-6.11v-9.56c.05-3.38 10.5-6.12 23.43-6.12zM253 310.06l3.08.75h75.48c1.69 0 3.07-.27 3.07-.6v-30.35c0-.33-1.38-.6-3.07-.6h-75c-1.69 0-3.07.27-3.07.6v30.2zM306.06 553.34a2.29 2.29 0 0 0 2.25 2.32 2.29 2.29 0 0 0 2.26-2.32v-209a2.29 2.29 0 0 0-2.26-2.31 2.29 2.29 0 0 0-2.25 2.31z" fill="#562e16"/><path fill="#683718" d="M257.97 605.35h73.63V743.6h-73.63z"/><path fill="#562e16" d="M252.71 605.35h41.33V743.6h-41.33zM439.64.5L-.5 843.18v64.37L473.27.5h-33.63z"/><path fill="#773e1a" d="M384.51.5L-.5 743.24v99.95L440.33.5h-55.82z"/><path fill="#836028" d="M511.18 96.67h901.64v192.35H511.18z"/><path d="M511.18 96.67V289h32.31V170.65c0-21.35 11.7-38.66 26.13-38.66h784.77c14.43 0 26.12 17.31 26.12 38.66V289h32.31V96.67z" fill="#694d1c"/><path fill="#613913" d="M511.18 239.43h901.64v5.26H511.18zM511.18 169.56h901.64v5.26H511.18z"/><path d="M1420.33 111v-9.77c0-10.79-16.86-19.53-37.65-19.53H540.57c-20.8 0-37.65 8.74-37.65 19.53V111z" fill="#591300"/><path d="M504.1 96.67a10.5 10.5 0 0 0-1.18 4.76V111h917.41v-9.52a10.5 10.5 0 0 0-1.18-4.76z" fill="#2b0000"/><path fill="#831814" d="M721.56 82.4h480.12v206.63H721.56z"/><path d="M1188.54 118.84c0 4.36-2.42 7.89-5.41 7.89H739.87c-3 0-5.4-3.53-5.4-7.89 0-4.36 2.42-7.89 5.4-7.89h443.26c3 0 5.41 3.53 5.41 7.89z" fill="#690e06"/><path fill="#919396" d="M1191.17 168.15l-19.25 17.25-19.24-17.25 19.25-17.25 19.24 17.25z"/><path fill="#919396" d="M1191.17 133.69l-19.25 17.25-19.24-17.25 19.25-17.25 19.24 17.25z"/><path fill="#919396" d="M1191.17 99.24l-19.25 17.25-19.24-17.25 19.25-17.26 19.24 17.26zM1191.17 271.51l-19.25 17.25-19.24-17.25 19.25-17.25 19.24 17.25z"/><path fill="#919396" d="M1191.17 237.06l-19.25 17.25-19.24-17.25 19.25-17.25 19.24 17.25z"/><path fill="#919396" d="M1191.17 202.6l-19.25 17.25-19.24-17.25 19.25-17.25 19.24 17.25zM1191.92 82.4h4.51v206.63h-4.51z"/><path fill="#919396" d="M1148.34 82.4h4.51v206.63h-4.51zM769.82 168.15l-19.24 17.25-19.24-17.25 19.24-17.25 19.24 17.25z"/><path fill="#919396" d="M769.82 133.69l-19.24 17.25-19.24-17.25 19.24-17.25 19.24 17.25z"/><path fill="#919396" d="M769.82 99.24l-19.24 17.25-19.24-17.25 19.24-17.26 19.24 17.26zM769.82 271.51l-19.24 17.25-19.24-17.25 19.24-17.25 19.24 17.25z"/><path fill="#919396" d="M769.82 237.06l-19.24 17.25-19.24-17.25 19.24-17.25 19.24 17.25z"/><path fill="#919396" d="M769.82 202.6l-19.24 17.25-19.24-17.25 19.24-17.25 19.24 17.25zM770.4 82.4h4.51v206.63h-4.51zM726.82 82.4h4.51v206.63h-4.51z"/><path d="M1140.07 224.23c0 1.23-.67 2.22-1.5 2.22s-1.5-1-1.5-2.22v-11.87c0-1.23.67-2.23 1.5-2.23s1.5 1 1.5 2.23zM1134.81 224.23c0 1.22-.67 2.22-1.5 2.22s-1.5-1-1.5-2.22v-11.87c0-1.23.67-2.22 1.5-2.22s1.5 1 1.5 2.22zM1130.31 224.22c0 1.23-.68 2.23-1.51 2.23s-1.5-1-1.5-2.23v-11.85c0-1.23.67-2.23 1.5-2.23s1.51 1 1.51 2.23zM1071.7 146.08c0 1.23-.67 2.22-1.5 2.22s-1.51-1-1.51-2.22v-11.86c0-1.23.68-2.23 1.51-2.23s1.5 1 1.5 2.23zM1067.19 146.08c0 1.23-.67 2.22-1.5 2.22s-1.5-1-1.5-2.22v-11.86c0-1.23.67-2.23 1.5-2.23s1.5 1 1.5 2.23zM1062.68 146.08c0 1.23-.67 2.22-1.5 2.22s-1.5-1-1.5-2.22v-11.86c0-1.23.67-2.22 1.5-2.22s1.5 1 1.5 2.22zM1055.92 238.93c0 1.22-.67 2.22-1.5 2.22s-1.5-1-1.5-2.22v-11.87c0-1.23.67-2.22 1.5-2.22s1.5 1 1.5 2.22zM1051.41 238.92c0 1.23-.67 2.23-1.5 2.23s-1.5-1-1.5-2.23v-11.85c0-1.23.67-2.23 1.5-2.23s1.5 1 1.5 2.23zM1046.9 238.93c0 1.23-.67 2.22-1.5 2.22s-1.5-1-1.5-2.22v-11.87c0-1.23.67-2.22 1.5-2.22s1.5 1 1.5 2.22zM1030.37 177c0 1.22-.67 2.22-1.5 2.22s-1.5-1-1.5-2.22v-11.83c0-1.23.67-2.22 1.5-2.22s1.5 1 1.5 2.22zM1025.11 177c0 1.23-.67 2.22-1.5 2.22s-1.5-1-1.5-2.22v-11.83c0-1.23.67-2.23 1.5-2.23s1.5 1 1.5 2.23zM1020.61 177c0 1.23-.68 2.22-1.51 2.22s-1.5-1-1.5-2.22v-11.83c0-1.23.67-2.23 1.5-2.23s1.51 1 1.51 2.23zM915.42 138.34c0 1.23-.68 2.23-1.51 2.23s-1.5-1-1.5-2.23v-11.86c0-1.23.67-2.22 1.5-2.22s1.51 1 1.51 2.22zM910.16 138.34c0 1.23-.68 2.23-1.51 2.23s-1.5-1-1.5-2.23v-11.86c0-1.23.67-2.22 1.5-2.22s1.51 1 1.51 2.22zM905.65 138.34c0 1.23-.67 2.23-1.51 2.23-.83 0-1.5-1-1.5-2.23v-11.86c0-1.23.67-2.22 1.5-2.22.84 0 1.51 1 1.51 2.22zM915.42 223.45c0 1.23-.68 2.23-1.51 2.23s-1.5-1-1.5-2.23v-11.86c0-1.23.67-2.22 1.5-2.22s1.51 1 1.51 2.22zM910.16 223.45c0 1.23-.68 2.23-1.51 2.23s-1.5-1-1.5-2.23v-11.86c0-1.23.67-2.22 1.5-2.22s1.51 1 1.51 2.22zM905.65 223.45c0 1.23-.67 2.23-1.51 2.23-.83 0-1.5-1-1.5-2.23v-11.86c0-1.23.67-2.22 1.5-2.22.84 0 1.51 1 1.51 2.22zM930.44 254.4c0 1.22-.67 2.22-1.5 2.22s-1.5-1-1.5-2.22v-11.86c0-1.23.67-2.22 1.5-2.22s1.5 1 1.5 2.22zM925.93 254.4c0 1.22-.67 2.22-1.5 2.22s-1.5-1-1.5-2.22v-11.86c0-1.23.67-2.22 1.5-2.22s1.5 1 1.5 2.22zM921.43 254.4c0 1.23-.68 2.22-1.51 2.22s-1.5-1-1.5-2.22v-11.86c0-1.23.67-2.23 1.5-2.23s1.51 1 1.51 2.23zM789.94 262.14c0 1.23-.67 2.23-1.51 2.23-.83 0-1.5-1-1.5-2.23v-11.87c0-1.23.67-2.22 1.5-2.22.84 0 1.51 1 1.51 2.22zM784.68 262.14c0 1.23-.68 2.23-1.51 2.23-.82 0-1.5-1-1.5-2.23v-11.87c0-1.23.67-2.22 1.5-2.22s1.51 1 1.51 2.22zM780.17 262.14c0 1.23-.67 2.22-1.5 2.22s-1.51-1-1.51-2.22v-11.87c0-1.22.68-2.22 1.51-2.22s1.5 1 1.5 2.22zM837.27 200.24c0 1.23-.67 2.22-1.5 2.22s-1.5-1-1.5-2.22v-11.86c0-1.23.67-2.23 1.5-2.23s1.5 1 1.5 2.23zM832.77 200.24c0 1.23-.68 2.23-1.51 2.23s-1.5-1-1.5-2.23v-11.87c0-1.22.67-2.22 1.5-2.22s1.51 1 1.51 2.22zM827.51 200.24c0 1.23-.68 2.22-1.51 2.22s-1.5-1-1.5-2.22v-11.86c0-1.23.67-2.23 1.5-2.23s1.51 1 1.51 2.23zM816.23 146.08c0 1.23-.67 2.22-1.5 2.22s-1.5-1-1.5-2.22v-11.86c0-1.23.67-2.23 1.5-2.23s1.5 1 1.5 2.23zM811.73 146.08c0 1.23-.68 2.22-1.51 2.22s-1.5-1-1.5-2.22v-11.86c0-1.23.67-2.22 1.5-2.22s1.51 1 1.51 2.22zM807.22 146.08c0 1.23-.67 2.22-1.5 2.22s-1.51-1-1.51-2.22v-11.86c0-1.23.68-2.23 1.51-2.23s1.5 1 1.5 2.23z" fill="#690e06"/><path fill="#a07635" d="M426.28 296.54h1070.7v187.09H426.28z"/><path d="M426.28 296.54v187.09h38.32v-115c0-20.74 13.89-37.55 31-37.55h932c17.13 0 31 16.81 31 37.55v115h38.4V296.54z" fill="#836029"/><path fill="#7a4a20" d="M426.28 435.54h1070.7v5.26H426.28zM426.28 367.92h1070.7v5.26H426.28z"/><path d="M1506 310.81v-9.51c0-10.52-20-19-44.69-19H462c-24.68 0-44.69 8.52-44.69 19v9.51z" fill="#71210b"/><path d="M418.67 296.54a9.11 9.11 0 0 0-1.41 4.76v9.51H1506v-9.51a9.11 9.11 0 0 0-1.41-4.76z" fill="#470b00"/><path fill="#9f2321" d="M677.23 283.01h569.54v200.61H677.23z"/><path d="M1231 318c0 4.36-2.87 7.89-6.41 7.89H698.33c-3.54 0-6.41-3.53-6.41-7.89 0-4.35 2.87-7.89 6.41-7.89h526.3c3.54 0 6.41 3.54 6.41 7.89z" fill="#821b16"/><path fill="#b1b3b6" d="M1234.17 366.27l-22.85 16.75-22.85-16.75 22.85-16.76 22.85 16.76z"/><path fill="#b1b3b6" d="M1234.17 332.81l-22.85 16.75-22.85-16.75 22.85-16.76 22.85 16.76z"/><path fill="#b1b3b6" d="M1234.17 299.34l-22.85 16.76-22.85-16.76 22.85-16.75 22.85 16.75zM1234.17 466.66l-22.85 16.76-22.85-16.76 22.85-16.76 22.85 16.76z"/><path fill="#b1b3b6" d="M1234.17 433.2l-22.85 16.75-22.85-16.75 22.85-16.76 22.85 16.76z"/><path fill="#b1b3b6" d="M1234.17 399.73l-22.85 16.76-22.85-16.76 22.85-16.75 22.85 16.75zM1234.75 283.01h5.26v200.61h-5.26zM1182.9 283.01h5.26v200.61h-5.26zM733.89 366.27l-22.85 16.75-22.85-16.75 22.85-16.76 22.85 16.76z"/><path fill="#b1b3b6" d="M733.89 332.81l-22.85 16.75-22.85-16.75 22.85-16.76 22.85 16.76z"/><path fill="#b1b3b6" d="M733.89 299.34l-22.85 16.76-22.85-16.76 22.85-16.75 22.85 16.75zM733.89 466.66l-22.85 16.76-22.85-16.76 22.85-16.76 22.85 16.76z"/><path fill="#b1b3b6" d="M733.89 433.2l-22.85 16.75-22.85-16.75 22.85-16.76 22.85 16.76z"/><path fill="#b1b3b6" d="M733.89 399.73l-22.85 16.76-22.85-16.76 22.85-16.75 22.85 16.75zM734.34 283.01h5.26v200.61h-5.26z"/><path fill="#b1b3b6" d="M683.24 283.01h5.26v200.61h-5.26z"/><path d="M1173.13 421a2.1 2.1 0 0 1-1.88 2.27 2.1 2.1 0 0 1-1.87-2.27v-12.09a2.11 2.11 0 0 1 1.87-2.28 2.11 2.11 0 0 1 1.88 2.28zM1167.87 421a2.11 2.11 0 0 1-1.87 2.28 2.11 2.11 0 0 1-1.88-2.28v-12.09a2.1 2.1 0 0 1 1.88-2.27 2.1 2.1 0 0 1 1.87 2.27zM1161.86 421a2.11 2.11 0 0 1-1.88 2.28 2.11 2.11 0 0 1-1.87-2.28v-12.09a2.1 2.1 0 0 1 1.87-2.27 2.1 2.1 0 0 1 1.88 2.27zM1092.74 345.14a2.11 2.11 0 0 1-1.88 2.28 2.11 2.11 0 0 1-1.88-2.28V333a2.1 2.1 0 0 1 1.88-2.27 2.1 2.1 0 0 1 1.88 2.27zM1086.73 345.14a2.1 2.1 0 0 1-1.88 2.27 2.1 2.1 0 0 1-1.88-2.27V333a2.11 2.11 0 0 1 1.88-2.28 2.11 2.11 0 0 1 1.88 2.28zM1081.47 345.14a2.1 2.1 0 0 1-1.88 2.27 2.1 2.1 0 0 1-1.88-2.27V333a2.1 2.1 0 0 1 1.88-2.27 2.1 2.1 0 0 1 1.88 2.27zM1074 435.31a2.11 2.11 0 0 1-1.88 2.28 2.11 2.11 0 0 1-1.87-2.28v-12.12a2.11 2.11 0 0 1 1.87-2.28 2.11 2.11 0 0 1 1.88 2.28zM1068.69 435.31a2.11 2.11 0 0 1-1.87 2.28 2.11 2.11 0 0 1-1.88-2.28v-12.12a2.11 2.11 0 0 1 1.88-2.28 2.11 2.11 0 0 1 1.87 2.28zM1062.68 435.31a2.11 2.11 0 0 1-1.88 2.28 2.11 2.11 0 0 1-1.87-2.28v-12.12a2.11 2.11 0 0 1 1.87-2.28 2.11 2.11 0 0 1 1.88 2.28zM1043.15 375.2a2.1 2.1 0 0 1-1.88 2.27 2.1 2.1 0 0 1-1.88-2.27v-12.13a2.1 2.1 0 0 1 1.88-2.27 2.1 2.1 0 0 1 1.88 2.27zM1037.14 375.2a2.1 2.1 0 0 1-1.88 2.27 2.1 2.1 0 0 1-1.88-2.27v-12.13a2.1 2.1 0 0 1 1.88-2.27 2.1 2.1 0 0 1 1.88 2.27zM1031.88 375.2a2.1 2.1 0 0 1-1.88 2.27 2.1 2.1 0 0 1-1.88-2.27v-12.13a2.1 2.1 0 0 1 1.88-2.27 2.1 2.1 0 0 1 1.88 2.27zM906.4 337.63a2.1 2.1 0 0 1-1.88 2.27 2.1 2.1 0 0 1-1.88-2.27V325.5a2.11 2.11 0 0 1 1.88-2.28 2.11 2.11 0 0 1 1.88 2.28zM901.14 337.63a2.1 2.1 0 0 1-1.88 2.27 2.1 2.1 0 0 1-1.88-2.27V325.5a2.11 2.11 0 0 1 1.88-2.28 2.11 2.11 0 0 1 1.88 2.28zM895.13 337.63a2.1 2.1 0 0 1-1.88 2.27 2.1 2.1 0 0 1-1.88-2.27V325.5a2.11 2.11 0 0 1 1.88-2.28 2.11 2.11 0 0 1 1.88 2.28zM906.4 420.29a2.1 2.1 0 0 1-1.88 2.27 2.1 2.1 0 0 1-1.88-2.27v-12.13a2.11 2.11 0 0 1 1.88-2.28 2.11 2.11 0 0 1 1.88 2.28zM901.14 420.29a2.1 2.1 0 0 1-1.88 2.27 2.1 2.1 0 0 1-1.88-2.27v-12.13a2.11 2.11 0 0 1 1.88-2.28 2.11 2.11 0 0 1 1.88 2.28zM895.13 420.29a2.1 2.1 0 0 1-1.88 2.27 2.1 2.1 0 0 1-1.88-2.27v-12.13a2.11 2.11 0 0 1 1.88-2.28 2.11 2.11 0 0 1 1.88 2.28zM925.18 450.34a2.1 2.1 0 0 1-1.88 2.27 2.1 2.1 0 0 1-1.87-2.27v-12.12a2.11 2.11 0 0 1 1.87-2.28 2.11 2.11 0 0 1 1.88 2.28zM919.17 450.34a2.11 2.11 0 0 1-1.88 2.28 2.11 2.11 0 0 1-1.87-2.28v-12.13a2.1 2.1 0 0 1 1.87-2.27 2.1 2.1 0 0 1 1.88 2.27zM913.91 450.34a2.11 2.11 0 0 1-1.87 2.28 2.11 2.11 0 0 1-1.88-2.28v-12.12a2.11 2.11 0 0 1 1.88-2.28 2.11 2.11 0 0 1 1.87 2.28zM757.63 457.86a2.1 2.1 0 0 1-1.88 2.27 2.1 2.1 0 0 1-1.88-2.27v-12.13a2.11 2.11 0 0 1 1.88-2.28 2.11 2.11 0 0 1 1.88 2.28zM751.62 457.86a2.1 2.1 0 0 1-1.88 2.27 2.1 2.1 0 0 1-1.88-2.27v-12.13a2.1 2.1 0 0 1 1.88-2.27 2.1 2.1 0 0 1 1.88 2.27zM746.36 457.86a2.1 2.1 0 0 1-1.88 2.27 2.1 2.1 0 0 1-1.88-2.27v-12.13a2.11 2.11 0 0 1 1.88-2.28 2.11 2.11 0 0 1 1.88 2.28zM814 397.74a2.1 2.1 0 0 1-1.9 2.26 2.1 2.1 0 0 1-1.88-2.27v-12.11a2.11 2.11 0 0 1 1.88-2.28 2.11 2.11 0 0 1 1.88 2.28zM808.72 397.74a2.11 2.11 0 0 1-1.88 2.28 2.11 2.11 0 0 1-1.88-2.28v-12.13a2.11 2.11 0 0 1 1.88-2.27 2.1 2.1 0 0 1 1.88 2.27zM802.71 397.74a2.11 2.11 0 0 1-1.88 2.28 2.11 2.11 0 0 1-1.88-2.28v-12.13a2.1 2.1 0 0 1 1.88-2.27 2.1 2.1 0 0 1 1.88 2.27zM789.19 345.14a2.11 2.11 0 0 1-1.88 2.28 2.11 2.11 0 0 1-1.88-2.28V333a2.1 2.1 0 0 1 1.88-2.27 2.11 2.11 0 0 1 1.88 2.27zM783.93 345.14a2.1 2.1 0 0 1-1.88 2.27 2.1 2.1 0 0 1-1.88-2.27V333a2.11 2.11 0 0 1 1.88-2.28 2.11 2.11 0 0 1 1.88 2.28zM777.92 345.14a2.11 2.11 0 0 1-1.88 2.27 2.1 2.1 0 0 1-1.88-2.27V333a2.11 2.11 0 0 1 1.88-2.28 2.11 2.11 0 0 1 1.88 2.28z" fill="#821b16"/><path fill="#c59143" d="M351.14 497.15h1221.72v187.09H351.14z"/><path d="M351.14 497.15v187.09h43.58v-115c0-20.74 15.85-37.55 35.41-37.55h1063.74c19.56 0 35.41 16.81 35.41 37.55v115h43.58V497.15z" fill="#a27736"/><path fill="#995e2e" d="M351.14 636.16h1221.72v5.26H351.14zM351.14 568.53h1221.72v5.26H351.14z"/><path d="M1583.38 511.43v-9.52c0-10.51-22.84-19-51-19H391.63c-28.17 0-51 8.52-51 19v9.52z" fill="#90301a"/><path d="M342.23 497.15a8.33 8.33 0 0 0-1.61 4.76v9.52h1242.76v-9.52a8.33 8.33 0 0 0-1.61-4.76z" fill="#631e0c"/><path fill="#c32f2d" d="M636.66 483.63h649.93v200.61H636.66z"/><path d="M1269.15 518.57a7.62 7.62 0 0 1-7.32 7.89H661.09a7.63 7.63 0 0 1-7.33-7.89 7.62 7.62 0 0 1 7.33-7.89h600.74a7.61 7.61 0 0 1 7.32 7.89z" fill="#a22823"/><path fill="#dadbdc" d="M1272.72 566.9l-26.08 16.76-26.08-16.76 26.08-16.75 26.08 16.75z"/><path fill="#dadbdc" d="M1272.72 533.44l-26.08 16.76-26.08-16.76 26.08-16.75 26.08 16.75z"/><path fill="#dadbdc" d="M1272.72 499.98l-26.08 16.75-26.08-16.75 26.08-16.76 26.08 16.76zM1272.72 667.29l-26.08 16.76-26.08-16.76 26.08-16.75 26.08 16.75z"/><path fill="#dadbdc" d="M1272.72 633.83l-26.08 16.76-26.08-16.76 26.08-16.75 26.08 16.75z"/><path fill="#dadbdc" d="M1272.72 600.37l-26.08 16.75-26.08-16.75 26.08-16.76 26.08 16.76zM1273.07 483.63h6.01v200.61h-6.01zM1214.46 483.63h6.01v200.61h-6.01zM701.67 566.9l-26.08 16.76-26.08-16.76 26.08-16.75 26.08 16.75z"/><path fill="#dadbdc" d="M701.67 533.44l-26.08 16.76-26.08-16.76 26.08-16.75 26.08 16.75z"/><path fill="#dadbdc" d="M701.67 499.98l-26.08 16.75-26.08-16.75 26.08-16.76 26.08 16.76zM701.67 667.29l-26.08 16.76-26.08-16.76 26.08-16.75 26.08 16.75z"/><path fill="#dadbdc" d="M701.67 633.83l-26.08 16.76-26.08-16.76 26.08-16.75 26.08 16.75z"/><path fill="#dadbdc" d="M701.67 600.37l-26.08 16.75-26.08-16.75 26.08-16.76 26.08 16.76zM702.03 483.63h6.01v200.61h-6.01zM643.42 483.63h6.01v200.61h-6.01z"/><path d="M1203.19 622a2.33 2.33 0 0 1-2.26 2.39 2.32 2.32 0 0 1-2.25-2.39v-12.77a2.32 2.32 0 0 1 2.25-2.39 2.33 2.33 0 0 1 2.26 2.39zM1197.18 622a2.33 2.33 0 0 1-2.26 2.39 2.32 2.32 0 0 1-2.25-2.39v-12.77a2.32 2.32 0 0 1 2.25-2.39 2.33 2.33 0 0 1 2.26 2.39zM1190.42 622a2.33 2.33 0 0 1-2.26 2.39 2.32 2.32 0 0 1-2.25-2.39v-12.77a2.32 2.32 0 0 1 2.25-2.39 2.33 2.33 0 0 1 2.26 2.39zM1111.52 546.09a2.32 2.32 0 0 1-2.25 2.39 2.33 2.33 0 0 1-2.26-2.39v-12.75a2.33 2.33 0 0 1 2.26-2.39 2.32 2.32 0 0 1 2.25 2.39zM1104.76 546.09a2.32 2.32 0 0 1-2.25 2.39 2.33 2.33 0 0 1-2.26-2.39v-12.75a2.33 2.33 0 0 1 2.26-2.4 2.33 2.33 0 0 1 2.25 2.4zM1098.75 546.09a2.33 2.33 0 0 1-2.26 2.39 2.32 2.32 0 0 1-2.25-2.39v-12.75a2.33 2.33 0 0 1 2.25-2.4 2.33 2.33 0 0 1 2.26 2.4zM1089.73 636.26a2.32 2.32 0 0 1-2.25 2.39 2.33 2.33 0 0 1-2.26-2.39v-12.75a2.33 2.33 0 0 1 2.26-2.39 2.32 2.32 0 0 1 2.25 2.39zM1083.72 636.26a2.32 2.32 0 0 1-2.25 2.39 2.33 2.33 0 0 1-2.26-2.39v-12.75a2.33 2.33 0 0 1 2.26-2.39 2.32 2.32 0 0 1 2.25 2.39zM1077 636.26a2.33 2.33 0 0 1-2.26 2.39 2.32 2.32 0 0 1-2.25-2.39v-12.75a2.32 2.32 0 0 1 2.25-2.39 2.33 2.33 0 0 1 2.26 2.39zM1054.42 576.15a2.33 2.33 0 0 1-2.26 2.39 2.32 2.32 0 0 1-2.25-2.39v-12.76a2.32 2.32 0 0 1 2.25-2.39 2.33 2.33 0 0 1 2.26 2.39zM1048.41 576.15a2.33 2.33 0 0 1-2.26 2.39 2.32 2.32 0 0 1-2.25-2.39v-12.76a2.32 2.32 0 0 1 2.25-2.39 2.33 2.33 0 0 1 2.26 2.39zM1041.64 576.14a2.32 2.32 0 0 1-2.25 2.39 2.32 2.32 0 0 1-2.25-2.39V563.4a2.32 2.32 0 0 1 2.25-2.39 2.32 2.32 0 0 1 2.25 2.39zM898.89 538.57a2.34 2.34 0 0 1-2.26 2.4 2.33 2.33 0 0 1-2.25-2.4v-12.75a2.32 2.32 0 0 1 2.25-2.39 2.33 2.33 0 0 1 2.26 2.39zM892.12 538.57a2.32 2.32 0 0 1-2.25 2.39 2.33 2.33 0 0 1-2.26-2.39v-12.75a2.33 2.33 0 0 1 2.26-2.39 2.32 2.32 0 0 1 2.25 2.39zM886.11 538.57a2.32 2.32 0 0 1-2.25 2.39 2.33 2.33 0 0 1-2.26-2.39v-12.75a2.33 2.33 0 0 1 2.26-2.39 2.32 2.32 0 0 1 2.25 2.39zM898.89 621.23a2.33 2.33 0 0 1-2.26 2.39 2.32 2.32 0 0 1-2.25-2.39v-12.75a2.32 2.32 0 0 1 2.25-2.39 2.33 2.33 0 0 1 2.26 2.39zM892.12 621.23a2.32 2.32 0 0 1-2.25 2.39 2.33 2.33 0 0 1-2.26-2.39v-12.75a2.33 2.33 0 0 1 2.26-2.39 2.32 2.32 0 0 1 2.25 2.39zM886.11 621.23a2.32 2.32 0 0 1-2.25 2.39 2.33 2.33 0 0 1-2.26-2.39v-12.75a2.33 2.33 0 0 1 2.26-2.39 2.32 2.32 0 0 1 2.25 2.39zM919.92 651.29a2.32 2.32 0 0 1-2.25 2.39 2.32 2.32 0 0 1-2.25-2.39v-12.75a2.32 2.32 0 0 1 2.25-2.39 2.32 2.32 0 0 1 2.25 2.39zM913.91 651.29a2.32 2.32 0 0 1-2.25 2.39 2.33 2.33 0 0 1-2.26-2.39v-12.75a2.33 2.33 0 0 1 2.26-2.39 2.32 2.32 0 0 1 2.25 2.39zM907.15 651.29a2.32 2.32 0 0 1-2.25 2.39 2.33 2.33 0 0 1-2.26-2.39v-12.75a2.33 2.33 0 0 1 2.26-2.39 2.32 2.32 0 0 1 2.25 2.39zM729.08 658.8a2.33 2.33 0 0 1-2.26 2.39 2.32 2.32 0 0 1-2.25-2.39v-12.75a2.32 2.32 0 0 1 2.25-2.39 2.33 2.33 0 0 1 2.26 2.39zM722.31 658.8a2.32 2.32 0 0 1-2.25 2.39 2.32 2.32 0 0 1-2.25-2.39v-12.75a2.32 2.32 0 0 1 2.25-2.39 2.32 2.32 0 0 1 2.25 2.39zM716.3 658.8a2.32 2.32 0 0 1-2.25 2.39 2.32 2.32 0 0 1-2.25-2.39v-12.75a2.32 2.32 0 0 1 2.25-2.39 2.32 2.32 0 0 1 2.25 2.39zM792.94 598.69a2.32 2.32 0 0 1-2.25 2.39 2.33 2.33 0 0 1-2.26-2.39v-12.75a2.34 2.34 0 0 1 2.26-2.4 2.33 2.33 0 0 1 2.25 2.4zM786.93 598.69a2.32 2.32 0 0 1-2.25 2.39 2.33 2.33 0 0 1-2.26-2.39v-12.75a2.34 2.34 0 0 1 2.26-2.4 2.33 2.33 0 0 1 2.25 2.4zM780.17 598.69a2.32 2.32 0 0 1-2.25 2.39 2.33 2.33 0 0 1-2.26-2.39v-12.75a2.34 2.34 0 0 1 2.26-2.4 2.33 2.33 0 0 1 2.25 2.4zM765.14 546.09a2.32 2.32 0 0 1-2.25 2.39 2.33 2.33 0 0 1-2.26-2.39v-12.75a2.33 2.33 0 0 1 2.26-2.4 2.33 2.33 0 0 1 2.25 2.4zM758.38 546.09a2.33 2.33 0 0 1-2.26 2.39 2.32 2.32 0 0 1-2.25-2.39v-12.75a2.32 2.32 0 0 1 2.25-2.39 2.33 2.33 0 0 1 2.26 2.39zM752.37 546.09a2.33 2.33 0 0 1-2.26 2.39 2.32 2.32 0 0 1-2.25-2.39v-12.75a2.33 2.33 0 0 1 2.25-2.4 2.33 2.33 0 0 1 2.26 2.4z" fill="#a22823"/><path fill="#e5a74f" d="M241.44 695.51h1440.37V882.6H241.44z"/><path d="M241.44 695.51V882.6h51.84v-115c0-20.74 18.69-37.55 41.75-37.55H1589c23.06 0 41.75 16.81 41.75 37.55v115h51.09V695.51z" fill="#bc8940"/><path fill="#b36e38" d="M241.44 834.52h1440.37v5.26H241.44zM241.44 766.89h1440.37v5.26H241.44z"/><path d="M1694.58 709.79v-9.52c0-10.51-26.92-19-60.14-19H289.56c-33.22 0-60.14 8.52-60.14 19v9.52z" fill="#aa3b24"/><path d="M231.31 695.51a7.57 7.57 0 0 0-1.89 4.76v9.52h1465.16v-9.52a7.57 7.57 0 0 0-1.89-4.76z" fill="#7b2b1a"/><path fill="#e23836" d="M578.8 681.99h766.39V882.6H578.8z"/><path d="M1324.09 716.93c0 4.36-3.86 7.89-8.62 7.89H607.39c-4.77 0-8.63-3.53-8.63-7.89 0-4.36 3.86-7.89 8.63-7.89h708.08c4.76 0 8.62 3.53 8.62 7.89z" fill="#bd302c"/><path fill="#fff" d="M1328.3 765.28l-30.74 16.76-30.74-16.76 30.74-16.75 30.74 16.75z"/><path fill="#fff" d="M1328.3 731.82l-30.74 16.76-30.74-16.76 30.74-16.75 30.74 16.75z"/><path fill="#fff" d="M1328.3 698.36l-30.74 16.75-30.74-16.75 30.74-16.76 30.74 16.76zM1328.3 865.67l-30.74 16.76-30.74-16.76 30.74-16.75 30.74 16.75z"/><path fill="#fff" d="M1328.3 832.21l-30.74 16.76-30.74-16.76 30.74-16.75 30.74 16.75z"/><path fill="#fff" d="M1328.3 798.75l-30.74 16.75-30.74-16.75 30.74-16.76 30.74 16.76zM1328.67 681.99h7.51V882.6h-7.51z"/><path fill="#fff" d="M1259.54 681.99h7.51V882.6h-7.51zM655.23 765.28l-30.74 16.76-30.74-16.76 30.74-16.75 30.74 16.75z"/><path fill="#fff" d="M655.23 731.82l-30.74 16.76-30.74-16.76 30.74-16.75 30.74 16.75z"/><path fill="#fff" d="M655.23 698.36l-30.74 16.75-30.74-16.75 30.74-16.76 30.74 16.76zM655.23 865.67l-30.74 16.76-30.74-16.76 30.74-16.75 30.74 16.75z"/><path fill="#fff" d="M655.23 832.21l-30.74 16.76-30.74-16.76 30.74-16.75 30.74 16.75z"/><path fill="#fff" d="M655.23 798.75l-30.74 16.75-30.74-16.75 30.74-16.76 30.74 16.76zM655.44 681.99h7.51V882.6h-7.51z"/><path fill="#fff" d="M586.32 681.99h7.51V882.6h-7.51z"/><path d="M1246.77 820.3a2.51 2.51 0 0 1-2.63 2.36 2.51 2.51 0 0 1-2.63-2.36v-12.62a2.51 2.51 0 0 1 2.63-2.37 2.51 2.51 0 0 1 2.63 2.37zM1239.25 820.3a2.5 2.5 0 0 1-2.62 2.36 2.51 2.51 0 0 1-2.64-2.36v-12.62a2.51 2.51 0 0 1 2.64-2.37 2.5 2.5 0 0 1 2.62 2.37zM1231.74 820.3a2.51 2.51 0 0 1-2.63 2.36 2.51 2.51 0 0 1-2.63-2.36v-12.62a2.51 2.51 0 0 1 2.63-2.37 2.51 2.51 0 0 1 2.63 2.37zM1137.82 744.4a2.51 2.51 0 0 1-2.63 2.37 2.51 2.51 0 0 1-2.63-2.37v-12.62a2.51 2.51 0 0 1 2.63-2.37 2.51 2.51 0 0 1 2.63 2.37zM1130.31 744.4a2.51 2.51 0 0 1-2.63 2.37 2.5 2.5 0 0 1-2.63-2.37v-12.62a2.5 2.5 0 0 1 2.63-2.37 2.51 2.51 0 0 1 2.63 2.37zM1122.79 744.4a2.5 2.5 0 0 1-2.63 2.37 2.51 2.51 0 0 1-2.63-2.37v-12.62a2.51 2.51 0 0 1 2.63-2.37 2.5 2.5 0 0 1 2.63 2.37zM1113 834.58a2.5 2.5 0 0 1-2.63 2.36 2.5 2.5 0 0 1-2.62-2.36V822a2.49 2.49 0 0 1 2.62-2.36A2.5 2.5 0 0 1 1113 822zM1105.51 834.57a2.51 2.51 0 0 1-2.63 2.37 2.51 2.51 0 0 1-2.63-2.37V822a2.51 2.51 0 0 1 2.63-2.37 2.51 2.51 0 0 1 2.63 2.37zM1098 834.57a2.51 2.51 0 0 1-2.63 2.37 2.5 2.5 0 0 1-2.63-2.37V822a2.5 2.5 0 0 1 2.63-2.37A2.51 2.51 0 0 1 1098 822zM1071 774.46a2.51 2.51 0 0 1-2.63 2.37 2.5 2.5 0 0 1-2.63-2.37v-12.62a2.5 2.5 0 0 1 2.63-2.37 2.51 2.51 0 0 1 2.63 2.37zM1063.43 774.46a2.5 2.5 0 0 1-2.63 2.37 2.51 2.51 0 0 1-2.63-2.37v-12.62a2.51 2.51 0 0 1 2.63-2.37 2.5 2.5 0 0 1 2.63 2.37zM1055.92 774.46a2.51 2.51 0 0 1-2.63 2.37 2.51 2.51 0 0 1-2.63-2.37v-12.62a2.51 2.51 0 0 1 2.63-2.37 2.51 2.51 0 0 1 2.63 2.37zM887.61 736.89a2.5 2.5 0 0 1-2.63 2.36 2.5 2.5 0 0 1-2.62-2.36v-12.62a2.5 2.5 0 0 1 2.64-2.37 2.5 2.5 0 0 1 2.63 2.37zM880.1 736.89a2.5 2.5 0 0 1-2.63 2.36 2.51 2.51 0 0 1-2.63-2.36v-12.62a2.51 2.51 0 0 1 2.63-2.37 2.5 2.5 0 0 1 2.63 2.37zM872.59 736.89a2.51 2.51 0 0 1-2.63 2.36 2.51 2.51 0 0 1-2.63-2.36v-12.62a2.51 2.51 0 0 1 2.67-2.37 2.51 2.51 0 0 1 2.63 2.37zM887.61 819.55a2.5 2.5 0 0 1-2.63 2.36 2.5 2.5 0 0 1-2.62-2.36v-12.62a2.5 2.5 0 0 1 2.62-2.37 2.5 2.5 0 0 1 2.63 2.37zM880.1 819.55a2.5 2.5 0 0 1-2.63 2.36 2.51 2.51 0 0 1-2.63-2.36v-12.62a2.51 2.51 0 0 1 2.63-2.37 2.5 2.5 0 0 1 2.63 2.37zM872.59 819.55a2.51 2.51 0 0 1-2.63 2.36 2.51 2.51 0 0 1-2.63-2.36v-12.62a2.51 2.51 0 0 1 2.63-2.37 2.51 2.51 0 0 1 2.63 2.37zM912.41 849.6a2.51 2.51 0 0 1-2.63 2.37 2.51 2.51 0 0 1-2.63-2.37V837a2.51 2.51 0 0 1 2.63-2.36 2.51 2.51 0 0 1 2.63 2.36zM904.9 849.6a2.51 2.51 0 0 1-2.63 2.37 2.5 2.5 0 0 1-2.63-2.37V837a2.5 2.5 0 0 1 2.63-2.36 2.51 2.51 0 0 1 2.63 2.36zM897.38 849.6a2.5 2.5 0 0 1-2.63 2.37 2.51 2.51 0 0 1-2.63-2.37V837a2.51 2.51 0 0 1 2.63-2.36 2.5 2.5 0 0 1 2.63 2.36zM687 857.12a2.51 2.51 0 0 1-2.63 2.37 2.51 2.51 0 0 1-2.63-2.37V844.5a2.51 2.51 0 0 1 2.63-2.37 2.51 2.51 0 0 1 2.63 2.37zM679.49 857.12a2.51 2.51 0 0 1-2.63 2.36 2.5 2.5 0 0 1-2.63-2.36V844.5a2.5 2.5 0 0 1 2.63-2.37 2.51 2.51 0 0 1 2.63 2.37zM672 857.12a2.51 2.51 0 0 1-2.63 2.36 2.51 2.51 0 0 1-2.63-2.36V844.5a2.51 2.51 0 0 1 2.63-2.37 2.51 2.51 0 0 1 2.63 2.37zM762.89 797a2.51 2.51 0 0 1-2.63 2.37 2.51 2.51 0 0 1-2.63-2.37v-12.62a2.51 2.51 0 0 1 2.63-2.36 2.51 2.51 0 0 1 2.63 2.36zM755.37 797a2.5 2.5 0 0 1-2.63 2.37 2.51 2.51 0 0 1-2.63-2.37v-12.62a2.51 2.51 0 0 1 2.63-2.37 2.5 2.5 0 0 1 2.63 2.37zM747.86 797a2.51 2.51 0 0 1-2.63 2.37 2.51 2.51 0 0 1-2.63-2.37v-12.62a2.51 2.51 0 0 1 2.63-2.37 2.51 2.51 0 0 1 2.63 2.37zM729.83 744.4a2.51 2.51 0 0 1-2.63 2.37 2.51 2.51 0 0 1-2.63-2.37v-12.62a2.51 2.51 0 0 1 2.63-2.37 2.51 2.51 0 0 1 2.63 2.37zM722.31 744.4a2.5 2.5 0 0 1-2.62 2.37 2.51 2.51 0 0 1-2.64-2.37v-12.62a2.51 2.51 0 0 1 2.64-2.36 2.5 2.5 0 0 1 2.62 2.36zM714.8 744.4a2.51 2.51 0 0 1-2.63 2.37 2.51 2.51 0 0 1-2.63-2.37v-12.62a2.51 2.51 0 0 1 2.63-2.36 2.51 2.51 0 0 1 2.63 2.36z" fill="#bd302c"/><path fill="#e5a74f" d="M140.01 896.13H1784v187.09H140.01z"/><path d="M140 896.13v187.09h58.6v-115c0-20.74 21.34-37.55 47.66-37.55h1431.47c26.32 0 47.66 16.81 47.66 37.55v115H1784V896.13z" fill="#bc8940"/><path fill="#b36e38" d="M140.01 1035.13H1784v5.26H140.01zM140.01 967.51H1784v5.26H140.01z"/><path d="M1798.27 910.4v-9.51c0-10.52-30.74-19-68.65-19H194.38c-37.91 0-68.65 8.52-68.65 19v9.51z" fill="#aa3b24"/><path d="M127.89 896.13a7 7 0 0 0-2.16 4.76v9.51h1672.54v-9.51a7 7 0 0 0-2.16-4.76z" fill="#7b2b1a"/><path fill="#e23836" d="M524.7 882.6h874.59v200.61H524.7z"/><path d="M1375.37 917.54c0 4.36-4.41 7.89-9.85 7.89H557.28c-5.44 0-9.85-3.53-9.85-7.89 0-4.35 4.41-7.89 9.85-7.89h808.24c5.44 0 9.85 3.54 9.85 7.89z" fill="#bd302c"/><path fill="#fff" d="M1380.17 965.92l-35.09 16.75-35.09-16.75 35.09-16.76 35.09 16.76z"/><path fill="#fff" d="M1380.17 932.46l-35.09 16.75-35.09-16.75 35.09-16.76 35.09 16.76z"/><path fill="#fff" d="M1380.17 898.99l-35.09 16.76-35.09-16.76 35.09-16.75 35.09 16.75zM1380.17 1066.31l-35.09 16.75-35.09-16.75 35.09-16.76 35.09 16.76z"/><path fill="#fff" d="M1380.17 1032.85l-35.09 16.75-35.09-16.75 35.09-16.76 35.09 16.76z"/><path fill="#fff" d="M1380.17 999.38l-35.09 16.76-35.09-16.76 35.09-16.75 35.09 16.75zM1380.51 882.6h8.27v200.61h-8.27zM1301.62 882.6h8.27v200.61h-8.27zM611.88 965.92l-35.09 16.75-35.08-16.75 35.08-16.76 35.09 16.76z"/><path fill="#fff" d="M611.88 932.46l-35.09 16.75-35.08-16.75 35.08-16.76 35.09 16.76z"/><path fill="#fff" d="M611.88 898.99l-35.09 16.76-35.08-16.76 35.08-16.75 35.09 16.75zM611.88 1066.31l-35.09 16.75-35.08-16.75 35.08-16.76 35.09 16.76z"/><path fill="#fff" d="M611.88 1032.85l-35.09 16.75-35.08-16.75 35.08-16.76 35.09 16.76z"/><path fill="#fff" d="M611.88 999.38l-35.09 16.76-35.08-16.76 35.08-16.75 35.09 16.75zM612.61 882.6h8.27v200.61h-8.27z"/><path fill="#fff" d="M533.72 882.6h8.27v200.61h-8.27z"/><path d="M1286.59 1020.94c0 1.31-1.34 2.37-3 2.37s-3-1.06-3-2.37v-12.64c0-1.31 1.34-2.37 3-2.37 1.67 0 3 1.06 3 2.37zM1278.33 1020.94c0 1.31-1.35 2.37-3 2.37-1.66 0-3-1.06-3-2.37v-12.64c0-1.3 1.35-2.36 3-2.36 1.66 0 3 1.06 3 2.36zM1270.06 1020.94c0 1.31-1.35 2.37-3 2.37-1.66 0-3-1.06-3-2.37v-12.64c0-1.3 1.34-2.36 3-2.36s3 1.06 3 2.36zM1163.37 945c0 1.31-1.35 2.37-3 2.37-1.66 0-3-1.06-3-2.37v-12.59c0-1.31 1.34-2.37 3-2.37s3 1.06 3 2.37zM1154.35 945c0 1.31-1.35 2.37-3 2.37-1.66 0-3-1.06-3-2.37v-12.59c0-1.31 1.34-2.37 3-2.37s3 1.06 3 2.37zM1146.08 945c0 1.31-1.34 2.37-3 2.37s-3-1.06-3-2.37v-12.59c0-1.31 1.35-2.37 3-2.37 1.66 0 3 1.06 3 2.37zM1134.06 1035.22c0 1.3-1.34 2.37-3 2.37s-3-1.07-3-2.37v-12.64c0-1.31 1.35-2.37 3-2.37 1.66 0 3 1.06 3 2.37zM1125.8 1035.22c0 1.3-1.35 2.37-3 2.37-1.66 0-3-1.07-3-2.37v-12.64c0-1.31 1.34-2.37 3-2.37s3 1.06 3 2.37zM1117.53 1035.22c0 1.3-1.34 2.37-3 2.37s-3-1.07-3-2.37v-12.64c0-1.31 1.35-2.37 3-2.37 1.66 0 3 1.06 3 2.37zM1086.73 975.1c0 1.31-1.35 2.37-3 2.37-1.66 0-3-1.06-3-2.37v-12.64c0-1.3 1.34-2.36 3-2.36s3 1.06 3 2.36zM1078.46 975.1c0 1.31-1.34 2.37-3 2.37s-3-1.06-3-2.37v-12.63c0-1.31 1.35-2.37 3-2.37 1.66 0 3 1.06 3 2.37zM1069.45 975.1c0 1.31-1.35 2.37-3 2.37-1.66 0-3-1.06-3-2.37v-12.63c0-1.31 1.35-2.37 3-2.37 1.66 0 3 1.06 3 2.37zM877.1 937.53c0 1.31-1.35 2.37-3 2.37-1.66 0-3-1.06-3-2.37v-12.64c0-1.3 1.35-2.36 3-2.36 1.66 0 3 1.06 3 2.36zM868.83 937.53c0 1.31-1.34 2.37-3 2.37-1.67 0-3-1.06-3-2.37v-12.64c0-1.31 1.34-2.37 3-2.37s3 1.06 3 2.37zM859.81 937.53c0 1.31-1.34 2.37-3 2.37s-3-1.06-3-2.37v-12.64c0-1.3 1.35-2.36 3-2.36 1.66 0 3 1.06 3 2.36zM877.1 1020.19c0 1.31-1.35 2.37-3 2.37-1.66 0-3-1.06-3-2.37v-12.64c0-1.31 1.35-2.37 3-2.37 1.66 0 3 1.06 3 2.37zM868.83 1020.19c0 1.31-1.34 2.37-3 2.37-1.67 0-3-1.06-3-2.37v-12.64c0-1.31 1.34-2.37 3-2.37s3 1.06 3 2.37zM859.81 1020.19c0 1.31-1.34 2.37-3 2.37s-3-1.06-3-2.37v-12.64c0-1.31 1.35-2.37 3-2.37 1.66 0 3 1.06 3 2.37zM905.65 1050.24c0 1.31-1.35 2.37-3 2.37-1.66 0-3-1.06-3-2.37v-12.63c0-1.31 1.34-2.37 3-2.37s3 1.06 3 2.37zM897.38 1050.24c0 1.31-1.34 2.37-3 2.37s-3-1.06-3-2.37v-12.63c0-1.31 1.35-2.37 3-2.37 1.66 0 3 1.06 3 2.37zM888.37 1050.24c0 1.31-1.35 2.37-3 2.37-1.66 0-3-1.06-3-2.37v-12.63c0-1.31 1.34-2.37 3-2.37s3 1.06 3 2.37zM647.93 1057.76c0 1.31-1.35 2.37-3 2.37-1.66 0-3-1.06-3-2.37v-12.64c0-1.3 1.34-2.36 3-2.36s3 1.06 3 2.36zM639.66 1057.76c0 1.31-1.34 2.37-3 2.37s-3-1.06-3-2.37v-12.64c0-1.3 1.35-2.36 3-2.36 1.66 0 3 1.06 3 2.36zM631.4 1057.76c0 1.31-1.35 2.37-3 2.37-1.66 0-3-1.06-3-2.37v-12.64c0-1.3 1.34-2.36 3-2.36s3 1.06 3 2.36zM735.09 997.64c0 1.31-1.35 2.37-3 2.37-1.66 0-3-1.06-3-2.37V985c0-1.31 1.34-2.37 3-2.37s3 1.06 3 2.37zM726.07 997.64c0 1.31-1.34 2.37-3 2.37s-3-1.06-3-2.37V985c0-1.31 1.35-2.37 3-2.37 1.66 0 3 1.06 3 2.37zM717.81 997.64c0 1.31-1.35 2.37-3 2.37-1.66 0-3-1.06-3-2.37V985c0-1.31 1.34-2.37 3-2.37s3 1.06 3 2.37zM696.77 945c0 1.31-1.35 2.37-3 2.37-1.66 0-3-1.06-3-2.37v-12.59c0-1.31 1.34-2.37 3-2.37s3 1.06 3 2.37zM688.5 945c0 1.31-1.34 2.37-3 2.37s-3-1.06-3-2.37v-12.59c0-1.31 1.35-2.37 3-2.37 1.66 0 3 1.06 3 2.37zM679.49 945c0 1.31-1.35 2.37-3 2.37-1.66 0-3-1.06-3-2.37v-12.59c0-1.31 1.34-2.37 3-2.37s3 1.06 3 2.37z" fill="#bd302c"/></svg>