<svg data-name="Capa 1" xmlns="http://www.w3.org/2000/svg" viewBox="240 0 1440 1080"><defs><pattern id="Alacena_svg__a" data-name="SVGID 1" width="119.11" height="119.11" patternTransform="matrix(1 0 0 -.49 1044.06 200.62)" patternUnits="userSpaceOnUse" viewBox="0 0 119.11 119.11"><path fill="none" d="M0 0h119.11v119.11H0z"/><path fill="none" d="M0 0h119.11v119.11H0V0z"/><path d="M3.54 3.54l112 112" fill="none" stroke="#778184" stroke-miterlimit="10" stroke-width="10"/></pattern><pattern id="Alacena_svg__b" data-name="SVGID 2" width="119.11" height="119.11" patternTransform="matrix(1 0 0 -.43 1044.06 909.18)" patternUnits="userSpaceOnUse" viewBox="0 0 119.11 119.11"><path fill="none" d="M0 0h119.11v119.11H0z"/><path fill="none" d="M0 0h119.11v119.11H0V0z"/><path d="M3.54 3.54l112 112" fill="none" stroke="#778184" stroke-miterlimit="10" stroke-width="10"/></pattern></defs><path fill="#667478" d="M1.47.5h1918.77v1080.58H1.47z"/><path d="M621.64 1081.08h678C1444.31 976.23 1538.4 806 1538.4 613.85 1538.4 295.24 1279.72 37 960.63 37S382.85 295.24 382.85 613.85c0 192.15 94.09 362.38 238.79 467.23z" fill="#718085"/><path fill="#616f73" d="M1.47 463.5h1918.77v83.29H1.47zM1.47 934.75h1918.77v83.29H1.47z"/><path fill="#778177" d="M1433.99 80.79h488.51V91.3h-488.51z"/><path fill="#606c66" d="M1433.99 82.29h488.51v6.75h-488.51z"/><path fill="#778177" d="M1433.99 194.85h488.51v10.51h-488.51z"/><path fill="#606c66" d="M1433.99 196.35h488.51v6.75h-488.51z"/><path fill="#778177" d="M1433.99 308.91h488.51v10.51h-488.51z"/><path fill="#606c66" d="M1433.99 310.42h488.51v6.75h-488.51z"/><path fill="#778177" d="M1433.99 422.98h488.51v10.51h-488.51z"/><path fill="#606c66" d="M1433.99 424.48h488.51v6.75h-488.51z"/><path fill="#778177" d="M1433.99 537.04h488.51v10.51h-488.51z"/><path fill="#606c66" d="M1433.99 538.54h488.51v6.75h-488.51z"/><path fill="#778177" d="M1433.99 650.35h488.51v10.51h-488.51z"/><path fill="#606c66" d="M1433.99 652.6h488.51v6.75h-488.51z"/><path fill="#778177" d="M1433.99 764.41h488.51v10.51h-488.51z"/><path fill="#606c66" d="M1433.99 766.66h488.51v6.75h-488.51z"/><path fill="#778177" d="M1433.99 878.47h488.51v10.51h-488.51z"/><path fill="#606c66" d="M1433.99 880.72h488.51v6.75h-488.51z"/><path fill="#778177" d="M1433.99 992.53h488.51v10.51h-488.51z"/><path fill="#606c66" d="M1433.99 994.78h488.51v6.75h-488.51z"/><path fill="#778177" d="M1598.33.5h19.51v81.79h-19.51z"/><path fill="#606c66" d="M1601.33.5h12.76v81.79h-12.76z"/><path fill="#778177" d="M1833.2 317.17h19.51v107.31h-19.51z"/><path fill="#606c66" d="M1836.95 317.17h12.76v107.31h-12.76z"/><path fill="#778177" d="M1533.79 545.29h19.51V652.6h-19.51z"/><path fill="#606c66" d="M1537.54 545.29h12.76V652.6h-12.76z"/><path fill="#778177" d="M1769.42 887.47h19.51v107.31h-19.51z"/><path fill="#606c66" d="M1772.42 887.47h12.76v107.31h-12.76z"/><path d="M1922.5 896.48h-127.94a2.28 2.28 0 1 0 0 4.5h127.94zM1922.5 952.76h-126.83c-2.08 0-3.77 1-3.77 2.25s1.69 2.25 3.77 2.25h126.83zM1922.5 975.27h-126.32c-2.36 0-4.28 1-4.28 2.25s1.92 2.25 4.28 2.25h126.32zM1922.5 1050.31h-179a2.25 2.25 0 0 0 0 4.5h179zM1566.33 1012.79c.57 0 1 1 1 2.25 0 1.24-.45 2.25-1 2.25h-132.48c-.57 0-1-1-1-2.25 0-1.24.45-2.25 1-2.25zM1766.82 910a2.23 2.23 0 0 1 2.22 2.25 2.23 2.23 0 0 1-2.22 2.25h-288.16a2.24 2.24 0 0 1-2.23-2.25 2.24 2.24 0 0 1 2.23-2.25zM1771.89 928.75c.5 0 .91 1 .91 2.25 0 1.24-.41 2.25-.91 2.25h-117c-.5 0-.9-1-.9-2.25s.4-2.25.9-2.25zM1922.5 792.92h-484.12c-3 0-5.48 1-5.48 2.25s2.46 2.26 5.48 2.26h484.12zM1786.52 855.21a2.49 2.49 0 0 1 2.67 2.25 2.49 2.49 0 0 1-2.67 2.25h-344.63a2.48 2.48 0 0 1-2.66-2.25 2.48 2.48 0 0 1 2.66-2.25zM1840.08 737.39c1.72 0 3.12 1 3.12 2.25s-1.4 2.26-3.12 2.26H1436c-1.73 0-3.13-1-3.13-2.26 0-1.24 1.4-2.25 3.13-2.25zM1922.5 687.12h-264.23c-2.32 0-4.19 1-4.19 2.25s1.87 2.25 4.19 2.25h264.23zM1900.75 630.09a2.48 2.48 0 0 1 2.66 2.25 2.48 2.48 0 0 1-2.66 2.25h-344.58a2.48 2.48 0 0 1-2.66-2.25 2.48 2.48 0 0 1 2.66-2.25zM1740 447a2.29 2.29 0 0 1 2.33 2.25 2.29 2.29 0 0 1-2.33 2.25h-301.1a2.3 2.3 0 0 1-2.33-2.25 2.3 2.3 0 0 1 2.33-2.25zM1922.5 334.43h-64.3c-2 0-3.69 1-3.69 2.25s1.65 2.25 3.69 2.25h64.3zM1922.5 361.44h-66.64c-.74 0-1.33 1-1.33 2.25s.59 2.26 1.33 2.26h66.64zM1827.32 399.71c.89 0 1.62 1 1.62 2.25s-.73 2.26-1.62 2.26H1616.7c-.9 0-1.63-1-1.63-2.26 0-1.24.73-2.25 1.63-2.25zM1827.1 381.7a2.08 2.08 0 0 1 1.84 2.26 2.08 2.08 0 0 1-1.84 2.25h-238.46a2.08 2.08 0 0 1-1.84-2.25 2.09 2.09 0 0 1 1.84-2.26zM1922.5 224.12h-345c-2.35 0-4.26 1-4.26 2.25s1.91 2.25 4.26 2.25h345zM1922.5 269.89h-136.8a2.29 2.29 0 1 0 0 4.51h136.8zM1922.5 140.82h-49.68c-2.46 0-4.45 1-4.45 2.26s2 2.25 4.45 2.25h49.68zM1922.5 53.78h-302a2.28 2.28 0 1 0 0 4.5h302zM1922.5 35h-108.83a2.49 2.49 0 0 0-2.67 2.25 2.49 2.49 0 0 0 2.67 2.25h108.83z" fill="#646f69"/><path fill="#778177" d="M2.23 80.79h1432.51V91.3H2.23z"/><path fill="#606c66" d="M2.23 82.29h1432.51v6.75H2.23z"/><path fill="#778177" d="M2.23 194.85h1432.51v10.51H2.23z"/><path fill="#606c66" d="M2.23 196.35h1432.51v6.75H2.23z"/><path fill="#778177" d="M2.23 308.91h1432.51v10.51H2.23z"/><path fill="#606c66" d="M2.23 310.42h1432.51v6.75H2.23z"/><path fill="#778177" d="M2.23 422.98h1432.51v10.51H2.23z"/><path fill="#606c66" d="M2.23 424.48h1432.51v6.75H2.23z"/><path fill="#778177" d="M2.23 537.04h1432.51v10.51H2.23z"/><path fill="#606c66" d="M2.23 538.54h1432.51v6.75H2.23z"/><path fill="#778177" d="M2.23 650.35h1432.51v10.51H2.23z"/><path fill="#606c66" d="M2.23 652.6h1432.51v6.75H2.23z"/><path fill="#778177" d="M2.23 764.41h1432.51v10.51H2.23z"/><path fill="#606c66" d="M2.23 766.66h1432.51v6.75H2.23z"/><path fill="#778177" d="M2.23 878.47h1432.51v10.51H2.23z"/><path fill="#606c66" d="M2.23 880.72h1432.51v6.75H2.23z"/><path fill="#778177" d="M2.23 992.53h1432.51v10.51H2.23z"/><path fill="#606c66" d="M2.23 994.78h1432.51v6.75H2.23z"/><path fill="#778177" d="M594.29 1001.53h19.51v79.54h-19.51z"/><path fill="#606c66" d="M598.04 1001.53h12.76v79.54h-12.76z"/><path fill="#778177" d="M166.56.5h19.51v81.79h-19.51z"/><path fill="#606c66" d="M170.31.5h12.76v81.79h-12.76z"/><path fill="#778177" d="M1022.77 89.05h19.51v107.31h-19.51z"/><path fill="#606c66" d="M1025.77 89.05h12.76v107.31h-12.76z"/><path fill="#778177" d="M701.6 203.11h19.51v107.31H701.6z"/><path fill="#606c66" d="M705.35 203.11h12.76v107.31h-12.76z"/><path fill="#778177" d="M402.19 317.17h19.51v107.31h-19.51z"/><path fill="#606c66" d="M405.19 317.17h12.76v107.31h-12.76z"/><path fill="#778177" d="M1289.91 431.23h19.51v107.31h-19.51z"/><path fill="#606c66" d="M1293.66 431.23h12.76v107.31h-12.76z"/><path fill="#778177" d="M102.03 545.29h19.51V652.6h-19.51z"/><path fill="#606c66" d="M105.78 545.29h12.76V652.6h-12.76z"/><path fill="#778177" d="M772.89 659.35h19.51v107.31h-19.51z"/><path fill="#606c66" d="M775.89 659.35h12.76v107.31h-12.76z"/><path fill="#778177" d="M1076.05 773.41h19.51v107.31h-19.51z"/><path fill="#606c66" d="M1079.8 773.41h12.76v107.31h-12.76z"/><path fill="#778177" d="M337.65 887.47h19.51v107.31h-19.51z"/><path fill="#606c66" d="M341.41 887.47h12.76v107.31h-12.76z"/><path d="M707.64 896.48a2.48 2.48 0 0 1 2.66 2.25 2.48 2.48 0 0 1-2.66 2.25H363.07a2.49 2.49 0 0 1-2.67-2.25 2.49 2.49 0 0 1 2.67-2.25zM851.26 952.76c2.08 0 3.77 1 3.77 2.25 0 1.24-1.68 2.25-3.77 2.25H364.17c-2.08 0-3.77-1-3.77-2.25 0-1.24 1.69-2.25 3.77-2.25zM918.34 975.27c2.36 0 4.28 1 4.28 2.25s-1.92 2.25-4.28 2.25H364.68c-2.36 0-4.28-1-4.28-2.25 0-1.24 1.92-2.25 4.28-2.25zM1432.39 926.49c.36 0 .64 1 .64 2.25s-.28 2.26-.64 2.26h-83.52c-.35 0-.64-1-.64-2.26 0-1.24.29-2.25.64-2.25zM775.5 1030.05c.68 0 1.24 1 1.24 2.25 0 1.24-.56 2.25-1.24 2.25H615.27c-.68 0-1.23-1-1.23-2.25 0-1.24.55-2.25 1.23-2.25zM1427.09 1066.07a2.58 2.58 0 0 1 2.82 2.25 2.58 2.58 0 0 1-2.82 2.25h-364.67a2.59 2.59 0 0 1-2.82-2.25 2.59 2.59 0 0 1 2.82-2.25zM594.47 1050.31a2.22 2.22 0 0 1 2.18 2.25 2.22 2.22 0 0 1-2.18 2.25H312a2.22 2.22 0 0 1-2.19-2.25 2.22 2.22 0 0 1 2.19-2.25zM134.9 1012.79c.57 0 1 1 1 2.25 0 1.24-.45 2.25-1 2.25H2.42c-.56 0-1-1-1-2.25 0-1.24.46-2.25 1-2.25zM335.38 910a2.23 2.23 0 0 1 2.23 2.25 2.24 2.24 0 0 1-2.23 2.25H47.23a2.24 2.24 0 0 1-2.23-2.26 2.24 2.24 0 0 1 2.23-2.24zM340.46 928.75c.5 0 .9 1 .9 2.25 0 1.24-.4 2.25-.9 2.25h-117c-.49 0-.9-1-.9-2.25s.41-2.25.9-2.25zM715.84 792.92c3 0 5.48 1 5.48 2.25s-2.45 2.26-5.48 2.26H6.89c-3 0-5.48-1-5.48-2.26 0-1.24 2.45-2.25 5.48-2.25zM355.09 855.21a2.49 2.49 0 0 1 2.67 2.25 2.49 2.49 0 0 1-2.67 2.25H10.46a2.48 2.48 0 0 1-2.66-2.25 2.48 2.48 0 0 1 2.66-2.25zM1073 826.69c.71 0 1.29 1 1.29 2.25 0 1.24-.58 2.25-1.29 2.25H905.68c-.71 0-1.29-1-1.29-2.25 0-1.24.58-2.25 1.29-2.25zM1200.81 795.17c.43 0 .78 1 .78 2.25s-.35 2.26-.78 2.26h-101.15c-.44 0-.79-1-.79-2.26 0-1.24.35-2.25.79-2.25zM1164.18 816.94c.28 0 .5 1 .5 2.25 0 1.24-.22 2.25-.5 2.25h-64.81c-.28 0-.51-1-.51-2.25s.23-2.25.51-2.25zM1310.87 866.46c.9 0 1.63 1 1.63 2.25s-.73 2.25-1.63 2.25h-210.36c-.9 0-1.63-1-1.63-2.25 0-1.24.73-2.25 1.63-2.25zM408.65 737.39c1.72 0 3.12 1 3.12 2.25s-1.4 2.26-3.12 2.26H4.53c-1.72 0-3.12-1-3.12-2.26 0-1.24 1.4-2.25 3.12-2.25zM768.72 687.12c2.32 0 4.19 1 4.19 2.25 0 1.24-1.87 2.25-4.19 2.25H226.77c-2.31 0-4.19-1-4.19-2.25s1.88-2.25 4.19-2.25zM924.27 739.64c.56 0 1 1 1 2.26 0 1.24-.46 2.25-1 2.25h-133c-.57 0-1-1-1-2.25s.46-2.26 1-2.26zM1427.59 675.11a2.3 2.3 0 0 1 2.35 2.25 2.3 2.3 0 0 1-2.35 2.25h-304.65a2.3 2.3 0 0 1-2.35-2.25 2.3 2.3 0 0 1 2.35-2.25zM1429 689.37c.49 0 .89 1 .89 2.25 0 1.24-.4 2.25-.89 2.25h-115.35c-.49 0-.89-1-.89-2.25 0-1.24.4-2.25.89-2.25zM1138.85 565.55c.73 0 1.33 1 1.33 2.25s-.6 2.25-1.33 2.25H966.56c-.73 0-1.33-1-1.33-2.25 0-1.24.6-2.25 1.33-2.25zM469.32 630.09a2.48 2.48 0 0 1 2.66 2.25 2.48 2.48 0 0 1-2.66 2.25H124.75a2.49 2.49 0 0 1-2.67-2.25 2.49 2.49 0 0 1 2.67-2.25zM308.56 447a2.29 2.29 0 0 1 2.33 2.25 2.29 2.29 0 0 1-2.33 2.25H7.47a2.29 2.29 0 0 1-2.33-2.25A2.29 2.29 0 0 1 7.47 447zM1289.48 447c.29 0 .52 1 .52 2.25 0 1.24-.24 2.25-.52 2.25h-67.55c-.29 0-.52-1-.52-2.25 0-1.24.23-2.25.52-2.25zM1288.66 513c.74 0 1.33 1 1.33 2.26 0 1.24-.59 2.25-1.33 2.25h-172.28c-.74 0-1.33-1-1.33-2.25s.59-2.26 1.33-2.26zM1427.3 402a2.46 2.46 0 0 1 2.62 2.26 2.46 2.46 0 0 1-2.62 2.25h-338.76a2.46 2.46 0 0 1-2.62-2.25 2.46 2.46 0 0 1 2.62-2.26zM903.37 334.43c2 0 3.69 1 3.69 2.25 0 1.24-1.66 2.25-3.69 2.25H426.7c-2 0-3.68-1-3.68-2.25 0-1.24 1.64-2.25 3.68-2.25zM596.62 361.44c.73 0 1.33 1 1.33 2.25s-.6 2.26-1.33 2.26H424.36c-.73 0-1.33-1-1.33-2.26 0-1.24.6-2.25 1.33-2.25zM395.88 399.71c.9 0 1.63 1 1.63 2.25s-.73 2.26-1.63 2.26H185.27c-.9 0-1.63-1-1.63-2.26 0-1.24.73-2.25 1.63-2.25zM395.67 381.7a2.09 2.09 0 0 1 1.84 2.26 2.08 2.08 0 0 1-1.84 2.25H157.21a2.08 2.08 0 0 1-1.84-2.25 2.09 2.09 0 0 1 1.84-2.26zM697.24 224.12c2.35 0 4.26 1 4.26 2.25 0 1.24-1.91 2.25-4.26 2.25H146c-2.36 0-4.27-1-4.27-2.25 0-1.24 1.91-2.25 4.27-2.25zM698.82 269.89a2.49 2.49 0 0 1 2.67 2.26 2.49 2.49 0 0 1-2.67 2.25H354.2a2.49 2.49 0 0 1-2.67-2.25 2.49 2.49 0 0 1 2.67-2.26zM926.39 287.15c.87 0 1.57 1 1.57 2.25s-.7 2.26-1.57 2.26H723.06c-.87 0-1.57-1-1.57-2.26 0-1.24.7-2.25 1.57-2.25zM1068.77 254.89a2.48 2.48 0 0 1 2.66 2.25 2.49 2.49 0 0 1-2.66 2.25H724.14a2.49 2.49 0 0 1-2.67-2.25 2.49 2.49 0 0 1 2.67-2.25zM824.5 239.88c.43 0 .78 1 .78 2.25 0 1.24-.35 2.25-.78 2.25H722.3c-.44 0-.79-1-.79-2.25 0-1.24.35-2.25.79-2.25zM1429.94 165.59a2.37 2.37 0 0 1 2.47 2.25 2.37 2.37 0 0 1-2.47 2.25h-319.87a2.37 2.37 0 0 1-2.47-2.25 2.37 2.37 0 0 1 2.47-2.25zM1017.44 140.82c2.46 0 4.45 1 4.45 2.26 0 1.24-2 2.25-4.45 2.25H441.37c-2.46 0-4.46-1-4.46-2.25s2-2.26 4.46-2.26zM1020.19 113.81a2 2 0 0 1 1.73 2.25 2 2 0 0 1-1.73 2.25h-224a2 2 0 0 1-1.73-2.25 2 2 0 0 1 1.73-2.25zM533.49 53.78a2.48 2.48 0 0 1 2.66 2.22 2.48 2.48 0 0 1-2.66 2.25H189a2.48 2.48 0 0 1-2.68-2.25 2.48 2.48 0 0 1 2.68-2.22zM726.74 35a2.48 2.48 0 0 1 2.66 2.25 2.48 2.48 0 0 1-2.66 2.25H382.17a2.48 2.48 0 0 1-2.66-2.25 2.48 2.48 0 0 1 2.66-2.25zM1425.68 56c.6 0 1.09 1 1.09 2.25 0 1.24-.49 2.25-1.09 2.25h-140.9c-.6 0-1.09-1-1.09-2.25 0-1.24.49-2.25 1.09-2.25z" fill="#646f69"/><path d="M1516.51 1081.08l12-130.49c0-5.43-6.34-9.84-14.17-9.84h-34c-7.82 0-14.17 4.41-14.17 9.84l12 130.49z" fill="#fdfeff"/><ellipse cx="1497.31" cy="1051.95" rx="11.88" ry="11.86" fill="#7b8384"/><path d="M441.78 1081.08l12-130.49c0-5.43-6.34-9.84-14.17-9.84h-34c-7.82 0-14.17 4.41-14.17 9.84l12 130.49z" fill="#fdfeff"/><ellipse cx="422.58" cy="1051.95" rx="11.88" ry="11.86" fill="#7b8384"/><path fill="#bcc0c1" d="M1.47 928.75h1918.77v54.03H1.47z"/><path fill="url(#Alacena_svg__a)" d="M1.47 928.75h1918.77v54.03H1.47z"/><path d="M1513.68 640c0 2.84-3.33 5.14-7.44 5.14h-17.85c-4.11 0-7.45-2.3-7.45-5.14l-14.87-161.38c0-5.42 6.36-9.82 14.2-9.82h34.08c7.84 0 14.2 4.4 14.2 9.82z" fill="#fdfeff"/><ellipse cx="1497.31" cy="581.25" rx="11.88" ry="11.86" fill="#7b8384"/><path d="M439 640c0 2.84-3.33 5.14-7.44 5.14h-17.9c-4.11 0-7.44-2.3-7.44-5.14l-14.87-161.43c0-5.42 6.35-9.82 14.2-9.82h34.07c7.84 0 14.2 4.4 14.2 9.82z" fill="#fdfeff"/><ellipse cx="422.58" cy="581.25" rx="11.88" ry="11.86" fill="#7b8384"/><path fill="#bcc0c1" d="M1.47 463.5h1918.77v48.78H1.47z"/><path fill="url(#Alacena_svg__b)" d="M1.47 463.5h1918.77v48.78H1.47z"/><ellipse cx="960.63" cy="192.68" rx="56.55" ry="56.47" fill="#f6d74b"/><ellipse cx="960.62" cy="181.45" rx="43.58" ry="43.51" fill="#fff"/><ellipse cx="960.63" cy="113.4" rx="23.35" ry="23.31" fill="#4f4f4f"/><path d="M983.94 110.81h-46.63A5.39 5.39 0 0 0 932 115a5.32 5.32 0 0 0 3.58 6.14 5.29 5.29 0 0 0 0 10.09 5.3 5.3 0 0 0-3.58 6.13 5.39 5.39 0 0 0 5.34 4.21h46.63a5.38 5.38 0 0 0 5.34-4.21 5.3 5.3 0 0 0-3.58-6.13 5.29 5.29 0 0 0 0-10.09 5.31 5.31 0 0 0 3.58-6.14 5.39 5.39 0 0 0-5.37-4.19z" fill="#616f73"/><path d="M937.35 110.81h46.34a5.39 5.39 0 0 0 5.43-4.61 5.26 5.26 0 0 0-5.22-5.9h-46.38a5.36 5.36 0 0 0-5.31 4.1 5.27 5.27 0 0 0 5.14 6.41z" fill="#616f73"/><path fill="none" stroke="#827f75" stroke-miterlimit="10" stroke-width="1.501" d="M968.66 141.08l9.72 23.42-11.06 12.64 23.8-7.76-18.77 17.97h11.61l5.27 8.9M952.57 141.08l-9.72 23.42 11.06 12.64-23.79-7.76 18.77 17.97h-11.61l-5.28 8.9"/><path d="M986.76 139a1.84 1.84 0 0 1-1.8 1.87h-48.69a1.83 1.83 0 0 1-1.8-1.87 1.84 1.84 0 0 1 1.8-1.88H985a1.84 1.84 0 0 1 1.8 1.88zM986.76 129.19a1.84 1.84 0 0 1-1.8 1.88h-48.69a1.84 1.84 0 0 1-1.8-1.88 1.84 1.84 0 0 1 1.8-1.87H985a1.84 1.84 0 0 1 1.8 1.87zM986.76 118.69a1.84 1.84 0 0 1-1.8 1.87h-48.69a1.84 1.84 0 0 1-1.8-1.87 1.84 1.84 0 0 1 1.8-1.88H985a1.84 1.84 0 0 1 1.8 1.88zM986.76 108.93a1.84 1.84 0 0 1-1.8 1.88h-48.69a1.84 1.84 0 0 1-1.8-1.88 1.84 1.84 0 0 1 1.8-1.87H985a1.84 1.84 0 0 1 1.8 1.87z" fill="#4c5b5f"/><ellipse cx="985.59" cy="222.7" rx="11.57" ry="11.55" fill="#fff"/><path d="M349.75 326.66c0-29.71-2.2-55.57-14.61-69a182.4 182.4 0 0 1 16.79-38.05h144.23A182.4 182.4 0 0 1 513 257.67c-12.41 13.42-14.61 39.28-14.61 69 0 30.94 9.94 57.71 24.41 70.59-8.37 26.59-21.56 49.23-37.91 65.5H363.25c-16.35-16.27-29.54-38.91-37.91-65.5 14.46-12.89 24.41-39.66 24.41-70.6z" fill="#d12828"/><path d="M349.8 326.66c0-29.71-2.2-55.57-14.6-69a181.88 181.88 0 0 1 16.8-38.04h66.58a88 88 0 0 0-17.23 23.94 128.11 128.11 0 0 0-12.51 38.86c-6 41.85 8.35 83.22 12.52 124.51 1.88 18.62 4.13 36.62 11.08 54.14.22.56.45 1.12.68 1.68h-49.8c-16.36-16.27-29.54-38.91-37.91-65.5 14.45-12.88 24.39-39.65 24.39-70.59z" fill="#b02324"/><path d="M384.06 426c-12.42-19-20.25-46.79-20.25-77.7 0-32.12 8.45-60.83 21.73-79.89h77c13.28 19.06 21.73 47.77 21.73 79.89 0 30.91-7.83 58.67-20.26 77.7z" fill="#fff"/><path d="M388.82 416.22C377.88 399.46 371 375 371 347.77c0-28.29 7.44-53.58 19.14-70.37H458c11.69 16.79 19.14 42.08 19.14 70.37 0 27.24-6.9 51.69-17.85 68.45z" fill="none" stroke="#d12828" stroke-miterlimit="10" stroke-width="6.003"/><path d="M478 230.57c20.24 0 20.24 6.06 25.3 24.25-6.07-2-23.27-10.11-28.33-15.16-7.09-6.06-9.11-12.12 5.06-9.09" fill="#d17071"/><path d="M487.6 219.62c.08-1 .13-1.93.13-2.91V197a33.72 33.72 0 0 0-33.81-33.62h-59.18A33.72 33.72 0 0 0 360.92 197v19.75c0 1 .05 1.95.13 2.91z" fill="#6b1516"/><path fill="#3c1214" d="M360.92 190.35h126.82v2.25H360.92z"/><path fill="#3c1214" d="M478.73 191.1h3v27.76h-3zM471.98 191.1h3v27.76h-3zM465.22 191.1h3v27.76h-3zM458.47 191.1h3v27.76h-3zM451.72 191.1h3v27.76h-3zM444.96 191.1h3v27.76h-3zM431.45 191.1h3v27.76h-3zM438.21 191.1h3v27.76h-3zM424.7 191.1h3v27.76h-3zM417.95 191.1h3v27.76h-3zM411.19 191.1h3v27.76h-3zM404.44 191.1h3v27.76h-3zM397.69 191.1h3v27.76h-3zM390.93 191.1h3v27.76h-3zM384.18 191.1h3v27.76h-3zM377.43 191.1h3v27.76h-3zM370.67 191.1h3v27.76h-3zM363.92 191.1h3v27.76h-3z"/><path d="M414.14 357.6c-11.47-2.69-19.56 6.07-20.24 17.52-.67 17.51 17.54 27.62 33.06 26.27 41.15-4 33.06-65.34 3.37-54.56-7.42 2.69-12.14 16.16-22.26 8.08" fill="#d12828"/><path d="M415.34 356.35c-.68 1.35-8.1.68-11.47 0 6.74 0 8.77 4 4.72 10.11 3.37-4.72 8.09-6.06 10.79 0 0-2 1.35-5.39.68-7.41 3.37 0 6.74-2 9.44-3.37-2 0-5.39-2.69-8.09-2.69 1.35-2.7 1.35-6.07 2.7-8.76a30.29 30.29 0 0 0-6.75 9.43c-2.7-.67-5.4 0-8.1-.67a10.55 10.55 0 0 0 5.4 4" fill="#386732"/><path d="M403.18 338.18h-3l-2.91-10c-.06-.19-.15-.61-.27-1.27v11.26h-2.26v-22.5H397v10.5c.06-.29.15-.7.28-1.24l2.76-9.26h2.88l-3.39 10.74zM410.44 338.18h-6v-22.51h5.25v3.75h-3.75v4.5h3.75v4.5h-3.75v5.26h4.5v4.5zM418.7 319.42h-3v18.76h-2.26v-18.76h-2.25v-4.5h7.51zM426.2 337.19a3.6 3.6 0 0 1-2.82 1.22c-1.51 0-2.7-1-3.57-3.1a21.57 21.57 0 0 1-1.3-8.24 22.91 22.91 0 0 1 1.46-8.89c1-2.27 2.24-3.41 3.8-3.41a3.63 3.63 0 0 1 2.43.84v5a2.78 2.78 0 0 0-2.26-1.37c-.92 0-1.67.67-2.24 2a18 18 0 0 0-.05 10.77c.54 1.31 1.26 2 2.17 2a3 3 0 0 0 2.38-1.47zM436.71 338.18h-2.25v-9h-3.76v9h-2.25v-22.51h2.25v8.25h3.76v-8.25h2.25zM447.21 327.87q0 10.31-4.19 10.3T439 328.12v-13.2h2.25v13.26q0 5.55 1.89 5.55t1.86-5.36v-13.45h2.25v12.95zM451 329.93v8.25h-2.25v-23.26h3.53q3.78 0 3.78 7.29a12.36 12.36 0 0 1-1.09 5.58 3.25 3.25 0 0 1-2.89 2.14zm0-10.51v6.75h.83c1.12 0 1.68-1.14 1.68-3.41s-.56-3.34-1.68-3.34z"/><path d="M446 299.91a7 7 0 0 0 .39-2.26c0-6.38-9-11.55-20.14-11.55s-20.14 5.17-20.14 11.55a7 7 0 0 0 .39 2.26h-10.31v12h60v-12z" fill="#d12828"/><path d="M463.43 449.4l-43.16-31-9.8 7a18.82 18.82 0 0 1-10.88 3.23 19 19 0 0 1-11-3.26l-9.75-7-43.46 31.23a8 8 0 0 0-3.66 6.34 7.83 7.83 0 0 0 3.62 6.31l-.78.56a12 12 0 0 0 3.95.68h122a12.14 12.14 0 0 0 3.93-.67l-1.09-.79c4.89-3.48 4.91-9.16.08-12.63z" fill="#a8b8c6"/><path d="M333.17 448l43.45-31.24-43.45-31.23c-2.93-2.1-4.54-4.89-4.55-7.86a8.35 8.35 0 0 1 .42-2.62 12 12 0 0 0-2.64 7.51v68.84a11.94 11.94 0 0 0 3 7.88 8.18 8.18 0 0 1-.74-3.43c-.03-2.95 1.58-5.74 4.51-7.85z" fill="#8b98a3"/><path d="M331.76 377.56a7.9 7.9 0 0 0 3.66 6.33l55.34 39.77c4.86 3.5 12.75 3.51 17.59 0l55.08-39.58c4.83-3.48 4.81-9.15-.05-12.64l.68-.5a12 12 0 0 0-3.52-.52h-122a11.87 11.87 0 0 0-3.54.58l.38.27a7.8 7.8 0 0 0-3.62 6.29z" fill="#a8b8c6"/><path d="M469.32 374.22c1.93 3.91.73 8.43-3.6 11.54l-43.16 31 43.16 31c4.68 3.36 5.7 8.39 3.07 12.49a12 12 0 0 0 3.94-8.87v-68.8a11.91 11.91 0 0 0-3.41-8.36z" fill="#8b98a3"/><path d="M331.76 455.87a7.91 7.91 0 0 1 3.66-6.33l43.46-31.23-2.12-1.53L333.3 448c-2.92 2.1-4.54 4.88-4.55 7.85a8.34 8.34 0 0 0 .74 3.43 12.12 12.12 0 0 0 5.11 3.45l.78-.56a7.83 7.83 0 0 1-3.62-6.3zM465.55 447.8l-43.16-31-2.12 1.53 43.16 31c4.83 3.47 4.81 9.14-.05 12.64l1.09.78a11.94 11.94 0 0 0 4.15-2.46c2.63-4.1 1.61-9.13-3.07-12.49z" fill="#5c7499"/><path d="M333.3 385.55l43.46 31.23 1.11-.8c.56.62 1.12 1.25 1.72 1.82l-.71.51 9.75 7a19 19 0 0 0 11 3.26 18.82 18.82 0 0 0 10.88-3.23l9.8-7-.51-.36a7 7 0 0 0 1.64-1.88l1 .71 43.16-31c4.33-3.11 5.53-7.63 3.6-11.54a12 12 0 0 0-5.08-3.12l-.69.49c4.86 3.5 4.88 9.17.05 12.65l-55.08 39.58c-4.84 3.48-12.73 3.46-17.59 0L335.43 384a7.91 7.91 0 0 1-3.67-6.33 7.8 7.8 0 0 1 3.62-6.31l-.38-.27a11.94 11.94 0 0 0-5.82 4 8.36 8.36 0 0 0-.43 2.62c.01 2.95 1.63 5.74 4.55 7.84z" fill="#5c7499"/><path d="M377.87 416l-1.11.8 2.12 1.53.71-.51c-.59-.59-1.16-1.22-1.72-1.82zM419.76 418l.51.36 2.12-1.53-1-.72a7 7 0 0 1-1.63 1.89z" fill="#5c7499"/><path d="M460.09 376.08a1.88 1.88 0 0 1-1.88 1.87h-43.68a1.88 1.88 0 0 1-1.88-1.87 1.88 1.88 0 0 1 1.88-1.88h43.68a1.88 1.88 0 0 1 1.88 1.88zM397.73 376.45a2.25 2.25 0 0 1-2.25 2.25h-8a2.26 2.26 0 0 1-2.26-2.25 2.26 2.26 0 0 1 2.26-2.25h8a2.25 2.25 0 0 1 2.25 2.25zM455 459.74a2.26 2.26 0 0 1-2.26 2.26H430.2a2.26 2.26 0 0 1-2.25-2.26 2.25 2.25 0 0 1 2.25-2.25h22.55a2.26 2.26 0 0 1 2.26 2.25z" fill="#fff"/><path d="M388.3 353.35l-43.16-31-9.79 7a20 20 0 0 1-21.85 0l-9.74-7-43.46 31.21a7.94 7.94 0 0 0-3.67 6.33 7.83 7.83 0 0 0 3.62 6.32l-.78.56a12 12 0 0 0 3.95.68h122a11.88 11.88 0 0 0 3.93-.68l-1.09-.78c4.86-3.49 4.87-9.17.04-12.64z" fill="#a8b8c6"/><path d="M258.13 352l43.46-31.24-43.46-31.23c-2.93-2.1-4.54-4.89-4.55-7.85a8.1 8.1 0 0 1 .43-2.63 11.9 11.9 0 0 0-2.65 7.51v68.85a11.94 11.94 0 0 0 3 7.87 8.34 8.34 0 0 1-.74-3.43c-.03-2.96 1.58-5.75 4.51-7.85z" fill="#8b98a3"/><path d="M256.63 281.51a7.91 7.91 0 0 0 3.67 6.33l55.33 39.77c4.86 3.49 12.75 3.51 17.59 0l55.08-39.58c4.83-3.48 4.81-9.15-.05-12.64l.69-.5a12.11 12.11 0 0 0-3.53-.52h-122a12 12 0 0 0-3.55.53l.38.27a7.82 7.82 0 0 0-3.61 6.34z" fill="#a8b8c6"/><path d="M394.28 278.2c1.93 3.91.73 8.43-3.6 11.55l-43.16 31 43.16 31c4.68 3.37 5.7 8.39 3.07 12.49a12 12 0 0 0 3.94-8.86v-68.82a11.93 11.93 0 0 0-3.41-8.36z" fill="#8b98a3"/><path d="M256.63 359.86a7.94 7.94 0 0 1 3.67-6.34l43.46-31.23-2.13-1.53L258.17 352c-2.92 2.1-4.54 4.89-4.55 7.85a8.35 8.35 0 0 0 .75 3.43 12.06 12.06 0 0 0 5.1 3.45l.78-.56a7.83 7.83 0 0 1-3.62-6.31zM390.42 351.78l-43.16-31-2.12 1.53 43.16 31c4.83 3.47 4.82 9.15-.05 12.64l1.09.79a12 12 0 0 0 4.15-2.47c2.64-4.1 1.62-9.12-3.07-12.49z" fill="#5c7499"/><path d="M258.17 289.53l43.46 31.23 1.11-.8c.56.63 1.12 1.25 1.73 1.82l-.72.51 9.75 7a20 20 0 0 0 21.85 0l9.79-7-.5-.36a6.91 6.91 0 0 0 1.63-1.88l1 .71 43.16-31c4.33-3.12 5.53-7.64 3.6-11.55a12 12 0 0 0-5.08-3.12l-.69.5c4.86 3.49 4.88 9.16.05 12.64l-55.09 39.57c-4.84 3.48-12.73 3.47-17.59 0L260.3 288a7.91 7.91 0 0 1-3.67-6.33 7.8 7.8 0 0 1 3.62-6.31l-.38-.27a12 12 0 0 0-5.82 4 8.38 8.38 0 0 0-.43 2.63c.01 2.92 1.63 5.71 4.55 7.81z" fill="#5c7499"/><path d="M302.74 320l-1.11.8 2.13 1.53.71-.51c-.61-.61-1.17-1.23-1.73-1.82zM344.64 321.93l.5.36 2.12-1.53-1-.71a6.91 6.91 0 0 1-1.62 1.88z" fill="#5c7499"/><path d="M385 280a1.88 1.88 0 0 1-1.88 1.88H339.4a1.88 1.88 0 0 1-1.88-1.88 1.88 1.88 0 0 1 1.88-1.87h43.68A1.88 1.88 0 0 1 385 280zM322.61 280.4a2.26 2.26 0 0 1-2.26 2.25h-8a2.26 2.26 0 0 1-2.26-2.25 2.26 2.26 0 0 1 2.26-2.25h8a2.26 2.26 0 0 1 2.26 2.25zM379.88 363.69a2.26 2.26 0 0 1-2.26 2.26h-22.54a2.26 2.26 0 0 1-2.26-2.26 2.26 2.26 0 0 1 2.26-2.25h22.54a2.26 2.26 0 0 1 2.26 2.25z" fill="#fff"/><path d="M313.17 449.4l-43.16-31-9.79 7a20 20 0 0 1-21.84 0l-9.75-7-43.46 31.23a7.94 7.94 0 0 0-3.67 6.37 7.83 7.83 0 0 0 3.62 6.31l-.78.56a12 12 0 0 0 3.95.68h122a12.25 12.25 0 0 0 3.94-.67l-1.09-.79c4.86-3.54 4.86-9.22.03-12.69z" fill="#a8b8c6"/><path d="M183.09 448l43.46-31.24-43.46-31.23c-2.93-2.1-4.54-4.89-4.55-7.86a8.08 8.08 0 0 1 .43-2.62 11.9 11.9 0 0 0-2.65 7.51v68.84a11.94 11.94 0 0 0 3 7.88 8.34 8.34 0 0 1-.74-3.43c-.03-2.95 1.58-5.74 4.51-7.85z" fill="#8b98a3"/><path d="M181.5 377.56a7.91 7.91 0 0 0 3.67 6.33l55.33 39.77c4.86 3.5 12.76 3.51 17.59 0l55.08-39.58c4.84-3.48 4.82-9.15 0-12.64l.68-.5a12.11 12.11 0 0 0-3.53-.52h-122a11.85 11.85 0 0 0-3.54.53l.37.27a7.8 7.8 0 0 0-3.65 6.34z" fill="#a8b8c6"/><path d="M319.24 374.22c1.93 3.91.73 8.43-3.6 11.54l-43.16 31 43.16 31c4.69 3.36 5.7 8.39 3.07 12.49a12 12 0 0 0 3.94-8.87v-68.8a11.91 11.91 0 0 0-3.41-8.36z" fill="#8b98a3"/><path d="M181.5 455.87a7.92 7.92 0 0 1 3.67-6.33l43.46-31.23-2.13-1.53L183.05 448c-2.93 2.1-4.54 4.88-4.55 7.85a8.18 8.18 0 0 0 .74 3.43 12.15 12.15 0 0 0 5.1 3.45l.78-.56a7.83 7.83 0 0 1-3.62-6.3zM315.3 447.8l-43.16-31-2.14 1.51 43.16 31c4.84 3.47 4.82 9.14 0 12.64l1.09.78a11.89 11.89 0 0 0 4.14-2.46c2.61-4.08 1.61-9.11-3.09-12.47z" fill="#5c7499"/><path d="M183 385.55l43.46 31.23 1.12-.8c.55.62 1.11 1.25 1.72 1.82l-.71.51 9.75 7a20 20 0 0 0 21.84 0l9.79-7-.5-.36a6.91 6.91 0 0 0 1.63-1.88l1 .71 43.16-31c4.32-3.11 5.52-7.63 3.6-11.54a12 12 0 0 0-5.09-3.12l-.68.49c4.86 3.5 4.88 9.17 0 12.65l-55.08 39.58c-4.83 3.48-12.73 3.46-17.59 0L185.17 384a7.91 7.91 0 0 1-3.67-6.33 7.8 7.8 0 0 1 3.62-6.31l-.37-.27a12 12 0 0 0-5.83 4 8.07 8.07 0 0 0-.42 2.62c.01 2.95 1.62 5.74 4.5 7.84z" fill="#5c7499"/><path d="M227.62 416l-1.12.8 2.13 1.53.71-.51c-.6-.59-1.17-1.22-1.72-1.82zM269.51 418l.5.36 2.13-1.53-1-.72a6.94 6.94 0 0 1-1.63 1.89z" fill="#5c7499"/><path d="M309.83 376.08A1.87 1.87 0 0 1 308 378h-43.73a1.87 1.87 0 0 1-1.87-1.87 1.88 1.88 0 0 1 1.87-1.88H308a1.88 1.88 0 0 1 1.87 1.88zM247.48 376.45a2.26 2.26 0 0 1-2.26 2.25h-8a2.25 2.25 0 0 1-2.25-2.25 2.25 2.25 0 0 1 2.25-2.25h8a2.26 2.26 0 0 1 2.26 2.25zM304.75 459.74a2.26 2.26 0 0 1-2.25 2.26H280a2.25 2.25 0 0 1-2.25-2.26 2.25 2.25 0 0 1 2.25-2.25h22.5a2.25 2.25 0 0 1 2.25 2.25z" fill="#fff"/><path fill="#4f4f4f" d="M956.73 2.75h8.25v99.05h-8.25z"/><path d="M1061.39 20.46a6 6 0 0 0-4.4-5.74 6 6 0 1 0-3.13 0 5.94 5.94 0 0 0 0 11.48 5.94 5.94 0 0 0 0 11.48 5.94 5.94 0 0 0 0 11.47 5.94 5.94 0 0 0 0 11.48 5.94 5.94 0 0 0 0 11.48 5.94 5.94 0 0 0 0 11.48 5.94 5.94 0 0 0 0 11.47 5.94 5.94 0 0 0 0 11.48 5.94 5.94 0 0 0 0 11.48 5.94 5.94 0 0 0 0 11.48 5.94 5.94 0 0 0 0 11.47 5.94 5.94 0 0 0 0 11.48 5.94 5.94 0 0 0 0 11.48 5.94 5.94 0 0 0 0 11.48 5.94 5.94 0 0 0 0 11.47 5.94 5.94 0 0 0 0 11.48 5.94 5.94 0 0 0 0 11.48 6 6 0 1 0 3.13 0 5.94 5.94 0 0 0 0-11.48 5.94 5.94 0 0 0 0-11.48 5.94 5.94 0 0 0 0-11.47 5.94 5.94 0 0 0 0-11.48 5.94 5.94 0 0 0 0-11.48 5.94 5.94 0 0 0 0-11.48 5.94 5.94 0 0 0 0-11.47 5.94 5.94 0 0 0 0-11.48 5.94 5.94 0 0 0 0-11.48 5.94 5.94 0 0 0 0-11.48 5.94 5.94 0 0 0 0-11.47 5.94 5.94 0 0 0 0-11.48 5.94 5.94 0 0 0 0-11.48 5.94 5.94 0 0 0 0-11.48 5.94 5.94 0 0 0 0-11.47 5.94 5.94 0 0 0 0-11.48 6 6 0 0 0 4.4-5.74z" fill="#b7ccd7"/><path d="M1065.44 262.51a2.88 2.88 0 0 1-2.88 2.88h-14.26a2.88 2.88 0 0 1-2.89-2.88l5-39.21a1.44 1.44 0 0 1 1.44-1.43h7.15a1.44 1.44 0 0 1 1.44 1.43z" fill="#484848"/><path d="M532.76 920.39a9.12 9.12 0 0 1-9.14 9.11H420.33a9.13 9.13 0 0 1-9.14-9.11V796a9.11 9.11 0 0 1 9.12-9.11h103.33a9.11 9.11 0 0 1 9.12 9.11v124.39z" fill="#f1b837"/><path d="M520 785.42V760a9.1 9.1 0 0 0-9.15-9.06H433.1A9.11 9.11 0 0 0 424 760v25.46z" fill="#9a2322"/><path d="M510.87 750.9h-27.64v34.52H520V760a9.1 9.1 0 0 0-9.13-9.1z" fill="#6c1818"/><path d="M469.72 920.39V796a9.11 9.11 0 0 1 9.12-9.1h-58.53a9.11 9.11 0 0 0-9.12 9.1v124.39a9.11 9.11 0 0 0 9.12 9.11h58.53a9.11 9.11 0 0 1-9.12-9.11z" fill="#c08c2c"/><path d="M447.21 913.8a15 15 0 0 1-15 15h-169.6a15 15 0 0 1-15-15V709.57a15 15 0 0 1 15-15H432.2a15 15 0 0 1 15 15z" fill="#ddeef2"/><path d="M426.2 693.12v-42.07a15 15 0 0 0-15-15H283.63a15 15 0 0 0-15 15v42.07z" fill="#834471"/><path d="M411.29 636.09h-45.12v57h60v-42.04a14.94 14.94 0 0 0-14.88-14.96z" fill="#6c2f5c"/><path d="M442 912.2c0 5.82-6.34 10.54-14.16 10.54h-160c-7.82 0-14.16-4.72-14.16-10.54v-144c0-5.82 6.34-10.54 14.16-10.54h160c7.82 0 14.16 4.72 14.16 10.54v144z" fill="#c1636f"/><path d="M419.21 723.89h-17v161.88A12.22 12.22 0 0 1 390 898H268.62v5a12.23 12.23 0 0 0 12.24 12.22h138.35A12.23 12.23 0 0 0 431.45 903V736.1a12.22 12.22 0 0 0-12.24-12.21z" fill="#a1cad3"/><path d="M305.39 790.67a15 15 0 0 1-15 15h-6.75a15 15 0 0 1-15-15v-65.28a15 15 0 0 1 15-15h6.75a15 15 0 0 1 15 15z" fill="#fff"/><path d="M447.21 788.42h-57.09a62.28 62.28 0 0 0-80.11 0h-62.4v95.3H310a62.28 62.28 0 0 0 80.11 0h57.09z" fill="#e2ae66"/><ellipse cx="350.19" cy="835.84" rx="46.44" ry="46.37" fill="#fff"/><ellipse cx="350.19" cy="835.84" rx="54.33" ry="54.25" fill="none" stroke="#68461d" stroke-miterlimit="10" stroke-width="3.002"/><path d="M369.5 841.55a23.84 23.84 0 0 1-3.74-.76l-7.49-6.73c-27.73-17.21-41.22 32.92-18.74 39.66 9.75 3 33.73-8.23 35.23-18.71 1.1-6.01-1.45-10.08-5.26-13.46zm-16.16 1.08c1.59 0 1.85-1.25 1.87-2.63a1.12 1.12 0 0 1 2.24 0 5.59 5.59 0 0 1-.91 3.41 4 4 0 0 1-3.22 1.45c-1.45.05-1.42-2.2.02-2.23zm-19.46 25.88c-1 1-2.56-.58-1.56-1.62.48-.51.4-1.37.4-2.2a1.13 1.13 0 0 1 2.25 0c.03 1.45-.06 2.74-1.09 3.82zm4.67-16.69l-2.24 4.49c-.65 1.29-2.57.12-1.92-1.17l2.25-4.49c.64-1.29 2.56-.12 1.91 1.17zm3 17.21c-.63 1.3-2.55.13-1.92-1.17a6.77 6.77 0 0 0 .59-3.17 1.13 1.13 0 0 1 2.25 0 9.43 9.43 0 0 1-.92 4.31zm2.07-11.74c-1 .93-2.17 1.53-2.82 2.76s-2.59.11-1.92-1.17 2.07-2.14 3.19-3.22a1.13 1.13 0 0 1 1.55 1.63zm.93-18.19a73.56 73.56 0 0 0-3.75 7.48c-.64 1.3-2.55.12-1.92-1.17a73.56 73.56 0 0 1 3.75-7.48c.79-1.21 2.71-.05 1.92 1.17zm1.49-2.31a2.51 2.51 0 0 0 .66-.43.56.56 0 0 0 .18-.28 6.43 6.43 0 0 0 .08-1.32 1.13 1.13 0 0 1 2.25 0 5.45 5.45 0 0 1-.37 2.4 3.65 3.65 0 0 1-1.71 1.56c-1.28.7-2.38-1.27-1.13-1.93zm-.23 11.39a16.44 16.44 0 0 0 2.82-4.26c.64-1.3 2.56-.12 1.91 1.17a18.08 18.08 0 0 1-3.18 4.71c-1.01 1.04-2.56-.58-1.55-1.62zm6.8 8.36l-2.25 2.24c-1 1-2.58-.6-1.55-1.62l2.25-2.25c1.02-1.02 2.58.6 1.55 1.63zm6.93 7.25a9 9 0 0 1-5.18 4.25c-1.37.48-1.91-1.7-.56-2.18a6.69 6.69 0 0 0 3.82-3.24c.67-1.28 2.59-.11 1.92 1.17zm.33-8.58c-1.18.83-2.26-1.14-1.09-2 1.94-1.37 2.39-3.52 2.42-5.77a1.13 1.13 0 0 1 2.25 0c-.04 3.21-.93 5.91-3.58 7.77zm4.5 4.49a1.12 1.12 0 0 1-1.09-2c1.35-.72 1.65-2.09 1.67-3.52a1.13 1.13 0 0 1 2.25 0c-.03 2.29-.77 4.42-2.83 5.52z" fill="#af2024"/><path d="M380.75 837.8c-.75 0-3.75-.75-5.25-.75 6.75-4.49-2.24-6.73-7.49-5.23 3-3.74 1.5-5.24.75-9.73-3.75 1.49-6 3-7.49 7.48-3-3-6.75-6-10.49-6.73 1.89 9 12.17 12.89 18.72 18.71 4.17.45 8.37-.3 11.25-3.75z" fill="#af2024"/><path d="M309.64 750.15H243.1V929.5h66.54a11.49 11.49 0 0 0 11.51-11.45V761.6a11.49 11.49 0 0 0-11.51-11.45z" fill="#ecec81"/><path d="M306.57 702.87H243.1v43.53h78v-32.1c.05-6.3-6.48-11.43-14.53-11.43z" fill="#855b5b"/><path d="M306.6 702.87h-44v43.53h58.54v-32.1c.01-6.3-6.51-11.43-14.54-11.43z" fill="#6c4949"/><path d="M299.74 772.66h-12.36v123.51a9.41 9.41 0 0 1-9.51 9.31H243.1V919h56.64a9.37 9.37 0 0 0 9.4-9.34V782a9.37 9.37 0 0 0-9.4-9.34z" fill="#c0b963"/><path fill="#f7a23c" d="M243.1 793.67h78.04v95.3H243.1z"/><path d="M1605.08 225.27a5.45 5.45 0 0 0-2.94-1.39l-17.44-99.42a12.14 12.14 0 0 0-12.13-12.15h-17a12.14 12.14 0 0 0-12.13 12.15L1526 223.88c-4.18 0-20.76 23.66-20.76 30.37V453.6a12.14 12.14 0 0 0 12.12 12.15h87.68V225.27z" fill="#545822"/><path d="M1581.82 111.56v-9.36a3.4 3.4 0 0 0-3.4-3.4h-29.22a3.4 3.4 0 0 0-3.4 3.4v9.36z" fill="#6e4b48"/><path d="M1578.42 98.8h-10.11v12.76h13.51v-9.36a3.4 3.4 0 0 0-3.4-3.4z" fill="#563333"/><path d="M1605.08 239.73a12.06 12.06 0 0 0-6.81-2.1h-3.69v194.22a12.17 12.17 0 0 1-12.2 12.14h-56.09v2.12a12.11 12.11 0 0 0 12.1 12.13h59.88a12 12 0 0 0 6.81-2.1V239.73z" fill="#494c29"/><path d="M1542.8 326.76a12.16 12.16 0 0 1-12.15 12.17h-1.22a12.16 12.16 0 0 1-12.15-12.17v-70.21a12.16 12.16 0 0 1 12.15-12.17h1.22a12.16 12.16 0 0 1 12.15 12.17z" fill="#d8d9da"/><path d="M1594.16 208a5.54 5.54 0 0 1-4.49 6.43 5.55 5.55 0 0 1-6.44-4.49l-13.36-74.77a5.54 5.54 0 0 1 4.49-6.43 5.56 5.56 0 0 1 6.45 4.49z" fill="#494c29"/><path d="M1605.08 313.26a45.28 45.28 0 0 0-21-21.75v-6.46a12.1 12.1 0 0 0-12-12.15h-15.67a12.09 12.09 0 0 0-12 12.15v6.36a45.25 45.25 0 0 0 0 80.78v6.37a12.1 12.1 0 0 0 12 12.15h15.58a12.15 12.15 0 0 0 12.14-12.14v-6.36a45.28 45.28 0 0 0 21-21.75z" fill="#9e5f20"/><path d="M1600.94 332.18a37.36 37.36 0 0 0-20.62-33.45v-5.27a10 10 0 0 0-10-10.06h-13a10 10 0 0 0-10 10.06v5.27a37.43 37.43 0 0 0 0 66.89v5.3a10 10 0 0 0 10 10h13a10 10 0 0 0 10-10.06v-5.27a37.35 37.35 0 0 0 20.62-33.41z" fill="#d8d9da"/><path d="M1595.88 331.8a32.5 32.5 0 0 0-17.81-29.07v-4.59a8.75 8.75 0 0 0-8.74-8.74h-11a8.75 8.75 0 0 0-8.75 8.75v4.58a32.63 32.63 0 0 0 0 58.14v4.59a8.74 8.74 0 0 0 8.74 8.74h11a8.75 8.75 0 0 0 8.75-8.75v-4.58a32.49 32.49 0 0 0 17.81-29.07z" fill="#9e5f20"/><path d="M1667.36 207.4a5.79 5.79 0 0 0-3.16-1.5l-18.75-106.8a13 13 0 0 0-13-13h-18.25a13 13 0 0 0-13 13l-18.74 106.8c-4.49 0-22.32 25.42-22.32 32.63V452.7a13 13 0 0 0 13 13.05h94.27z" fill="#686b2d"/><path d="M1642.6 85.3V74.7a3.66 3.66 0 0 0-3.66-3.66h-31a3.66 3.66 0 0 0-3.66 3.66v10.6z" fill="#855c58"/><path d="M1638.94 71h-11.35v14.3h15V74.69a3.65 3.65 0 0 0-3.65-3.69z" fill="#6c4242"/><path d="M1667.36 222.64a13.1 13.1 0 0 0-7.39-2.27h-4.61v209.76a13.12 13.12 0 0 1-13.13 13.11h-60.41v1.92a13.1 13.1 0 0 0 13.18 13.08h65a13.1 13.1 0 0 0 7.39-2.27V222.64z" fill="#5d5f36"/><path d="M1600.58 316.89a13.13 13.13 0 0 1-13.22 13H1586a13.14 13.14 0 0 1-13.23-13v-75.23a13.14 13.14 0 0 1 13.23-13h1.32a13.13 13.13 0 0 1 13.22 13z" fill="#fff"/><path d="M1655.58 188.84a6 6 0 0 1-4.83 6.92 6 6 0 0 1-6.93-4.82l-14.38-80.46a6 6 0 0 1 4.83-6.92 6 6 0 0 1 6.93 4.83z" fill="#5d5f36"/><path d="M1667.36 302.87a48.55 48.55 0 0 0-22.51-23.4v-7a13.13 13.13 0 0 0-13.19-13.08h-17.14a13.13 13.13 0 0 0-13.19 13.08v6.85a48.35 48.35 0 0 0 0 86.95v6.86a13.13 13.13 0 0 0 13.19 13.08h17.32a13 13 0 0 0 13-13.06v-6.85a48.5 48.5 0 0 0 22.51-23.4z" fill="#ba7029"/><path d="M1663.6 322.42a40.17 40.17 0 0 0-22.5-36v-5.68a10.88 10.88 0 0 0-10.92-10.84H1616a10.88 10.88 0 0 0-10.92 10.84v5.68a40.07 40.07 0 0 0 0 72v5.67A10.88 10.88 0 0 0 1616 375h14.28a10.81 10.81 0 0 0 10.82-10.82v-5.69a40.19 40.19 0 0 0 22.5-36.07z" fill="#fff"/><path d="M1658.07 322.8a34.77 34.77 0 0 0-19.22-31.13v-4.91a9.34 9.34 0 0 0-9.33-9.36h-12a9.4 9.4 0 0 0-9.4 9.4v4.87a34.82 34.82 0 0 0 0 62.26v4.9a9.36 9.36 0 0 0 9.33 9.37h12.11a9.35 9.35 0 0 0 9.33-9.37v-4.9a34.77 34.77 0 0 0 19.18-31.13z" fill="#ba7029"/><path fill="#fff" d="M1.47.5h293.41v1080.58H1.47z"/><path fill="#9cb1b7" d="M270.12.5h24.76v1080.58h-24.76z"/><path d="M183.84 632.2a10.7 10.7 0 0 0-3.41.57 10.69 10.69 0 0 0-3.4-.57 11.45 11.45 0 0 0-6 1.74v-117a11.46 11.46 0 0 0 6 1.75 10.69 10.69 0 0 0 3.4-.57 10.7 10.7 0 0 0 3.41.57c10.81 0 19.58-16.5 19.58-36.85S194.65 445 183.84 445a10.7 10.7 0 0 0-3.41.57A10.69 10.69 0 0 0 177 445c-9.8 0-17.91 13.52-19.36 31.19a20.73 20.73 0 0 0-5.34-.69 21.08 21.08 0 0 0-3.4.28 21.2 21.2 0 0 0-3.41-.28c-10.34 0-18.73 7.38-18.73 16.48v157.26c0 9.1 8.39 16.48 18.73 16.48a21.2 21.2 0 0 0 3.41-.28 21.08 21.08 0 0 0 3.4.28 20.82 20.82 0 0 0 5.23-.66q-.12 2-.12 4c0 20.35 8.77 36.85 19.59 36.85a10.92 10.92 0 0 0 3.4-.57 11 11 0 0 0 3.41.57c10.81 0 19.58-16.5 19.58-36.85s-8.74-36.86-19.55-36.86z" fill="#e9eff1"/><ellipse cx="199.27" cy="474.42" rx="17.24" ry="36.82" fill="#5a5c5c"/><ellipse cx="199.27" cy="661.5" rx="17.24" ry="36.82" fill="#5a5c5c"/><ellipse cx="193.27" cy="474.42" rx="17.24" ry="36.82" fill="#707071"/><ellipse cx="193.27" cy="661.5" rx="17.24" ry="36.82" fill="#707071"/><ellipse cx="192.59" cy="462.64" rx="6.68" ry="11.5" fill="#707071"/><ellipse cx="192.59" cy="672.92" rx="6.68" ry="11.5" fill="#5a5c5c"/><ellipse cx="192.59" cy="463.39" rx="6.68" ry="11.5" fill="#5a5c5c"/><path d="M188.32 641.82a16.49 16.49 0 0 1-16.5 16.48 16.49 16.49 0 0 1-16.51-16.48V484.43A16.49 16.49 0 0 1 171.82 468a16.49 16.49 0 0 1 16.5 16.48z" fill="#5a5c5c"/><path d="M182.32 641.82a16.49 16.49 0 0 1-16.51 16.48 16.49 16.49 0 0 1-16.51-16.48V484.43A16.49 16.49 0 0 1 165.81 468a16.49 16.49 0 0 1 16.51 16.48v157.34z" fill="#707071"/><path d="M182.32 539v-45l-33 33v45z" fill="#939596"/><path d="M1307.92 792.16V929.5h248.38V754.66c-16.84 1.27-22.31 15-18.34 26.33-94.89-20.3-183.45-5.52-216.53 1.36-5.94-5.12-23-12.4-32.06-13 .54 9.97 8.63 17.76 18.55 22.81z" fill="#cf8348"/><path d="M1556.3 929.5v-71.76a250.59 250.59 0 0 0-52.71 10.34 196.94 196.94 0 0 0-27.48 10.53c-10.59 5.07-19.92 11.3-30.32 16.57a135.85 135.85 0 0 1-39.3 13.29c-13.33 2.2-27.52 2.13-41.06 1.06-20-1.56-40.22-5.71-57.51-13v33z" fill="#a56c36"/><path d="M1446.84 929.5l.33-2.23c3.41-24.22-1.37-48.15-4.25-72.26-2.23-18.64-2.22-37.47 3-55.9 2.24-7.85 5.32-15.89 11.25-22.83 1.43-1.68 2.93-3.33 4.42-5q-10.26-.49-20.12-.57a103.11 103.11 0 0 0-12.82 15.34 138.39 138.39 0 0 0-12.35 21.67 112.87 112.87 0 0 0-7.85 24.3 312.88 312.88 0 0 0-5.07 37.05c-1.06 11.79-1.62 23.6-3.51 35.34-1.35 8.42-2.88 16.85-5.76 25.08z" fill="#fffbca"/><path d="M1424.47 831.37c-9.16 7.75-20.86 11.64-29.08 20.66-2.73 3-5.54 6.22-8.16 9.66a44.34 44.34 0 0 1 50.41-72.57c.84 15.07-.93 31.88-13.17 42.25z" fill="#cf3a39"/><path d="M1404 855.3c4.55-4.51 9.86-7.92 15.37-11.13 4.72-2.74 9.58-5.47 13.58-9.24a37.31 37.31 0 0 0 9.86-15.62c2.77-8.54 3.11-17.19 2.7-25.88a44.33 44.33 0 1 1-50.64 72.67 88.42 88.42 0 0 1 9.13-10.8z" fill="#cf3a39"/><path d="M1489 801.17s37.44 42 38.27 66.73c.01 0 6.58-49.9-38.27-66.73zM1310.17 929.5H1278s3.5-10.73 32.48-6.74" fill="#a56c36"/><path d="M1677.12 681.86H1486.7c-7.3-9.87-18.58-18-33-18.49.82 9 11.35 26 18.77 32-10 33-31.35 121.27-2 215.88-16.37-4-36.28 1.5-38.11 18.29h244.69z" fill="#cd4f50"/><path d="M1677.12 681.86h-39.32c10.52 17.24 16.53 37.44 18.8 57.34 1.54 13.5 1.65 27.64-1.54 40.93-3.44 14.36-10.54 27.34-19.24 39.19-7.62 10.36-16.65 19.67-24 30.22a165.53 165.53 0 0 0-15.23 27.4c-7.33 16.54-12.87 34.42-15 52.56h95.49V681.86z" fill="#a33e3e"/><path d="M1677.12 769.67c-9.23 1.78-18.58 2.91-27.92 4-17 1.88-34.11 2.44-51.17 3.5-17.92 1.11-35.86 2.47-53.64 5.07a218.39 218.39 0 0 0-35.16 7.83 236.2 236.2 0 0 0-31.38 12.33 150.21 150.21 0 0 0-22.22 12.81c.1 6.55.36 13.26.83 20.08 2.4-1.48 4.8-3 7.23-4.42 10-5.91 21.68-9 33-11.22 26.67-5.23 53.93-5.23 80.92-3 33.2 2.74 66.15 7.18 99.46 4.68v-51.6z" fill="#fff"/><path d="M1563.59 798.17c7.77-9.14 11.66-20.83 20.7-29 3-2.72 6.23-5.53 9.67-8.14a44.35 44.35 0 0 0-72.68 50.33c15.1.8 31.93-.97 42.31-13.19z" fill="#86d1d9"/><path d="M1587.57 777.71c-4.52 4.54-7.94 9.84-11.15 15.35-2.75 4.72-5.48 9.56-9.26 13.55a37.27 37.27 0 0 1-15.65 9.85c-8.55 2.77-17.21 3.11-25.92 2.7a44.36 44.36 0 1 0 72.78-50.57 88.35 88.35 0 0 0-10.8 9.12z" fill="#86d1d9"/><path d="M1478.64 862.61s42.08 37.39 66.83 38.21c0 0-49.98 6.57-66.83-38.21z" fill="#a33e3e"/><path fill="#cc8485" d="M1488.2 697.02l9.44 37.42-26.67 58.98 41.08-41.77 14.1-32.18-37.95-22.45zM1545.47 701.44l11.45 22.45h27.21l-19.33-8.24-19.33-14.21zM1478.33 842.09l29.36 33.07 43.46 6.72-25.56-20.19-30.23-3.94-8.28-18-8.75 2.34z"/><path d="M1514 718.21a32.07 32.07 0 0 1-3.12 3.66 20.94 20.94 0 0 1-2.71 2.43 11.65 11.65 0 0 1-5.67 2.29c-2.18.29-2.73-1.13-2.73-1.13l-5.68 2c.08.15 5.16-.38 8.2 1.24s6 5.22 8.1 10.66c2.61 6.7 1 13.27-2.05 16.9a4.24 4.24 0 0 1-1.64 1.26 1.56 1.56 0 0 1-1.06.07c-.77-.23-1.67-1.52-3.35-5.11-1-2.13-1.94-4.32-2.75-6.31-.56-1.4-1.06-2.7-1.47-3.89-1-2.9-1.23-4.28-.52-4.43s1.89 4.69 4.51 7.81a1.22 1.22 0 0 0 1.09.25c.62-.19 1-1.06 1.31-2.6a7.62 7.62 0 0 0-.16-3.95 4.24 4.24 0 0 0-.88-1.41c-1.16-1.23-4.92-2.11-7.12-2.13-1 0-2.79-2.95-4.18-6-.3-.67-.66-1.52-.86-2-.73-1.78 6.7-6.94 15.59-11.73a20.64 20.64 0 0 1 6.56-2.38l.66-.09c1.93-.29 2.37 1.11-.07 4.59z" fill="#fff" stroke="#631213" stroke-miterlimit="10" stroke-width="2.251"/><path d="M1545.85 708.39c2.18 0 2.93.62 1.41 2.6-.34.44-.8 1-1.35 1.55a58.57 58.57 0 0 1-7.36 6.57c-1.64.93-.2 8.86 2.34 17.93s1.34 10.39-1.4 11.46c-.32.12-.64.24-1 .34-2.4.81-4.47 2-8.09-2.73l-16.21-21.22c-.47.17 3.21 15.71 4.65 22.72.4 1.92 0 3-.82 3.32h-.1c-.73.26-1.6-1-3-4.81-1.08-2.89-2.61-7.56-4-12.62-3.21-12 0-10.49 1.74-11.55a16.09 16.09 0 0 1 4.91-2.2c3-.59 2-2.81 12.14 12l-.83-2.53c-4.11-12.79 2.73-12.73 7.42-16.31 4.15-3.17 6.48-4.2 8.67-4.47a7.86 7.86 0 0 1 .88-.05z" fill="#fff" stroke="#631213" stroke-miterlimit="10" stroke-width="2.251"/><path d="M1561 710.3h.85c3.22-.17-1.66 8.28-.38 9.08.39.24 3.13-.54 4.46-.45.37 0 .74.07 1.08.13 1.58.27 2.26 1.44 2.74 4.69v.1c.42 3.13-1 4.75-4.87 4.82h-.28c1.22 3.4 2.35 6.45 3.18 8.59a4.87 4.87 0 0 1 .24.78c.32 1.54-.69 2.09-2.86 2.51h-.3c-2.34.31-4.81-8.07-6.36-8.81-.75-.35-7.56 2.94-8.34 4.39-1.39 2.56-1.19 7.18-2.82 7.68a3.34 3.34 0 0 1-.43.1c-1.16.18-2-.28-2.73-1.92-.13-.3-.27-.64-.39-1-.51-1.56-.46-4.39-1.07-6-.23-.59-.93-1.39-1.13-2-.6-1.93.53-4.06.77-5.05 1.32-5.55 10.96-15.86 18.64-17.64zm-11 13.37a29.33 29.33 0 0 0 5.19-2.61c.19-.33-.88-3.9-.88-3.9-.17-.16-4.31 6.51-4.31 6.51zM1590.09 736.38c-2 2.13-4.45 2.74-7.56 2.39h-.29a11 11 0 0 1-7.85-4.78 22.5 22.5 0 0 1-3.4-9.26 20.59 20.59 0 0 1-.23-2.3c-.2-4.24 1.52-4.35 7.07-5.34 5.33-.95 9.57-1.81 11.94-1.54h.26c2.32.36 2.7 2 1.82 3.93a5.76 5.76 0 0 1-.46.84c-.75 1.13-1.77 1.34-3.81 1.13a16.72 16.72 0 0 0-7.71.74c-2 .78-2.83 2.09-2.6 3.83a6.18 6.18 0 0 0 .34 1.27c.59 1.54 1.46 2.44 2.57 2.64a4 4 0 0 0 2-.28 20.11 20.11 0 0 0 6-3.61 3.36 3.36 0 0 1 2.49-1 2.32 2.32 0 0 1 1.75 1.5 9.32 9.32 0 0 1 .86 3.91v.3c-.03 1.53-1.19 3.49-3.19 5.63zM1615.67 733.65c.79.83 1 2.12.66 3.87-.06.33-.13.68-.22 1-.56 2.27-1.78 3.56-3.83 3.91h-.33c-1.92 0-5.93-9.81-5.93-9.81-.59-.09-5.5 7.57-7.27 7.36-2.36-.29-3.81-2.36-4-6.76-.11-3.68 0-10.56 8-18.56a4.68 4.68 0 0 1 2.84-1.38c1.15 0 1.41.95.41 2.68-1.28 2.21-6.44 13.57-6.44 13.57.2.08 10.43-9.42 14.77-12.94 7.77-6.3 10.58-9.61 12.46-10l.4-.06c1.78-.07 2.67 1 2 3.27 0 .16-.09.32-.14.46a8.44 8.44 0 0 1-3.48 4.53c-1.64 1-4.32 3.13-7.63 5.45s-6.16 4.38-6.25 5.25c-.14 2.25 3.04 7.17 3.98 8.16z" fill="#fff" stroke="#631213" stroke-miterlimit="10" stroke-width="2.251"/><path d="M1638.12 711.17a22.93 22.93 0 0 1-.73 2.91 29.92 29.92 0 0 1-1.15 3c-1 2.15-2.11 3.77-3.31 3.93-.76.1 0-3.67 0-3.67l-6.21 3.91c.07.16 4.39.48 4.81 2s-.23 3.72-1.32 6.74c-1.38 3.82-3 8.32-6.8 11.52a5 5 0 0 1-2 1 2.33 2.33 0 0 1-1.26 0c-.88-.27-1.51-1.49-1.62-3.79a14.4 14.4 0 0 1 .3-3.79 10 10 0 0 1 .78-2.26c.82-1.69 1.9-2.58 3-2.72s-.07 3.5.4 4.49c.05.11.58.17.91.09a4.76 4.76 0 0 0 2.18-1.68 8 8 0 0 0 1.57-2.38 1.73 1.73 0 0 0 .1-.81c-.13-.68-1.74-1.09-5.46-.94-2.12.08-3.68-1.37-3.78-4.08a5.87 5.87 0 0 1 .61-2.39c1.64-3.67 9-8.34 14.67-12.85a12.94 12.94 0 0 1 3.58-2.3l.25-.06c.8-.04.96 1.44.48 4.13z" fill="#fff" stroke="#631213" stroke-miterlimit="10" stroke-width="2.251"/><path d="M1319.87 885.11c1.91 1 21.89 15.58 23.39 15.53s30.62 0 30.62 0l20.34-2.06v-13.47l-36.69 6.26-18.77-2.48s-12.49-11.84-14-15.54-4.89 11.76-4.89 11.76zM1316.85 831.21l7 18.9s7.49 7 7.49 5 3.5-23.94 3.5-23.94 2-23.89 0-25.41-12.49 9.45-12.49 9.45l2 15.33zM1389.29 780.66c-1.5 1.55-34.12 20.39-34.12 20.39l-19.45-7.74 10.86 12.37 17-.18z" fill="#e8af82"/><path d="M1352.19 868.32a22.64 22.64 0 0 1 2.59 2.2 14 14 0 0 1 1.71 1.91 8.14 8.14 0 0 1 1.62 4 1.67 1.67 0 0 1-.8 1.92c-.07 0 1.38 4 1.38 4s-.27-3.64.88-5.77 3.68-4.21 7.52-5.7a12.13 12.13 0 0 1 11.93 1.44 3 3 0 0 1 .89 1.15 1.06 1.06 0 0 1 0 .74c-.16.55-1.07 1.18-3.61 2.36-1.5.7-3 1.37-4.45 1.93-1 .4-1.91.75-2.75 1-2 .71-3 .86-3.12.37s3.3-1.33 5.51-3.18a.83.83 0 0 0 .17-.76c-.13-.44-.74-.74-1.83-.93a5.41 5.41 0 0 0-2.79.12 3 3 0 0 0-1 .62c-.87.81-1.5 3.46-1.51 5 0 .72-2.08 2-4.25 2.94-.48.21-1.08.47-1.41.6-1.25.52-4.89-4.71-8.28-11a14.75 14.75 0 0 1-1.68-4.62l-.06-.46c-.1-1.31.89-1.6 3.34.12z" fill="#fff"/><path d="M1358.75 885.15c-2.27 0-6.49-7.15-8.8-11.42a15.63 15.63 0 0 1-1.76-4.86c0-.17 0-.34-.07-.51a1.93 1.93 0 0 1 .38-1.55 1.49 1.49 0 0 1 1.14-.47 5.9 5.9 0 0 1 3 1.34 22.88 22.88 0 0 1 2.68 2.27 15 15 0 0 1 1.82 2 9 9 0 0 1 1.73 4.2c1.3-2.43 4.11-4.57 7.92-6a14 14 0 0 1 5.12-1 12 12 0 0 1 7.61 2.54 3.93 3.93 0 0 1 1.12 1.47 1.89 1.89 0 0 1 .07 1.26c-.26.85-1.24 1.55-4 2.85-1.43.67-3 1.34-4.5 2-1 .41-2 .76-2.77 1a9.89 9.89 0 0 1-2.85.7 1.26 1.26 0 0 1-1.17-.56v.36c0 .38 0 1.54-4.72 3.66-.49.22-1.1.48-1.43.61a1.19 1.19 0 0 1-.52.11zm-.34-1.77a1 1 0 0 0 .31.17c.33-.13.87-.36 1.29-.55 2.43-1.09 3.59-2 3.79-2.3 0-1.64.66-4.49 1.76-5.51a3.87 3.87 0 0 1 1.25-.78 6.15 6.15 0 0 1 3.2-.16c.91.16 2.16.48 2.46 1.48a1.59 1.59 0 0 1-.42 1.6c-.22.19-.46.36-.7.53l.25-.1c1.49-.6 3-1.26 4.42-1.92 2.59-1.2 3.11-1.69 3.19-1.87a.38.38 0 0 0 0-.21 2.18 2.18 0 0 0-.67-.84 10.38 10.38 0 0 0-6.59-2.18 12.57 12.57 0 0 0-4.54.86c-3.47 1.35-6 3.24-7.11 5.34a11.25 11.25 0 0 0-.76 4.83c0 .64 0 1-.44 1.26zm-8.72-15.46a.8.8 0 0 0 0 .26c0 .15 0 .29.06.43a13.72 13.72 0 0 0 1.59 4.37c3.13 5.79 5.59 9.1 6.8 10.19l-.2-.56c-1.68-4.58-1.68-4.58-1-5h.11s.41-.25.31-1.08a7.55 7.55 0 0 0-1.49-3.64 13.59 13.59 0 0 0-1.61-1.79 21.63 21.63 0 0 0-2.49-2.12 5 5 0 0 0-2.08-1.06zm18.87 7.78a3.27 3.27 0 0 0-1.19.19 2.25 2.25 0 0 0-.73.46 6.42 6.42 0 0 0-1.07 2.8 6.47 6.47 0 0 1 1.66-.89 16.93 16.93 0 0 0 3.71-2.07 2.84 2.84 0 0 0-1.19-.38 7.73 7.73 0 0 0-1.19-.11z" fill="#9d5e26"/><path d="M1345.26 845.9c0-1.53.44-2.06 1.83-1a14.51 14.51 0 0 1 1.1 1 41 41 0 0 1 4.64 5.18c.65 1.15 6.25.14 12.66-1.64s7.33-.95 8.08 1c.09.22.17.45.24.68.58 1.68 1.41 3.14-1.93 5.68l-15 11.42c.11.32 11.09-2.27 16-3.28 1.36-.28 2.14 0 2.35.58v.07c.18.51-.69 1.13-3.39 2.14-2 .76-5.33 1.83-8.91 2.78-8.5 2.26-7.4 0-8.15-1.22a11.3 11.3 0 0 1-1.55-3.46c-.42-2.13-2-1.43 8.44-8.55l-1.79.59c-9 2.89-9-1.92-11.51-5.22-2.24-2.92-3-4.56-3.15-6.1a4 4 0 0 1 .04-.65z" fill="#fff"/><path d="M1357.56 872.2c-2.33 0-2.85-1-3.18-2.07a2.07 2.07 0 0 0-.2-.49 12 12 0 0 1-1.65-3.72 4.18 4.18 0 0 0-.16-.59c-.53-1.69-.22-2.38 5-6.05a11.65 11.65 0 0 1-2.1.21c-3.75 0-5-2.34-6.19-4.39a16.34 16.34 0 0 0-1.26-2c-2.16-2.82-3.09-4.64-3.31-6.49v-.67a2.63 2.63 0 0 1 .53-2 1.28 1.28 0 0 1 .93-.38 2.85 2.85 0 0 1 1.65.72c.33.26.7.58 1.15 1a42.29 42.29 0 0 1 4.75 5.32 2.9 2.9 0 0 0 1.1.14c2 0 5.81-.75 10.69-2.11a22 22 0 0 1 5.46-1 3.36 3.36 0 0 1 3.58 2.47c.09.24.17.47.25.71l.12.34c.71 2 1 3.72-2.32 6.23l-12.5 9.53c2-.4 4.61-1 6.92-1.5s4.43-1 6-1.3a5.69 5.69 0 0 1 1.11-.12 2 2 0 0 1 2.14 1.21v.08c.49 1.38-1.46 2.24-3.86 3.14s-5.8 2-9 2.8a23.6 23.6 0 0 1-5.66 1zm9.25-17.47l-4.61 3.15c-8.65 5.9-8.58 6.15-8.32 7a5.87 5.87 0 0 1 .21.77 10.6 10.6 0 0 0 1.44 3.19 3.37 3.37 0 0 1 .35.83c.21.65.32 1 1.68 1a22.9 22.9 0 0 0 5.25-.94c3.14-.83 6.44-1.86 8.83-2.76a11.76 11.76 0 0 0 2.78-1.28 3 3 0 0 0-1.32 0c-1.56.32-3.71.8-6 1.3-5.71 1.26-9.24 2-10.09 2a.85.85 0 0 1-.88-.55l-.19-.54.46-.35 15-11.42c2.65-2 2.3-3 1.79-4.44l-.13-.36c-.07-.21-.15-.43-.23-.65a1.81 1.81 0 0 0-2.1-1.45 21 21 0 0 0-5 .95c-2.91.81-8.21 2.16-11.12 2.16-.83 0-2-.09-2.44-.89a42.09 42.09 0 0 0-4.49-5c-.41-.38-.76-.68-1-.9a3.56 3.56 0 0 0-.52-.34 4.71 4.71 0 0 0 0 .69 4.32 4.32 0 0 0 0 .5c.16 1.29.73 2.75 3 5.72a19 19 0 0 1 1.39 2.22c1.11 2 2 3.57 4.8 3.57a15.06 15.06 0 0 0 4.45-.85l1.78-.58z" fill="#9d5e26"/><path d="M1346.61 835.28v-.6c-.12-2.27 5.84 1.17 6.4.27.18-.28-.38-2.21-.31-3.15q0-.39.09-.75c.19-1.12 1-1.6 3.31-1.93h.07c2.21-.3 3.35.68 3.4 3.43v.2c2.41-.86 4.56-1.66 6.07-2.24a2.84 2.84 0 0 1 .55-.17c1.09-.23 1.48.49 1.77 2v.21c.22 1.65-5.7 3.39-6.22 4.48-.25.53 2.08 5.32 3.1 5.87 1.81 1 5.07.83 5.42 2a1.73 1.73 0 0 1 .07.31c.13.81-.2 1.41-1.35 1.91-.22.1-.46.19-.72.28-1.09.36-3.09.32-4.21.75-.41.16-1 .66-1.44.8-1.36.42-2.86-.38-3.57-.55-3.9-.97-11.17-7.75-12.43-13.12zm9.44 7.7a21.18 21.18 0 0 0-1.84-3.65 14.89 14.89 0 0 0-2.76.61c-.12.13 4.6 3.06 4.6 3.06z" fill="#fff"/><path d="M1361.76 849.84a7.17 7.17 0 0 1-2.39-.52c-.2-.07-.38-.14-.51-.17-4.36-1.06-11.73-8.16-13-13.7v-.7a1.51 1.51 0 0 1 .38-1.17 1.74 1.74 0 0 1 1.32-.48 11.89 11.89 0 0 1 3.1.7c.55.18 1.15.37 1.58.46 0-.17-.06-.34-.08-.49a9.31 9.31 0 0 1-.21-2 6.91 6.91 0 0 1 .1-.84c.3-1.7 1.74-2.25 4-2.57h.09a5.59 5.59 0 0 1 .8-.06c1.41 0 3.08.61 3.42 3.36 1.89-.68 3.69-1.34 5.06-1.87a3.94 3.94 0 0 1 .67-.21 2.44 2.44 0 0 1 .53 0c1.66 0 2 1.81 2.18 2.69v.25c.2 1.54-1.89 2.58-4.1 3.69a15.07 15.07 0 0 0-2.1 1.17c.24 1.06 2 4.51 2.67 4.9a10.05 10.05 0 0 0 2.56.75c1.56.32 2.9.59 3.24 1.7 0 .14.07.27.1.41a2.56 2.56 0 0 1-1.82 2.77c-.25.11-.52.21-.79.3a11.51 11.51 0 0 1-2.1.37 10 10 0 0 0-2.07.37 2.82 2.82 0 0 0-.5.29 4.31 4.31 0 0 1-1 .52 3.44 3.44 0 0 1-1.13.08zm-14.36-14.68c1.25 5.16 8.37 11.61 11.83 12.45.2 0 .42.13.67.22a5.89 5.89 0 0 0 1.86.43 1.91 1.91 0 0 0 .61-.09 3.3 3.3 0 0 0 .62-.34 4.26 4.26 0 0 1 .78-.43 10.43 10.43 0 0 1 2.46-.47 11.43 11.43 0 0 0 1.79-.3 6.08 6.08 0 0 0 .64-.25c1-.43.94-.77.89-1.07a.84.84 0 0 0 0-.2 6.3 6.3 0 0 0-2-.61 11.1 11.1 0 0 1-3-.9c-1.16-.63-4-5.83-3.44-6.91.32-.66 1.26-1.16 2.91-2 1-.5 3.13-1.56 3.24-2.08a1.06 1.06 0 0 1 0-.14c-.27-1.41-.52-1.41-.62-1.41h-.21a3.81 3.81 0 0 0-.42.13c-1.62.63-3.84 1.45-6.09 2.25l-1 .37v-1.3c0-2.49-1-2.7-1.89-2.7a4.42 4.42 0 0 0-.61 0l-.18-.78.12.78c-2.49.37-2.57.85-2.65 1.28a6.36 6.36 0 0 0-.08.68 8.51 8.51 0 0 0 .19 1.65c.17 1 .25 1.46 0 1.86a1.19 1.19 0 0 1-1.09.52 9.55 9.55 0 0 1-2.45-.58 11.08 11.08 0 0 0-2.62-.63h-.13zm8.91 8.92l-.68-.42c-4.89-3-4.91-3.16-5-3.61l-.05-.37.4-.43.21-.06a16.72 16.72 0 0 1 2.88-.67 1 1 0 0 1 .49.12c.69.39 2.2 4.07 2.21 4.1l.09.33-.17.32zm-3.06-3.81c.29.2.63.41 1 .64-.15-.3-.3-.57-.41-.77z" fill="#9d5e26"/><path d="M1365 814.77a5.79 5.79 0 0 1 1.7 5.32 1.38 1.38 0 0 0 0 .2 7.73 7.73 0 0 1-3.37 5.52 15.83 15.83 0 0 1-6.55 2.4 12.9 12.9 0 0 1-1.61.16c-3 .14-3.07-1.06-3.77-5-.67-3.75-1.28-6.74-1.09-8.4v-.19c.26-1.63 1.41-1.89 2.77-1.28a4 4 0 0 1 .6.33c.8.52.94 1.24.8 2.68a11.58 11.58 0 0 0 .52 5.49 2.39 2.39 0 0 0 2.7 1.83 4.32 4.32 0 0 0 .9-.24 2.56 2.56 0 0 0 1.86-1.81 2.78 2.78 0 0 0-.2-1.42 14.2 14.2 0 0 0-2.55-4.19 2.35 2.35 0 0 1-.67-1.75 1.61 1.61 0 0 1 1.06-1.23 6.54 6.54 0 0 1 2.75-.61h.21c1.06-.03 2.45.78 3.94 2.19z" fill="#fff"/><path d="M1354.71 829.18c-3.11 0-3.44-1.83-4-5.14l-.34-1.86c-.57-3.18-1-5.7-.85-7.27v-.18a2.38 2.38 0 0 1 2.34-2.3 3.78 3.78 0 0 1 1.55.38 4.43 4.43 0 0 1 .71.39c1.29.85 1.27 2.16 1.14 3.42a10.78 10.78 0 0 0 .47 5.06c.47 1.19 1.08 1.35 1.56 1.35h.3a2.76 2.76 0 0 0 .72-.19c.82-.31 1.28-.72 1.37-1.2a2.16 2.16 0 0 0-.16-1 13.29 13.29 0 0 0-2.41-4 3 3 0 0 1-.86-2.36 2.38 2.38 0 0 1 1.5-1.85 7.26 7.26 0 0 1 3.09-.68h.2q1.92 0 4.52 2.45a6.55 6.55 0 0 1 1.93 6v.22a8.53 8.53 0 0 1-3.7 6.06 17.51 17.51 0 0 1-8.58 2.7zm-2.85-15.18c-.2 0-.62 0-.77.92v.14a30.91 30.91 0 0 0 .83 6.82l.34 1.86c.61 3.46.73 3.83 2.46 3.83h.4a13.82 13.82 0 0 0 1.54-.15 15.22 15.22 0 0 0 6.2-2.26 6.93 6.93 0 0 0 3-5v-.2a5 5 0 0 0-1.45-4.64c-1.36-1.28-2.61-2-3.42-2h-.19a5.7 5.7 0 0 0-2.42.53c-.57.27-.6.52-.62.61a1.74 1.74 0 0 0 .5 1.15A15 15 0 0 1 1361 820a3.62 3.62 0 0 1 .23 1.84 3.25 3.25 0 0 1-2.36 2.41 5.3 5.3 0 0 1-1.07.28 4.73 4.73 0 0 1-.52 0 3.17 3.17 0 0 1-3-2.36 12.16 12.16 0 0 1-.57-5.79c.14-1.44-.08-1.7-.45-2a3.18 3.18 0 0 0-.49-.26 2.25 2.25 0 0 0-.91-.12z" fill="#9d5e26"/><path d="M1363.09 796.77a3.06 3.06 0 0 1 2.73-.46l.74.15a3.21 3.21 0 0 1 2.75 2.69 1 1 0 0 1 0 .24c0 1.35-6.93 4.17-6.93 4.17-.06.42 5.35 3.87 5.2 5.12-.21 1.66-1.67 2.68-4.78 2.78-2.59.08-7.45 0-13.09-5.64a3.31 3.31 0 0 1-1-2c0-.81.67-1 1.89-.29 1.57.9 9.58 4.53 9.58 4.53s-6.65-7.33-9.13-10.39c-4.45-5.47-6.78-7.45-7.07-8.76a1.55 1.55 0 0 1 0-.29c0-1.25.72-1.88 2.3-1.44l.33.11a5.9 5.9 0 0 1 3.2 2.44c.71 1.15 2.2 3 3.84 5.37s3.09 4.34 3.7 4.4c1.57.17 5.04-2.07 5.74-2.73z" fill="#fff"/><path d="M1362 812.47c-3 0-7.57-.61-12.82-5.89a4.09 4.09 0 0 1-1.2-2.53 1.51 1.51 0 0 1 .39-1.13 1.4 1.4 0 0 1 1-.41 3.45 3.45 0 0 1 1.65.54c.86.5 3.79 1.87 6.17 3l-.59-.66c-2.12-2.36-4.77-5.29-6.15-7-1.76-2.17-3.17-3.76-4.3-5-1.8-2-2.71-3.07-2.92-4.06a1.76 1.76 0 0 1-.06-.42 2.32 2.32 0 0 1 .58-1.79 2.14 2.14 0 0 1 1.6-.61 4 4 0 0 1 1.13.17l.37.11a6.73 6.73 0 0 1 3.61 2.78c.4.64 1.07 1.56 1.86 2.63.59.8 1.26 1.71 2 2.7a27.64 27.64 0 0 0 3.2 4.08c1.29 0 4.35-1.91 5-2.53a3.8 3.8 0 0 1 3.41-.67c.26 0 .52.1.8.17a4 4 0 0 1 3.34 3.33 1.84 1.84 0 0 1 0 .38c0 1.07-1.89 2.45-5.56 4.09l-.1.85c2.87 2.25 4 3.36 3.92 4.43-.18 1.51-1.29 3.34-5.53 3.47zm-12.43-8.56a2.66 2.66 0 0 0 .74 1.35c4.83 4.86 9 5.42 11.69 5.42h.82c3.63-.12 3.93-1.49 4-2-.22-.62-2.36-2.3-3.28-3-1.61-1.27-2-1.57-1.9-2.18l.07-.44.41-.17c3.15-1.29 6-2.87 6.43-3.52a2.44 2.44 0 0 0-2.16-2.06 6.88 6.88 0 0 0-.68-.14 2.37 2.37 0 0 0-2 .26c-.62.58-4.08 2.95-6.1 2.95a2.44 2.44 0 0 0-.26 0c-.86-.09-1.78-1.21-4.27-4.73-.68-1-1.35-1.89-1.94-2.68-.84-1.14-1.5-2-1.93-2.74a5.12 5.12 0 0 0-2.78-2.11l-.28-.08a2.5 2.5 0 0 0-.7-.12.71.71 0 0 0-.46.13 1 1 0 0 0-.14.63.78.78 0 0 0 0 .14c.13.6 1.1 1.69 2.57 3.35 1.08 1.22 2.56 2.9 4.34 5.09 1.36 1.67 4 4.58 6.1 6.93 3.37 3.74 3.37 3.74 3.16 4.26l-.31.76-.75-.34c-.33-.15-8.07-3.65-9.65-4.56a3.09 3.09 0 0 0-.75-.4z" fill="#9d5e26"/><path d="M1347.22 781a17.17 17.17 0 0 1 2.06.51c.68.22 1.38.49 2.12.81 1.51.69 2.65 1.49 2.77 2.34.07.53-2.59 0-2.59 0l2.76 4.37s.33-3.09 1.4-3.39 2.63.17 4.76.93c2.69 1 5.87 2.12 8.13 4.79a3.67 3.67 0 0 1 .75 1.41 1.73 1.73 0 0 1 0 .88c-.19.62-1.06 1.06-2.67 1.14a9.6 9.6 0 0 1-2.68-.21 7.36 7.36 0 0 1-1.6-.55 3 3 0 0 1-1.92-2.14c-.1-.81 2.47 0 3.18-.29.07 0 .11-.41.06-.64a3.4 3.4 0 0 0-1.19-1.53 5.7 5.7 0 0 0-1.68-1.1 1 1 0 0 0-.57-.07c-.48.09-.77 1.21-.67 3.84.06 1.49-1 2.59-2.87 2.65a4 4 0 0 1-1.69-.42c-2.59-1.16-5.88-6.3-9.08-10.32a9.67 9.67 0 0 1-1.62-2.52v-.18c-.12-.57.95-.67 2.84-.31z" fill="#fff"/><path d="M1366.12 795.22a10.45 10.45 0 0 1-2.29-.24 8 8 0 0 1-1.76-.61 4.72 4.72 0 0 1-1.83-1.42 2.91 2.91 0 0 1-.65 1.09 3.9 3.9 0 0 1-2.82 1.13h-.09a5.1 5.1 0 0 1-1.94-.5c-2.16-1-4.54-4.15-7.06-7.52-.76-1-1.55-2.07-2.32-3a9.45 9.45 0 0 1-1.76-2.79 1.77 1.77 0 0 1-.06-.3 1.08 1.08 0 0 1 .25-.84c.51-.57 1.63-.64 3.57-.3a16.62 16.62 0 0 1 2.16.54 19.8 19.8 0 0 1 2.2.84c2 .91 3.09 1.87 3.23 3a.89.89 0 0 1-.22.73 1.44 1.44 0 0 1-1.15.39h-.47l.86 1.33c.29-1 .73-1.91 1.56-2.14 1.21-.34 2.82.08 5.24 1 2.7 1 6.07 2.18 8.46 5a4.23 4.23 0 0 1 .92 1.73 2.59 2.59 0 0 1 0 1.3c-.22.71-1 1.58-3.4 1.7zm-4.63-3a3.2 3.2 0 0 0 1.27 1 6.43 6.43 0 0 0 1.42.49 9.32 9.32 0 0 0 2.47.19c1.47-.07 1.91-.45 1.95-.58a.83.83 0 0 0 0-.47 2.52 2.52 0 0 0-.58-1.08 14.61 14.61 0 0 0-6.26-4 8.28 8.28 0 0 1 1.3 1 4 4 0 0 1 1.44 2s.26 1.18-.49 1.54a2 2 0 0 1-.87.16 10.66 10.66 0 0 1-1.09-.09zm-16.2-10.7a13.93 13.93 0 0 0 1.32 1.88c.78 1 1.57 2 2.34 3.06 2.29 3.07 4.66 6.23 6.43 7a3.35 3.35 0 0 0 1.3.36 2.38 2.38 0 0 0 1.75-.63 1.58 1.58 0 0 0 .4-1.2c-.12-3.1.26-4.45 1.31-4.65a1.67 1.67 0 0 1 .5 0l-.41-.14c-2-.72-3.49-1.14-4.28-.92-.11.08-.4.5-.72 2.28-.1.56-.16.9-.58 1.08l-.61.25-.36-.54c-3.21-4.85-3.21-4.85-2.65-5.38l.3-.29.41.09c.2 0 .62.12 1 .18a8.23 8.23 0 0 0-1.72-1 16.9 16.9 0 0 0-2-.78 15.16 15.16 0 0 0-2-.49 10 10 0 0 0-1.73-.11zm15.86 9.1a10.19 10.19 0 0 1 1.07.08l.61.06a4.46 4.46 0 0 0-.8-.86 4.94 4.94 0 0 0-1.43-1 6.35 6.35 0 0 0-.19 1.78 2.07 2.07 0 0 1 .74-.01z" fill="#9d5e26"/><path d="M1619.15 879.82a25.48 25.48 0 0 1-18.43-.06c-7.25-2.3-30-8.06-17.85 7.67 7.44 9.72 20.28 10.9 30.64 7.31 6.57-2.25 12.1-4.07 18.87-3.51 4.66.72 13.43 4.32 15.35-3.25 4.17-15.51-26-7.28-31.4-8" fill="#c18455"/><path d="M1575.51 901a25.45 25.45 0 0 1-16.11 8.92c-7.46 1.52-30.12 7.57-11.84 15.39 11.24 4.85 23-.37 30.32-8.54 4.63-5.17 8.57-9.45 14.76-12.25 4.42-1.64 13.83-2.77 11.81-10.31-3.93-15.58-26.29 6.32-31.3 8.34" fill="#c27336"/><path d="M1621.86 908.58a25.46 25.46 0 0 1 16.7-7.76c7.55-1 30.58-5.42 12.9-14.51-10.87-5.64-23-1.26-30.85 6.38-5 4.82-9.22 8.82-15.59 11.18-4.52 1.32-14 1.78-12.51 9.45 2.82 15.81 26.67-4.45 31.81-6.12" fill="#c27336"/><path d="M1646.56 898.05a25.4 25.4 0 0 1 6.33-17.28c4.63-6 17.79-25.42-1.16-19.37-11.67 3.69-17.15 15.34-17.3 26.29-.11 6.93-.28 12.75-3.11 18.91-2.26 4.13-8.64 11.14-2.16 15.52 13.19 9.19 15.72-22 18.17-26.78" fill="#cf8348"/><path d="M1577.13 902.45a25.45 25.45 0 0 1 16 9.07c5.2 5.55 22.2 21.69 19.33 2-1.73-12.1-12.34-19.41-23.13-21.35-6.83-1.24-12.55-2.36-18.18-6.17-3.71-2.9-9.58-10.33-15-4.67-11.25 11.49 19.13 19.09 23.48 22.29" fill="#c18455"/><path d="M1588.87 876.05a25.44 25.44 0 0 1-18.37-1.4c-7.07-2.82-29.32-10.22-18.37 6.35 6.72 10.23 19.44 12.34 30 9.52 6.71-1.77 12.37-3.18 19.08-2.13 4.59 1.06 13.07 5.29 15.54-2.12 5.3-15.17-25.43-9.16-30.73-10.22" fill="#c27336"/><path d="M1562.16 873.15a25.34 25.34 0 0 1-14 12c-7 3-28 13.47-8.49 17.46 12 2.5 22.48-5 28-14.46 3.5-6 6.49-11 12-15 4-2.49 13-5.49 9.49-12.47-7-14.46-24.48 11.47-29 14.47" fill="#cf8348"/><path fill="#fff" d="M1629.09.5h293.41v1080.58h-293.41z"/><path fill="#9cb1b7" d="M1629.09.5h24.76v1080.58h-24.76z"/><path d="M1740.14 632.2a10.64 10.64 0 0 1 3.4.57 10.75 10.75 0 0 1 3.41-.57 11.48 11.48 0 0 1 6 1.74v-117a11.49 11.49 0 0 1-6 1.75 10.75 10.75 0 0 1-3.41-.57 10.64 10.64 0 0 1-3.4.57c-10.82 0-19.58-16.5-19.58-36.85s8.76-36.85 19.58-36.85a10.64 10.64 0 0 1 3.4.57 10.75 10.75 0 0 1 3.46-.56c9.79 0 17.9 13.52 19.35 31.18a166.8 166.8 0 0 0 12.15-.68c10.35 0 18.73 7.38 18.73 16.48v157.27c0 9.09-8.38 16.47-18.73 16.47a21.08 21.08 0 0 1-3.4-.28 21.3 21.3 0 0 1-3.41.28 20.8 20.8 0 0 1-5.22-.66c.07 1.31.11 2.64.11 4 0 20.35-8.77 36.85-19.58 36.85a10.75 10.75 0 0 1-3.41-.57 10.64 10.64 0 0 1-3.4.57c-10.82 0-19.59-16.5-19.59-36.85s8.72-36.86 19.54-36.86z" fill="#e9eff1"/><ellipse cx="1724.58" cy="474.42" rx="17.24" ry="36.82" fill="#5a5c5c"/><ellipse cx="1724.58" cy="661.5" rx="17.24" ry="36.82" fill="#5a5c5c"/><ellipse cx="1730.57" cy="474.42" rx="17.24" ry="36.82" fill="#707071"/><ellipse cx="1730.57" cy="661.5" rx="17.24" ry="36.82" fill="#707071"/><ellipse cx="1731.25" cy="462.64" rx="6.68" ry="11.5" fill="#707071"/><ellipse cx="1731.25" cy="672.92" rx="6.68" ry="11.5" fill="#5a5c5c"/><ellipse cx="1731.25" cy="463.39" rx="6.68" ry="11.5" fill="#5a5c5c"/><path d="M1735.65 641.82a16.49 16.49 0 0 0 16.51 16.48 16.49 16.49 0 0 0 16.51-16.48V484.43a16.49 16.49 0 0 0-16.51-16.43 16.49 16.49 0 0 0-16.51 16.48z" fill="#5a5c5c"/><path d="M1741.65 641.82a16.5 16.5 0 0 0 16.51 16.48 16.49 16.49 0 0 0 16.51-16.48V484.43a16.49 16.49 0 0 0-16.51-16.43 16.5 16.5 0 0 0-16.51 16.48z" fill="#707071"/><path d="M1741.65 539v-45l33 33v45z" fill="#939596"/></svg>
