<svg id="Capa_1" data-name="Capa 1" xmlns="http://www.w3.org/2000/svg" xmlns:xlink="http://www.w3.org/1999/xlink" viewBox="240 0 1440 1080"><defs><clipPath id="clip-path"><path d="M24.69,1080c-1-8.54,1.8-16,1.8-24.2,0-8,2.77-15.74,2.4-23.68-.53-11-4.8-21.51-8.39-32a291.87,291.87,0,0,1,.22-187.78c4.5-13,10-26.07,9.89-39.86-.15-33.72-20.16-64.29-20.38-99.43-.08-7.5,18.06-95.62,24-89.17a105.66,105.66,0,0,1-26.53-88.8c2.1-11.91,6.22-23.45,7.12-35.44,1.2-16.11-3.37-32.07-4.87-48.11a126.27,126.27,0,0,1,29.15-92.16c-28.33-40.09-34-95.17-14.31-140,2.54-5.84,5.54-11.69,6.14-18,.9-9.89-4.12-19.19-7.87-28.4-22.1-55-.3-94.72,56.5-111.65,22.86-6.82,47.06-7,70.89-7.19q85.31-.67,170.54-1.28Q481.7,11.7,642.43,10.5c366.79-2.7,733.73,5.32,1100.22-1.65,30.12-.6,60.85-1,89.54,8.17,116.3,37.31,60.32,150.24,67.59,239.33,3.52,43.54,23.61,71.64,3.9,119.07-4.65,11.16-10.79,22.1-12,34.17-1,10.26,1.65,20.53,4,30.64a484.14,484.14,0,0,1-.38,220.08c-2.92,12.21-6.29,24.58-5.47,37.09.9,13.86,6.9,26.9,10.57,40.31,12.89,46.31,3.74,104,2.77,151.59-.67,31.84-.6,63.77.9,95.61,1.5,31.47,7.94,63.24,7,94.57" style="fill:none"/></clipPath></defs><rect x="-1.34" y="-0.2" width="1920" height="1078.08" style="fill:#362111"/><g id="Layer_1" data-name="Layer 1"><g style="clip-path:url(#clip-path)"><g id="Layer_1-2" data-name="Layer 1"><path d="M38-.37A1.88,1.88,0,0,1,35,.23l-.6-.6h-36v1079H1916.64V-.37Z" style="fill:#4c2d1b"/><path d="M1478.82,987.08c-6.15-10.86-13.27-21.5-17.16-33.49a64.71,64.71,0,0,1-.6-36.79c6.82-25.63,24-47,30.94-72.46,8-28.85-3.22-61.29-15.66-87.3-13.71-28.54-32.07-54.92-53.27-78.45-18.51-20.53-38.74-39.11-55.08-61.52a357.27,357.27,0,0,1-22.78-35.67c-7-12.36-12.81-25.62-21.65-36.79-13.26-16.71-30.8-26.07-51.41-30.79-25.32-5.85-51.92-6.45-76.5-15.22-28.1-10-52.75-26.75-78.83-40.83-14.39-7.8-29.15-15.51-45.33-18.59-15.74-3-31.77-2.47-47.58-.45-30.95,4-62.35,13.19-93.82,10.72C899,447,868.8,431.69,837.33,434.16c-33.5,2.63-65,15.21-97.71,22-24.06,5-50.36,8-71.49,21.51-24.43,15.58-36.49,41.74-53,64.37-7.87,10.64-16.79,20.38-27.73,27.79C576,577.51,564.42,584.7,553,592.12c-18.88,12.21-38.07,24.5-54.7,39.86a174.63,174.63,0,0,0-39,52.08c-13.79,28-21.21,58.9-32.08,88.12-12,32.3-25,64.37-33.27,97.86-4,16.26-6.06,32.9-10.26,49.16s-9.82,33.12-10,50.2c-.15,15.36,4.19,29.3,8.84,43.76,2.77,8.62,4.65,17.09,4.72,25.7,5.32,12.29,6.74,26.08,6.52,39.79H1475.52c1.35-2.47,2.62-4.94,3.9-7.49,6.44-13.49,10.71-28.1,11-43.09S1486,1000,1478.82,987.08Z" style="fill:#472a1a"/><path d="M609.38,1025.75a71.47,71.47,0,0,0,17.24,27c7.19,7,15.51,12.36,23.75,18.13,3.82,2.63,7.72,5.25,11.69,7.72h611c.53-1,1.13-2,1.65-2.92,4.57-8.47,7.65-17.31,11.17-26.23,4-9.81,8.69-19.33,13.41-28.85,9.37-18.88,20.76-39.56,20.46-61-.23-19.56-8.32-38.22-18.51-54.93-10.64-17.45-23.68-33.41-37-49.08-6.14-7.26-11.84-15.13-18.51-21.95a101.44,101.44,0,0,0-22-16.94c-15.66-9-32.89-14.53-49.68-21.2-17.3-6.89-33.27-15.44-47.8-26.83-5.62-4.42-10.72-9.21-16-14-3.9-3.67-8-7.19-13-9.52-6.74-3.14-14.38-4.42-21.8-5.09-12-1.05-24-2-36-2.7s-24.06-1.12-35.9-2.85c-10.79-1.57-21.65-2.77-32.59-3.52-83.62-5.84-168.6,11.77-241,52.53a397.84,397.84,0,0,0-51.85,34.62c-16,12.66-30.35,27-46.16,39.79-14.09,11.46-28.78,23.68-34.77,40.91a61.25,61.25,0,0,0-2.85,30.5c1.65,10,4.95,19.48,8.24,29,0,0,17.16,24.65,7.65,28.24-29.75,11.24,1.27,13.57-.53,20.24S607,1019.23,609.38,1025.75Z" style="fill:#3d2517"/><rect x="-1.68" y="1021.03" width="1918.78" height="58.45" style="fill:#3d2517"/><polygon points="1322.28 405.54 1311.27 405.54 1311.27 393.48 1311.27 386.43 636.58 390.18 594.02 394.3 594.02 401.34 594.02 405.54 581.36 405.54 566.22 1048.08 580.99 1048.08 609.68 1048.08 613.36 448.4 648.35 450.95 1290.29 445.1 1293.96 1048.08 1322.66 1048.08 1337.42 1048.08 1322.28 405.54" style="fill:#3d2517"/><polygon points="1564.84 674.39 1525.5 671.55 902.29 673.87 902.52 706.62 918.63 712.68 1514.93 712.24 1565.14 708.86 1564.84 674.39" style="fill:#5a4836"/><polygon points="1564.76 669.07 1525.42 666.23 902.22 668.55 902.52 701.29 918.63 707.37 1514.93 706.91 1565.06 703.54 1564.76 669.07" style="fill:#816544"/><ellipse cx="925.33" cy="689.78" rx="15.51" ry="1.42" transform="translate(-5.69 7.7) rotate(-0.48)" style="fill:#5a4836"/><path d="M960.59,682c0,.38-3,.83-7.72,1.2s-11.31.9-18.73,1.2a129.28,129.28,0,0,1-19.26-.37,13.65,13.65,0,0,0-1.72-.15c-.53-.08-1-.15-1.5-.23-1-.15-1.73-.3-2.4-.45-1.27-.3-1.87-.52-1.8-.75s1-.3,2.32-.37h4a13,13,0,0,0,1.72-.08c4.65,0,11.16-.22,18.43-.52s14-.45,18.89-.38C957.59,681.29,960.59,681.59,960.59,682Z" style="fill:#5a4836"/><path d="M922.9,672.67c0,.83-3.45,1.5-7.72,1.5s-7.79-.6-7.79-1.42,3.44-1.5,7.72-1.5S922.9,671.85,922.9,672.67Z" style="fill:#5a4836"/><path d="M1505.57,697.85c0,.82-10.87,1.57-24.36,1.65s-24.35-.45-24.35-1.28,10.87-1.57,24.35-1.65S1505.57,697,1505.57,697.85Z" style="fill:#5a4836"/><path d="M1507.74,689.23c0,.83-8.39,1.5-18.81,1.65s-18.81-.52-18.81-1.27,8.4-1.5,18.81-1.65S1507.74,688.48,1507.74,689.23Z" style="fill:#5a4836"/><path d="M1536.44,681.51c0,.75-12.89,1.65-29.07,1.43a196.57,196.57,0,0,1-20.54-1.35c-5.17-.68-8.16-1.43-7.94-1.8s3.52-.37,8.69-.23,12.29.3,20.16.45C1523.48,680.31,1536.44,680.69,1536.44,681.51Z" style="fill:#5a4836"/><path d="M1381.56,698.9c0,.82-29.75,1.72-66.47,2s-66.46-.07-66.46-.9,29.74-1.72,66.46-2S1381.56,698.07,1381.56,698.9Z" style="fill:#5a4836"/><path d="M1284.07,695.38c0,.82-8.92,1.49-19.93,1.64s-19.93-.52-19.93-1.27,8.91-1.5,19.93-1.65S1284.07,694.63,1284.07,695.38Z" style="fill:#5a4836"/><path d="M1303.85,673.8c0,.37-12.89.89-33.72,1.27s-49.6.82-81.45,1.12-60.62.3-81.45.23-33.72-.38-33.72-.75,12.89-.9,33.72-1.35,49.6-.82,81.45-1.12,60.62-.3,81.45-.23S1303.85,673.42,1303.85,673.8Z" style="fill:#5a4836"/><polygon points="643.33 997.73 639.73 978.62 653.82 965.88 671.43 972.17 674.95 991.28 660.94 1004.09 643.33 997.73" style="fill:#332a2b"/><polygon points="614.18 994.73 610.66 975.62 624.67 962.81 642.28 969.18 645.88 988.28 631.79 1001.02 614.18 994.73" style="fill:#332a2b"/><polygon points="575.37 994.73 571.77 975.62 585.86 962.81 603.46 969.18 606.99 988.28 592.97 1001.02 575.37 994.73" style="fill:#332a2b"/><polygon points="577.16 1010.54 558.96 1006.64 553.03 988.21 565.32 973.6 583.61 977.49 589.53 995.93 577.16 1010.54" style="fill:#020202"/><polygon points="617.63 967.15 627.44 983.71 618.6 1000.87 600.02 1001.4 590.2 984.91 599.04 967.75 617.63 967.15" style="fill:#020202"/><polygon points="631.94 999.97 626.54 981.32 639.28 967.15 657.41 971.65 662.81 990.23 650.07 1004.39 631.94 999.97" style="fill:#020202"/><polygon points="695.33 993.45 684.91 1009.56 666.33 1008.22 658.16 990.68 668.65 974.57 687.24 975.92 695.33 993.45" style="fill:#020202"/><polygon points="547.72 1016.61 551.99 997.65 539.62 984.24 522.91 989.71 518.64 1008.59 531 1022.08 547.72 1016.61" style="fill:#332a2b"/><polygon points="575.29 1007.84 579.56 988.96 567.2 975.54 550.49 981.01 546.22 999.9 558.58 1013.31 575.29 1007.84" style="fill:#332a2b"/><polygon points="610.81 1019.9 615.15 1000.95 602.72 987.53 586 993 581.73 1011.89 594.1 1025.38 610.81 1019.9" style="fill:#332a2b"/><polygon points="638.01 1018.26 642.35 999.37 629.91 985.89 613.28 991.36 608.93 1010.31 621.37 1023.73 638.01 1018.26" style="fill:#332a2b"/><polygon points="674.13 1020.13 678.4 1001.25 666.03 987.83 649.32 993.3 645.05 1012.19 657.41 1025.6 674.13 1020.13" style="fill:#332a2b"/><polygon points="714.29 1031.14 728.75 1020.35 727.78 1000.95 712.34 992.33 697.8 1003.2 698.78 1022.6 714.29 1031.14" style="fill:#020202"/><polygon points="686.56 1025.45 703.72 1022.53 710.24 1004.39 699.53 989.18 682.37 992.18 675.92 1010.31 686.56 1025.45" style="fill:#332a2b"/><polygon points="671.58 1035.87 688.74 1032.87 695.18 1014.73 684.54 999.6 667.38 1002.52 660.86 1020.65 671.58 1035.87" style="fill:#020202"/><polygon points="636.21 990.61 626.32 1006.64 633.59 1024.18 650.82 1025.67 660.79 1009.64 653.52 992.03 636.21 990.61" style="fill:#020202"/><polygon points="621.3 1022.68 627.22 1004.32 616.13 989.56 599.04 993.08 593.12 1011.44 604.21 1026.2 621.3 1022.68" style="fill:#020202"/><polygon points="562.7 1013.09 571.54 1029.65 588.93 1029.2 597.39 1012.11 588.55 995.48 571.17 996 562.7 1013.09" style="fill:#020202"/><polygon points="547.57 1022.6 563.3 1014.28 564.95 994.88 550.86 983.79 535.05 992.11 533.4 1011.51 547.57 1022.6" style="fill:#020202"/><polygon points="529.28 1022.75 533.55 1003.79 521.19 990.38 504.48 995.85 500.21 1014.73 512.57 1028.22 529.28 1022.75" style="fill:#020202"/><polygon points="686.11 1044.41 682.59 1025.3 696.6 1012.56 714.21 1018.93 717.81 1037.96 703.72 1050.78 686.11 1044.41" style="fill:#332a2b"/><polygon points="657.04 1034.29 653.44 1015.18 667.53 1002.45 685.14 1008.74 688.66 1027.85 674.65 1040.59 657.04 1034.29" style="fill:#332a2b"/><polygon points="618.15 1044.41 614.63 1025.3 628.64 1012.56 646.25 1018.93 649.85 1037.96 635.76 1050.78 618.15 1044.41" style="fill:#332a2b"/><polygon points="589.08 1041.41 585.48 1022.3 599.57 1009.49 617.18 1015.86 620.7 1034.97 606.69 1047.7 589.08 1041.41" style="fill:#332a2b"/><polygon points="550.19 1041.41 546.67 1022.3 560.68 1009.49 578.29 1015.86 581.88 1034.97 567.8 1047.7 550.19 1041.41" style="fill:#332a2b"/><polygon points="506.5 1050.33 491.52 1038.71 493.61 1019.38 510.77 1011.66 525.68 1023.28 523.59 1042.61 506.5 1050.33" style="fill:#020202"/><polygon points="536.55 1046.06 518.27 1042.23 512.35 1023.73 524.64 1009.19 542.92 1013.01 548.84 1031.44 536.55 1046.06" style="fill:#332a2b"/><polygon points="592.52 1013.84 602.34 1030.39 593.5 1047.56 574.84 1048.15 565.1 1031.59 573.87 1014.43 592.52 1013.84" style="fill:#020202"/><polygon points="606.76 1046.65 601.44 1028 614.18 1013.84 632.31 1018.33 637.71 1036.91 624.89 1051.08 606.76 1046.65" style="fill:#020202"/><polygon points="685.96 1050.4 669.48 1041.34 668.8 1021.85 684.62 1011.51 701.02 1020.65 701.7 1040.06 685.96 1050.4" style="fill:#020202"/><path d="M602.86,110.16l102.59,936.2,17.38-1.43L620.32,109.71Z" style="fill:#5c2414"/><path d="M503.58,110.08l77.7,936.43h17.54L521.11,111C515.27,110.83,509.42,110.46,503.58,110.08Z" style="fill:#5c2414"/><path d="M492.57,142.83c31.54,21.28,96.73-15.29,135.47-12.29,2.25,6.07,7.05,21.28,7.79,30.42-48.25,9.14-100.18,15.29-149.71,9.22-.75-9.14,2.77-9.14,4-15.21" style="fill:#772d16"/><path d="M490.47,286c16,3,44.51-12.22,63.24-18.28,17.23-3.08,94.94-36.65,96.51,3C624,270.66,600.77,286,576.49,289c-22.48,3.07-54.25,21.35-76,12.21,1.27-6.07,3-6.07,4.27-12.21" style="fill:#772d16"/><path d="M514.74,368.15c48.71-3.07,101.46-.08,150.77,24.28-1.28,6.07-.53,15.21-1.73,21.28-24-15.21-142.22-6-148.21-36.42" style="fill:#772d16"/><path d="M518.87,502.13c49,21.28,111.42-27.5,165.22-12.29.23,3.07.75,9.14,1.27,15.21-31.47,0-63.69,12.21-94.48,21.35-13.72,3.08-91.42,36.65-72.76-12.13" style="fill:#772d16"/><path d="M541.65,818.79c22.77,0,166.42-39.72,169.94,2.92-52,6.14-108.73-3-158,15.36-6.29-12.14-2.77-12.21-1.27-15.21" style="fill:#772d16"/><path d="M548.46,879.63l-.37-.75a19.62,19.62,0,0,1-4.57,8c20.23,24,65.41,17.83,82.5,20.08,19.48,3,97.48,36.49,95.46-9.21C666,882.63,605,885.7,548.46,879.63Z" style="fill:#772d16"/><path d="M506.88,176.1c.67,1.12,5.09-3.82,10.26-10.57,2.55-3.37,4.87-6.59,6.45-9.14.75-1.27,1.42-2.25,1.8-3.07a4.13,4.13,0,0,0,.52-1.57c0-.38-.6-.6-1.2-.3a10,10,0,0,0-2.55,1.64A49.55,49.55,0,0,0,515,161C509.72,167.78,506.2,174.9,506.88,176.1Z" style="fill:#d79069"/><path d="M508.23,149.72c-.23.6,1.19,2.92,3.52,6.22A145.51,145.51,0,0,0,521.34,168a76.39,76.39,0,0,0,10.34,10c2.77,2,4.57,2.77,4.72,2.1s-1.42-2.7-3.9-5.47-5.92-6.74-9.74-11.09-7.34-8.24-10-10.72S508.38,149.05,508.23,149.72Z" style="fill:#d79069"/><path d="M611.41,169.88c.22.15.52-.38,1-1.5a15.68,15.68,0,0,0,.68-2,27.27,27.27,0,0,1,.89-2.7c1.28-4,3.08-9.52,5-15.74a163.54,163.54,0,0,0,4.34-16.71c.23-1.12.38-2.17.53-3.14s.15-1.88.22-2.55c.08-1.42,0-2.25-.22-2.4s-.53.38-1,1.5a19.72,19.72,0,0,0-.67,1.95c-.3.75-.6,1.65-1,2.62-1.35,3.9-3.22,9.37-5.17,15.66a131.32,131.32,0,0,0-4.19,16.94,41.25,41.25,0,0,0-.68,5.69C611.11,168.91,611.18,169.73,611.41,169.88Z" style="fill:#d79069"/><path d="M605,135.41c-.3.53.6,3,2.25,6.59s4,8.47,7,13.57a67.52,67.52,0,0,0,8.25,11.61c2.32,2.47,4,3.37,4.12,2.77s-1-2.69-2.92-5.69-4.5-7.42-7.35-12.21-5.47-9.37-7.49-12.37C606.69,136.53,605.34,134.89,605,135.41Z" style="fill:#d79069"/><path d="M516.84,310.08c.38.52,1.73-1.13,3.52-4.35a146.38,146.38,0,0,0,6.37-13.41c2.33-5.47,4.28-10.57,5.62-14.31.68-1.88,1.2-3.45,1.5-4.43a.4.4,0,0,0,.08-.29h0a3.69,3.69,0,0,0-.15-.45c0-.08-.08-.23-.08-.3h0c-.07.07-.07.07-.15,0h-.22v.07a.3.3,0,0,0,.07.23,1.65,1.65,0,0,0,.23.67c.07.07.22,0,.37-.3.08-.07.08-.15.15-.3s.08-.15.08-.3v-.22c0-.15-.08-.3-.08-.45s-.3-.45-.37-.53h-.3c-.08,0-.15.08-.23.08a1.11,1.11,0,0,0-.3.22,14.7,14.7,0,0,0-2.47,3.45A119.72,119.72,0,0,0,524,288.5c-2.33,5.47-4.27,10.56-5.55,14.46S516.54,309.48,516.84,310.08Z" style="fill:#d79069"/><path d="M514.15,277.56c-.15.22-.08.9.3,2.09a17.32,17.32,0,0,0,.74,2,18,18,0,0,0,1.13,2.47,43.64,43.64,0,0,0,8.32,11.09,32.82,32.82,0,0,0,9.51,6.37c2.48,1,4.05,1,4.12.3.15-1.57-5.77-5.17-12.44-11.39a89.83,89.83,0,0,1-8.16-9.07,13.19,13.19,0,0,1-1.35-1.8c-.38-.52-.75-1-1.05-1.34C514.74,277.71,514.3,277.33,514.15,277.56Z" style="fill:#d79069"/><path d="M621.67,279.5c.68,1.05,4.5-4.72,8.47-13,3.75-8.69,6.07-16.48,5.32-17.46s-4.35,5.17-7.94,13.71C623.55,271,620.92,278.46,621.67,279.5Z" style="fill:#d79069"/><path d="M620.25,249.08c-.38,1.43,3.82,6.6,8.84,13,1.2,1.72,2.4,3.3,3.45,4.65s2,2.77,2.84,3.82c1.65,2.17,2.85,3.29,3.15,2.77s-.37-2.47-1.72-5.4a39.7,39.7,0,0,0-2.55-4.87c-1-1.64-2.25-3.44-3.52-5.24C625.49,251,620.55,247.81,620.25,249.08Z" style="fill:#d79069"/><path d="M527.11,391.23a.4.4,0,0,0,.37.37,1.47,1.47,0,0,0,.75-.15,8.5,8.5,0,0,0,1.95-1.87,42.47,42.47,0,0,0,5-8.17c3.6-6.89,5.77-13.56,5.1-14.61s-4,3.75-7.57,10.64c-1.8,3.45-3.22,6.67-4.27,9.14a28.67,28.67,0,0,0-1.13,3.07,7.42,7.42,0,0,1-.22.9Z" style="fill:#d79069"/><path d="M521.41,364.85c-.15.68,1.28,2.92,3.75,6.22s5.85,7.87,9.74,12.66a53.45,53.45,0,0,0,10.87,10.2c3,1.72,4.87,2.09,4.94,1.42s-1.65-2.4-4.27-5-6.14-6.44-10-11.09a136.45,136.45,0,0,0-10.27-11.39C523.44,365.3,521.56,364.25,521.41,364.85Z" style="fill:#d79069"/><path d="M637.78,417.53c.38.45,1.43-1.57,3-4.8s3.67-7.71,6.14-12.51,4.73-9,6.37-12,2.85-4.5,2.63-5.24-1.95-.3-4.2,2a48.37,48.37,0,0,0-7.34,11.24,80.81,80.81,0,0,0-5.55,14C637.71,414.31,637.33,417.15,637.78,417.53Z" style="fill:#d79069"/><path d="M634,372.87c-.68.9,3.67,11.31,9.74,23.3,6.29,11.69,11.91,20.31,12.44,19.26s-4-11.16-10.19-22.63C640,381,634.71,372,634,372.87Z" style="fill:#d79069"/><path d="M540.75,541.47c.67,1,5.69-6.67,10.71-18.14.68-1.65,1.35-3.22,1.95-4.79s1.2-3,1.65-4.57c.9-3.08,1.72-5.77,2.25-8l.75-3.15-1.88.38a3.11,3.11,0,0,0-1.72,1.27c-.38.52-.6.9-.83,1.2-.37.6-.67.9-.67,1.27s.45.68,1.2.53a3.79,3.79,0,0,0,1.12-.53,1.32,1.32,0,0,1,1.13-.22c-.38-.9-.68-1.8-1-2.78-.83,1.88-1.88,4.2-2.92,7-.53,1.43-1.13,2.78-1.8,4.2s-1.28,3-1.95,4.57C543.82,530.83,540,540.34,540.75,541.47Z" style="fill:#d79069"/><path d="M533,504.9c-.15.75,1.35,2.32,3.45,5.09s4.94,6.9,8.09,11.62,6.29,8.84,8.84,11.16,4.2,3.15,4.35,2.48-1.2-2.55-3.23-5.62-4.87-7.35-8-12.07-6.45-8.76-9-10.86S533.1,504.22,533,504.9Z" style="fill:#d79069"/><path d="M645.88,515c.74.9,4.72-7,9.06-17.68,2.18-5.32,4-10.34,5.17-14.16a43.33,43.33,0,0,0,1.28-4.72c.15-.6.15-1.13.22-1.5v-.53a.28.28,0,0,1-.22-.07c-.08-.52-.45-.07-1,.67a34.78,34.78,0,0,0-2.1,3.6,141.1,141.1,0,0,0-5.92,13.11C647.9,504.37,645.05,514,645.88,515Z" style="fill:#d79069"/><path d="M646,488.56c-.45,1.2,3.9,7.95,9.37,15.44s9.81,13.94,10.49,13c.6-.82-3-9.14-8.69-17C651.5,492.24,646.4,487.44,646,488.56Z" style="fill:#d79069"/><path d="M501.71,669c34.17-3.22,74.63-.9,111.5-1.65,30.79-2.25,61.51.45,93.36,1,10.79,44.36-195.57,36.87-204.86,1.5" style="fill:#772d16"/><path d="M553.71,696c1,1,3.9-5.91,6.52-15.43s4-17.91,3.07-18.88-3.9,5.92-6.52,15.43S552.74,695,553.71,696Z" style="fill:#d79069"/><path d="M542.1,661.28c-.08.68,1.64,2.55,4.34,5.4s6.3,7,10.34,11.84,7.64,9.29,10.42,12.28,4.57,4.73,4.79,4.28-1.12-2.93-3.59-6.6-5.92-8.54-10-13.49a72.15,72.15,0,0,0-11.24-11.24,21.59,21.59,0,0,0-2-1.42c-.6-.37-1.12-.67-1.57-.9C542.62,661.06,542.17,661,542.1,661.28Z" style="fill:#d79069"/><path d="M673.15,700.62c.9,1,3.9-5.32,6.44-14.16a104.37,104.37,0,0,0,2.78-11.92c.45-3.37.45-5.62,0-6s-1.43,1.05-2.4,3.67A104,104,0,0,0,676.22,683C673.6,691.78,672.18,699.65,673.15,700.62Z" style="fill:#d79069"/><path d="M663.41,667.58c0,.67,2,2.62,5.32,5.47s7.79,6.81,12.89,11.09a162.25,162.25,0,0,0,13.19,10.34c3.44,2.32,5.62,3.37,5.69,2.77s-2-2.77-5.17-5.92-7.79-7.27-12.89-11.62a124.35,124.35,0,0,0-13.26-10C665.58,667.65,663.41,666.9,663.41,667.58Z" style="fill:#d79069"/><path d="M683.79,831.6c.38.45,1.42-.9,2.92-3.15s3.6-5.39,5.92-8.91c4.57-7,8.25-13,7.65-14.39-.6-1.2-5.25,2.77-10,10a50.24,50.24,0,0,0-5.4,10.49C683.79,828.9,683.42,831.15,683.79,831.6Z" style="fill:#d79069"/><path d="M675.77,805.23c-.07.74,1.2,2.17,3.23,4.19s4.72,5,7.79,8.17,5.92,6.14,8.09,8,3.6,2.62,3.75,1.94-.9-2.54-2.78-5.17a96.75,96.75,0,0,0-7.71-9.36c-3.15-3.3-6.22-5.92-8.55-7.12a7.12,7.12,0,0,0-2.77-1C676.15,804.78,675.77,804.85,675.77,805.23Z" style="fill:#d79069"/><path d="M566.67,839.84c.38.45,1.43-.75,2.7-3.07s3-5.62,4.8-9.51c3.59-7.72,6-14.77,5.32-15.82s-4.35,4.2-8,12a76.11,76.11,0,0,0-4.12,10.79C566.6,837.3,566.22,839.39,566.67,839.84Z" style="fill:#d79069"/><path d="M561.13,815.49c-.15.68,1,2.32,2.7,4.57s4.19,5.47,7.11,8.77a29.52,29.52,0,0,0,8.1,6.74c2.24.9,3.59.9,3.67.23s-1.13-2.1-3.07-3.82c-1.88-1.88-4.43-4.43-7.2-7.65a59.16,59.16,0,0,0-7.64-7.57C562.63,815.27,561.28,814.82,561.13,815.49Z" style="fill:#d79069"/><path d="M571.24,908.86c.75,1.12,4.72-5.32,9.3-13.42,2.32-4,4.42-7.56,6-10s2.55-4.19,2.25-4.94-1.73-.15-3.75,1.65a39.86,39.86,0,0,0-6.89,9.21C573.34,899.64,570.49,907.81,571.24,908.86Z" style="fill:#d79069"/><path d="M570,880.46c-.45,1.2,3.75,7.79,9.45,14.76,5.84,6.59,10.86,10.86,11.24,9.59s-4-7.57-9.67-14C575.36,883.9,570.49,879.26,570,880.46Z" style="fill:#d79069"/><path d="M690.38,925c.15.3.6,0,1.35-.75a20.73,20.73,0,0,0,2.7-3.9,117.63,117.63,0,0,0,7-15.29c5-12.58,8.17-23.82,7.42-24.72s-5.17,8.76-10.11,21.2c-2.48,6.22-4.65,11.92-6.22,16.11-.75,2.18-1.43,3.67-1.8,5A5,5,0,0,0,690.38,925Z" style="fill:#d79069"/><path d="M686.64,894.54c-.23.6.82,2.78,2.85,5.77a107.39,107.39,0,0,0,8.24,10.34c3.3,3.75,6.22,6.9,8.39,9.22s3.6,3.67,3.9,3.07-.75-2.84-2.63-6.07a84.78,84.78,0,0,0-8.16-10.71c-3.3-3.75-6.37-6.82-8.62-8.92S686.94,893.94,686.64,894.54Z" style="fill:#d79069"/><polygon points="367.13 57.03 437.79 50.59 1556.67 44.89 1556.67 111.81 1527.82 124.55 457.27 133.54 367.13 127.54 367.13 57.03" style="fill:#5a4836"/><polygon points="367.13 46.24 437.79 39.72 1556.67 34.03 1556.67 100.94 1527.82 113.68 457.27 122.67 367.13 116.68 367.13 46.24" style="fill:#816544"/><path d="M1487.81,77.79c0,1.65,12.44,3,27.8,3s27.8-1.35,27.8-3-12.44-3-27.8-3S1487.81,76.14,1487.81,77.79Z" style="fill:#5a4836"/><path d="M1452,62.43c0,.82,5.32,1.57,13.86,2.32s20.31,1.72,33.65,2.17,25.77.15,34.62-1c1.12-.15,2.09-.22,3.14-.37s1.88-.38,2.78-.53c1.72-.37,3.14-.67,4.27-1,2.32-.6,3.37-1.2,3.22-1.58s-1.72-.6-4.2-.67a40.4,40.4,0,0,0-4.42,0c-.82,0-1.72.07-2.62.07s-2,0-3.07-.07c-8.4.07-20-.3-33-.68s-25.1-.75-33.94-.45S1452,61.68,1452,62.43Z" style="fill:#5a4836"/><path d="M1519.58,42.72c0,1.65,6.22,3,13.94,3s13.93-1.35,13.93-3-6.22-3-13.93-3S1519.58,41.07,1519.58,42.72Z" style="fill:#5a4836"/><path d="M473.83,104.09c0,1.65,19.56,3,43.76,3s43.76-1.35,43.76-3-19.55-3-43.76-3S473.83,102.44,473.83,104.09Z" style="fill:#5a4836"/><path d="M469.86,86.56c0,1.64,15.14,3,33.8,3s33.79-1.35,33.79-3-15.14-3-33.79-3S469.86,84.91,469.86,86.56Z" style="fill:#5a4836"/><path d="M418.16,71.19c0,1.58,23.23,3.23,52.23,2.48a303.07,303.07,0,0,0,36.86-3.08c9.22-1.49,14.61-3,14.24-3.74s-6.3-.75-15.59-.38-22,.75-36.11,1.28C441.54,68.5,418.16,69.47,418.16,71.19Z" style="fill:#5a4836"/><path d="M696.53,104.09c0,1.65,53.43,3,119.29,3s119.29-1.35,119.29-3-53.42-3-119.29-3S696.53,102.44,696.53,104.09Z" style="fill:#5a4836"/><path d="M871.49,95.32c0,1.65,16,3,35.82,3s35.82-1.35,35.82-3-16-3-35.82-3S871.49,93.67,871.49,95.32Z" style="fill:#5a4836"/><path d="M835.68,51.49c0,.82,23.15,1.57,60.54,2.1s89.1.89,146.19.89,108.81-.3,146.2-.89,60.54-1.28,60.54-2.1-23.15-1.58-60.54-2.1-89.1-.9-146.2-.9-108.8.3-146.19.9S835.68,50.66,835.68,51.49Z" style="fill:#5a4836"/><polygon points="1527.97 1054.82 1599.98 1054.82 1574.88 63.48 1521.38 63.48 1527.97 1054.82" style="fill:#816544"/><polygon points="1574.88 63.48 1599.98 1054.82 1575.55 1054.82 1553.97 63.48 1574.88 63.48" style="fill:#5a4836"/><path d="M1563.79,1050.63c-1,.3-2.77-33.72-3.07-76s.67-76.28,1.72-76.28,1.8,34.09,2,76S1564.91,1050.25,1563.79,1050.63Z" style="fill:#5a4836"/><ellipse cx="1541.98" cy="1014.66" rx="1.87" ry="31.7" style="fill:#5a4836"/><path d="M1546,281c1,0,1.8,24.66,2,54.85s.45,54.63-.67,55.08-2.77-24.06-3.07-54.78C1544.16,305.58,1545.06,281,1546,281Z" style="fill:#5a4836"/><path d="M1537.86,314.8c1.13.07,2,60.39,3.9,135,1.87,74.71,1.12,135.85.22,135.7-1.12-.07-2-60.39-3.89-135C1536.21,375.79,1537,314.72,1537.86,314.8Z" style="fill:#5a4836"/><polygon points="348.17 1054.82 276.09 1054.82 301.26 63.48 354.77 63.48 348.17 1054.82" style="fill:#816544"/><polygon points="301.26 63.48 276.09 1054.82 300.51 1054.82 322.17 63.48 301.26 63.48" style="fill:#5a4836"/><path d="M312.35,1050.63c1,.3,2.78-33.72,3.08-76s-.68-76.28-1.73-76.28-1.8,34.09-2,76S311.23,1050.25,312.35,1050.63Z" style="fill:#5a4836"/><path d="M334.16,1046.36c1,0,1.87-14.17,1.87-31.7s-.82-31.7-1.87-31.7-1.87,14.17-1.87,31.7S333.19,1046.36,334.16,1046.36Z" style="fill:#5a4836"/><path d="M330.11,281c-1.05,0-1.8,24.66-2,54.85s-.45,54.63.67,55.08,2.78-24.06,3.08-54.78C332,305.58,331.09,281,330.11,281Z" style="fill:#5a4836"/><path d="M338.28,314.8c-1.12.07-2,60.39-3.9,135-1.87,74.71-1.12,135.85-.22,135.7,1.12-.07,2-60.39,3.9-135C339.93,375.79,339.18,314.72,338.28,314.8Z" style="fill:#5a4836"/><polygon points="962.61 1054.82 890.6 1054.82 915.71 63.48 969.21 63.48 962.61 1054.82" style="fill:#816544"/><polygon points="915.71 63.48 890.6 1054.82 915.03 1054.82 936.68 63.48 915.71 63.48" style="fill:#5a4836"/><path d="M926.87,1050.63c1,.3,2.77-33.72,3.07-76s-.67-76.28-1.72-76.28-1.8,34.09-2,76S925.75,1050.25,926.87,1050.63Z" style="fill:#5a4836"/><path d="M948.67,1046.36c1.05,0,1.88-14.17,1.88-31.7s-.83-31.7-1.88-31.7-1.87,14.17-1.87,31.7S947.63,1046.36,948.67,1046.36Z" style="fill:#5a4836"/><path d="M944.55,281c-1,0-1.8,24.66-2,54.85s-.45,54.63.67,55.08,2.78-24.06,3.08-54.78C946.5,305.58,945.6,281,944.55,281Z" style="fill:#5a4836"/><path d="M952.8,314.8c-1.13.07-2,60.39-3.9,135-1.87,74.71-1.12,135.85-.23,135.7,1.13-.07,2-60.39,3.9-135C954.44,375.79,953.7,314.72,952.8,314.8Z" style="fill:#5a4836"/><path d="M1646,244.14c.15.07.37-.08.6-.3l1-1a5,5,0,0,1,3.6-1.2,7.27,7.27,0,0,1,3.67,1.65c.83.68,1.35,1.28,1.65,1.13s.15-1-.6-2.1a6.22,6.22,0,0,0-1.72-1.73,5.67,5.67,0,0,0-2.85-1,5.74,5.74,0,0,0-3.07.6,4.35,4.35,0,0,0-1.8,1.72,4.17,4.17,0,0,0-.6,1.5C1645.84,243.84,1645.84,244.06,1646,244.14Z" style="fill:#482f14"/><path d="M1650.86,236.27a.48.48,0,0,0,.52-.08c.15-.07.23-.15.38-.22a3.78,3.78,0,0,1,.52-.23,2.65,2.65,0,0,1,2.48,0,6,6,0,0,1,2.09,2c.53.67.83,1.2,1.13,1.12s.45-.67.22-1.72a5.16,5.16,0,0,0-.75-1.65,4.32,4.32,0,0,0-1.72-1.57,3.83,3.83,0,0,0-2.55-.38,4.75,4.75,0,0,0-1,.45,2.9,2.9,0,0,0-.67.6,3.9,3.9,0,0,1-.45.6c-.08.15-.15.37-.23.52S1650.71,236.19,1650.86,236.27Z" style="fill:#482f14"/><path d="M38-.37A1.88,1.88,0,0,1,35,.23l-.6-.6h-36v1079H298.57c-18.14-22.85-54.18-37.54-76.58-48.7,9-24.73,18-49.46,18-76.43s-24.73-47.21-27-67.44c-2.24-11.24,15.74-24.73,18-36,2.25-13.49-6.75-22.48-4.5-31.47,4.5-29.23,29.23-51.7,33.72-80.93C264.7,704,249,690.5,231,661.28c-20.23-31.47-11.24-36,0-69.68,9-20.24,15.73-47.21,13.49-69.69-2.25-27-27-45-31.48-67.44-2.24-20.23,15.74-38.22,18-60.69,0-9-9-27-9-29.23,2.24-15.73,42.48-32.67,47-48.48,5.92-14.09-2.1-53.2,25.4-71.56,12.51-8.32,45.93-22.85,60.92-37.84,18-18,40.61-110.22,67.59-114.72C447.61,89.7,476,52.09,505.23,54.33c22.48,2.25,42.71,2.25,62.94,2.25,29.22,0,56.2,0,83.18-6.74,60.69-11.24,49.45,9,110.15-9,13.48-6.75,74.1-6,56.19-9-19.93-3.38,60.7,4.49,67.44,11.23,20.23,15.74,74.18-18,98.91-11.23,60.7,20.23,123.64,20.23,186.58,20.23,39.19,0,74.11-10.49,108.88-27.5-28.1,19.85,148.59,115.47,229.14,74.18,0,0,110.45,211,193.17,173.77-21.43,13.33-31.92,32.29-29.89,58.29,0,13.49,11.24,24.73,11.24,36-2.25,15.74-11.24,18-20.24,33.72-20.23,40.46-20.23,96.66-15.73,139.37,4.49,27,11.24,54,24.73,76.43,6.74,11.24,24.72,29.23,27,40.47,4.5,20.23-2.25,15.73-9,36-13.49,24.73-22.48,42.71-15.74,71.94,4.5,18,22.48,47.2,20.24,65.19-2.25,11.24-15.74,18-18,33.72,0,15.73,11.24,20.23,11.24,33.72,2.25,22.48,2.25,9-4.49,29.22-2.25,11.24-13.49,24.73-18,36-11.24,36-20.23,40.46-40.46,69.68-11.39,13-13.34,31.92-17.83,46.46h310.21V-.37Z" style="fill:#6d3f25"/><path d="M102.4,681.51c27.27-8.54,51.85-24,74.93-40.53,15.66-11.24,29.22-22.41,46-28.55,2.09-5.7,4.79-12.37,7.64-20.91,9-20.23,15.73-47.21,13.49-69.69-2.25-27-27-45-31.48-67.43-2.24-20.24,15.74-38.22,18-60.7,0-9-9-27-9-29.22a12.48,12.48,0,0,1,.75-2.78c-25.33,6.52-50.28,15.44-75.16,24.58C100.37,403.74,50,425-1.16,430.34V687c1.57.3,3.07.53,4.65.83C36.61,693.05,70.32,691.55,102.4,681.51Z" style="fill:#613a21"/><path d="M-1.16,690.21v388.44H298.57c-4.5-14.54-50.13-37.61-61.45-50.65-20.23-29.23,17.16-23.53,5.92-59.5-4.49-11.24-8.69-30.8-10.94-42-6.74-20.23-17.53-18.58-15.28-41.06,0-13.49,17.83-14.61,17.83-30.35-2.25-15.73-11.54-13.93-13.79-25.17-2.25-18,15.74-47.21,20.23-65.19,6.75-29.23,22.56-57.92,9.07-82.65-6.74-20.23-34-22.93-29.52-43.16,2.25-11.24,5.17-2.25,11.91-13.49.9-1.5,12.44-19.33,13.26-20.83-14.38.9-28.32,12.21-41.21,20.68-23.9,15.74-45.11,34.17-70.81,47.36C90.41,694.78,44.85,697-1.16,690.21Z" style="fill:#52301c"/><path d="M1767.75,386.28c-28.32-10.41-56.8-20.6-85.87-27.2a23,23,0,0,1,1.43,7.64c-2.25,15.74-11.24,18-20.24,33.72-20.23,40.47-20.23,96.67-15.73,139.38,3.89,23.6,9.59,47.13,19.93,67.74,1.5.07,3.07.15,4.57.3,27.28,2.54,44.73,17.6,66.17,33,23.07,16.56,47.65,32,74.93,40.54,32.07,10,65.79,11.54,98.91,6.22,1.57-.23,3.14-.53,4.64-.83V430.34C1865.39,425,1815,403.74,1767.75,386.28Z" style="fill:#613a21"/><path d="M1781.54,672.52c-25.7-13.19-46.83-31.62-70.81-47.36a83,83,0,0,0-41.29-13.41c.83,1.5,1.73,3,2.55,4.5,6.74,11.24,24.73,29.22,27,40.46,4.49,20.23-2.25,15.74-9,36-13.48,24.73-22.48,42.71-15.73,71.93,4.49,18,22.48,47.21,20.23,65.19-2.25,11.24-15.74,18-18,33.72,0,15.74,11.24,20.23,11.24,33.72,2.24,22.48,2.24,9-4.5,29.22-2.25,11.24-13.49,24.73-18,36-11.24,36-20.23,40.47-40.47,69.69-11.39,13-13.33,31.92-17.83,46.46h309.54V690.21C1870.56,697,1825,694.78,1781.54,672.52Z" style="fill:#52301c"/><path d="M1708.78,664.35c-.52-.82-1.57-1.35-3.29-1.35a7.65,7.65,0,0,0-1.35.08c-.45.07-1,.15-1.58.22s-1.12.23-1.72.45-1.27.45-1.95.68a38.05,38.05,0,0,0-9.07,5.09,56.42,56.42,0,0,0-10,9.82,65.24,65.24,0,0,0-8.76,14.54c-.68,1.35-1.2,2.84-1.8,4.27s-1.13,3-1.58,4.49a96,96,0,0,0-2.47,9.52,120.5,120.5,0,0,0-.3,42.49,144.93,144.93,0,0,0,12.52,39.56A122.28,122.28,0,0,0,1696,822.53c6.52,7.27,13,12.07,18,14.54s8.54,2.62,9.74,1,.23-4.72-1.87-9.14-5.39-10.42-8.92-18A264.85,264.85,0,0,1,1702,784a223.54,223.54,0,0,1-8.62-34.09,145.94,145.94,0,0,1-1.87-34,89.93,89.93,0,0,1,5.62-26.08,108.9,108.9,0,0,1,8.61-16.71C1708.41,669.07,1709.83,666.08,1708.78,664.35Z" style="fill:#7f4b30"/><path d="M1702.79,830.7a5.12,5.12,0,0,0-2-2.25,7.9,7.9,0,0,0-1.57-.75c-.3-.07-.6-.22-1-.29s-.67-.08-1-.15a12,12,0,0,0-2.4,0,21,21,0,0,0-2.69.52,21.87,21.87,0,0,0-6.07,2.85,33.51,33.51,0,0,0-11.17,12.89,45.36,45.36,0,0,0-3.37,9.21,51,51,0,0,0-1.27,10.27,50.34,50.34,0,0,0,1,10.19,42.67,42.67,0,0,0,3.07,9.14c2.7,5.62,6.37,10.27,10.34,13.11,1,.68,1.95,1.35,2.93,1.88a18.74,18.74,0,0,0,2.84,1.27,25.69,25.69,0,0,0,2.7.75,14.26,14.26,0,0,0,2.4.22,5,5,0,0,0,1-.07,3.94,3.94,0,0,0,1-.23,8.79,8.79,0,0,0,1.65-.59,4.79,4.79,0,0,0,2.1-2.1,7.78,7.78,0,0,0,.75-2.93V892c0-.3-.08-.53-.08-.83s-.07-.6-.07-.9a12.29,12.29,0,0,0-.3-1.72,17.31,17.31,0,0,0-.3-1.87c-.23-1.13-.38-2.48-.68-3.9-.45-2.62-.82-5.62-1.12-8.92-.15-1.65-.3-3.37-.37-5.17s-.08-3.67-.08-5.54.15-3.75.23-5.47.3-3.45.52-5c.45-3.15.9-6,1.42-8.55.3-1.27.6-2.54.83-3.74l.45-1.8a13.21,13.21,0,0,0,.37-1.72c.08-.3.08-.6.15-.9s.08-.53.15-.83a10.43,10.43,0,0,0,.15-1.57A5.46,5.46,0,0,0,1702.79,830.7Z" style="fill:#7f4b30"/><path d="M1693.8,901.14a4.36,4.36,0,0,0-2.78-1.43,10,10,0,0,0-4.42.68c-3.37,1.2-7.34,4.05-11.16,8.17a64,64,0,0,0-10.57,16,84.55,84.55,0,0,0-7,22.18,67.84,67.84,0,0,0,.07,24.57,43.09,43.09,0,0,0,3.75,11.24,33,33,0,0,0,6.52,9.15,23.71,23.71,0,0,0,8,5.24,16.51,16.51,0,0,0,6.89,1.12c.45-.07.9-.07,1.35-.15s.82-.22,1.2-.29a6.38,6.38,0,0,0,1.87-.9,4.17,4.17,0,0,0,1.8-2.55c.45-2-.67-4.12-1.8-6.45a31.1,31.1,0,0,1-1.65-3.67,21.62,21.62,0,0,1-1-4.12,40.84,40.84,0,0,1-.45-4.94c-.08-1.88-.08-4.05,0-6.45a144.91,144.91,0,0,1,2-16.86c1-6.29,2.32-12.36,3.59-18s2.4-10.64,3.38-15a91.78,91.78,0,0,0,1.79-10.71,20.62,20.62,0,0,0-.07-3.82A6.53,6.53,0,0,0,1693.8,901.14Z" style="fill:#7f4b30"/><path d="M1613.92,1080.6c4.12-8.32,9.14-17.31,14.69-26.83,5.84-10,11.61-19.55,16.93-28.25s10-16.56,14-23.22,7-12.22,8.77-16.26a23.78,23.78,0,0,0,1.8-5.1,4.54,4.54,0,0,0-.3-3.37,3.38,3.38,0,0,0-3.22-1.28,16.66,16.66,0,0,0-6,1.5c-4.64,2-10.49,5.85-16.78,11.32a176.86,176.86,0,0,0-20.09,21,231.16,231.16,0,0,0-20.23,29.15,175.66,175.66,0,0,0-15.13,32.89c-.9,2.85-1.73,5.7-2.48,8.47Z" style="fill:#7f4b30"/><path d="M1696.79,363.13c-.82-.6-2.32-.15-4.49,1.2a38,38,0,0,0-3.75,2.77,54.55,54.55,0,0,0-4.65,4.2c-1.72,1.64-3.52,3.44-5.47,5.54s-4,4.42-6.14,6.89c-1.12,1.28-2.17,2.63-3.3,4s-2.24,2.84-3.44,4.34-2.33,3.07-3.53,4.72-2.39,3.3-3.59,5-2.4,3.6-3.6,5.47c-.6.9-1.2,1.88-1.8,2.85s-1.27,1.95-1.8,2.92c-2.32,4.05-4.79,8.25-7,12.74-.6,1.13-1.12,2.25-1.72,3.45-.3.6-.6,1.12-.9,1.72s-.53,1.2-.83,1.8c-1,2.4-2.17,4.87-3.22,7.34s-2,5.1-2.92,7.8c-.23.67-.52,1.34-.75,1.94s-.45,1.35-.67,2c-.45,1.35-.83,2.77-1.28,4.12-.82,2.77-1.72,5.54-2.4,8.47s-1.42,5.77-2,8.76-1,6-1.57,9.07a46.11,46.11,0,0,0-.6,4.65c-.15,1.57-.38,3.14-.53,4.72-.07.75-.15,1.57-.22,2.39s-.15,1.58-.23,2.4c-.07,1.58-.15,3.15-.22,4.8-.15,3.22-.38,6.44-.23,9.66s.08,6.45.15,9.74c.08,1.65.15,3.53.3,5.18s.3,3.44.53,5.17a187.92,187.92,0,0,0,3.52,19.48c1.42,6.29,3.15,12.29,4.95,18.21a289.4,289.4,0,0,0,12.58,33c9.37,20.53,20.54,38,32.52,50.95a97.69,97.69,0,0,0,18.29,15.67,70.87,70.87,0,0,0,8.91,4.79,50.11,50.11,0,0,0,8.17,2.7,28.08,28.08,0,0,0,11.84.37,11.23,11.23,0,0,0,3-1.12,2.08,2.08,0,0,0,1-1.42,2.16,2.16,0,0,0-.83-1.5,18.31,18.31,0,0,0-2.39-1.65c-2.1-1.2-5-2.7-8.4-5a57.53,57.53,0,0,1-5.39-4.12,79,79,0,0,1-5.85-5.55,113.62,113.62,0,0,1-12.44-15.73c-8.39-12.59-16.63-29.23-23.9-48.48-3.67-9.67-7-19.94-10-30.73-1.5-5.39-2.85-10.86-4-16.48s-2.24-11.24-2.92-16.79c-.15-1.42-.3-2.77-.45-4.12s-.22-2.62-.3-4c-.07-2.85-.15-5.7-.22-8.55s0-5.62.07-8.39c0-1.35.08-2.77.08-4.12,0-.67.07-1.35.07-2s.08-1.35.15-2c.08-1.35.23-2.69.3-4s.15-2.7.38-4c.37-2.63.67-5.25,1-7.87s.9-5.1,1.35-7.64,1-5,1.57-7.42c.3-1.2.6-2.48.83-3.67l.45-1.8c.15-.6.37-1.2.52-1.8.68-2.32,1.28-4.72,2-7l2.24-6.74c.15-.53.38-1.13.53-1.65s.37-1.05.6-1.65c.37-1.05.82-2.17,1.2-3.22,1.5-4.27,3.37-8.32,4.94-12.29.38-1,.83-2,1.28-2.92s.89-1.88,1.27-2.85c.9-1.88,1.65-3.75,2.55-5.47s1.72-3.52,2.54-5.25,1.58-3.37,2.48-4.94,1.57-3.15,2.32-4.72,1.5-3,2.25-4.42c1.5-2.85,2.77-5.55,4-8s2.4-4.72,3.3-6.82,1.8-4,2.47-5.62a34.51,34.51,0,0,0,1.5-4.35C1697.62,365.3,1697.62,363.73,1696.79,363.13Z" style="fill:#7f4b30"/><path d="M1710.28,265.72a4,4,0,0,0-1.5-2.78,11.31,11.31,0,0,0-4.34-2.24,22.48,22.48,0,0,0-7.2-.83,31.49,31.49,0,0,0-9.89,2,36.19,36.19,0,0,0-10.94,6.66,41.75,41.75,0,0,0-9,11.47,57.6,57.6,0,0,0-5.4,14c-.59,2.47-1,4.87-1.42,7.42a61.67,61.67,0,0,0-.67,7.49,101.07,101.07,0,0,0,2.47,27,98.77,98.77,0,0,0,6.67,20.3,51.44,51.44,0,0,0,7.64,12.52c2.47,2.7,4.8,4,6.67,3.44,3.9-1,5.47-8.84,5.62-20.15.15-5.7-.08-12.29-.22-19.41s-.38-14.76,0-22.25,1.27-14.09,2.84-19.11a30.7,30.7,0,0,1,6.15-11.69,45.53,45.53,0,0,1,4.27-4.2c1.5-1.27,2.92-2.39,4.19-3.44C1708.71,269.69,1710.43,267.74,1710.28,265.72Z" style="fill:#7f4b30"/><path d="M1583.2,168.08c-.83-.22-2,.23-3.38,1.5a8.44,8.44,0,0,0-1.12,1.12,14.33,14.33,0,0,0-1,1.5c-.37.6-.75,1.13-1.12,1.8s-.68,1.35-1,2.1a40.54,40.54,0,0,0-3.3,11.31c-.15,1.05-.3,2.25-.37,3.38s-.08,2.32-.15,3.52.07,2.39.15,3.59.22,2.4.37,3.68c1.28,10,5,20.38,10.72,30.42a118.39,118.39,0,0,0,9.89,14.68,132.17,132.17,0,0,0,12.44,13.79c2.24,2.17,4.57,4.35,7,6.3a81.37,81.37,0,0,0,7.49,5.69,70.81,70.81,0,0,0,16.63,8.39,77.83,77.83,0,0,0,16.64,3.67c2.62.38,5.17.45,7.64.6s4.8.08,7,0a104.31,104.31,0,0,0,21.29-2.62c5.17-1.35,8.24-2.92,8.91-4.94s-1.42-4.13-5.54-6.3-10.49-4.19-18.06-6.44c-1.87-.53-3.82-1.2-5.85-1.8s-4-1.27-6.07-2a102.05,102.05,0,0,1-12.28-5.25A71.63,71.63,0,0,1,1638.2,248c-1.88-1.43-3.9-3.3-5.92-5.1s-4-3.74-6.07-5.69c-4-4-8-7.94-11.54-11.92s-7-7.86-10-11.69A114.59,114.59,0,0,1,1591,192.13c-.38-.82-.75-1.57-1-2.39a20.87,20.87,0,0,0-1-2.25c-.23-.75-.53-1.5-.75-2.17s-.45-1.43-.68-2.1a60.3,60.3,0,0,1-1.65-7.27c-.07-.53-.22-1-.3-1.57l-.22-1.43c-.08-.45-.15-.9-.23-1.27s-.15-.75-.22-1.13A3.22,3.22,0,0,0,1583.2,168.08Z" style="fill:#7f4b30"/><path d="M1511.86,100.19c-1.65.68-2.92,3.22-3.52,7.42a57.25,57.25,0,0,0,.37,16.19,110,110,0,0,0,5.62,21.5,107.45,107.45,0,0,0,11.92,23.31,70.68,70.68,0,0,0,18,18.73c6.75,4.64,14.24,7.27,21.28,7.27a29.7,29.7,0,0,0,9.59-1.58,23.65,23.65,0,0,0,6.9-3.67,15.2,15.2,0,0,0,2.25-2,8.5,8.5,0,0,0,1.42-2,4.45,4.45,0,0,0,.67-3.15c-.45-1.8-2.47-2.47-5.24-3.22-1.35-.37-2.92-.82-4.57-1.35a38.76,38.76,0,0,1-5.17-2.32,49.67,49.67,0,0,1-11.84-9.52,129.32,129.32,0,0,1-13-16.48c-4.34-6.45-8.31-13-11.91-19s-6.74-11.62-9.59-16.26a79,79,0,0,0-7.42-10.8C1515.38,100.72,1513.51,99.52,1511.86,100.19Z" style="fill:#7f4b30"/><path d="M1271.41,24.21c-.38,0-.83.23-1.28.9a8.9,8.9,0,0,0-1.12,3.07,23.12,23.12,0,0,0,1.12,11.69A48.12,48.12,0,0,0,1277.85,54,93.46,93.46,0,0,0,1291,67.82c10.34,8.92,23.6,17.31,38.74,25,7.57,3.83,15.73,7.42,24.28,10.72,4.27,1.65,8.69,3.22,13.26,4.65,2.25.74,4.57,1.42,7,2.09a68.88,68.88,0,0,0,7.56,1.73c9.22,1.65,18.21,3.29,27.13,4.64s17.46,2.48,25.78,3.22c16.63,1.43,32.07,1.13,45-.89s23.45-5.62,30.35-9.37,10.34-7.12,10-8.92c-.37-2-4.42-2.17-11.24-2s-16.56.6-28.47-.07a330.33,330.33,0,0,1-41.66-5.17c-7.87-1.35-16.11-3-24.73-4.72s-17.61-3.6-26.9-5.25c-1.87-.37-4-.82-6.14-1.42s-4.2-1.12-6.37-1.8c-4.2-1.27-8.4-2.62-12.52-4-8.24-2.77-16.11-5.7-23.53-8.62-14.83-5.92-28-11.91-38.44-17.76a124.86,124.86,0,0,1-13.48-8.61,49.06,49.06,0,0,1-8.7-7.95,32.27,32.27,0,0,1-4.19-6.22c-.45-.82-.83-1.57-1.13-2.09S1271.86,24.21,1271.41,24.21Z" style="fill:#7f4b30"/><path d="M979,27.43c-.68.68-.6,2.18.45,4.43l.45.89c.15.3.37.6.52.9a22.43,22.43,0,0,0,1.35,2,5.29,5.29,0,0,0,.82,1,10.53,10.53,0,0,0,1,1.05c.67.75,1.42,1.5,2.17,2.32a74.69,74.69,0,0,0,12.81,9.52,121.5,121.5,0,0,0,18.74,9c14.23,5.55,31.69,10,51.1,13a439,439,0,0,0,63.47,4.87H1136c1.5,0,3-.07,4.42-.07s2.93-.15,4.35-.15,2.85-.15,4.27-.3c5.7-.37,11.17-1,16.56-1.72s10.57-1.58,15.66-2.55,10-2,14.84-3.15c19.26-4.57,36.19-10.56,49.9-17.31s24.06-14.31,29.9-21a27.5,27.5,0,0,0,2-2.48c.6-.82,1.13-1.49,1.58-2.24a24.9,24.9,0,0,0,2-4c.83-2.32.83-3.82,0-4.42s-2.25-.37-4.27.45c-1,.45-2.25.9-3.6,1.58-.67.3-1.42.67-2.17,1s-1.57.75-2.47,1.12A204.37,204.37,0,0,1,1238.59,32a410,410,0,0,1-47.74,10.2c-4.57.74-9.21,1.42-14,2s-9.66,1.2-14.61,1.65-10,.9-15.06,1.2c-1.28.07-2.55.15-3.75.15s-2.47.07-3.74.07h-7.8c-21.58-.15-42.11-1-60.54-2.4a434.7,434.7,0,0,1-48.48-6.14c-6.75-1.28-12.82-2.7-18-4.2s-9.59-2.92-13.18-4.19-6.45-2.4-8.55-3.08C981.19,26.76,979.7,26.76,979,27.43Z" style="fill:#7f4b30"/><path d="M833.58,27.43c-.82,1.8.45,4.43,3.6,7.57s8.09,6.75,14.76,10.27a105.84,105.84,0,0,0,11.24,5.09,117.43,117.43,0,0,0,13.49,4.35,134.81,134.81,0,0,0,32.44,4.57A128.11,128.11,0,0,0,942,55.76a120.55,120.55,0,0,0,13.78-4.27,95.63,95.63,0,0,0,11.39-5.32c6.75-3.75,11.69-7.57,14.61-10.94s4-6.07,3.08-7.8c-2-3.59-11.09-2.39-24.36-.52-3.29.45-7,.9-10.79,1.42s-7.94.9-12.21,1.2a274.65,274.65,0,0,1-27.87.9c-19.79-.45-38-3-51.63-4.64a117.24,117.24,0,0,0-16.79-1.2C837.18,24.74,834.4,25.64,833.58,27.43Z" style="fill:#7f4b30"/><path d="M670.23,27.43a3.68,3.68,0,0,0-.23,3.38,11.23,11.23,0,0,0,1.13,2.39,12.17,12.17,0,0,0,.82,1.35A16.21,16.21,0,0,0,673.08,36a35.1,35.1,0,0,0,2.84,3.07c1.13,1,2.4,2,3.75,3.15a16.86,16.86,0,0,0,2.25,1.57c.75.52,1.57,1,2.4,1.57a27.85,27.85,0,0,0,2.62,1.5c.9.53,1.87,1,2.85,1.5,7.86,3.9,17.9,6.89,29.07,8.62a143.73,143.73,0,0,0,17.38,1.5c1.5,0,3,.07,4.5.07s3.07,0,4.57-.07,3.15-.08,4.72-.15l1.2-.08a8.16,8.16,0,0,0,1.27-.07l1.35-.08,1.2-.15c6.45-.67,12.36-1.65,18.13-2.7s11.17-2.39,16.41-3.74a163,163,0,0,0,27.13-9.59c7.57-3.53,13.56-7.42,17.23-11.39a13.65,13.65,0,0,0,3.45-5.77,3.34,3.34,0,0,0-1-3.45,4.94,4.94,0,0,0-3.15-.67,47.35,47.35,0,0,0-4.8,0c-4,.22-10,.82-17.53,1.64s-16.56,1.88-26.6,3.08c-5,.6-10.27,1.27-15.74,1.94s-11.09,1.35-16.56,1.95a14.73,14.73,0,0,1-1.87.15c-.22,0-.6.08-1,.08l-1.05.07-4.12.23-4.13.22c-1.34.08-2.69.08-4,.15-5.32.15-10.34.3-15.14.23a200.34,200.34,0,0,1-25.1-1.58c-.9-.15-1.72-.22-2.62-.37s-1.73-.23-2.48-.38-1.57-.22-2.32-.37-1.5-.23-2.25-.38c-1.42-.3-2.77-.45-4-.67a33.74,33.74,0,0,0-3.52-.52,10.56,10.56,0,0,0-1.58-.15,9.41,9.41,0,0,0-1.42-.15,12.71,12.71,0,0,0-2.47,0A5.82,5.82,0,0,0,670.23,27.43Z" style="fill:#7f4b30"/><path d="M452.93,28.93c-.68.68-.75,2-.08,3.9a12.64,12.64,0,0,0,1.72,3.22c.38.6.83,1.2,1.35,1.87s1.05,1.28,1.65,1.95c.3.3.6.68,1,1.05a12.6,12.6,0,0,0,1.05,1L461.92,44c1.72,1.28,3.52,2.78,5.69,4.13a101.15,101.15,0,0,0,14.84,7.71c11.31,4.57,25.18,8.32,40.54,10.94a446.82,446.82,0,0,0,49.68,5.17l12.81.68c2.1.07,4.2.22,6.22.3,1,.07,2.17.15,3.22.15s2.17.07,3.22.07,2.18,0,3.23.08h3.07c2,0,4.12,0,6.14-.08,4-.07,8.1-.22,12-.37,15.66-.83,30-3.15,41.74-6.82l4.27-1.35c1.35-.45,2.7-1,4-1.5s2.55-1,3.75-1.5,2.32-1.12,3.44-1.65c2.18-1,4.2-2.24,6-3.29.9-.53,1.72-1,2.55-1.65s1.5-1.13,2.17-1.65a36.83,36.83,0,0,0,3.52-3,15.9,15.9,0,0,0,2.25-2.69c1.12-1.65,1.42-2.85,1-3.75s-1.72-1.35-3.59-1.42a16.76,16.76,0,0,0-3.3.15c-1.2.15-2.7.22-4.27.44-6.22.83-14.84,2.18-25.55,2.93-1.35.15-2.7.15-4.12.22l-4.28.23c-1.49.07-3,.07-4.49.15s-3.07,0-4.65.07c-6.37,0-13.18-.07-20.45-.37-3.6-.15-7.35-.3-11.17-.6-1.87-.08-3.82-.23-5.84-.38s-3.9-.22-5.85-.37c-1-.08-1.95-.15-2.92-.15l-3-.23c-1.05-.07-2.1-.15-3.14-.3l-3.23-.22c-4.27-.3-8.61-.6-13-.83-17.31-1-33.57-1.72-48.11-2.77s-27.42-2.47-38-4.27c-5.32-.9-10-1.87-14.08-2.85-2.1-.45-3.9-1.05-5.7-1.42-.82-.22-1.65-.52-2.47-.75-.38-.07-.82-.22-1.2-.3s-.75-.22-1.12-.37c-.75-.23-1.43-.45-2.1-.6s-1.28-.38-1.8-.53c-1.2-.3-2.25-.52-3.07-.75C455,28.11,453.68,28.26,452.93,28.93Z" style="fill:#7f4b30"/><path d="M370.13,122.6a5,5,0,0,0,3.22.45,41.88,41.88,0,0,0,4.34-.75c1.73-.38,3.68-.83,6.07-1.43s5.17-1.19,8.17-1.94,6.52-1.58,10.34-2.48,8-2,12.44-3.44c2.25-.75,4.65-1.5,7.12-2.48,1.27-.52,2.55-1,4-1.72.68-.3,1.5-.75,2.17-1s1.13-.6,1.65-.9c4.5-2.47,9.14-5.09,13.64-8.17l3.37-2.24c1.13-.75,2.25-1.5,3.3-2.33,2.17-1.57,4.27-3.22,6.29-4.79s4-3.3,5.85-5,3.67-3.29,5.39-4.94,3.3-3.38,4.8-5a53.2,53.2,0,0,0,4.34-5c1.35-1.65,2.63-3.3,3.83-4.87A55.91,55.91,0,0,0,483.72,60c1.95-3.07,3.6-5.92,4.95-8.46a47.1,47.1,0,0,0,2.77-7.05c1.2-4.12,1.05-6.89-.52-8.16s-4.42-.83-8.1.9a55.7,55.7,0,0,0-6.22,3.52c-2.32,1.42-4.87,3.07-7.56,5-1.28,1-2.78,2-4.27,2.92s-3,2.1-4.5,3.22-3.15,2.25-4.8,3.37-3.37,2.4-5,3.6-3.52,2.4-5.39,3.67-3.6,2.62-5.62,3.9-3.9,2.62-5.85,4c-1,.67-2,1.35-3,2s-2,1.35-3.08,2c-4,2.77-8.16,5.24-12.06,7.86-.45.3-1,.68-1.42,1s-.68.45-1.05.67c-.75.45-1.58.9-2.48,1.43-1.72,1-3.67,1.94-5.54,2.92-3.82,2-7.72,3.9-11.39,5.92s-7,4.12-10.12,6.22a61.12,61.12,0,0,0-8,6.67,28.13,28.13,0,0,0-5.1,6.82,11.79,11.79,0,0,0-1.5,5.69A3,3,0,0,0,370.13,122.6Z" style="fill:#7f4b30"/><path d="M266.2,207.72c-.6.82-.6,2-.23,3.52a35,35,0,0,0,2.4,5.55c1.12,2.17,2.4,4.72,3.75,7.56a60,60,0,0,1,3.44,9.6c.23.9.45,1.79.6,2.69a9.34,9.34,0,0,0,.3,1.35c.08.45.15,1,.23,1.43.15,1,.22,1.94.3,2.92,0,.52.07,1,.07,1.5s.08,1,.08,1.5a57.19,57.19,0,0,1-1.43,13.33c-2,9.52-6.44,20.16-12.51,30.95a267.45,267.45,0,0,1-19.86,29.9c-6.74,9-13.26,16.86-18.88,23.53s-10.12,12.14-13.11,16.33-4.35,7.2-3.3,8.92,4.5,1.87,9.74.3,12.29-5,20.23-10.27a155.09,155.09,0,0,0,25.48-21.5,161.31,161.31,0,0,0,24.88-33.2c1.79-3.29,3.52-6.59,5-10a100.63,100.63,0,0,0,4-10.34,91.47,91.47,0,0,0,4.5-21.13,64.8,64.8,0,0,0-1.28-20.31,53.24,53.24,0,0,0-6.74-16.71,46.8,46.8,0,0,0-9.29-11,41.35,41.35,0,0,0-8.77-5.85,20.8,20.8,0,0,0-6.44-1.94C267.92,206.52,266.8,206.9,266.2,207.72Z" style="fill:#7f4b30"/><path d="M189.17,340.65c-1.43,1.42-1.35,4.12.07,7.87s4.5,8.31,8.17,13.18c.9,1.2,1.87,2.48,2.85,3.75s1.94,2.55,2.77,3.82,1.72,2.55,2.62,3.9c.75,1.35,1.58,2.62,2.17,4a38.67,38.67,0,0,1,3.08,8.39c.22.75.37,1.58.52,2.33.08.37.15.82.23,1.19s.07.38.15.6l.07.68c.08.9.23,1.8.38,2.7.07.45.07,1,.15,1.49s.07,1.05.15,1.58c.15,1,.15,2,.3,3.07s.14,1.95.22,3,.15,1.95.15,2.92.07,2,.07,2.92,0,1.95,0,2.85v2.77c0,.9-.07,1.88-.07,2.77s-.08,1.8-.15,2.7c0,.45-.08.9-.08,1.35s-.07.9-.07,1.27c-.07.9-.15,1.73-.15,2.55s-.15,1.65-.22,2.48-.15,1.64-.23,2.39c-.22,1.58-.37,3.15-.6,4.57-.07.75-.22,1.5-.3,2.18s-.22,1.42-.37,2.09-.23,1.35-.3,2-.23,1.27-.38,1.87-.22,1.28-.3,1.87-.22,1.2-.3,1.73c-.22,1.12-.37,2.25-.52,3.22s-.3,1.95-.38,2.85-.15,1.72-.15,2.47a9.22,9.22,0,0,0,.15,2.1A4.93,4.93,0,0,0,210.3,459a3.83,3.83,0,0,0,3.14.75,12.92,12.92,0,0,0,2.18-.52,16,16,0,0,0,2.55-1.2,29.83,29.83,0,0,0,2.77-1.95,31.34,31.34,0,0,0,2.92-2.62l1.57-1.58c.53-.6,1-1.2,1.5-1.8s1-1.27,1.58-1.94,1-1.43,1.42-2.18,1-1.5,1.5-2.32l1.35-2.47a59.94,59.94,0,0,0,2.62-5.4c.45-1,.82-1.95,1.2-2.92s.75-2,1.12-3.07.68-2.1,1-3.22c.15-.53.3-1.13.45-1.65a12.57,12.57,0,0,0,.37-1.65c.23-1.13.53-2.25.75-3.45s.37-2.32.6-3.52a30.92,30.92,0,0,0,.45-3.67c.15-1.2.3-2.47.37-3.75s.15-2.55.23-3.82,0-2.55,0-3.9-.08-2.62-.15-4-.15-2.7-.3-4l-.23-1.95c-.07-.67-.15-1.27-.22-1.95-.23-1.42-.45-2.77-.68-4.12l-.14-1.05-.23-1c-.15-.68-.37-1.43-.52-2.1a36.54,36.54,0,0,0-1.28-4.12,49.21,49.21,0,0,0-7.94-14.62,52,52,0,0,0-10-10c-1.65-1.35-3.22-2.4-4.79-3.45l-4.42-2.7a69,69,0,0,0-13.87-6C193.29,339.22,190.59,339.22,189.17,340.65Z" style="fill:#7f4b30"/><path d="M199.66,453.05c-.68,1.94,1.57,4.57,5,8.31a86.91,86.91,0,0,1,12.21,16,88.64,88.64,0,0,1,5.77,12.21,110.18,110.18,0,0,1,4.5,15.14,163.52,163.52,0,0,1,3.59,37.17,219.21,219.21,0,0,1-3.67,37.91c-1.05,5.77-2.32,11.24-3.67,16.26s-2.85,9.67-4.35,13.79c-3,8.32-6.07,14.76-8.24,19.48s-3.37,7.87-2.17,9.52,4.87,1.35,10.26-1.65a46.69,46.69,0,0,0,8.77-6.67,74.29,74.29,0,0,0,9.37-10.94c12.36-17.38,22.33-45.48,22.55-77.4a133.34,133.34,0,0,0-7-44.89,95.94,95.94,0,0,0-8.69-18.51,71.2,71.2,0,0,0-11.31-14.23,56.42,56.42,0,0,0-12.14-9,36.75,36.75,0,0,0-10.57-4c-.75-.15-1.5-.3-2.17-.37a17.14,17.14,0,0,0-1.95-.15,10.4,10.4,0,0,0-3.15.22C201,451.47,200,452.07,199.66,453.05Z" style="fill:#7f4b30"/><path d="M220.64,638.88c-.68.75-.83,2-.53,3.52a16.34,16.34,0,0,0,.75,2.62c.15.45.38,1,.6,1.5s.45,1.12.68,1.72a33.25,33.25,0,0,0,1.72,3.68c.6,1.34,1.2,2.84,1.95,4.34.37.75.67,1.57,1.05,2.4s.67,1.65,1,2.47.75,1.73,1.05,2.62.74,1.8,1.12,2.78A152,152,0,0,1,237.65,694c.9,5.32,1.65,10.87,2.1,16.64s.52,11.91.37,18.06-.75,12.28-1.42,18.05-1.8,11.39-2.93,16.64a194.3,194.3,0,0,1-8.54,27.5,30,30,0,0,1-1.2,2.77c-.37.9-.75,1.87-1.12,2.7s-.75,1.72-1.12,2.55-.68,1.64-1,2.39c-.75,1.5-1.35,3-2,4.35s-1.2,2.55-1.65,3.75c-.23.6-.45,1.12-.68,1.72s-.44,1-.59,1.5a15.36,15.36,0,0,0-.75,2.62c-.3,1.57-.15,2.77.52,3.52s1.8,1,3.45.75a16.89,16.89,0,0,0,2.77-.75,15,15,0,0,0,1.65-.67c.52-.3,1.12-.6,1.72-1,1.2-.67,2.55-1.49,4-2.47s2.78-2.17,4.27-3.45a26.82,26.82,0,0,0,2.25-2.09l2.33-2.33c.82-.82,1.49-1.64,2.32-2.54l2.32-2.78c6.22-7.71,12.07-18.13,16.56-30.34a138.3,138.3,0,0,0,5.4-19.71A145.86,145.86,0,0,0,269,729.54a150.44,150.44,0,0,0-1.12-21.95,134.39,134.39,0,0,0-4.35-20.08c-4-12.59-9.51-23.31-15.73-31.17-.83-1-1.58-2-2.32-2.85s-1.5-1.8-2.33-2.62-1.57-1.58-2.32-2.33a19.25,19.25,0,0,0-2.25-2.1c-1.5-1.27-3-2.47-4.27-3.44s-2.77-1.8-4-2.47a12,12,0,0,0-1.72-.9c-.6-.23-1.13-.45-1.65-.68a18.71,18.71,0,0,0-2.85-.75C222.44,637.9,221.31,638.13,220.64,638.88Z" style="fill:#7f4b30"/><path d="M220.64,803.73a7.65,7.65,0,0,0-1.58,2.62,20.49,20.49,0,0,0-.74,3.37c-.38,2.4-.6,5-1,8.17s-.82,6.59-1.5,10.79-1.5,8.84-2.4,13.86c-1.94,10.12-4,19.56-5,26.83a48.5,48.5,0,0,0-.6,9.36,12.3,12.3,0,0,0,.68,3.53,6,6,0,0,0,1.65,2.54,5,5,0,0,0,2.77,1.28,9.22,9.22,0,0,0,3.9-.45,24.67,24.67,0,0,0,9.51-6.37c6.6-6.6,12.89-17.54,15.51-31.17a61.78,61.78,0,0,0,.68-19.94,41.07,41.07,0,0,0-5.77-16.56c-2.77-4.42-6.37-7.34-9.44-8.46a7.91,7.91,0,0,0-4-.6A4.05,4.05,0,0,0,220.64,803.73Z" style="fill:#7f4b30"/><path d="M214.64,872.66c-1.94.3-3.52,2.93-4.34,7.57s-.9,11.32,0,19.18,2.69,16.94,4.64,26.46c1,4.72,1.88,9.59,2.7,14.53s1.42,9.89,1.87,15.06c.08,1.28.23,2.55.3,3.9s.08,2.62.15,4c.15,2.62.3,5.25.3,7.79s.15,5,.15,7.57V986c-.07,9.74-.22,18.43-.3,25.78,0,1.87.08,3.67.08,5.39s.07,3.3.15,4.87.22,3,.37,4.27.3,2.55.45,3.68c.75,4.49,2.1,7.19,4.05,7.64s4.34-1.43,7-5.25c.67-1,1.35-2,2-3.22s1.35-2.55,2-4,1.35-3,2.1-4.65,1.35-3.44,2-5.32a154,154,0,0,0,6.74-27.12c.37-2.62.67-5.32,1-8.09s.45-5.62.6-8.55.15-5.92.15-8.91c0-1.5-.08-3-.08-4.57s-.22-3.15-.3-4.8a116.93,116.93,0,0,0-2.92-18.43,140.73,140.73,0,0,0-4.87-16.11c-3.6-9.89-7.34-18.06-10.57-24.81a139.8,139.8,0,0,0-8.61-15.73C218.84,874.39,216.67,872.36,214.64,872.66Z" style="fill:#7f4b30"/><path d="M1792.86,473.28c-19,11.24-37.92,22.48-56.88,30.94,25.33,19.71,47.43,11.24,75.91,16.86,19-14.08,12.66-33.72,0-50.65a43.62,43.62,0,0,0-28.48,2.85" style="fill:#593019"/><path d="M1881.35,580.13c6.29,0,9.52,14.09,15.81-8.47-3.15,0-12.66,2.85-12.66,2.85" style="fill:#593019"/><path d="M1918.22,502.35c-3-.75-5.77-.75-9.37-3.3l-.52,2.78c-7.12,4.34-13.72,5.92-15.89,16.93,5,1,16,5.1,20.91,8.39Z" style="fill:#593019"/><path d="M1729.61,580.13c15.81-16.86,37.92-16.86,44.29,8.47-15.81,2.85-28.48,0-41.06-5.62" style="fill:#593019"/><path d="M55.94,475.38c-3-1.05-6.67-1.2-11.17-.08C37.13,477.17-2.21,489-2.28,499v17.91c18.73,6.89,36.94,2.92,58.82,7.27C66.65,526.18,75.12,482.12,55.94,475.38Z" style="fill:#593019"/><path d="M126.15,583.2c6.29,0,9.52,14.09,15.81-8.46-3.15,0-12.66,2.84-12.66,2.84" style="fill:#593019"/><path d="M151.4,504.45c-6.29,5.62-12.66,8.47-12.66,19.71,6.29,0,22.1,2.84,25.32,5.62,3.15-8.47,3.15-19.71,3.15-25.33-6.29-2.85-9.51,0-15.81-2.85" style="fill:#593019"/><path d="M175.68,277.93c3.6-21.73,7.19-43.53,13-63.47-31.32,6.67-39.19,29-61.82,47.14-1.5,23.6,17.69,31.39,38.74,32.59a44.39,44.39,0,0,0,16.19-23.6" style="fill:#613a21"/><path d="M36.91,276.81c-4,4.87-16.86-1.8-3.75,17.53,2-2.4,6-11.46,6-11.46" style="fill:#613a21"/><path d="M80.82,346.87c-.23-8.47,1.72-15.14-6.9-22.33-4,4.87-16.41,15.13-20.6,15.73,4.42,7.87,13,15.14,17.3,18.74,6.22-3,6.15-7.27,12.37-10.27" style="fill:#613a21"/><path d="M134.62,160.74c2.69,22.93-11.54,39.86-35,28.4,8-13.94,18.36-21.73,30.8-27.8" style="fill:#613a21"/><path d="M1796.08,292.54c21.2-6.14,42.33-12.36,62.79-15.73-19.56-25.41-43.09-22.71-69.24-35.3-21.88,8.92-20.68,29.53-12.66,49a43.94,43.94,0,0,0,28.25,4.35" style="fill:#613a21"/><path d="M1737,167c-6.14-1.58-5.69-16-17.38,4.19,3.07.83,13,.45,13,.45" style="fill:#613a21"/><path d="M1692.9,236.87c7.49-3.9,14.38-5,17.16-15.89-6.15-1.57-20.76-8.24-23.08-11.76-5.17,7.42-8,18.28-9.37,23.75,5.4,4.27,9.22,2.4,14.61,6.67" style="fill:#613a21"/><path d="M1884,204.8c-19.55,12.36-40.91,6.89-40.76-19.19,16,1.2,27.57,7.12,38.36,15.74" style="fill:#613a21"/><path d="M1717,75c14.17-16.94,28.33-33.8,43.39-48.11-30.42-10.19-48.48,5.17-77.18,9.29-13.19,19.56-.75,36,16.78,47.73a43.87,43.87,0,0,0,25.93-12.14" style="fill:#613a21"/><path d="M1598,3.61c-6,2.09-13.63-10.12-12.14,13.18,3-1,11-6.82,11-6.82" style="fill:#613a21"/><path d="M1600.28,86.26c4.12-7.42,9.14-12.14,5.4-22.78-6,2.09-21.81,4.72-25.71,3.07-.15,9,3.53,19.63,5.4,25,6.89.53,8.92-3.15,15.81-2.62" style="fill:#613a21"/><path d="M164.66,834.52c-12.58-18.13-25.17-36.26-34.91-54.55-17.84,26.6-7.87,48.11-11.47,76.88,15.36,17.91,34.54,10.19,50.51-3.59a44.46,44.46,0,0,0-4.8-28.18" style="fill:#422716"/><path d="M64.33,930.36c.45,6.3-13.34,10.49,9.52,15.14-.23-3.15-3.67-12.44-3.67-12.44" style="fill:#422716"/><path d="M144.73,950c-6.07-5.92-9.29-12-20.53-11.24.45,6.3-1.2,22.26-3.82,25.63,8.62,2.55,19.86,1.72,25.48,1.35,2.32-6.52-.68-9.44,1.64-16" style="fill:#422716"/><path d="M53.54,779.07c18,14.54,19.56,36.65-5.25,44.74-3.89-15.59-2-28.4,2.7-41.36" style="fill:#422716"/><path d="M1864.12,845c-21.58-4.42-43.24-8.84-62.95-15.36,5.47,31.55,27.5,40.24,44.74,63.55,23.53,2.32,32.07-16.49,34.09-37.47a44.23,44.23,0,0,0-22.93-17.09" style="fill:#422716"/><path d="M1857.67,983.64c4.65,4.27-2.47,16.78,17.39,4.42-2.33-2.1-11.24-6.45-11.24-6.45" style="fill:#422716"/><path d="M1745.42,881.51c23.08-1.88,39.42,13,27,36-13.56-8.54-21-19.11-26.6-31.85" style="fill:#422716"/><path d="M227.46,1037.29c.75,1,1.65,2.1,2.54,3.15s1.88,2.17,2.93,3.37c2,2.4,4.42,4.79,6.89,7.42,1.2,1.35,2.55,2.62,3.9,4s2.69,2.77,4.12,4.2c5.62,5.77,11.84,12,18.28,18.51.83.82,1.65,1.72,2.47,2.54h37.25a14.23,14.23,0,0,0-1-1.34,182.55,182.55,0,0,0-18.21-21.51,168.36,168.36,0,0,0-21.58-18.43c-1.8-1.28-3.52-2.48-5.24-3.6s-3.45-2.17-5.17-3.15a102.07,102.07,0,0,0-9.59-5.09c-.75-.38-1.5-.68-2.25-1.05l-2.18-.9c-1.42-.52-2.77-1-4-1.5a32.07,32.07,0,0,0-6.82-1.65c-4-.52-6.59,0-7.72,1.65s-.45,4.35,1.43,7.72C224.61,1033.39,225.88,1035.27,227.46,1037.29Z" style="fill:#7f4b30"/><path d="M107.64,964a69.65,69.65,0,0,0-2.17-13.12A150.24,150.24,0,0,0,92.8,919.72c-2.92-5.54-6.21-11.24-9.81-16.93-.45-.68-.9-1.43-1.35-2.18s-.9-1.42-1.42-2.17-1-1.5-1.5-2.25l-1.58-2.25a111.24,111.24,0,0,0-7-8.69,132.33,132.33,0,0,0-32.3-26.67A106,106,0,0,0,6,846.06a72.83,72.83,0,0,0-8.32-1.2V856.1q2.35.79,4.95,1.8a132.81,132.81,0,0,1,26.82,14.24,149.36,149.36,0,0,1,27.8,24.58c2.17,2.47,4.2,5,6.07,7.49.45.6.9,1.27,1.42,1.87s.9,1.28,1.35,1.95c.9,1.35,1.88,2.7,2.78,4.05,3.67,5.39,7,10.56,10.19,15.58a248.23,248.23,0,0,1,14.91,27.28,102.54,102.54,0,0,1,4.19,10.86,70.3,70.3,0,0,1,2.18,8.4c.07.6.22,1.12.3,1.65s.15,1,.22,1.49c.15.9.23,1.73.38,2.4.15,1.35.52,2.17,1.12,2.4s1.35-.3,2.32-1.57a18.47,18.47,0,0,0,1.35-2.48c.23-.52.38-1.05.6-1.72a13.88,13.88,0,0,0,.53-2A41.31,41.31,0,0,0,107.64,964Z" style="fill:#7f4b30"/><path d="M97.75,943.1c.67,2.4,6.14,2.7,13.34,4.5,1.8.45,3.74,1,5.69,1.72s4,1.57,6.22,2.62a62.12,62.12,0,0,1,6.45,3.6c2.17,1.42,4.27,3,6.44,4.72a78.14,78.14,0,0,1,18,22.25c3.75,6.67,5.85,11.62,8.32,11.54,1.2-.07,2.25-1.42,3-4a28.32,28.32,0,0,0,.3-11.24,44.39,44.39,0,0,0-1.8-7.57,63.35,63.35,0,0,0-3.6-8.24A54.82,54.82,0,0,0,147,947a52.79,52.79,0,0,0-9-6.07,49,49,0,0,0-9.37-3.9,47.27,47.27,0,0,0-9.06-1.72,39.74,39.74,0,0,0-8,.15,26.26,26.26,0,0,0-10.87,3.59,10.72,10.72,0,0,0-2.47,2.25A2.07,2.07,0,0,0,97.75,943.1Z" style="fill:#7f4b30"/><path d="M48.29,198.28a5.51,5.51,0,0,0,1.58,3.6c1,1.19,2.32,2.47,3.6,3.82a27.65,27.65,0,0,1,3.44,4.64A40.91,40.91,0,0,1,60,216.86c2,5.25,3.45,11.17,5,15.51s3.38,7.57,5.77,7.8,5-2.63,6.45-7.87a32.53,32.53,0,0,0,1.2-9.52,37.19,37.19,0,0,0-2.25-12.06A31,31,0,0,0,73,204.57a24,24,0,0,0-4.42-5.09A21.38,21.38,0,0,0,63.43,196,19.09,19.09,0,0,0,60.81,195a17,17,0,0,0-2.47-.6,13,13,0,0,0-7.42.75C49.27,196,48.37,197.08,48.29,198.28Z" style="fill:#7f4b30"/><path d="M70.77,231.25c.15,1.27,2.63,1.95,6.37,3.52a64.38,64.38,0,0,1,14.69,8.69,100.74,100.74,0,0,1,9,7.95c3.07,3.07,6.22,6.51,9.44,10.26a185.19,185.19,0,0,1,18.21,26.6,150.12,150.12,0,0,1,12.82,29.22,101.76,101.76,0,0,1,3.07,13.19,55.4,55.4,0,0,1,.6,11.39,38,38,0,0,1-4.12,15.66c-1.88,3.6-3.3,5.85-2.55,6.82.37.45,1.2.6,2.47.3a15.08,15.08,0,0,0,5.17-2.62,27.12,27.12,0,0,0,6.3-6.82,37.55,37.55,0,0,0,4.87-11.31,59.26,59.26,0,0,0,1.64-14.47,76.14,76.14,0,0,0-1.94-16.11,122.17,122.17,0,0,0-13.19-33.72A138.38,138.38,0,0,0,122.1,251a106.7,106.7,0,0,0-11.91-10.5,80.86,80.86,0,0,0-11.92-7.41c-7.71-3.9-15.06-5.32-20.08-5a7.4,7.4,0,0,0-1.8.23,8.36,8.36,0,0,0-1.49.3,16,16,0,0,0-2.33.82Q70.66,230.35,70.77,231.25Z" style="fill:#7f4b30"/><path d="M69.28,334.65c0,2.55,9.44,4.05,23.07,8.92a132.89,132.89,0,0,1,22.78,10.57c2,1.12,4.05,2.47,6.07,3.82s4,2.77,6.07,4.34a108.29,108.29,0,0,1,11.84,10.34,124.83,124.83,0,0,1,10.34,11.77,115.4,115.4,0,0,1,8.1,12.14c.59,1.05,1.12,2,1.72,3s1,2,1.57,3c1,1.95,1.88,4,2.77,5.85.45,1,.75,1.95,1.2,2.84s.83,1.88,1.13,2.78.67,1.8,1,2.69c.15.45.3.9.45,1.28a13.24,13.24,0,0,1,.38,1.27c.52,1.73,1.12,3.37,1.49,4.95s.9,3.07,1.28,4.49.75,2.7,1.05,4,.6,2.33.9,3.38.6,1.94.82,2.77a16.14,16.14,0,0,0,.75,2c.52,1.13,1.12,1.73,1.72,1.8s1.2-.52,1.8-1.65a19.13,19.13,0,0,0,.9-2.1l.45-1.34c.15-.53.23-1,.38-1.58.22-1.12.45-2.32.67-3.74s.22-2.85.37-4.5a38.74,38.74,0,0,0,0-5.17,53.69,53.69,0,0,0-.44-5.77c-.08-.53-.08-1-.15-1.57l-.23-1.58c-.15-1.05-.37-2.17-.52-3.22a30.8,30.8,0,0,0-.75-3.37c-.3-1.13-.53-2.32-.9-3.45a71.91,71.91,0,0,0-2.33-7.12c-.45-1.2-.89-2.47-1.42-3.67s-1.05-2.47-1.65-3.67a100.05,100.05,0,0,0-20.38-28.77,97.41,97.41,0,0,0-14.09-11.77c-2.39-1.72-4.87-3.22-7.34-4.72s-5-2.77-7.42-3.9a93.21,93.21,0,0,0-27.35-8.31c-1-.15-1.95-.3-2.92-.38l-2.85-.22c-.9-.08-1.8-.08-2.62-.15H84.49c-.83,0-1.58,0-2.33.07s-1.42.08-2.17.15c-1.35.15-2.62.3-3.75.45a20.79,20.79,0,0,0-2.92.68,21.53,21.53,0,0,0-2.17.75C69.88,333.46,69.28,334.05,69.28,334.65Z" style="fill:#7f4b30"/><path d="M84.26,691.33c.6-.15,1-.75,1.5-1.65a5.56,5.56,0,0,0,.3-.75c.08-.22.23-.52.38-.82s.22-.6.37-.9.3-.6.45-1a12.89,12.89,0,0,1,1.12-1.94,9,9,0,0,0,.75-1c.23-.3.6-.6.9-1a21,21,0,0,1,5-3.45,42.36,42.36,0,0,1,17.61-3.67h2.62a8.73,8.73,0,0,1,1.35.07c.45,0,.9.08,1.35.08.9.07,1.8.22,2.7.3s1.8.3,2.62.52a9.34,9.34,0,0,1,1.35.3c.45.15.82.23,1.27.38a4.91,4.91,0,0,1,.6.22l.15.08.3.15.75.3,1.58.6.37.15.45.3.82.6,1.65,1.12.83.6c.3.22.52.37.9.67,1.27,1.2,2.62,2.33,3.89,3.52,2.85,2.55,5.62,5.1,8.55,7.65,1.19,1,2.32,2.1,3.52,3.15-.53-5.47-1-10.87-1.5-16.19-.15-1.42-.23-2.85-.38-4.2s-.22-2.62-.3-4c0-.3-.07-.67-.07-1l.07-.9.08-1.72c0-.6.07-1.13.07-1.73a10.42,10.42,0,0,1,.23-1.65l.22-1.57c.08-.45.23-.82.3-1.27s.23-.83.3-1.28.23-.82.38-1.2a30.78,30.78,0,0,1,1.8-4.64A44.86,44.86,0,0,1,162,640.38a48.72,48.72,0,0,1,10.34-7c2.77-1.43,4.65-2.25,4.8-3.45s-1.73-2.62-5.7-3.15a23.87,23.87,0,0,0-7.12.38,32,32,0,0,0-8.91,3.14,45.17,45.17,0,0,0-17.91,16.86,50.14,50.14,0,0,0-3.3,6.6l-.67,1.8a15.82,15.82,0,0,0-.6,1.8c-.15.59-.38,1.27-.53,1.87a11.89,11.89,0,0,0-.37,1.65c-.15,0-.15-.08-.23-.08h0v.08h-.15l-.22-.08c-.38-.07-.68-.22-1.05-.3l-2-.45c-.68-.15-1.35-.22-2-.37-1.34-.23-2.62-.3-3.89-.45s-2.55-.15-3.82-.15h-1.88c-.6,0-1.2.07-1.8.07-1.19.08-2.39.23-3.59.3a50.41,50.41,0,0,0-13,3.38,37.79,37.79,0,0,0-10.42,6.21,23.46,23.46,0,0,0-6.37,8.62,13.15,13.15,0,0,0-.74,2.25c-.15.75-.3,1.5-.38,2.17a15.3,15.3,0,0,0,.08,3.75,8.47,8.47,0,0,0,.3,1.5c.15.45.3.9.44,1.27s.3.75.45,1a7.28,7.28,0,0,0,.6.75C83.06,691.18,83.74,691.48,84.26,691.33Z" style="fill:#7f4b30"/><path d="M1916.72,600.74c-.9.37-1.8.82-2.7,1.27a83.9,83.9,0,0,0-10,6.07,74.72,74.72,0,0,0-10.49,8.84,83.48,83.48,0,0,0-17.54,26.3,91.93,91.93,0,0,0-4.94,15.44,108.33,108.33,0,0,0-2.4,14.69c-.15,1.19-.22,2.32-.3,3.44s-.15,2.25-.22,3.37c-.08,2.18-.15,4.35-.08,6.37,0,1.05,0,2,.08,3s.07,2,.15,2.92c.07,1.88.22,3.75.37,5.47,1.43,13.79,4.27,22,6.6,21.88s4-8.54,5.69-21.65c.23-1.65.45-3.3.67-5.1.15-.9.23-1.8.38-2.7s.3-1.87.45-2.77c.22-1.87.6-3.82.9-5.84.15-1,.37-2,.52-3s.38-2,.6-3.07c.83-4.12,1.8-8.39,3.07-12.67a110.78,110.78,0,0,1,4.5-13,91,91,0,0,1,13.41-22.25,110.32,110.32,0,0,1,11.47-11.92l-.15-15.13Z" style="fill:#7f4b30"/><path d="M1878.13,700.32c.07-.6-.3-1.2-1.2-1.87a10.38,10.38,0,0,0-4.27-1.65,20.2,20.2,0,0,0-7.35.07,30.25,30.25,0,0,0-9.14,3.15c-6.29,3.3-12.51,8.92-17.76,16a97.1,97.1,0,0,0-13.11,24.73,103.62,103.62,0,0,0-6,27.12,75.37,75.37,0,0,0-.08,12.37,53.2,53.2,0,0,0,1.87,10.86,33,33,0,0,0,3.68,8.7,20.52,20.52,0,0,0,4.87,5.62,10.36,10.36,0,0,0,2.32,1.42,9.46,9.46,0,0,0,2,.6c1.12.15,1.87-.08,2.17-.6.68-1-.3-2.85-1.2-5.62a39.1,39.1,0,0,1-1.72-12.14c-.15-10.64,2.55-26.23,8.47-42.41a130.39,130.39,0,0,1,10-21.73A65.19,65.19,0,0,1,1863,710.21a40.07,40.07,0,0,1,5.4-4.19,35.86,35.86,0,0,1,4.72-2.48C1876,702.27,1878,701.52,1878.13,700.32Z" style="fill:#7f4b30"/><path d="M1720.77,346.64c.08,2.48,7.19,4.05,17.54,7.2a157.7,157.7,0,0,1,17.6,6.59,163.56,163.56,0,0,1,20.24,10.87c13.93,8.76,25.85,18.5,35.14,25.17a102.4,102.4,0,0,0,11.54,7.5c3,1.49,5,1.94,5.92,1.12s.37-2.92-1.13-5.92a79.13,79.13,0,0,0-7.79-11.54,152.63,152.63,0,0,0-14-15.21,127.37,127.37,0,0,0-20.38-15.81,105.13,105.13,0,0,0-23.83-11.17,80.58,80.58,0,0,0-21.28-3.74,48.46,48.46,0,0,0-14.39,1.5C1722.49,344.25,1720.77,345.44,1720.77,346.64Z" style="fill:#7f4b30"/><path d="M1809.19,378.11c1,.75,2.55.53,4.65.08s4.94-1.42,8.46-2.47A262.49,262.49,0,0,1,1850,368.9a141.21,141.21,0,0,1,15.21-2,54.48,54.48,0,0,1,11.31.23,18.64,18.64,0,0,1,6.45,2c1.65.9,2.92,1.88,4.12,1.65a2.18,2.18,0,0,0,1.5-1.35,6.19,6.19,0,0,0,.37-3.52,12.36,12.36,0,0,0-2.17-5.17,18.6,18.6,0,0,0-5.32-4.87c-4.42-2.85-10-4.35-15.89-4.95a66.54,66.54,0,0,0-18.73,1c-12.89,2.4-23.75,7.57-30.57,13.19a25.07,25.07,0,0,0-7,8.16C1808.14,375.57,1808.29,377.37,1809.19,378.11Z" style="fill:#7f4b30"/><path d="M1839.24-.67a5.4,5.4,0,0,1-.83.6,64.74,64.74,0,0,0-12.28,13.42,91.08,91.08,0,0,0-9.6,18,116.74,116.74,0,0,0-6.29,21.36,127.57,127.57,0,0,0-2.47,23.75,108.29,108.29,0,0,0,1.57,19.78c.15.83.3,1.57.45,2.4s.37,1.57.52,2.4.38,1.57.6,2.39c.08.38.23.75.3,1.2l.3,1c.08,0,.23.15.3.38a2.18,2.18,0,0,0-.3.37h0l-.3.15-.52.23a7.3,7.3,0,0,0-1,.52c-.67.38-1.42.68-2,1s-1.35.75-1.95,1.12-1.27.83-1.87,1.2a50.41,50.41,0,0,0-12.07,11.39A56.75,56.75,0,0,0,1780.79,146a40.89,40.89,0,0,0-.15,16.86c.9,3.82,2.17,5.69,3.07,5.62s1.58-2.18,2.4-5.62a78,78,0,0,1,4.5-13.94,58.57,58.57,0,0,1,11.76-17.69,45.81,45.81,0,0,1,9.67-7.49c.45-.22.9-.52,1.42-.75l1.43-.67c.44-.23,1-.38,1.49-.6a6.15,6.15,0,0,1,.75-.3l1-.38a18.08,18.08,0,0,1,1.8-.6c.67-.15,1.34-.3,1.94-.45,1.35-.3,2.63-.59,4.05-.89,2.77-.53,5.55-1,8.39-1.65-1.12-2.63-2.17-5.25-3.29-8a70.7,70.7,0,0,1-3-8.16l-.08-.38-.15-.67c-.07-.3-.15-.6-.22-1-.15-.6-.3-1.27-.45-1.87s-.23-1.27-.38-2-.22-1.35-.3-2a102.84,102.84,0,0,1-1.12-16.78,134.5,134.5,0,0,1,1.8-20.83A125.65,125.65,0,0,1,1831.67,37c3.82-11.69,9.22-21.36,15.21-27.95A44.52,44.52,0,0,1,1859-.52l-19.78-.15Z" style="fill:#7f4b30"/><path d="M104.79,106.34c-.67,1,1.28,3.74,6.07,7.19a50.86,50.86,0,0,0,9.37,5.17,81.45,81.45,0,0,0,13.49,4.35,109.89,109.89,0,0,0,16.93,2.32,132.27,132.27,0,0,0,19.48-.37,179.07,179.07,0,0,0,43.09-9.52,188.07,188.07,0,0,0,39.64-19.33,156.6,156.6,0,0,0,15.51-11.62,113,113,0,0,0,12.06-12c6.82-7.94,10.94-15.58,12.74-21.28s1.58-9.06.45-9.44S290.55,44,287.18,48a121.25,121.25,0,0,1-15.44,15.81c-3.6,3-7.64,6.15-12.14,9.29s-9.59,6.3-15,9.29a240.51,240.51,0,0,1-37.1,16.64,219.38,219.38,0,0,1-39.26,10,171.75,171.75,0,0,1-17.46,1.8,127.52,127.52,0,0,1-15.21-.08,103.78,103.78,0,0,1-12.44-1.5c-3.67-.67-6.74-1.42-9.36-2C108.54,106.11,105.47,105.29,104.79,106.34Z" style="fill:#7f4b30"/><path d="M1734.63,1080.6l.83-1.27c.22-.3.37-.6.6-.9l.67-.9c.45-.6.9-1.2,1.35-1.88l1.57-1.79a18,18,0,0,1,1.65-1.8,9.71,9.71,0,0,0,.83-.9l.9-.9a99.57,99.57,0,0,1,8.31-7,101.1,101.1,0,0,1,10.12-6.37,128.06,128.06,0,0,1,21.65-9.22,140.52,140.52,0,0,1,19-4.57c5.55-.9,10-1.35,13.34-1.8a26.23,26.23,0,0,0,4-.82c1-.38,1.58-.83,1.72-1.35s-.14-1.28-.89-2a14.16,14.16,0,0,0-3.6-2.47,41.45,41.45,0,0,0-14.84-3.82,79.91,79.91,0,0,0-22.55,1.35,93.26,93.26,0,0,0-26.08,9.52,76.2,76.2,0,0,0-12.14,8.16,67.43,67.43,0,0,0-9.81,9.82c-.38.45-.68.82-1,1.35s-.68.9-1,1.35a21.29,21.29,0,0,0-1.79,2.69c-.53.9-1.13,1.8-1.65,2.7s-1,1.87-1.43,2.77l-.67,1.35c-.15.45-.38.9-.53,1.35-.37.9-.67,1.8-1,2.7s-.53,1.8-.75,2.7-.38,1.42-.53,2.17l13.86-.15Z" style="fill:#7f4b30"/><path d="M1795.7,1037.51c.6,0,1.13-.52,1.65-1.35a12.42,12.42,0,0,0,.83-1.49,21.42,21.42,0,0,0,.89-2,40.84,40.84,0,0,1,2.48-4.57,23.53,23.53,0,0,1,4.12-4.72c3.37-3.08,8.69-5.7,15.73-8.62,3.53-1.5,7.35-3.07,11.62-5.32a52.91,52.91,0,0,0,6.52-4,34.82,34.82,0,0,0,6.52-6.07l-.68.75c.75-.82,1.5-1.65,2.25-2.54a30.08,30.08,0,0,0,1.87-2.78,33.26,33.26,0,0,0,3.6-8.46c.82-2.63,1.27-4.88,1.87-6.82a26.93,26.93,0,0,1,3.9-9.07c.45-.6.9-1.12,1.35-1.72s1.12-1.13,1.65-1.73,1.27-1.12,1.87-1.65c.3-.3.6-.52.9-.82a9.05,9.05,0,0,1,1-.75c1.28-1,2.55-2,3.9-2.85.67-.45,1.27-.9,2-1.35s1.27-.82,2-1.19,1.27-.83,1.87-1.2,1.2-.75,1.8-1.05c1.2-.68,2.32-1.43,3.37-2s2-1.19,3-1.79,1.8-1.05,2.55-1.58c3-2,4.57-3.67,4.27-4.79s-2.55-1.73-6.3-1.65a22.73,22.73,0,0,0-3.07.22c-1.12.15-2.32.3-3.67.53s-2.7.52-4.2.9c-.75.15-1.5.37-2.25.6s-1.57.45-2.39.75-1.65.52-2.48.82-1.72.67-2.54,1a51,51,0,0,0-5.47,2.62,14,14,0,0,0-1.43.75l-1.35.9c-.9.6-1.87,1.2-2.77,1.87s-1.95,1.43-2.92,2.25a33.32,33.32,0,0,0-2.85,2.85,39.43,39.43,0,0,0-2.55,3.3,15,15,0,0,1-1.19,1.72c-.3.6-.68,1.2-1,1.8l-.52.9-.45.9c-.3.6-.6,1.27-.83,1.87-.45,1.2-1,2.47-1.35,3.67-.82,2.4-1.42,4.65-2,6.6a25.93,25.93,0,0,1-2,4.72,11.46,11.46,0,0,0-.75,1.12,5.52,5.52,0,0,0-.83,1l-.67.75c-1.65,2.18-4.5,4.27-7.72,6.3s-6.82,3.89-10.34,5.92a76.38,76.38,0,0,0-10.12,6.74,44.54,44.54,0,0,0-4.34,4c-.68.75-1.27,1.43-1.87,2.18s-1.13,1.49-1.65,2.24a25,25,0,0,0-3.67,9.07,22.24,22.24,0,0,0-.15,7,15.26,15.26,0,0,0,.6,2.4,7.15,7.15,0,0,0,.82,1.73A2.36,2.36,0,0,0,1795.7,1037.51Z" style="fill:#7f4b30"/><path d="M282.08,228.25c-.52.6-.52,1.57,0,3.07a16.44,16.44,0,0,0,4,5.32,29.46,29.46,0,0,0,9.37,5.47c1.05.38,2.1.6,3.22,1s2.25.45,3.52.67a42.4,42.4,0,0,0,7.65.3,55.5,55.5,0,0,0,16.48-3.52,75.22,75.22,0,0,0,8.32-3.67,94.85,94.85,0,0,0,8.24-4.8,125,125,0,0,0,30-28,133,133,0,0,0,20-35.59,101.89,101.89,0,0,0,4.72-17.54,70.35,70.35,0,0,0,1-16.11,49.63,49.63,0,0,0-2.4-13.34,36.23,36.23,0,0,0-4.5-9.21,24.16,24.16,0,0,0-2.4-2.93,14.7,14.7,0,0,0-2.17-1.79c-1.35-.83-2.32-1-3-.6-1.42.9-1.12,3.89-.75,8.46a69.44,69.44,0,0,1,.15,8.1,62.93,62.93,0,0,1-1.19,10.41,96.6,96.6,0,0,1-3.3,12.44,122.18,122.18,0,0,1-5.77,13.86,168.76,168.76,0,0,1-18.58,29.6,153.54,153.54,0,0,1-24.13,24.95c-8.17,6.6-16.19,11.09-23.08,13.19a34.8,34.8,0,0,1-16.94,1C286.13,228,283.21,227.05,282.08,228.25Z" style="fill:#7f4b30"/><path d="M1579.9,64.9c-1.35.82-1.72,3.15-1.05,6.74a43.41,43.41,0,0,0,6.07,13.64,77.48,77.48,0,0,0,6.22,8.24,74.78,74.78,0,0,0,8.54,8.25,94.15,94.15,0,0,0,23,14.16,105.13,105.13,0,0,0,13.11,4.72,105.14,105.14,0,0,0,12.59,2.7A89.92,89.92,0,0,0,1670,124c6.15-.67,11-1.87,14.31-3.45s5-3.14,4.8-4.72-2-3-5.1-4.27a122.33,122.33,0,0,0-12.88-3.89c-5.32-1.43-11.47-3.08-18.14-5.17-3.29-1-6.82-2.18-10.34-3.53s-7.12-2.77-10.79-4.34a173.1,173.1,0,0,1-35-20.53C1588.44,67.9,1582.75,63.25,1579.9,64.9Z" style="fill:#7f4b30"/><rect x="368.19" y="770.32" width="10.34" height="234.02" transform="translate(-120.38 60.91) rotate(-8.04)" style="fill:#5f4424"/><path d="M359.41,1002.07a32.53,32.53,0,0,0,.08,8.92l3.74,26.75c2.55,17.76,18.36,30.2,35.37,27.8s28.77-18.73,26.23-36.49l-3.75-26.75a35.39,35.39,0,0,0-2.4-8.62Z" style="fill:#98a4b1"/><path d="M378.44,984.91a102.23,102.23,0,0,0,1.05,19.71c2.78,19.41,9.59,34.47,15.21,33.64s8-17.16,5.32-36.56a106.77,106.77,0,0,0-4.49-19.26Z" style="fill:#74869a"/><polygon points="345.77 765.81 366.31 762.89 369.3 784.39 348.77 787.24 345.77 765.81" style="fill:#74869a"/><path d="M384,770.38l-2.17-15.28C379.64,739.74,366,729,351.32,731s-24.8,16.19-22.71,31.55l2.18,15.29Zm-49.08-10.19c-1.65-11.61,6.07-22.25,17.16-23.83s21.43,6.6,23.08,18.14L376.8,766l-40.24,5.69Z" style="fill:#74869a"/><rect x="1820.97" y="627.12" width="16.04" height="22.03" transform="translate(-79.15 971.93) rotate(-29.16)" style="fill:#8dbcd2"/><path d="M1827.17,652.21,1816,632.28l14.69-8.16,11.16,19.93Zm-10-19.63,10.34,18.51,13.27-7.42-10.34-18.51Z" style="fill:#c9e4ee"/><polyline points="1841.26 643.82 1831.82 665.85 1827.32 651.62" style="fill:#64a4c3"/><polygon points="1831.74 667.05 1826.95 651.76 1827.7 651.54 1831.89 664.73 1840.89 643.67 1841.64 643.97 1831.74 667.05" style="fill:#c9e4ee"/><polyline points="1801.47 653.41 1831.82 665.85 1827.32 651.62" style="fill:#c9e4ee"/><polygon points="1801.32 653.86 1801.62 653.04 1831.15 665.18 1826.95 651.76 1827.7 651.54 1832.49 666.6 1801.32 653.86" style="fill:#c9e4ee"/><polyline points="1830.55 624.57 1806.87 621.12 1816.61 632.43" style="fill:#c9e4ee"/><polygon points="1805.82 620.52 1830.62 624.19 1830.47 625.01 1807.84 621.64 1816.91 632.13 1816.31 632.66 1805.82 620.52" style="fill:#c9e4ee"/><polyline points="1827.32 651.62 1801.47 653.41 1816.61 632.43" style="fill:#64a4c3"/><polygon points="1800.65 653.94 1816.23 632.13 1816.91 632.66 1802.3 652.96 1827.32 651.24 1827.32 652.07 1800.65 653.94" style="fill:#c9e4ee"/><polyline points="1801.47 653.41 1806.87 621.12 1816.61 632.43" style="fill:#8dbcd2"/><polygon points="1801.1 653.41 1806.57 620.14 1816.91 632.13 1816.31 632.66 1807.09 622.02 1801.85 653.49 1801.1 653.41" style="fill:#c9e4ee"/><rect x="212.02" y="144.71" width="22.03" height="16.04" transform="translate(-43.03 200.49) rotate(-44.58)" style="fill:#8dbcd2"/><path d="M237.12,150.7l-16.26,16-11.84-12,16.26-16Zm-16.26,14.91L236,150.7l-10.64-10.79-15.21,14.83Z" style="fill:#c9e4ee"/><polyline points="225.28 139.31 249.04 142.6 236.52 150.7" style="fill:#64a4c3"/><polygon points="250.16 142.3 236.75 151.07 236.3 150.32 247.91 142.83 225.21 139.68 225.36 138.93 250.16 142.3" style="fill:#c9e4ee"/><polyline points="245.14 175.12 249.04 142.6 236.52 150.7" style="fill:#c9e4ee"/><polygon points="245.51 175.2 244.77 175.12 248.51 143.43 236.75 151.07 236.3 150.32 249.56 141.78 245.51 175.2" style="fill:#c9e4ee"/><polyline points="209.62 154.74 212.54 178.57 220.86 166.13" style="fill:#c9e4ee"/><polygon points="212.25 179.69 209.17 154.82 210 154.74 212.77 177.45 220.49 165.91 221.16 166.36 212.25 179.69" style="fill:#c9e4ee"/><polyline points="236.52 150.7 245.14 175.12 220.86 166.13" style="fill:#64a4c3"/><polygon points="245.81 175.8 220.71 166.58 220.94 165.76 244.47 174.45 236.15 150.85 236.9 150.55 245.81 175.8" style="fill:#c9e4ee"/><polyline points="245.14 175.12 212.54 178.57 220.86 166.13" style="fill:#8dbcd2"/><polygon points="245.22 175.57 211.72 179.1 220.49 165.91 221.16 166.36 213.37 178.05 245.07 174.75 245.22 175.57" style="fill:#c9e4ee"/></g></g></g></svg>
