<svg data-name="Capa 1" xmlns="http://www.w3.org/2000/svg" viewBox="0 0 361 305"><path d="M229.45 173.71c0 2.43-22.57 4.4-50.4 4.4s-50.4-2-50.4-4.4S151.22 148 179.05 148s50.4 23.27 50.4 25.71z" fill="#203466"/><ellipse cx="218.3" cy="188.15" rx="8.96" ry="4.86" transform="rotate(-74.83 218.301 188.152)" fill="#d19659"/><path d="M213.15 206.17s46.09 32.77 9.51 65c0 0-6 8.28-8.21 7.57M147.85 206.17s-46.09 32.77-9.51 65c0 0 6 8.28 8.21 7.57" fill="#234376"/><path d="M223.88 282c0 1.88-2 3.42-4.42 3.42h-78.41c-2.45 0-4.43-1.54-4.43-3.42l9.95-73.59A3.42 3.42 0 0 1 150 205h60.52a3.42 3.42 0 0 1 3.42 3.42z" fill="#294d88"/><path d="M213.92 208.42a3.42 3.42 0 0 0-3.42-3.42H150a3.4 3.4 0 0 0-2.29.88 1.29 1.29 0 0 1 .18.16 19.13 19.13 0 0 1 3.13 6.17 14.66 14.66 0 0 0 5.94 7.62c4.78 3.3 10.19 5.42 15.19 8.34 8.53 5 19.87 8 21.41 19.32 1.73 12.73-1.84 25.72-5.25 37.94h31.15c2.45 0 4.43-1.54 4.43-3.42z" fill="#234376"/><path d="M196.7 256c0 3.61-1.8 6.54-4 6.54h-24.46c-2.23 0-4-2.93-4-6.54v-35.4c0-3.62 1.8-6.55 4-6.55h24.43c2.23 0 4 2.93 4 6.55z" fill="none" stroke="#1f3863" stroke-miterlimit="10" stroke-width="2.131"/><ellipse cx="179.48" cy="195.35" rx="37.51" ry="29.58" fill="#fcc184"/><path d="M179.48 165.77a46.38 46.38 0 0 0-13.15 1.87c.74 0 1.48-.06 2.23-.06 20.72 0 37.51 13.25 37.51 29.58 0 12.69-10.13 23.51-24.36 27.71C201.39 224 217 211.09 217 195.35c0-16.35-16.81-29.58-37.52-29.58z" fill="#d19659"/><path d="M214.92 140.23a65.62 65.62 0 0 1-1.75-8.34c-1.64-11.71-17.73-26.42-16.64-38.3.43-4.75 1.24-23-.28-27.79-1.34-4.23-4.43-6.77-7.75-9.26l-11.56-8.69c-2.37-1.78-5.14-2.9-7.26-5-3.1-3.09-.85-5.47 1.18-8.39s4.08-5.54 6-8.37c-2.71 2.36-5.45 4.7-8.14 7.09-3.16 2.79-6.7 5.16-6.36 9.83.34 4.45 2.55 8.63 3.9 12.83 1.61 5 3.94 10 4.53 15.32 1.46 13.17-12 40.52-19.55 50.93-5.19 7.14-7.14 14.06-10 22.4-3.46 10-4.11 9.84-7.86 19.76-.12.31-5 8.78-4.79 8.88s5.49-3.08 11.48-4.4c.94-3 1.73-6 3.56-8.6a.91.91 0 0 1 1.68.48c.07 2.37.07 4.72.18 7.07 14.23-6.19 29.74-13.71 83 5.45-6.9-15.8-8.96-16.26-13.57-32.9z" fill="#3b68b2"/><path d="M176.89 26.07l-4.25 3.68a5.5 5.5 0 0 1-1.26 1.63c-.22.19-1.67 1.83-1 .89a18.07 18.07 0 0 0-1 1.59 11.58 11.58 0 0 0-1.38 3.41c-.19.68-.38 1.36-.52 2a9.75 9.75 0 0 1-.24 1.29 34.1 34.1 0 0 0-.25 4c0 .68 0 1.36.07 2v.6c0 .12 0 .19.06.32 1.09 6 5.92 10.38 9.73 15 4.67 5.68 8.66 12 10.09 19.37 1.64 8.35.68 16.08-.59 24.39a54.59 54.59 0 0 0 1.48 22.13c2 7.41 5.65 13.87 9.29 20.56 3.89 7.15 8.74 11.6 13.25 18.4 5.91.87 11.55 4.42 18.1 5.66-6.89-15.79-8.95-16.25-13.56-32.89a65.26 65.26 0 0 1-1.75-8.34c-1.64-11.71-17.73-26.42-16.64-38.3.43-4.75 1.24-23-.28-27.79-1.34-4.23-4.43-6.77-7.75-9.26l-11.56-8.69c-2.37-1.78-5.13-2.89-7.26-5-3.1-3.09-.85-5.47 1.18-8.39s4.09-5.43 6.04-8.26z" fill="#335b9c"/><path d="M220.88 242.81a2.77 2.77 0 0 1-2.86 2.67h-75.69a2.77 2.77 0 0 1-2.85-2.67 2.76 2.76 0 0 1 2.85-2.66H218a2.76 2.76 0 0 1 2.86 2.66z" fill="#b77d2f"/><path d="M205.05 245.23c.2.06.5-.34 1-.87a10.63 10.63 0 0 1 .89-.9 12.81 12.81 0 0 1 1.21-1c1.81-1.3 3.59-2 3.49-2.41-.05-.19-.58-.25-1.39-.09a8 8 0 0 0-2.94 1.32 7.26 7.26 0 0 0-1.34 1.23 4.89 4.89 0 0 0-.79 1.28c-.36.83-.31 1.39-.13 1.44zM199.72 245.23c.2.06.5-.34 1-.87a12.39 12.39 0 0 1 .89-.9 14.24 14.24 0 0 1 1.21-1c1.81-1.3 3.59-2 3.49-2.41 0-.19-.57-.25-1.39-.09a8.1 8.1 0 0 0-2.94 1.32 7.26 7.26 0 0 0-1.34 1.23 5.18 5.18 0 0 0-.79 1.28c-.35.83-.31 1.39-.13 1.44zM194.4 245.23c.2.06.49-.34 1-.87a10.39 10.39 0 0 1 .88-.9 14.45 14.45 0 0 1 1.22-1c1.81-1.3 3.59-2 3.48-2.41 0-.19-.57-.25-1.38-.09a8.06 8.06 0 0 0-3 1.32 7.59 7.59 0 0 0-1.34 1.23 5.18 5.18 0 0 0-.79 1.28c-.3.83-.25 1.39-.07 1.44zM189.07 245.23c.2.06.49-.34 1-.87a10.63 10.63 0 0 1 .89-.9 12.81 12.81 0 0 1 1.21-1c1.81-1.3 3.59-2 3.49-2.41 0-.19-.58-.25-1.39-.09a8 8 0 0 0-2.94 1.32 7 7 0 0 0-1.34 1.23 4.89 4.89 0 0 0-.79 1.28c-.36.83-.31 1.39-.13 1.44zM183.74 245.23c.2.06.5-.34 1-.87a10.63 10.63 0 0 1 .89-.9 14.24 14.24 0 0 1 1.21-1c1.81-1.3 3.59-2 3.49-2.41-.05-.19-.58-.25-1.39-.09a8.1 8.1 0 0 0-2.94 1.32 7.26 7.26 0 0 0-1.34 1.23 5.18 5.18 0 0 0-.79 1.28c-.35.83-.31 1.39-.13 1.44zM178.41 245.23c.21.06.5-.34 1-.87a10.39 10.39 0 0 1 .88-.9 14.24 14.24 0 0 1 1.21-1c1.82-1.3 3.6-2 3.49-2.41 0-.19-.57-.25-1.38-.09a8.06 8.06 0 0 0-2.95 1.32 7.59 7.59 0 0 0-1.34 1.23 5.18 5.18 0 0 0-.79 1.28c-.34.83-.29 1.39-.12 1.44zM173.09 245.23c.2.06.49-.34 1-.87a10.63 10.63 0 0 1 .89-.9 12.81 12.81 0 0 1 1.21-1c1.81-1.3 3.59-2 3.49-2.41 0-.19-.58-.25-1.39-.09a8.06 8.06 0 0 0-3 1.32 7.19 7.19 0 0 0-1.33 1.23 4.64 4.64 0 0 0-.79 1.28c-.31.83-.26 1.39-.08 1.44zM167.76 245.23c.2.06.5-.34 1-.87a10.63 10.63 0 0 1 .89-.9 14.24 14.24 0 0 1 1.21-1c1.81-1.3 3.59-2 3.49-2.41-.05-.19-.58-.25-1.39-.09a8 8 0 0 0-2.94 1.32 7.26 7.26 0 0 0-1.34 1.23 5.18 5.18 0 0 0-.79 1.28c-.36.83-.31 1.39-.13 1.44zM162.43 245.23c.21.06.5-.34 1-.87a12.39 12.39 0 0 1 .89-.9 14.24 14.24 0 0 1 1.21-1c1.82-1.3 3.6-2 3.49-2.41-.05-.19-.57-.25-1.39-.09a8.1 8.1 0 0 0-2.94 1.32 7.59 7.59 0 0 0-1.34 1.23 5.18 5.18 0 0 0-.79 1.28c-.35.83-.3 1.39-.13 1.44zM157.11 245.23c.2.06.49-.34 1-.87a10.39 10.39 0 0 1 .88-.9 14.45 14.45 0 0 1 1.22-1c1.81-1.3 3.59-2 3.49-2.41-.05-.19-.58-.25-1.39-.09a8.06 8.06 0 0 0-2.95 1.32 7.59 7.59 0 0 0-1.34 1.23 5.18 5.18 0 0 0-.79 1.28c-.35.83-.3 1.39-.12 1.44zM151.78 245.23c.2.06.5-.34 1-.87a10.63 10.63 0 0 1 .89-.9 12.81 12.81 0 0 1 1.21-1c1.81-1.3 3.59-2 3.49-2.41 0-.19-.58-.25-1.39-.09a8 8 0 0 0-2.94 1.32 7.26 7.26 0 0 0-1.34 1.23 5.18 5.18 0 0 0-.79 1.28c-.36.83-.31 1.39-.13 1.44zM146.45 245.23c.2.06.5-.34 1-.87a12.39 12.39 0 0 1 .89-.9 14.24 14.24 0 0 1 1.21-1c1.81-1.3 3.6-2 3.49-2.41-.05-.19-.57-.25-1.39-.09a8.1 8.1 0 0 0-2.94 1.32 7.59 7.59 0 0 0-1.34 1.23 5.18 5.18 0 0 0-.79 1.28c-.35.83-.31 1.39-.13 1.44zM141.13 245.23c.2.06.49-.34 1-.87a10.39 10.39 0 0 1 .88-.9 14.45 14.45 0 0 1 1.22-1c1.81-1.3 3.59-2 3.48-2.41 0-.19-.57-.25-1.38-.09a8.06 8.06 0 0 0-2.95 1.32 7.59 7.59 0 0 0-1.34 1.23 5.18 5.18 0 0 0-.79 1.28c-.35.83-.25 1.39-.12 1.44z" fill="#915924"/><ellipse cx="217.89" cy="243.05" rx="3.07" ry=".72" transform="rotate(-44.78 217.894 243.047)" fill="#915924"/><path d="M210.38 245.23c.2.06.49-.34 1-.87a10.39 10.39 0 0 1 .88-.9 14.45 14.45 0 0 1 1.22-1c1.81-1.3 3.59-2 3.49-2.41 0-.19-.58-.25-1.39-.09a8.06 8.06 0 0 0-2.95 1.32 7.59 7.59 0 0 0-1.34 1.23 5.18 5.18 0 0 0-.79 1.28c-.35.83-.3 1.39-.12 1.44z" fill="#915924"/><path fill="#b77d2f" d="M177.766 247.221l5.51-1.937 6.199 17.632-5.51 1.937z"/><path fill="#b77d2f" d="M172.516 260.296l3.389-13.975 5.675 1.376-3.388 13.975z"/><circle cx="179.53" cy="243.22" r="5.62" fill="#b77d2f"/><path d="M174.77 240.24c-.17.08-.06.76.4 1.75a11.87 11.87 0 0 0 2.52 3.44 9.67 9.67 0 0 0 1.94 1.43 6.2 6.2 0 0 0 1.88.67c1.13.2 1.83-.05 1.82-.22s-.64-.36-1.53-.76a9.31 9.31 0 0 1-1.48-.84 15.22 15.22 0 0 1-1.64-1.33c-2.21-2.1-3.53-4.38-3.91-4.14zM178.27 237.74c-.18 0-.41.59-.3 1.59a7.67 7.67 0 0 0 4.61 5.73 5.88 5.88 0 0 0 .66.17 5 5 0 0 0 .53 0q.45-.09.45-.24c0-.22-.51-.35-1.18-.85a12.59 12.59 0 0 1-2.37-2.28 12 12 0 0 1-1.7-2.8c-.33-.77-.48-1.32-.7-1.32z" fill="#915924"/><path d="M183 249.76c-.82 1.39-2.88 1.69-4.59.67-1.71-1-2.42-3-1.59-4.36l3.47-5.83c.83-1.39 2.88-1.69 4.59-.68 1.71 1 2.42 3 1.6 4.36z" fill="#b77d2f"/><path d="M178.62 242.78c-.08-.05-.22 0-.4.22a2.4 2.4 0 0 0-.44 1 6.23 6.23 0 0 0 .43 3.39 6.4 6.4 0 0 0 2 2.74c.74.54 1.37.55 1.42.37s-.29-.51-.71-1.11a12.19 12.19 0 0 1-1.37-2.55 11 11 0 0 1-.75-2.77c-.09-.71 0-1.17-.18-1.29zM180.67 239.76c-.2 0-.38.53-.44 1.41a9.85 9.85 0 0 0 .49 3.4 11 11 0 0 0 1.56 3.05c.54.69 1 1 1.14.93.35-.23-.55-2.09-1.32-4.42-.38-1.18-.64-2.25-.85-3s-.38-1.37-.58-1.37zM183.33 239.14c-.09 0-.15.16-.19.33a5.94 5.94 0 0 0-.08.66 6.61 6.61 0 0 0 0 1.06 9.41 9.41 0 0 0 .34 1.31c.19.42.39.83.58 1.16s.4.61.55.84c.32.46.62.73.81.68s.24-.46.14-1.08a6.09 6.09 0 0 0-.29-1c-.13-.37-.26-.73-.44-1.12s-.27-.74-.38-1.07-.21-.66-.33-.94a1.88 1.88 0 0 0-.39-.67c-.11-.15-.23-.2-.32-.16zM175.25 248.77c-.16.11-.12.52.11 1.08a6.1 6.1 0 0 0 1.4 2 4.16 4.16 0 0 0 2.34 1.15c.67 0 1.06-.12 1.08-.32s-.32-.43-.8-.67a10.11 10.11 0 0 1-1.64-1.16c-.58-.54-1.09-1.14-1.53-1.53s-.79-.66-.96-.55zM174.72 252.5c-.17.11-.12.52.11 1.08a6.05 6.05 0 0 0 1.4 2 4.16 4.16 0 0 0 2.34 1.08c.67 0 1.06-.12 1.07-.32s-.31-.44-.79-.67a9.69 9.69 0 0 1-1.64-1.16c-.58-.54-1.09-1.14-1.54-1.53s-.79-.59-.95-.48zM173.65 256.23c-.16.11-.11.51.12 1.08a6 6 0 0 0 1.39 2 4.17 4.17 0 0 0 2.34 1.07c.67 0 1.06-.12 1.08-.31s-.31-.44-.8-.67a10.11 10.11 0 0 1-1.64-1.16c-.58-.54-1.09-1.14-1.53-1.53s-.79-.59-.96-.48zM180.13 254c.13.15.53.07 1.09-.21a7.65 7.65 0 0 0 2-1.46 5.45 5.45 0 0 0 1.32-2.2c.14-.65.1-1.07-.09-1.13s-.5.22-.83.68-.83 1-1.44 1.64-1.19 1.19-1.58 1.67-.6.89-.47 1.01zM181.73 258.83c.13.16.53.07 1.09-.21a7.42 7.42 0 0 0 2-1.46 5.21 5.21 0 0 0 1.31-2.19c.15-.66.1-1.08-.08-1.14s-.5.23-.84.68-.83 1-1.44 1.65-1.18 1.18-1.58 1.66-.59.86-.46 1.01zM183.33 263.09c.12.16.53.07 1.09-.21a7.58 7.58 0 0 0 2-1.45 5.41 5.41 0 0 0 1.31-2.2c.14-.66.1-1.08-.09-1.14s-.49.23-.83.69-.83 1-1.44 1.64-1.19 1.18-1.58 1.66-.59.86-.46 1.01z" fill="#915924"/><path d="M157.57 146.61c-.32 1.44-1.38 2.43-2.36 2.21l-8.57-3.37c-.83-.18-1.29-1.32-1-2.53l2.4-10.81c.27-1.22 1.16-2.05 2-1.87l9.2.58c1 .22 1.52 1.56 1.2 3z" fill="#8fc0d6"/><path d="M164 136c-.25 1.11-1.06 1.87-1.81 1.7l-6.6-2.59c-.64-.14-1-1-.78-1.95l1.84-8.32c.21-.93.89-1.57 1.53-1.43l7.08.44c.75.17 1.17 1.2.92 2.31z" fill="#f7d98d"/><path d="M161.9 131.69c0 .2.25.42.68.66a15.59 15.59 0 0 0 1.73.85 7.4 7.4 0 0 0 1.95.57c.55 0 .91 0 1-.22s-.2-.46-.62-.74a10.62 10.62 0 0 0-1.74-.95 5.82 5.82 0 0 0-2-.5c-.63 0-.98.13-1 .33zM163.23 129.56c-.16.36 1.08 1.21 2.78 1.86s3.26.66 3.35.27-1.19-1.13-2.87-1.63-3.1-.87-3.26-.5zM148.32 149.53c.14.13.55-.06 1-.55a7.19 7.19 0 0 0 1.38-2.2 7.37 7.37 0 0 0 .57-2.52c0-.68-.13-1.1-.32-1.12s-.43.33-.68.9-.57 1.34-.91 2.19-.68 1.62-.9 2.19-.3.98-.14 1.11zM151.25 150.33c.33.21 1.31-.78 2-2.29a6.54 6.54 0 0 0 .59-2.06c.05-.56 0-.92-.21-1s-.47.21-.76.65a14.77 14.77 0 0 0-.94 1.78c-.65 1.45-1.03 2.7-.68 2.92zM160.3 125a.23.23 0 0 0-.14 0v.11a.24.24 0 0 0 .12.13.27.27 0 0 0 .15 0 .34.34 0 0 0 .15-.09h.06a1.13 1.13 0 0 0 .33-.29 2.17 2.17 0 0 0 .42-1c.16-.79-.09-1.55-.51-1.55s-.77.51-.91 1.28.03 1.53.33 1.41zM161.9 125.3c.4.07.9-.54 1.25-1.49a3.17 3.17 0 0 0 .18-1.34c0-.36-.17-.6-.37-.64s-.42.12-.62.39a4.32 4.32 0 0 0-.56 1.12c-.34.93-.27 1.88.12 1.96zM144.59 139.14c-.23.31.16 1 1.06 1.31a1.92 1.92 0 0 0 1.15 0c.29-.12.45-.29.45-.49a.71.71 0 0 0-.37-.54 3.26 3.26 0 0 0-.82-.34c-.59-.21-1.23-.27-1.47.06zM144.85 136.21c-.23.32.31 1.09 1.3 1.43a2.45 2.45 0 0 0 1.34.11c.36-.09.56-.27.56-.47s-.18-.39-.43-.55a5.25 5.25 0 0 0-1-.46c-.79-.27-1.53-.38-1.77-.06z" fill="#1a305a"/><ellipse cx="206.29" cy="261.69" rx="4.93" ry="9" transform="rotate(-9.32 206.215 261.64)" fill="#8fc0d6"/><path d="M199.72 263.78c0 .42 1.08.68 2.19.25a3.16 3.16 0 0 0 1.3-.82c.27-.32.36-.6.23-.76s-.4-.18-.74-.12a6.3 6.3 0 0 0-1.28.34c-.97.33-1.68.72-1.7 1.11z" fill="#1a305a"/><ellipse cx="202.65" cy="265.92" rx="1.79" ry=".72" transform="rotate(-26.57 202.597 265.882)" fill="#1a305a"/><path d="M208.51 265.12c-.19.35.46 1 1.43 1.46s1.85.49 2 .13-.46-1-1.44-1.46-1.81-.49-1.99-.13zM209.57 263.25c0 .21.18.39.41.55a6.13 6.13 0 0 0 .87.49c.68.31 1.35.57 1.65.29.14-.14.13-.4 0-.72a2.32 2.32 0 0 0-1-.88 2.16 2.16 0 0 0-1.34-.2c-.4.09-.59.28-.59.47zM205.84 255.53c.16.12.44 0 .77-.22a3.19 3.19 0 0 0 1-2.86c-.1-.42-.28-.65-.48-.65s-.38.22-.54.53a7.76 7.76 0 0 0-.5 1.19c-.3.91-.57 1.75-.25 2.01zM208 256.86a.57.57 0 0 0 .67.13 1.8 1.8 0 0 0 1.14-2c-.1-.32-.28-.49-.48-.49a.74.74 0 0 0-.53.35 4.34 4.34 0 0 0-.45.67 3.83 3.83 0 0 0-.35.74.75.75 0 0 0 0 .6z" fill="#1a305a"/><ellipse cx="141.58" cy="188.14" rx="4.86" ry="8.96" transform="rotate(-12.13 141.662 188.23)" fill="#fcc184"/><ellipse cx="178.27" cy="214.29" rx="5.58" ry="9.94" fill="#391212"/><path d="M201.5 182.7c4.44 0 8.12-1 8.76-3.61a3.49 3.49 0 0 1 .1.79c0 3-4 5.34-8.86 5.34s-8.86-2.39-8.86-5.34a3.48 3.48 0 0 1 .09-.79c.64 2.58 4.32 3.61 8.77 3.61zM158.35 182.7c4.45 0 8.13-1 8.76-3.61a3.49 3.49 0 0 1 .1.79c0 3-4 5.34-8.86 5.34s-8.86-2.39-8.86-5.34a3 3 0 0 1 .1-.79c.63 2.58 4.31 3.61 8.76 3.61z"/><ellipse cx="179.48" cy="195.49" rx="29.04" ry="14.8" fill="#d85b4a"/><path d="M188.72 181.46c7.12 2.7 11.74 7 11.74 11.88 0 8.18-13 14.8-29 14.8a54.58 54.58 0 0 1-9.24-.77 49.59 49.59 0 0 0 17.3 2.92c16 0 29-6.63 29-14.8 0-6.49-8.29-12.06-19.8-14.03z" fill="#a9473a"/><ellipse cx="170.85" cy="190.62" rx="11.11" ry="4.86" fill="#f58677"/><path fill="#6e3318" d="M181.79 304.6h26.17l-5.33-19.17h-20.84v19.17z"/><path d="M199.21 294.35c9.58 0 17.34 4.71 17.34 10.52h-34.68c0-5.81 7.76-10.52 17.34-10.52z" fill="#6e3318" stroke="#471c10" stroke-miterlimit="10" stroke-width=".533"/><path fill="#6e3318" d="M178.59 304.6h-26.17l5.33-19.17h20.84v19.17z"/><path d="M161.26 294.35c-9.58 0-17.34 4.71-17.34 10.52h34.68c0-5.81-7.77-10.52-17.34-10.52z" fill="#6e3318" stroke="#471c10" stroke-miterlimit="10" stroke-width=".533"/></svg>