<svg xmlns="http://www.w3.org/2000/svg" viewBox="0 0 408.6 574.4"><path d="M55 168.1h294.5v-.1l.8.1h35.9v-57.6l-36.7 5.5V67.1h5c22.1 0 40-18.8 40-42V12h-369v13.1a50.61 50.61 0 0 0 .5 6.8C10.4 43.3 0 63.4 0 86.3v17.8c0 35.3 24.7 64 55 64zM46.7 62.2a38.71 38.71 0 0 0 18.8 4.9h5v62.6H55c-13.8 0-25-11.5-25-25.6V86.3a25.6 25.6 0 0 1 16.7-24.1z" fill="#9ac4ba"/><path d="M45.7 355h263c-.4-35.6 2.5-75.7 8.9-100.4.5-2 1.1-4 1.6-6a9.29 9.29 0 0 1 .4-1.3l1.5-5.1c.1-.5.3-.9.4-1.4.6-1.8 1.2-3.7 1.8-5.5.2-.7.5-1.4.7-2.1.5-1.5 1.1-3 1.6-4.5.1-.4.3-.8.4-1.1 4.4-12 8.7-23.1 12.3-34 0-.1 0-.1.1-.2.3-1 .6-1.9.9-2.9.1-.2.1-.3.2-.5.3-.9.5-1.8.8-2.7.1-.2.1-.4.2-.6a25 25 0 0 0 .7-2.6c.1-.2.1-.4.2-.6a22.91 22.91 0 0 0 .7-2.8c0-.1.1-.3.1-.4 1.2-4.8 2.3-9.6 3.1-14.5h3.9V26.2h-279v139.6h8.1c-.1.5-.3.9-.4 1.4a6.37 6.37 0 0 0-.2.7c-.2.8-.5 1.7-.7 2.5-.1.2-.1.5-.2.7a24.13 24.13 0 0 1-.8 2.5 6.37 6.37 0 0 0-.2.7 27.59 27.59 0 0 0-.8 2.7c-.1.2-.1.3-.2.5-.3 1-.7 2.1-1 3.1-1.1 3.3-2.3 6.6-3.5 9.9a.1.1 0 0 1-.1.1c-.4 1-.8 2.1-1.2 3.2 0 .1-.1.2-.1.3-.4 1-.8 2.1-1.2 3.1v.1c-1.7 4.5-3.4 9.2-5.2 13.9 0 .1 0 .1-.1.2-.7 2-1.4 3.9-2.1 5.9-.2.5-.3.9-.5 1.4-.7 2-1.4 4.1-2 6.1-.1.2-.1.3-.2.5-.7 2.1-1.3 4.2-1.9 6.3 0 .1-.1.3-.1.4l-1.8 6.6v.1c-7 28.4-9.7 77.5-8.1 116.3z" fill="#9ac4ba"/><path d="M400.3 153.8l-76.7-11.1v-37.9l76.7-11z" fill="#9ca4a5"/><path d="M264.3 112.1H69c-13.8 0-25-10.9-25-24.4V70.8c0-13.4 11.2-24.4 25-24.4h195.3V9.9H69c-30.3 0-55 27.3-55 60.9v16.9c0 33.6 24.7 60.9 55 60.9h195.3z" fill="#5a6766"/><path d="M360.6 119.6a238.2 238.2 0 0 0-12-52.6L85.2 52.5a232.68 232.68 0 0 1 12 52.6c3.8 32.3-7.6 56.4-20.2 86.9-17.1 41.2-21.2 83.9-14.2 126.8l3.2.2a6.23 6.23 0 0 1-.8-3.5c.2-2.2 1.8-4.3 4.2-5.7A15.36 15.36 0 0 1 78 308l1.5.1c6.5.4 11.6 4.6 11.1 9.1a6.81 6.81 0 0 1-1.3 3.2l7.4.4c.9-3.8 5.1-7.2 12.3-6.8 5.5.3 8.8 2.6 10.1 5.4 1.3-3.9 6.6-6.6 12.5-6.2l3 .2a13.62 13.62 0 0 1 9.3 4 9.06 9.06 0 0 1 1.6-1.1 15.36 15.36 0 0 1 8.6-1.8l1.5.1c5 .3 9.2 2.9 10.6 6.1a8.45 8.45 0 0 1 3.2-3 15.36 15.36 0 0 1 8.6-1.8l1.5.1c6.5.4 11.6 4.6 11.1 9.1a2.66 2.66 0 0 1-.3 1.2h.3a8 8 0 0 1 4.1-4.8 14.54 14.54 0 0 1 5.9-1.8c1.4-.1 2.6-.1 4-.1 6.1.3 10.9 4 11.2 8.1h.1v-.3c.2-2.2 1.8-4.3 4.2-5.7a15.36 15.36 0 0 1 8.6-1.8l1.5.1c6.5.4 11.6 4.6 11.1 9.1v.1l5 .3a5 5 0 0 1-.3-2.4c.2-2.2 1.8-4.3 4.2-5.7a15.36 15.36 0 0 1 8.6-1.8l1.5.1c5.7.3 10.3 3.5 11.1 7.3a11.22 11.22 0 0 1 2.6-2.2 15.36 15.36 0 0 1 8.6-1.8l1.5.1c6.5.4 11.6 4.6 11.1 9.1v.1l4 .2a5.5 5.5 0 0 1-.7-.9 7.17 7.17 0 0 1-1.3-4.8c.1-2.2 1.9-4.4 4.2-5.7a15.36 15.36 0 0 1 8.6-1.8 14.93 14.93 0 0 1 6.5 1.8c4.7 1.4 7.9 4.8 7.5 8.4a7.19 7.19 0 0 1-2.2 4.2l4.2.2c-7-42.9-2.9-85.6 14.2-126.8 12.8-31 24.2-55.2 20.4-87.5z" fill="#fff"/><path d="M354.5 86.2c-1.7-6.4-3.6-12.8-5.9-19.1L85.2 52.5c2.3 6.3 4.2 12.7 5.9 19.1zm-22.7 144.9a240 240 0 0 1 8.6-24.6c7.1-17.2 13.9-32.3 17.7-48.1L94.7 143.9C90.8 159.6 84.1 174.8 77 192a224.32 224.32 0 0 0-8.6 24.6z" fill="#eef3f7"/><path d="M319.5 126.9c7.9.5 15.8.9 23.6 1.4m-79.9-4.5l27.1 1.5m-85.6-4.7c9.6.5 19.2 1 28.8 1.6m-83-4.5c8.2.4 16.5.9 24.7 1.3M97 125.1c8.2.2 16.2.6 23.8 1.3" fill="none" stroke="#a1afb7" stroke-miterlimit="10" stroke-width="2.701"/><path d="M84.5 26.2h279v142.1h-279z" fill="#fff"/><path d="M84.5 109.7h279v58.6h-279z" fill="#f7f7f7"/><path d="M39.5 0v12.5a40 40 0 0 0 40 40h289a40 40 0 0 0 40-40V0z" fill="#bababa"/><path d="M298.3 0l-52.5 52.5h122.8a40 40 0 0 0 40-40V0z" fill="#9ca4a5"/><path d="M264.3 0H132.1L80.2 52.5h131.7Q238 26.25 264.3 0z" fill="#dedddd"/></svg>