<svg xmlns="http://www.w3.org/2000/svg" viewBox="0 0 408.6 574.4"><path d="M55 168.1h15.5v63h279V168l36.7 5.5v-63l-36.7 5.5V67.1h5c22.1 0 40-18.8 40-42V12h-369v13.1a50.61 50.61 0 0 0 .5 6.8C10.4 43.3 0 63.4 0 86.3v17.8c0 35.3 24.7 64 55 64zM46.7 62.2a38.71 38.71 0 0 0 18.8 4.9h5v62.6H55c-13.8 0-25-11.5-25-25.6V86.3a25.6 25.6 0 0 1 16.7-24.1z" fill="#9ac4ba"/><path d="M400.3 153.8l-76.7-11.1v-37.9l76.7-11z" fill="#9ca4a5"/><path d="M264.3 112.1H69c-13.8 0-25-10.9-25-24.4V70.8c0-13.4 11.2-24.4 25-24.4h195.3V9.9H69c-30.3 0-55 27.3-55 60.9v16.9c0 33.6 24.7 60.9 55 60.9h195.3z" fill="#5a6766"/><path d="M84.5 26.2h279v195h-279z" fill="#fff"/><path d="M84.5 140.8h279v80.5h-279z" fill="#f7f7f7"/><path d="M39.5 0v12.5a40 40 0 0 0 40 40h289a40 40 0 0 0 40-40V0z" fill="#bababa"/><path d="M298.3 0l-52.5 52.5h122.8a40 40 0 0 0 40-40V0z" fill="#9ca4a5"/><path d="M264.3 0H132.1L80.2 52.5h131.7Q238 26.25 264.3 0z" fill="#dedddd"/><path d="M84.5 26.2h279v195h-279z" style="isolation:isolate" fill="#dedddd" opacity=".2"/><path d="M104.1 62.6h-9.2a4.69 4.69 0 0 1-4.7-4.7v-1.4a4.69 4.69 0 0 1 4.7-4.7h9.2a4.69 4.69 0 0 1 4.7 4.7v1.4a4.69 4.69 0 0 1-4.7 4.7zm24.9 0h-9.2a4.69 4.69 0 0 1-4.7-4.7v-1.4a4.69 4.69 0 0 1 4.7-4.7h9.2a4.69 4.69 0 0 1 4.7 4.7v1.4a4.83 4.83 0 0 1-4.7 4.7zm24.8 0h-9.2a4.69 4.69 0 0 1-4.7-4.7v-1.4a4.69 4.69 0 0 1 4.7-4.7h9.2a4.69 4.69 0 0 1 4.7 4.7v1.4a4.69 4.69 0 0 1-4.7 4.7zm24.8 0h-9.2a4.69 4.69 0 0 1-4.7-4.7v-1.4a4.69 4.69 0 0 1 4.7-4.7h9.2a4.69 4.69 0 0 1 4.7 4.7v1.4a4.69 4.69 0 0 1-4.7 4.7zm24.9 0h-9.2a4.69 4.69 0 0 1-4.7-4.7v-1.4a4.69 4.69 0 0 1 4.7-4.7h9.2a4.69 4.69 0 0 1 4.7 4.7v1.4a4.83 4.83 0 0 1-4.7 4.7zm24.8 0h-9.2a4.69 4.69 0 0 1-4.7-4.7v-1.4a4.69 4.69 0 0 1 4.7-4.7h9.2a4.69 4.69 0 0 1 4.7 4.7v1.4a4.69 4.69 0 0 1-4.7 4.7zm24.8 0h-9.2a4.69 4.69 0 0 1-4.7-4.7v-1.4a4.69 4.69 0 0 1 4.7-4.7h9.2a4.69 4.69 0 0 1 4.7 4.7v1.4a4.69 4.69 0 0 1-4.7 4.7zm24.9 0h-9.2a4.69 4.69 0 0 1-4.7-4.7v-1.4a4.69 4.69 0 0 1 4.7-4.7h9.2a4.69 4.69 0 0 1 4.7 4.7v1.4a4.83 4.83 0 0 1-4.7 4.7zm24.8 0h-9.2a4.69 4.69 0 0 1-4.7-4.7v-1.4a4.69 4.69 0 0 1 4.7-4.7h9.2a4.69 4.69 0 0 1 4.7 4.7v1.4a4.69 4.69 0 0 1-4.7 4.7zm24.8 0h-9.2a4.69 4.69 0 0 1-4.7-4.7v-1.4a4.69 4.69 0 0 1 4.7-4.7h9.2a4.69 4.69 0 0 1 4.7 4.7v1.4a4.69 4.69 0 0 1-4.7 4.7zm24.9 0h-9.2a4.69 4.69 0 0 1-4.7-4.7v-1.4a4.69 4.69 0 0 1 4.7-4.7h9.2a4.69 4.69 0 0 1 4.7 4.7v1.4a4.83 4.83 0 0 1-4.7 4.7zM104.1 79.6h-9.2a4.69 4.69 0 0 1-4.7-4.7v-1.4a4.69 4.69 0 0 1 4.7-4.7h9.2a4.69 4.69 0 0 1 4.7 4.7v1.4a4.69 4.69 0 0 1-4.7 4.7zm24.9 0h-9.2a4.69 4.69 0 0 1-4.7-4.7v-1.4a4.69 4.69 0 0 1 4.7-4.7h9.2a4.69 4.69 0 0 1 4.7 4.7v1.4a4.83 4.83 0 0 1-4.7 4.7zm24.8 0h-9.2a4.69 4.69 0 0 1-4.7-4.7v-1.4a4.69 4.69 0 0 1 4.7-4.7h9.2a4.69 4.69 0 0 1 4.7 4.7v1.4a4.69 4.69 0 0 1-4.7 4.7zm24.8 0h-9.2a4.69 4.69 0 0 1-4.7-4.7v-1.4a4.69 4.69 0 0 1 4.7-4.7h9.2a4.69 4.69 0 0 1 4.7 4.7v1.4a4.69 4.69 0 0 1-4.7 4.7zm24.9 0h-9.2a4.69 4.69 0 0 1-4.7-4.7v-1.4a4.69 4.69 0 0 1 4.7-4.7h9.2a4.69 4.69 0 0 1 4.7 4.7v1.4a4.83 4.83 0 0 1-4.7 4.7zm24.8 0h-9.2a4.69 4.69 0 0 1-4.7-4.7v-1.4a4.69 4.69 0 0 1 4.7-4.7h9.2a4.69 4.69 0 0 1 4.7 4.7v1.4a4.69 4.69 0 0 1-4.7 4.7zm24.8 0h-9.2a4.69 4.69 0 0 1-4.7-4.7v-1.4a4.69 4.69 0 0 1 4.7-4.7h9.2a4.69 4.69 0 0 1 4.7 4.7v1.4a4.69 4.69 0 0 1-4.7 4.7zm24.9 0h-9.2a4.69 4.69 0 0 1-4.7-4.7v-1.4a4.69 4.69 0 0 1 4.7-4.7h9.2a4.69 4.69 0 0 1 4.7 4.7v1.4a4.83 4.83 0 0 1-4.7 4.7zm24.8 0h-9.2a4.69 4.69 0 0 1-4.7-4.7v-1.4a4.69 4.69 0 0 1 4.7-4.7h9.2a4.69 4.69 0 0 1 4.7 4.7v1.4a4.69 4.69 0 0 1-4.7 4.7zm24.8 0h-9.2a4.69 4.69 0 0 1-4.7-4.7v-1.4a4.69 4.69 0 0 1 4.7-4.7h9.2a4.69 4.69 0 0 1 4.7 4.7v1.4a4.69 4.69 0 0 1-4.7 4.7zm24.9 0h-9.2a4.69 4.69 0 0 1-4.7-4.7v-1.4a4.69 4.69 0 0 1 4.7-4.7h9.2a4.69 4.69 0 0 1 4.7 4.7v1.4a4.83 4.83 0 0 1-4.7 4.7zM104.1 96.6h-9.2a4.69 4.69 0 0 1-4.7-4.7v-1.4a4.69 4.69 0 0 1 4.7-4.7h9.2a4.69 4.69 0 0 1 4.7 4.7v1.4a4.69 4.69 0 0 1-4.7 4.7zm24.9 0h-9.2a4.69 4.69 0 0 1-4.7-4.7v-1.4a4.69 4.69 0 0 1 4.7-4.7h9.2a4.69 4.69 0 0 1 4.7 4.7v1.4a4.83 4.83 0 0 1-4.7 4.7zm24.8 0h-9.2a4.69 4.69 0 0 1-4.7-4.7v-1.4a4.69 4.69 0 0 1 4.7-4.7h9.2a4.69 4.69 0 0 1 4.7 4.7v1.4a4.69 4.69 0 0 1-4.7 4.7zm24.8 0h-9.2a4.69 4.69 0 0 1-4.7-4.7v-1.4a4.69 4.69 0 0 1 4.7-4.7h9.2a4.69 4.69 0 0 1 4.7 4.7v1.4a4.69 4.69 0 0 1-4.7 4.7zm24.9 0h-9.2a4.69 4.69 0 0 1-4.7-4.7v-1.4a4.69 4.69 0 0 1 4.7-4.7h9.2a4.69 4.69 0 0 1 4.7 4.7v1.4a4.83 4.83 0 0 1-4.7 4.7zm24.8 0h-9.2a4.69 4.69 0 0 1-4.7-4.7v-1.4a4.69 4.69 0 0 1 4.7-4.7h9.2a4.69 4.69 0 0 1 4.7 4.7v1.4a4.69 4.69 0 0 1-4.7 4.7zm24.8 0h-9.2a4.69 4.69 0 0 1-4.7-4.7v-1.4a4.69 4.69 0 0 1 4.7-4.7h9.2a4.69 4.69 0 0 1 4.7 4.7v1.4a4.69 4.69 0 0 1-4.7 4.7zm24.9 0h-9.2a4.69 4.69 0 0 1-4.7-4.7v-1.4a4.69 4.69 0 0 1 4.7-4.7h9.2a4.69 4.69 0 0 1 4.7 4.7v1.4a4.83 4.83 0 0 1-4.7 4.7zm24.8 0h-9.2a4.69 4.69 0 0 1-4.7-4.7v-1.4a4.69 4.69 0 0 1 4.7-4.7h9.2a4.69 4.69 0 0 1 4.7 4.7v1.4a4.69 4.69 0 0 1-4.7 4.7zm24.8 0h-9.2a4.69 4.69 0 0 1-4.7-4.7v-1.4a4.69 4.69 0 0 1 4.7-4.7h9.2a4.69 4.69 0 0 1 4.7 4.7v1.4a4.69 4.69 0 0 1-4.7 4.7zm24.9 0h-9.2a4.69 4.69 0 0 1-4.7-4.7v-1.4a4.69 4.69 0 0 1 4.7-4.7h9.2a4.69 4.69 0 0 1 4.7 4.7v1.4a4.83 4.83 0 0 1-4.7 4.7zM104.1 113.6h-9.2a4.69 4.69 0 0 1-4.7-4.7v-1.4a4.69 4.69 0 0 1 4.7-4.7h9.2a4.69 4.69 0 0 1 4.7 4.7v1.4a4.69 4.69 0 0 1-4.7 4.7zm24.9 0h-9.2a4.69 4.69 0 0 1-4.7-4.7v-1.4a4.69 4.69 0 0 1 4.7-4.7h9.2a4.69 4.69 0 0 1 4.7 4.7v1.4a4.83 4.83 0 0 1-4.7 4.7zm24.8 0h-9.2a4.69 4.69 0 0 1-4.7-4.7v-1.4a4.69 4.69 0 0 1 4.7-4.7h9.2a4.69 4.69 0 0 1 4.7 4.7v1.4a4.69 4.69 0 0 1-4.7 4.7zm24.8 0h-9.2a4.69 4.69 0 0 1-4.7-4.7v-1.4a4.69 4.69 0 0 1 4.7-4.7h9.2a4.69 4.69 0 0 1 4.7 4.7v1.4a4.69 4.69 0 0 1-4.7 4.7zm24.9 0h-9.2a4.69 4.69 0 0 1-4.7-4.7v-1.4a4.69 4.69 0 0 1 4.7-4.7h9.2a4.69 4.69 0 0 1 4.7 4.7v1.4a4.83 4.83 0 0 1-4.7 4.7zm24.8 0h-9.2a4.69 4.69 0 0 1-4.7-4.7v-1.4a4.69 4.69 0 0 1 4.7-4.7h9.2a4.69 4.69 0 0 1 4.7 4.7v1.4a4.69 4.69 0 0 1-4.7 4.7zm24.8 0h-9.2a4.69 4.69 0 0 1-4.7-4.7v-1.4a4.69 4.69 0 0 1 4.7-4.7h9.2a4.69 4.69 0 0 1 4.7 4.7v1.4a4.69 4.69 0 0 1-4.7 4.7zm24.9 0h-9.2a4.69 4.69 0 0 1-4.7-4.7v-1.4a4.69 4.69 0 0 1 4.7-4.7h9.2a4.69 4.69 0 0 1 4.7 4.7v1.4a4.83 4.83 0 0 1-4.7 4.7zm24.8 0h-9.2a4.69 4.69 0 0 1-4.7-4.7v-1.4a4.69 4.69 0 0 1 4.7-4.7h9.2a4.69 4.69 0 0 1 4.7 4.7v1.4a4.69 4.69 0 0 1-4.7 4.7zm24.8 0h-9.2a4.69 4.69 0 0 1-4.7-4.7v-1.4a4.69 4.69 0 0 1 4.7-4.7h9.2a4.69 4.69 0 0 1 4.7 4.7v1.4a4.69 4.69 0 0 1-4.7 4.7zm24.9 0h-9.2a4.69 4.69 0 0 1-4.7-4.7v-1.4a4.69 4.69 0 0 1 4.7-4.7h9.2a4.69 4.69 0 0 1 4.7 4.7v1.4a4.83 4.83 0 0 1-4.7 4.7zM104.1 130.7h-9.2a4.69 4.69 0 0 1-4.7-4.7v-1.4a4.69 4.69 0 0 1 4.7-4.7h9.2a4.69 4.69 0 0 1 4.7 4.7v1.4a4.69 4.69 0 0 1-4.7 4.7zm24.9 0h-9.2a4.69 4.69 0 0 1-4.7-4.7v-1.4a4.69 4.69 0 0 1 4.7-4.7h9.2a4.69 4.69 0 0 1 4.7 4.7v1.4a4.83 4.83 0 0 1-4.7 4.7zm24.8 0h-9.2a4.69 4.69 0 0 1-4.7-4.7v-1.4a4.69 4.69 0 0 1 4.7-4.7h9.2a4.69 4.69 0 0 1 4.7 4.7v1.4a4.69 4.69 0 0 1-4.7 4.7zm24.8 0h-9.2a4.69 4.69 0 0 1-4.7-4.7v-1.4a4.69 4.69 0 0 1 4.7-4.7h9.2a4.69 4.69 0 0 1 4.7 4.7v1.4a4.69 4.69 0 0 1-4.7 4.7zm24.9 0h-9.2a4.69 4.69 0 0 1-4.7-4.7v-1.4a4.69 4.69 0 0 1 4.7-4.7h9.2a4.69 4.69 0 0 1 4.7 4.7v1.4a4.83 4.83 0 0 1-4.7 4.7zm24.8 0h-9.2a4.69 4.69 0 0 1-4.7-4.7v-1.4a4.69 4.69 0 0 1 4.7-4.7h9.2a4.69 4.69 0 0 1 4.7 4.7v1.4a4.69 4.69 0 0 1-4.7 4.7zm24.8 0h-9.2a4.69 4.69 0 0 1-4.7-4.7v-1.4a4.69 4.69 0 0 1 4.7-4.7h9.2a4.69 4.69 0 0 1 4.7 4.7v1.4a4.69 4.69 0 0 1-4.7 4.7zm24.9 0h-9.2a4.69 4.69 0 0 1-4.7-4.7v-1.4a4.69 4.69 0 0 1 4.7-4.7h9.2a4.69 4.69 0 0 1 4.7 4.7v1.4a4.83 4.83 0 0 1-4.7 4.7zm24.8 0h-9.2a4.69 4.69 0 0 1-4.7-4.7v-1.4a4.69 4.69 0 0 1 4.7-4.7h9.2a4.69 4.69 0 0 1 4.7 4.7v1.4a4.69 4.69 0 0 1-4.7 4.7zm24.8 0h-9.2a4.69 4.69 0 0 1-4.7-4.7v-1.4a4.69 4.69 0 0 1 4.7-4.7h9.2a4.69 4.69 0 0 1 4.7 4.7v1.4a4.69 4.69 0 0 1-4.7 4.7zm24.9 0h-9.2a4.69 4.69 0 0 1-4.7-4.7v-1.4a4.69 4.69 0 0 1 4.7-4.7h9.2a4.69 4.69 0 0 1 4.7 4.7v1.4a4.83 4.83 0 0 1-4.7 4.7zM104.1 147.7h-9.2a4.69 4.69 0 0 1-4.7-4.7v-1.4a4.69 4.69 0 0 1 4.7-4.7h9.2a4.69 4.69 0 0 1 4.7 4.7v1.4a4.69 4.69 0 0 1-4.7 4.7zm24.9 0h-9.2a4.69 4.69 0 0 1-4.7-4.7v-1.4a4.69 4.69 0 0 1 4.7-4.7h9.2a4.69 4.69 0 0 1 4.7 4.7v1.4a4.83 4.83 0 0 1-4.7 4.7zm24.8 0h-9.2a4.69 4.69 0 0 1-4.7-4.7v-1.4a4.69 4.69 0 0 1 4.7-4.7h9.2a4.69 4.69 0 0 1 4.7 4.7v1.4a4.69 4.69 0 0 1-4.7 4.7zm24.8 0h-9.2a4.69 4.69 0 0 1-4.7-4.7v-1.4a4.69 4.69 0 0 1 4.7-4.7h9.2a4.69 4.69 0 0 1 4.7 4.7v1.4a4.69 4.69 0 0 1-4.7 4.7zm24.9 0h-9.2a4.69 4.69 0 0 1-4.7-4.7v-1.4a4.69 4.69 0 0 1 4.7-4.7h9.2a4.69 4.69 0 0 1 4.7 4.7v1.4a4.83 4.83 0 0 1-4.7 4.7zm24.8 0h-9.2a4.69 4.69 0 0 1-4.7-4.7v-1.4a4.69 4.69 0 0 1 4.7-4.7h9.2a4.69 4.69 0 0 1 4.7 4.7v1.4a4.69 4.69 0 0 1-4.7 4.7zm24.8 0h-9.2a4.69 4.69 0 0 1-4.7-4.7v-1.4a4.69 4.69 0 0 1 4.7-4.7h9.2a4.69 4.69 0 0 1 4.7 4.7v1.4a4.69 4.69 0 0 1-4.7 4.7zm24.9 0h-9.2a4.69 4.69 0 0 1-4.7-4.7v-1.4a4.69 4.69 0 0 1 4.7-4.7h9.2a4.69 4.69 0 0 1 4.7 4.7v1.4a4.83 4.83 0 0 1-4.7 4.7zm24.8 0h-9.2a4.69 4.69 0 0 1-4.7-4.7v-1.4a4.69 4.69 0 0 1 4.7-4.7h9.2a4.69 4.69 0 0 1 4.7 4.7v1.4a4.69 4.69 0 0 1-4.7 4.7zm24.8 0h-9.2a4.69 4.69 0 0 1-4.7-4.7v-1.4a4.69 4.69 0 0 1 4.7-4.7h9.2a4.69 4.69 0 0 1 4.7 4.7v1.4a4.69 4.69 0 0 1-4.7 4.7zm24.9 0h-9.2a4.69 4.69 0 0 1-4.7-4.7v-1.4a4.69 4.69 0 0 1 4.7-4.7h9.2a4.69 4.69 0 0 1 4.7 4.7v1.4a4.83 4.83 0 0 1-4.7 4.7zM104.1 164.7h-9.2a4.69 4.69 0 0 1-4.7-4.7v-1.4a4.69 4.69 0 0 1 4.7-4.7h9.2a4.69 4.69 0 0 1 4.7 4.7v1.4a4.69 4.69 0 0 1-4.7 4.7zm24.9 0h-9.2a4.69 4.69 0 0 1-4.7-4.7v-1.4a4.69 4.69 0 0 1 4.7-4.7h9.2a4.69 4.69 0 0 1 4.7 4.7v1.4a4.83 4.83 0 0 1-4.7 4.7zm24.8 0h-9.2a4.69 4.69 0 0 1-4.7-4.7v-1.4a4.69 4.69 0 0 1 4.7-4.7h9.2a4.69 4.69 0 0 1 4.7 4.7v1.4a4.69 4.69 0 0 1-4.7 4.7zm24.8 0h-9.2a4.69 4.69 0 0 1-4.7-4.7v-1.4a4.69 4.69 0 0 1 4.7-4.7h9.2a4.69 4.69 0 0 1 4.7 4.7v1.4a4.69 4.69 0 0 1-4.7 4.7zm24.9 0h-9.2a4.69 4.69 0 0 1-4.7-4.7v-1.4a4.69 4.69 0 0 1 4.7-4.7h9.2a4.69 4.69 0 0 1 4.7 4.7v1.4a4.83 4.83 0 0 1-4.7 4.7zm24.8 0h-9.2a4.69 4.69 0 0 1-4.7-4.7v-1.4a4.69 4.69 0 0 1 4.7-4.7h9.2a4.69 4.69 0 0 1 4.7 4.7v1.4a4.69 4.69 0 0 1-4.7 4.7zm24.8 0h-9.2a4.69 4.69 0 0 1-4.7-4.7v-1.4a4.69 4.69 0 0 1 4.7-4.7h9.2a4.69 4.69 0 0 1 4.7 4.7v1.4a4.69 4.69 0 0 1-4.7 4.7zm24.9 0h-9.2a4.69 4.69 0 0 1-4.7-4.7v-1.4a4.69 4.69 0 0 1 4.7-4.7h9.2a4.69 4.69 0 0 1 4.7 4.7v1.4a4.83 4.83 0 0 1-4.7 4.7zm24.8 0h-9.2a4.69 4.69 0 0 1-4.7-4.7v-1.4a4.69 4.69 0 0 1 4.7-4.7h9.2a4.69 4.69 0 0 1 4.7 4.7v1.4a4.69 4.69 0 0 1-4.7 4.7zm24.8 0h-9.2a4.69 4.69 0 0 1-4.7-4.7v-1.4a4.69 4.69 0 0 1 4.7-4.7h9.2a4.69 4.69 0 0 1 4.7 4.7v1.4a4.69 4.69 0 0 1-4.7 4.7zm24.9 0h-9.2a4.69 4.69 0 0 1-4.7-4.7v-1.4a4.69 4.69 0 0 1 4.7-4.7h9.2a4.69 4.69 0 0 1 4.7 4.7v1.4a4.83 4.83 0 0 1-4.7 4.7zM104.1 181.8h-9.2a4.69 4.69 0 0 1-4.7-4.7v-1.4a4.69 4.69 0 0 1 4.7-4.7h9.2a4.69 4.69 0 0 1 4.7 4.7v1.4a4.69 4.69 0 0 1-4.7 4.7zm24.9 0h-9.2a4.69 4.69 0 0 1-4.7-4.7v-1.4a4.69 4.69 0 0 1 4.7-4.7h9.2a4.69 4.69 0 0 1 4.7 4.7v1.4a4.83 4.83 0 0 1-4.7 4.7zm24.8 0h-9.2a4.69 4.69 0 0 1-4.7-4.7v-1.4a4.69 4.69 0 0 1 4.7-4.7h9.2a4.69 4.69 0 0 1 4.7 4.7v1.4a4.69 4.69 0 0 1-4.7 4.7zm24.8 0h-9.2a4.69 4.69 0 0 1-4.7-4.7v-1.4a4.69 4.69 0 0 1 4.7-4.7h9.2a4.69 4.69 0 0 1 4.7 4.7v1.4a4.69 4.69 0 0 1-4.7 4.7zm24.9 0h-9.2a4.69 4.69 0 0 1-4.7-4.7v-1.4a4.69 4.69 0 0 1 4.7-4.7h9.2a4.69 4.69 0 0 1 4.7 4.7v1.4a4.83 4.83 0 0 1-4.7 4.7zm24.8 0h-9.2a4.69 4.69 0 0 1-4.7-4.7v-1.4a4.69 4.69 0 0 1 4.7-4.7h9.2a4.69 4.69 0 0 1 4.7 4.7v1.4a4.69 4.69 0 0 1-4.7 4.7zm24.8 0h-9.2a4.69 4.69 0 0 1-4.7-4.7v-1.4a4.69 4.69 0 0 1 4.7-4.7h9.2a4.69 4.69 0 0 1 4.7 4.7v1.4a4.69 4.69 0 0 1-4.7 4.7zm24.9 0h-9.2a4.69 4.69 0 0 1-4.7-4.7v-1.4a4.69 4.69 0 0 1 4.7-4.7h9.2a4.69 4.69 0 0 1 4.7 4.7v1.4a4.83 4.83 0 0 1-4.7 4.7zm24.8 0h-9.2a4.69 4.69 0 0 1-4.7-4.7v-1.4a4.69 4.69 0 0 1 4.7-4.7h9.2a4.69 4.69 0 0 1 4.7 4.7v1.4a4.69 4.69 0 0 1-4.7 4.7zm24.8 0h-9.2a4.69 4.69 0 0 1-4.7-4.7v-1.4a4.69 4.69 0 0 1 4.7-4.7h9.2a4.69 4.69 0 0 1 4.7 4.7v1.4a4.69 4.69 0 0 1-4.7 4.7zm24.9 0h-9.2a4.69 4.69 0 0 1-4.7-4.7v-1.4a4.69 4.69 0 0 1 4.7-4.7h9.2a4.69 4.69 0 0 1 4.7 4.7v1.4a4.83 4.83 0 0 1-4.7 4.7zM104.1 198.8h-9.2a4.69 4.69 0 0 1-4.7-4.7v-1.4a4.69 4.69 0 0 1 4.7-4.7h9.2a4.69 4.69 0 0 1 4.7 4.7v1.4a4.69 4.69 0 0 1-4.7 4.7zm24.9 0h-9.2a4.69 4.69 0 0 1-4.7-4.7v-1.4a4.69 4.69 0 0 1 4.7-4.7h9.2a4.69 4.69 0 0 1 4.7 4.7v1.4a4.83 4.83 0 0 1-4.7 4.7zm24.8 0h-9.2a4.69 4.69 0 0 1-4.7-4.7v-1.4a4.69 4.69 0 0 1 4.7-4.7h9.2a4.69 4.69 0 0 1 4.7 4.7v1.4a4.69 4.69 0 0 1-4.7 4.7zm24.8 0h-9.2a4.69 4.69 0 0 1-4.7-4.7v-1.4a4.69 4.69 0 0 1 4.7-4.7h9.2a4.69 4.69 0 0 1 4.7 4.7v1.4a4.69 4.69 0 0 1-4.7 4.7zm24.9 0h-9.2a4.69 4.69 0 0 1-4.7-4.7v-1.4a4.69 4.69 0 0 1 4.7-4.7h9.2a4.69 4.69 0 0 1 4.7 4.7v1.4a4.83 4.83 0 0 1-4.7 4.7zm24.8 0h-9.2a4.69 4.69 0 0 1-4.7-4.7v-1.4a4.69 4.69 0 0 1 4.7-4.7h9.2a4.69 4.69 0 0 1 4.7 4.7v1.4a4.69 4.69 0 0 1-4.7 4.7zm24.8 0h-9.2a4.69 4.69 0 0 1-4.7-4.7v-1.4a4.69 4.69 0 0 1 4.7-4.7h9.2a4.69 4.69 0 0 1 4.7 4.7v1.4a4.69 4.69 0 0 1-4.7 4.7zm24.9 0h-9.2a4.69 4.69 0 0 1-4.7-4.7v-1.4a4.69 4.69 0 0 1 4.7-4.7h9.2a4.69 4.69 0 0 1 4.7 4.7v1.4a4.83 4.83 0 0 1-4.7 4.7zm24.8 0h-9.2a4.69 4.69 0 0 1-4.7-4.7v-1.4a4.69 4.69 0 0 1 4.7-4.7h9.2a4.69 4.69 0 0 1 4.7 4.7v1.4a4.69 4.69 0 0 1-4.7 4.7zm24.8 0h-9.2a4.69 4.69 0 0 1-4.7-4.7v-1.4a4.69 4.69 0 0 1 4.7-4.7h9.2a4.69 4.69 0 0 1 4.7 4.7v1.4a4.69 4.69 0 0 1-4.7 4.7zm24.9 0h-9.2a4.69 4.69 0 0 1-4.7-4.7v-1.4a4.69 4.69 0 0 1 4.7-4.7h9.2a4.69 4.69 0 0 1 4.7 4.7v1.4a4.83 4.83 0 0 1-4.7 4.7zM104.1 215.8h-9.2a4.69 4.69 0 0 1-4.7-4.7v-1.4a4.69 4.69 0 0 1 4.7-4.7h9.2a4.69 4.69 0 0 1 4.7 4.7v1.4a4.69 4.69 0 0 1-4.7 4.7zm24.9 0h-9.2a4.69 4.69 0 0 1-4.7-4.7v-1.4a4.69 4.69 0 0 1 4.7-4.7h9.2a4.69 4.69 0 0 1 4.7 4.7v1.4a4.83 4.83 0 0 1-4.7 4.7zm24.8 0h-9.2a4.69 4.69 0 0 1-4.7-4.7v-1.4a4.69 4.69 0 0 1 4.7-4.7h9.2a4.69 4.69 0 0 1 4.7 4.7v1.4a4.69 4.69 0 0 1-4.7 4.7zm24.8 0h-9.2a4.69 4.69 0 0 1-4.7-4.7v-1.4a4.69 4.69 0 0 1 4.7-4.7h9.2a4.69 4.69 0 0 1 4.7 4.7v1.4a4.69 4.69 0 0 1-4.7 4.7zm24.9 0h-9.2a4.69 4.69 0 0 1-4.7-4.7v-1.4a4.69 4.69 0 0 1 4.7-4.7h9.2a4.69 4.69 0 0 1 4.7 4.7v1.4a4.83 4.83 0 0 1-4.7 4.7zm24.8 0h-9.2a4.69 4.69 0 0 1-4.7-4.7v-1.4a4.69 4.69 0 0 1 4.7-4.7h9.2a4.69 4.69 0 0 1 4.7 4.7v1.4a4.69 4.69 0 0 1-4.7 4.7zm24.8 0h-9.2a4.69 4.69 0 0 1-4.7-4.7v-1.4a4.69 4.69 0 0 1 4.7-4.7h9.2a4.69 4.69 0 0 1 4.7 4.7v1.4a4.69 4.69 0 0 1-4.7 4.7zm24.9 0h-9.2a4.69 4.69 0 0 1-4.7-4.7v-1.4a4.69 4.69 0 0 1 4.7-4.7h9.2a4.69 4.69 0 0 1 4.7 4.7v1.4a4.83 4.83 0 0 1-4.7 4.7zm24.8 0h-9.2a4.69 4.69 0 0 1-4.7-4.7v-1.4a4.69 4.69 0 0 1 4.7-4.7h9.2a4.69 4.69 0 0 1 4.7 4.7v1.4a4.69 4.69 0 0 1-4.7 4.7zm24.8 0h-9.2a4.69 4.69 0 0 1-4.7-4.7v-1.4a4.69 4.69 0 0 1 4.7-4.7h9.2a4.69 4.69 0 0 1 4.7 4.7v1.4a4.69 4.69 0 0 1-4.7 4.7zm24.9 0h-9.2a4.69 4.69 0 0 1-4.7-4.7v-1.4a4.69 4.69 0 0 1 4.7-4.7h9.2a4.69 4.69 0 0 1 4.7 4.7v1.4a4.83 4.83 0 0 1-4.7 4.7z" style="isolation:isolate" fill="#dedddd" opacity=".2"/><path d="M268.9 186.1h-89.8a44 44 0 0 1-43.9-43.9v-11a44 44 0 0 1 43.9-43.9h89.8a44 44 0 0 1 43.9 43.9v11a43.89 43.89 0 0 1-43.9 43.9z" fill="#e2aed0"/><path d="M265.4 176.9H182a37.47 37.47 0 0 1-37.4-37.4v-5.6A37.47 37.47 0 0 1 182 96.5h83.4a37.47 37.47 0 0 1 37.4 37.4v5.6a37.47 37.47 0 0 1-37.4 37.4z" fill="#e09ac4"/><circle cx="223.7" cy="136.7" r="32.8" fill="#f9db5d"/><path d="M241.6 141.8c0 .4.1.8.1 1.2a17.8 17.8 0 1 1-35.6 0 4.87 4.87 0 0 1 .1-1.2z" fill="#3c4443" stroke="#5a6766" stroke-miterlimit="10"/><path d="M201.9 141.8h39.7" fill="#fff" stroke="#5a6766" stroke-miterlimit="10"/><path d="M223.8 160.7a17.46 17.46 0 0 0 12.4-5.1 16.36 16.36 0 0 0-26.4-1.7 17.93 17.93 0 0 0 14 6.8z" fill="#e09ac4"/><path d="M241.6 141.8c0 .4.1.8.1 1.2a17.8 17.8 0 1 1-35.6 0 4.87 4.87 0 0 1 .1-1.2zm-38.3 0h38.3" fill="none" stroke="#5a6766" stroke-miterlimit="10"/><path d="M219.8 133.1v-.7c0-5.8-4.1-10.5-9.1-10.5s-9.1 4.7-9.1 10.5v.7z" fill="#fff" stroke="#5a6766" stroke-miterlimit="10"/><path d="M215.1 127a2.16 2.16 0 0 0 2.1-2 10.19 10.19 0 0 0-3-2.1 2.24 2.24 0 0 0-1.3 2 2.2 2.2 0 0 0 2.2 2.1z" fill="#5a6766"/><path d="M198.4 133.1h21.4" fill="none" stroke="#5a6766" stroke-miterlimit="10"/><path d="M247.9 133.1v-.7c0-5.8-4.1-10.5-9.1-10.5s-9.1 4.7-9.1 10.5v.7z" fill="#fff" stroke="#5a6766" stroke-miterlimit="10"/><path d="M243.2 127a2.16 2.16 0 0 0 2.1-2 10.19 10.19 0 0 0-3-2.1 2.24 2.24 0 0 0-1.3 2 2.27 2.27 0 0 0 2.2 2.1z" fill="#5a6766"/><path d="M226.6 133.1H248" fill="none" stroke="#5a6766" stroke-miterlimit="10"/><path d="M159.3 111.8a27 27 0 0 0-8.1 16.4" fill="none" stroke="#e2aed0" stroke-miterlimit="10" stroke-width="2"/></svg>