<svg data-name="Capa 1" xmlns="http://www.w3.org/2000/svg" viewBox="0 0 361 305"><path d="M258.86 217.58c-3.72 3.73-14.52 3.91-19.22 3.81-6.55-.14-18-2.43-19.31-10.18-1.71-9.91 12.49-17.52 20.56-18.51 0 0-15.2-10.71.69-6.57l9.68 2.08M98.18 217.58c3.72 3.73 14.52 3.91 19.22 3.81 6.54-.14 18-2.43 19.31-10.18 1.71-9.91-12.49-17.52-20.57-18.51 0 0 15.21-10.71-.69-6.57l-9.67 2.08" fill="#fcc184"/><path d="M239.63 91.39c.06 0 .1-.12.16-.17a3.49 3.49 0 0 0 1.52-1.22 69.76 69.76 0 0 1 7.12 3.47c13.16 8 27.28 13.91 38.9 24.3 14.17 12.66 21.46 30.3 25.16 48.59 2.18 10.8 1.49 23.13-5.87 31.85-11.55 13.71-31.42 12.7-45.95 21.33-.43.25-6.47 3.43-6.37 3.75 0 0-8.64-28.52-10.37-41.3 0 0 34.59-9.12 33.48-16.61 0 0 3.17-45.46-37.78-73.99zM117.51 91.39l-.15-.17a3.38 3.38 0 0 1-1.52-1.22 69 69 0 0 0-7.13 3.47c-13.16 8-27.28 13.91-38.9 24.3-14.17 12.66-21.46 30.3-25.16 48.59-2.18 10.8-1.48 23.13 5.87 31.85 11.56 13.71 31.42 12.7 45.95 21.33.43.25 6.47 3.43 6.37 3.75 0 0 8.64-28.52 10.37-41.3 0 0-34.59-9.12-33.48-16.61 0 0-3.17-45.46 37.78-73.99z" fill="#ae5226"/><path fill="#4c4c4d" d="M192.79 292.37H181.3l1.48-43.99h19.37l-9.36 43.99z"/><path d="M188.79 248.38h-6l-1.48 44h1.36c2.1-14.66 4.33-29.3 6.12-44z" fill="#3d3d3d"/><path fill="#4c4c4d" d="M176.84 292.37h-11.49l-9.36-43.99h19.37l1.48 43.99z"/><path d="M172.92 280.15c.36 4.06.68 8.14 1.07 12.22h2.89l-1.48-44h-5.31c.91 10.63 1.91 21.2 2.83 31.78z" fill="#3d3d3d"/><path d="M179 286.57c0-3-.87-5.35-1.95-5.35h-13.43c-1.08 0-2 2.39-2 5.35v11c0 2.95.87 5.35 2 5.35H179z" fill="#6e3318"/><path d="M177.05 281.22h-4.85v21.68h6.8v-16.33c0-2.96-.87-5.35-1.95-5.35z" fill="#562915"/><path d="M168 297.34c-5.66 0-10.25 2.35-10.25 5.25h20.45c0-2.9-4.58-5.25-10.2-5.25z" fill="#6e3318" stroke="#471c10" stroke-miterlimit="10" stroke-width=".62"/><path d="M179.63 286.57c0-3 .88-5.35 2-5.35H195c1.08 0 2 2.39 2 5.35v11c0 2.95-.88 5.35-2 5.35h-15.37z" fill="#6e3318"/><path d="M181.59 281.22h4.86v21.68h-6.82v-16.33c0-2.96.88-5.35 1.96-5.35z" fill="#562915"/><path d="M190.46 297.34c5.66 0 10.25 2.35 10.25 5.25h-20.5c0-2.9 4.59-5.25 10.25-5.25z" fill="#6e3318" stroke="#471c10" stroke-miterlimit="10" stroke-width=".62"/><ellipse cx="178.52" cy="175.62" rx="99.52" ry="97.73" fill="#4c4c4d"/><path d="M284.51 231.17l-5.4-43.5h-2.34a240 240 0 0 0 1.23-27.91c0-50.32-44.56-91.11-99.52-91.11S79 109.44 79 159.76a258.76 258.76 0 0 0 1.15 27.91l-5.4 43.5 70.8 37.17s29.91-110.36 33-110.4c3.29 0 30.78 110.4 30.78 110.4z" fill="#db6627"/><path d="M203.87 90.05c17 23.83 28 52.62 34.8 80.92 6.11 25.46 8.85 51.49 10.64 77.6l35.2-17.4-5.4-43.5h-2.34a240 240 0 0 0 1.23-27.91c0-48.41-41.25-88-93.33-90.93a114 114 0 0 1 19.2 21.22z" fill="#c55c28"/><ellipse cx="178.52" cy="80.88" rx="50.96" ry="32.61" fill="#fcc184"/><path d="M178.52 48.26c-19.89 0-37.11 7.3-45.5 17.93 1.59.09 3.18.14 4.79.15A122.1 122.1 0 0 1 169 61.16c10.12-.4 20.55.71 29.13 6.63 6.46 4.45 13.63 11.48 14 19.87s-3.29 15.12-8.05 21.42c15.17-5.65 25.38-16.16 25.38-28.2.02-18.02-22.8-32.62-50.94-32.62z" fill="#d19659"/><ellipse cx="233.78" cy="81.69" rx="10.67" ry="11.71" fill="#fcc184"/><ellipse cx="208.9" cy="78.26" rx="3.93" ry="9.22"/><circle cx="232.04" cy="83.88" r="6.83" fill="#d19659"/><ellipse cx="148.77" cy="78.26" rx="3.93" ry="9.22"/><path d="M226.57 70c.34.51 2.39 15.59 1.88 30.62l-10.19-9.33S224 73.59 223.39 68s3.18 2 3.18 2zM129.62 67.27c-.34.51-2.58 18.31-2.06 33.34l10.18-9.33S132 73.59 132.61 68s-2.99-.73-2.99-.73z" fill="#7b6b68"/><ellipse cx="210.2" cy="74.8" rx="1.18" ry="2.77" fill="#fff"/><ellipse cx="150.1" cy="74.8" rx="1.18" ry="2.77" fill="#fff"/><path d="M129.39 72.17s49-25.85 98.18 0c0 0-15.37-37.27-49.09-40.73 0 0-26.11-1.73-64.35 36.57 0 0-11.29-3.62-16.12-9.61 0 0 8 30.43 20.77 29.53" fill="#db4c28"/><path d="M202.08 60.2c-6.24-5.59-13.32-11.68-21.91-13s-17 1.76-24.82 5.27a94.12 94.12 0 0 0-21.7 13.41c-4.81 3.94-10.29 9.83-16.51 11.46-4.3 1.13-8.45.2-12.38-1.57 3.52 6.65 8.29 12.57 14 12.16l10.61-15.76s35.74-18.85 76.82-8.24z" fill="#b84126"/><path d="M256.72 196.92l2.28 16.81a18.1 18.1 0 0 1-15.49 20.38l-6.28.85a18.09 18.09 0 0 1-20.37-15.49l-2.29-16.81z" fill="#db6627" stroke="#a73c23" stroke-miterlimit="10" stroke-width="2.478"/><path fill="none" stroke="#a73c23" stroke-miterlimit="10" stroke-width="2.478" d="M257.9 205.57l-42.17 6.15"/><path d="M219.28 73.06s-11-10.13-20.18-2.72l2.09-14.07s13.22.33 18.09 8.39zM138.74 73.06s11-10.13 20.19-2.72l-2.09-14.07s-13.22.33-18.1 8.39v8.4z" fill="#998582"/><path fill="none" stroke="#a73c23" stroke-miterlimit="10" stroke-width="2.478" d="M143.03 257.28l27.08-93.95M186.42 164.57l23.78 89.15"/><path fill="#db6627" stroke="#a73c23" stroke-miterlimit="10" stroke-width="2.478" d="M170.11 144.62l6.79-33.72 6.12 33.72"/><path d="M79.07 188.68s110.16-45.15 199 0c0 0 3.22-14.18 0-24.78 0 0-84.56-52.89-198.31 1.48a86.85 86.85 0 0 0-.69 23.3z" fill="#843c1c"/><path d="M238.9 174.4s14.4 18.34 15.74 30 0 1.39 0 1.39 3.38 7.17 17 4.2c0 0 10.3-4.16 6.19-12.24 0 0-4.58-17.21-18-28.95" fill="#843c1c"/><path d="M277.8 163.9s-16.8-10.51-45.51-17.34V173a179.47 179.47 0 0 1 45.51 15.66s3.2-14.16 0-24.76z" fill="#6e3318"/><path d="M128.93 71.83a10 10 0 0 0-5.74-1.83c-5.89 0-10.67 5.24-10.67 11.7s4.78 11.7 10.67 11.7a10 10 0 0 0 4.33-1c.17-8.04.86-15.84 1.41-20.57z" fill="#fcc184"/><path d="M256.09 176.9c-.28 3.7-2.66 6.54-5.31 6.34l-20.65-.54c-2.78-.21-4.8-3.54-4.51-7.44l2-26.56c.29-3.89 2.79-6.88 5.58-6.67l20.49 2.59c2.65.2 4.57 3.36 4.29 7.06z" fill="#66615c"/><path d="M252.77 173.55c-.22 2.79-2 4.93-4 4.78l-15.77-.42c-2.11-.16-3.63-2.67-3.41-5.61l1.52-20.06c.22-2.94 2.11-5.2 4.22-5l15.63 2c2 .15 3.44 2.54 3.23 5.33z" fill="#843c1c"/><path d="M128.31 78a6.82 6.82 0 0 0-10.22 5.91 6.82 6.82 0 0 0 6.82 6.83 7 7 0 0 0 2.67-.54c.14-4.4.42-8.62.73-12.2z" fill="#d19659"/><path d="M187.57 87.72c8.68-6.73 20.21-12.94 32-11.67 12.5 1.34 21.24 9.88 25 19.61 2.15 5.56 4.06 12.92 3.56 18.93-.84 10.09-7.22 18-13.73 26.34-2.95 3.76-6.69 8-8.61 12.16 0 0-.12 7.63 7 5.47-12 3.65-14.54-4.73-13.42-13 1.14-8.45 1.07-14.69-10.81-15-9-.27-27.85 1-30-9.23" fill="#998582"/><path d="M202.13 99.13c6.11.3 12.38.79 17.78 3.21 9.91 4.43 16.05 14.35 14.7 24.26-.87 6.35-5.16 11.12-7.56 17a9.31 9.31 0 0 0-.22 7.46 21.63 21.63 0 0 0-1.06 2s-.12 7.63 7 5.47c-12 3.65-14.54-4.73-13.42-13 1.14-8.45 1.07-14.69-10.81-15-9-.27-27.85 1-30-9.23L184 101c5.79-1.91 12-2.17 18.13-1.87z" fill="#8a7875"/><path d="M169.47 87.72c-8.68-6.73-20.21-12.94-32-11.67-12.5 1.34-21.23 9.88-25 19.61-2.15 5.56-4.07 12.92-3.56 18.93.84 10.09 7.21 18 13.73 26.34 3 3.76 6.69 8 8.61 12.16 0 0 .12 7.63-7 5.47 12 3.65 14.53-4.73 13.41-13-1.14-8.45-1.06-14.69 10.81-15 9-.27 27.85 1 30-9.23" fill="#998582"/><path d="M154.9 99.13c-6.1.3-12.37.79-17.77 3.21-9.91 4.43-16 14.35-14.7 24.26.87 6.35 5.16 11.12 7.56 17a9.35 9.35 0 0 1 .22 7.46 21.63 21.63 0 0 1 1.06 2s.12 7.63-7 5.47c12 3.65 14.53-4.73 13.42-13-1.15-8.45-1.07-14.69 10.8-15 9-.27 27.85 1 30-9.23l-5.44-20.3c-5.8-1.91-12-2.17-18.15-1.87z" fill="#8a7875"/><circle cx="198.4" cy="154.81" r="3.23" fill="#542815"/><circle cx="175.91" cy="152.68" r="3.23" fill="#542815"/><path d="M100.88 196.92l-2.29 16.81a18.1 18.1 0 0 0 15.49 20.38l6.28.85a18.09 18.09 0 0 0 20.37-15.49l2.3-16.81z" fill="#db6627" stroke="#a73c23" stroke-miterlimit="10" stroke-width="2.478"/><path fill="none" stroke="#a73c23" stroke-miterlimit="10" stroke-width="2.478" d="M99.7 205.57l42.17 6.15M131.74 260.85l16.91-7.13"/><path d="M224.71 70.29l.25 1.12s-.1-.51-.25-1.12z"/><path d="M224.16 67.92s-23.53-3.21-33.52-2a20.41 20.41 0 0 0-25.37 0c-10-1.17-33.53 2-33.53 2l-.54 2.37c.45-1.81 1.34-4.53 1.41 1.74.09 8.42 2 18.83 20.09 15.92 17-2.73 13.68-15.43 13.2-17a20.35 20.35 0 0 1 2.07-1 27.29 27.29 0 0 1 20 0 20.35 20.35 0 0 1 2.07 1c-.48 1.58-3.77 14.28 13.2 17 18.12 2.92 20-7.5 20.09-15.92.07-6.27 1-3.55 1.42-1.74zM131.2 70.29c-.16.61-.26 1.12-.26 1.12z"/><path d="M200.73 84.57c1.39-.73 6.9-15.53 6.9-15.53l9.6-1.62-9.6 20zM141.87 84.57c1.39-.73 6.9-15.53 6.9-15.53l9.6-1.62-9.6 20z" fill="#c9c3c3"/><path fill="none" stroke="#a73c23" stroke-miterlimit="10" stroke-width="2.478" d="M204.98 251.11l20.24 10.34M75.4 225.74l63.22 33.28M218.26 257.28l65.58-31.54"/><path d="M198.84 131.91h-40.27a3.09 3.09 0 0 1-3.1-3.09v-13.63a3.1 3.1 0 0 1 3.1-3.1h40.27a3.1 3.1 0 0 1 3.1 3.1v13.63a3.09 3.09 0 0 1-3.1 3.09z" fill="#8a7875"/><path d="M198.84 128.2h-40.27a3.1 3.1 0 0 1-3.1-3.1v-13.63a3.1 3.1 0 0 1 3.1-3.1h40.27a3.1 3.1 0 0 1 3.1 3.1v13.63a3.1 3.1 0 0 1-3.1 3.1z" fill="#fff"/><path fill="none" stroke="#000" stroke-miterlimit="10" stroke-width=".62" d="M156.71 121.07h45.23"/><ellipse cx="178.52" cy="96.6" rx="35.48" ry="25.19" fill="#d85b4a"/><path d="M187.17 72.17c9.85 4.48 16.4 12.31 16.4 21.23 0 13.91-15.89 25.19-35.48 25.19a49.62 49.62 0 0 1-8.65-.76 46.37 46.37 0 0 0 19.08 4c19.59 0 35.48-11.28 35.48-25.19 0-11.83-11.42-21.73-26.83-24.47z" fill="#a9473a"/><ellipse cx="165.85" cy="85.27" rx="11.63" ry="7.01" fill="#f58677"/><path d="M60.06 158.89a4.07 4.07 0 0 1-1.88 5.45L53 166.77a4.07 4.07 0 0 1-5.39-2.06L39 144.49c1 2.36-1-4.1 1.55-5.36l4.6-2.26c1.77-.87 4.38 1.93 5.3 4z" fill="#f4b069"/><path d="M80.3 186.33a3.1 3.1 0 0 1-2.21 3.78l-23.18 6.07c-1.65.44-4.73-15.62-5.16-17.28l-7.86-12.77c-.44-1.65 1.06-8.87 2.72-9.3l23.17-6.07a3.1 3.1 0 0 1 3.78 2.24z" fill="#fcc184"/><path d="M56.08 157.42c-.11 0 0 .54.28 1.42.16.44.32 1 .59 1.59s.59 1.27 1 2c.75 1.46 1.74 3.16 2.88 5l1.78 2.87c.59 1 1.23 2 1.83 3.08s1.19 2.11 1.63 3.17l.71 1.53c.19.47.36 1 .53 1.49.65 2 1.23 3.9 1.79 5.45a21 21 0 0 0 1.59 3.59 2.74 2.74 0 0 0 .74.86.47.47 0 0 0 .33.09c.08 0 .11-.05.11-.08s-.12-.08-.21-.26a5.26 5.26 0 0 1-.38-.89c-.29-.84-.63-2.1-1-3.67s-.86-3.44-1.44-5.54c-.16-.52-.31-1.06-.53-1.64l-.7-1.62a36.39 36.39 0 0 0-1.66-3.3c-.62-1.11-1.28-2.14-1.9-3.14l-1.88-2.83c-1.2-1.78-2.27-3.38-3.15-4.74-.42-.69-.8-1.31-1.15-1.85s-.59-1-.83-1.42c-.54-.79-.86-1.2-.96-1.16z" fill="#d19659"/><path d="M61.44 166.9c.05.22.87.24 2.07-.14a28.77 28.77 0 0 0 4.31-2 29.87 29.87 0 0 1 4.07-1.89 10.88 10.88 0 0 1 1.26-.29c.31 0 .52-.1.56-.21s-.11-.26-.46-.44a3.53 3.53 0 0 0-1.57-.23 12.33 12.33 0 0 0-4.68 1.6c-1.65.87-3 1.76-4 2.37s-1.61 1-1.56 1.23zM67.5 177.8c.08.21.77.13 1.78-.28a14.33 14.33 0 0 0 3.46-2.3 34.77 34.77 0 0 0 2.89-2.8c.69-.75 1.09-1.28 1-1.48s-.78 0-1.71.55a23.51 23.51 0 0 0-3.28 2.51l-3 2.55c-.75.58-1.24 1.03-1.14 1.25zM70.56 189.49c.16.16.81-.24 1.67-1.08a25.2 25.2 0 0 0 2.86-3.59l2.51-3.68c.65-.92 1-1.54.89-1.73s-.84.16-1.77.93a19.2 19.2 0 0 0-3 3.53c-1 1.47-1.82 2.82-2.41 3.81s-.93 1.65-.75 1.81z" fill="#d19659"/><path d="M300.94 152.78a4.07 4.07 0 0 0 1.88 5.45l5.22 2.43a4.06 4.06 0 0 0 5.38-2.06l8.58-20.22c-1 2.36 1-4.1-1.55-5.36l-4.59-2.26c-1.78-.87-4.39 1.93-5.31 4z" fill="#f4b069"/><path d="M280.7 180.22a3.11 3.11 0 0 0 2.22 3.79l23.17 6.06c1.65.44 4.73-15.62 5.16-17.28l7.86-12.79c.44-1.65-1.06-8.87-2.72-9.3l-23.17-6.07a3.1 3.1 0 0 0-3.78 2.21z" fill="#fcc184"/><path d="M304.92 151.31c-.1 0-.42.37-.88 1.15-.24.39-.49.88-.83 1.43s-.73 1.16-1.15 1.84c-.88 1.36-1.95 3-3.15 4.75L297 163.3c-.62 1-1.28 2-1.89 3.14a34.23 34.23 0 0 0-1.67 3.31l-.7 1.62c-.22.58-.37 1.11-.52 1.64-.59 2.1-1 4-1.45 5.54s-.75 2.83-1 3.66a5.09 5.09 0 0 1-.38.9c-.09.17-.22.19-.21.25s0 .06.11.09a.47.47 0 0 0 .33-.09 2.86 2.86 0 0 0 .74-.86 20.82 20.82 0 0 0 1.59-3.6c.56-1.54 1.14-3.41 1.79-5.44.17-.5.34-1 .53-1.5l.71-1.53c.44-1.05 1.06-2.08 1.63-3.16s1.24-2.09 1.83-3.09l1.78-2.86c1.14-1.84 2.13-3.53 2.88-5q.56-1.11 1-2c.27-.6.43-1.14.59-1.58.24-.89.31-1.39.23-1.43z" fill="#d19659"/><path d="M299.56 160.79c.05-.23-.58-.6-1.57-1.23s-2.38-1.5-4-2.37a12.31 12.31 0 0 0-4.65-1.56 3.51 3.51 0 0 0-1.56.23c-.35.18-.5.33-.46.44s.25.18.56.21a9.42 9.42 0 0 1 1.26.3 28.47 28.47 0 0 1 4.07 1.88 28.77 28.77 0 0 0 4.31 2c1.17.31 1.99.31 2.04.1zM293.5 171.69c.1-.22-.39-.67-1.16-1.3l-3-2.55a23.51 23.51 0 0 0-3.24-2.46c-.93-.54-1.58-.74-1.71-.55s.27.73 1 1.48a34.77 34.77 0 0 0 2.89 2.8 14.33 14.33 0 0 0 3.46 2.3c.99.41 1.68.49 1.76.28zM290.44 183.38c.18-.17-.15-.83-.73-1.81s-1.4-2.34-2.41-3.81a19.2 19.2 0 0 0-3-3.53c-.93-.77-1.62-1.1-1.76-.93s.23.81.88 1.73l2.51 3.68a25.2 25.2 0 0 0 2.86 3.59c.84.84 1.49 1.24 1.65 1.08z" fill="#d19659"/></svg>