<svg data-name="Capa 1" xmlns="http://www.w3.org/2000/svg" viewBox="0 0 361 305"><path d="M260.84 217.65c-3.72 3.72-14.52 3.91-19.22 3.81-6.54-.14-18-2.43-19.31-10.18-1.71-9.91 12.49-17.52 20.57-18.51 0 0-15.21-10.71.69-6.57l9.67 2.08" fill="#fcc184"/><path d="M241.51 91.46l.15-.17a3.46 3.46 0 0 0 1.53-1.22 68.41 68.41 0 0 1 7.11 3.47c22.26 13.51 46.61 36.26 50.8 63.27 1.35 8.73 1.28 18.57-2.07 26.87S289 202 282 207.79c-7.78 6.41-16.78 11.21-25.83 15.57 0 0-8.64-28.52-10.37-41.3 0 0 34.58-9.12 33.48-16.61.01 0 3.18-45.45-37.77-73.99z" fill="#ae5226"/><path d="M100.16 217.65c3.72 3.72 14.53 3.91 19.22 3.81 6.55-.14 18-2.43 19.31-10.18 1.71-9.91-12.49-17.52-20.56-18.51 0 0 15.2-10.71-.69-6.57l-9.68 2.08" fill="#fcc184"/><path d="M119.5 91.46c-.06 0-.11-.12-.16-.17a3.38 3.38 0 0 1-1.52-1.22 67.72 67.72 0 0 0-7.12 3.47c-22.25 13.51-46.61 36.26-50.8 63.27-1.35 8.73-1.28 18.57 2.07 26.87S72 202 79 207.79c7.78 6.41 16.79 11.21 25.83 15.57 0 0 8.64-28.52 10.37-41.3 0 0-34.58-9.12-33.48-16.61-.01 0-3.18-45.45 37.78-73.99z" fill="#ae5226"/><path fill="#4c4c4d" d="M194.77 292.65h-11.49l1.48-43.98h19.38l-9.37 43.98z"/><path d="M190.77 248.67h-6.05l-1.48 44h1.36c2.16-14.67 4.34-29.31 6.17-44z" fill="#3d3d3d"/><path fill="#4c4c4d" d="M178.83 292.65h-11.5l-9.36-43.98h19.37l1.49 43.98z"/><path d="M174.9 280.43c.37 4.06.69 8.15 1.07 12.22h2.89l-1.48-44h-5.3c.92 10.61 1.86 21.2 2.82 31.78z" fill="#3d3d3d"/><path d="M180.64 286.24c0-3-.87-5.36-1.95-5.36h-13.44c-1.08 0-1.95 2.4-1.95 5.36v11c0 3 .87 5.36 1.95 5.36h15.39z" fill="#6e3318"/><path d="M178.68 280.88h-4.85v21.69h6.81v-16.33c0-2.96-.87-5.36-1.96-5.36z" fill="#562915"/><path d="M169.94 297.62c-5.66 0-10.25 2.35-10.25 5.25h20.5c0-2.87-4.59-5.25-10.25-5.25z" fill="#6e3318" stroke="#471c10" stroke-miterlimit="10" stroke-width=".62"/><path d="M181.88 286.24c0-3 .88-5.36 2-5.36h13.43c1.08 0 2 2.4 2 5.36v11c0 3-.88 5.36-2 5.36h-15.43z" fill="#6e3318"/><path d="M183.84 280.88h4.86v21.69h-6.82v-16.33c0-2.96.88-5.36 1.96-5.36z" fill="#562915"/><path d="M192.44 297.62c5.66 0 10.25 2.35 10.25 5.25h-20.5c0-2.87 4.59-5.25 10.25-5.25z" fill="#6e3318" stroke="#471c10" stroke-miterlimit="10" stroke-width=".62"/><ellipse cx="180.5" cy="175.69" rx="99.52" ry="97.73" fill="#4c4c4d"/><path d="M286.49 231.45l-5.4-43.5h-2.34A239.79 239.79 0 0 0 280 160c0-50.32-44.56-91.11-99.52-91.11S81 109.72 81 160a261.24 261.24 0 0 0 1.13 28l-5.4 43.5 70.8 37.17s29.92-110.36 33-110.4c3.3 0 30.78 110.4 30.78 110.4z" fill="#db6627"/><path d="M205.85 90.33c17 23.83 28 52.62 34.8 80.92 6.11 25.46 8.85 51.5 10.65 77.6l35.19-17.4-5.4-43.5h-2.34A239.79 239.79 0 0 0 280 160c0-48.41-41.25-88-93.33-90.93a113.66 113.66 0 0 1 19.18 21.26z" fill="#c55c28"/><ellipse cx="180.5" cy="80.94" rx="50.96" ry="32.61" fill="#fcc184"/><path d="M180.5 48.33c-19.89 0-37.11 7.3-45.5 17.93 1.59.09 3.19.13 4.79.15A121.66 121.66 0 0 1 171 61.23c10.12-.41 20.55.71 29.13 6.62 6.46 4.46 13.64 11.49 14 19.88.4 8.23-3.29 15.12-8 21.42 15.18-5.65 25.38-16.16 25.38-28.21-.04-18.01-22.86-32.61-51.01-32.61z" fill="#d19659"/><ellipse cx="235.76" cy="81.76" rx="10.67" ry="11.71" fill="#fcc184"/><ellipse cx="210.89" cy="78.33" rx="3.93" ry="9.22"/><circle cx="234.03" cy="83.95" r="6.83" fill="#d19659"/><ellipse cx="150.75" cy="78.33" rx="3.93" ry="9.22"/><path d="M228.55 70.05c.35.52 2.39 15.6 1.88 30.63l-10.19-9.33s5.77-17.69 5.13-23.27 3.18 1.97 3.18 1.97zM131.61 67.33c-.35.52-2.59 18.32-2.07 33.35l10.19-9.33s-5.73-17.69-5.14-23.27-2.98-.75-2.98-.75z" fill="#7b6b68"/><ellipse cx="212.18" cy="74.87" rx="1.18" ry="2.77" fill="#fff"/><ellipse cx="152.08" cy="74.87" rx="1.18" ry="2.77" fill="#fff"/><path d="M131.38 72.24s49-25.85 98.18 0c0 0-15.38-37.27-49.09-40.73 0 0-26.11-1.74-64.36 36.57 0 0-11.28-3.63-16.12-9.61 0 0 8 30.43 20.77 29.53" fill="#db4c28"/><path d="M204.06 60.27c-6.23-5.59-13.32-11.68-21.9-13-8.74-1.34-17 1.76-24.83 5.27A93.85 93.85 0 0 0 135.64 66c-4.82 3.94-10.3 9.83-16.51 11.46-4.31 1.13-8.45.19-12.39-1.57 3.53 6.64 8.3 12.56 14 12.16l10.62-15.76s35.75-18.9 76.83-8.29z" fill="#b84126"/><path d="M258.7 197l2.3 16.8a18.1 18.1 0 0 1-15.49 20.38l-6.27.85a18.09 18.09 0 0 1-20.38-15.49l-2.29-16.81z" fill="#db6627" stroke="#a73c23" stroke-miterlimit="10" stroke-width="2.478"/><path fill="none" stroke="#a73c23" stroke-miterlimit="10" stroke-width="2.478" d="M259.88 205.64l-42.17 6.15"/><path d="M221.53 73.13s-11-10.13-20.18-2.72l2.09-14.08s13.22.34 18.09 8.4zM140.38 73.13s11-10.13 20.18-2.72l-2.09-14.08s-13.22.34-18.09 8.4z" fill="#998582"/><path fill="none" stroke="#a73c23" stroke-miterlimit="10" stroke-width="2.478" d="M145.01 257.35l27.08-93.95M188.4 164.64l23.78 89.14"/><path fill="#db6627" stroke="#a73c23" stroke-miterlimit="10" stroke-width="2.478" d="M172.09 144.69l6.79-33.72 6.12 33.72"/><path d="M81.05 188.75s110.16-45.15 199 0c0 0 3.22-14.18 0-24.78 0 0-84.55-52.89-198.31 1.48a86.85 86.85 0 0 0-.69 23.3z" fill="#843c1c"/><path d="M240.89 174.47s14.4 18.34 15.73 30 0 1.38 0 1.38 3.38 7.18 17 4.21c0 0 10.3-4.16 6.19-12.24 0 0-4.58-17.21-18-29" fill="#843c1c"/><path d="M280.05 164s-16.8-10.51-45.51-17.34v26.46a179.47 179.47 0 0 1 45.51 15.66s3.23-14.21 0-24.78z" fill="#6e3318"/><path d="M258.07 177c-.28 3.7-2.66 6.54-5.3 6.33l-20.66-.53c-2.78-.22-4.8-3.54-4.51-7.44l2-26.56c.29-3.89 2.79-6.88 5.58-6.67l20.5 2.58c2.64.21 4.56 3.37 4.28 7.07z" fill="#66615c"/><path d="M254.75 173.62c-.21 2.79-2 4.93-4 4.78L235 178c-2.11-.16-3.63-2.67-3.41-5.61l1.52-20.06c.23-2.95 2.11-5.2 4.22-5l15.63 2c2 .15 3.44 2.54 3.23 5.33z" fill="#843c1c"/><path d="M192.94 89.85c8.22-5.13 18.73-9.26 28.36-6 10.22 3.48 16.25 13.4 18 23.63 1 5.85 1.49 13.43.2 19.26-2.18 9.8-8.65 16.54-15.29 23.58-3 3.19-6.74 6.69-9 10.49 0 0-1.21 7.5 5 6.59-10.5 1.53-11.42-7.16-9.28-15.13 2.19-8.13 3-14.3-6.81-16.69-7.45-1.81-23.36-3.78-23.64-14.26" fill="#998582"/><path d="M168.06 89.85c-8.22-5.13-18.73-9.26-28.36-6-10.21 3.48-16.25 13.4-18 23.63-1 5.85-1.5 13.43-.21 19.26 2.18 9.8 8.65 16.54 15.29 23.58 3 3.19 6.74 6.69 9 10.49 0 0 1.21 7.5-5 6.59 10.51 1.53 11.42-7.16 9.28-15.13-2.18-8.13-3-14.3 6.81-16.69 7.45-1.81 23.36-3.78 23.64-14.26" fill="#998582"/><path d="M203.41 103.61c5 1.35 10.2 2.91 14.35 6.22a26 26 0 0 1 8.7 26.44c-1.65 6.1-5.92 10.06-8.78 15.46a10.8 10.8 0 0 0-1.28 7.27c-.42.59-.82 1.19-1.17 1.79 0 0-1.21 7.5 5 6.59-10.51 1.53-11.42-7.16-9.28-15.13 2.19-8.13 3-14.3-6.81-16.69-7.45-1.81-23.36-3.78-23.64-14.26l7.52-19c5.11-.86 10.32-.05 15.39 1.31zM157.59 103.61c-5 1.35-10.2 2.91-14.35 6.22a26 26 0 0 0-8.7 26.44c1.65 6.1 5.92 10.06 8.78 15.46a10.74 10.74 0 0 1 1.28 7.27c.42.59.82 1.19 1.17 1.79 0 0 1.21 7.5-5 6.59 10.51 1.53 11.42-7.16 9.28-15.13-2.18-8.13-3-14.3 6.81-16.69 7.45-1.81 23.36-3.78 23.64-14.26l-7.52-19c-5.11-.86-10.32-.05-15.39 1.31z" fill="#8a7875"/><ellipse cx="180.5" cy="96.67" rx="35.48" ry="25.19" fill="#d85b4a"/><path d="M130.91 71.9a10 10 0 0 0-5.74-1.85c-5.89 0-10.67 5.25-10.67 11.71s4.78 11.71 10.67 11.71a9.78 9.78 0 0 0 4.33-1c.17-8.04.86-15.84 1.41-20.57z" fill="#fcc184"/><path d="M189.15 72.24c9.86 4.47 16.4 12.31 16.4 21.23 0 13.91-15.89 25.18-35.48 25.18a49.72 49.72 0 0 1-8.65-.75 46.37 46.37 0 0 0 19.08 3.95c19.59 0 35.48-11.27 35.48-25.18.02-11.79-11.42-21.67-26.83-24.43z" fill="#a9473a"/><ellipse cx="167.83" cy="85.33" rx="11.63" ry="7.01" fill="#f58677"/><path d="M130.3 78a6.83 6.83 0 1 0-.74 12.19c.14-4.33.44-8.55.74-12.19z" fill="#d19659"/><circle cx="200.38" cy="154.88" r="3.23" fill="#542815"/><circle cx="177.9" cy="152.75" r="3.23" fill="#542815"/><path d="M102.87 197l-2.29 16.81a18.09 18.09 0 0 0 15.48 20.38l6.28.85a18.09 18.09 0 0 0 20.38-15.49l2.28-16.82z" fill="#db6627" stroke="#a73c23" stroke-miterlimit="10" stroke-width="2.478"/><path fill="none" stroke="#a73c23" stroke-miterlimit="10" stroke-width="2.478" d="M101.69 205.64l42.17 6.15M133.72 260.92l16.91-7.14M206.96 251.18l20.24 10.34M77.39 225.81l63.22 33.28M220.24 257.35l65.58-31.54"/></svg>