<svg data-name="Capa 1" xmlns="http://www.w3.org/2000/svg" viewBox="0 0 361 305"><path d="M252.19 207.81c-.6 1.35-1.9 2.09-2.91 1.64l-9.64-4.26c-1-.44-1.34-1.9-.75-3.25.6-1.35 1.9-2.09 2.91-1.64l9.65 4.25c1 .45 1.33 1.9.74 3.26z" fill="#fcc184"/><path d="M228.13 206.54l5.1 7.59A7.27 7.27 0 1 0 247 209.3l-3.3-9.3z" fill="#fcc184"/><path d="M197.28 121s32.05 49.11 45.21 78.47l-13.72 7.73s-26-58.21-33.38-67.57" fill="#c29626"/><path fill="#4c4c4d" d="M147.02 204.14l2.65 28.85v60.29h17.34v-52h11.14v52h16.72v-60.29l2.65-28.85h-50.5z"/><path d="M175.33 228.65a6.65 6.65 0 0 1 1.9-.25 7.44 7.44 0 0 1 5.28 2.3 7.29 7.29 0 0 1 1.58 2.53h23.31l-6-123.81h-56.63l-6 123.81h24.55a7.33 7.33 0 0 1 1.55-2.16 7.44 7.44 0 0 1 3.4-1.83 8.29 8.29 0 0 1 4.27-1.15 7 7 0 0 1 2.79.56z" fill="#f3af19"/><path d="M172.92 151.25c5.16 2.95 8.75 6.64 11 12.21a96.17 96.17 0 0 1 5.92 25.09c1.63 15.51-1.38 30.55-7.16 44.68h24.72l-6-123.81h-56.62l-.88 18.21c4.29 11.94 18.78 17.76 29.02 23.62z" fill="#c29626"/><ellipse cx="214.26" cy="95.27" rx="12.7" ry="13.97" transform="rotate(-78.18 214.27 95.269)" fill="#fcc184"/><ellipse cx="142.78" cy="80.31" rx="12.7" ry="13.97" transform="rotate(-78.18 142.787 80.312)" fill="#fcc184"/><ellipse cx="177.07" cy="92.89" rx="43.95" ry="30.83" transform="rotate(-78.18 177.083 92.89)" fill="#fcc184"/><path d="M186.08 49.87A24 24 0 0 0 170 52.36a35.43 35.43 0 0 0 2.2 8.72c.45 1.08 1 2.86 1.69 4.25a.86.86 0 0 1 .51.58c.06.2.13.38.2.56a3.4 3.4 0 0 0 .53.54.75.75 0 0 1 .28.93c3.32 4.6 11.77 3.88 16.23 7.16 5 3.69 6.09 10.28 5.26 16.17-2 14-15.56 20.32-26.75 26.18a.94.94 0 0 1-.55.11c-5.36 2.82-9.07 7.67-12.23 12.82a23 23 0 0 0 10.68 5.52c16.66 3.49 34.2-12.94 39.17-36.7s-4.48-45.84-21.14-49.33z" fill="#d19659"/><circle cx="212.77" cy="98.3" r="8.36" fill="#d19659"/><circle cx="143.15" cy="83.74" r="8.36" fill="#d19659"/><path d="M189.61 131.4s6.95 77.41 6.28 100.32M157.07 131.4s-6.95 77.41-6.28 100.32" fill="none" stroke="#8c661f" stroke-miterlimit="10" stroke-width="1.857"/><path d="M178.15 141.79c0-1.77-2.08-3.2-4.64-3.2-2.57 0-4.64 1.43-4.64 3.2v84.83c0 1.76 2.08 3.2 4.64 3.2 2.56 0 4.64-1.44 4.64-3.2z" fill="#6e3318"/><path d="M198.76 134.49a5.36 5.36 0 0 1-5.46 5.26h-39.91a5.37 5.37 0 0 1-5.47-5.26l-4.54-16.39a6.32 6.32 0 0 1 6.44-6.2h47a6.32 6.32 0 0 1 6.44 6.2z" fill="#6e3318"/><path d="M208.47 82.21l-2.4-3.21c-.32 1.37-4.91 29.45-14.49 44.35l-17.12-18.25v-.26l-.21.09-.16-.17-.06.26-22.23 9.53c-2.59-17.51 4.32-44.57 4.58-45.93l-3.5 2c-3 6.65-7.61 38.7-7.61 38.7l4.15 6.32c-8.79 8.56 13.66 25 16.71 27.16v.16h.2l.18.11v-.16c3.6-.74 29.87-6.6 26.4-17.59l7-4.53s8.63-31.29 8.56-38.58z" fill="#945e25"/><path d="M193.6 124.83a10 10 0 0 1-1.65-2.12l-.37.59-17.12-18.25v-.26l-.21.09-.16-.17-.06.26-22.23 9.53v-.21a13.55 13.55 0 0 1-2.63.89l.28.43c-2.43 2.37-2.47 5.33-1.19 8.44 4.89.79 9.83 1.57 14.68 0 2.31-.75 5.67-3.42 8-1.67 4.39 3.32 8.31 7.68 6.1 13.47a19.31 19.31 0 0 1-2.92 5c8.77-2.63 21.27-7.84 18.81-15.64z" fill="#7a4f1f"/><ellipse cx="170.52" cy="116.96" rx="12.06" ry="6.43" transform="rotate(-79.33 170.511 116.963)" fill="#391212"/><path fill="#fff" d="M167.577 115.047l1.528-7.487 7.772 1.586-1.528 7.487z"/><path d="M176.73 89c8.88-3.48 18.61-2.25 26.84 2.31 7.42 4.13 11 19.26 19.69 20.27 7.89.91 4.85-11.55-.06-9.19 2.77-1.33 4.61-4.22 7.39-1.28 2.18 2.3 2.25 7.41 1.1 10.16-1.76 4.24-6.22 8.12-10.13 10.33-6.56 3.69-14.62 5-22.08 4.52-8.11-.46-20.43-3-24.42-11.19a15.27 15.27 0 0 1-1.22-5.49c-.12-1.59.81-5.71.07-7" fill="#ba762a" stroke="#ba762a" stroke-miterlimit="10" stroke-width="1.238"/><path d="M176.73 89c-6.74-6.75-16.15-9.53-25.51-8.64-8.46.81-17.79 13.23-26.16 10.67-7.6-2.32.18-12.52 3.74-8.39-2-2.33-2.54-5.71-6.26-4.14-2.92 1.24-5 5.89-5.09 8.87-.08 4.59 2.44 9.93 5.14 13.52 4.54 6 11.42 10.4 18.42 13 7.61 2.82 19.91 5.46 26.86-.47a15.37 15.37 0 0 0 3.32-4.54c.75-1.4 1.54-5.55 2.72-6.4" fill="#ba762a" stroke="#ba762a" stroke-miterlimit="10" stroke-width="1.238"/><path d="M174.49 101.74c6.09-7.59 17-4.35 18.58 5 .8 4.78 1.33 9.91 5.59 12.92 4.52 3.19 11.72 3.76 17.05 3.23a34.71 34.71 0 0 0 4.22-.7 41.61 41.61 0 0 1-20.26 3.64c-4.54-.26-19.7-1.82-24.16-11a14.82 14.82 0 0 1-1.19-5.37 15.86 15.86 0 0 1 .16-2.43c.19-1.86.39-3.78-.13-4.67l-.28.16.11-.49a1 1 0 0 0 .31-.29zM173.83 101.6c-2.54-9.39-13.84-10.8-19-2.89-2.65 4.06-5.19 8.55-10.3 9.6-5.41 1.11-12.24-1.26-16.91-3.88a32.4 32.4 0 0 1-3.59-2.32 41.57 41.57 0 0 0 17.11 11.45c4.26 1.58 18.77 6.23 26.54-.41a14.88 14.88 0 0 0 3.25-4.45 15.79 15.79 0 0 0 .83-2.28c.57-1.79 1.15-3.63 2-4.23l.18.26.06-.45a1 1 0 0 1-.17-.4z" fill="#a36828"/><path d="M196.61.32C190.15-.6 152 71.25 152 71.25c17.53-4.72 29.9-.5 29.9-.5s13 1.09 27.19 12.44c-.02 0-6.19-81.13-12.48-82.87z" fill="#f7cd0f"/><path d="M196.61.32a1 1 0 0 0-.42 0c-1.71 10.71-2.19 21.67-4 32.38a303.41 303.41 0 0 1-8.35 35.19c-.3 1-.6 2-.89 3 3.36.52 14.34 2.86 26.13 12.3-.01 0-6.18-81.13-12.47-82.87z" fill="#bc9b2a"/><path d="M202.38 83s-3-10.35-14-8.62l1.94-6.1S203 69.72 202.38 83zM157.36 73.54s6.86-8.29 16.28-2.28l.67-6.37s-12.24-3.73-16.95 8.65z" fill="#ba762a"/><path fill="#212121" d="M205.39 167.61h-64.25l-.85 18.57h65.95l-.85-18.57z"/><path fill="#080808" d="M189.29 186.18h17.11l-.74-18.57h-16.37v18.57z"/><path d="M188.06 187.11a5.09 5.09 0 0 1-4.9 5.26h-19.92a5.08 5.08 0 0 1-4.9-5.26V167.3a5.09 5.09 0 0 1 4.9-5.26h19.92a5.1 5.1 0 0 1 4.9 5.26z" fill="#66615c"/><path d="M184.34 184.69a3.83 3.83 0 0 1-3.67 4h-14.94a3.83 3.83 0 0 1-3.67-4v-15a3.82 3.82 0 0 1 3.67-4h14.94a3.82 3.82 0 0 1 3.67 4z" fill="#212121"/><circle cx="147.46" cy="176.89" r="1.64"/><path fill="#3d3d3d" d="M178.15 241.28h6.19v52h-6.19zM160.82 241.28h6.19v52h-6.19z"/><circle cx="153.81" cy="176.89" r="1.64"/><path d="M171.34 281.42c0-4.39-1.31-7.95-2.93-7.95h-20.14c-1.62 0-2.93 3.56-2.93 7.95v16.3c0 4.39 1.31 7.94 2.93 7.94h23.07z" fill="#6e3318"/><path d="M167.87 273.47h-7.05v32.19h9.9v-24.24c0-4.42-1.27-7.95-2.85-7.95z" fill="#562915"/><path d="M154.88 297.47c-8.49 0-15.37 3.53-15.37 7.88h30.75c0-4.35-6.89-7.88-15.38-7.88z" fill="#6e3318" stroke="#471c10" stroke-miterlimit="10" stroke-width=".619"/><path d="M172.58 281.42c0-4.39 1.31-7.95 2.93-7.95h20.14c1.62 0 2.93 3.56 2.93 7.95v16.3c0 4.39-1.31 7.94-2.93 7.94h-23.07v-24.24z" fill="#6e3318"/><path d="M175.43 273.47h7v32.19h-9.9v-24.24c.05-4.42 1.33-7.95 2.9-7.95z" fill="#562915"/><path d="M188.64 297.47c8.49 0 15.37 3.53 15.37 7.88h-30.74c0-4.35 6.88-7.88 15.37-7.88z" fill="#6e3318" stroke="#471c10" stroke-miterlimit="10" stroke-width=".619"/><path d="M210.52 231.69a3.35 3.35 0 0 1-3.3 3.4h-23.46l-10.49-3.83-10.77 3.83h-23.19a3.35 3.35 0 0 1-3.3-3.4 3.36 3.36 0 0 1 3.3-3.41h23l10.41-3.83 11.06 3.83h23.46a3.36 3.36 0 0 1 3.3 3.41zM225.64 207.32a3.09 3.09 0 0 0 4.19 1.27l14.73-7.89a3.09 3.09 0 0 0 1.27-4.19l-1.57-2.93a3.11 3.11 0 0 0-4.19-1.27l-14.73 7.89a3.09 3.09 0 0 0-1.27 4.19z" fill="#6e3318"/><path d="M195.65 85.27a32.14 32.14 0 0 1-5.92-1.73c.74 1.44 2.9 2.77 5.62 3.3s5.21.11 6.44-.94a32.14 32.14 0 0 1-6.14-.63zM163.86 77.84a32.14 32.14 0 0 1-5.92-1.73c.74 1.44 2.9 2.77 5.61 3.3s5.22.11 6.45-.94a31.27 31.27 0 0 1-6.14-.63z"/><circle cx="176.36" cy="93.85" r="19.05" fill="#d85b4a"/><path d="M188.32 79a19 19 0 0 1-27.92 25.22A19 19 0 1 0 188.32 79z" fill="#a9473a"/><circle cx="168.97" cy="86.66" r="7.2" fill="#f58677"/><path d="M135.57 214.2c-.51 1.63-1.28 2.84-1.71 2.7l-.46-.15c-.43-.13-.36-1.56.16-3.19l8.88-29.38c.51-1.62 1.42-2.79 2-2.6l.66.21c.6.19.68 1.67.16 3.3z" fill="#080808"/><path d="M149.26 182.75a3.1 3.1 0 0 1-3.89 2l-1.77-.57a3.08 3.08 0 0 1-2-3.88l7.7-29.75c.52-1.63 2.81-2.36 5.12-1.62l2.5.79c2.31.74 3.76 2.65 3.24 4.28z" fill="#3d3d3d"/><path d="M144.17 121s-86.31 96 9.64 45l-9.46-15s-3.31-5.33 1.47-16.27" fill="#c29626"/><path d="M147.13 150.27c5-4.32 4.08-11.18 13-6.51 15.45 7.79-3 18.9-4.62 10.19" fill="#d19659"/><circle cx="160.4" cy="138.67" r="9.63" fill="#8e8e8e"/><path d="M170.05 141.49a.77.77 0 0 1-.94.53L151 137a.76.76 0 0 1-.53-.94.75.75 0 0 1 .94-.53l18.1 5a.76.76 0 0 1 .53.94z" fill="#3d3d3d"/><path d="M154.21 163.19a3.7 3.7 0 0 1-5.21.52l-7.35-5.57a3.72 3.72 0 0 1-.92-5.16l7.8-11.87a4.13 4.13 0 0 1 5.8-.57l8.18 6.19a4.12 4.12 0 0 1 1 5.73z" fill="#fcc184"/><path d="M153.12 168.62a3.09 3.09 0 0 1-4.37.18l-12.3-11.32a3.09 3.09 0 0 1-.18-4.37l2.25-2.45a3.1 3.1 0 0 1 4.37-.18l12.3 11.32a3.1 3.1 0 0 1 .18 4.38z" fill="#6e3318"/></svg>