<svg data-name="Capa 1" xmlns="http://www.w3.org/2000/svg" viewBox="0 0 361 305"><path d="M182 282.5c0-4.29-1.28-7.76-2.87-7.76h-19.67c-1.58 0-2.86 3.47-2.86 7.76v15.93c0 4.28 1.28 7.76 2.86 7.76H182z" fill="#6e3318"/><path d="M179.65 274.74h-7.32v31.45h10.28V282.5c0-4.29-1.32-7.76-2.96-7.76z" fill="#562915"/><path d="M183.82 282.5c0-4.29 1.28-7.76 2.86-7.76h19.68c1.59 0 2.87 3.47 2.87 7.76v15.93c0 4.28-1.28 7.76-2.87 7.76h-22.54z" fill="#6e3318"/><path d="M186.17 274.74h7.33v31.45h-10.28V282.5c0-4.29 1.32-7.76 2.95-7.76z" fill="#562915"/><path d="M182 41.11c-6.83.3-30.59 56.67-30.59 56.67C168.38 91.86 182 93 182 93s13.6-1.16 30.59 4.76c-.02.02-23.78-56.35-30.59-56.65z" fill="#823790"/><path d="M185.36 50.92c1 4.45 2 8.91 2.81 13.4a120.32 120.32 0 0 1 2.1 25.83c0 1-.09 2-.16 3a88.15 88.15 0 0 1 22.46 4.66s-21.57-51.2-29.51-56.3c.6 3.19 1.61 6.39 2.3 9.41z" fill="#6d2e78"/><path d="M234.43 137.36a17.75 17.75 0 1 0-32.3-12.61l-22.29-5.66-22.29 5.66a17.75 17.75 0 1 0-32.3 12.61c-12.68 12-35.24 39.72-12.51 68.44 0 0 21.58 23.39 67.1 14.15 45.52 9.24 67.1-14.15 67.1-14.15 22.74-28.72.18-56.41-12.51-68.44z" fill="#ee89b8"/><path d="M227.85 140.8a15.61 15.61 0 1 0-28.4-11.09l-19.61-5-19.6 5a15.61 15.61 0 1 0-28.41 11.09c-11.15 10.59-31 34.94-11 60.2 0 0 19 20.57 59 12.44 40 8.13 59-12.44 59-12.44 20.02-25.26.17-49.61-10.98-60.2z" fill="#d16d9c"/><path d="M222.24 175.88l11.76-2.81 10.51 51a33 33 0 0 0 4 3.68c2 1.73 8.4 6.19 9.28 8.23 1.55 4.07-5.1 2.2-7.47 2-3.45-.34-6.05-2.56-9.2-3.75-1.35 2.69-1.05 8.3-4.6 6.86-.17-2.63-1.34-6.15-1.25-9.19a18.15 18.15 0 0 1 .9-5.4z" fill="#fcc184"/><path d="M235.64 181.15l-1.64-8.08-11.73 2.81 3.51 12.78a20.65 20.65 0 0 0 9.86-7.51z" fill="#d19659"/><path d="M142.13 176l-11.81-2.44-8.91 51.31a33.35 33.35 0 0 1-3.87 3.81c-2 1.78-8.21 6.44-9 8.51-1.43 4.12 5.17 2 7.53 1.73 3.43-.46 6-2.76 9.07-4 1.44 2.65 1.31 8.27 4.82 6.71.09-2.63 1.15-6.19 1-9.22a18.53 18.53 0 0 0-1.07-5.37z" fill="#fcc184"/><path d="M138 193l4.1-17-11.81-2.44-1.65 9.5A23.39 23.39 0 0 0 138 193z" fill="#d19659"/><circle cx="219.99" cy="166.81" r="17.26" fill="#63366b"/><circle cx="144.66" cy="166.83" r="17.26" fill="#63366b"/><path d="M231.89 169.93A17.23 17.23 0 0 0 213.16 151a17.26 17.26 0 1 1 8.47 33 17.29 17.29 0 0 0 10.26-14.07zM133 170.29a17.26 17.26 0 0 1 18.12-19.49 17.26 17.26 0 1 0-7.43 33.26A17.25 17.25 0 0 1 133 170.29z" fill="#733f7d"/><path d="M213.15 301.35c17.09-9.82 28.49-27.48 28.49-47.63 0-30.85-26.71-55.86-59.66-55.86s-59.66 25-59.66 55.86c0 20.15 11.4 37.81 28.49 47.63z" fill="#844890"/><path d="M182 197.86a62.44 62.44 0 0 0-31.1 8.14c22.12 3.8 42.26 23.45 43.69 51.45.78 15.34-3.08 30.24-8.78 43.87h27.34c17.09-9.82 28.49-27.48 28.49-47.63 0-30.82-26.71-55.83-59.64-55.83z" fill="#764080"/><path d="M143.11 231.08a4.48 4.48 0 0 1 4-3.06c-1.37-2.61-4.26-5.16-6.47-4.21-3.46 1.47-.64 5.36 2.47 7.27zM151.8 232.06c3.34-1.05 5.09-6.58 2.3-8.87-3.37-2.64-5.19 1.69-6.08 4.88a4.46 4.46 0 0 1 3.78 3.99zM144 235.46a4.44 4.44 0 0 1-1.15-3 4.67 4.67 0 0 1 .15-1.13c-3.54-.7-8.35-1-8.35 2.6.03 4.16 5.87 3.16 9.35 1.53zM146 242.91c3.16.63 3.79-2.89 3.37-5.86 1.74 2.14 5.16 3.71 6.79 1.67 2.38-2.37-1.49-5.13-4.38-6.15a4.46 4.46 0 0 1-7.18 3.44c-1.43 2.56-1.91 6.23 1.4 6.9zM122.19 247.38a5.78 5.78 0 0 1 .69.17c.14-1.16.32-2.31.54-3.44a16.84 16.84 0 0 0-1.23 3.27z" fill="#6f2c7b"/><path d="M126 251.37c3.35-1 5.1-6.57 2.3-8.86-2.24-1.76-3.79-.43-4.84 1.6-.22 1.13-.4 2.28-.55 3.44a4.45 4.45 0 0 1 3.09 3.82zM123.57 256.36c1.74 2.15 5.16 3.71 6.78 1.68 2.38-2.38-1.49-5.13-4.37-6.16a4.47 4.47 0 0 1-3.47 4.27c.07 1.69.22 3.36.44 5a7.6 7.6 0 0 0 .62-4.79zM144.74 253.43c-3.43 1.47-.57 5.36 2.5 7.27a4.45 4.45 0 0 1 4-3.05c-1.4-2.65-4.24-5.17-6.5-4.22zM158.23 252.81c-3.37-2.64-5.19 1.69-6.08 4.88a4.46 4.46 0 0 1 3.78 4c3.34-1.06 5.07-6.59 2.3-8.88zM147 262.1a4.22 4.22 0 0 1 .15-1.13c-3.54-.7-8.36-1-8.36 2.6 0 4.14 5.84 3.14 9.35 1.51a4.45 4.45 0 0 1-1.14-2.98zM160.32 268.35c2.38-2.38-1.49-5.14-4.37-6.16a4.45 4.45 0 0 1-7.19 3.44c-1.46 2.56-1.94 6.23 1.4 6.9 3.16.63 3.79-2.89 3.37-5.86 1.74 2.14 5.16 3.71 6.79 1.68zM128.39 272c-3.43 1.47-.56 5.36 2.51 7.27a4.45 4.45 0 0 1 4-3c-1.41-2.67-4.29-5.22-6.51-4.27zM141.88 271.38c-3.36-2.64-5.18 1.69-6.07 4.88a4.45 4.45 0 0 1 3.77 4c3.35-1.05 5.1-6.59 2.3-8.88zM130.67 280.67a4.67 4.67 0 0 1 .15-1.13c-.62-.12-1.29-.23-2-.31.84 1.55 1.75 3 2.73 4.52l.23-.1a4.44 4.44 0 0 1-1.11-2.98zM137.19 285.24c1.74 2.15 5.16 3.71 6.78 1.68 2.38-2.38-1.49-5.14-4.37-6.16a4.45 4.45 0 0 1-7.19 3.44c-.07.14-.15.28-.22.43a56.76 56.76 0 0 0 4.35 5.45 7.49 7.49 0 0 0 .65-4.84zM166.34 200.19c-1.53.39-3.05.84-4.53 1.34a4.43 4.43 0 0 1 1.11 2.54 5.66 5.66 0 0 0 3.42-3.88zM155.15 207.46a4.49 4.49 0 0 1-1.13-2.68 62.26 62.26 0 0 0-6.5 3.78c2 .77 5.32-.02 7.63-1.1zM157.15 214.91c3.16.64 3.8-2.88 3.37-5.85 1.74 2.14 5.16 3.71 6.79 1.67 2.38-2.38-1.49-5.13-4.37-6.16a4.46 4.46 0 0 1-7.19 3.45c-1.46 2.56-1.94 6.23 1.4 6.89zM175 225.62a4.48 4.48 0 0 1 4-3.06c-1.37-2.62-4.26-5.16-6.47-4.21-3.42 1.47-.53 5.36 2.47 7.27zM183.73 226.59c3.34-1 5.09-6.57 2.3-8.86-3.37-2.65-5.19 1.68-6.08 4.88a4.46 4.46 0 0 1 3.78 3.98zM166.61 228.48c0 4.14 5.84 3.15 9.35 1.52a4.47 4.47 0 0 1-1.14-3 4.3 4.3 0 0 1 .15-1.14c-3.55-.67-8.36-.98-8.36 2.62zM183.74 227.1a4.46 4.46 0 0 1-7.18 3.45c-1.46 2.56-1.94 6.22 1.4 6.89 3.16.64 3.79-2.88 3.37-5.86 1.74 2.15 5.16 3.71 6.79 1.68 2.38-2.38-1.49-5.13-4.38-6.16zM178.78 251.54c-1.38-2.62-4.26-5.17-6.48-4.22-3.43 1.47-.57 5.36 2.51 7.27a4.45 4.45 0 0 1 3.97-3.05zM183.49 255.57c3.35-1 5.1-6.58 2.3-8.87-3.37-2.64-5.18 1.69-6.08 4.88a4.45 4.45 0 0 1 3.78 3.99zM174.58 256a4.67 4.67 0 0 1 .15-1.13c-3.54-.7-8.35-1-8.35 2.6 0 4.14 5.84 3.14 9.35 1.51a4.46 4.46 0 0 1-1.15-2.98zM183.51 256.08a4.46 4.46 0 0 1-7.19 3.44c-1.45 2.56-1.94 6.23 1.41 6.9 3.16.63 3.79-2.89 3.37-5.86 1.74 2.14 5.16 3.71 6.78 1.67 2.38-2.37-1.49-5.13-4.37-6.15zM161.41 281.14c-3.43 1.47-.56 5.36 2.51 7.27a4.45 4.45 0 0 1 4-3.05c-1.4-2.62-4.29-5.17-6.51-4.22zM168.83 285.4a4.45 4.45 0 0 1 3.77 4c3.35-1.05 5.1-6.58 2.3-8.87-3.36-2.65-5.18 1.68-6.07 4.87zM163.69 289.81a4.67 4.67 0 0 1 .15-1.13c-3.54-.7-8.35-1-8.35 2.6 0 4.14 5.84 3.14 9.35 1.51a4.46 4.46 0 0 1-1.15-2.98zM172.62 289.9a4.45 4.45 0 0 1-7.19 3.44c-1.45 2.56-1.94 6.23 1.41 6.9 3.16.63 3.79-2.89 3.37-5.86 1.74 2.14 5.16 3.71 6.78 1.67 2.38-2.37-1.49-5.13-4.37-6.15zM192.54 199.05c-.91-.14-1.82-.28-2.74-.39a12.57 12.57 0 0 0 2.08 1.65 4.46 4.46 0 0 1 .66-1.26zM201.07 201.08l-.57-.17c0 .12.05.25.07.38a5.32 5.32 0 0 0 .5-.21zM192.8 204.69a4.48 4.48 0 0 1-1.15-3 4.75 4.75 0 0 1 .15-1.14c-3.54-.69-8.35-1-8.35 2.6 0 4.16 5.84 3.17 9.35 1.54zM194.8 212.13c3.16.64 3.79-2.88 3.37-5.85 1.74 2.14 5.16 3.71 6.79 1.67 2.37-2.37-1.49-5.13-4.38-6.15a4.46 4.46 0 0 1-7.18 3.44c-1.46 2.56-1.94 6.23 1.4 6.89zM208 225a4.48 4.48 0 0 1 4-3.06c-1.37-2.62-4.26-5.16-6.47-4.21-3.48 1.47-.61 5.36 2.47 7.27zM216.68 226c3.34-1 5.09-6.57 2.3-8.86-3.37-2.65-5.19 1.68-6.08 4.88a4.47 4.47 0 0 1 3.78 3.98zM199.56 227.86c0 4.14 5.84 3.15 9.35 1.51a4.43 4.43 0 0 1-1.14-3 4.3 4.3 0 0 1 .15-1.14c-3.55-.66-8.36-.97-8.36 2.63zM210.91 236.82c3.16.64 3.79-2.88 3.37-5.86 1.74 2.15 5.16 3.71 6.79 1.68 2.38-2.38-1.49-5.13-4.38-6.16a4.46 4.46 0 0 1-7.18 3.45c-1.46 2.56-1.94 6.22 1.4 6.89zM213.24 255.73c-1.38-2.62-4.26-5.17-6.48-4.22-3.43 1.47-.57 5.37 2.51 7.27a4.45 4.45 0 0 1 3.97-3.05zM220.25 250.9c-3.37-2.65-5.18 1.68-6.07 4.87a4.45 4.45 0 0 1 3.77 4c3.35-1.05 5.1-6.58 2.3-8.87zM209 260.18a4.67 4.67 0 0 1 .15-1.13c-3.54-.69-8.35-1-8.35 2.6 0 4.14 5.84 3.14 9.35 1.51a4.44 4.44 0 0 1-1.15-2.98zM218 260.27a4.46 4.46 0 0 1-7.19 3.45c-1.45 2.56-1.94 6.22 1.41 6.89 3.15.63 3.79-2.89 3.37-5.86 1.74 2.15 5.16 3.71 6.78 1.68 2.35-2.38-1.52-5.13-4.37-6.16zM201.23 286.64a4.47 4.47 0 0 1 4-3.05c-1.37-2.62-4.26-5.17-6.47-4.22-3.46 1.47-.6 5.36 2.47 7.27zM209.92 287.62c3.35-1 5.1-6.58 2.3-8.86-3.37-2.65-5.19 1.68-6.08 4.87a4.46 4.46 0 0 1 3.78 3.99zM201 288a4.22 4.22 0 0 1 .15-1.13c-3.54-.7-8.36-1-8.36 2.6 0 4.14 5.85 3.14 9.35 1.51A4.43 4.43 0 0 1 201 288zM209.94 288.13a4.47 4.47 0 0 1-4.47 4.38 4.39 4.39 0 0 1-2.72-.94c-1.46 2.56-1.94 6.23 1.4 6.9 3.16.63 3.8-2.89 3.37-5.86 1.74 2.15 5.16 3.71 6.79 1.68 2.38-2.38-1.49-5.14-4.37-6.16zM235.15 233.47c-3.43 1.47-.57 5.36 2.5 7.27a4.49 4.49 0 0 1 1.77-2.31 49.71 49.71 0 0 0-1.74-4.79 3.06 3.06 0 0 0-2.53-.17zM237.43 242.14a4.22 4.22 0 0 1 .15-1.13c-3.55-.7-8.36-1-8.36 2.6 0 4.14 5.84 3.14 9.35 1.51a4.45 4.45 0 0 1-1.14-2.98zM239.17 245.67c-1.46 2.56-1.94 6.23 1.4 6.9a3.25 3.25 0 0 0 1.2 0 50.2 50.2 0 0 0-.52-6 4.41 4.41 0 0 1-2.08-.9zM229.64 270.23c-3.43 1.47-.57 5.37 2.51 7.27a4.46 4.46 0 0 1 4-3.05c-1.41-2.62-4.3-5.17-6.51-4.22zM237.05 274.49a5.07 5.07 0 0 1 .56.13 51.92 51.92 0 0 0 1.85-5.07 11.61 11.61 0 0 0-2.41 4.94zM232.07 277.77c-3.54-.69-8.36-1-8.36 2.6 0 4.14 5.85 3.14 9.35 1.51a4.43 4.43 0 0 1-1.14-3 4.22 4.22 0 0 1 .15-1.11z" fill="#6f2c7b"/><path d="M228.39 183.7A32.36 32.36 0 0 1 196 216.06h-28.1a32.36 32.36 0 0 1-32.36-32.36 32.36 32.36 0 0 1 32.36-32.36H196a32.36 32.36 0 0 1 32.36 32.36z" fill="#844890"/><path d="M196.05 150.73h-28.14a32.23 32.23 0 0 0-15.94 4.2c5.44 9.56 18.4 11.9 28.62 13.26 6.12.81 13 .94 18.54 3.89A22.64 22.64 0 0 1 210.35 186a25.85 25.85 0 0 1-1.44 18.93A49.76 49.76 0 0 1 202 215a32.41 32.41 0 0 0-5.91-64.27z" fill="#764080"/><path d="M190.75 152.14s12.14 18.62 13.31 38.49c0 0-6.66 4.41-22.07 4.31M173.23 152.14s-12.14 18.62-13.31 38.49c0 0 6.66 4.41 22.07 4.31" fill="none" stroke="#7b1a51" stroke-miterlimit="10" stroke-width="2.42"/><path d="M135.5 129.68c2.29-.68 4.78-6.19 2.6-8-3.21-2.61-5.22 5-3.8 7.22-.36-1.72-2-9.55-5.66-7.64-3.84 2 2.22 7.82 4.38 8.31-2.18-1-7.55-.37-6.51 3.16s6.15.3 7.3-1.66c-2.47.48-3.52 6.75-.49 7.34 3.25 1 3.23-5.25 2.33-7 1 3.53 7.29 3 8-.39.77-4.22-5.23-2.69-7.38-2.1" fill="#fff"/><circle cx="134.45" cy="129.8" r="3.6" fill="#febe31"/><path d="M226.33 136.53c1.38-.41 2.9-3.75 1.57-4.82-2-1.58-3.17 3-2.3 4.38-.22-1.05-1.24-5.79-3.43-4.64s1.34 4.75 2.65 5c-1.32-.62-4.58-.22-3.94 1.92s3.73.18 4.42-1c-1.5.29-2.13 4.1-.3 4.45 2 .61 2-3.18 1.42-4.21.63 2.14 4.41 1.8 4.83-.24.46-2.55-3.17-1.63-4.47-1.27" fill="#fff"/><circle cx="225.69" cy="136.6" r="2.18" fill="#febe31"/><ellipse cx="181.98" cy="126.97" rx="41.88" ry="38.5" fill="#fcc184"/><ellipse cx="181.98" cy="126.97" rx="41.88" ry="38.5" fill="#fcc184"/><ellipse cx="211.86" cy="136.57" rx="6.56" ry="8.29" fill="#f9aa84"/><ellipse cx="152.11" cy="136.57" rx="6.56" ry="8.29" fill="#f9aa84"/><path d="M202.44 76.64A28.86 28.86 0 0 0 182 85.11a28.93 28.93 0 1 0 0 40.9 28.92 28.92 0 1 0 20.46-49.37z" fill="#ee89b8"/><path d="M219.84 119.93c-11.14 0-34.91-1.49-38.51-14.78C177.08 115 166.24 121 155.52 122c-6.9.64-15-.62-20.49-4.82A28.92 28.92 0 0 0 182 126a28.92 28.92 0 0 0 46-6.92 39.69 39.69 0 0 1-8.16.85z" fill="#d97da8"/><path d="M155 142.17s25.12 27.09 52.4 0c.04 0-22.61 31.31-52.4 0z" fill="#911b1d"/><ellipse cx="181.98" cy="136.22" rx="19.26" ry="14.8" fill="#d85b4a"/><path d="M187.62 122.07c3.66 2.69 5.95 6.48 5.95 10.69 0 8.17-8.63 14.8-19.26 14.8a24.55 24.55 0 0 1-5.64-.65A22.5 22.5 0 0 0 182 151c10.64 0 19.26-6.62 19.26-14.8-.02-6.64-5.76-12.28-13.64-14.13z" fill="#a9473a"/><ellipse cx="173.56" cy="131.97" rx="6.29" ry="4.63" fill="#f58677"/><ellipse cx="142.97" cy="95.29" rx="9.2" ry="2.92" transform="rotate(-60.41 142.97 95.29)" fill="#f6afce"/><path d="M153.43 197.74s30.73 9.71 55.63 0" fill="#764080"/><path d="M166.34 298.76c-8.33 0-15.08 3.46-15.08 7.74h30.17c0-4.28-6.76-7.74-15.09-7.74zM199.46 298.76c8.33 0 15.08 3.46 15.08 7.74h-30.16c0-4.28 6.75-7.74 15.08-7.74z" fill="#6e3318" stroke="#471c10" stroke-miterlimit="10" stroke-width=".605"/><path d="M145.55 206.88s28.9 9.82 72.85 0c0 0-38.4 17.12-72.85 0z" fill="#fff"/><path d="M215.88 262.09a3.08 3.08 0 0 0-.08-.68 2.37 2.37 0 0 0-.13-.32 3.77 3.77 0 0 0-.82-1.1 3.54 3.54 0 0 0-2.57-.93 3.58 3.58 0 0 0-.35-7.16 3.59 3.59 0 0 0-.36-7.17 3.58 3.58 0 0 0-.35-7.16 3.58 3.58 0 0 0-.35-7.16 3.58 3.58 0 0 0-.36-7.16 3.59 3.59 0 0 0-.35-7.17 3.58 3.58 0 0 0-.35-7.16l-28.57 3.57-28.6-3.57a3.58 3.58 0 0 0-.35 7.16 3.59 3.59 0 0 0-.36 7.17 3.58 3.58 0 0 0-.35 7.16 3.58 3.58 0 0 0-.35 7.16 3.58 3.58 0 0 0-.36 7.16 3.59 3.59 0 0 0-.35 7.17 3.58 3.58 0 0 0-.36 7.16 3.5 3.5 0 0 0-2.56.93 3.45 3.45 0 0 0-.82 1.1 4.91 4.91 0 0 0 0 2.69 6.61 6.61 0 0 0 .24.67 5.82 5.82 0 0 0 .34.6 4 4 0 0 0 .85 1 3.3 3.3 0 0 0 2 .77 2.1 2.1 0 0 0 .87-.15 2 2 0 0 0 .69-.39 2.52 2.52 0 0 0 .77-1.79 4.17 4.17 0 0 0 0 1.92 2.42 2.42 0 0 0 1 1.16 3.69 3.69 0 0 0 2.55 1 3.57 3.57 0 0 0 3.59-3.56 3.59 3.59 0 0 0 7.17 0 3.59 3.59 0 0 0 7.17 0 3.59 3.59 0 0 0 7.17 0 3.59 3.59 0 0 0 7.18 0 3.59 3.59 0 0 0 7.17 0 3.59 3.59 0 0 0 7.17 0 3.59 3.59 0 0 0 7.17.05 2 2 0 0 0 .58 1.24 1.77 1.77 0 0 0 .71.41 2.48 2.48 0 0 0 1 .11 3.72 3.72 0 0 0 2.18-1 4.13 4.13 0 0 0 .85-1.05c.12-.2.23-.42.33-.63a5.31 5.31 0 0 0 .2-.68 4.37 4.37 0 0 0 .15-1.37z" fill="#fff"/><path d="M207.45 210.67l1.61 42.33s-2.19 8.77-9.29 2.11l-6-5.14s14.48 1.66 13.63 7.64c-.61 4.24-6.58 4-9.72 4-5.51-.12-11-.12-16.49-.11" fill="none" stroke="#c56eac" stroke-miterlimit="10" stroke-width=".605"/><path d="M155 210.67L153.43 253s2.19 8.77 9.29 2.11l5.95-5.14s-14.48 1.66-13.63 7.64c.61 4.24 6.58 4 9.72 4 5.51-.12 11-.12 16.49-.11" fill="none" stroke="#c56eac" stroke-miterlimit="10" stroke-width=".605"/><path d="M195.46 225.43v2c0 .5 0 1-.08 1.38l-.1.62M194.41 232.31l-.27.56c-.15.35-.44.76-.69 1.2s-.59.81-.83 1.1l-.42.47M189.9 237.57a13.5 13.5 0 0 1-1.76 1c-.47.18-.94.36-1.3.47l-.61.15M183.22 239.35h-4.24M176.25 239.14l-.61-.15c-.36-.11-.83-.29-1.3-.47a13.5 13.5 0 0 1-1.76-1M170.28 235.64l-.43-.47c-.23-.29-.54-.69-.82-1.1s-.54-.85-.69-1.2l-.27-.56M167.37 229.43l-.1-.62c-.05-.37-.05-.87-.08-1.37v-2.3M170.51 222.41h4.84M178.98 222.41h4.84M186.85 222.41h4.84M191.69 227.25h-4.24M183.82 227.25h-4.84M175.35 227.25h-4.84" fill="none" stroke="#dfb5d5" stroke-miterlimit="10" stroke-width=".605"/><path d="M126.55 123.24c1.63-2.47-.4-9.69-3.88-9.62-5.13.09-1 8.91 2.16 9.89-1.71-1.35-9.56-7.44-11.47-2.73-2 5 8.35 5.65 10.79 4.39-2.88.76-7.46 5.67-3.65 8.18s6.07-4.62 5.59-7.4c-2 2.43 2.06 9.22 5.4 7.35 3.89-1.64-1.13-7.55-3.34-8.44 3.81 2.51 9.28-3 7.25-6.73-2.64-4.62-7.11 1.62-8.68 3.89" fill="#fff"/><circle cx="125.65" cy="124.19" r="4.47" fill="#febe31"/><path d="M137.05 115.11c.58-2.9-4-8.82-7.21-7.45-4.72 2 2.45 8.62 5.72 8.35-2.09-.6-11.65-3.29-11.65 1.79 0 5.38 9.86 2.09 11.65 0-2.39 1.79-4.78 8.07-.3 9s3.88-6.57 2.39-9c-.9 3 5.38 7.77 7.77 4.78 3-3-3.89-6.57-6.28-6.57 4.48.89 7.47-6.27 4.19-9-4.19-3.29-6 4.18-6.58 6.87" fill="#fff"/><circle cx="136.58" cy="116.33" r="4.47" fill="#febe31"/><path d="M128 138.42c1.42-1.93.07-7.82-2.73-7.91-4.14-.13-1.15 7.14 1.34 8.05-1.33-1.15-7.4-6.37-9.13-2.66-1.83 3.93 6.49 4.89 8.51 4-2.35.5-6.24 4.27-3.27 6.45s5.08-3.48 4.8-5.73c-1.67 1.87 1.29 7.51 4 6.14 3.21-1.17-.59-6.13-2.34-6.95 3 2.19 7.6-2 6.11-5.12-1.94-3.83-5.79 1-7.15 2.78" fill="#fff"/><circle cx="127.2" cy="139.15" r="3.6" fill="#febe31"/><path d="M136.92 144.78c1.63-.48 3.41-4.42 1.85-5.68-2.29-1.86-3.73 3.57-2.71 5.16-.26-1.23-1.46-6.82-4.05-5.46s1.59 5.59 3.13 5.94c-1.55-.73-5.39-.27-4.65 2.26s4.4.21 5.22-1.19c-1.77.34-2.52 4.83-.35 5.24 2.32.72 2.3-3.74 1.66-5 .75 2.52 5.21 2.12 5.69-.28.55-3-3.73-1.92-5.26-1.5" fill="#fff"/><circle cx="136.17" cy="144.87" r="2.57" fill="#febe31"/><path d="M122.71 158.56c1.38-.41 2.9-3.75 1.57-4.82-2-1.58-3.17 3-2.3 4.38-.22-1-1.24-5.79-3.43-4.63s1.34 4.74 2.65 5c-1.32-.62-4.58-.23-3.94 1.91s3.73.19 4.42-1c-1.5.3-2.13 4.1-.3 4.46 2 .61 2-3.18 1.41-4.22.64 2.15 4.42 1.8 4.84-.23.46-2.56-3.18-1.63-4.48-1.28" fill="#fff"/><circle cx="122.07" cy="158.64" r="2.18" fill="#febe31"/><path d="M115.27 163.89c1.34-.4 2.81-3.64 1.52-4.67-1.88-1.54-3.07 2.93-2.23 4.24-.21-1-1.2-5.61-3.32-4.49s1.3 4.6 2.57 4.89c-1.28-.61-4.44-.23-3.82 1.85s3.61.18 4.28-1c-1.45.29-2.07 4-.29 4.31 1.92.6 1.9-3.08 1.37-4.08.62 2.08 4.28 1.75 4.68-.22.46-2.48-3.07-1.59-4.33-1.24" fill="#fff"/><circle cx="114.65" cy="163.96" r="2.12" fill="#febe31"/><path d="M138.34 100.9c1.39-.41 2.9-3.75 1.58-4.82-1.95-1.58-3.17 3-2.31 4.38-.22-1-1.23-5.79-3.43-4.63s1.34 4.74 2.66 5c-1.32-.62-4.58-.23-4 1.91s3.73.19 4.42-1c-1.49.3-2.13 4.1-.29 4.46 2 .61 2-3.18 1.41-4.22.63 2.15 4.42 1.8 4.83-.23.47-2.56-3.17-1.63-4.47-1.28" fill="#fff"/><circle cx="137.71" cy="100.98" r="2.18" fill="#febe31"/><path d="M228.06 120.14c.58-2.9-4-8.82-7.21-7.45-4.72 2 2.45 8.62 5.72 8.35-2.09-.6-11.65-3.29-11.65 1.79 0 5.37 9.86 2.09 11.65 0-2.39 1.79-4.78 8.06-.3 9s3.88-6.57 2.39-9c-.9 3 5.38 7.76 7.77 4.78 3-3-3.89-6.57-6.28-6.57 4.48.89 7.47-6.28 4.18-9-4.18-3.28-6 4.19-6.57 6.87" fill="#fff"/><circle cx="227.59" cy="121.36" r="4.47" fill="#febe31"/><path d="M226.33 113.39c1.38-.41 2.9-3.75 1.57-4.82-2-1.58-3.17 3-2.3 4.38-.22-1-1.24-5.79-3.43-4.63s1.34 4.74 2.65 5c-1.32-.63-4.58-.23-3.94 1.91s3.73.18 4.42-1c-1.5.3-2.13 4.1-.3 4.45 2 .61 2-3.18 1.42-4.21.63 2.14 4.41 1.8 4.83-.23.46-2.56-3.17-1.64-4.47-1.28" fill="#fff"/><circle cx="225.69" cy="113.46" r="2.18" fill="#febe31"/><path d="M199.67 173.82l-33-5.16c-1.14 0-2.07 1.24-2.07 2.76h0c0 1.52.93 2.75 2.07 2.75l33-5.15M202.73 183.49L164 178.34a2.61 2.61 0 0 0-2.42 2.76h0a2.6 2.6 0 0 0 2.42 2.75l38.77-5.15" fill="none" stroke="#7b1a51" stroke-miterlimit="10" stroke-width="1.21"/><path d="M162.88 178.65l36.23-5.15a2.55 2.55 0 0 1 2.27 2.76h0a2.54 2.54 0 0 1-2.27 2.75l-36.23-5.15M161.54 188.33l38.76-5.15a2.61 2.61 0 0 1 2.43 2.76h0a2.61 2.61 0 0 1-2.43 2.75l-38.76-5.15" fill="none" stroke="#7b1a51" stroke-miterlimit="10" stroke-width="1.21"/></svg>