<svg id="Capa_1" data-name="Capa 1" xmlns="http://www.w3.org/2000/svg" viewBox="0 0 361 305"><path d="M157.15,282.53c4.21-2.11,13.16,2.1,17.89,3.15,2.11-8.42,6.85-16.31,9-24.73-2.1,0-8.81-3.75-10.91-3.75a92.67,92.67,0,0,1-4.88,20.06,40.88,40.88,0,0,1-7.36-2.63" style="fill:#a97c2c"/><path d="M124.56,65.34c-6.66-12.05-27.13-9-34.13,1.66-5.86,8.68,3.81,15.11,11.71,14.2C110.47,80,117.42,74.86,124,70a6.49,6.49,0,0,0-1.24-2.83c-5,2.63-31.88,17.19-26.52,2.15,6.07-16.72,23.23,3,31.31-2.25" style="fill:#bf6328"/><polygon points="258.92 171.49 167.87 230.99 190.01 207.41 228.44 182.3 258.92 171.49" style="fill:#65889a"/><rect x="177.29" y="195.79" width="108.76" height="66.83" transform="translate(-87.65 164.08) rotate(-33.17)" style="fill:#9bb1c3"/><rect x="188.03" y="202.39" width="87.29" height="53.63" transform="matrix(0.84, -0.55, 0.55, 0.84, -87.65, 164.08)" style="fill:#7a97aa"/><polygon points="188.28 234.22 257.51 188.97 253.54 182.88 180.47 230.64 209.81 275.53 213.64 273.03 188.28 234.22" style="fill:#65889a"/><path d="M212.67,195.51,128.74,67.08a7.08,7.08,0,0,0-11.85,7.75l83.93,128.43Z" style="fill:#bf6328"/><path d="M134,75.08l-5.22-8a7.08,7.08,0,0,0-11.85,7.75l8.37,12.8C128.13,83.42,131,79.19,134,75.08Z" style="fill:#552c12"/><path d="M143.42,89.56l-7.24-11.09c-3,4.13-5.81,8.37-8.69,12.58L129,93.31C133.73,91.84,138.56,90.65,143.42,89.56Z" style="fill:#552c12"/><path d="M155.65,108.28,145.64,93c-4.87,1.08-9.72,2.26-14.5,3.69l15,23Q150.83,113.89,155.65,108.28Z" style="fill:#552c12"/><path d="M167.89,127l-10.07-15.41q-4.81,5.63-9.46,11.4l5.52,8.44A146.11,146.11,0,0,1,167.89,127Z" style="fill:#552c12"/><path d="M185,153.11l-5.83-8.92c-2.47,4.82-4.92,9.65-7.47,14.44l.5.76C176.34,157.15,180.64,155.11,185,153.11Z" style="fill:#552c12"/><path d="M190,160.84l-3-4.54c-4.31,2-8.61,4-12.8,6.28l9.37,14.33C185.88,171.64,187.81,166.17,190,160.84Z" style="fill:#552c12"/><path d="M201.81,178.9l-9.32-14.26c-2.16,5.33-4.11,10.75-6.47,16l1.61,2.46C192.41,182,197.1,180.35,201.81,178.9Z" style="fill:#552c12"/><path d="M202.7,202c2-4.49,3.48-9.24,5.11-13.95l-4-6.07c-4.69,1.4-9.36,3.09-14.07,4.33l11,16.92Z" style="fill:#552c12"/><path d="M212.67,195.51l-2.3-3.51c-.75,2.18-1.49,4.35-2.28,6.5Z" style="fill:#552c12"/><path d="M176.72,140.52l-6.64-10.17A145,145,0,0,0,156,134.68L169.27,155C171.8,150.18,174.24,145.33,176.72,140.52Z" style="fill:#552c12"/><path d="M179.65,123.85c-7.9.92-15.85,7.33-22.23,11.5-6,3.89-8.35,3-6.58,10.37.94,4.24,5.54,10.34,8.19,13.47,4.74,5.4,5.72,6,8.34,12.76,3,6.51,2.47,7.5,9.54,5.3,5.51-1.78,7.23-4.72,10.65-8.78,4.12-3.91,8.22-4.15,11.49-7.51,11.52-11.17-5.41-40.79-19.4-37.11" style="fill:#77401b"/><path d="M234,94.77c18.07,4.26,39.26,14.53,48.91,31.05,9.5,16.27,8.24,36.42,4.43,54.18-1.63,7.61-3.75,15.1-6.12,22.51-1.6,5-3.17,13.86-8.42,16.41-4.7,2.3-5.89-5.64-10.95-4.44-6.5-25.56-12.79-26.34-35.18-22.22" style="fill:#c19526"/><path d="M80,187.54c.17,1-19.76-36.78-13.09-47.58s59-45.77,89.07-48.12l-9.82,74.85s-28.94,47.82-32.59,49.64-12.57-4.24-23.43-12" style="fill:#f6cc0f"/><rect x="204.63" y="249.9" width="8.51" height="37.03" style="fill:#a97c2c"/><path d="M272.51,179.27c0,40.79-37.76,73.86-84.33,73.86h0c-46.58,0-84.34-33.07-84.34-73.86V145.21c0-40.79,37.76-58.61,84.34-58.61h0c46.57,0,84.33,17.82,84.33,58.61Z" style="fill:#f6cc0f"/><path d="M207.53,87.71c6.57,44.26,6.85,91.1-5.07,134.4a309.62,309.62,0,0,1-10.41,30.94c44.78-1.78,80.46-34.13,80.46-73.78V145.21C272.51,110.25,244.77,92.17,207.53,87.71Z" style="fill:#c19526"/><rect x="226.29" y="95.21" width="16.26" height="111.42" style="fill:#77401b"/><rect x="134.8" y="95.21" width="16.26" height="111.42" style="fill:#77401b"/><path d="M234.43,134.4c-5.53,9.86-3.11,21.73,5.4,26.5s19.9.65,25.43-9.21,3.11-21.72-5.4-26.5S240,124.54,234.43,134.4Z" style="fill:#fbc083"/><path d="M235.21,139.24c-3.53,6.31-2,13.9,3.46,17s12.73.42,16.27-5.89,2-13.9-3.46-17S238.75,132.93,235.21,139.24Z" style="fill:#d09559"/><path d="M170.76,98.7c-5.53,9.86-16.92,14-25.43,9.21s-10.94-16.64-5.41-26.51,16.92-14,25.43-9.2S176.29,88.83,170.76,98.7Z" style="fill:#fbc083"/><path d="M166.22,100.55c-3.54,6.31-10.83,9-16.27,5.89s-7-10.64-3.46-17,10.82-8.95,16.27-5.89S169.75,94.24,166.22,100.55Z" style="fill:#d09559"/><path d="M245,139.93c-15.66,27.91-47,40.07-70,27.16s-29-46-13.33-73.9,47-40.08,70-27.17S260.64,112,245,139.93Z" style="fill:#fbc083"/><path d="M246.44,80.35c3.14,13.92.92,30.13-7.36,44.9-15.65,27.91-47,40.07-70,27.17a40.82,40.82,0,0,1-14.78-14.34c2.8,12.38,9.85,22.93,20.69,29,23,12.91,54.36.75,70-27.16C256.42,119.53,256.3,96.38,246.44,80.35Z" style="fill:#d09559"/><path d="M231.85,133c-3.6,6.41-9,10.21-12.09,8.49s-2.66-8.33.94-14.74,9-10.22,12.09-8.49S235.45,126.6,231.85,133Z"/><path d="M232.28,129.43c-1.28,2.26-3.14,3.63-4.17,3s-.84-2.88.43-5.15,3.14-3.63,4.17-3S233.55,127.16,232.28,129.43Z" style="fill:#fff"/><path d="M184.63,106.53c-3.59,6.41-9,10.21-12.08,8.49s-2.66-8.33.93-14.74,9-10.21,12.09-8.49S188.23,100.12,184.63,106.53Z"/><path d="M185.06,103c-1.27,2.26-3.14,3.63-4.17,3.06s-.83-2.89.44-5.15,3.13-3.64,4.16-3.06S186.33,100.68,185.06,103Z" style="fill:#fff"/><path d="M252.16,129.16l-1.36,1.46a56.4,56.4,0,0,0,.29-5.79Z" style="fill:#dc4726"/><path d="M195.27,158.89c7.58-8.82,6.86-15.34,16.26-8.5,12.31,9,31.94-11.82,39.27-19.77-.85,9.69-3.5,25.25-6.07,33.6-.27.79-.56,1.55-.87,2.29a36.45,36.45,0,0,1,3.28,16.8c-2.78-2.45-5.8-5.86-8.61-8.41-.18.2-.36.39-.55.58-.57,5.87.31,12.6-3.33,17.63-1.82-3.84-2.8-8.29-4.2-12.43a30.49,30.49,0,0,1-3.52,1.36c-2.28,4.92-5.56,9-10.63,11.06-.29-2.85.53-6,1.65-9.34-1.25.11-2.52.17-3.8.19a47.52,47.52,0,0,1-10.08,6,27.4,27.4,0,0,1,2.79-6.28c-9.16-.76-18.46-3-26.2-5C184,171.24,190.36,164.54,195.27,158.89Z" style="fill:#dc4726"/><path d="M168.83,82.43c-.16.54-.34,1.19-.55,1.92,1.89-1.4,3.54-2.53,4.8-3.27Z" style="fill:#dc4726"/><path d="M173.12,146.47c3.58-11.06,9.52-13.85-1.22-18.3-14.08-5.82-6.57-33.42-3.62-43.82-7.81,5.78-19.71,16.16-25.49,22.7-.54.64-1,1.29-1.51,1.93-5.59.84-11.27,2.55-16,6,3.54,1.1,8,1.89,11.66,3-.07.25-.14.51-.2.77-4.72,3.55-10.92,6.3-13.31,12,4.23-.46,8.53-1.94,12.8-2.9a31.74,31.74,0,0,0,.67,3.71c-3,4.51-4.79,9.44-3.89,14.84,2.58-1.24,4.88-3.61,7.11-6.28.56,1.13,1.17,2.24,1.82,3.35a47.48,47.48,0,0,0,.12,11.73,27.23,27.23,0,0,0,3.9-5.65c5.43,7.42,12.19,14.18,17.91,19.75C168.48,162.54,170.87,153.61,173.12,146.47Z" style="fill:#dc4726"/><path d="M213.85,98.41c15.57,8.74,30.06,17.71,42.94,26.48.95-1.36,1.84-2.77,2.67-4.25a50.66,50.66,0,0,0-88.37-49.55c-.82,1.47-1.56,3-2.23,4.48C183.06,82,198.27,89.68,213.85,98.41Z" style="fill:#dac559"/><path d="M215.41,106.4c1.69-2.78,3.42-5.75,5.16-8.85,10.07-18,16.52-33.47,14.41-34.65s-12,12.41-22,30.37c-1.73,3.1-3.36,6.12-4.86,9Z" style="fill:#8c703f"/><path d="M240.05,51.69a51.09,51.09,0,0,0-6.76-3.17c13.57,15.86,16,41.35,4.87,64.26,6.51,4,12.74,8.1,18.63,12.11.95-1.36,1.84-2.77,2.67-4.25A50.65,50.65,0,0,0,240.05,51.69Z" style="fill:#a29954"/><path d="M266.17,132.65c-1.41,2.51-26.5-8.88-56-25.45s-52.34-32-50.93-34.53,26.49,8.88,56,25.44S267.57,130.14,266.17,132.65Z" style="fill:#8c703f"/><rect x="190.9" y="103.27" width="24.94" height="38.21" transform="translate(-2.84 239.9) rotate(-60.72)" style="fill:#552e15"/><path d="M236.86,141.42c-4.86,8.67-15.3,12-23.33,7.54s-10.6-15.18-5.74-23.84,15.3-12,23.33-7.53S241.72,132.76,236.86,141.42Z" style="fill:#cb7429"/><path d="M234.52,140.11c-4.07,7.27-12.84,10.11-19.58,6.33s-8.89-12.74-4.81-20,12.84-10.1,19.58-6.32S238.6,132.84,234.52,140.11Z" style="fill:#252b49"/><path d="M235.32,126.3a13.42,13.42,0,0,0-2.51-3.77l-24.26,7.83a15.59,15.59,0,0,0-.46,4.73Z" style="fill:#fcfdff"/><path d="M194.22,117.51c-4.86,8.66-15.31,12-23.33,7.53s-10.6-15.17-5.74-23.83,15.3-12,23.33-7.54S199.08,108.85,194.22,117.51Z" style="fill:#cb7429"/><path d="M191.88,116.2c-4.08,7.27-12.84,10.1-19.58,6.32s-8.89-12.73-4.82-20,12.85-10.1,19.59-6.33S196,108.93,191.88,116.2Z" style="fill:#252b49"/><path d="M192.67,102.38a13.56,13.56,0,0,0-2.5-3.76l-24.26,7.83a15.52,15.52,0,0,0-.46,4.72Z" style="fill:#fcfdff"/><path d="M242.56,125.61a5.53,5.53,0,0,1-7.37-2.61L228,107.68a5.51,5.51,0,0,1,2.67-7.34h0a5.52,5.52,0,0,1,7.37,2.6l7.23,15.32a5.53,5.53,0,0,1-2.66,7.35Z" style="fill:#dc4726"/><path d="M200.12,85.4a5.52,5.52,0,0,1-5.28,5.76l-16.93.66a5.53,5.53,0,0,1-5.72-5.33h0a5.53,5.53,0,0,1,5.29-5.76l16.92-.66a5.53,5.53,0,0,1,5.72,5.33Z" style="fill:#dc4726"/><path d="M190.56,154.63c-3.29,8.5-9.25,14.11-13.32,12.54s-4.69-9.74-1.41-18.23,9.25-14.11,13.31-12.53S193.84,146.14,190.56,154.63Z" style="fill:#5e1919"/><path d="M181.29,158.14c-2-3-5.14-1.52-7.56.8-.06,4.15,1.14,7.31,3.51,8.23,1.52.58,3.3.17,5.1-1C182.69,163.29,182.74,160.3,181.29,158.14Z" style="fill:#f48577"/><path d="M218.06,149.12c-5.26,9.38-20.77,10.68-34.64,2.91S162.57,130.34,167.84,121s20.77-10.69,34.64-2.91S223.33,139.73,218.06,149.12Z" style="fill:#d95b4a"/><path d="M210.88,124.25c3.2,5.87,3.81,12,1.05,17-5.26,9.38-20.77,10.69-34.64,2.91a41.21,41.21,0,0,1-8.4-6.21A37.1,37.1,0,0,0,183.42,152c13.87,7.77,29.38,6.47,34.64-2.91C222.12,141.89,218.91,132,210.88,124.25Z" style="fill:#a9473a"/><path d="M191.94,135.87c-1.52,2.71-7.13,2.46-12.53-.56s-8.53-7.68-7-10.39,7.13-2.46,12.53.56S193.46,133.16,191.94,135.87Z" style="fill:#f48577"/><path d="M203,215.06c-11.08,0-22.18.05-33.24-.62a109.82,109.82,0,0,1-14.69-1.62c-4.64-.9-9.1-2.21-13.8-2.83-11.13-1.46-23.21-1.87-34.25-5a83.37,83.37,0,0,0,161.62,4.76C247.62,215.57,224.05,215.06,203,215.06Z" style="fill:#ca982c"/><path d="M208.32,215.07c-.62,16.61-2.8,33.07-10.53,48.17-1.21,2.38-2.55,4.68-4,6.92a83.4,83.4,0,0,0,74.85-60.45C249.36,215.09,227.94,215.1,208.32,215.07Z" style="fill:#a97c2c"/><path d="M103.49,219.52c0-4.38,61.55,35.16,169,0V189.85c-107.47,35.16-169-4.39-169,0" style="fill:#77401b"/><rect x="176.23" y="221.32" width="23.89" height="12.9" style="fill:none;stroke:#727a7d;stroke-miterlimit:10;stroke-width:2.237519884324756px"/><rect x="176.23" y="203.43" width="23.89" height="12.9" style="fill:none;stroke:#727a7d;stroke-miterlimit:10;stroke-width:2.237519884324756px"/><path d="M272.21,204.69c-107.46,35.15-169-4.39-169,0" style="fill:none;stroke:#532b13;stroke-miterlimit:10;stroke-width:2.237519884324756px"/><path d="M224.19,276.71V286c13.49,1,24,8.84,24,18.32H194.11V276.71Z" style="fill:#c05827"/><rect x="194.11" y="276.71" width="12.52" height="27.57" style="fill:#a73e24"/><path d="M229.53,286.54c-7.52-1.08-7.16,10-14.32,2.5,4.3-6.08,10-10.74,13.61-2.15" style="fill:#bbbbbc"/><path d="M94.53,207.8c9,8.95,35.26,11,46.31,5.26,22.63-12.1-5.79-43.15-11.58-57.88-4.21-10-3.68-27.37-18.42-24.73-10.52,1.57-22.62,15.78-22.1,25.78" style="fill:#f6cc0f"/><path d="M128.61,269.48c-.65,2-1.6,3.53-2.13,3.36l-.58-.18c-.53-.17-.44-2,.2-4l11-36.52c.64-2,1.77-3.47,2.53-3.23l.82.26c.75.24.84,2.08.19,4.1Z" style="fill:#080808"/><path d="M145.62,230.39a3.85,3.85,0,0,1-4.83,2.5l-2.2-.7a3.84,3.84,0,0,1-2.5-4.83l9.57-37c.65-2,3.49-2.93,6.36-2l3.12,1c2.86.91,4.67,3.29,4,5.31Z" style="fill:#3d3d3e"/><path d="M171.44,175.57a12,12,0,1,1-12-12A12,12,0,0,1,171.44,175.57Z" style="fill:#8d8d8d"/><path d="M171.47,179.08a.94.94,0,0,1-1.17.66l-22.5-6.26a1,1,0,0,1-.66-1.17h0a.94.94,0,0,1,1.16-.66l22.51,6.26a1,1,0,0,1,.66,1.17Z" style="fill:#3d3d3e"/><path d="M164.68,187.64c-2.84-6-9-4.81-13.88-7.16-2.57-.9-1.74-5.77-4.34-6.31-8.24-1.69-11.22,3.24-12.58,7.13l0,0c-4.47-.18-9.8,0-11.5,5.54-1.19,4.39,2.14,22.65,5.26,26.8,2.36,3.47,7.08,5.5,11.4,2.81a6,6,0,0,0,1.28-1.37c5.33,3.69,15.87,3.25,19.53.3C167.82,208.88,168.84,197,164.68,187.64Z" style="fill:#77401b"/><path d="M161.24,291.61l-8.63-3.31c-5.8,12.23-16.84,19.24-25.7,15.85l8.59-22.41,10.76-28.09L172,263.52Z" style="fill:#c05827"/><rect x="150.63" y="250.65" width="12.52" height="27.57" transform="translate(-146.17 316.34) rotate(-69.04)" style="fill:#a73e24"/><path d="M150.16,293.08c3.69-6.63-6.8-10.27,2.78-14.27,4.15,6.19,6.44,13.21-2.86,13.48" style="fill:#bbbbbc"/></svg>