<svg id="Capa_1" data-name="Capa 1" xmlns="http://www.w3.org/2000/svg" viewBox="0 0 361 305"><path d="M231.72,132.7c0-1.38,6.88-5.51,9.64-4.13,6,2.29,6,16.52,6.88,21.57,2.76,16.53,4.13,28.46-7.34,41.77,0-6.42-.92-11.93-1.84-18.36" style="fill:#a0b4dc"/><rect x="227.27" y="218.15" width="23.2" height="37.55" transform="translate(-72.98 363.17) rotate(-66.81)" style="fill:#4a5b75"/><path d="M252.71,219l10.9,4.67c8-15.38,22.53-23.8,33.71-19L285.2,232.94,270,268.39l-32.49-13.92Z" style="fill:#2e3a54"/><rect x="248.91" y="236.38" width="16.05" height="35.35" transform="translate(-77.77 390.17) rotate(-66.81)" style="fill:#20314a"/><path d="M267,217.69c-5.06,8.31,8.2,13.5-4.28,18.14-5-8.14-7.59-17.24,4.34-17.12" style="fill:#bbbbbc"/><rect x="103.35" y="225.32" width="37.55" height="23.2" transform="translate(-83.44 67.25) rotate(-23.19)" style="fill:#4a5b75"/><path d="M126.36,136.5c0-1.38-6.89-5.51-9.64-4.13-6,2.29-6,16.52-6.89,21.57-2.75,16.53-4.13,28.46,7.34,41.77,0-6.42.92-11.93,1.84-18.36" style="fill:#a0b4dc"/><path d="M151.39,233.78c21.32-.35,42.57-1.69,63.86-2.86q11-.61,22-1.12A72,72,0,1,0,122,233.72Q136.71,234,151.39,233.78Z" style="fill:#dff2fc"/><path d="M201.74,120.52a135.36,135.36,0,0,1,6.7,41.77c-.05,21-4.7,41.62-11.88,61.26q-1.58,4.3-3.23,8.59l21.92-1.22q11-.61,22-1.12a72,72,0,0,0-35.47-109.28Z" style="fill:#a0b4dc"/><path d="M223.9,211.8l1.78-18.21h-97.3l1.67,17a136.56,136.56,0,0,1-25-10c4.91,33.13,33.06,58.54,67.05,58.54h14c34,0,62.14-25.41,67-58.54A139.18,139.18,0,0,1,223.9,211.8Z" style="fill:#4e607d"/><path d="M223.9,211.8l1.78-18.21H190.62c.48,7.13,1.25,14.28.81,21.28a143.42,143.42,0,0,1-6.83,35.91q-1.38,4.2-3,8.31h4.47c34,0,62.14-25.41,67-58.54A139.18,139.18,0,0,1,223.9,211.8Z" style="fill:#4a5b75"/><path d="M236.64,145.58c7.65,8.27,11.83,21.58,9,31.22-1.39,6.88-11.83,25.71-23,27.54-21.58,4.13-1.4-17.44.69-21.11,6.27-8.73,6.27-20.2,2.79-29.38-.7-2.3-2.09-5-2.79-7.35" style="fill:#46556e"/><path d="M120,145.58c-7.66,8.27-11.84,21.58-9.05,31.22,1.39,6.88,11.83,25.71,23,27.54,21.57,4.13,1.39-17.44-.7-21.11C127,174.5,127,163,130.48,153.85c.69-2.3,2.08-5,2.78-7.35" style="fill:#46556e"/><path d="M108.29,219l-10.9,4.67c-8-15.38-22.53-23.8-33.71-19L75.8,232.94,91,268.39l32.49-13.92Z" style="fill:#2e3a54"/><rect x="86.39" y="246.02" width="35.35" height="16.05" transform="translate(-91.64 61.52) rotate(-23.19)" style="fill:#20314a"/><path d="M94,217.69c5.06,8.31-8.2,13.5,4.28,18.14,5-8.14,7.59-17.24-4.34-17.12" style="fill:#bbbbbc"/><path d="M140.36,195.1a6.52,6.52,0,1,1-6.52-6.52A6.52,6.52,0,0,1,140.36,195.1Z" style="fill:#5b788c"/><path d="M139,195.1a6.52,6.52,0,1,1-6.52-6.52A6.52,6.52,0,0,1,139,195.1Z" style="fill:#9bb1c3"/><path d="M232.5,195.42A6.52,6.52,0,1,1,226,188.9,6.52,6.52,0,0,1,232.5,195.42Z" style="fill:#5b788c"/><path d="M231.12,195.42a6.52,6.52,0,1,1-6.52-6.52A6.52,6.52,0,0,1,231.12,195.42Z" style="fill:#9bb1c3"/><path d="M178.54,233.56v-.87l-25.65-7.5V199h54.3v26.18l-25.65,7.5v.87l-1.5-.44Zm1.5-2.47h0l25.2-7.36V201h-50.4v22.77Z" style="fill:#46556e"/><polygon points="168.95 299.24 192.99 299.29 189.15 176.03 174.11 175.97 168.95 299.24" style="fill:#5f4424"/><polygon points="163.01 285.63 199.09 285.71 198.99 305 162.9 304.93 163.01 285.63" style="fill:#74869a"/><polygon points="161.34 301.01 201.95 301.01 181.64 270.73 161.34 301.01" style="fill:#98a4b1"/><path d="M160.59,177.89l-41.28-28.13-.51.87a22.5,22.5,0,0,1-1.78,7.22s0,0,0,.05h0c0,.12-.1.25-.16.37a1.28,1.28,0,0,1-1.61.67c0,.05,0,.11,0,.17a1.4,1.4,0,0,1-.79,1c2.9,12.41,8,24.43,13.81,35.81,6.75,13.77,17,19,27.7,28.6l.83.38c3.9-7.29,9.25-14.42,13.57-21.52C176.37,192.49,165.81,188.42,160.59,177.89Z" style="fill:#9e5431"/><path d="M179.65,199.59c-3-3.41-6.77-7.21-12-4.6-4.05,2.17-15.13,17.26-16,22.42-.91,4.13.87,9,5.83,10.31,4.75.69,6.27-3.66,9-7.44,4.54-6.49,9.42-15.87,15.24-20.75" style="fill:#552e15"/><path d="M176.72,201.09c3-1.57,11-6.72,16.9,2.78,1.41,2.28-2.73,5-1.61,7.56,1.67,5.23,6.82,8.87,4.36,15.15-4,9.53-13.41,17-23.75,15.67-6-.82-16.87-12.81-12.33-19.61" style="fill:#552e15"/><path d="M154.06,196.81c.16.17-.81,1.3-2.31,3.15-.75.91-1.61,2-2.55,3.28s-1.89,2.67-2.81,4.21a34.62,34.62,0,0,0-2.24,4.48,20.1,20.1,0,0,0-1.14,3.88c-.42,2.27-.2,3.75-.47,3.8s-.83-1.41-.69-3.93a15.87,15.87,0,0,1,.87-4.28,27.46,27.46,0,0,1,2.25-4.8,38.94,38.94,0,0,1,3-4.3,41.24,41.24,0,0,1,2.9-3.14C152.65,197.48,153.92,196.64,154.06,196.81Z" style="fill:#9f9b97"/><path d="M149.48,195.12c.13.22-.85,1-2.08,2.52a32,32,0,0,0-4,6.57,33.12,33.12,0,0,0-1.52,4,21.14,21.14,0,0,0-.74,3.36c-.28,1.93-.08,3.16-.33,3.23s-.83-1.16-.84-3.3a15.68,15.68,0,0,1,.44-3.69,23.11,23.11,0,0,1,1.49-4.26,21.3,21.3,0,0,1,4.68-6.67C148.1,195.39,149.39,194.94,149.48,195.12Z" style="fill:#9f9b97"/><path d="M143.94,191.64c.22.09-.13,1.33-1.07,3.08s-2.41,4.05-3.66,6.66a14.69,14.69,0,0,0-1.28,3.76,6.57,6.57,0,0,0,.17,3.08c.55,1.7,1.5,2.58,1.3,2.77s-.37,0-.84-.38a5.7,5.7,0,0,1-1.55-2,6.21,6.21,0,0,1-.54-1.69,8.43,8.43,0,0,1-.05-2,13.16,13.16,0,0,1,1.29-4.27,42.42,42.42,0,0,1,4.17-6.57C143.06,192.54,143.73,191.56,143.94,191.64Z" style="fill:#9f9b97"/><path d="M205,247.56c-3.9-7.3-9.25-14.43-13.57-21.53-6.07-10.85,4.5-14.91,9.72-25.45l48.58-33.11c-1.31,17.83-7.95,35.1-16.2,51.1-6.75,13.78-17,19-27.69,28.6" style="fill:#9e5431"/><path d="M182.06,222.28c3-3.41,6.77-7.21,12-4.59,4,2.16,15.13,17.25,16,22.41.91,4.14-.87,9-5.83,10.31-4.74.69-6.27-3.66-9-7.43-4.54-6.5-9.42-15.87-15.24-20.76" style="fill:#552e15"/><path d="M185,223.78c-3-1.56-11-6.72-16.9,2.79-1.41,2.28,2.74,5.05,1.62,7.55-1.68,5.24-6.83,8.87-4.36,15.15,4,9.53,13.41,17,23.74,15.67,6-.82,16.87-12.81,12.33-19.61" style="fill:#552e15"/><path d="M207.64,219.5c-.16.18.81,1.31,2.31,3.15.75.91,1.62,2,2.55,3.28s1.89,2.68,2.81,4.21a35.27,35.27,0,0,1,2.24,4.48,20,20,0,0,1,1.14,3.89c.42,2.27.2,3.74.47,3.8s.83-1.42.7-3.94a16.33,16.33,0,0,0-.88-4.27,26.44,26.44,0,0,0-2.25-4.8,37.13,37.13,0,0,0-3-4.3,37.75,37.75,0,0,0-2.9-3.14C209.05,220.17,207.78,219.34,207.64,219.5Z" style="fill:#9f9b97"/><path d="M212.22,217.81c-.13.22.85,1,2.09,2.53a32.45,32.45,0,0,1,4,6.56,34.32,34.32,0,0,1,1.51,4,22.72,22.72,0,0,1,.75,3.36c.27,1.94.07,3.17.33,3.24s.82-1.16.84-3.31a15.6,15.6,0,0,0-.44-3.68,24.12,24.12,0,0,0-1.49-4.26,21.69,21.69,0,0,0-4.68-6.68C213.6,218.09,212.31,217.63,212.22,217.81Z" style="fill:#9f9b97"/><path d="M217.76,214.34c-.21.09.13,1.32,1.07,3.08s2.41,4,3.67,6.65a14.9,14.9,0,0,1,1.27,3.76,6.7,6.7,0,0,1-.16,3.08c-.56,1.71-1.51,2.59-1.31,2.78s.37,0,.84-.39a5.65,5.65,0,0,0,1.55-2,6.21,6.21,0,0,0,.54-1.69,8.43,8.43,0,0,0,.06-2,13.36,13.36,0,0,0-1.3-4.27,40.76,40.76,0,0,0-4.17-6.57C218.65,215.23,218,214.25,217.76,214.34Z" style="fill:#9f9b97"/><path d="M223,118.32a13.44,13.44,0,1,0,13.44-13.44A13.44,13.44,0,0,0,223,118.32Z" style="fill:#9e5431"/><path d="M225.29,120.84a8.6,8.6,0,1,0,8.6-8.6A8.6,8.6,0,0,0,225.29,120.84Z" style="fill:#733e1e"/><path d="M137.11,118.32a13.44,13.44,0,1,1-13.44-13.44A13.44,13.44,0,0,1,137.11,118.32Z" style="fill:#9e5431"/><path d="M134.79,120.84a8.6,8.6,0,1,1-8.6-8.6A8.6,8.6,0,0,1,134.79,120.84Z" style="fill:#733e1e"/><circle cx="180.04" cy="112.02" r="52.33" transform="translate(-10.16 18.29) rotate(-5.65)" style="fill:#9e5431"/><path d="M201.84,64.45a52.33,52.33,0,0,1-57.11,86.19,52.33,52.33,0,1,0,57.11-86.19Z" style="fill:#733e1e"/><path d="M248.71,167.25c.3-8.43-8.22-23.36-8.22-23.36,2.88-38.1-11.26-49.6-11.26-49.6,4.86,24.31-1,33-1,33l-6.88,5.86-15-7L183.69,131H176.8l-22.66-4.83-14.95,7-6.88-5.86s-5.91-8.72-1.05-33c0,0-14.14,11.5-11.25,49.6,0,0-8.53,14.93-8.23,23.36.29,8,62.23,24,68.21,25.62V193l.27-.07.26.07v-.14C186.48,191.21,248.43,175.23,248.71,167.25Z" style="fill:#9f9b97"/><path d="M178.15,171.77c20.85,0,37.76-14.79,37.76-33H140.39C140.39,157,157.29,171.77,178.15,171.77Z" style="fill:#fff"/><path d="M191.92,118.51c5.51-2.18,16.07-2.46,23-1.09,13.31,2.73,14.69,7.64,16.07,14.73,1.83,10.09-8.72,23.73,6,32.18-15.61,2.73-44.07-.54-53.71-8.72-5-4.37-3.67-11.19-4.13-16.37a141.31,141.31,0,0,1-.92-14.18" style="fill:#bbbbbc"/><path d="M165.35,118.51c-5.51-2.18-16.06-2.46-22.95-1.09-13.31,2.73-14.69,7.64-16.07,14.73-1.83,10.09,8.72,23.73-6,32.18,15.6,2.73,44.06-.54,53.7-8.72,5.05-4.37,3.68-11.19,4.13-16.37a141.31,141.31,0,0,0,.92-14.18" style="fill:#bbbbbc"/><path d="M151.12,126.14c-6.42,2.19-12.85,4.1-14.23,8.73,3.22-1.09,6-2.72,10.1-3.54-4.59,4.36-6,9.27-4.13,14.18,6.43-3,9.18-8.18,17.45-10.91-2.3,4.91-4.6,9.28,1.37,13.64,1.84-3.27,1.84-6.27,4.59-9.55,1.84-1.91,4.59-2.18,4.13-4.91" style="fill:#9f9b97"/><path d="M184.18,135.42c7.34,3,8.26,8.18,13.77,11.73h0c.91-3,0-6-.92-9,6,1.63,10.1,5.18,16.52,6,1.38-3.82-7.34-7.91-11.93-9.55,6.43-1.64,14.69.27,21.57.27.92-3.82-7.34-9.27-11.93-10.36" style="fill:#9f9b97"/><path d="M215.19,114.4c0,13.14-15.74,23.78-35.15,23.78s-35.15-10.64-35.15-23.78S160.63,90.61,180,90.61,215.19,101.26,215.19,114.4Z" style="fill:#d95b4a"/><path d="M192.7,92.21c6.91,4.34,11.24,10.54,11.24,17.43,0,13.14-15.74,23.78-35.15,23.78a50.51,50.51,0,0,1-12.66-1.59c6.28,3.94,14.67,6.35,23.91,6.35,19.41,0,35.15-10.64,35.15-23.78C215.19,104.28,205.86,95.65,192.7,92.21Z" style="fill:#a9473a"/><path d="M179.46,115.9c0,3.79-6.12,6.87-13.67,6.87s-13.67-3.08-13.67-6.87,6.12-6.88,13.67-6.88S179.46,112.1,179.46,115.9Z" style="fill:#f48577"/><path d="M156.28,283.68c-3.65-3.65-6.08-10.94-12.77-12.77,1.22,4.87,6.69,11.55,11,11.55" style="fill:#e3ab23"/><path d="M152.63,289.76c-4.25-2.43-9.12-4.26-14-3.65,3.65,3,11.55,7.3,14,1.22" style="fill:#e3ab23"/><path d="M203.71,278.82c-.61-4.26.61-9.73,5.47-10.34.61,4.26-2.43,7.9-4.25,10.94" style="fill:#e3ab23"/><path d="M209.79,283.68c3-1.22,12.77-6.08,14.59-.61s-10.94,4.26-12.16,0" style="fill:#e3ab23"/><path d="M191.61,90.3c11-13.08,37.19-11,34.43,10.33-8.95.69-43.38,6.2-35.12-10.33" style="fill:#9f9b97"/><path d="M167.78,90.3c-11-13.08-37.18-11-34.43,10.33,9,.69,43.38,6.2,35.12-10.33" style="fill:#9f9b97"/><path d="M179,91.6c18.32,0,35.78.69,51.71,1.94a41.89,41.89,0,0,0,.26-4.64c0-25.9-23.27-46.9-52-46.9s-52,21-52,46.9a44.48,44.48,0,0,0,.25,4.64C143.16,92.29,160.63,91.6,179,91.6Z" style="fill:#9bb1c3"/><path d="M179,42a58.12,58.12,0,0,0-7.64.51c20.1,6.66,35,26.17,36.61,49.69,7.85.32,15.47.77,22.74,1.34a41.89,41.89,0,0,0,.26-4.64C230.92,63,207.65,42,179,42Z" style="fill:#889dac"/><path d="M243,93.64c0,3.16-28.17,5.72-62.91,5.72s-62.9-2.56-62.9-5.72,28.16-5.71,62.9-5.71S243,90.49,243,93.64Z" style="fill:#5b788c"/><polygon points="189.25 92.99 167.68 92.99 167.68 21.58 189.25 14.8 189.25 92.99" style="fill:#fff5ca"/><polygon points="183.11 16.73 183.11 92.99 189.25 92.99 189.25 14.8 183.11 16.73" style="fill:#f4e6aa"/><path d="M170,20.72c-4.43-.52-3.39,5.58-3.39,9.06,0,1.57-1.63,6.45-1,7,2.22,1.39,2.22-5.4,3.25-6.1.89,1.05.59,4.88,2.36,3.31,1.48-1-.29-3.83.89-5.05,1.92-1.92,3,1.92,3,3.48,0,2.27-.88,3.84-1.33,6.1-.88,5.4,4.14,6.1,4.87,1,.3-2.62-2.65-9.06-.29-10.28,2.21-1.22,1.18,1.57,2.21,2.44,1.78,1.74,1.63-.35,2.22-1.4s.44-3.65,2.21-2.09c1.48,1.22,0,3.14-.29,4.53s-.59,3.66.88,3.84c2.66.34,1-3,1.18-3.66.45-2.44.15-1.57,1.19,0,.73,1.22.59,3,2.65,2.44.59-2.09-.44-3.49-.88-5.4a30.51,30.51,0,0,1-.15-5.23c0-2.79,1.92-8.19-.15-9.93-1.62-1.57-6.49,2.09-8.71,2.78-2.8.7-5.61,1.22-8.41,2.1-.74.17-1.33.69-2.07.87" style="fill:#ffe286"/><path d="M176.76,21.33c-6.94-5.4.59-9.58.45-16.55,2.65,1,4.57,6.45,4.13,9.58-.59,4.88-1.18,6.1-4.58,7" style="fill:#ed2c24"/><path d="M177.16,20.93c-3.68-2.87.31-5.08.24-8.78,1.41.55,2.42,3.42,2.19,5.08-.31,2.59-.63,3.24-2.43,3.7" style="fill:#ffd244"/></svg>