<svg id="Capa_1" data-name="Capa 1" xmlns="http://www.w3.org/2000/svg" viewBox="0 0 361 305"><polygon points="214.48 53.26 212.1 40.47 221.51 31.91 233.31 36.16 235.7 48.95 226.28 57.5 214.48 53.26" style="fill:#332a2b"/><polygon points="188.46 53.71 186.08 40.92 195.5 32.37 207.3 36.61 209.68 49.4 200.26 57.95 188.46 53.71" style="fill:#332a2b"/><polygon points="168.95 51.67 166.57 38.88 175.99 30.33 187.78 34.57 190.17 47.36 180.75 55.92 168.95 51.67" style="fill:#332a2b"/><polygon points="142.94 51.67 140.55 38.88 149.97 30.33 161.77 34.57 164.15 47.36 154.73 55.92 142.94 51.67" style="fill:#332a2b"/><polygon points="171.28 33.23 177.84 44.32 171.93 55.79 159.46 56.18 152.9 45.1 158.81 33.62 171.28 33.23" style="fill:#020202"/><polygon points="180.84 55.2 177.24 42.73 185.78 33.23 197.93 36.21 201.53 48.69 192.99 58.19 180.84 55.2" style="fill:#020202"/><polygon points="223.32 50.84 216.33 61.64 203.89 60.71 198.43 48.99 205.42 38.2 217.87 39.12 223.32 50.84" style="fill:#020202"/><rect x="212.15" y="29.76" width="9.64" height="13.28" transform="translate(79.69 208.32) rotate(-60.92)" style="fill:#8dbcd2"/><path d="M220.53,44.18l-12-6.7,4.93-8.85,12,6.69Zm-11.37-6.89,11.17,6.22,4.45-8L213.61,29.3Z" style="fill:#c9e4ee"/><polyline points="225.12 35.42 227.25 49.71 220.43 43.84" style="fill:#64a4c3"/><polygon points="227.59 50.33 220.27 44.03 220.59 43.66 226.91 49.09 224.88 35.45 225.36 35.38 227.59 50.33" style="fill:#c9e4ee"/><polyline points="207.76 52.97 227.25 49.71 220.43 43.84" style="fill:#c9e4ee"/><polygon points="207.8 53.21 207.72 52.73 226.69 49.55 220.27 44.03 220.59 43.66 227.81 49.87 207.8 53.21" style="fill:#c9e4ee"/><polyline points="213.51 28.96 200.25 34.69 208.82 37.39" style="fill:#c9e4ee"/><polygon points="199.54 34.73 213.41 28.73 213.61 29.19 200.95 34.65 208.9 37.15 208.75 37.62 199.54 34.73" style="fill:#c9e4ee"/><polyline points="220.43 43.84 207.76 52.97 208.82 37.39" style="fill:#64a4c3"/><polygon points="207.47 53.48 208.58 37.37 209.07 37.41 208.04 52.46 220.29 43.64 220.57 44.04 207.47 53.48" style="fill:#c9e4ee"/><polyline points="207.76 52.97 200.25 34.69 208.82 37.39" style="fill:#8dbcd2"/><polygon points="207.53 53.06 199.82 34.3 208.9 37.15 208.75 37.62 200.67 35.08 207.99 52.88 207.53 53.06" style="fill:#c9e4ee"/><polygon points="149.21 63.13 151.29 51.98 143.41 44.44 133.45 48.05 131.36 59.2 139.24 66.74 149.21 63.13" style="fill:#332a2b"/><polygon points="171.11 63.73 173.2 52.58 165.32 45.04 155.35 48.65 153.27 59.8 161.15 67.34 171.11 63.73" style="fill:#332a2b"/><polygon points="187.56 62.1 189.64 50.95 181.76 43.41 171.8 47.02 169.72 58.17 177.6 65.71 187.56 62.1" style="fill:#332a2b"/><polygon points="209.47 62.3 211.55 51.16 203.68 43.62 193.71 47.23 191.63 58.38 199.51 65.92 209.47 62.3" style="fill:#332a2b"/><polygon points="234.1 69.8 242.59 63.09 241.47 51.78 231.85 47.16 223.37 53.86 224.49 65.18 234.1 69.8" style="fill:#020202"/><polygon points="217.17 65.1 227.49 62.95 230.91 52.2 224.02 43.6 213.7 45.75 210.28 56.5 217.17 65.1" style="fill:#332a2b"/><polygon points="208.36 71.54 218.68 69.39 222.1 58.64 215.21 50.04 204.89 52.19 201.47 62.95 208.36 71.54" style="fill:#020202"/><polygon points="185.71 45.98 180.12 55.61 185.03 65.68 195.53 66.11 201.12 56.48 196.21 46.42 185.71 45.98" style="fill:#020202"/><polygon points="177.53 65.09 180.63 54.23 173.5 45.87 163.25 48.38 160.14 59.24 167.28 67.6 177.53 65.09" style="fill:#020202"/><polygon points="141.77 60.95 147.59 70.43 158.08 69.72 162.75 59.53 156.93 50.05 146.44 50.76 141.77 60.95" style="fill:#020202"/><polygon points="233.37 80.35 230.98 67.56 240.4 59.01 252.2 63.25 254.58 76.05 245.16 84.6 233.37 80.35" style="fill:#332a2b"/><polygon points="207.35 80.81 204.97 68.01 214.38 59.46 226.18 63.7 228.56 76.5 219.15 85.05 207.35 80.81" style="fill:#332a2b"/><polygon points="187.84 78.77 185.45 65.98 194.87 57.42 206.67 61.67 209.05 74.46 199.63 83.01 187.84 78.77" style="fill:#332a2b"/><polygon points="161.82 78.77 159.44 65.98 168.85 57.42 180.65 61.67 183.03 74.46 173.62 83.01 161.82 78.77" style="fill:#332a2b"/><polygon points="132.53 84.75 122.51 76.99 123.94 64.04 135.39 58.85 145.41 66.62 143.98 79.57 132.53 84.75" style="fill:#020202"/><polygon points="152.66 81.89 140.43 79.31 136.45 66.96 144.7 57.19 156.93 59.76 160.91 72.12 152.66 81.89" style="fill:#b3812c"/><path d="M146.05,67.24c4.07-1.15,8.22-2,12.36-2.89l-1.48-4.59L144.75,57.2C145.14,60.51,145,64.07,146.05,67.24Z" style="fill:#e3ab23"/><polygon points="163.06 89.36 150.83 86.79 146.85 74.43 155.1 64.66 167.34 67.24 171.31 79.59 163.06 89.36" style="fill:#020202"/><polygon points="190.16 60.33 196.72 71.41 190.81 82.89 178.34 83.28 171.78 72.19 177.69 60.72 190.16 60.33" style="fill:#020202"/><polygon points="199.72 82.3 196.12 69.82 204.67 60.33 216.81 63.31 220.41 75.79 211.87 85.28 199.72 82.3" style="fill:#020202"/><polygon points="242.21 77.94 235.22 88.73 222.77 87.81 217.31 76.09 224.3 65.29 236.75 66.22 242.21 77.94" style="fill:#020202"/><polygon points="143.3 93.43 146.18 80.77 137.88 71.77 126.7 75.44 123.82 88.1 132.12 97.09 143.3 93.43" style="fill:#332a2b"/><polygon points="161.78 87.59 164.66 74.93 156.35 65.93 145.17 69.6 142.29 82.26 150.6 91.25 161.78 87.59" style="fill:#332a2b"/><polygon points="185.59 95.64 188.47 82.97 180.16 73.98 168.99 77.64 166.1 90.3 174.41 99.3 185.59 95.64" style="fill:#332a2b"/><polygon points="203.82 94.55 206.7 81.89 198.4 72.89 187.22 76.55 184.34 89.21 192.64 98.21 203.82 94.55" style="fill:#332a2b"/><polygon points="227.98 95.81 230.86 83.15 222.56 74.15 211.38 77.81 208.5 90.48 216.8 99.47 227.98 95.81" style="fill:#332a2b"/><polygon points="254.87 103.2 264.59 95.94 263.94 82.94 253.57 77.2 243.86 84.47 244.51 97.47 254.87 103.2" style="fill:#020202"/><polygon points="236.33 99.37 247.83 97.39 252.17 85.25 245.01 75.08 233.51 77.06 229.18 89.21 236.33 99.37" style="fill:#332a2b"/><polygon points="226.28 106.33 237.77 104.35 242.11 92.2 234.96 82.04 223.46 84.02 219.12 96.17 226.28 106.33" style="fill:#020202"/><polygon points="202.62 76.02 195.94 86.77 200.84 98.52 212.4 99.51 219.07 88.76 214.18 77.01 202.62 76.02" style="fill:#020202"/><polygon points="192.59 97.5 196.59 85.21 189.14 75.31 177.71 77.7 173.71 89.99 181.15 99.89 192.59 97.5" style="fill:#020202"/><polygon points="153.36 91.08 159.29 102.2 170.9 101.88 176.58 90.44 170.65 79.32 159.04 79.64 153.36 91.08" style="fill:#020202"/><polygon points="143.21 97.45 153.76 91.89 154.86 78.9 145.4 71.48 134.84 77.04 133.75 90.03 143.21 97.45" style="fill:#020202"/><polygon points="130.97 97.55 133.85 84.89 125.55 75.89 114.36 79.55 111.48 92.21 119.79 101.21 130.97 97.55" style="fill:#020202"/><polygon points="236.04 112.08 233.65 99.29 243.07 90.74 254.87 94.98 257.25 107.77 247.83 116.33 236.04 112.08" style="fill:#332a2b"/><polygon points="216.52 105.29 214.14 92.5 223.56 83.94 235.36 88.19 237.74 100.98 228.32 109.53 216.52 105.29" style="fill:#332a2b"/><polygon points="190.51 112.08 188.13 99.29 197.54 90.74 209.34 94.98 211.72 107.77 202.31 116.33 190.51 112.08" style="fill:#332a2b"/><polygon points="171 110.05 168.61 97.25 178.03 88.7 189.83 92.94 192.21 105.74 182.79 114.29 171 110.05" style="fill:#332a2b"/><polygon points="144.98 110.05 142.6 97.25 152.01 88.7 163.81 92.94 166.19 105.74 156.78 114.29 144.98 110.05" style="fill:#332a2b"/><polygon points="115.69 116.03 105.67 108.27 107.09 95.32 118.54 90.13 128.57 97.89 127.14 110.84 115.69 116.03" style="fill:#020202"/><polygon points="135.81 116.64 123.58 114.07 119.61 101.72 127.86 91.94 140.09 94.52 144.07 106.87 135.81 116.64" style="fill:#332a2b"/><polygon points="146.22 120.64 133.99 118.06 130.01 105.71 138.26 95.94 150.5 98.51 154.47 110.86 146.22 120.64" style="fill:#020202"/><polygon points="173.32 91.6 179.88 102.69 173.97 114.17 161.5 114.56 154.94 103.47 160.85 91.99 173.32 91.6" style="fill:#020202"/><polygon points="182.88 113.58 179.28 101.1 187.83 91.6 199.97 94.59 203.57 107.06 195.03 116.56 182.88 113.58" style="fill:#020202"/><polygon points="225.37 109.21 218.38 120.01 205.93 119.08 200.47 107.36 207.46 96.57 219.91 97.49 225.37 109.21" style="fill:#020202"/><polygon points="235.91 116.1 224.88 110 224.43 96.98 235 90.06 246.03 96.16 246.48 109.18 235.91 116.1" style="fill:#020202"/><polygon points="249.04 116.84 246.66 104.05 256.08 95.49 267.88 99.74 270.26 112.53 260.84 121.08 249.04 116.84" style="fill:#020202"/><path d="M187.41,119.17c-31.6,0-60.52-3.88-82.82-10.3,0,.9-.06,1.81-.06,2.73V212a67.93,67.93,0,0,0,67.93,67.93h29.9A67.93,67.93,0,0,0,270.29,212V111.6q0-1.38-.06-2.73C247.94,115.29,219,119.17,187.41,119.17Z" style="fill:#603f6b"/><path d="M270.23,108.87c-16.1,4.63-35.67,7.95-57.2,9.43.95,32.19,3.29,64.37,1.31,96.55a312.16,312.16,0,0,1-11,65A67.93,67.93,0,0,0,270.29,212V111.6Q270.29,110.22,270.23,108.87Z" style="fill:#432b4a"/><rect x="203.77" y="253.6" width="14.52" height="35.32" style="fill:#fbc083"/><path d="M149.1,183c-4-7.54-11-2.32-15.06,1.73A92.12,92.12,0,0,0,118,212.18c-7-5.38-17.06-.74-23.34-11.2-5.21,2.9-4.63,9.27-1.73,13.33,1.73,2.31,4.63,1.73,6.37,3.47,2,1.5,2.28,3.84,3.78,5.58-7.87,9.6-14.07,33.56,1.44,37.3,13.9,3.48,11.58-11,16.8-20.28,2.9-5.21,7.53-7.53,6.37-13.91a13.4,13.4,0,0,0-2.7-4.1,3.13,3.13,0,0,0-.11-1.34c4.42-8.41,11.75-16.57,16.72-22.37C145.05,194.6,152.58,189.39,149.1,183Z" style="fill:#fbc083"/><rect x="203.77" y="253.6" width="14.52" height="19.47" style="fill:#301d37"/><rect x="163.68" y="253.6" width="14.52" height="35.32" style="fill:#fbc083"/><rect x="163.68" y="253.6" width="14.52" height="19.47" style="fill:#301d37"/><path d="M202.78,102.12c2.54-5.59,35-14.09,48,7.1,6.56,10.71,4,20.78-1.09,26.68,6.53-5.28,8.71,4.65,7.62,8.68-1.82,5.27-7.26,9.93-11.25,14,20,1.55-4.71,20.47-12,23.26,8.35,3.1-11.24,11.48-17,6.21-4.35-4.35,2.9-19.24,5.8-23" style="fill:#be7329"/><path d="M174.25,102.12c-2.54-5.59-35-14.09-48,7.1-6.56,10.71-4,20.78,1.08,26.68-6.52-5.28-8.7,4.65-7.61,8.68,1.81,5.27,7.25,9.93,11.24,14-20,1.55,4.72,20.47,12,23.26-8.34,3.1,11.24,11.48,17.05,6.21,4.35-4.35-2.9-19.24-5.81-23" style="fill:#be7329"/><path d="M228.26,166.31c3.73,1,10.52-.68,13.24,2.72,3.06,3.73.68,17,.34,21.39-1.7,12.57-4.07,26.5-10.53,37.36,0-10.53-2.37-21.39-3.05-31.92-.34-9.17.68-18.34.68-27.51" style="fill:#ad7bb5"/><path d="M151.5,166.31c-3.74,1-10.53-.68-13.25,2.72-3.06,3.73-.68,17-.34,21.39,1.7,12.57,4.08,26.5,10.53,37.36,0-10.53,2.38-21.39,3.06-31.92.34-9.17-.68-18.34-.68-27.51" style="fill:#ad7bb5"/><path d="M232.65,225.15l-.37,0a27.49,27.49,0,0,0,.29-4v-39c0-19.13-19.25-34.64-43-34.64s-43,15.51-43,34.64v39a28.84,28.84,0,0,0,.28,4l-.68,0L136.06,248s17.81,20.54,53.36,20.1c35.55.44,53.36-20.1,53.36-20.1Z" style="fill:#89529e"/><path d="M234,229c1.05-.34-4.92-44.16-4.22-49.93h-.35a19,19,0,0,0-4.21,1c-.35,8.49,3.51,18,3.86,26.49.7,8.83,2.46,16,4.57,24.45" style="fill:#77401b"/><path d="M146.59,226.42c0-1.81,31.31,14.48,86,0V214.19c-54.67,14.49-86-1.81-86,0" style="fill:#77401b"/><path d="M190.8,220.22c-.19,4.08-.34,8.16-.49,12.24a174,174,0,0,0,42.26-6V214.19A173.6,173.6,0,0,1,190.8,220.22Z" style="fill:#613517"/><path d="M145.78,229c-1.06-.34,4.91-44.16,4.21-49.93h.35a19,19,0,0,1,4.21,1c.35,8.49-3.51,18-3.86,26.49-.7,8.83-2.46,16-4.56,24.45" style="fill:#77401b"/><path d="M207.86,213.68H172.77v-29h35.09ZM174.41,212h31.8V186.29h-31.8Z" style="fill:#301d37"/><path d="M227.84,277.5v9.23c13.46,1,23.93,8.81,23.93,18.27H197.84V277.5Z" style="fill:#3e2e54"/><rect x="197.84" y="277.5" width="12.49" height="27.5" style="fill:#2e204b"/><path d="M233.17,287.3c-7.5-1.07-7.14,10-14.28,2.5,4.28-6.07,10-10.71,13.57-2.14" style="fill:#bbbbbc"/><path d="M152.78,277.5v9.23c-13.46,1-23.92,8.81-23.92,18.27h53.92V277.5Z" style="fill:#3e2e54"/><rect x="170.29" y="277.5" width="12.49" height="27.5" style="fill:#2e204b"/><path d="M147.45,287.3c7.5-1.07,7.14,10,14.28,2.5-4.28-6.07-10-10.71-13.56-2.14" style="fill:#bbbbbc"/><path d="M222.48,253.6c-1.81-2.27-2.49-6.12-5.43-7.25-3.62-1.58-5.66,1.81-9.51,1.59-.45,3.62-1.13,5.88,2.49,7.24,2.26.91,6.11.23,7.7,0" style="fill:#020202"/><path d="M240.37,232.86c0-.28-1.42-1.42-2.85-2.28-4.27-2.56-6-3.7-9.4.29-2,2.28-4,5.41-2.85,8.26,2,4.56,7.12,2.28,10.54,4" style="fill:#020202"/><path d="M237.88,242.73c-.23-2,0-4.08-.45-6.12-.68-4.75-4.31-4.75-9.06-5.43-.23,2.94-2.94,9.28-2,11.77,1.13,2.49,7.7,3,10.19,3.17.45.46-.23,0-.68,0" style="fill:#332a2b"/><path d="M230.86,236.26c0-.28-1.42-1.42-2.85-2.28-4.27-2.56-6-3.7-9.4.29-2,2.28-4,5.41-2.85,8.26,2,4.56,7.12,2.28,10.54,4" style="fill:#020202"/><path d="M216.14,249.75c.91-3.17-1.13-6.12,2.27-7.7,5.88-2.49,7.92,1.36,12.68,3.85-1.14,1.58-5,4.3-6.8,5.21-1.58,1.13-.68,1.13-2.71,1.35-1.82,0-4.76-1.58-6.34-2.49,0-.22.22-.22.45-.45" style="fill:#332a2b"/><path d="M238.93,235.22S224.29,251.65,206.41,254c0,0,11.17,24.85,27.66,7.47C234.07,261.45,264.89,257.14,238.93,235.22Z" style="fill:#301d37"/><path d="M158.18,253.6c1.81-2.27,2.49-6.12,5.43-7.25,3.62-1.58,5.66,1.81,9.51,1.59.45,3.62,1.13,5.88-2.49,7.24-2.26.91-6.11.23-7.7,0" style="fill:#020202"/><path d="M140.29,232.86c0-.28,1.42-1.42,2.85-2.28,4.27-2.56,6-3.7,9.4.29,2,2.28,4,5.41,2.85,8.26-2,4.56-7.12,2.28-10.54,4" style="fill:#020202"/><path d="M142.78,242.73c.23-2,0-4.08.45-6.12.68-4.75,4.3-4.75,9.06-5.43.23,2.94,2.94,9.28,2,11.77-1.14,2.49-7.7,3-10.19,3.17-.45.46.22,0,.68,0" style="fill:#332a2b"/><path d="M149.8,236.26c0-.28,1.42-1.42,2.85-2.28,4.27-2.56,6-3.7,9.4.29,2,2.28,4,5.41,2.85,8.26-2,4.56-7.12,2.28-10.54,4" style="fill:#020202"/><path d="M164.52,249.75c-.91-3.17,1.13-6.12-2.27-7.7-5.89-2.49-7.92,1.36-12.68,3.85,1.13,1.58,5,4.3,6.79,5.21,1.59,1.13.68,1.13,2.72,1.35,1.81,0,4.76-1.58,6.34-2.49,0-.22-.22-.22-.45-.45" style="fill:#332a2b"/><path d="M141.73,235.22s14.64,16.43,32.52,18.76c0,0-11.18,24.85-27.66,7.47C146.59,261.45,115.77,257.14,141.73,235.22Z" style="fill:#301d37"/><rect x="198.9" y="229.07" width="1.64" height="38.15" transform="translate(-59.02 62.36) rotate(-15.49)" style="fill:#301d37"/><rect x="160.27" y="247.32" width="38.15" height="1.64" transform="translate(-107.69 354.67) rotate(-74.5)" style="fill:#301d37"/><rect x="178.98" y="218.48" width="22.23" height="15.03" style="fill:#ba9175"/><path d="M145.73,62.93a2,2,0,1,1-2-2A2,2,0,0,1,145.73,62.93Z" style="fill:#fff"/><path d="M101.59,219.52c-.11,0-.24.26-.37.8a7.36,7.36,0,0,0-.17,2.33,8.48,8.48,0,0,0,.32,1.61c.09.29.19.58.29.89l.46.88a8.34,8.34,0,0,0,3.13,3.08,8.64,8.64,0,0,0,4.24,1.07,9.31,9.31,0,0,0,3.45-.68,8.22,8.22,0,0,0,2-1.19c.42-.35.62-.59.55-.68s-.37,0-.86.15-1.19.41-2,.66a9.16,9.16,0,0,1-6.58-.71,7.9,7.9,0,0,1-2.65-2.47l-.44-.7-.32-.72a9.4,9.4,0,0,1-.44-1.37,15.9,15.9,0,0,1-.33-2.11C101.78,219.84,101.7,219.54,101.59,219.52Z" style="fill:#d09559"/><path d="M100.43,228.79c-.19.06-.08,1.17.64,2.79a20.06,20.06,0,0,0,3.94,5.59,21.83,21.83,0,0,0,5.44,4.11c1.57.81,2.65,1,2.73.84s-.8-.78-2.14-1.79a40.68,40.68,0,0,1-4.9-4.27,34.54,34.54,0,0,1-4.09-5C101.13,229.66,100.65,228.72,100.43,228.79Z" style="fill:#d09559"/><path d="M106.22,260.66c.24-.05.1-1.26.1-3.18a30.43,30.43,0,0,1,.93-7.36c.7-2.83,1.63-5.35,2.26-7.2s1-3,.77-3.12-.89.93-1.8,2.68a34.22,34.22,0,0,0-2.76,7.26,20.82,20.82,0,0,0-.52,7.82C105.51,259.57,106,260.71,106.22,260.66Z" style="fill:#d09559"/><path d="M97.53,257.76c.5,0,.15-5.17,2-11.07s4.82-10.08,4.41-10.37c-.17-.12-1.12.79-2.33,2.51a26.42,26.42,0,0,0-3.59,7.4,25.09,25.09,0,0,0-1.08,8.17C97,256.51,97.33,257.78,97.53,257.76Z" style="fill:#d09559"/><path d="M218.63,205.61c-2.89-.58-6.37-6.37-11-8.11-5.22-1.74-24.92-3.47-17.39,6.38-5.79,5.21-16.8-1.16-22,4.05-9.27,9.27,2.32,16.23,9.85,16.81,11.59,1.15,41.14,2.89,40.56-14.49" style="fill:#fbc083"/><path d="M249.17,183.46c-1.34-2.14-4.23-5.12-6.93-5.79-.24,1.49-.47,3-.68,4.47a94.35,94.35,0,0,1-.6,12.34,7.06,7.06,0,0,1,.51,3.64c-1.49,10.16-26.08,7.59-31.67,4.1l-.44,15c11.3-1.25,25.67,2.4,36.12-2.8C258.05,208.15,255.45,193.44,249.17,183.46Z" style="fill:#fbc083"/><ellipse cx="190.1" cy="152.35" rx="47.17" ry="49.16" style="fill:#fbc083"/><path d="M209.75,107.66a50,50,0,0,1,15.35,36.28c0,27.15-21.12,49.16-47.18,49.16a45.46,45.46,0,0,1-19.65-4.47,46,46,0,0,0,31.83,12.88c26.05,0,47.17-22,47.17-49.16C237.27,132.51,226,115.43,209.75,107.66Z" style="fill:#d09559"/><path d="M237.09,154.76c-2.38-3.4-15.63-5.77-20.38-8.15-12.91-7.13-24.12-24.12-28.53-38-6.12-18.68,26.15-9.85,34.64-5.44,15,7.48,19,24.8,17,40.08-.68,4.42-1,8.83-2.71,12.57" style="fill:#ea9937"/><path d="M140,154.76c2.38-3.4,15.62-5.77,20.38-8.15,12.9-7.13,24.11-24.12,28.53-38,6.11-18.68-26.16-9.85-34.65-5.44-14.94,7.48-19,24.8-17,40.08.68,4.42,1,8.83,2.72,12.57" style="fill:#ea9937"/><path d="M207.76,104.6c8.15,2.72,14.5,7.7,18.12,15.4-5,.45-11.78-3.62-16.76-5.43,8.15,5.88,11.32,17.66,11.78,27.17-6.8-5-12.68-15.85-18.12-22.64-4.53-5.89-9.05-12.68-9.05-19" style="fill:#be7329"/><path d="M168.59,104.6c-8.15,2.72-14.49,7.7-18.11,15.4,5,.45,11.77-3.62,16.75-5.43-8.15,5.88-11.32,17.66-11.77,27.17,6.79-5,12.68-15.85,18.11-22.64,4.53-5.89,9.06-12.68,9.06-19" style="fill:#be7329"/><path d="M189.58,74s-52.31,26.57-52.84,57.26c0,0,15.17-26.57,52.84-26,37.66-.61,52.83,26,52.83,26C241.88,100.52,189.58,74,189.58,74Z" style="fill:#89529e"/><path d="M219.1,93.79a138.09,138.09,0,0,0-40.39-1.56c2.93,2,6.14,3.74,8.77,6.22a1.71,1.71,0,0,1-1.24,2.87c-11.72.13-23.23,4.93-32.87,11.34a75.81,75.81,0,0,0-16.2,14.17,28,28,0,0,0-.43,4.38s15.17-26.57,52.84-26c37.66-.61,52.83,26,52.83,26C242.17,117.15,231.07,104,219.1,93.79Z" style="fill:#764787"/><path d="M225.3,146.37c-.2-.44-1.38-.32-3.13,0a38.61,38.61,0,0,1-6.61.61,21.94,21.94,0,0,1-6.35-1.15c-1.62-.54-2.72-1-3-.58s.32,1.45,1.92,2.67a11.43,11.43,0,0,0,3.11,1.64,14.28,14.28,0,0,0,4.27.77,15.89,15.89,0,0,0,7.44-1.71C224.64,147.67,225.49,146.77,225.3,146.37Z"/><path d="M223.56,148.11c-.17.41,1,1.14,2.48,1.35s2.58.2,2.74-.19-1-1.15-2.48-1.36S223.73,147.71,223.56,148.11Z"/><path d="M220.67,148.11c-.31.3.22,1.33,1.18,2.29s2,1.49,2.29,1.18-.22-1.33-1.18-2.29S221,147.8,220.67,148.11Z"/><path d="M154.9,146.37c-.19.4.66,1.3,2.38,2.21a15.86,15.86,0,0,0,7.44,1.71,14.15,14.15,0,0,0,4.26-.77,11.5,11.5,0,0,0,3.12-1.64c1.6-1.22,2.19-2.34,1.92-2.67s-1.41,0-3,.58a22,22,0,0,1-6.35,1.15,38.51,38.51,0,0,1-6.61-.61C156.28,146.05,155.09,145.93,154.9,146.37Z"/><path d="M156.63,148.11c-.16-.4-1.28-.41-2.73-.2s-2.65.94-2.48,1.36,1.29.4,2.74.19S156.81,148.52,156.63,148.11Z"/><path d="M159.53,148.11c-.31-.31-1.33.22-2.29,1.18s-1.49,2-1.18,2.29,1.33-.22,2.29-1.18S159.84,148.42,159.53,148.11Z"/><path d="M167.64,209.09c0,.22,1.05.43,2.75.76s4.07.71,6.71,1a53.92,53.92,0,0,0,6.82.41c1.76,0,2.85-.24,2.85-.45s-1.07-.41-2.78-.66-4.08-.56-6.71-.87-5-.52-6.77-.55S167.64,208.87,167.64,209.09Z" style="fill:#d09559"/><path d="M165.33,214.89c-.16.36,3.84,2.38,9.26,3.39s9.88.48,9.86.08-4.36-.66-9.58-1.63S165.49,214.44,165.33,214.89Z" style="fill:#d09559"/><path d="M187.92,209.09c-.14-.14-.58,0-1.06.47a3.14,3.14,0,0,0-.71,2.64,3.93,3.93,0,0,0,1.28,2.3c.51.42.93.53,1.07.39.33-.33-.55-1.53-.8-2.95S188.23,209.43,187.92,209.09Z" style="fill:#d09559"/><ellipse cx="190.62" cy="181.16" rx="9.27" ry="18.29" style="fill:#5e1919"/><path d="M191.44,192.16c-2.76-.72-4.63,1.75-5.6,4a1.23,1.23,0,0,1-.24.38c1.45,1.84,3.17,2.91,5,2.91A6.06,6.06,0,0,0,195,197.3C194.62,195.1,193.64,192.73,191.44,192.16Z" style="fill:#f48577"/><rect x="184.45" y="170.89" width="13.96" height="13.57" style="fill:#fff"/><path d="M218.26,162.11c0,10.52-12.61,19-28.16,19s-28.16-8.53-28.16-19,12.61-19.06,28.16-19.06S218.26,151.58,218.26,162.11Z" style="fill:#d95b4a"/><path d="M200.24,144.33c5.54,3.48,9,8.44,9,14,0,10.52-12.61,19.06-28.16,19.06a40.36,40.36,0,0,1-10.15-1.28,36.35,36.35,0,0,0,19.16,5.09c15.55,0,28.16-8.53,28.16-19C218.26,154,210.78,147.08,200.24,144.33Z" style="fill:#a9473a"/><path d="M189.64,163.3c0,3-4.91,5.51-11,5.51s-11-2.46-11-5.51,4.9-5.51,11-5.51S189.64,160.26,189.64,163.3Z" style="fill:#f48577"/></svg>