<svg id="Capa_1" data-name="Capa 1" xmlns="http://www.w3.org/2000/svg" viewBox="0 0 361 305"><polygon points="204.88 25.22 202.5 12.43 211.92 3.88 223.72 8.12 226.1 20.91 216.68 29.47 204.88 25.22" style="fill:#332a2b"/><polygon points="178.87 25.68 176.48 12.88 185.9 4.33 197.7 8.57 200.08 21.37 190.66 29.92 178.87 25.68" style="fill:#332a2b"/><polygon points="159.35 23.64 156.97 10.85 166.39 2.29 178.19 6.54 180.57 19.33 171.15 27.88 159.35 23.64" style="fill:#332a2b"/><polygon points="133.34 23.64 130.96 10.85 140.37 2.29 152.17 6.54 154.55 19.33 145.13 27.88 133.34 23.64" style="fill:#332a2b"/><polygon points="161.68 5.2 168.24 16.28 162.33 27.76 149.86 28.15 143.3 17.06 149.21 5.59 161.68 5.2" style="fill:#020202"/><polygon points="171.24 27.17 167.64 14.69 176.19 5.2 188.33 8.18 191.93 20.66 183.39 30.15 171.24 27.17" style="fill:#020202"/><polygon points="213.72 22.8 206.73 33.6 194.29 32.68 188.83 20.96 195.82 10.16 208.27 11.09 213.72 22.8" style="fill:#020202"/><rect x="202.55" y="1.73" width="9.64" height="13.28" transform="translate(99.26 185.53) rotate(-60.92)" style="fill:#8dbcd2"/><path d="M210.93,16.14l-12-6.69L203.82.59l12,6.7ZM199.56,9.26l11.18,6.21,4.44-8L204,1.26Z" style="fill:#c9e4ee"/><polyline points="215.52 7.38 217.65 21.68 210.83 15.81" style="fill:#64a4c3"/><polygon points="217.99 22.29 210.67 15.99 210.99 15.62 217.31 21.06 215.28 7.42 215.76 7.34 217.99 22.29" style="fill:#c9e4ee"/><polyline points="198.16 24.93 217.65 21.68 210.83 15.81" style="fill:#c9e4ee"/><polygon points="198.2 25.18 198.12 24.69 217.09 21.52 210.67 15.99 210.99 15.62 218.21 21.83 198.2 25.18" style="fill:#c9e4ee"/><polyline points="203.91 0.93 190.65 6.66 199.23 9.35" style="fill:#c9e4ee"/><polygon points="189.94 6.69 203.82 0.7 204.01 1.15 191.35 6.62 199.3 9.12 199.15 9.59 189.94 6.69" style="fill:#c9e4ee"/><polyline points="210.83 15.81 198.16 24.93 199.23 9.35" style="fill:#64a4c3"/><polygon points="197.88 25.44 198.98 9.34 199.47 9.37 198.44 24.43 210.69 15.61 210.97 16.01 197.88 25.44" style="fill:#c9e4ee"/><polyline points="198.16 24.93 190.65 6.66 199.23 9.35" style="fill:#8dbcd2"/><polygon points="197.93 25.03 190.22 6.26 199.3 9.12 199.15 9.59 191.07 7.05 198.38 24.84 197.93 25.03" style="fill:#c9e4ee"/><polygon points="139.61 35.09 141.69 23.95 133.81 16.41 123.85 20.02 121.76 31.17 129.64 38.71 139.61 35.09" style="fill:#332a2b"/><polygon points="161.51 35.69 163.6 24.54 155.72 17 145.76 20.62 143.67 31.77 151.55 39.3 161.51 35.69" style="fill:#332a2b"/><polygon points="177.96 34.07 180.04 22.92 172.16 15.38 162.2 18.99 160.12 30.14 168 37.68 177.96 34.07" style="fill:#332a2b"/><polygon points="199.87 34.27 201.96 23.12 194.08 15.58 184.11 19.19 182.03 30.34 189.91 37.88 199.87 34.27" style="fill:#332a2b"/><polygon points="224.5 41.76 232.99 35.06 231.87 23.75 222.25 19.13 213.77 25.83 214.89 37.14 224.5 41.76" style="fill:#020202"/><polygon points="207.57 37.07 217.89 34.91 221.31 24.16 214.42 15.56 204.1 17.72 200.68 28.47 207.57 37.07" style="fill:#332a2b"/><polygon points="198.76 43.51 209.08 41.36 212.5 30.6 205.61 22 195.29 24.16 191.87 34.91 198.76 43.51" style="fill:#020202"/><polygon points="176.11 17.95 170.52 27.58 175.43 37.64 185.93 38.08 191.52 28.45 186.61 18.39 176.11 17.95" style="fill:#020202"/><polygon points="167.93 37.06 171.04 26.19 163.9 17.84 153.65 20.34 150.54 31.21 157.68 39.57 167.93 37.06" style="fill:#020202"/><polygon points="132.17 32.91 138 42.39 148.48 41.69 153.15 31.5 147.33 22.01 136.84 22.73 132.17 32.91" style="fill:#020202"/><polygon points="223.77 52.32 221.38 39.53 230.8 30.98 242.6 35.22 244.98 48.01 235.56 56.56 223.77 52.32" style="fill:#332a2b"/><polygon points="197.75 52.77 195.37 39.98 204.78 31.43 216.58 35.67 218.96 48.46 209.55 57.02 197.75 52.77" style="fill:#332a2b"/><polygon points="178.24 50.73 175.85 37.94 185.27 29.39 197.07 33.63 199.45 46.42 190.03 54.98 178.24 50.73" style="fill:#332a2b"/><polygon points="152.22 50.73 149.84 37.94 159.25 29.39 171.05 33.63 173.44 46.42 164.02 54.98 152.22 50.73" style="fill:#332a2b"/><polygon points="122.94 56.72 112.91 48.95 114.34 36.01 125.79 30.82 135.81 38.58 134.38 51.53 122.94 56.72" style="fill:#020202"/><polygon points="143.06 53.86 130.83 51.28 126.85 38.93 135.1 29.15 147.33 31.73 151.31 44.08 143.06 53.86" style="fill:#b3812c"/><path d="M136.45,39.2c4.07-1.14,8.22-2,12.36-2.89l-1.48-4.58-12.18-2.57C135.55,32.48,135.38,36,136.45,39.2Z" style="fill:#e3ab23"/><polygon points="153.46 61.33 141.23 58.75 137.25 46.4 145.51 36.62 157.74 39.2 161.72 51.55 153.46 61.33" style="fill:#020202"/><polygon points="180.57 32.29 187.13 43.38 181.21 54.85 168.74 55.25 162.18 44.16 168.09 32.68 180.57 32.29" style="fill:#020202"/><polygon points="190.12 54.27 186.52 41.79 195.07 32.29 207.22 35.27 210.82 47.75 202.27 57.25 190.12 54.27" style="fill:#020202"/><polygon points="232.61 49.9 225.62 60.7 213.17 59.77 207.72 48.05 214.7 37.26 227.15 38.18 232.61 49.9" style="fill:#020202"/><polygon points="133.7 65.39 136.58 52.73 128.28 43.74 117.1 47.4 114.22 60.06 122.52 69.06 133.7 65.39" style="fill:#332a2b"/><polygon points="152.18 59.55 155.06 46.89 146.75 37.9 135.57 41.56 132.69 54.22 141 63.22 152.18 59.55" style="fill:#332a2b"/><polygon points="175.99 67.6 178.87 54.94 170.57 45.94 159.39 49.61 156.51 62.27 164.81 71.27 175.99 67.6" style="fill:#332a2b"/><polygon points="194.22 66.51 197.1 53.85 188.8 44.85 177.62 48.52 174.74 61.18 183.04 70.18 194.22 66.51" style="fill:#332a2b"/><polygon points="218.38 67.77 221.26 55.11 212.96 46.12 201.78 49.78 198.9 62.44 207.2 71.44 218.38 67.77" style="fill:#332a2b"/><polygon points="245.27 75.17 254.99 67.9 254.34 54.9 243.97 49.17 234.26 56.44 234.91 69.44 245.27 75.17" style="fill:#020202"/><polygon points="226.73 71.33 238.23 69.36 242.57 57.21 235.41 47.05 223.92 49.03 219.58 61.17 226.73 71.33" style="fill:#332a2b"/><polygon points="216.68 78.29 228.17 76.31 232.51 64.17 225.36 54.01 213.86 55.99 209.52 68.13 216.68 78.29" style="fill:#020202"/><polygon points="193.02 47.98 186.34 58.74 191.24 70.48 202.8 71.48 209.47 60.72 204.58 48.98 193.02 47.98" style="fill:#020202"/><polygon points="182.99 69.46 186.99 57.17 179.54 47.28 168.11 49.67 164.11 61.95 171.55 71.85 182.99 69.46" style="fill:#020202"/><polygon points="143.76 63.04 149.69 74.16 161.3 73.84 166.98 62.4 161.05 51.28 149.44 51.6 143.76 63.04" style="fill:#020202"/><polygon points="133.6 69.42 144.16 63.85 145.26 50.87 135.8 43.45 125.25 49.01 124.15 61.99 133.6 69.42" style="fill:#020202"/><polygon points="121.37 69.51 124.25 56.85 115.95 47.85 104.77 51.52 101.89 64.18 110.19 73.18 121.37 69.51" style="fill:#020202"/><polygon points="226.44 84.05 224.05 71.26 233.47 62.7 245.27 66.95 247.65 79.74 238.23 88.29 226.44 84.05" style="fill:#332a2b"/><polygon points="206.92 77.25 204.54 64.46 213.96 55.91 225.76 60.15 228.14 72.95 218.72 81.5 206.92 77.25" style="fill:#332a2b"/><polygon points="180.91 84.05 178.53 71.26 187.94 62.7 199.74 66.95 202.12 79.74 192.71 88.29 180.91 84.05" style="fill:#332a2b"/><polygon points="161.4 82.01 159.01 69.22 168.43 60.67 180.23 64.91 182.61 77.7 173.19 86.25 161.4 82.01" style="fill:#332a2b"/><polygon points="135.38 82.01 133 69.22 142.41 60.67 154.21 64.91 156.59 77.7 147.18 86.25 135.38 82.01" style="fill:#332a2b"/><polygon points="106.09 87.99 96.07 80.23 97.5 67.28 108.94 62.1 118.97 69.86 117.54 82.81 106.09 87.99" style="fill:#020202"/><polygon points="126.22 88.61 113.98 86.03 110.01 73.68 118.26 63.9 130.49 66.48 134.47 78.83 126.22 88.61" style="fill:#332a2b"/><polygon points="136.62 92.61 124.39 90.03 120.41 77.68 128.66 67.9 140.9 70.48 144.88 82.83 136.62 92.61" style="fill:#020202"/><polygon points="163.72 63.57 170.28 74.66 164.37 86.13 151.9 86.52 145.34 75.44 151.25 63.96 163.72 63.57" style="fill:#020202"/><polygon points="173.28 85.54 169.68 73.06 178.23 63.57 190.38 66.55 193.97 79.03 185.43 88.53 173.28 85.54" style="fill:#020202"/><polygon points="215.77 81.18 208.78 91.97 196.33 91.05 190.87 79.33 197.86 68.53 210.31 69.46 215.77 81.18" style="fill:#020202"/><polygon points="226.31 88.07 215.28 81.97 214.83 68.94 225.41 62.02 236.43 68.12 236.88 81.15 226.31 88.07" style="fill:#020202"/><polygon points="239.44 88.8 237.06 76.01 246.48 67.46 258.28 71.7 260.66 84.5 251.24 93.05 239.44 88.8" style="fill:#020202"/><path d="M177.81,91.13c-31.6,0-60.52-3.88-82.82-10.3,0,.91-.06,1.82-.06,2.73V183.93a67.94,67.94,0,0,0,67.93,67.93h29.9a67.93,67.93,0,0,0,67.93-67.93V83.56q0-1.36-.06-2.73C238.34,87.25,209.42,91.13,177.81,91.13Z" style="fill:#603f6b"/><path d="M260.63,80.83c-16.1,4.64-35.66,8-57.2,9.43.95,32.19,3.29,64.38,1.31,96.56a312.17,312.17,0,0,1-11,65,67.91,67.91,0,0,0,66.92-67.91V83.56Q260.69,82.2,260.63,80.83Z" style="fill:#432b4a"/><path d="M223.45,150.78c1-6.12.17-6.55.17-6.55l10.92,5.53a10.08,10.08,0,0,0,.4,3.35c7.87-.88,11.43,7.49,12,16.11a12.52,12.52,0,0,0,1,.77c1.12.73,3.12-3,4.89-7.08l-.46-.26c-1.56-1-7.47-7.63-7.4-9.66a.71.71,0,0,1,.06-.26c1.45-3.38.35-6.57,1.09-10,1.49-6.94,5.06-2.55,9.68-3,3.85-.44,6.54-5.13,10.76-4.89,4.46.37,9.39,3.2,13,5.58,2.68,1.85,3,1.75,2.5,4.87-.6,2.15-1.45,4.16-2.05,6.3-1.32,4.41-6.44,11.94-11.35,13.41-16.6,29.65-30.81,14.54-30.81,14.54S221.92,160.17,223.45,150.78Z" style="fill:#fbc083"/><path d="M137.55,150.78c-1-6.12-.17-6.55-.17-6.55l-10.92,5.53a10.08,10.08,0,0,1-.4,3.35c-7.87-.88-11.43,7.49-12,16.11a12.52,12.52,0,0,1-1,.77c-1.12.73-3.12-3-4.89-7.08l.46-.26c1.56-1,7.47-7.63,7.4-9.66a.71.71,0,0,0-.06-.26c-1.45-3.38-.35-6.57-1.09-10-1.49-6.94-5.06-2.55-9.68-3-3.85-.44-6.54-5.13-10.76-4.89-4.46.37-9.39,3.2-13,5.58-2.68,1.85-3,1.75-2.5,4.87.6,2.15,1.45,4.16,2,6.3,1.32,4.41,6.44,11.94,11.35,13.41,16.6,29.65,30.81,14.54,30.81,14.54S139.08,160.17,137.55,150.78Z" style="fill:#fbc083"/><rect x="194.17" y="225.56" width="14.52" height="35.32" style="fill:#fbc083"/><rect x="194.17" y="225.56" width="14.52" height="19.47" style="fill:#301d37"/><rect x="154.09" y="225.56" width="14.52" height="35.32" style="fill:#fbc083"/><rect x="154.09" y="225.56" width="14.52" height="19.47" style="fill:#301d37"/><path d="M193.18,74.08c2.54-5.58,35-14.08,48,7.11,6.56,10.7,4,20.78-1.09,26.67,6.53-5.27,8.71,4.65,7.62,8.69-1.81,5.27-7.26,9.92-11.25,14,19.95,1.56-4.71,20.48-12,23.27,8.34,3.1-11.25,11.47-17.05,6.2-4.35-4.34,2.9-19.23,5.8-22.95" style="fill:#be7329"/><path d="M164.65,74.08c-2.54-5.58-35-14.08-48,7.11-6.56,10.7-4,20.78,1.08,26.67-6.52-5.27-8.7,4.65-7.61,8.69,1.81,5.27,7.25,9.92,11.24,14-20,1.56,4.72,20.48,12,23.27-8.34,3.1,11.24,11.47,17,6.2,4.35-4.34-2.9-19.23-5.81-22.95" style="fill:#be7329"/><path d="M218.66,138.27c3.73,1,10.53-.68,13.24,2.72,3.06,3.74.68,17,.34,21.4-1.7,12.57-4.07,26.49-10.53,37.36,0-10.53-2.37-21.4-3.05-31.93-.34-9.17.68-18.34.68-27.51" style="fill:#ad7bb5"/><path d="M141.9,138.27c-3.74,1-10.53-.68-13.25,2.72-3.06,3.74-.68,17-.34,21.4,1.7,12.57,4.08,26.49,10.53,37.36,0-10.53,2.38-21.4,3.06-31.93.34-9.17-.68-18.34-.68-27.51" style="fill:#ad7bb5"/><path d="M223.05,197.11h-.37a27.62,27.62,0,0,0,.29-4v-39c0-19.13-19.25-34.64-43-34.64S137,135,137,154.15v39a28.84,28.84,0,0,0,.28,4l-.68,0L126.46,220s17.81,20.54,53.36,20.09c35.55.45,53.36-20.09,53.36-20.09Z" style="fill:#89529e"/><path d="M224.38,201c1.05-.34-4.92-44.15-4.22-49.93h-.35a19,19,0,0,0-4.21,1c-.35,8.49,3.51,18,3.86,26.5.7,8.83,2.46,16,4.57,24.45" style="fill:#77401b"/><path d="M137,198.38c0-1.8,31.31,14.49,86,0V186.16c-54.67,14.48-86-1.81-86,0" style="fill:#77401b"/><path d="M181.2,192.19q-.27,6.12-.49,12.23a173,173,0,0,0,42.26-6V186.16A174.61,174.61,0,0,1,181.2,192.19Z" style="fill:#613517"/><path d="M136.18,201c-1.06-.34,4.91-44.15,4.21-49.93h.35a19,19,0,0,1,4.21,1c.35,8.49-3.51,18-3.86,26.5-.7,8.83-2.46,16-4.56,24.45" style="fill:#77401b"/><path d="M198.26,185.65H163.17v-29h35.09ZM164.81,184h31.81V158.26H164.81Z" style="fill:#301d37"/><ellipse cx="180.5" cy="124.32" rx="47.17" ry="49.16" style="fill:#fbc083"/><path d="M200.15,79.63a50,50,0,0,1,15.35,36.28c0,27.15-21.12,49.16-47.17,49.16a45.47,45.47,0,0,1-19.66-4.47,46,46,0,0,0,31.83,12.88c26.05,0,47.17-22,47.17-49.16C227.67,104.48,216.39,87.4,200.15,79.63Z" style="fill:#d09559"/><path d="M227.49,126.73c-2.38-3.4-15.63-5.78-20.38-8.16-12.91-7.13-24.12-24.11-28.53-38-6.11-18.68,26.15-9.84,34.64-5.43,14.95,7.47,19,24.79,17,40.08-.67,4.41-1,8.83-2.71,12.57" style="fill:#ea9937"/><path d="M130.35,126.73c2.38-3.4,15.62-5.78,20.38-8.16,12.9-7.13,24.11-24.11,28.53-38,6.11-18.68-26.15-9.84-34.65-5.43-14.94,7.47-19,24.79-17,40.08.68,4.41,1,8.83,2.72,12.57" style="fill:#ea9937"/><path d="M198.16,76.57c8.16,2.72,14.5,7.7,18.12,15.4-5,.45-11.78-3.63-16.76-5.44,8.15,5.89,11.32,17.66,11.78,27.17-6.8-5-12.68-15.85-18.12-22.64-4.53-5.89-9.05-12.68-9.05-19" style="fill:#be7329"/><path d="M159,76.57c-8.15,2.72-14.49,7.7-18.11,15.4,5,.45,11.77-3.63,16.75-5.44-8.15,5.89-11.32,17.66-11.77,27.17,6.79-5,12.68-15.85,18.11-22.64C168.5,85.17,173,78.38,173,72" style="fill:#be7329"/><path d="M180,45.91s-52.31,26.57-52.84,57.26c0,0,15.17-26.56,52.84-26,37.66-.6,52.83,26,52.83,26C232.29,72.48,180,45.91,180,45.91Z" style="fill:#89529e"/><path d="M209.5,65.75a138.09,138.09,0,0,0-40.39-1.55c2.94,2,6.14,3.73,8.77,6.21a1.72,1.72,0,0,1-1.24,2.88c-11.72.13-23.23,4.92-32.87,11.34a75.77,75.77,0,0,0-16.2,14.16,28,28,0,0,0-.43,4.38s15.17-26.56,52.84-26c37.66-.6,52.83,26,52.83,26C232.57,89.11,221.47,75.92,209.5,65.75Z" style="fill:#764787"/><path d="M210.76,279.36l-2.84.24c.12,13.5-6.75,24.59-16.17,25.4l-2-23.84-2.55-29.89,27.4-2.34Z" style="fill:#3e2e54"/><path d="M207.8,285c.43-7.57-10.57-6.27-3.71-14,6.42,3.75,11.53,9.05,3.29,13.33" style="fill:#bbbbbc"/><path d="M150.39,279.36l2.84.24c-.12,13.5,6.74,24.59,16.17,25.4l2-23.84L174,251.27l-27.4-2.34Z" style="fill:#3e2e54"/><path d="M153.35,285c-.43-7.57,10.57-6.27,3.7-14-6.41,3.75-11.52,9.05-3.29,13.33" style="fill:#bbbbbc"/><path d="M212.88,225.56c-1.81-2.26-2.49-6.11-5.43-7.24-3.62-1.59-5.66,1.81-9.51,1.58-.45,3.62-1.13,5.89,2.49,7.25,2.26.9,6.11.22,7.7,0" style="fill:#020202"/><path d="M230.77,204.83c0-.29-1.42-1.43-2.85-2.28-4.27-2.56-6-3.7-9.4.28-2,2.28-4,5.42-2.85,8.27,2,4.56,7.12,2.28,10.54,4" style="fill:#020202"/><path d="M228.28,214.69c-.23-2,0-4.07-.45-6.11-.68-4.75-4.31-4.75-9.06-5.43-.23,2.94-2.94,9.28-2,11.77,1.13,2.49,7.7,2.94,10.19,3.17.45.45-.22,0-.68,0" style="fill:#332a2b"/><path d="M221.26,208.23c0-.29-1.42-1.43-2.85-2.28-4.27-2.57-6-3.71-9.4.28-2,2.28-4,5.42-2.85,8.26,2,4.56,7.12,2.28,10.54,4" style="fill:#020202"/><path d="M206.54,221.71c.91-3.17-1.13-6.11,2.27-7.7,5.88-2.49,7.92,1.36,12.68,3.85-1.14,1.59-5,4.31-6.8,5.21-1.58,1.13-.67,1.13-2.71,1.36-1.81,0-4.76-1.58-6.34-2.49,0-.23.22-.23.45-.45" style="fill:#332a2b"/><path d="M229.33,207.18S214.69,223.62,196.81,226c0,0,11.18,24.84,27.66,7.47C224.47,233.42,255.29,229.11,229.33,207.18Z" style="fill:#301d37"/><path d="M148.58,225.56c1.81-2.26,2.49-6.11,5.43-7.24,3.62-1.59,5.66,1.81,9.51,1.58.45,3.62,1.13,5.89-2.49,7.25-2.26.9-6.11.22-7.7,0" style="fill:#020202"/><path d="M130.69,204.83c0-.29,1.42-1.43,2.85-2.28,4.27-2.56,6-3.7,9.4.28,2,2.28,4,5.42,2.85,8.27-2,4.56-7.12,2.28-10.54,4" style="fill:#020202"/><path d="M133.18,214.69c.23-2,0-4.07.45-6.11.68-4.75,4.3-4.75,9.06-5.43.23,2.94,2.94,9.28,2,11.77-1.13,2.49-7.7,2.94-10.19,3.17-.45.45.22,0,.68,0" style="fill:#332a2b"/><path d="M140.2,208.23c0-.29,1.42-1.43,2.85-2.28,4.27-2.57,6-3.71,9.4.28,2,2.28,4,5.42,2.85,8.26-2,4.56-7.12,2.28-10.54,4" style="fill:#020202"/><path d="M154.92,221.71c-.91-3.17,1.13-6.11-2.27-7.7-5.88-2.49-7.92,1.36-12.68,3.85,1.13,1.59,5,4.31,6.8,5.21,1.58,1.13.67,1.13,2.71,1.36,1.81,0,4.76-1.58,6.34-2.49,0-.23-.22-.23-.45-.45" style="fill:#332a2b"/><path d="M132.13,207.18s14.64,16.44,32.52,18.77c0,0-11.18,24.84-27.66,7.47C137,233.42,106.17,229.11,132.13,207.18Z" style="fill:#301d37"/><rect x="189.31" y="201.03" width="1.64" height="38.15" transform="matrix(0.96, -0.27, 0.27, 0.96, -51.88, 58.78)" style="fill:#301d37"/><rect x="150.67" y="219.29" width="38.15" height="1.64" transform="translate(-87.7 324.91) rotate(-74.51)" style="fill:#301d37"/><rect x="169.38" y="190.45" width="22.23" height="15.03" style="fill:#ba9175"/><path d="M136.13,34.89a2,2,0,1,1-2-2A2,2,0,0,1,136.13,34.89Z" style="fill:#fff"/><path d="M195,109.28c0,5.26,3.23,9.52,7.21,9.52s7.22-4.26,7.22-9.52-3.23-9.51-7.22-9.51S195,104,195,109.28Z"/><path d="M196.54,106.9c0,1.86,1.09,3.36,2.42,3.36s2.42-1.5,2.42-3.36-1.09-3.36-2.42-3.36S196.54,105,196.54,106.9Z" style="fill:#fff"/><path d="M203.82,104.49c3.73.34,6.79-3.4,9.85-5.1-.34,3.06-3.06,5.1-6.12,5.78h7.14c-2.38,1.35-4.76,2.37-7.48,1.69"/><path d="M164.65,109.28c0,5.26-3.23,9.52-7.21,9.52s-7.22-4.26-7.22-9.52,3.24-9.51,7.22-9.51S164.65,104,164.65,109.28Z"/><path d="M163.1,106.9c0,1.86-1.08,3.36-2.42,3.36s-2.42-1.5-2.42-3.36,1.09-3.36,2.42-3.36S163.1,105,163.1,106.9Z" style="fill:#fff"/><path d="M155.82,104.49c-3.73.34-6.79-3.4-9.85-5.1.34,3.06,3.06,5.1,6.12,5.78H145c2.38,1.35,4.76,2.37,7.48,1.69"/><path d="M147.29,139.06c.76,14.78,15,26.57,32.5,26.57s31.74-11.79,32.49-26.57Z" style="fill:#5e1919"/><path d="M178.83,154.49c-6,.42-13.19,1.5-16.13,7a37.33,37.33,0,0,0,32.63.77C192.73,155.38,185.45,154,178.83,154.49Z" style="fill:#f48577"/><path d="M152.09,139.06a1.49,1.49,0,0,1,.34.62l0,.14a1.47,1.47,0,0,1,1.75,1.4c.08,2.13.52,4.23.58,6.37a1.61,1.61,0,0,1,0,.39h51a83,83,0,0,1,.41-8.92Z" style="fill:#fff"/><ellipse cx="180.5" cy="128.85" rx="28.16" ry="19.06" style="fill:#d95b4a"/><path d="M190.64,111.08c5.54,3.48,9,8.44,9,14,0,10.53-12.61,19.06-28.16,19.06a40.36,40.36,0,0,1-10.15-1.28,36.35,36.35,0,0,0,19.16,5.09c15.55,0,28.16-8.53,28.16-19.06C208.66,120.75,201.18,113.83,190.64,111.08Z" style="fill:#a9473a"/><ellipse cx="169.08" cy="130.05" rx="10.95" ry="5.51" style="fill:#f48577"/></svg>