<svg id="Capa_1" data-name="Capa 1" xmlns="http://www.w3.org/2000/svg" viewBox="0 0 361 305"><rect x="247.3" y="229.87" width="43.11" height="15.3" transform="translate(23.63 499.37) rotate(-88.34)" style="fill:#ad2324"/><rect x="243.48" y="233.59" width="43.11" height="7.65" transform="translate(20.03 495.44) rotate(-88.34)" style="fill:#8c1c1d"/><path d="M261.84,215.67c0,.86,3.37,1.66,7.6,1.78s7.66-.47,7.69-1.34-3.38-1.66-7.6-1.78S261.86,214.81,261.84,215.67Z" style="fill:#8c1c1d"/><path d="M273.12,206.81c2.32-1,8.92-2.37,7.27-5.8a10.2,10.2,0,0,0,1-.4,3.56,3.56,0,0,0,1.56-.39h0c1.26,2.82-.32,5.08-3,6.61a44.19,44.19,0,0,1-5.51,2.3c-3.2,1.27-3.1,3.67-3.28,6.74a1.66,1.66,0,0,1,0,.22c-.35,0-.71-.05-1.06-.06l-.92,0a1.86,1.86,0,0,0-.54.07h-.06a2.35,2.35,0,0,1,0-.27C268.71,211.68,269,208.56,273.12,206.81Z" style="fill:#815020"/><path d="M282.91,200.22l0,0a4.52,4.52,0,0,1,.41,2.35c-.63-.63-1.25-1.28-1.85-2A3.69,3.69,0,0,0,282.91,200.22Z" style="fill:#d59d51"/><path d="M280.75,200.87c.65.72,1.31,1.43,2,2.11-.71-.21-1.41-.45-2.1-.73a2.29,2.29,0,0,0-.25-1.23Z" style="fill:#d59d51"/><path d="M280.35,203.09l.08-.13a21.78,21.78,0,0,0,2.55.85,5.07,5.07,0,0,1-.56.91A19,19,0,0,1,280.35,203.09Z" style="fill:#d59d51"/><path d="M279,204.37l.31-.2a16.19,16.19,0,0,0,2.45,1.26,8.16,8.16,0,0,1-1,.83A20.94,20.94,0,0,1,279,204.37Z" style="fill:#d59d51"/><path d="M276.86,205.44l.33-.13a27.7,27.7,0,0,0,2.54,1.59c-.3.16-.61.31-.91.45A13.09,13.09,0,0,1,276.86,205.44Z" style="fill:#d59d51"/><path d="M277.5,207.57c-.9-.45-1.8-.9-2.68-1.37l1.35-.49a15.55,15.55,0,0,0,1.92,2l-.41.16A.33.33,0,0,0,277.5,207.57Z" style="fill:#d59d51"/><path d="M274.46,206.84c.82.44,1.66.87,2.49,1.28l-1.56.61C275.1,208.09,274.8,207.45,274.46,206.84Z" style="fill:#d59d51"/><path d="M273.93,209.32c-.71-.62-1.44-1.21-2.17-1.8a9.09,9.09,0,0,1,1.36-.71l.4-.15a21.26,21.26,0,0,1,1.19,2.33l-.33.13A4.68,4.68,0,0,0,273.93,209.32Z" style="fill:#d59d51"/><path d="M269.52,210c0-.09.08-.19.13-.28a15,15,0,0,0,2.59.89,3.66,3.66,0,0,0-.43.74A17,17,0,0,1,269.52,210Z" style="fill:#d59d51"/><path d="M271.12,215.62c0,.08,0,.15,0,.24a1.66,1.66,0,0,1,0,.22c-.35,0-.71-.05-1.06-.06l-.92,0a1.86,1.86,0,0,0-.54.07h-.06a2.35,2.35,0,0,1,0-.27l0-.34A12.64,12.64,0,0,0,271.12,215.62Z" style="fill:#d59d51"/><path d="M268.56,214.71c0-.47.08-.92.14-1.36.83.33,1.66.66,2.5,1,0,.19,0,.38,0,.58A11.35,11.35,0,0,1,268.56,214.71Z" style="fill:#d59d51"/><path d="M268.79,212.6s0-.1,0-.15c.89,0,1.77-.06,2.66-.07a10.54,10.54,0,0,0-.2,1.19C270.44,213.27,269.62,212.93,268.79,212.6Z" style="fill:#d59d51"/><path d="M282.92,199.35c.13,0,.3.64-.06,1.37s-1.05.93-1.11.82.29-.55.61-1.08S282.74,199.35,282.92,199.35Z" style="fill:#d59d51"/><path d="M283.48,199.18c.14,0,.13.72-.3,1.41s-.94,1-1.06,1,.17-.66.57-1.26S283.31,199.15,283.48,199.18Z" style="fill:#d59d51"/><path d="M284,199.75c.14.06,0,.72-.6,1.33a2.52,2.52,0,0,1-.85.59c-.25.11-.42.13-.46.06s.06-.21.23-.39.4-.41.66-.66C283.49,200.16,283.87,199.68,284,199.75Z" style="fill:#d59d51"/><path d="M282.14,200.81c0,.06-.11.2-.42.29a1.49,1.49,0,0,1-1.17-.26c-.81-.57-.9-1.36-.78-1.4s.5.53,1.1.93S282.07,200.65,282.14,200.81Z" style="fill:#d59d51"/><path d="M281.75,201.54c0,.07-.15.14-.41.15a1.68,1.68,0,0,1-.94-.31c-.67-.47-.79-1.16-.65-1.2s.47.38,1,.73S281.75,201.37,281.75,201.54Z" style="fill:#d59d51"/><path d="M281.38,201.53c-.05.15-.56.18-1.15.06s-1.11-.35-1.06-.5.56-.18,1.15-.06S281.43,201.38,281.38,201.53Z" style="fill:#d59d51"/><rect x="83.47" y="215.97" width="15.3" height="43.11" transform="translate(-6.85 2.74) rotate(-1.66)" style="fill:#ad2324"/><rect x="91.12" y="215.86" width="7.65" height="43.11" transform="translate(-6.85 2.86) rotate(-1.66)" style="fill:#8c1c1d"/><path d="M98.14,215.67c0,.86-3.38,1.66-7.6,1.78s-7.67-.47-7.7-1.34,3.38-1.66,7.61-1.78S98.11,214.81,98.14,215.67Z" style="fill:#8c1c1d"/><path d="M86.86,206.81c-2.33-1-8.92-2.37-7.28-5.8a10.2,10.2,0,0,1-1-.4,3.49,3.49,0,0,1-1.55-.39h0c-1.26,2.82.32,5.08,3,6.61a43,43,0,0,0,5.51,2.3c3.2,1.27,3.1,3.67,3.27,6.74a1.7,1.7,0,0,0,0,.22q.53,0,1-.06l.92,0a1.81,1.81,0,0,1,.54.07h.06a1.2,1.2,0,0,0,0-.27C91.26,211.68,91,208.56,86.86,206.81Z" style="fill:#815020"/><path d="M77.07,200.22l0,0a4.53,4.53,0,0,0-.42,2.35c.64-.63,1.25-1.28,1.85-2A3.59,3.59,0,0,1,77.07,200.22Z" style="fill:#d59d51"/><path d="M79.22,200.87c-.64.72-1.3,1.43-2,2.11a20.8,20.8,0,0,0,2.1-.73,2.29,2.29,0,0,1,.25-1.23Z" style="fill:#d59d51"/><path d="M79.62,203.09l-.08-.13a21.62,21.62,0,0,1-2.54.85,4.5,4.5,0,0,0,.55.91A18.09,18.09,0,0,0,79.62,203.09Z" style="fill:#d59d51"/><path d="M81,204.37l-.32-.2a15.74,15.74,0,0,1-2.45,1.26,7.57,7.57,0,0,0,1,.83A24.28,24.28,0,0,0,81,204.37Z" style="fill:#d59d51"/><path d="M83.11,205.44l-.33-.13a26.26,26.26,0,0,1-2.53,1.59c.29.16.6.31.91.45A13.52,13.52,0,0,0,83.11,205.44Z" style="fill:#d59d51"/><path d="M82.48,207.57c.9-.45,1.79-.9,2.67-1.37-.43-.15-.88-.31-1.34-.49a17,17,0,0,1-1.92,2l.41.16A.29.29,0,0,1,82.48,207.57Z" style="fill:#d59d51"/><path d="M85.52,206.84c-.83.44-1.66.87-2.5,1.28l1.57.61C84.88,208.09,85.18,207.45,85.52,206.84Z" style="fill:#d59d51"/><path d="M86.05,209.32c.71-.62,1.43-1.21,2.17-1.8a9.09,9.09,0,0,0-1.36-.71l-.4-.15A21.26,21.26,0,0,0,85.27,209l.33.13C85.76,209.18,85.9,209.25,86.05,209.32Z" style="fill:#d59d51"/><path d="M90.45,210c0-.09-.08-.19-.13-.28a14.85,14.85,0,0,1-2.58.89,4.2,4.2,0,0,1,.43.74A16.87,16.87,0,0,0,90.45,210Z" style="fill:#d59d51"/><path d="M88.86,215.62c0,.08,0,.15,0,.24a1.7,1.7,0,0,0,0,.22q.53,0,1-.06l.92,0a1.81,1.81,0,0,1,.54.07h.06a1.2,1.2,0,0,0,0-.27c0-.12,0-.22,0-.34A12.64,12.64,0,0,1,88.86,215.62Z" style="fill:#d59d51"/><path d="M91.42,214.71c0-.47-.09-.92-.14-1.36-.84.33-1.67.66-2.51,1,0,.19,0,.38,0,.58A11.43,11.43,0,0,0,91.42,214.71Z" style="fill:#d59d51"/><path d="M91.18,212.6s0-.1,0-.15c-.88,0-1.77-.06-2.66-.07a10.54,10.54,0,0,1,.2,1.19C89.53,213.27,90.36,212.93,91.18,212.6Z" style="fill:#d59d51"/><path d="M77.05,199.35c-.13,0-.29.64.06,1.37s1,.93,1.12.82-.3-.55-.61-1.08S77.23,199.35,77.05,199.35Z" style="fill:#d59d51"/><path d="M76.49,199.18c-.14,0-.13.72.31,1.41s.94,1,1.06,1-.18-.66-.58-1.26S76.66,199.15,76.49,199.18Z" style="fill:#d59d51"/><path d="M76,199.75c-.13.06,0,.72.61,1.33a2.43,2.43,0,0,0,.85.59c.25.11.41.13.45.06s0-.21-.22-.39-.41-.41-.67-.66C76.48,200.16,76.1,199.68,76,199.75Z" style="fill:#d59d51"/><path d="M77.83,200.81c0,.06.12.2.42.29a1.52,1.52,0,0,0,1.18-.26c.8-.57.89-1.36.77-1.4s-.5.53-1.09.93S77.9,200.65,77.83,200.81Z" style="fill:#d59d51"/><path d="M78.23,201.54c0,.07.15.14.4.15a1.71,1.71,0,0,0,1-.31c.67-.47.78-1.16.64-1.2s-.46.38-1,.73S78.23,201.37,78.23,201.54Z" style="fill:#d59d51"/><path d="M78.6,201.53c0,.15.56.18,1.14.06s1.11-.35,1.06-.5-.56-.18-1.14-.06S78.55,201.38,78.6,201.53Z" style="fill:#d59d51"/><path d="M260.63,248.06c0,12-35.52,21.78-79.34,21.78S102,260.09,102,248.06s35.52-21.78,79.33-21.78S260.63,236,260.63,248.06Z" style="fill:#282523"/><polyline points="97.75 152.78 263.55 154.68 176.78 1.17" style="fill:#9d8a8a"/><polygon points="167 25.46 239.89 154.41 263.55 154.68 176.78 1.17 97.75 152.78 100.62 152.81 167 25.46" style="fill:#847575"/><path d="M122,102.73c21.9-1,32.85-9.47,53.9-15,10.11-3,43.79-11.46,40.43-17.94,15.79,1.62,7.95,9,0,13.31-11.25,6.08-21.91,6.52-35.39,9.62-26.1,5.48-34.53,12-61.48,12.46-1.68-1,0-1.5,0-2" style="fill:#cebfbf"/><path d="M110.05,122.66c21.9-1,44.64-9.47,65.69-15,10.11-3,52.22-15.95,48.85-22.43,24.43,2.5-.84,14-9.26,17.45-13.48,5.48-19.37,6.48-34.53,10-26.11,5.49-46.32,12-73.27,12.46-1.69-1,0-1.49,0-2" style="fill:#cebfbf"/><path d="M102.67,142.6c21.9-1,52.22-9.47,73.27-14.95,10.11-3,62.32-18.44,58.95-24.92,24.43,2.49-.84,14-9.26,17.44-13.47,5.48-29.48,9-44.64,12.46-26.1,5.48-53.9,12-80.85,12.46-1.68-1,0-1.5,0-2" style="fill:#cebfbf"/><path d="M160.79,33c7-.54,11.81-3.74,17.52-5.83,4.23-1.54,10.6-2.6,10-6.24.12.79,8,1.73,9.1,2.54,5.66,4.15-10.31,8.14-14.61,9.22-1.37.34-28.6,5.3-24.58.81" style="fill:#cebfbf"/><path d="M145.62,57.87c20.28-.82,52.2-7,51.08-22.11.31,4.11,13.49,3.17,9.14,9.33C202.44,49.88,182.28,57,169.76,58c-5.6.47-26.44,4.48-26.66.33" style="fill:#cebfbf"/><path d="M132.15,77.81c18.23-.8,33.36-6.72,49.74-10.8,9.19-2.28,26.18-5.1,26.34-12.53,0,.08,6.66,2.37,7.35,3.09,1.73,1.81,1.26,3.8-.41,5.62-3.56,3.91-12.45,6-18.87,7.68-9.9,2.65-20.41,4.48-30.66,6.59-6.73,1.38-13.77,3.08-20.93,3.43-4.4.22-13.53.47-15.09-2.59" style="fill:#cebfbf"/><rect x="95.18" y="148.58" width="170.14" height="97.63" rx="5.55" style="fill:#d96c62"/><rect x="91" y="236.24" width="178.01" height="2.44" style="fill:#943131"/><rect x="91" y="169.66" width="178.01" height="2.44" style="fill:#943131"/><rect x="91" y="153.01" width="178.01" height="2.44" style="fill:#943131"/><path d="M259.33,148.48H223.57v97.63h35.76a5.55,5.55,0,0,0,5.55-5.55V154A5.54,5.54,0,0,0,259.33,148.48Z" style="fill:#943131"/><polygon points="257.24 245.07 255.85 242.66 257.24 240.26 260.01 240.26 261.4 242.66 260.01 245.07 257.24 245.07" style="fill:#d96c62"/><polygon points="257.24 232.31 255.85 229.9 257.24 227.5 260.01 227.5 261.4 229.9 260.01 232.31 257.24 232.31" style="fill:#d96c62"/><polygon points="257.24 219.55 255.85 217.14 257.24 214.74 260.01 214.74 261.4 217.14 260.01 219.55 257.24 219.55" style="fill:#d96c62"/><polygon points="257.24 180.71 255.85 178.3 257.24 175.9 260.01 175.9 261.4 178.3 260.01 180.71 257.24 180.71" style="fill:#d96c62"/><polygon points="257.24 164.06 255.85 161.66 257.24 159.25 260.01 159.25 261.4 161.66 260.01 164.06 257.24 164.06" style="fill:#d96c62"/><polygon points="98 245.07 96.61 242.66 98 240.26 100.78 240.26 102.17 242.66 100.78 245.07 98 245.07" style="fill:#d96c62"/><polygon points="98 232.31 96.61 229.9 98 227.5 100.78 227.5 102.17 229.9 100.78 232.31 98 232.31" style="fill:#d96c62"/><polygon points="98 219.55 96.61 217.14 98 214.74 100.78 214.74 102.17 217.14 100.78 219.55 98 219.55" style="fill:#d96c62"/><polygon points="98 180.71 96.61 178.3 98 175.9 100.78 175.9 102.17 178.3 100.78 180.71 98 180.71" style="fill:#d96c62"/><polygon points="98 164.06 96.61 161.66 98 159.25 100.78 159.25 102.17 161.66 100.78 164.06 98 164.06" style="fill:#d96c62"/><polygon points="98 245.07 96.61 242.66 98 240.26 100.78 240.26 102.17 242.66 100.78 245.07 98 245.07" style="fill:#943131"/><polygon points="98 232.31 96.61 229.9 98 227.5 100.78 227.5 102.17 229.9 100.78 232.31 98 232.31" style="fill:#943131"/><polygon points="98 219.55 96.61 217.14 98 214.74 100.78 214.74 102.17 217.14 100.78 219.55 98 219.55" style="fill:#943131"/><polygon points="98 180.71 96.61 178.3 98 175.9 100.78 175.9 102.17 178.3 100.78 180.71 98 180.71" style="fill:#943131"/><polygon points="98 164.06 96.61 161.66 98 159.25 100.78 159.25 102.17 161.66 100.78 164.06 98 164.06" style="fill:#943131"/><path d="M242.6,161.58c13.82,4.12,25.93,15,35.14,25.82,4.55,5.12,8.36,11.76,4.63,18.46-3.24,6-9.82,11.54-15,15.49-8.31,6.49-25.43,23.13-36,22.59" style="fill:#981c20"/><path d="M236.26,236.94c0,4.8-5.55,12.17-8.68,15.48-9.74,10.29-26,15.89-39.68,17.92-21.05,3.14-42.62-5.62-57-21-3.19-3.41-6.27-7.45-6.27-12.38V198a27.74,27.74,0,0,1,27.74-27.74h56.2A27.74,27.74,0,0,1,236.26,198Z" style="fill:#751517"/><circle cx="180.43" cy="203.95" r="56.86" style="fill:#c52026"/><path d="M180.43,147.09a57.15,57.15,0,0,0-11.25,1.12,56.87,56.87,0,0,1,0,111.49,56.87,56.87,0,1,0,11.25-112.61Z" style="fill:#981c20"/><path d="M168.86,198.83a53.13,53.13,0,0,0-4.44,16.09c-1.66,11.65,4.44,11.09,14.42,11.65,8.33.55,18.31,1.66,18.31-8.33,0-3.32-4.44-18.3-6.66-20" style="fill:#ab4038"/><path d="M213.11,183.05c5.55,15.54,29.4,51.6,5.55,60.47,1.66-20,4.43-45.49-6.66-63.24" style="fill:#391e11"/><path d="M145.69,183.05c-5.55,15.54-29.4,51.6-5.55,60.47-1.66-20-4.44-45.49,6.66-63.24" style="fill:#391e11"/><path d="M183.08,229.23a2.43,2.43,0,1,1-2.43-2.42A2.43,2.43,0,0,1,183.08,229.23Z" style="fill:#4c50a1"/><path d="M183.08,220.91a2.43,2.43,0,1,1-2.43-2.43A2.43,2.43,0,0,1,183.08,220.91Z" style="fill:#4c50a1"/><path d="M183.08,212.59a2.43,2.43,0,1,1-2.43-2.43A2.43,2.43,0,0,1,183.08,212.59Z" style="fill:#4c50a1"/><rect x="189.68" y="260.82" width="13.66" height="20.71" style="fill:#751517"/><rect x="155.29" y="260.82" width="13.66" height="20.71" style="fill:#751517"/><path d="M211.79,276.52v9.56c14,1.06,24.78,9.13,24.78,18.92H180.73V276.52Z" style="fill:#c52026"/><rect x="180.73" y="276.52" width="12.93" height="28.48" style="fill:#981c20"/><path d="M217.32,286.67c-7.77-1.11-7.4,10.36-14.8,2.59,4.44-6.29,10.36-11.1,14.06-2.22" style="fill:#bbbbbc"/><path d="M148.13,276.52v9.56c-13.94,1.06-24.78,9.13-24.78,18.92H179.2V276.52Z" style="fill:#c52026"/><rect x="166.27" y="276.52" width="12.93" height="28.48" style="fill:#981c20"/><path d="M142.61,286.67c7.77-1.11,7.4,10.36,14.79,2.59C153,283,147.05,278.16,143.35,287" style="fill:#bbbbbc"/><path d="M189.2,139.92c8.87-10.54,30-8.88,27.73,8.32-7.21.56-35,5-28.29-8.32" style="fill:#9f9b97"/><path d="M170,139.92c-8.87-10.54-30-8.88-27.73,8.32,7.21.56,35,5,28.29-8.32" style="fill:#9f9b97"/><path d="M131.13,202.45C120,199.13,113.75,174,111.9,164c-2.59-15.53-1.48-29.22-1.48-44.75v-1.11l25.52-3.7c-5.13.76,2.56,33.22,3.78,36.21,3.6,8.81,13.49,11.86,4.69,24.55-4,5.76-16.18,13.64-13.65,22.09.37,1.11.74,2.59,1.11,3.7" style="fill:#c52026"/><path d="M148.23,66.09c3.32,5.54,16.27,1.85,19.23-3.33-3,6.29-.37,11.46,5.54,14.42-6.28,1.48-9.24,8.88-4.06,13.69-4.44-5.18-11.84-2.22-15.17,2.22-.74-8.14-7-9.62-14.05-9.62,4.81-1.85,13.31-11.1,8.51-15.16" style="fill:#f9ee5c"/><path d="M159.14,148.2a10.82,10.82,0,1,1-8.72-12.58A10.81,10.81,0,0,1,159.14,148.2Z" style="fill:#fbc083"/><path d="M156.94,149.87a6.93,6.93,0,1,1-5.58-8.06A6.93,6.93,0,0,1,156.94,149.87Z" style="fill:#d09559"/><path d="M228.12,160.73A10.83,10.83,0,1,0,240.71,152,10.81,10.81,0,0,0,228.12,160.73Z" style="fill:#fbc083"/><path d="M229.6,163.06a6.93,6.93,0,1,0,8.05-5.58A6.92,6.92,0,0,0,229.6,163.06Z" style="fill:#d09559"/><circle cx="194.99" cy="149.55" r="42.16" transform="translate(34.22 335.41) rotate(-86.62)" style="fill:#fbc083"/><path d="M219.12,115a42.16,42.16,0,0,1-57.67,60.11A42.16,42.16,0,1,0,219.12,115Z" style="fill:#d09559"/><path d="M222.52,156.5c-1.89,10.41-15.9,16.59-31.29,13.8s-26.33-13.5-24.44-23.92,15.9-16.59,31.29-13.79S224.41,146.09,222.52,156.5Z" style="fill:#d95b4a"/><path d="M207.88,135.67c4.85,4.44,7.39,10,6.4,15.44-1.89,10.41-15.9,16.59-31.28,13.79a40.34,40.34,0,0,1-9.81-3.08,36.56,36.56,0,0,0,18,8.48c15.39,2.79,29.4-3.39,31.29-13.8C224,148.48,217.81,140.29,207.88,135.67Z" style="fill:#a9473a"/><path d="M194,152.54c-.55,3-5.84,4.58-11.83,3.49s-10.39-4.41-9.85-7.42,5.85-4.57,11.83-3.48S194.53,149.53,194,152.54Z" style="fill:#f48577"/><path d="M239.7,174c1-6.17,2-12.09,1-18.34A37.46,37.46,0,0,0,238,145.58c-.29-.62-1.77-2.43-1.78-3.06.35,20-5.59,26-5.59,26l-6.3,3.66-10.84-7.73-18.65.56-2.57-.46-2.57-.47L172.43,157l-12.86,3.42L155,154.81s-3.43-7.76,3.91-26.33c-.23.58-2.25,1.76-2.74,2.24A37.26,37.26,0,0,0,150,139.2c-3.08,5.51-4.26,11.4-5.49,17.52-2.5,12.47-13.91,23.19-8.93,36.79,2.95,8.05,1.62,20,8,25.36,7,5.94,15.85,8.08,22.34,14.58,2.14,2.14,10.17,3.45,13,4.8l4.24-23.58.16-.92h.05s-4.45,24.5-4.45,24.5c3.1-.28,11.07,1.31,13.82.06,8.36-3.8,17.4-2.69,26-5.79,7.84-2.81,10.78-14.44,16.37-20.94C244.57,200.59,237.66,186.54,239.7,174Z" style="fill:#020202"/><path d="M197.16,140.76c16.14,2.93,31.42,6.3,45.26,9.88a34.15,34.15,0,0,0,.93-3.81c3.91-21.58-13.41-42.78-38.69-47.37s-48.95,9.17-52.87,30.74a35.13,35.13,0,0,0-.47,3.9C165.54,135.61,181,137.83,197.16,140.76Z" style="fill:#9bb1c3"/><path d="M201.06,146.41c.55-2.49,1.09-5.13,1.59-7.87,2.88-15.87,3.44-29.06,1.26-29.45s-6.29,12.14-9.18,28c-.49,2.74-.92,5.39-1.28,7.92Z" style="fill:#5b788c"/><path d="M204.66,99.46a53.34,53.34,0,0,0-6.8-.8,47.47,47.47,0,0,1,24.73,47.23c6.87,1.53,13.51,3.11,19.83,4.75a34.15,34.15,0,0,0,.93-3.81C247.26,125.25,229.94,104.05,204.66,99.46Z" style="fill:#889dac"/><path d="M252.94,154.29c-.41,2.22-25.54-.49-56.14-6s-55.08-11.86-54.68-14.08,25.53.49,56.14,6S253.34,152.07,252.94,154.29Z" style="fill:#5b788c"/><polygon points="95.2 124.34 90.77 110.83 144.19 89.46 148.62 102.97 95.2 124.34" style="fill:#ad2324"/><polygon points="95.2 124.34 92.98 117.59 146.4 96.21 148.62 102.97 95.2 124.34" style="fill:#8c1c1d"/><path d="M148.69,102.94c-.76.25-2.37-2.57-3.59-6.3s-1.6-7-.84-7.21,2.37,2.57,3.6,6.31S149.46,102.69,148.69,102.94Z" style="fill:#8c1c1d"/><path d="M153.61,90.55c.25-2.32-.24-8.57,3.24-8,0-.32.06-.64.11-1a3.15,3.15,0,0,1-.06-1.49s0,0,0,0c-2.85-.38-4.45,1.63-5.1,4.45a42.53,42.53,0,0,0-.59,5.52c-.29,3.19-2.45,3.73-5.14,4.7l-.19.08c.12.31.24.62.33.93s.19.54.28.81a1.89,1.89,0,0,1,.09.5.09.09,0,0,0,0,0,1.05,1.05,0,0,0,.24-.06C150.43,95.76,153.15,94.72,153.61,90.55Z" style="fill:#815020"/><path d="M156.9,80.09s0,0,0,0a4.24,4.24,0,0,0-2.2.25c.73.4,1.47.77,2.22,1.13A3.3,3.3,0,0,1,156.9,80.09Z" style="fill:#d59d51"/><path d="M156.89,82.19c-.81-.39-1.62-.8-2.41-1.22a20.32,20.32,0,0,0,1.21,1.67,2.19,2.19,0,0,1,1.16-.1C156.86,82.42,156.87,82.3,156.89,82.19Z" style="fill:#d59d51"/><path d="M155,83.13l.09-.11a20.72,20.72,0,0,1-1.43-2,4.68,4.68,0,0,0-.67.73A17.75,17.75,0,0,0,155,83.13Z" style="fill:#d59d51"/><path d="M154.23,84.66a3.18,3.18,0,0,1,.1-.33,15.56,15.56,0,0,1-1.78-1.85,8.61,8.61,0,0,0-.47,1.11A20.49,20.49,0,0,0,154.23,84.66Z" style="fill:#d59d51"/><path d="M153.84,86.86l0-.33c-.72-.58-1.43-1.19-2.09-1.84q-.09.45-.15.93A13.22,13.22,0,0,0,153.84,86.86Z" style="fill:#d59d51"/><path d="M151.78,86.85c.63.69,1.28,1.36,1.93,2,0-.42,0-.86.07-1.32a15.24,15.24,0,0,1-2.26-1.2l0,.41A.31.31,0,0,1,151.78,86.85Z" style="fill:#d59d51"/><path d="M153.23,89.37q-.91-.93-1.8-1.89c-.05.52-.09,1-.13,1.55C152,89.12,152.59,89.23,153.23,89.37Z" style="fill:#d59d51"/><path d="M151.16,90.49c.74.47,1.46,1,2.18,1.46a8.92,8.92,0,0,0,.27-1.4q0-.18,0-.39a19.35,19.35,0,0,0-2.39-.45l0,.33A3.06,3.06,0,0,1,151.16,90.49Z" style="fill:#d59d51"/><path d="M151.68,94.61a1.9,1.9,0,0,0,.21-.19,14.36,14.36,0,0,1-1.47-2.07,3.71,3.71,0,0,1-.54.58A15.91,15.91,0,0,0,151.68,94.61Z" style="fill:#d59d51"/><path d="M146.29,94.66l-.21.08-.19.08c.12.31.24.62.33.93s.19.54.28.81a1.89,1.89,0,0,1,.09.5.09.09,0,0,0,0,0,1.05,1.05,0,0,0,.24-.06l.3-.11A10.78,10.78,0,0,1,146.29,94.66Z" style="fill:#d59d51"/><path d="M147.77,96.7l1.18-.48c-.51-.66-1-1.31-1.52-2l-.5.19A10.87,10.87,0,0,0,147.77,96.7Z" style="fill:#d59d51"/><path d="M149.59,95.94l.13-.06c-.22-.8-.42-1.6-.64-2.39a8.61,8.61,0,0,1-1,.49C148.56,94.64,149.08,95.29,149.59,95.94Z" style="fill:#d59d51"/><path d="M157.67,79.85c0-.12-.65-.1-1.21.42s-.55,1.18-.43,1.2.41-.4.8-.83S157.72,80,157.67,79.85Z" style="fill:#d59d51"/><path d="M157.67,79.3c0-.12-.67.08-1.17.65s-.69,1.11-.58,1.19.54-.32,1-.84S157.74,79.45,157.67,79.3Z" style="fill:#d59d51"/><path d="M157,79c-.09-.1-.63.23-1,.89a2.49,2.49,0,0,0-.31.92c0,.25,0,.4.07.42s.18-.11.29-.31.26-.46.41-.76C156.8,79.55,157.13,79.09,157,79Z" style="fill:#d59d51"/><path d="M156.58,80.93c-.07,0-.16.15-.15.45a1.38,1.38,0,0,0,.54,1c.72.56,1.45.44,1.45.32s-.6-.31-1.12-.73S156.74,81,156.58,80.93Z" style="fill:#d59d51"/><path d="M156,81.47c-.07,0-.09.17,0,.41a1.63,1.63,0,0,0,.53.76c.59.47,1.23.39,1.23.25s-.46-.31-.9-.67S156.18,81.43,156,81.47Z" style="fill:#d59d51"/><path d="M156.14,81.8c-.13.08,0,.55.24,1s.6.89.73.81,0-.55-.25-1S156.26,81.72,156.14,81.8Z" style="fill:#d59d51"/><path d="M266.87,193.83l3.14-1c-6.9,3-10.8.54-17.44-4-6.92-4.71-10.19-11.8-5.1-19.27,5.47-8,13.28-8.79,21.12-4.25,6,3.68,15.7,9,11.63,16.77-1.43,5.38-12.9,10.53-10.21,10.74" style="fill:#552e15"/><path d="M137.89,110.51l.93-3.46c-1.4,8-5.94,10.09-14,13.4-8.38,3.45-16.73,2.19-20.46-6.85-4-9.71,0-17.22,8.72-21.62,6.9-3.23,17.48-8.83,22.08-.54,4,4.49,1.84,17.92,3.63,15.61" style="fill:#552e15"/><path d="M269.11,166.81c-2.59-2.22-7-4.07-10.72-5.18-7.77-2.95-11.1,3.33-18.49,2.59-3.33,8.14,11.83,2.59,12.2,9.62" style="fill:#552e15"/><path d="M207.07,179.42a7.81,7.81,0,0,1-9,6.37l-19.43-3.35a7.81,7.81,0,0,1-6.37-9h0a7.81,7.81,0,0,1,9-6.37l19.43,3.35a7.81,7.81,0,0,1,6.37,9Z" style="fill:#fff"/><path d="M172.47,173.13c-.06.38,7.49,2,16.88,3.61s17,2.62,17.11,2.25-7.49-2-16.88-3.61S172.54,172.76,172.47,173.13Z" style="fill:#5e5e5e"/><path d="M178.2,176.88c.38.06.9-1.12,1.16-2.65s.17-2.81-.2-2.88-.9,1.12-1.16,2.65S177.83,176.81,178.2,176.88Z" style="fill:#5e5e5e"/><path d="M201.65,179.88c.38.07.85-.85,1.06-2.06s.06-2.23-.31-2.29-.85.86-1.06,2.06S201.27,179.82,201.65,179.88Z" style="fill:#5e5e5e"/><path d="M175.62,174.88c.38.07.77-.41.88-1s-.1-1.23-.48-1.29-.77.4-.88,1.05S175.24,174.82,175.62,174.88Z" style="fill:#5e5e5e"/><path d="M205.05,180.12c.38.07.78-.44.9-1.13s-.09-1.31-.46-1.38-.78.45-.9,1.14S204.68,180.06,205.05,180.12Z" style="fill:#5e5e5e"/></svg>