<svg data-name="Capa 1" xmlns="http://www.w3.org/2000/svg" viewBox="0 0 361 305"><path d="M223.6 103.85c23.27 5.49 42.38 18 55 39 7.87 13.38 16 25.82 18.3 41.41.7 7.69 3.65 24.93-1 31.86-3.13 4.77-10.73 3-17.1 4.48-6.25-24.53-40.72-27.15-62.21-23.19" fill="#c19526"/><path d="M75.72 192.92c.16 1-19-35.31-12.58-45.68s56.6-43.94 85.51-46.2l-9.42 71.87s-27.78 45.91-31.29 47.65-12.07-4.07-22.49-11.51" fill="#f6cc0f"/><path fill="#a97c2c" d="M195.39 252.79h8.17v35.55h-8.17zM157.32 252.79h8.17v35.55h-8.17z"/><path d="M260.55 185c0 39.16-36.25 70.91-81 70.91-44.72 0-81-31.75-81-70.91v-32.7c0-39.16 36.25-56.27 81-56.27 44.71 0 81 17.11 81 56.27z" fill="#f6cc0f"/><path d="M198.17 97.08c6.31 42.49 6.58 87.46-4.87 129a296.73 296.73 0 0 1-10 29.7c43-1.7 77.24-32.76 77.24-70.83v-32.7c.01-33.53-26.61-50.9-62.37-55.17z" fill="#c19526"/><path fill="#77401b" d="M216.18 104.27h15.61v106.97h-15.61zM128.34 104.27h15.61v106.97h-15.61z"/><ellipse cx="230.99" cy="127.59" rx="16.97" ry="19.65" fill="#fbc083"/><path d="M217 131.27c0 6.95 4.86 12.58 10.85 12.58s10.86-5.63 10.86-12.58-4.86-12.57-10.86-12.57S217 124.33 217 131.27z" fill="#d09559"/><ellipse cx="126.97" cy="127.59" rx="16.97" ry="19.65" fill="#fbc083"/><path d="M141 131.27c0 6.95-4.86 12.58-10.86 12.58s-10.86-5.63-10.86-12.58 4.86-12.57 10.86-12.57S141 124.33 141 131.27z" fill="#d09559"/><ellipse cx="179.59" cy="127.26" rx="45.87" ry="55.63" fill="#fbc083"/><path d="M198.7 76.69c9.17 10.17 14.92 24.79 14.92 41.05 0 30.72-20.54 55.63-45.87 55.63a39.08 39.08 0 0 1-19.11-5.06c8.15 9.05 19 14.57 31 14.57 25.33 0 45.87-24.9 45.87-55.62-.05-22.45-11.02-41.78-26.81-50.57z" fill="#d09559"/><path d="M211.21 127.63c0 7.06-2.75 12.79-6.14 12.79s-6.13-5.73-6.13-12.79 2.75-12.78 6.13-12.78 6.14 5.72 6.14 12.78z"/><path d="M209.88 124.43c0 2.5-.91 4.52-2 4.52s-2.05-2-2.05-4.52.92-4.51 2.05-4.51 2 2.02 2 4.51z" fill="#fff"/><path d="M159.24 127.63c0 7.06-2.75 12.79-6.14 12.79s-6.1-5.73-6.1-12.79 2.74-12.78 6.13-12.78 6.11 5.72 6.11 12.78z"/><path d="M157.91 124.43c0 2.5-.92 4.52-2 4.52s-2.06-2-2.06-4.52.92-4.51 2.06-4.51 2 2.02 2 4.51z" fill="#fff"/><path d="M226.41 114.87l-.45 1.86a54.64 54.64 0 0 0-2.48-5z" fill="#dc4726"/><path d="M192.74 166.48c2.19-10.94-1.46-16.07 9.62-14.75 14.52 1.74 21.19-24.9 23.6-35 3.83 8.52 8.93 22.79 10.69 31 .15.79.27 1.56.36 2.32a35.26 35.26 0 0 1 10.62 12.53c-3.47-.74-7.61-2.18-11.15-3-.06.24-.12.49-.19.74 2.28 5.18 6.18 10.4 5.49 16.33-3.33-2.37-6.24-5.64-9.36-8.44a28.85 28.85 0 0 1-2.3 2.79c.4 5.19-.43 10.16-3.71 14.25-1.58-2.25-2.4-5.31-3-8.59-1 .68-2 1.32-3.09 1.94a46.15 46.15 0 0 1-5.61 9.78 26.48 26.48 0 0 1-.62-6.57c-8 3.66-16.86 6.15-24.27 8.13-.74-7.82 1.45-16.42 2.92-23.46zM134.68 114.87l.45 1.86a54.64 54.64 0 0 1 2.48-5z" fill="#dc4726"/><path d="M168.35 166.48c-2.19-10.94 1.47-16.07-9.61-14.75-14.53 1.74-21.2-24.9-23.61-35-3.83 8.52-8.92 22.79-10.69 31-.15.79-.27 1.56-.35 2.32a35.18 35.18 0 0 0-10.63 12.53c3.48-.74 7.61-2.18 11.15-3 .06.24.12.49.19.74-2.28 5.18-6.18 10.4-5.49 16.33 3.33-2.37 6.24-5.64 9.36-8.44A30.51 30.51 0 0 0 131 171c-.41 5.19.42 10.16 3.7 14.25 1.58-2.25 2.4-5.31 3-8.59 1 .68 2 1.32 3.09 1.94a46.15 46.15 0 0 0 5.61 9.78 26.48 26.48 0 0 0 .62-6.57c8 3.66 16.86 6.15 24.27 8.13.71-7.82-1.47-16.42-2.94-23.46z" fill="#dc4726"/><path d="M179.89 107.11c17.14 0 33.49.72 48.39 2a47.67 47.67 0 0 0 .24-4.81 48.63 48.63 0 0 0-97.26 0 47.67 47.67 0 0 0 .24 4.81c14.9-1.28 31.25-2 48.39-2z" fill="#dac559"/><path d="M185 113.07c.11-3.12.16-6.42.16-9.83 0-19.77-1.88-35.79-4.2-35.79s-4.2 16-4.2 35.79c0 3.41.06 6.71.16 9.83z" fill="#8c703f"/><path d="M179.89 55.68a49.52 49.52 0 0 0-7.15.53c18.81 6.91 32.77 27.13 34.26 51.52 7.35.34 14.47.8 21.28 1.39a47.67 47.67 0 0 0 .24-4.81 48.63 48.63 0 0 0-48.63-48.63z" fill="#a29954"/><path d="M239.78 111.21c0 2.77-26.36 5-58.87 5s-58.86-2.24-58.86-5 26.35-5 58.86-5 58.87 2.24 58.87 5z" fill="#8c703f"/><path fill="#552e15" d="M164.02 120.13h36.69v23.94h-36.69z"/><path d="M219.36 132.33c0 9.53-7.17 17.26-16 17.26s-16-7.73-16-17.26 7.16-17.27 16-17.27 16 7.73 16 17.27z" fill="#cb7429"/><path d="M216.79 132.33c0 8-6 14.49-13.43 14.49s-13.43-6.49-13.43-14.49 6-14.5 13.43-14.5 13.43 6.49 13.43 14.5z" fill="#252b49"/><path d="M211 120.38a13 13 0 0 0-3.87-2l-16.63 18a15 15 0 0 0 1.83 4.17z" fill="#fcfdff"/><path d="M172.42 132.33c0 9.53-7.16 17.26-16 17.26s-16-7.73-16-17.26 7.17-17.27 16-17.27 16 7.73 16 17.27z" fill="#cb7429"/><path d="M169.85 132.33c0 8-6 14.49-13.43 14.49S143 140.33 143 132.33s6-14.5 13.43-14.5 13.42 6.49 13.42 14.5z" fill="#252b49"/><path d="M164 120.38a12.93 12.93 0 0 0-3.86-2l-16.64 18a15 15 0 0 0 1.84 4.17z" fill="#fcfdff"/><path d="M207.23 147.59c0 10.34-12.38 18.71-27.64 18.71s-27.65-8.37-27.65-18.71 12.38-18.7 27.65-18.7 27.64 8.37 27.64 18.7z" fill="#d95b4a"/><path d="M189.54 130.14c5.44 3.42 8.84 8.3 8.84 13.71 0 10.33-12.37 18.71-27.64 18.71a39.37 39.37 0 0 1-10-1.26 35.7 35.7 0 0 0 18.81 5c15.26 0 27.64-8.37 27.64-18.71.04-7.95-7.3-14.74-17.65-17.45z" fill="#a9473a"/><path d="M179.13 148.77c0 3-4.81 5.41-10.75 5.41s-10.75-2.42-10.75-5.41 4.81-5.41 10.75-5.41 10.75 2.42 10.75 5.41z" fill="#f48577"/><path d="M217.76 116.74a5.31 5.31 0 0 1-5.29 5.33h-16.26a5.31 5.31 0 0 1-5.29-5.33 5.3 5.3 0 0 1 5.29-5.32h16.26a5.3 5.3 0 0 1 5.29 5.32zM166.52 116.74a5.31 5.31 0 0 1-5.29 5.33H145a5.31 5.31 0 0 1-5.29-5.33 5.3 5.3 0 0 1 5.29-5.32h16.26a5.3 5.3 0 0 1 5.29 5.32z" fill="#dc4726"/><path d="M193.86 219.34c-10.64 0-21.29 0-31.92-.59a107.63 107.63 0 0 1-14.1-1.56c-4.45-.86-8.74-2.12-13.24-2.72-10.7-1.4-22.29-1.79-32.89-4.84a80 80 0 0 0 155.17 4.57c-20.23 5.63-42.88 5.14-63.02 5.14z" fill="#ca982c"/><path d="M198.92 219.35c-.59 15.94-2.68 31.75-10.1 46.24-1.17 2.29-2.45 4.5-3.8 6.65a80.08 80.08 0 0 0 71.86-58c-18.55 5.13-39.11 5.14-57.96 5.11z" fill="#a97c2c"/><path d="M98.28 223.63c0-4.21 59.1 33.75 162.27 0v-28.5c-103.17 33.76-162.27-4.2-162.27 0" fill="#77401b"/><path fill="none" stroke="#727a7d" stroke-miterlimit="10" stroke-width="2.148" d="M168.12 225.35h22.93v12.38h-22.93zM168.12 208.18h22.93v12.38h-22.93z"/><path d="M260.27 209.38C157.1 243.14 98 205.17 98 209.38" fill="none" stroke="#532b13" stroke-miterlimit="10" stroke-width="2.148"/><path d="M214.16 278.53v8.88c13 1 23 8.49 23 17.59h-51.88v-26.47z" fill="#c05827"/><path fill="#a73e24" d="M185.28 278.53h12.02V305h-12.02z"/><path d="M219.29 288c-7.22-1-6.87 9.63-13.75 2.41 4.13-5.84 9.63-10.31 13.07-2.06" fill="#bbbbbc"/><path d="M147.66 278.53v8.88c-13 1-23 8.49-23 17.59h51.91v-26.47z" fill="#c05827"/><path fill="#a73e24" d="M164.52 278.53h12.02V305h-12.02z"/><path d="M142.53 288c7.22-1 6.88 9.63 13.75 2.41-4.12-5.84-9.62-10.31-13.06-2.06" fill="#bbbbbc"/><path d="M81.16 250.53c-.68 13.19 17.55 21.09 28.66 16 9.19-4.11 4.57-14.25-2.33-17.52-7.4-3.25-15.68-2.58-23.47-1.92a6.18 6.18 0 0 0-.43 2.94c5.38.37 34.7 2.16 22.71 11.7-13.43 10.54-17.4-14.26-26.66-14.06" fill="#bf6328"/><path fill="#65889a" d="M25.51 95.84l104.39-2.31-30.01 7.99-44.05.97-30.33-6.65z"/><path fill="#9bb1c3" d="M24.095 31.688L128.49 29.39l1.41 64.145-104.394 2.296z"/><path fill="#7a97aa" d="M34.477 37.878l83.8-1.676 1.03 51.49-83.8 1.676z"/><path fill="#65889a" d="M114.91 80.55L35.52 82.3l.16 6.98 83.78-1.85-1.14-51.48-4.39.1.98 44.5z"/><path d="M75.4 99.72L78.65 247a6.79 6.79 0 0 0 13.58-.3L89 99.42z" fill="#bf6328"/><path d="M78.44 237.81l.21 9.17a6.79 6.79 0 0 0 13.58-.3L91.91 232c-4.48 2-8.91 4-13.47 5.81zM78.08 221.22l.28 12.7c4.52-1.85 9-3.87 13.46-5.84l-.06-2.59c-4.62-1.22-9.17-2.7-13.68-4.27zM77.6 199.75l.4 17.57c4.52 1.59 9.07 3.09 13.69 4.35l-.58-26.38c-4.49 1.56-8.98 3.04-13.51 4.46zM77.13 178.28l.39 17.72q6.78-2.14 13.49-4.49l-.21-9.68a138.33 138.33 0 0 1-13.67-3.55zM76.47 148.34l.23 10.24c4.46-2.68 8.91-5.38 13.41-8v-.87c-4.57-.29-9.11-.81-13.64-1.37zM76.27 139.48l.12 5.2c4.53.56 9.07 1.07 13.62 1.38l-.36-16.43c-4.54 3.14-8.88 6.62-13.38 9.85zM75.82 118.78l.36 16.35c4.46-3.26 8.8-6.68 13.37-9.74l-.06-2.82C85 121 80.39 120 75.82 118.78zM86.83 99.47c-3.88 2.66-7.53 5.76-11.24 8.78l.15 7c4.53 1.23 9.2 2.23 13.67 3.61L89 99.42zM75.4 99.72l.09 4c1.71-1.39 3.42-2.79 5.15-4.15zM76.79 162.79l.26 11.66c4.51 1.4 9.06 2.66 13.67 3.6l-.52-23.27c-4.49 2.63-8.94 5.34-13.41 8.01z" fill="#552c12"/><path d="M66 174.88c6.9 3.26 16.64 2.07 24 1.91 6.83-.15 8.33 1.77 10.62-5.11 1.38-3.94.73-11.25.15-15.14-1.12-6.81-1.63-7.77-.32-14.63.83-6.85 1.79-7.36-5.08-9.16-5.4-1.35-8.29.18-13.14 1.75-5.34 1.09-8.8-.78-13.17.29-15.06 3.26-16.29 36-3 40.09M271 222.06c-1.75-3.93-3.5-8.74.87-12.23 3.49-2.62 21-6.12 25.77-4.81 3.93.88 7.43 4.37 6.55 9.17-1.31 4.37-5.68 3.94-10 4.81-7.43 1.31-17.47 1.75-24 4.8" fill="#77401b"/><path d="M273.47 220.14c-2.56 2-10.23 6.81-4.39 15.7 1.4 2.13 5.46-.34 7.16 1.63 3.85 3.55 4.91 9.46 11.32 9.85 9.82.4 20.06-4.73 23.05-14.18 1.71-5.52-4.27-19.7-11.95-18.52" fill="#77401b"/></svg>