<svg data-name="Capa 1" xmlns="http://www.w3.org/2000/svg" viewBox="0 0 361 305"><path d="M124.9 194.43c-21.32-10.83-36.9-27.51-44.2-50.91-4.49-14.86-9.42-28.86-8-44.56 1.14-7.63 2.34-25.08 8.49-30.72 4.17-3.9 11.13-.37 17.67-.33.28 25.32 33.17 36 55 37.22M224.12 103.85c23.27 5.49 42.38 18 55 39 7.87 13.38 16 25.82 18.3 41.41.7 7.69 3.65 24.93-1 31.86-3.13 4.77-10.73 3-17.1 4.48-6.25-24.53-40.72-27.15-62.21-23.19" fill="#c19526"/><path fill="#a97c2c" d="M195.91 252.79h8.17v35.55h-8.17zM157.84 252.79h8.17v35.55h-8.17z"/><path d="M261.07 185c0 39.16-36.25 70.91-81 70.91-44.72 0-81-31.75-81-70.91v-32.7c0-39.16 36.25-56.27 81-56.27 44.71 0 81 17.11 81 56.27z" fill="#f6cc0f"/><path d="M198.69 97.08c6.31 42.49 6.58 87.46-4.87 129a296.73 296.73 0 0 1-10 29.7c43-1.7 77.24-32.76 77.24-70.83v-32.7c.01-33.53-26.61-50.9-62.37-55.17z" fill="#c19526"/><path fill="#77401b" d="M216.7 104.27h15.61v106.97H216.7zM128.86 104.27h15.61v106.97h-15.61z"/><path d="M214.54 142.75c0 10.85 7.6 19.65 17 19.65s17-8.8 17-19.65-7.6-19.66-17-19.66-17 8.8-17 19.66z" fill="#fbc083"/><path d="M217.47 146.43c0 6.95 4.86 12.58 10.86 12.58s10.86-5.63 10.86-12.58-4.86-12.57-10.86-12.57-10.86 5.63-10.86 12.57z" fill="#d09559"/><ellipse cx="127.49" cy="142.75" rx="16.97" ry="19.65" fill="#fbc083"/><path d="M141.53 146.43c0 6.95-4.86 12.58-10.86 12.58s-10.86-5.63-10.86-12.58 4.86-12.57 10.86-12.57 10.86 5.63 10.86 12.57z" fill="#d09559"/><ellipse cx="180.11" cy="142.41" rx="45.87" ry="55.63" fill="#fbc083"/><path d="M199.22 91.85c9.17 10.17 14.92 24.79 14.92 41.05 0 30.72-20.54 55.63-45.87 55.63a39.05 39.05 0 0 1-19.11-5.06c8.15 9.05 19 14.57 31 14.57 25.33 0 45.87-24.9 45.87-55.63C226 120 215 100.64 199.22 91.85z" fill="#d09559"/><path d="M211.73 142.79c0 7.06-2.75 12.78-6.14 12.78s-6.13-5.72-6.13-12.78 2.75-12.79 6.13-12.79 6.14 5.73 6.14 12.79z"/><path d="M210.4 139.59c0 2.5-.91 4.52-2.05 4.52s-2.06-2-2.06-4.52.93-4.52 2.06-4.52 2.05 2.03 2.05 4.52z" fill="#fff"/><path d="M159.76 142.79c0 7.06-2.75 12.78-6.14 12.78s-6.13-5.72-6.13-12.78 2.74-12.79 6.13-12.79 6.14 5.73 6.14 12.79z"/><path d="M158.43 139.59c0 2.5-.92 4.52-2.05 4.52s-2.06-2-2.06-4.52.92-4.52 2.06-4.52 2.05 2.03 2.05 4.52zM161.78 173.01h37.26v18.05h-37.26z" fill="#fff"/><path d="M160.85 185.24c0 .38 9.63.69 21.51.69s21.52-.31 21.52-.69-9.64-.68-21.52-.68-21.51.3-21.51.68z" fill="#6f6f6f"/><path d="M226.93 130l-.45 1.86c-.92-2-1.77-3.77-2.48-5zM193.26 181.64c2.19-10.95-1.47-16.07 9.61-14.75 14.53 1.74 21.2-24.9 23.61-35 3.83 8.51 8.92 22.79 10.69 31 .15.8.27 1.57.35 2.33a35.18 35.18 0 0 1 10.63 12.53c-3.48-.74-7.61-2.18-11.15-3-.06.25-.12.5-.19.74 2.28 5.19 6.18 10.41 5.49 16.34-3.33-2.37-6.24-5.64-9.36-8.44a29 29 0 0 1-2.31 2.79c.41 5.19-.42 10.16-3.7 14.25-1.58-2.25-2.4-5.31-3-8.59-1 .67-2 1.32-3.09 1.94a46.4 46.4 0 0 1-5.61 9.78 26.48 26.48 0 0 1-.62-6.57c-8 3.66-16.86 6.15-24.27 8.13-.74-7.84 1.45-16.44 2.92-23.48zM135.2 130l.45 1.86c.92-2 1.77-3.77 2.48-5zM168.87 181.64c-2.19-10.95 1.46-16.07-9.61-14.75-14.53 1.74-21.2-24.9-23.61-35-3.83 8.51-8.92 22.79-10.69 31-.15.8-.27 1.57-.35 2.33A35.18 35.18 0 0 0 114 177.73c3.47-.74 7.61-2.18 11.15-3 .06.25.12.5.19.74-2.28 5.19-6.18 10.41-5.49 16.34 3.33-2.37 6.24-5.64 9.36-8.44a30.4 30.4 0 0 0 2.3 2.79c-.4 5.19.43 10.16 3.71 14.25 1.58-2.25 2.4-5.31 3-8.59 1 .67 2 1.32 3.09 1.94a46.4 46.4 0 0 0 5.61 9.78 26.48 26.48 0 0 0 .62-6.57c8 3.66 16.86 6.15 24.27 8.13.72-7.82-1.47-16.42-2.94-23.46z" fill="#dc4726"/><path d="M180.41 122.27c17.14 0 33.49.72 48.39 2a47.47 47.47 0 0 0 .24-4.8 48.63 48.63 0 0 0-97.26 0c0 1.62.08 3.23.23 4.8 14.91-1.27 31.26-2 48.4-2z" fill="#dac559"/><path d="M185.47 128.23c.11-3.13.16-6.42.16-9.83 0-19.77-1.88-35.79-4.2-35.79s-4.2 16-4.2 35.79c0 3.41.06 6.7.16 9.83z" fill="#8c703f"/><path d="M180.41 70.84a48.14 48.14 0 0 0-7.15.53c18.81 6.91 32.77 27.13 34.26 51.52 7.35.33 14.47.8 21.28 1.38a47.47 47.47 0 0 0 .24-4.8 48.63 48.63 0 0 0-48.63-48.63z" fill="#a29954"/><path d="M240.3 126.37c0 2.76-26.36 5-58.87 5s-58.86-2.25-58.86-5 26.35-5 58.86-5 58.87 2.24 58.87 5z" fill="#8c703f"/><path fill="#552e15" d="M164.54 135.29h36.69v23.94h-36.69z"/><path d="M219.88 147.48c0 9.54-7.17 17.27-16 17.27s-16-7.73-16-17.27 7.16-17.26 16-17.26 16 7.78 16 17.26z" fill="#cb7429"/><path d="M217.31 147.48c0 8-6 14.49-13.43 14.49s-13.43-6.48-13.43-14.49 6-14.49 13.43-14.49 13.43 6.49 13.43 14.49z" fill="#252b49"/><path d="M211.48 135.54a13 13 0 0 0-3.87-2l-16.63 18a15 15 0 0 0 1.83 4.17z" fill="#fcfdff"/><path d="M172.94 147.48c0 9.54-7.16 17.27-16 17.27s-16-7.73-16-17.27 7.16-17.26 16-17.26 16 7.78 16 17.26z" fill="#cb7429"/><path d="M170.37 147.48c0 8-6 14.49-13.43 14.49s-13.43-6.48-13.43-14.49 6-14.49 13.43-14.49 13.43 6.49 13.43 14.49z" fill="#252b49"/><path d="M164.54 135.54a13.08 13.08 0 0 0-3.86-2l-16.64 18a15.32 15.32 0 0 0 1.83 4.17z" fill="#fcfdff"/><path d="M207.75 162.75c0 10.33-12.38 18.71-27.64 18.71s-27.65-8.38-27.65-18.71 12.38-18.7 27.65-18.7 27.64 8.37 27.64 18.7z" fill="#d95b4a"/><path d="M190.06 145.3c5.44 3.42 8.84 8.29 8.84 13.71 0 10.33-12.37 18.7-27.64 18.7a39.38 39.38 0 0 1-10-1.25 35.7 35.7 0 0 0 18.81 5c15.26 0 27.64-8.38 27.64-18.71.04-7.95-7.3-14.75-17.65-17.45z" fill="#a9473a"/><path d="M179.65 163.93c0 3-4.81 5.41-10.75 5.41s-10.75-2.42-10.75-5.41 4.81-5.41 10.75-5.41 10.75 2.42 10.75 5.41z" fill="#f48577"/><path d="M218.28 131.9a5.31 5.31 0 0 1-5.29 5.33h-16.26a5.31 5.31 0 0 1-5.29-5.33 5.31 5.31 0 0 1 5.29-5.33H213a5.31 5.31 0 0 1 5.29 5.33zM167 131.9a5.31 5.31 0 0 1-5.29 5.33h-16.22a5.31 5.31 0 0 1-5.29-5.33 5.31 5.31 0 0 1 5.29-5.33h16.26a5.31 5.31 0 0 1 5.25 5.33z" fill="#dc4726"/><path d="M194.38 219.34c-10.64 0-21.29 0-31.92-.59a107.63 107.63 0 0 1-14.1-1.56c-4.45-.86-8.74-2.12-13.24-2.72-10.7-1.4-22.29-1.79-32.89-4.84a80 80 0 0 0 155.17 4.57c-20.23 5.63-42.85 5.14-63.02 5.14z" fill="#ca982c"/><path d="M199.44 219.35c-.59 15.94-2.68 31.75-10.1 46.24-1.17 2.29-2.45 4.5-3.8 6.65a80.08 80.08 0 0 0 71.86-58c-18.55 5.13-39.11 5.14-57.96 5.11z" fill="#a97c2c"/><path d="M98.8 223.63c0-4.21 59.1 33.75 162.27 0v-28.5c-103.17 33.76-162.27-4.2-162.27 0" fill="#77401b"/><path fill="none" stroke="#727a7d" stroke-miterlimit="10" stroke-width="2.148" d="M168.64 225.35h22.93v12.38h-22.93zM168.64 208.18h22.93v12.38h-22.93z"/><path d="M260.79 209.38c-103.17 33.76-162.27-4.21-162.27 0" fill="none" stroke="#532b13" stroke-miterlimit="10" stroke-width="2.148"/><path d="M214.68 278.53v8.88c13 1 23 8.49 23 17.59H185.8v-26.47z" fill="#c05827"/><path fill="#a73e24" d="M185.8 278.53h12.02V305H185.8z"/><path d="M219.81 288c-7.22-1-6.87 9.63-13.75 2.41 4.13-5.84 9.63-10.31 13.07-2.06" fill="#bbbbbc"/><path d="M148.18 278.53v8.88c-13 1-23 8.49-23 17.59h51.91v-26.47z" fill="#c05827"/><path fill="#a73e24" d="M165.04 278.53h12.02V305h-12.02z"/><path d="M143.05 288c7.22-1 6.88 9.63 13.75 2.41-4.12-5.84-9.62-10.31-13.06-2.06" fill="#bbbbbc"/><path d="M40.07 62.07C26.92 60.79 18.21 78.64 22.83 90c3.68 9.36 14 5.2 17.6-1.55 3.59-7.23 3.29-15.54 3-23.35a6.15 6.15 0 0 0-2.91-.56c-.61 5.35-3.73 34.57-12.72 22.16-9.93-13.9 15-16.74 15.25-26" fill="#bf6328"/><path fill="#65889a" d="M156.7 13.47l-2.42 104.39-6.62-30.34 1.02-44.05 8.02-30z"/><path fill="#9bb1c3" d="M154.282 117.863l2.424-104.392 64.142 1.49-2.423 104.391z"/><path fill="#7a97aa" d="M160.85 107.693l1.945-83.777 51.476 1.195-1.945 83.777z"/><path fill="#65889a" d="M167.92 103.47l1.84-79.39-6.97-.16-1.94 83.78 51.47 1.19.11-4.39-44.51-1.03z"/><path d="M150.56 63.13L43.72 59.71a6.8 6.8 0 0 0-.31 13.59l106.84 3.41z" fill="#bf6328"/><path d="M52.89 59.93l-9.17-.22a6.8 6.8 0 0 0-.31 13.59l14.68.34c-1.77-4.56-3.57-9.11-5.2-13.71zM69.49 60.31L56.78 60c1.65 4.59 3.47 9.15 5.23 13.71l2.59.06c1.4-4.55 3.12-9.02 4.89-13.46zM91 60.81l-17.62-.41c-1.79 4.44-3.49 8.92-5 13.48l26.38.61c-1.31-4.49-2.6-9.1-3.76-13.68z" fill="#552c12"/><path d="M72 61.31l22.76-.41q1.83 6.87 3.87 13.68l-30.74.22A136.89 136.89 0 0 1 72 61.31z" fill="#552c12"/><path d="M101.94 62l-10.23-.24c2.47 4.58 5 9.15 7.36 13.77h.88c.5-4.53 1.22-9.02 1.99-13.53zM110.8 62.21l-5.2-.12c-.76 4.5-1.48 9-2 13.54L120 76c-2.9-4.66-6.18-9.15-9.2-13.79zM131.51 62.69l-16.35-.38c3 4.6 6.27 9.1 9.11 13.8l2.82.07c1.75-4.38 3.01-8.98 4.42-13.49zM150.3 74.56c-2.49-4-5.42-7.78-8.27-11.63l-6.95-.16c-1.45 4.47-2.65 9.09-4.23 13.49l19.4.45zM150.56 63.13l-4-.09c1.32 1.77 2.64 3.54 3.91 5.33zM87.5 61.67l-11.66-.27a140.34 140.34 0 0 0-4.22 13.49l23.27.54c-2.42-4.61-4.89-9.17-7.39-13.76z" fill="#552c12"/><path d="M75.91 50.29c-3.58 6.75-2.83 16.53-3 23.85-.16 6.86-2.14 8.24 4.63 10.86 3.87 1.56 11.2 1.24 15.11.84 6.86-.82 7.84-1.28 14.64.34 6.8 1.13 7.27 2.12 9.38-4.66 1.59-5.34.19-8.3-1.16-13.21-.85-5.39 1.18-8.76.31-13.17-2.58-15.19-35.22-17.9-39.91-4.83M271.52 222.06c-1.75-3.93-3.5-8.74.87-12.23 3.49-2.62 21-6.12 25.77-4.81 3.93.88 7.42 4.37 6.55 9.17-1.31 4.37-5.68 3.94-10 4.81-7.42 1.31-17.47 1.75-24 4.8" fill="#77401b"/><path d="M274 220.14c-2.57 2-10.23 6.81-4.39 15.7 1.4 2.13 5.46-.34 7.16 1.63 3.84 3.55 4.91 9.46 11.32 9.85 9.82.4 20.06-4.73 23.05-14.18 1.71-5.52-4.27-19.7-11.95-18.52" fill="#77401b"/><path d="M183.83 48.08a2.71 2.71 0 0 0-.59-.4c-.4-.25-1-.6-1.8-1.06-1.59-.93-4-2.27-7.05-4L163 36.31l-15.95-8.79c-1.55 7.68-3.28 16.28-5.18 25.69-.23 1.14-.46 2.29-.69 3.46l-.36 1.76c-.14.58-.31 1.16-.46 1.75l-1.92 7.17q-1.84 6.9-3.82 14.3l-11.55-4.3-6.69-9.3q1-10.14 2-20.83l-19.33 7.36-23.84-3.93-15.06 4.16v21.81l4.11 2L85.14 89h28.55l10.1 6.67-7 9-31.33 10-3.75 1.19-.38.12c-.13.06-.32 0-.37.21l-.4.6-.53.82-1 1.64c-1.38 2.18-2.71 4.35-4 6.53-.63 1.09-1.24 2.18-1.81 3.29a31.28 31.28 0 0 0-1.56 3.43c-.11.3-.21.61-.3.94 0 .16-.08.33-.11.51a2.71 2.71 0 0 0 0 .75 1.26 1.26 0 0 0 .84 1.16 1.64 1.64 0 0 0 .38.1l.17.06.33.16a17.67 17.67 0 0 1 2.77 1.82c1.8 1.47 3.51 3 5.26 4.5a28.91 28.91 0 0 0 2.74 2.12 7.62 7.62 0 0 0 .8.46 2.25 2.25 0 0 0 1.16.29 1.21 1.21 0 0 0 .27 0l.17-.06h0s0-.22.07-.06 0 0 0 0h0a2.39 2.39 0 0 1 .29-.1c.23-.07.48-.13.74-.19 2.07-.41 4.23-.62 6.31-.84s4.14-.38 6.15-.53l3-.22h.29s0 .05.06.08v.13c.12.43.23.86.34 1.29.49 1.86 1 3.69 1.43 5.46.9 3.47 1.77 6.75 2.58 9.85-5.85 7.49-10.67 13.67-14.32 18.33l4.57 3.63c1.26 1 2.31 1.81 3.17 2.47s1.51 1.17 2 1.5a3.16 3.16 0 0 0 .7.46s-.18-.22-.59-.59-1-.92-1.86-1.62L98 181.75l-4-3.34 6.27-7.71 8.29-10.27c-.81-3.27-1.68-6.74-2.58-10.39q-.67-2.67-1.37-5.48l-.39-1.53-.14-.59-.08-.29v-.07s0 0 0 0h-.19l-1.18.07-3 .19q-3 .2-6.18.48c-2.11.2-4.24.39-6.47.8-.28.06-.56.12-.86.21a3.33 3.33 0 0 0-.49.18l-.15.08-.08.05c-.22-.22.25.32.2.27h0v-.07V144h0-.1a1.38 1.38 0 0 1-.29-.12 5.63 5.63 0 0 1-.64-.38 27.6 27.6 0 0 1-2.58-2c-1.71-1.46-3.41-3-5.25-4.55a19.4 19.4 0 0 0-3-2.16c-.15-.07-.3-.15-.48-.22l-.26-.17h0a.12.12 0 0 1-.1-.14v0-.1c0-.11.05-.24.08-.37s.16-.52.26-.79a31.1 31.1 0 0 1 1.5-3.23c.57-1.08 1.17-2.15 1.79-3.22 1.25-2.15 2.58-4.3 4-6.45.34-.54.69-1.08 1-1.62l.54-.81.14-.21h.08L86 116.2l31.91-10 8.58-11-12.24-8.13H85.59L65.11 76.9l-3-1.49V56.28l13.23-3.66 23.92 3.89L116.34 50q-.89 9.52-1.72 18.57 3.76 5.2 7.42 10.22l13.71 5q2.16-8.3 4.18-16.05c.63-2.45 1.26-4.85 1.87-7.2.15-.59.31-1.18.45-1.76l.33-1.77c.23-1.17.45-2.32.67-3.47l4.64-24.27 14.72 7.84 11.49 6.07c3.13 1.65 5.55 2.9 7.2 3.74l1.87.93c.43.15.65.26.66.23z" fill="#86bee7" stroke="#fff" stroke-miterlimit="10" stroke-width=".505"/><path d="M81.61 52.67c-.11.08.46 1.19 1.53 3.07.54.94 1.2 2.07 2 3.35.39.64.8 1.32 1.24 2s1 1.61 1.51 2.46l5.24 1.11 5.49 1.12 1.31.27.33.06h.15c-.47 1.18-.93 2.32-1.36 3.41-.27.67-.52 1.32-.78 2-.12.32-.24.64-.37.95l-.2.53v.06h0v0l-4.39.38c-1.43.13-2.67.25-3.69.37-2 .23-3.22.42-3.21.55a11.79 11.79 0 0 0 3.25.15c1 0 2.28 0 3.71-.09l2.27-.08h1.22l1.66-.08 1.75-4.14c.65-1.57 1.33-3.22 2-4.91l-3.42-.69-5.5-1.09-2.57-.49-1.24-.23-.6-.11-.3-.06h0L86 58.55c-.84-1.24-1.59-2.32-2.21-3.2a12.27 12.27 0 0 0-2.18-2.68zM86.38 85.47a15.69 15.69 0 0 0-3.56 1.12c-1.12.4-2.48.91-4 1.51l-5 1.94h0l-.24-.08-.5-.16c-.34-.1-.68-.2-1-.28a10 10 0 0 0-2.26-.32 3.73 3.73 0 0 0-1.31.21 1.87 1.87 0 0 0-.69.44 1.65 1.65 0 0 0-.28.36l-.1.2v.17A7.87 7.87 0 0 0 67 91.8c-.06.4-.1.8-.14 1.2-.15 1.61-.2 3.25-.21 4.94v2.57a24.78 24.78 0 0 0 .21 2.67c0 .28.11.6.18.9a5.25 5.25 0 0 0 .22.55 3.07 3.07 0 0 0 .35.45 9.28 9.28 0 0 0 1.4 1.12 19.49 19.49 0 0 0 2.99 1.61 10.55 10.55 0 0 0 3.18.94 3.7 3.7 0 0 0 .93 0 1.92 1.92 0 0 0 1-.49 2.31 2.31 0 0 0 .2-.24 2.15 2.15 0 0 0 .14-.26l.15-.31a5.57 5.57 0 0 1 .33-.57 22.19 22.19 0 0 1 3.6-3.92c.64-.56 1.27-1.09 1.89-1.57.31-.24.61-.42.92-.63s.64-.37 1-.53c.64-.34 1.26-.65 1.85-.93l1.57-.74c.12 0 .26-.13.37-.16v.37q0 .69.06 1.26a9.86 9.86 0 0 0 .27 2.55 8.86 8.86 0 0 0 .27-2.55v-.65-.82-1.19 0h0H89.52l-.29.11-.61.23-1 .38-.9.36c-.61.26-1.26.54-1.93.86-.34.16-.68.34-1 .52s-.72.42-1 .66c-.66.48-1.32 1-2 1.56s-1.35 1.17-2 1.84a17 17 0 0 0-1.91 2.24 7.84 7.84 0 0 0-.41.69l-.18.36v.06h0a.74.74 0 0 1-.34.13 2.21 2.21 0 0 1-.58 0 9.61 9.61 0 0 1-2.74-.86 18.91 18.91 0 0 1-2.7-1.51 7.51 7.51 0 0 1-1.17-.94.81.81 0 0 1-.16-.2c0-.07 0-.14-.09-.22 0-.24-.11-.46-.14-.74-.12-.81-.17-1.67-.21-2.51s0-1.69 0-2.52c0-1.66 0-3.28.16-4.82 0-.39.06-.77.11-1.14a6.64 6.64 0 0 1 .19-1v-.1-.06a.28.28 0 0 1 .07-.09.77.77 0 0 1 .25-.16 2.67 2.67 0 0 1 .86-.14 9.09 9.09 0 0 1 2 .24c.33.07.65.15 1 .24l.47.13.23.07.43.15L76.7 90l2.43-1.06c1.53-.67 2.85-1.26 3.93-1.75a16.09 16.09 0 0 0 3.32-1.72zM77.13 123.76c-.1.16.62.86 2 1.72a15.91 15.91 0 0 0 2.53 1.31 9.49 9.49 0 0 0 1.68.5 4.5 4.5 0 0 0 1 .09 2.58 2.58 0 0 0 1.14-.26 2.69 2.69 0 0 0 .29-.16l.21-.16.37-.32c.23-.21.44-.42.64-.64.41-.42.77-.85 1.1-1.24.67-.8 1.25-1.52 1.77-2.07a4.08 4.08 0 0 1 1.28-1c.31-.14.54 0 .61-.11s0-.11-.1-.22a.91.91 0 0 0-.65-.2 3.24 3.24 0 0 0-1.86.86 21 21 0 0 0-2 1.94c-.36.37-.73.77-1.12 1.15a8 8 0 0 1-.6.56 3.48 3.48 0 0 1-.3.26l-.15.11-.1.06a2.41 2.41 0 0 1-1.31.07 9.27 9.27 0 0 1-1.47-.36c-.94-.31-1.79-.68-2.5-1-1.46-.65-2.35-1.05-2.46-.89zM71.62 131.38c0-.1-.31-.3-.86-.68a5.27 5.27 0 0 1-1.81-2 2.58 2.58 0 0 1-.14-1.66c0-.14.1-.3.15-.45s.15-.35.23-.52c.15-.36.31-.72.48-1.1.66-1.5 1.35-3.17 2.1-4.91l1.11-2.54.21-.48.13-.3.07-.15v-.08h-.06l-.8-.75a13.15 13.15 0 0 0-1-.83 13 13 0 0 0-4.18-1.93c-2.52-.6-4.13-.34-4.11-.16s1.54.3 3.83 1.09a14.45 14.45 0 0 1 3.7 2c.29.26.62.49.9.78l.15.15h0l-.06.13-1.14 2.54c-.76 1.76-1.42 3.46-2 5l-.44 1.14c-.06.18-.14.35-.2.55l-.15.62a3.48 3.48 0 0 0 .38 2.31 4.2 4.2 0 0 0 1.25 1.37 6.5 6.5 0 0 0 1.17.65c.65.26 1.06.29 1.09.21zM143 52.67a29.44 29.44 0 0 0 3.44 1.91 39.1 39.1 0 0 1 3.9 2.35 10.44 10.44 0 0 1 1 .84 3.29 3.29 0 0 1 .44.48.87.87 0 0 1 .23.45v.72c0 .24 0 .5-.06.76-.06.53-.13 1.08-.19 1.64-.28 2.23-.63 4.68-1 7.31-.2 1.32-.39 2.68-.6 4.08-.1.7-.21 1.41-.31 2.13-.06.36-.11.73-.17 1.1s-.07.74-.11 1.11c-.24 3-.5 6.12-.77 9.36-.06.82-.13 1.64-.2 2.46v1.65l1.36.9q2.13 1.38 4.39 2.69a45.65 45.65 0 0 0 4.51 2.39 11.25 11.25 0 0 0 2.56.79h.78a3 3 0 0 0 .46-.1 1.55 1.55 0 0 0 .42-.24 8.93 8.93 0 0 0 1-.87c1.19-1.19 2.22-2.41 3.24-3.61s2-2.4 2.91-3.57L173 86c.22-.28.44-.54.67-.8l.13-.14.14-.11a1 1 0 0 1 .32-.16 3.8 3.8 0 0 1 1.74-.09 15.78 15.78 0 0 1 3.55 1c.56.23 1.1.47 1.63.72l.78.37.38.2.16.09h.07l3.06 5.15c.94 1.53 1.74 2.86 2.4 3.94a22 22 0 0 0 2.18 3.27 20.06 20.06 0 0 0-1.75-3.44c-.6-1.11-1.33-2.47-2.19-4s-1.89-3.43-3-5.45a1.12 1.12 0 0 0-.29-.19l-.21-.12-.38-.21-.79-.41c-.54-.27-1.09-.53-1.67-.78a16.57 16.57 0 0 0-3.8-1.19 5 5 0 0 0-2.28.11 2.55 2.55 0 0 0-.6.29 1.39 1.39 0 0 0-.27.21 2.47 2.47 0 0 0-.23.23l-.7.81c-.92 1.09-1.84 2.22-2.79 3.37s-1.93 2.33-2.94 3.52-2 2.39-3.17 3.5a8.75 8.75 0 0 1-.84.72c-.09.08-.09 0-.11.07a.89.89 0 0 0-.14 0H161.6a10.4 10.4 0 0 1-2.21-.7 43.81 43.81 0 0 1-4.46-2.29c-1.49-.85-2.93-1.74-4.33-2.65l-.53-.34-.2-.13h0v-.27l.05-.62.18-2.45.69-9.34c0-.37 0-.75.1-1.1s.09-.72.14-1.08c.1-.72.19-1.43.29-2.14.18-1.4.36-2.77.53-4.09.33-2.64.62-5.1.83-7.36.05-.56.1-1.12.15-1.66v-.82-.83a1.69 1.69 0 0 0-.43-.88 4.33 4.33 0 0 0-.56-.57 11.92 11.92 0 0 0-1.16-.86 33.14 33.14 0 0 0-4.1-2.2 16.7 16.7 0 0 0-3.58-1.43z" fill="#86bee7" stroke="#fff" stroke-miterlimit="10" stroke-width=".505"/><path d="M168.27 88.66c.13 0 .14-1.11 0-3-.06-.94-.14-2.07-.25-3.37s-.22-2.54-.35-4h0l.07-.06.34-.3.69-.61 1.48-1.32 3-2.7.24-.22.1-.09h0l3.53-.79 3.67-.85 1.07-1.67.86-1.37 1.55-2.51v-.63-.46-.85c0-.53-.07-1-.11-1.36-.08-.74-.16-1.14-.24-1.14s-.16.4-.24 1.14c0 .37-.07.83-.11 1.36s-.06 1.05-.09 1.67c0 0-.19.25-.31.42s-.27.36-.4.55l-.87 1.21-1.9 2.58a5.53 5.53 0 0 0-.58.11l-.85.17-1.77.37-3.89.83-.62.55-3 2.73-3 2.76c.07.49.13 1 .19 1.46s.11.74.16 1.1c.1.72.2 1.4.29 2 .19 1.29.37 2.41.53 3.34.42 1.9.67 2.97.81 2.95zM170.37 40.79c.15.11 1.92-1.86 4.66-5.14l.52-.63a1 1 0 0 1 .14-.16h2l4 .1c1.42 0 2.94.09 4.48.07h2.55v-.51l-.07-.59c-.11-.85-.21-1.72-.31-2.6-.35-2.81-.68-5.52-1-8l-4 .18-3.08.16-2.74.16H177.23l-.48-.34c-.31-.23-.61-.45-.88-.67a8.59 8.59 0 0 1-2.16-2.35c-.35-.64-.25-1.06-.35-1.08s-.08.08-.14.3a1.86 1.86 0 0 0 .09.95 7.54 7.54 0 0 0 2 2.79c.26.25.55.51.86.77l.48.38.2.15c.07.05.14.12.23.1h3.18l5.87-.11v0h0v.23c0 .29.06.6.1.9.07.6.13 1.22.21 1.84.14 1.25.29 2.53.44 3.84q.14 1.11.27 2.19h0-9.44l-1.82.07h-.52c-.06 0-.13 0-.16.06l-.39.51-.49.66c-2.61 3.46-4.11 5.65-3.96 5.77zM154.84 93.34a7 7 0 0 0 .11 2.43c.08.77.2 1.69.35 2.76.07.53.16 1.1.24 1.7 0 .3.09.61.14.92s.14.91.22 1.38l5.79.82 5.63.74h0l.45 2.94.24 1.55.12.75v.19c0 .06 0 0 0 0h0l-7.13 3.21 1 .86.47.39.27.23c.37.29.72.57 1 .84.65.52 1.22 1 1.69 1.31.95.71 1.5 1.07 1.57 1s-.36-.58-1.19-1.42c-.42-.42-.93-.93-1.53-1.5l-1-.92-.26-.25-.09-.09-.12-.14c.2-.07.09 0 .82-.29l1.71-.67 1.82-.72 2.39-1c-.32-2.22-.66-4.59-1-7.06l-.07-.48-3.68-.45-3-.35-2.81-.31-1.33-.15-.64-.06h-.21v-.09l-.09-.46c-.07-.32-.13-.62-.19-.92q-.18-.89-.36-1.68c-.22-1.05-.43-2-.61-2.71a6.68 6.68 0 0 0-.72-2.3zM102.23 167.62c-.09.1.33.61 1.12 1.4.39.4.88.87 1.44 1.4l1.69 1.55V181.26l1.06.63.72.42 1.35.77c.85.48 1.61.89 2.25 1.22 1.28.66 2.08 1 2.16.85s-.57-.69-1.73-1.54c-.58-.43-1.29-.93-2.1-1.48l-2.4-1.6h0v-.06-.45-.92-1.91-2.87c0-.92 0-2-.06-2.9l-.49-.39-.27-.22-.53-.4-1-.74c-.62-.47-1.17-.86-1.63-1.18-.92-.66-1.5-.97-1.58-.87zM104.29 145.3c.18-.08-.37-1.66-1.2-4.2a43.65 43.65 0 0 1-1.24-4.48 9.19 9.19 0 0 1-.16-1.27 2.31 2.31 0 0 1 0-.59.78.78 0 0 1 .1-.36l.16-.15a1.81 1.81 0 0 1 .25-.19 4.63 4.63 0 0 1 .56-.39c.4-.25.83-.49 1.28-.72.72-.37 1.45-.71 2.17-1l1.07-.47.52-.21.94-.37v-1.53-1.05-1.94c0-1.22-.1-2.3-.15-3.2-.12-1.8-.26-2.86-.41-2.86s-.29 1.06-.4 2.86c-.06.9-.11 2-.15 3.2s-.06 2.31-.1 3.62h-.12l-.55.21-1.1.45c-.75.32-1.5.67-2.27 1.06-.47.24-.92.5-1.37.78-.22.15-.45.3-.66.47a2 2 0 0 0-.32.27 1.58 1.58 0 0 0-.35.37 1.9 1.9 0 0 0-.33 1 3.83 3.83 0 0 0 0 .83 10.32 10.32 0 0 0 .23 1.44 29.6 29.6 0 0 0 1.57 4.56c1 2.5 1.87 3.94 2.03 3.86zM92.08 143.54c-.29.23 2.28 3.92 5.76 8.22l.32.39h0l-.16.11-.7.54-1.31 1c-.83.66-1.55 1.26-2.15 1.78-1.2 1-1.87 1.73-1.77 1.87s1-.3 2.31-1.14c.67-.42 1.46-.94 2.33-1.53l1.37-1 .72-.51 1.31-1-1.21-1.52c-3.47-4.16-6.52-7.45-6.82-7.21zM117.38 105.42c.17-.07.08-.78-.21-1.88-.14-.56-.33-1.21-.56-1.93l-.38-1.13-.21-.6c-.12-.31-.23-.63-.35-.95l-.81-.2c-3.64-.87-6.67-1.28-6.76-.91s2.8 1.37 6.44 2.25h.1l.11.27.24.58.46 1.1c.3.7.58 1.32.84 1.83.52 1.04.92 1.63 1.09 1.57z" fill="#86bee7" stroke="#fff" stroke-miterlimit="10" stroke-width=".505"/></svg>