<svg data-name="Capa 1" xmlns="http://www.w3.org/2000/svg" viewBox="0 0 361 305"><path d="M151.08 283.42c4-2 12.63 2 17.18 3 2-8.09 6.57-15.67 8.59-23.75-2 0-8.45-3.6-10.47-3.6a89.54 89.54 0 0 1-4.69 19.26 40.23 40.23 0 0 1-7.07-2.52" fill="#a97c2c"/><path d="M119.79 74.9c-6.39-11.56-26-8.62-32.77 1.6-5.62 8.34 3.66 14.5 11.25 13.64 8-1.15 14.67-6.1 20.94-10.77a6.17 6.17 0 0 0-1.2-2.72c-4.76 2.53-30.6 16.5-25.46 2.06 5.83-16 22.31 2.92 30.07-2.16" fill="#bf6328"/><path fill="#65889a" d="M248.79 176.82l-87.41 57.12 21.25-22.63 36.89-24.11 29.27-10.38z"/><path fill="#9bb1c3" d="M161.377 233.925l87.405-57.131 35.104 53.705-87.405 57.13z"/><path fill="#7a97aa" d="M173.476 233.59l70.145-45.848 28.171 43.1-70.144 45.848z"/><path fill="#65889a" d="M180.97 237.04l66.47-43.44-3.82-5.84-70.15 45.84 28.17 43.11 3.68-2.41-24.35-37.26z"/><path d="M204.38 199.89L123.8 76.58A6.79 6.79 0 1 0 112.43 84L193 207.32z" fill="#bf6328"/><path d="M128.82 84.26l-5-7.68A6.79 6.79 0 1 0 112.43 84l8 12.29c2.79-4.02 5.57-8.08 8.39-12.03zM137.9 98.16l-7-10.64c-2.86 4-5.58 8-8.34 12.07l1.41 2.17c4.63-1.4 9.27-2.55 13.93-3.6zM149.65 116.13L140 101.42c-4.67 1-9.33 2.17-13.92 3.54l14.44 22.09q4.48-5.53 9.13-10.92zM161.4 134.11l-9.67-14.79q-4.64 5.39-9.08 10.93l5.29 8.11a138.36 138.36 0 0 1 13.46-4.25zM177.78 159.17l-5.6-8.56c-2.38 4.63-4.73 9.27-7.17 13.86l.48.73c4.02-2.15 8.14-4.1 12.29-6.03zM182.63 166.59l-2.85-4.35c-4.14 1.92-8.27 3.88-12.29 6l9 13.76c2.18-5 4.03-10.29 6.14-15.41zM194 183.93l-9-13.69c-2.07 5.12-3.95 10.32-6.21 15.33l1.54 2.36c4.6-1.03 9.11-2.6 13.67-4zM194.81 206.14c1.89-4.31 3.35-8.87 4.91-13.39l-3.81-5.83c-4.5 1.35-9 3-13.51 4.16l10.6 16.24zM204.38 199.89l-2.2-3.38c-.72 2.09-1.43 4.18-2.19 6.25zM169.87 147.08l-6.38-9.76c-4.57 1.19-9.1 2.53-13.51 4.16L162.72 161c2.42-4.64 4.77-9.29 7.15-13.92z" fill="#552c12"/><path d="M172.69 131.09c-7.59.87-15.23 7-21.35 11-5.72 3.74-8 2.91-6.32 10 .91 4.07 5.32 9.93 7.87 12.93 4.55 5.18 5.49 5.73 8 12.25 2.92 6.26 2.37 7.2 9.16 5.09 5.3-1.71 6.94-4.53 10.23-8.43 4-3.75 7.89-4 11-7.21 11.06-10.72-5.19-39.16-18.62-35.62" fill="#77401b"/><path d="M224.88 103.16c17.36 4.1 37.7 14 47 29.81 9.12 15.63 7.91 35 4.25 52-1.57 7.3-3.6 14.5-5.87 21.62-1.53 4.8-3.05 13.3-8.08 15.75-4.52 2.2-5.66-5.41-10.52-4.27-6.24-24.53-12.28-25.29-33.77-21.33" fill="#c19526"/><path d="M77 192.23c.16 1-19-35.31-12.58-45.68s56.6-43.94 85.52-46.2l-9.43 71.87s-27.78 45.91-31.29 47.65-12.07-4.07-22.49-11.51" fill="#f6cc0f"/><path fill="#a97c2c" d="M196.67 252.1h8.17v35.55h-8.17z"/><path d="M261.83 184.29c0 39.16-36.25 70.91-81 70.91-44.72 0-81-31.75-81-70.91v-32.7c0-39.16 36.24-56.27 81-56.27 44.71 0 81 17.11 81 56.27z" fill="#f6cc0f"/><path d="M199.45 96.39c6.31 42.49 6.58 87.46-4.87 129a296.73 296.73 0 0 1-10 29.7c43-1.7 77.24-32.76 77.24-70.83v-32.7c.01-33.56-26.61-50.9-62.37-55.17z" fill="#c19526"/><path fill="#77401b" d="M217.46 103.58h15.61v106.97h-15.61zM129.62 103.58h15.61v106.97h-15.61z"/><path d="M225.27 141.21c-5.31 9.47-3 20.86 5.19 25.45s19.11.62 24.42-8.85 3-20.85-5.19-25.44-19.11-.62-24.42 8.84z" fill="#fbc083"/><path d="M226 145.86c-3.4 6.06-1.91 13.35 3.32 16.28s12.22.4 15.62-5.66 1.91-13.34-3.32-16.27-12.19-.4-15.62 5.65z" fill="#d09559"/><path d="M164.15 106.93c-5.31 9.47-16.24 13.43-24.42 8.85s-10.5-16-5.19-25.45 16.24-13.42 24.46-8.84 10.45 15.98 5.15 25.44z" fill="#fbc083"/><path d="M159.79 108.71c-3.4 6.06-10.39 8.59-15.62 5.66s-6.72-10.22-3.32-16.28 10.39-8.59 15.62-5.65 6.71 10.22 3.32 16.27z" fill="#d09559"/><path d="M235.41 146.52c-15 26.79-45.12 38.47-67.22 26.08s-27.82-44.16-12.8-71 45.12-38.47 67.22-26.08 27.83 44.2 12.8 71z" fill="#fbc083"/><path d="M236.8 89.32c3 13.36.89 28.93-7.06 43.11-15 26.79-45.12 38.47-67.22 26.08a39.1 39.1 0 0 1-14.19-13.76c2.69 11.88 9.46 22 19.86 27.85 22.1 12.39 52.19.71 67.22-26.08 10.98-19.58 10.86-41.81 1.39-57.2z" fill="#d09559"/><path d="M222.8 139.88c-3.46 6.15-8.65 9.8-11.61 8.14s-2.55-8 .91-14.15 8.64-9.8 11.6-8.14 2.55 7.99-.9 14.15z"/><path d="M223.21 136.44c-1.22 2.17-3 3.49-4 2.93s-.81-2.77.41-4.94 3-3.49 4-2.94.81 2.77-.41 4.95z" fill="#fff"/><path d="M177.47 114.45c-3.46 6.16-8.65 9.81-11.61 8.15s-2.55-8 .9-14.15 8.65-9.8 11.61-8.14 2.55 7.99-.9 14.14z"/><path d="M177.88 111c-1.22 2.17-3 3.49-4 2.93s-.81-2.77.41-4.94 3-3.49 4-2.94.81 2.79-.41 4.95z" fill="#fff"/><path d="M242.29 136.18l-1.29 1.41a54 54 0 0 0 .27-5.57zM187.68 164.73c7.27-8.48 6.59-14.74 15.61-8.16 11.82 8.62 30.67-11.35 37.71-19-.83 9.29-3.37 24.24-5.83 32.25-.26.76-.54 1.49-.84 2.2a35.09 35.09 0 0 1 3.15 16.13c-2.67-2.35-5.57-5.63-8.26-8.07l-.53.55c-.55 5.64.3 12.1-3.21 16.93-1.74-3.69-2.68-8-4-11.94a28.14 28.14 0 0 1-3.38 1.31c-2.18 4.72-5.33 8.65-10.2 10.61-.28-2.73.51-5.8 1.58-9-1.2.1-2.42.16-3.65.19a45.82 45.82 0 0 1-9.67 5.77 26.18 26.18 0 0 1 2.67-6c-8.79-.74-17.72-2.89-25.14-4.78 3.15-7.14 9.31-13.57 13.99-18.99zM162.29 91.32c-.14.52-.32 1.14-.52 1.84a54.33 54.33 0 0 1 4.61-3.16zM166.42 152.8c3.44-10.62 9.13-13.3-1.18-17.57-13.52-5.59-6.31-32.09-3.47-42.07-7.5 5.55-18.93 15.51-24.48 21.79-.52.62-1 1.24-1.44 1.86a35 35 0 0 0-15.4 5.73c3.39 1 7.7 1.81 11.19 2.84-.07.24-.14.49-.19.74-4.53 3.4-10.49 6-12.78 11.56 4.06-.44 8.19-1.87 12.29-2.78a31.27 31.27 0 0 0 .64 3.56c-2.88 4.33-4.59 9.06-3.73 14.24 2.48-1.19 4.69-3.46 6.82-6 .54 1.08 1.13 2.15 1.75 3.21a46.21 46.21 0 0 0 .11 11.27 26.15 26.15 0 0 0 3.75-5.43c5.21 7.12 11.7 13.61 17.19 19 4.51-6.52 6.76-15.1 8.93-21.95z" fill="#dc4726"/><path d="M205.52 106.66c14.95 8.39 28.86 17 41.23 25.42.9-1.3 1.76-2.66 2.55-4.07a48.63 48.63 0 1 0-84.83-47.58q-1.18 2.11-2.14 4.31c13.67 6.16 28.23 13.53 43.19 21.92z" fill="#dac559"/><path d="M207 114.33c1.62-2.67 3.28-5.52 4.95-8.49 9.67-17.24 15.86-32.14 13.84-33.27s-11.5 11.92-21.17 29.15c-1.67 3-3.23 5.88-4.67 8.66z" fill="#8c703f"/><path d="M230.67 61.8a49.53 49.53 0 0 0-6.49-3c13 15.23 15.31 39.7 4.68 61.7 6.25 3.88 12.23 7.77 17.89 11.62.9-1.3 1.76-2.66 2.55-4.07a48.63 48.63 0 0 0-18.63-66.25z" fill="#a29954"/><path d="M255.75 139.53c-1.36 2.41-25.44-8.53-53.79-24.43s-50.25-30.75-48.9-33.16 25.44 8.53 53.79 24.43 50.25 30.75 48.9 33.16z" fill="#8c703f"/><path fill="#552e15" d="M173.599 131.117l11.708-20.882 32.003 17.945L205.6 149.06z"/><path d="M227.61 148c-4.67 8.32-14.69 11.56-22.4 7.24S195 140.62 199.7 132.3s14.69-11.55 22.4-7.23 10.17 14.57 5.51 22.93z" fill="#cb7429"/><path d="M225.37 146.7c-3.92 7-12.33 9.7-18.8 6.07s-8.54-12.23-4.63-19.21 12.33-9.7 18.8-6.07 8.54 12.23 4.63 19.21z" fill="#252b49"/><path d="M226.13 133.43a12.88 12.88 0 0 0-2.41-3.61l-23.29 7.52a15.23 15.23 0 0 0-.44 4.53z" fill="#fcfdff"/><path d="M186.67 125c-4.66 8.31-14.69 11.55-22.4 7.23s-10.17-14.57-5.51-22.89 14.69-11.55 22.4-7.23 10.17 14.57 5.51 22.89z" fill="#cb7429"/><path d="M184.43 123.74c-3.92 7-12.33 9.7-18.8 6.07s-8.54-12.23-4.63-19.21 12.33-9.7 18.8-6.07 8.54 12.23 4.63 19.21z" fill="#252b49"/><path d="M185.19 110.47a13 13 0 0 0-2.41-3.61l-23.29 7.52a15.23 15.23 0 0 0-.44 4.53z" fill="#fcfdff"/><path d="M233.08 132.77a5.31 5.31 0 0 1-7.08-2.5l-6.94-14.71a5.29 5.29 0 0 1 2.55-7 5.31 5.31 0 0 1 7.08 2.5l6.95 14.7a5.31 5.31 0 0 1-2.56 7.06zM192.34 94.17a5.31 5.31 0 0 1-5.08 5.53l-16.25.63a5.3 5.3 0 0 1-5.49-5.11 5.33 5.33 0 0 1 5.08-5.54l16.25-.63a5.31 5.31 0 0 1 5.49 5.12z" fill="#dc4726"/><path d="M183.15 160.64c-3.15 8.16-8.87 13.54-12.78 12s-4.51-9.34-1.35-17.5 8.87-13.54 12.78-12 4.51 9.34 1.35 17.5z" fill="#5e1919"/><path d="M174.26 164c-1.91-2.85-4.93-1.47-7.26.76-.05 4 1.1 7 3.37 7.9 1.46.56 3.16.17 4.9-1 .34-2.66.38-5.59-1.01-7.66z" fill="#f48577"/><path d="M209.56 155.34c-5.05 9-19.94 10.26-33.26 2.8s-20-20.83-15-29.84 19.95-10.26 33.26-2.79 20.06 20.82 15 29.83z" fill="#d95b4a"/><path d="M202.67 131.47c3.07 5.64 3.66 11.55 1 16.28-5.06 9-20 10.26-33.26 2.79a39.53 39.53 0 0 1-8.07-6 35.68 35.68 0 0 0 14 13.56c13.32 7.46 28.21 6.21 33.26-2.8 3.85-6.9.77-16.41-6.93-23.83z" fill="#a9473a"/><path d="M184.48 142.62c-1.46 2.61-6.84 2.37-12-.54s-8.19-7.37-6.73-10 6.84-2.37 12 .54 8.19 7.38 6.73 10z" fill="#f48577"/><path d="M195.14 218.65c-10.64 0-21.29 0-31.91-.59a107.78 107.78 0 0 1-14.11-1.56c-4.45-.86-8.74-2.12-13.24-2.72-10.69-1.4-22.29-1.79-32.89-4.84a80 80 0 0 0 155.17 4.57c-20.22 5.63-42.85 5.14-63.02 5.14z" fill="#ca982c"/><path d="M200.21 218.66c-.59 15.94-2.69 31.75-10.11 46.24-1.17 2.29-2.44 4.5-3.8 6.65a80.07 80.07 0 0 0 71.86-58c-18.55 5.13-39.11 5.14-57.95 5.11z" fill="#a97c2c"/><path d="M99.56 222.94c0-4.21 59.1 33.75 162.27 0v-28.49c-103.17 33.75-162.27-4.21-162.27 0" fill="#77401b"/><path fill="none" stroke="#727a7d" stroke-miterlimit="10" stroke-width="2.148" d="M169.4 224.66h22.93v12.38H169.4zM169.4 207.49h22.93v12.38H169.4z"/><path d="M261.55 208.69c-103.17 33.76-162.27-4.21-162.27 0" fill="none" stroke="#532b13" stroke-miterlimit="10" stroke-width="2.148"/><path d="M215.44 277.84v8.88c13 1 23 8.49 23 17.59h-51.88v-26.47z" fill="#c05827"/><path fill="#a73e24" d="M186.56 277.84h12.02v26.47h-12.02z"/><path d="M220.58 287.27c-7.22-1-6.88 9.63-13.76 2.41 4.13-5.84 9.63-10.31 13.07-2.06" fill="#bbbbbc"/><path d="M91 211.68c8.59 8.59 33.85 10.61 44.46 5 21.73-11.62-5.55-41.42-11.11-55.57-4-9.6-3.54-26.27-17.68-23.74-10.11 1.51-21.73 15.15-21.22 24.75" fill="#f6cc0f"/><path d="M123.68 270.9c-.62 1.94-1.53 3.39-2 3.22l-.56-.17c-.51-.16-.42-1.87.2-3.82l10.59-35.06c.62-1.94 1.71-3.33 2.43-3.1l.78.25c.73.23.81 2 .19 3.94z" fill="#080808"/><path d="M140 233.37a3.7 3.7 0 0 1-4.64 2.4l-2.12-.67a3.7 3.7 0 0 1-2.4-4.64l9.21-35.46c.62-1.94 3.35-2.81 6.11-1.94l3 1c2.75.88 4.48 3.17 3.86 5.11z" fill="#3d3d3e"/><path d="M164.8 180.74a11.49 11.49 0 1 1-11.49-11.49 11.48 11.48 0 0 1 11.49 11.49z" fill="#8d8d8d"/><path d="M164.83 184.11a.91.91 0 0 1-1.12.63l-21.61-6a.91.91 0 0 1-.63-1.12.91.91 0 0 1 1.12-.64l21.61 6a.91.91 0 0 1 .63 1.12z" fill="#3d3d3e"/><path d="M158.31 192.33c-2.73-5.81-8.62-4.62-13.33-6.88-2.46-.86-1.67-5.54-4.16-6-7.91-1.63-10.77 3.1-12.08 6.84-4.3-.17-9.41 0-11 5.33-1.14 4.21 2.06 21.74 5 25.72 2.26 3.33 6.8 5.29 10.94 2.71a5.84 5.84 0 0 0 1.24-1.32c5.11 3.54 15.24 3.12 18.74.29 7.66-6.3 8.64-17.71 4.65-26.69z" fill="#77401b"/><path d="M155 292.14l-8.28-3.14c-5.56 11.75-16.17 18.48-24.67 15.22l8.24-21.51 10.34-27 24.71 9.48z" fill="#c05827"/><path fill="#a73e24" d="M136.325 266.92l4.3-11.224 24.719 9.469-4.3 11.224z"/><path d="M144.37 293.56c3.54-6.37-6.53-9.87 2.67-13.7 4 5.94 6.19 12.68-2.75 12.93" fill="#bbbbbc"/></svg>