<svg data-name="Capa 1" xmlns="http://www.w3.org/2000/svg" viewBox="240 0 1440 1080"><path fill="#825324" d="M-3.5-2.05h1924V1080.2H-3.5z"/><path fill="#57371a" d="M-3.5 1002.79h1924v77.41H-3.5z"/><path fill="#7d6126" d="M697.2 1018.41l-81.06 61.79h697.82l-70.67-55.94"/><path fill="#915d27" d="M-3.5 1064.42h1924v3.76H-3.5z"/><path fill="#68401c" d="M-3.5 1065.17h1924v2.25H-3.5z"/><path fill="#915d27" d="M-3.5 1025.34h1924v3.76H-3.5z"/><path fill="#68401c" d="M-3.5 1026.09h1924v2.25H-3.5z"/><path d="M49.86-2h2.26v206.4l-2.26-1.52zM38.59 196V-2h2.25v199.39z" fill="#915d27"/><path d="M40.84 197.39V-2h9v204.83q-4.46-2.76-9-5.44z" fill="#774a21"/><path d="M190.4 323V-2h2.26v327.84zM202.43-2h2.25v235.19h-2.25v14.28h2.25v92.36l-2.25-3.1z" fill="#915d27"/><path d="M193.41 325.84V-2h9v338.76q-4.41-5.52-9-10.92z" fill="#774a21"/><path fill="#915d27" d="M342.97 247.47h2.25v756.82h-2.25zM342.97-2.05h2.25v235.24h-2.25zM356.5-2.05v415.61h-2.26v14.29h2.26v576.44h-2.26V-2.05h2.26z"/><path fill="#774a21" d="M345.98 247.47v-14.28h-.75V-2.05h9.01v1006.34h-9.01V247.47h.75z"/><path d="M461 425.59v2.25h-63.6a10.48 10.48 0 0 0-3.76 0H356.5v-2.25zM356.5 413.56h63.13c0 .84 1.35 1.53 3 1.53s3-.69 3-1.53H461v2.26H356.5zM354.24 413.56h2.25v2.25h-2.25zM354.24 425.59h2.25v2.25h-2.25z" fill="#915d27"/><path fill="#774a21" d="M356.5 415.82h104.47v9.02H356.5zM354.24 415.82h2.25v9.02h-2.25z"/><path fill="#915d27" d="M202.43 245.21h2.25v2.25h-2.25zM202.43 233.19h2.25v2.25h-2.25zM342.97 245.21h2.25v2.25h-2.25zM342.97 233.19h2.25v2.25h-2.25zM345.22 245.21h.75v2.25h-.75zM345.22 233.19h.75v2.25h-.75z"/><path fill="#774a21" d="M202.43 235.44h2.25v9.02h-2.25zM342.97 235.44h2.25v9.02h-2.25zM345.22 235.44h.75v9.02h-.75z"/><path d="M214.45 251.15c0-1 1.35-1.87 3-1.87s3 .84 3 1.87v109.44q-3-4.09-6-8.14zM319.67 252.29a3 3 0 0 1 3.63-2.94 3.07 3.07 0 0 1 2.38 3.05v361.22q-2.58-16.05-6-31.79zM260.3 1002.24c0 .25-1.35.45-3 .45-.5 0-1 0-1.39-.05q2.22-3.92 4.4-7.85zM398.59 428.52v112.54c0 .48-1.35.87-3 .87s-3-.39-3-.87V428.52c0-.27.45-.52 1.13-.68h3.75c.67.16 1.12.41 1.12.68zM397.64 427.84h-3.75a8.51 8.51 0 0 1 1.88-.19 8.42 8.42 0 0 1 1.87.19zM443.68 740.37c1.66 0 3 .89 3 2v256.16c0 1.1-1.35 2-3 2s-3-.88-3-2V742.35c-.01-1.09 1.32-1.98 3-1.98zM419.63 215.16c0-.85 1.35-1.53 3-1.53s3 .68 3 1.53v198.4h-6zM422.64 415.11c-1.66 0-3-.69-3-1.53h6c0 .84-1.34 1.53-3 1.53zM373 91.6c-1.66 0-3-.32-3-.71v-93c0-.4 1.34-.72 3-.72s3 .32 3 .72v93c0 .39-1.31.71-3 .71zM232.49 231.73V29.3c0-.87 1.35-1.57 3-1.57s3 .7 3 1.57v202.43c0 .86-1.34 1.56-3 1.56s-3-.7-3-1.56zM257.29 153c0-.35 1.35-.63 3-.63s3 .28 3 .63v80.18h-6zM262.27 235.44h-3.95c-.62-.1-1-.26-1-.43v-1.82h6V235c-.02.18-.42.34-1.05.44zM258.14 235.44h3.95a11.07 11.07 0 0 1-2 .16 11 11 0 0 1-1.95-.16zM76.17 1c0-2.13 1.34-3.85 3-3.85s3 1.72 3 3.85v222.74q-3-2.12-6-4.19zM162.6 247.4c-1.66 0-3-.84-3-1.87V3.51c0-1 1.35-1.87 3-1.87s3 .84 3 1.87v242c0 1.05-1.34 1.89-3 1.89zM1.76-.68c0-1.21 1.35-2.19 3-2.19s3 1 3 2.19v179.6l-6-3z" fill="#7b4e22"/><path d="M40.84 539.08h-2.25V196l2.25 1.44zM52.12 203.74v548h-2.26v14.28h2.26v238.24h-2.26V202.22zM38.59 552.6h2.25v450.94h-2.25z" fill="#915d27"/><path d="M41.59 552.6v-13.52h-.75V197.25q4.54 2.69 9 5.44v801.6h-9V552.6z" fill="#774a21"/><path fill="#915d27" d="M190.4 766.05h2.25v238.25h-2.25zM192.66 751.77h-2.26V322.58c.75 1 1.51 1.92 2.26 2.89zM204.68 339.29v664.25h-2.25V336.2z"/><path d="M193.41 766.05v-14.28h-.75v-426q5 5.4 9.77 10.91v666.85h-9.77V766.05z" fill="#774a21"/><path fill="#b07134" d="M38.59 539.08h2.25v2.25h-2.25zM38.59 550.35h2.25v2.25h-2.25zM40.84 539.08h.75v2.25h-.75zM40.84 550.35h.75v2.25h-.75z"/><path fill="#935c2e" d="M38.59 541.33h2.25v9.02h-2.25zM40.84 541.33h.75v9.02h-.75z"/><path fill="#915d27" d="M52.12 763.79h138.29v2.25H52.12zM52.12 751.77h138.29v2.25H52.12z"/><path fill="#b07134" d="M49.86 751.77h2.25v2.25h-2.25zM49.86 763.79h2.25v2.25h-2.25zM190.4 763.79h2.25v2.25h-2.25zM190.4 751.77h2.25v2.25h-2.25zM192.66 763.79h.75v2.25h-.75zM192.66 751.77h.75v2.25h-.75z"/><path fill="#774a21" d="M52.12 754.02h138.29v9.02H52.12z"/><path fill="#935c2e" d="M49.86 754.02h2.25v9.02h-2.25zM190.4 754.02h2.25v9.02h-2.25zM192.66 754.02h.75v9.02h-.75z"/><path d="M217.46 495.05c-1.66 0-3-.84-3-1.88V352.45q3 4.05 6 8.14v132.58c.01 1.04-1.34 1.88-3 1.88z" fill="#774a21"/><path d="M292.62 596.7a2.84 2.84 0 0 1-3-2.64V484.93q3.12 7.63 6 15.38v93.75a2.83 2.83 0 0 1-3 2.64zM319.67 641.06v-59.23q3.43 15.74 6 31.79v27.55a3 3 0 0 1-3.62 2.94 3.07 3.07 0 0 1-2.38-3.05z" fill="#7b4e22"/><path d="M254.29 1002.24v-58.67c0-.25 1.34-.46 3-.46s3 .21 3 .46v51.22q-2.18 3.94-4.4 7.85c-.95-.08-1.6-.23-1.6-.4zM79.17 502.79c-1.66 0-3-1.73-3-3.85V219.55q3 2.07 6 4.19v275.2c.01 2.12-1.34 3.85-3 3.85zM125 750.68c-1.66 0-3-.4-3-.9v-117.5c0-.5 1.35-.91 3-.91s3 .41 3 .91v117.5c0 .5-1.32.9-3 .9zM82.18 768c1.66 0 3 .25 3 .55v71.06c0 .3-1.34.55-3 .55s-3-.25-3-.55v-71.09c-.01-.3 1.34-.52 3-.52zM111.49 768c1.66 0 3 .16 3 .35v45.53c0 .19-1.35.35-3 .35s-3-.16-3-.35v-45.56c-.01-.19 1.34-.32 3-.32zM176.88 768c1.66 0 3 .51 3 1.14v147.75c0 .64-1.34 1.15-3 1.15s-3-.51-3-1.15V769.11c-.01-.63 1.33-1.11 3-1.11zM4.77 285.36c-1.66 0-3-1-3-2.19V175.91l6 3v104.26c0 1.21-1.34 2.19-3 2.19zM10.78 645.15c0 .4-1.35.72-3 .72s-3-.32-3-.72V552.6h6z" fill="#774a21"/><path d="M7.77 551.05c1.66 0 3 .32 3 .72v.83h-6v-.83c0-.4 1.34-.72 3-.72z" fill="#98602f"/><path d="M1867.14-2h-2.26v206.4l2.26-1.52zM1878.41 196V-2h-2.25v199.39z" fill="#915d27"/><path d="M1876.16 197.39V-2h-9v204.83q4.47-2.76 9-5.44z" fill="#774a21"/><path d="M1726.6 323V-2h-2.26v327.84zM1715.32-2h-3v235.19h2.25v14.28h-2.25v92.14c1.18-1 2-2.07 3-3.1z" fill="#915d27"/><path d="M1724.34 325.84V-2h-9v338.76q4.44-5.52 9-10.92z" fill="#774a21"/><path fill="#915d27" d="M1571.77 247.47h2.25v756.82h-2.25zM1571.77-2.05h2.25v235.24h-2.25zM1560.5-2.05v415.61h2.26v14.29h-2.26v576.44h2.26V-2.05h-2.26z"/><path fill="#774a21" d="M1572.53 247.47v-14.28h-.75V-2.05h-9.02v1006.34h9.02V247.47h.75z"/><path d="M1456 425.59v2.25h63.57a10.48 10.48 0 0 1 3.76 0h37.14v-2.25zM1560.5 413.56h-63.13c0 .84-1.35 1.53-3 1.53s-3-.69-3-1.53H1456v2.26h104.5v-2.26zM1560.5 413.56h2.25v2.25h-2.25zM1560.5 425.59h2.25v2.25h-2.25z" fill="#915d27"/><path fill="#774a21" d="M1456.03 415.82h104.47v9.02h-104.47zM1560.5 415.82h2.25v9.02h-2.25z"/><path d="M1655.48 235.44c-.63-.1-1-.26-1-.43v-1.82h-79.67v2.25zM1574.78 245.21h138.29v2.25h-138.29zM1659.43 235.44h53.64v-2.25h-52.61V235c0 .18-.41.34-1.03.44z" fill="#915d27"/><path fill="#915d27" d="M1712.32 245.21h2.25v2.25h-2.25zM1712.32 233.19h2.25v2.25h-2.25zM1571.77 245.21h2.25v2.25h-2.25zM1571.77 233.19h2.25v2.25h-2.25z"/><path fill="#915d27" d="M1571.78 245.21h.75v2.25h-.75zM1571.78 233.19h.75v2.25h-.75z"/><path d="M1659.5 235.44a11.07 11.07 0 0 1-2 .16 11 11 0 0 1-2-.16h-80.77v9h138.29v-9z" fill="#774a21"/><path fill="#774a21" d="M1712.32 235.44h2.25v9.02h-2.25zM1571.77 235.44h2.25v9.02h-2.25z"/><path fill="#774a21" d="M1571.78 235.44h.75v9.02h-.75z"/><path d="M1702.55 251.15c0-1-1.35-1.87-3-1.87s-3 .84-3 1.87v109.44q3-4.09 6-8.14zM1627.39 251.93a3 3 0 0 0-6 0v248.38q2.89-7.74 6-15.38zM1597.33 252.29a3 3 0 0 0-3.63-2.94 3.07 3.07 0 0 0-2.38 3.05v361.22q2.58-16.05 6-31.79zM1657.45 1002.24c0 .25 1.35.45 3 .45.5 0 1 0 1.39-.05q-2.22-3.92-4.4-7.85zM1518.41 428.52v112.54c0 .48 1.35.87 3 .87s3-.39 3-.87V428.52c0-.27-.45-.52-1.13-.68h-3.75c-.67.16-1.12.41-1.12.68zM1519.62 427.84h3.75a8.58 8.58 0 0 0-1.88-.19 8.42 8.42 0 0 0-1.87.19zM1473.32 740.39c-1.66 0-3 .88-3 2v256.13c0 1.09 1.35 2 3 2s3-.89 3-2V742.37c.01-1.1-1.32-1.98-3-1.98zM1497.37 215.16c0-.85-1.35-1.53-3-1.53s-3 .68-3 1.53v198.4h6zM1494.36 415.11c1.66 0 3-.69 3-1.53h-6c0 .84 1.34 1.53 3 1.53zM1544.72 91.6c1.66 0 3-.32 3-.71v-93c0-.4-1.35-.72-3-.72s-3 .32-3 .72v93c-.01.39 1.34.71 3 .71zM1684.51 231.73V29.3c0-.87-1.35-1.57-3-1.57s-3 .7-3 1.57v202.43c0 .86 1.34 1.56 3 1.56s3-.7 3-1.56zM1660.46 153c0-.35-1.35-.63-3-.63s-3 .28-3 .63v80.18h6zM1655.48 235.44h4c.62-.1 1-.26 1-.43v-1.82h-6V235c-.03.18.37.34 1 .44zM1659.12 235.44h-3.95a12.27 12.27 0 0 0 3.95 0zM1841.59 1c0-2.13-1.35-3.85-3-3.85s-3 1.72-3 3.85v222.74c2-1.41 4-2.81 6-4.19zM1755.16 247.4c1.66 0 3-.84 3-1.87V3.51c0-1-1.34-1.87-3-1.87s-3 .84-3 1.87v242c-.01 1.05 1.34 1.89 3 1.89zM1916-.68c0-1.21-1.35-2.19-3-2.19s-3 1-3 2.19v179.6l6-3z" fill="#7b4e22"/><path d="M1876.16 539.08h2.25V196l-2.25 1.44zM1864.88 203.74v548h2.26v14.28h-2.26v238.24h2.26V202.22zM1876.16 552.6h2.25v450.94h-2.25z" fill="#915d27"/><path d="M1876.91 552.6v-13.52h-.75V197.25q-4.54 2.69-9 5.44v801.6h9V552.6z" fill="#774a21"/><path fill="#915d27" d="M1724.34 766.05h2.25v238.25h-2.25zM1724.34 751.77h2.26V322.58c-.75 1-1.51 1.92-2.26 2.89zM1713.07 339.29v664.25h2.25V336.2z"/><path d="M1724.34 766.05v-14.28h-.75v-426q-4.18 5.4-8.27 10.91v666.85h8.27V766.05z" fill="#774a21"/><path fill="#b07134" d="M1876.16 539.08h2.25v2.25h-2.25zM1876.16 550.35h2.25v2.25h-2.25z"/><path fill="#b07134" d="M1876.16 539.08h.75v2.25h-.75zM1876.16 550.35h.75v2.25h-.75z"/><path fill="#935c2e" d="M1876.16 541.33h2.25v9.02h-2.25z"/><path fill="#935c2e" d="M1876.16 541.33h.75v9.02h-.75z"/><path fill="#915d27" d="M1726.6 763.79h138.29v2.25H1726.6zM1726.6 751.77h138.29v2.25H1726.6z"/><path fill="#b07134" d="M1864.88 751.77h2.25v2.25h-2.25zM1864.88 763.79h2.25v2.25h-2.25zM1724.34 763.79h2.25v2.25h-2.25zM1724.34 751.77h2.25v2.25h-2.25zM1723.59 763.79h.75v2.25h-.75zM1723.59 751.77h.75v2.25h-.75z"/><path fill="#774a21" d="M1726.6 754.02h138.29v9.02H1726.6z"/><path fill="#935c2e" d="M1864.88 754.02h2.25v9.02h-2.25zM1724.34 754.02h2.25v9.02h-2.25zM1723.59 754.02h.75v9.02h-.75z"/><path d="M1699.54 495.05c1.66 0 3-.84 3-1.88V352.45q-3 4.05-6 8.14v132.58c-.01 1.04 1.34 1.88 3 1.88z" fill="#774a21"/><path d="M1624.38 596.7a2.84 2.84 0 0 0 3-2.64V484.93q-3.12 7.63-6 15.38v93.75a2.83 2.83 0 0 0 3 2.64zM1597.33 641.06v-59.23q-3.43 15.74-6 31.79v27.55a3 3 0 0 0 3.62 2.94 3.07 3.07 0 0 0 2.38-3.05z" fill="#7b4e22"/><path d="M1663.47 1002.24v-58.67c0-.25-1.35-.46-3-.46s-3 .21-3 .46v51.22q2.17 3.94 4.4 7.85c.94-.08 1.6-.23 1.6-.4zM1838.58 502.79c1.66 0 3-1.73 3-3.85V219.55c-2 1.38-4 2.78-6 4.19v275.2c-.01 2.12 1.34 3.85 3 3.85zM1792.73 750.68c1.66 0 3-.4 3-.9v-117.5c0-.5-1.35-.91-3-.91s-3 .41-3 .91v117.5c0 .5 1.34.9 3 .9zM1835.57 768c-1.66 0-3 .25-3 .55v71.06c0 .3 1.34.55 3 .55s3-.25 3-.55v-71.09c.01-.3-1.34-.52-3-.52zM1806.26 768c-1.66 0-3 .16-3 .35v45.53c0 .19 1.34.35 3 .35s3-.16 3-.35v-45.56c.01-.19-1.34-.32-3-.32zM1740.12 768c-1.66 0-3 .51-3 1.14v147.75c0 .64 1.34 1.15 3 1.15s3-.51 3-1.15V769.11c.01-.63-1.33-1.11-3-1.11zM1913 285.36c1.66 0 3-1 3-2.19V175.91l-6 3v104.26c0 1.21 1.32 2.19 3 2.19zM1907 645.15c0 .4 1.35.72 3 .72s3-.32 3-.72V552.6h-6z" fill="#774a21"/><path d="M1910 551.05c-1.66 0-3 .32-3 .72v.83h6v-.83c0-.4-1.36-.72-3-.72z" fill="#98602f"/><path d="M836.75 82.13H812v51.49q10.81-2.75 21.79-5.09V84c-.05-1 1.3-1.87 2.96-1.87zM836.75 82.13c1.66 0 3 .83 3 1.87v43.27a595.46 595.46 0 0 1 110.48-11.82V82.13z" fill="none"/><path d="M1268.9 503v501.29h138.28V503zm28.55 143.81c0 .61-1.34 1.11-3 1.11s-3-.5-3-1.11V504c0-.61 1.35-1.11 3-1.11s3 .5 3 1.11zm43.6 100c0 1-1.35 1.87-3 1.87s-3-.84-3-1.87v-242c0-1 1.35-1.87 3-1.87s3 .83 3 1.87zm19.54-171.55c0 .31-1.35.56-3 .56s-3-.25-3-.56v-71.79c0-.31 1.35-.55 3-.55s3 .24 3 .55zM963.76 916.36h138.29v87.93H963.76zM1317 488.72c-1.66 0-3-.84-3-1.87v-242c0-1 1.35-1.87 3-1.87s3 .84 3 1.87v242c0 1-1.34 1.87-3 1.87h60.87a3 3 0 0 1-3-3V285.85a596.73 596.73 0 0 0-106.73-83.52v286.39zM1254.62 278.28V194a590.48 590.48 0 0 0-83.43-39.75v119.82c0 .71-1.34 1.29-3 1.29s-3-.58-3-1.29v-122q-9-3.31-18-6.37v128.52c0 .63-1.34 1.14-3 1.14s-3-.51-3-1.14V143.66q-12.29-4-24.8-7.4v142zM693.2 552.6v92.55c0 .4-1.35.72-3 .72s-3-.32-3-.72V552.6h-27.82v450.94h138.29V552.6zm66.89 447.29c0 .34-1.35.62-3 .62s-3-.28-3-.62v-81.06c0-.35 1.35-.63 3-.63s3 .28 3 .63zm18.79-1c0 .91-1.35 1.65-3 1.65s-3-.74-3-1.65v-214c0-.91 1.35-1.65 3-1.65s3 .74 3 1.65zM1116.33 292.56v711.73h138.29V292.56zm27.81 706.11c0 1-1.35 1.84-3 1.84s-3-.82-3-1.84v-238c0-1 1.35-1.84 3-1.84s3 .82 3 1.84zm54.11-583.46c0 .51-1.35.93-3 .93s-3-.42-3-.93v-121c0-.52 1.34-.94 3-.94s3 .42 3 .94zm36.07 215.45a3 3 0 0 1-6 0V295.85a3 3 0 0 1 6 0zM839.75 126.72v199.06c0 1-1.34 1.87-3 1.87s-3-.84-3-1.87V128q-11 2.34-21.79 5.1v870.46h138.27V114.9a596.31 596.31 0 0 0-110.48 11.82zm85.68 669.33c0 .52-1.34.94-3 .94s-3-.42-3-.94V675c0-.52 1.34-.94 3-.94s3 .42 3 .94zM992.32 902.08c-1.66 0-3-.42-3-.93v-121c0-.52 1.35-.94 3-.94s3 .42 3 .94v121c0 .51-1.35.93-3 .93h87.93c-1.66 0-3-.16-3-.37v-47.43c0-.21 1.34-.37 3-.37s3 .16 3 .37v47.43c0 .21-1.35.37-3 .37h21.8v-769.5q-9.35-2.33-18.79-4.35v84.62c0 .9-1.35 1.64-3 1.64s-3-.74-3-1.64V127a595.73 595.73 0 0 0-113.49-11.92v787zM507.56 766.05v238.24h138.29V766.05zm16.54 150.84c0 .64-1.35 1.15-3 1.15s-3-.51-3-1.15V769.11c0-.63 1.35-1.14 3-1.14s3 .51 3 1.14zm65.38-103c0 .19-1.34.35-3 .35s-3-.16-3-.35v-45.57c0-.19 1.35-.35 3-.35s3 .16 3 .35zm29.31 25.73c0 .3-1.34.55-3 .55s-3-.25-3-.55v-71.1c0-.3 1.35-.55 3-.55s3 .25 3 .55zM1420.71 1004.29h53.19a591 591 0 0 0 78.1-275.82h-131.29zm36.08-230.21c1.66 0 3 .78 3 1.74v224.71c0 1-1.34 1.74-3 1.74s-3-.78-3-1.74V775.82c-.01-.96 1.34-1.74 3-1.74zM759 539.08a3 3 0 0 1-2-2.75V155.67a3 3 0 0 1 6 0v380.66a2.94 2.94 0 0 1-2 2.75h36.53V137.36a591.15 591.15 0 0 0-101.47 38.8v107c0 1.21-1.34 2.19-3 2.19s-3-1-3-2.19v-104q-15.68 8-30.81 16.78v343.14zM645.85 751.77V204q-11.83 7.46-23.3 15.45v279.49c0 2.12-1.34 3.85-3 3.85s-3-1.73-3-3.85V223.61a598.66 598.66 0 0 0-109 99v429.16zm-75.16-119.49c0-.5 1.35-.91 3-.91s3 .41 3 .91v117.5c0 .5-1.35.9-3 .9s-3-.4-3-.9zM1377.87 488.72h28.56V319.47q-12.33-14.21-25.55-27.61v193.87a3 3 0 0 1-3.01 2.99zM1552.23 714.19v-5.44a589.87 589.87 0 0 0-59.42-258.83v260.89a3 3 0 1 1-6 0V437.87a594.86 594.86 0 0 0-66.14-101.76v378.08zm-30.06-158.79c0-.68 1.35-1.22 3-1.22s3 .54 3 1.22v157.32c0 .67-1.34 1.22-3 1.22s-3-.55-3-1.22zM483.51 352.14v141c0 1-1.34 1.88-3 1.88s-3-.84-3-1.88V360.6a592.05 592.05 0 0 0-69.14 124.32v109.14a3 3 0 0 1-6 0v-93.74a589.83 589.83 0 0 0-24 81.51v59.23a3.07 3.07 0 0 1-2.38 3.05 3 3 0 0 1-3.63-2.94v-26.79a595.79 595.79 0 0 0-7.58 94.88 588.6 588.6 0 0 0 73 284.77v-50.77c0-.25 1.34-.46 3-.46s3 .21 3 .46v58.67c0 .17-.66.32-1.61.39.23.41.45.82.68 1.22h50.53V339.29q-5.06 6.36-9.87 12.85z" fill="#a68338"/><path fill="#915d27" d="M1559-2.05h2.25v716.24H1559zM1570.27 124.7v-11.76h2.26V-2.05h-2.26v1006.34h2.26V127.22h-2.26v-2.52zM1559 728.47h2.25v275.82H1559z"/><path fill="#774a21" d="M1561.25-2.05v716.24h.76v14.28h-.76v275.82h9.02V-2.05h-9.02z"/><path d="M1420.71 336.48V-2h-2.25v335.46zM1409.44-2h-2.26v321.83c.76.95 1.51 1.91 2.26 2.86z" fill="#915d27"/><path d="M1418.46 333.46V-2h-9v324.69q4.54 5.31 9 10.77z" fill="#774a21"/><path d="M1268.14 202.69V-2h-2.25v203.17zM1256.87-2h-2.25v196.38l2.25 1.44z" fill="#915d27"/><path d="M1256.87 278.28v-82.81l-2.25-1.44v84.25z" fill="#915d27"/><path d="M1265.89 201.17V-2h-9v197.82q4.51 2.64 9 5.35z" fill="#774a21"/><path d="M1116.33 136.61V-2h-2.26v138zM1105.05-2h-2.25v135l2.25.62z" fill="#915d27"/><path d="M1114.07 135.93V-2h-9v135.58q4.51 1.14 9 2.35z" fill="#774a21"/><path d="M952.49 70.37v11.76h-2.26v33.31h2.26V-2h-2.26v69.9h2.26zM963.76 115.43V-2h-2.25v117.42z" fill="#915d27"/><path d="M958.34 115.4h3.17V-2h-9v117.43c1.93-.01 3.88-.03 5.83-.03z" fill="#774a21"/><path d="M809.69 82.13v52.12l2.26-.63V82.13zM809.69-2.05h2.25v69.9h-2.25zM800.67-2h-2.25v139.36l2.25-.68z" fill="#915d27"/><path d="M808.94 133.6V82.13h.75V67.85h-.75V-2h-8.27v138c2.75-.82 5.5-1.62 8.27-2.4z" fill="#774a21"/><path d="M648.1-2h-2.25v206.4l2.25-1.52zM659.38 196V-2h-2.26v199.39z" fill="#915d27"/><path d="M657.12 197.39V-2h-9v204.83q4.47-2.76 9-5.44z" fill="#774a21"/><path d="M507.56 323V-2h-2.25v327.84c.74-.96 1.5-1.92 2.25-2.84zM496.29-2H494v235.19h1.51v14.28H494v92.36c.75-1 1.5-2.07 2.26-3.1z" fill="#915d27"/><path d="M505.31 325.84V-2h-9v338.76q4.42-5.52 9-10.92z" fill="#774a21"/><path fill="#915d27" d="M352.74 247.47h2.25v756.82h-2.25zM352.74-2.05h2.25v235.24h-2.25zM341.47-2.05v415.61h2.25v14.29h-2.25v576.44h2.25V-2.05h-2.25z"/><path fill="#774a21" d="M353.49 247.47v-14.28h-.75V-2.05h-9.02v1006.34h9.02V247.47h.75z"/><path fill="#915d27" d="M341.47 413.56h2.25v2.25h-2.25zM341.47 425.59h2.25v2.25h-2.25z"/><path fill="#774a21" d="M341.47 415.82h2.25v9.02h-2.25z"/><path fill="#915d27" d="M1571.02 112.94h2.25v2.25h-2.25zM1571.02 124.96h2.25v2.25h-2.25z"/><path fill="#774a21" d="M1571.02 115.19h2.25v9.02h-2.25z"/><path d="M1559 716.44v-2.25h-6.23v2.25zM1552.58 726.21l-.06 2.26h6.48v-2.26zM1559 714.19h2.25v2.25H1559zM1559 726.21h2.25v2.25H1559zM1561.25 714.19h.75v2.25h-.75zM1561.25 726.21h.75v2.25h-.75z" fill="#915d27"/><path d="M1552.16 716.44c0 3-.1 6-.18 9h7v-9zM1559 716.44h2.25v9.02H1559zM1561.25 716.44h.75v9.02h-.75z" fill="#774a21"/><path fill="#915d27" d="M1116.33 290.31h138.29v2.25h-138.29zM1116.33 278.28h138.29v2.25h-138.29zM1254.62 278.28h2.25v2.25h-2.25zM1254.62 290.31h2.25v2.25h-2.25zM1256.87 278.28h.75v2.25h-.75zM1256.87 290.31h.75v2.25h-.75zM1114.07 278.28h2.25v2.25h-2.25zM1114.07 290.31h2.25v2.25h-2.25z"/><path fill="#774a21" d="M1254.62 280.54h2.25v9.02h-2.25zM1256.87 280.54h.75v9.02h-.75zM1114.07 280.54h2.25v9.02h-2.25z"/><path fill="#915d27" d="M811.95 67.85h138.29v2.25H811.95zM811.95 79.87v2.26h138.28v-2.26H811.95z"/><path fill="#915d27" d="M950.23 67.85h2.25v2.25h-2.25zM950.23 79.87h2.25v2.25h-2.25zM809.69 79.87h2.25v2.25h-2.25zM809.69 67.85h2.25v2.25h-2.25zM808.94 67.85h.75v2.25h-.75zM808.94 79.87h.75v2.25h-.75z"/><path fill="#774a21" d="M811.95 70.1h138.29v9.02H811.95z"/><path fill="#774a21" d="M950.23 70.1h2.25v9.02h-2.25zM809.69 70.1h2.25v9.02h-2.25zM808.94 70.1h.75v9.02h-.75z"/><path d="M435.69 235.44c-.63-.1-1-.26-1-.43v-1.82H355v2.25zM355 245.21h138.29v2.25H355zM439.64 235.44h53.64v-2.25h-52.61V235c0 .18-.4.34-1.03.44z" fill="#915d27"/><path fill="#915d27" d="M493.28 245.21h2.25v2.25h-2.25zM493.28 233.19h2.25v2.25h-2.25zM352.74 245.21h2.25v2.25h-2.25zM352.74 233.19h2.25v2.25h-2.25z"/><path fill="#915d27" d="M352.74 245.21h.75v2.25h-.75zM352.74 233.19h.75v2.25h-.75z"/><path d="M439.71 235.44a11 11 0 0 1-2 .16 11.07 11.07 0 0 1-2-.16H355v9h138.28v-9zM493.28 235.44h2.25v9.02h-2.25zM352.74 235.44h2.25v9.02h-2.25z" fill="#774a21"/><path fill="#774a21" d="M352.74 235.44h.75v9.02h-.75z"/><path d="M483.51 251.15c0-1-1.34-1.87-3-1.87s-3 .84-3 1.87v109.44q3-4.09 6-8.14zM408.36 251.93a3 3 0 0 0-6 0v248.38q2.91-7.74 6-15.38zM378.29 252.29a3 3 0 0 0-3.62-2.94 3.07 3.07 0 0 0-2.39 3.05v361.22q2.6-16.05 6-31.79zM437.67 1002.24c0 .25 1.34.45 3 .45.51 0 1 0 1.4-.05q-2.24-3.92-4.4-7.85zM299.38 428.52v112.54c0 .48 1.35.87 3 .87s3-.39 3-.87V428.52c0-.27-.44-.52-1.13-.68h-3.75c-.67.16-1.12.41-1.12.68zM300.5 427.84h3.75a8.51 8.51 0 0 0-1.88-.19 8.42 8.42 0 0 0-1.87.19zM254.29 740.37c-1.66 0-3 .89-3 2v256.16c0 1.1 1.35 2 3 2s3-.88 3-2V742.35c0-1.09-1.29-1.98-3-1.98zM278.34 215.16c0-.85-1.35-1.53-3-1.53s-3 .68-3 1.53v198.4h6zM275.33 415.11c1.66 0 3-.69 3-1.53h-6c-.01.84 1.34 1.53 3 1.53zM324.93 91.6c1.66 0 3-.32 3-.71v-93c0-.4-1.35-.72-3-.72s-3 .32-3 .72v93c0 .39 1.34.71 3 .71zM465.47 231.73V29.3c0-.87-1.34-1.57-3-1.57s-3 .7-3 1.57v202.43c0 .86 1.35 1.56 3 1.56s3-.7 3-1.56zM440.67 153c0-.35-1.34-.63-3-.63s-3 .28-3 .63v80.18h6zM435.69 235.44h3.95c.63-.1 1-.26 1-.43v-1.82h-6V235c.02.18.42.34 1.05.44zM440 235.44h-3.95a11.07 11.07 0 0 0 2 .16 11 11 0 0 0 1.95-.16zM621.8 1c0-2.13-1.35-3.85-3-3.85s-3 1.72-3 3.85v222.74c2-1.41 4-2.81 6-4.19zM535.37 247.4c1.66 0 3-.84 3-1.87V3.51c0-1-1.35-1.87-3-1.87s-3 .84-3 1.87v242c-.01 1.05 1.34 1.89 3 1.89zM696.2-.68c0-1.21-1.34-2.19-3-2.19s-3 1-3 2.19v179.6l6-3zM836.75 81.89c-1.66 0-3 .84-3 1.87v44.53q3-.64 6-1.26V83.76c0-1.03-1.34-1.87-3-1.87zM1083.26 1.4c0-.9-1.35-1.63-3-1.63s-3 .73-3 1.63v125.7q3 .62 6 1.26zM1147.14 126.26c0-.63-1.34-1.14-3-1.14s-3 .51-3 1.14v17.5l6 2zM1171.19 106.55c0-.71-1.34-1.29-3-1.29s-3 .58-3 1.29v45.56c2 .75 4 1.5 6 2.27zM1380.88 292V98.73a3 3 0 0 0-6 0V286q3.01 2.95 6 6zM1492.86 306.12a3 3 0 1 0-6 0V438q3.08 6 6 12.05z" fill="#7b4e22"/><path d="M1409.44 488.72V322.33c-.75-.95-1.5-1.91-2.26-2.86v169.25zM1407.18 503h2.25v501.29h-2.25zM1418.46 728.47v-14.28h2.25V336.35l-2.25-3v670.21h2.25V728.47z" fill="#b07134"/><path d="M1408.69 322.58v166.14h.75V503h-.75v501.29h9.77V333.35q-4.83-5.44-9.77-10.77z" fill="#935c2e"/><path d="M1265.89 503v-14.28h2.25V202.44l-2.25-1.52v802.62h2.25V503zM1254.62 292.56h2.25v711.73h-2.25z" fill="#b07134"/><path d="M1256.87 195.77v82.51h.75v14.28h-.75v711.73h9V201.12q-4.46-2.71-9-5.35z" fill="#935c2e"/><path d="M1114.07 292.56v-14.28h2.26v-142l-2.26-.68v867.92h2.26v-711zM1102.8 132.71v769.37h2.25v14.28h-2.25v87.93h2.25v-871c-1.05-.17-2.25-.58-2.25-.58z" fill="#b07134"/><path d="M1105.05 133v870.52h9V135.37q-4.46-1.21-9-2.37z" fill="#935c2e"/><path d="M961.51 902.08h2.25v-787h-2.25zM961.51 916.36h2.25v87.93h-2.25zM950.23 114.9v888.64h2.26V114.87z" fill="#b07134"/><path d="M962.26 916.36v-14.28h-.75V116.41h-9.02v887.11h9v-87.16z" fill="#935c2e"/><path d="M797.67 137.11v401.21h2.25v14.28h-2.25v450.94h3V136.43c-1.06.23-3 .68-3 .68zM809.69 133.7v869.84H812V133.08z" fill="#b07134"/><path d="M800.67 136.12v867.42h9V133.7c-3 .78-6 1.59-9 2.42z" fill="#935c2e"/><path d="M657.12 539.08h2.26V196l-2.26 1.44zM645.85 203.74v548h2.25v14.28h-2.25v238.24h2.25V202.22zM657.12 552.6h2.25v450.94h-2.25z" fill="#b07134"/><path d="M657.88 552.6v-13.52h-.76V197.25q-4.53 2.69-9 5.44v801.6h9V552.6z" fill="#935c2e"/><path fill="#b07134" d="M505.31 766.05h2.25v238.25h-2.25zM505.31 751.77h2.25V322.58c-.75 1-1.51 1.92-2.25 2.89zM494 339.29v664.25h2.26V336.2z"/><path d="M505.31 766.05V325.77q-4.57 5.4-9 10.91v666.85h9V766.05z" fill="#935c2e"/><path d="M1420.71 716.44h131.42v-2.25h-131.42v2.25zM1420.71 726.21v2.26h131.17c0-.75 0-1.5.06-2.26zM1418.46 726.21h2.25v2.25h-2.25zM1418.46 714.19h2.25v2.25h-2.25z" fill="#b07134"/><path d="M1420.71 716.44v9h131.23c.09-3 .15-6 .19-9zM1418.46 716.44h2.25v9.02h-2.25z" fill="#935c2e"/><path fill="#b07134" d="M1407.18 490.98v-2.26h-138.29v2.26h138.29zM1268.9 500.75h138.29V503H1268.9z"/><path fill="#b07134" d="M1407.18 500.75h2.25V503h-2.25zM1407.18 488.72h2.25v2.25h-2.25z"/><path fill="#b07134" d="M1408.69 488.72h.75v2.25h-.75zM1408.69 500.75h.75V503h-.75zM1265.89 500.75h2.25V503h-2.25zM1265.89 488.72h2.25v2.25h-2.25z"/><path fill="#935c2e" d="M1268.9 490.98h138.29V500H1268.9z"/><path fill="#935c2e" d="M1407.18 490.98h2.25V500h-2.25z"/><path fill="#935c2e" d="M1408.69 490.98h.75V500h-.75zM1265.89 490.98h2.25V500h-2.25zM1116.33 280.54h138.29v9.02h-138.29z"/><path fill="#b07134" d="M963.76 914.11h138.29v2.25H963.76zM991.94 902.08h-28.18v2.26h138.29v-2.26H991.94zM1102.8 914.11h2.25v2.25h-2.25zM1102.8 902.08h2.25v2.25h-2.25zM961.51 902.08h2.25v2.25h-2.25zM961.51 914.11h2.25v2.25h-2.25z"/><path fill="#b07134" d="M961.51 902.08h.75v2.25h-.75zM961.51 914.11h.75v2.25h-.75z"/><path fill="#935c2e" d="M963.76 904.34h138.29v9.02H963.76zM1102.8 904.34h2.25v9.02h-2.25zM961.51 904.34h2.25v9.02h-2.25z"/><path fill="#935c2e" d="M961.51 904.34h.75v9.02h-.75z"/><path d="M759.75 539.25a3.3 3.3 0 0 1-1-.17h-99.37v2.25h138.29v-2.25H760.8a3.26 3.26 0 0 1-1.05.17zM659.38 550.35v2.25h27.81v-.83c0-.4 1.34-.72 3-.72s3 .32 3 .72v.83h104.48v-2.25zM797.67 550.35h2.25v2.25h-2.25zM797.67 539.08h2.25v2.25h-2.25zM657.12 539.08h2.25v2.25h-2.25zM657.12 550.35h2.25v2.25h-2.25z" fill="#b07134"/><path fill="#b07134" d="M657.12 539.08h.75v2.25h-.75zM657.12 550.35h.75v2.25h-.75z"/><path fill="#935c2e" d="M659.38 541.33h138.29v9.02H659.38zM797.67 541.33h2.25v9.02h-2.25zM657.12 541.33h2.25v9.02h-2.25z"/><path fill="#935c2e" d="M657.12 541.33h.75v9.02h-.75z"/><path fill="#b07134" d="M507.56 763.79h138.29v2.25H507.56zM507.56 751.77h138.29v2.25H507.56zM645.85 751.77h2.25v2.25h-2.25zM645.85 763.79h2.25v2.25h-2.25zM505.31 763.79h2.25v2.25h-2.25zM505.31 751.77h2.25v2.25h-2.25z"/><path fill="#935c2e" d="M507.56 754.02h138.29v9.02H507.56zM645.85 754.02h2.25v9.02h-2.25zM505.31 754.02h2.25v9.02h-2.25z"/><path d="M480.51 495.05c1.66 0 3-.84 3-1.88V352.45q-3 4.05-6 8.14v132.58c-.01 1.04 1.34 1.88 3 1.88zM405.35 596.7a2.84 2.84 0 0 0 3-2.64V484.93q-3.12 7.63-6 15.38v93.75a2.84 2.84 0 0 0 3 2.64zM378.29 641.06v-59.23q-3.42 15.74-6 31.79v27.55a3 3 0 0 0 3.63 2.94 3.07 3.07 0 0 0 2.37-3.05zM443.68 1002.24v-58.67c0-.25-1.35-.46-3-.46s-3 .21-3 .46v51.22q2.16 3.94 4.4 7.85c.92-.08 1.6-.23 1.6-.4zM618.79 502.79c1.66 0 3-1.73 3-3.85V219.55c-2 1.38-4 2.78-6 4.19v275.2c0 2.12 1.34 3.85 3 3.85zM573.7 750.68c1.66 0 3-.4 3-.9v-117.5c0-.5-1.35-.91-3-.91s-3 .41-3 .91v117.5c-.01.5 1.3.9 3 .9zM615.79 768c-1.66 0-3 .25-3 .55v71.06c0 .3 1.35.55 3 .55s3-.25 3-.55v-71.09c0-.3-1.34-.52-3-.52zM586.48 768c-1.66 0-3 .16-3 .35v45.53c0 .19 1.35.35 3 .35s3-.16 3-.35v-45.56c0-.19-1.34-.32-3-.32zM521.09 768c-1.66 0-3 .51-3 1.14v147.75c0 .64 1.35 1.15 3 1.15s3-.51 3-1.15V769.11c.01-.63-1.34-1.11-3-1.11zM693.2 285.36c1.66 0 3-1 3-2.19V175.91l-6 3v104.26c-.01 1.21 1.34 2.19 3 2.19zM763.09 536.33V155.67a3 3 0 0 0-6 0v380.66a3 3 0 0 0 2 2.75h2.1a2.94 2.94 0 0 0 1.9-2.75zM761.12 539.08H759a3 3 0 0 0 2.11 0zM687.19 645.15c0 .4 1.34.72 3 .72s3-.32 3-.72V552.6h-6zM690.19 551.05c-1.66 0-3 .32-3 .72v.83h6v-.83c.01-.4-1.34-.72-3-.72zM775.87 783.23c-1.66 0-3 .74-3 1.65v214c0 .91 1.35 1.65 3 1.65s3-.74 3-1.65v-214c.01-.88-1.34-1.65-3-1.65zM757.08 918.2c-1.66 0-3 .28-3 .63v81.06c0 .34 1.35.62 3 .62s3-.28 3-.62v-81.06c.01-.35-1.34-.63-3-.63zM922.43 674.1c-1.67 0-3 .42-3 .94v121c0 .52 1.34.94 3 .94s3-.42 3-.94V675c0-.48-1.34-.9-3-.9zM833.74 325.78c0 1 1.35 1.87 3 1.87s3-.84 3-1.87V127q-3 .61-6 1.26zM1080.25 214.49c1.66 0 3-.74 3-1.64v-84.49q-3-.65-6-1.26v85.75c0 .9 1.34 1.64 3 1.64zM1083.26 901.85v-47.44c0-.2-1.35-.37-3-.37s-3 .17-3 .37v47.44c0 .2 1.34.36 3 .36s3-.16 3-.36zM995.33 901.28v-121c0-.52-1.35-.94-3-.94s-3 .42-3 .94v121c0 .52 1.35.94 3 .94s3-.42 3-.94zM1141.13 758.86c-1.66 0-3 .82-3 1.84v238c0 1 1.35 1.83 3 1.83s3-.82 3-1.83v-238c.01-1.02-1.34-1.84-3-1.84zM1231.32 293.26a2.83 2.83 0 0 0-3 2.59v334.81a3 3 0 0 0 6 0V295.85a2.82 2.82 0 0 0-3-2.59zM1195.24 293.26c-1.66 0-3 .42-3 .94v121c0 .51 1.34.93 3 .93s3-.42 3-.93v-121c.01-.52-1.34-.94-3-.94zM1144.14 275.36c1.66 0 3-.51 3-1.14V145.74l-6-2v130.48c-.01.63 1.34 1.14 3 1.14zM1168.19 275.36c1.66 0 3-.58 3-1.29V154.38c-2-.77-4-1.52-6-2.27v122c-.01.67 1.34 1.25 3 1.25zM1377.87 488.83a3 3 0 0 0 3-3V292l-6-6v199.84a3 3 0 0 0 3 2.99zM1320 487V245c0-1-1.34-1.87-3-1.87s-3 .84-3 1.87v242c0 1 1.35 1.87 3 1.87s3-.87 3-1.87zM1294.45 502.92c-1.66 0-3 .49-3 1.1v142.79c0 .61 1.35 1.11 3 1.11s3-.5 3-1.11V504c0-.59-1.34-1.08-3-1.08zM1338 502.92c-1.66 0-3 .83-3 1.87v242c0 1 1.35 1.87 3 1.87s3-.84 3-1.87v-242c.05-1.04-1.3-1.87-3-1.87zM1357.58 502.92c-1.66 0-3 .24-3 .55v71.79c0 .31 1.35.56 3 .56s3-.25 3-.56v-71.79c.01-.31-1.34-.55-3-.55zM1456.79 1002.27c1.66 0 3-.78 3-1.74V775.82c0-1-1.34-1.74-3-1.74s-3 .78-3 1.74v224.71c-.01.96 1.34 1.74 3 1.74zM1489.85 713.94a3.07 3.07 0 0 0 3-3.13V450.05q-2.94-6.06-6-12.05v272.81a3.06 3.06 0 0 0 3 3.13zM1525.18 713.94c1.66 0 3-.55 3-1.22V555.4c0-.68-1.34-1.22-3-1.22s-3 .54-3 1.22v157.32c-.01.67 1.34 1.22 3 1.22z" fill="#98602f"/><path d="M1594.32 8.39V217.9c0 .89 1.35 1.62 3 1.62s3-.73 3-1.62V8.39c0-.9-1.34-1.62-3-1.62s-3 .72-3 1.62zM1602.59 897.78c-1.66 0-3 .34-3 .77v99c0 .42 1.35.76 3 .76s3-.34 3-.76v-99c.01-.43-1.34-.77-3-.77z" fill="#7b4e22"/><path fill="#593a15" d="M1149.57-2.05H752.36l-61.37 658.37h519.96L1149.57-2.05z"/><path d="M1157.11 102.79a2.4 2.4 0 0 0-2.07-2.63h-382a2.4 2.4 0 0 0-2.06 2.63 2.39 2.39 0 0 0 2.06 2.63h382a2.4 2.4 0 0 0 2.07-2.63zM1170.86 219.29a2.44 2.44 0 0 0-2.21-2.63H759.48a2.44 2.44 0 0 0-2.21 2.63 2.45 2.45 0 0 0 2.21 2.63h409.17a2.45 2.45 0 0 0 2.21-2.63zM1181.9 335.78a2.49 2.49 0 0 0-2.33-2.63h-431a2.49 2.49 0 0 0-2.33 2.63 2.5 2.5 0 0 0 2.33 2.63h431a2.5 2.5 0 0 0 2.33-2.63zM1197.46 447a2.56 2.56 0 0 0-2.49-2.63H733.15a2.57 2.57 0 0 0-2.49 2.63 2.57 2.57 0 0 0 2.49 2.63H1195a2.56 2.56 0 0 0 2.49-2.63zM1197.46 553a2.56 2.56 0 0 0-2.49-2.63H733.15a2.57 2.57 0 0 0-2.49 2.63 2.57 2.57 0 0 0 2.49 2.63H1195a2.56 2.56 0 0 0 2.49-2.63z" fill="#4b300d"/><path fill="#4b300d" d="M1169.86 648.53l46.78 1.41L1157.8-.88l-46.78-1.42 58.84 650.83z"/><path fill="#67491a" d="M1182.09 648.53l46.78 1.41L1170.03-2.3l-46.78-1.41 58.84 652.24z"/><path fill="#4b300d" d="M747.14 648.53l-46.78 1.41L759.2-.88l46.79-1.42-58.85 650.83z"/><path fill="#67491a" d="M734.91 648.53l-46.78 1.41L746.97-2.3l46.79-1.41-58.85 652.24z"/><path fill="#4b4a4b" d="M1257.45 975.73h-597.9l-29.66 31.57h657.23l-29.67-31.57z"/><path d="M1119.24 731.83a2.65 2.65 0 0 0-2.68-2.61H800.45a2.65 2.65 0 0 0-2.68 2.61l-5.51 241.29a2.69 2.69 0 0 0 2.77 2.61H1122a2.7 2.7 0 0 0 2.78-2.61z" fill="#222214"/><path d="M1122.57 731.83a2.65 2.65 0 0 0-2.68-2.61H803.78a2.65 2.65 0 0 0-2.68 2.61l-5.51 241.29a2.7 2.7 0 0 0 2.78 2.61h112.9c-37.79-17.57-63.79-54.21-63.79-96.58 0-59.46 51.2-107.67 114.36-107.67s114.35 48.21 114.35 107.67c0 42.37-26 79-63.79 96.58h112.9a2.7 2.7 0 0 0 2.78-2.61z" fill="#17160c"/><path d="M973.38 965.18c-13.34 6.67-48.36-1.67-61.7-11.68-15-10-25-25-25-43.36 0-13.34 18.34-38.36-10-36.69 21.68-13.34 26.69 0 36.69 13.34 5 8.34-5 20 11.68 18.35 13.34 0 13.34-13.34 10-21.68-5-16.68-33.36-20-25-46.7 8.34-20 35-23.35 38.36-43.36 8.34 23.34-20 35-13.34 56.7 10 26.69 46.69 8.34 25-15 41.7-10 6.67 46.7 18.35 58.37 25 25 30-43.36 48.36-48.36-16.67 21.68 20 46.7 13.35 71.71-6.68 20-40 53.37-61.71 51.7" fill="#ee2d24"/><path d="M966.81 968.34c-13.34.83-27.51-7.51-39.19-13.35-20.84-10.83-10.83-27.51-25-42.52 17.51-3.33 23.35 35 45 15 20.85-20-21.67-38.35-8.33-55 .83 5 5 15.84 12.5 14.18s4.17-13.34 13.34-13.34c-.83 14.17-.83 37.51 16.68 43.35 21.68 5.84 21.68-25 39.19-25-14.18 10-6.67 16.67-2.5 26.68 5 12.51 2.5 20-7.51 30-8.34 7.5-40.85 31.68-50.86 18.34" fill="#f99f1b"/><path fill="#331400" d="M1041.17 950.27v24.71h-76.22l3.12-9.76 73.1-14.95zM887.1 950.27v24.71h76.22l-3.12-9.76-73.1-14.95z"/><path d="M968.48 970c-5.84.84-12.51-3.33-15-9.17-6.67-14.17 10.84-21.68 14.18-32.52 14.17 5.84 22.51 35.86 3.33 40.86" fill="#fff682"/><path fill="#552805" d="M1078 954.64v20.34H959.58l.4-8.03L1078 954.64z"/><path fill="#552805" d="M845.01 954.64v20.34h118.42l-4.84-8.03-113.58-12.31z"/><ellipse cx="997.11" cy="961.59" rx="19.18" ry="13.42" fill="#7c3e17"/><ellipse cx="939.85" cy="961.59" rx="19.18" ry="13.42" fill="#7c3e17"/><ellipse cx="997.67" cy="963.26" rx="14.88" ry="10.41" fill="#552805"/><ellipse cx="939.85" cy="963.26" rx="14.88" ry="10.41" fill="#552805"/><path fill="#4b4a4b" d="M1105.59 975.29l23.2 12.4 107.42-259.22h-129.65l-.97 246.82z"/><path fill="#565656" d="M1128.35 728.47h130.02v259.29h-130.02z"/><path d="M1139.47 784.84h107.79a11.11 11.11 0 0 0 11.11-11.12v-34.13a11.11 11.11 0 0 0-11.11-11.12h-107.79a11.12 11.12 0 0 0-11.12 11.12v34.13a11.12 11.12 0 0 0 11.12 11.12zM1204.86 851h42.4a11.1 11.1 0 0 0 11.11-11.11v-37.17a11.11 11.11 0 0 0-11.11-11.12h-42.4a11.12 11.12 0 0 0-11.12 11.12v37.14a11.11 11.11 0 0 0 11.12 11.14z" fill="#7d7d7d"/><path d="M1140.22 820.91h35.64a11.11 11.11 0 0 0 11.14-11.12v-7.07a11.11 11.11 0 0 0-11.11-11.12h-35.64a11.12 11.12 0 0 0-11.12 11.12v7.07a11.12 11.12 0 0 0 11.09 11.12z" fill="#686868"/><path d="M1140.22 909.6h35.64a11.11 11.11 0 0 0 11.14-11.12V843.3a11.1 11.1 0 0 0-11.11-11.11h-35.64a11.11 11.11 0 0 0-11.12 11.11v55.18a11.12 11.12 0 0 0 11.09 11.12z" fill="#898989"/><path d="M1204.86 887.05h42.4a11.11 11.11 0 0 0 11.11-11.12v-6.32a11.11 11.11 0 0 0-11.11-11.12h-42.4a11.12 11.12 0 0 0-11.12 11.12v6.32a11.12 11.12 0 0 0 11.12 11.12z" fill="#686868"/><path d="M1204.86 943.42h42.4a11.11 11.11 0 0 0 11.11-11.12v-26.62a11.11 11.11 0 0 0-11.11-11.12h-42.4a11.12 11.12 0 0 0-11.12 11.12v26.62a11.12 11.12 0 0 0 11.12 11.12z" fill="#7d7d7d"/><path d="M1140.22 943.42h35.64A11.11 11.11 0 0 0 1187 932.3V926a11.1 11.1 0 0 0-11.11-11.11h-35.64A11.11 11.11 0 0 0 1129.1 926v6.33a11.12 11.12 0 0 0 11.12 11.09z" fill="#686868"/><path d="M1139.47 987.76h107.79a11.11 11.11 0 0 0 11.11-11.12v-16.09a11.11 11.11 0 0 0-11.11-11.12h-107.79a11.12 11.12 0 0 0-11.12 11.12v16.09a11.12 11.12 0 0 0 11.12 11.12z" fill="#898989"/><path fill="#686868" d="M1238.83 728.47v41.15l-17.41-41.15h17.41zM1179.15 784.84l-8.89-20.21-10.01 20.21h18.9zM1164.14 728.47l-3.89 26.14-2.53-26.14h2.95M1221.13 850.97l-7.63-44.34h-7.74v44.34h15.37zM1186.5 868.31l-32.59 9.45v20.56l32.31-.08"/><path d="M1160.25 821.66s.49-12.59-2.53-14.8-29 0-29 0l1.46 9.19 5.08 5.61h22.42M1226.06 887.05v-14.28h24.05v13.53" fill="#777"/><path d="M1229.92 943.57c2 0-4-34.19-4-34.19l-6.88 34.19M1209.52 893.81v21.05h-9.45l4.37-20.85M1238.83 988.51v-19.54h-48.1v19.54M1174.95 949.43v26.19l-14.33-26.22" fill="#686868"/><path d="M1105.81 969.36c0 4.27 4.2 7.72 9.39 7.72s9.4-3.45 9.4-7.72v-41.19c0-4.26-4.21-7.72-9.4-7.72s-9.39 3.46-9.39 7.72zM1105.81 903.1c0 6.81 4.2 12.34 9.39 12.34s9.4-5.53 9.4-12.34v-65.81c0-6.81-4.21-12.33-9.4-12.33s-9.39 5.52-9.39 12.33zM1105.81 810.21c0 1.87 4.2 3.38 9.39 3.38s9.4-1.51 9.4-3.38v-18.05c0-1.87-4.21-3.38-9.4-3.38s-9.39 1.51-9.39 3.38zM1105.81 777.57c0 4.26 4.2 7.72 9.39 7.72s9.4-3.46 9.4-7.72v-41.19c0-4.26-4.21-7.72-9.4-7.72s-9.39 3.46-9.39 7.72z" fill="#575757"/><path fill="#4b4a4b" d="M809.91 975.29l-23.21 12.4-107.41-259.22h129.65l.97 246.82z"/><path fill="#565656" d="M657.12 728.47h130.02v259.29H657.12z"/><path d="M787.14 773.72A11.13 11.13 0 0 1 776 784.84H668.24a11.12 11.12 0 0 1-11.12-11.12v-34.13a11.12 11.12 0 0 1 11.12-11.12H776a11.11 11.11 0 0 1 11.11 11.12v34.13zM710.64 851h-42.4a11.11 11.11 0 0 1-11.12-11.11v-37.17a11.12 11.12 0 0 1 11.12-11.12h42.4a11.12 11.12 0 0 1 11.12 11.12v37.14A11.11 11.11 0 0 1 710.64 851z" fill="#7d7d7d"/><path d="M776 820.91h-35.61a11.12 11.12 0 0 1-11.12-11.12v-7.07a11.12 11.12 0 0 1 11.12-11.12H776a11.11 11.11 0 0 1 11.11 11.12v7.07A11.11 11.11 0 0 1 776 820.91z" fill="#686868"/><path d="M776 909.6h-35.61a11.12 11.12 0 0 1-11.12-11.12V843.3a11.11 11.11 0 0 1 11.12-11.11H776a11.1 11.1 0 0 1 11.11 11.11v55.18A11.11 11.11 0 0 1 776 909.6z" fill="#898989"/><path d="M710.64 887.05h-42.4a11.12 11.12 0 0 1-11.12-11.12v-6.32a11.12 11.12 0 0 1 11.12-11.12h42.4a11.12 11.12 0 0 1 11.12 11.12v6.32a11.12 11.12 0 0 1-11.12 11.12z" fill="#686868"/><path d="M710.64 943.42h-42.4a11.12 11.12 0 0 1-11.12-11.12v-26.62a11.12 11.12 0 0 1 11.12-11.12h42.4a11.12 11.12 0 0 1 11.12 11.12v26.62a11.12 11.12 0 0 1-11.12 11.12z" fill="#7d7d7d"/><path d="M776 943.42h-35.61a11.12 11.12 0 0 1-11.12-11.12V926a11.11 11.11 0 0 1 11.12-11.11H776A11.1 11.1 0 0 1 787.14 926v6.33A11.11 11.11 0 0 1 776 943.42z" fill="#686868"/><path d="M787.14 976.72a11.09 11.09 0 0 1-11.15 11H668.24a11.12 11.12 0 0 1-11.12-11.12v-16.05a11.12 11.12 0 0 1 11.12-11.12H776a11.11 11.11 0 0 1 11.11 11.12v16.17z" fill="#898989"/><path fill="#686868" d="M677.42 728.47v41.15l17.41-41.15h-17.41zM736.59 784.84l8.89-20.21 10.01 20.21h-18.9zM751.6 728.47l3.89 26.14 2.53-26.14h-3.19M694.37 850.97l7.63-44.34h7.73v44.34h-15.36zM729 868.31l32.59 9.45v20.56l-32.32-.08"/><path d="M755.49 821.66s-.49-12.59 2.53-14.8 29 0 29 0l-1.46 9.19-5.08 5.61h-22.65M689.44 887.05v-14.28h-24.05v13.53" fill="#777"/><path d="M685.82 943.57c-2 0 4-34.19 4-34.19l6.88 34.19M705.98 893.81v21.05h9.44l-4.37-20.85M676.66 988.51v-19.54h48.1v19.54M740.55 949.43v26.19l14.33-26.22" fill="#686868"/><path d="M810.44 969.36c0 4.27-4.2 7.72-9.39 7.72s-9.4-3.45-9.4-7.72v-41.19c0-4.26 4.21-7.72 9.4-7.72s9.39 3.46 9.39 7.72zM810.44 903.1c0 6.82-4.2 12.34-9.39 12.34s-9.4-5.52-9.4-12.34v-65.81c0-6.81 4.21-12.34 9.4-12.34s9.39 5.53 9.39 12.34zM810.44 810.21c0 1.87-4.2 3.38-9.39 3.38s-9.4-1.51-9.4-3.38v-18.05c0-1.87 4.21-3.39 9.4-3.39s9.39 1.52 9.39 3.39zM810.44 777.57c0 4.26-4.2 7.72-9.39 7.72s-9.4-3.46-9.4-7.72v-41.19c0-4.27 4.21-7.72 9.4-7.72s9.39 3.45 9.39 7.72z" fill="#575757"/><path d="M1286.93 1024.77a11.28 11.28 0 0 1-11.46 11.09H641.53a11.28 11.28 0 0 1-11.46-11.09v-16.91a11.27 11.27 0 0 1 11.46-11.08h633.94a11.27 11.27 0 0 1 11.46 11.08v16.91z" fill="#898989"/><path fill="#686868" d="M668.4 996.03v19.59l78.91-9.8v-9.79H668.4zM805.13 1035.58l9.07-25.84v26.12M940.41 1035.25l9.66-12.92h103.18l13.76 12.92M1132.21 996.4l9.94 26.26 17.19-26.26M1172.76 1035.58l7.22-25.84 2.79 25.84"/><path d="M889.29 841.67c-11.11-8.89 0-22.24 3.34-33.35-12.23 7.78 17.79 27.79-2.22 37.8" fill="#ee2d24"/><path d="M1279.42 730.92A11.1 11.1 0 0 1 1268.3 742H652.46a11.12 11.12 0 0 1-11.12-11.12v-73.21a11.12 11.12 0 0 1 11.12-11.12h615.84a11.12 11.12 0 0 1 11.12 11.12v73.25z" fill="#67491a"/><path d="M1279.42 738.25c0 2.07-5 3.75-11.12 3.75H652.46c-6.14 0-11.12-1.68-11.12-3.75v-24.82c0-2.07 5-3.75 11.12-3.75h615.84c6.14 0 11.12 1.68 11.12 3.75v24.82zM797.05 690.89a1.43 1.43 0 0 1-1.35 1.5H644.07a1.43 1.43 0 0 1-1.34-1.5 1.43 1.43 0 0 1 1.34-1.5H795.7a1.43 1.43 0 0 1 1.35 1.5zM1003.4 685.63c0 .83-.3 1.5-.67 1.5h-75.82c-.37 0-.67-.67-.67-1.5s.3-1.5.67-1.5h75.82c.37 0 .67.67.67 1.5zM970.05 674.36c0 .83-.3 1.5-.68 1.5h-75.81c-.37 0-.67-.67-.67-1.5s.3-1.51.67-1.51h75.81c.38 0 .68.68.68 1.51zM719.89 679.62c0 .83-.3 1.5-.68 1.5H643.4c-.37 0-.67-.67-.67-1.5s.3-1.51.67-1.51h75.81c.38 0 .68.68.68 1.51zM1278.39 702.17a1.48 1.48 0 0 1-1.45 1.5h-162.31a1.47 1.47 0 0 1-1.44-1.5 1.47 1.47 0 0 1 1.44-1.51h162.31a1.48 1.48 0 0 1 1.45 1.51zM1278.39 689.39a1.59 1.59 0 0 1-1.66 1.5h-186.56a1.58 1.58 0 0 1-1.66-1.5 1.58 1.58 0 0 1 1.66-1.5h186.56a1.58 1.58 0 0 1 1.66 1.5zM1278.39 657.82a1.77 1.77 0 0 1-1.94 1.51h-218.51a1.77 1.77 0 0 1-1.94-1.51 1.76 1.76 0 0 1 1.94-1.5h218.51a1.76 1.76 0 0 1 1.94 1.5zM833.66 661.58a1.59 1.59 0 0 1-1.67 1.5h-187.6a1.58 1.58 0 0 1-1.66-1.5 1.58 1.58 0 0 1 1.66-1.5H832a1.59 1.59 0 0 1 1.67 1.5z" fill="#4b300d"/><path d="M1225.3 486.47h2.25v18.79h-2.25zM1176.45 500.75h2.25v18.79h-2.25z"/><path d="M1185.47 510v29.06h-15.78v-38.23a82.74 82.74 0 0 0 15.78 9.17zM1221.23 491.28c3.36 3 7.7 6.12 12.34 7.61v39.43h-15.78v-48.85h1.48c.65.63 1.31 1.23 1.96 1.81z" fill="#dddda8"/><path d="M1181.18 513a20.14 20.14 0 0 0-3.07 4.52 6.8 6.8 0 0 0-4.46 2 9.61 9.61 0 0 0-3.53 2.76l-.43.59v-22.68a82.25 82.25 0 0 0 15.78 9.41v1.4a6.13 6.13 0 0 0-4.29 2z" fill="#b8b85f"/><path d="M1175.82 538.77a13.84 13.84 0 0 0 1.62-2.4 6.3 6.3 0 0 0 1.32.11 6.88 6.88 0 0 0 6.54-5.41l.17-.13v8.14h-9.67c.46-.69.71-1.08.02-.31z" fill="#dddda8"/><path d="M1230.34 506a6.78 6.78 0 0 0-8.14 1 7.83 7.83 0 0 0-4.26.72l-.15-.09v-18.16h1.48c.65.63 1.31 1.23 2 1.81 3.36 3 7.7 6.13 12.34 7.62v7.2a7 7 0 0 0-3.27-.1z" fill="#b8b85f"/><path d="M1197.79 632.27c-2-.85-4.7-2.39-4.7-4.17a4.85 4.85 0 0 1 4.85-4.85h-.57a84.66 84.66 0 0 1-1.77-18.74c0-8.1.79-15.26 2-19.59h-2.47a20.19 20.19 0 0 1-20.13-20.19v-6.32a7.07 7.07 0 0 1-6.76-7.2v-18.15h20.29v17.59a7.21 7.21 0 0 1-7.21 7.21h-1.81v6.69a15.86 15.86 0 0 0 15.87 15.86h11.85a15.86 15.86 0 0 0 15.87-15.87v-6.68h-.3a7.21 7.21 0 0 1-7.22-7.21v-17.59h20.3v17.59a7.21 7.21 0 0 1-7.22 7.21h-.3v6.87a20.19 20.19 0 0 1-20.19 20.19h-3.38c1.25 4.33 2.07 11.49 2.07 19.59a81.71 81.71 0 0 1-1.84 18.74h-.24a4.86 4.86 0 0 1 4.86 4.85c0 1.77-3.52 3.32-6 4.17h1.35c.89 0 35.88 5.27 35.88 11.76a11.53 11.53 0 0 1-.13 1.77H1162a11.53 11.53 0 0 1-.13-1.77c.04-6.49 35.03-11.76 35.92-11.76z" fill="#222530"/><path d="M1177.2 533.06v29.64a6 6 0 0 0 2.93 5.39 16.07 16.07 0 0 0 15.69 12.32h19a8.27 8.27 0 0 0 8.27-8.27v-14.28h-3.76a3.76 3.76 0 0 1-3.76-3.75v-21.05h10.53v35.32a6.88 6.88 0 0 0 .53 2.75 20.13 20.13 0 0 1-19 13.79H1203a2.5 2.5 0 0 0 .07.26 5.17 5.17 0 0 0-.68.16 6.79 6.79 0 0 0-4.9.16c0-.19.09-.4.14-.58h-2.47a20.19 20.19 0 0 1-20.16-20.19v-6.32a7.07 7.07 0 0 1-6.76-7.2v-18.15z" fill="#171921"/><path d="M1202 622.44a7.81 7.81 0 0 0-.37 7.32c-1.21.74-2.43 1.48-3.56 2.33l-.59.47c-2-.93-4.52-2.46-4.52-4.2a5.11 5.11 0 0 1 5.11-5.11h.38c-.12-.5-.25-1-.36-1.58a11.67 11.67 0 0 0 3.91.77z" fill="#222530"/><path d="M1197.22 632.48c-3.6 2.95-6.42 6.69-6.41 11.62a16.64 16.64 0 0 0 .1 1.7h-28.63a11.18 11.18 0 0 1-.13-1.75c0-6.11 31.4-11.12 35.07-11.57z" fill="#171921"/><path d="M689.44 486.47h2.25v18.79h-2.25zM737.54 500.75h2.25v18.79h-2.25z"/><path d="M730.78 510v29.06h15.78v-38.23a83 83 0 0 1-15.78 9.17zM695.77 491.28c-3.36 3-7.7 6.12-12.34 7.61v39.43h15.78v-48.85h-1.48c-.65.63-1.31 1.23-1.96 1.81z" fill="#dddda8"/><path d="M735.07 513a20.14 20.14 0 0 1 3.07 4.52 6.82 6.82 0 0 1 4.46 2 9.61 9.61 0 0 1 3.53 2.76l.43.59v-22.68a82.55 82.55 0 0 1-15.78 9.41v1.4a6.13 6.13 0 0 1 4.29 2z" fill="#b8b85f"/><path d="M741.18 538.77a14.49 14.49 0 0 1-1.63-2.4 6.15 6.15 0 0 1-1.31.11 6.9 6.9 0 0 1-6.55-5.41l-.16-.13v8.14h9.67c-.46-.69-.71-1.08-.02-.31z" fill="#dddda8"/><path d="M686.66 506a6.78 6.78 0 0 1 8.14 1 7.83 7.83 0 0 1 4.26.72l.15-.09v-18.16h-1.48c-.65.63-1.31 1.23-2 1.81-3.36 3-7.7 6.13-12.34 7.62v7.2a7 7 0 0 1 3.27-.1z" fill="#b8b85f"/><path d="M719 632.27c2-.85 4.71-2.39 4.71-4.17a4.85 4.85 0 0 0-4.85-4.85h.74a84.66 84.66 0 0 0 1.77-18.74c0-8.1-.79-15.26-2-19.59h2.47a20.19 20.19 0 0 0 20.19-20.19v-6.32a7.07 7.07 0 0 0 6.76-7.2v-18.15h-20.27v17.59a7.21 7.21 0 0 0 7.21 7.21h1.81v6.69a15.86 15.86 0 0 1-15.87 15.86h-12.61a15.86 15.86 0 0 1-15.86-15.86v-6.69h.3a7.2 7.2 0 0 0 7.21-7.21v-17.59h-19.54v17.59a7.21 7.21 0 0 0 7.22 7.21h.3v6.87a20.19 20.19 0 0 0 20.19 20.19h3.38c-1.25 4.33-2.07 11.49-2.07 19.59a81.71 81.71 0 0 0 1.81 18.74h.06a4.85 4.85 0 0 0-4.85 4.85c0 1.77 3.51 3.32 6 4.17h-1.31c-.9 0-35.89 5.27-35.89 11.76a12.94 12.94 0 0 0 .13 1.77h78.64a11.53 11.53 0 0 0 .13-1.77c.01-6.49-34.98-11.76-35.91-11.76z" fill="#222530"/><path d="M739.8 533.06v29.64a6 6 0 0 1-2.93 5.39 16.07 16.07 0 0 1-15.69 12.32h-19.71a8.27 8.27 0 0 1-8.27-8.27v-14.28h3.8a3.75 3.75 0 0 0 3.75-3.75v-21.05h-10.56v35.32a6.88 6.88 0 0 1-.53 2.75 20.13 20.13 0 0 0 19 13.79H714a2.5 2.5 0 0 1-.07.26 5.17 5.17 0 0 1 .68.16 6.79 6.79 0 0 1 4.9.16c0-.19-.09-.4-.14-.58h2.47a20.19 20.19 0 0 0 20.19-20.19v-6.32a7.07 7.07 0 0 0 6.76-7.2v-18.15z" fill="#171921"/><path d="M714.81 622.44a7.81 7.81 0 0 1 .37 7.32c1.21.74 2.43 1.48 3.56 2.33.2.15.39.31.58.47 2-.93 4.53-2.46 4.53-4.2a5.11 5.11 0 0 0-5.11-5.11h-.39c.13-.5.25-1 .37-1.58a11.72 11.72 0 0 1-3.91.77z" fill="#222530"/><path d="M719.6 632.48c3.6 2.95 6.43 6.69 6.42 11.62a16.64 16.64 0 0 1-.1 1.7h28.63a12.53 12.53 0 0 0 .13-1.75c0-6.11-31.41-11.12-35.08-11.57z" fill="#171921"/><path d="M1497.62 998.28c0-26.15-14.14-47.35-31.57-47.35h-4.51c-17.43 0-31.57 21.2-31.57 47.35 0 26.15 14.14 47.35 31.57 47.35h4.51c17.43 0 31.57-21.2 31.57-47.35z" fill="#6b461c"/><circle cx="1463.8" cy="1012.17" r="33.82" fill="#a37a3e"/><circle cx="1463.8" cy="1012.17" r="15.03" fill="none" stroke="#845d28" stroke-miterlimit="10" stroke-width="1.503"/><circle cx="1463.8" cy="1012.17" r="23.44" fill="none" stroke="#845d28" stroke-miterlimit="10" stroke-width="1.503"/><circle cx="1463.8" cy="1012.17" r="27.22" fill="none" stroke="#845d28" stroke-miterlimit="10" stroke-width="1.503"/><path d="M1448.52 960.51a2.26 2.26 0 0 0-2.26-2.26 2.26 2.26 0 0 0-2.25 2.26v16.13a2.26 2.26 0 0 0 2.25 2.26 2.26 2.26 0 0 0 2.26-2.26zM1465.8 952.42a1.13 1.13 0 0 0-1.12-1.13 1.14 1.14 0 0 0-1.13 1.13v24.8a1.14 1.14 0 0 0 1.13 1.13 1.13 1.13 0 0 0 1.12-1.13zM1475.57 966.32a1.5 1.5 0 0 0-1.5-1.5 1.5 1.5 0 0 0-1.5 1.5v10.52a1.51 1.51 0 0 0 1.5 1.51 1.51 1.51 0 0 0 1.5-1.51zM1490.61 970.67a1.51 1.51 0 0 0-1.51-1.5 1.5 1.5 0 0 0-1.5 1.5v15a1.5 1.5 0 0 0 1.5 1.5 1.51 1.51 0 0 0 1.51-1.5z" fill="#543818"/><path d="M1430 998.28c0-26.15-14.13-47.35-31.57-47.35h-4.5c-17.44 0-31.57 21.2-31.57 47.35 0 26.15 14.13 47.35 31.57 47.35h4.5c17.44 0 31.57-21.2 31.57-47.35z" fill="#6b461c"/><circle cx="1396.15" cy="1012.17" r="33.82" fill="#a37a3e"/><circle cx="1396.15" cy="1012.17" r="15.03" fill="none" stroke="#845d28" stroke-miterlimit="10" stroke-width="1.503"/><circle cx="1396.15" cy="1012.17" r="23.44" fill="none" stroke="#845d28" stroke-miterlimit="10" stroke-width="1.503"/><circle cx="1396.15" cy="1012.17" r="27.22" fill="none" stroke="#845d28" stroke-miterlimit="10" stroke-width="1.503"/><path d="M1380.88 960.51a2.26 2.26 0 0 0-2.26-2.26 2.26 2.26 0 0 0-2.25 2.26v16.14a2.25 2.25 0 0 0 2.25 2.25 2.26 2.26 0 0 0 2.26-2.25zM1398.16 952.42a1.13 1.13 0 0 0-1.12-1.13 1.13 1.13 0 0 0-1.13 1.13v24.8a1.13 1.13 0 0 0 1.13 1.13 1.13 1.13 0 0 0 1.12-1.13zM1407.93 966.32a1.5 1.5 0 0 0-1.5-1.5 1.5 1.5 0 0 0-1.5 1.5v10.52a1.51 1.51 0 0 0 1.5 1.51 1.51 1.51 0 0 0 1.5-1.51zM1423 970.67a1.51 1.51 0 0 0-1.51-1.5 1.5 1.5 0 0 0-1.5 1.5v15a1.5 1.5 0 0 0 1.5 1.51 1.51 1.51 0 0 0 1.51-1.51z" fill="#543818"/><path d="M1362.33 998.28c0-26.15-14.14-47.35-31.57-47.35h-4.51c-17.43 0-31.57 21.2-31.57 47.35 0 26.15 14.14 47.35 31.57 47.35h4.51c17.43 0 31.57-21.2 31.57-47.35z" fill="#6b461c"/><circle cx="1328.5" cy="1012.17" r="33.82" fill="#a37a3e"/><circle cx="1328.5" cy="1012.17" r="15.03" fill="none" stroke="#845d28" stroke-miterlimit="10" stroke-width="1.503"/><circle cx="1328.5" cy="1012.17" r="23.44" fill="none" stroke="#845d28" stroke-miterlimit="10" stroke-width="1.503"/><circle cx="1328.5" cy="1012.17" r="27.22" fill="none" stroke="#845d28" stroke-miterlimit="10" stroke-width="1.503"/><path d="M1313.24 960.51a2.26 2.26 0 0 0-2.26-2.25 2.25 2.25 0 0 0-2.25 2.25v16.13a2.26 2.26 0 0 0 2.25 2.26 2.26 2.26 0 0 0 2.26-2.26zM1330.52 952.42a1.13 1.13 0 0 0-1.12-1.13 1.13 1.13 0 0 0-1.13 1.13v24.8a1.13 1.13 0 0 0 1.13 1.13 1.13 1.13 0 0 0 1.12-1.13zM1340.29 966.32a1.5 1.5 0 0 0-1.5-1.5 1.5 1.5 0 0 0-1.5 1.5v10.52a1.51 1.51 0 0 0 1.5 1.51 1.51 1.51 0 0 0 1.5-1.51zM1355.32 970.67a1.5 1.5 0 0 0-1.5-1.5 1.5 1.5 0 0 0-1.5 1.5v15a1.5 1.5 0 0 0 1.5 1.5 1.5 1.5 0 0 0 1.5-1.5z" fill="#543818"/><path d="M1464.54 938.16c0-26.15-14.13-47.35-31.56-47.35h-4.51c-17.43 0-31.57 21.2-31.57 47.35 0 26.14 14.14 47.34 31.57 47.34h4.53c17.43 0 31.56-21.2 31.56-47.34z" fill="#6b461c"/><circle cx="1430.72" cy="952.04" r="33.82" fill="#a37a3e"/><circle cx="1430.72" cy="952.04" r="15.03" fill="none" stroke="#845d28" stroke-miterlimit="10" stroke-width="1.503"/><circle cx="1430.72" cy="952.04" r="23.44" fill="none" stroke="#845d28" stroke-miterlimit="10" stroke-width="1.503"/><circle cx="1430.72" cy="952.04" r="27.22" fill="none" stroke="#845d28" stroke-miterlimit="10" stroke-width="1.503"/><path d="M1415.45 900.38a2.26 2.26 0 0 0-2.25-2.26 2.26 2.26 0 0 0-2.26 2.26v16.13a2.26 2.26 0 0 0 2.26 2.26 2.26 2.26 0 0 0 2.25-2.26zM1432.74 892.29a1.13 1.13 0 0 0-1.13-1.13 1.12 1.12 0 0 0-1.13 1.13v24.8a1.13 1.13 0 0 0 1.13 1.13 1.14 1.14 0 0 0 1.13-1.13zM1442.51 906.19a1.51 1.51 0 0 0-1.51-1.5 1.5 1.5 0 0 0-1.5 1.5v10.52a1.51 1.51 0 0 0 1.5 1.51 1.52 1.52 0 0 0 1.51-1.51zM1457.54 910.54A1.51 1.51 0 0 0 1456 909a1.5 1.5 0 0 0-1.5 1.51v15a1.5 1.5 0 0 0 1.5 1.5 1.51 1.51 0 0 0 1.51-1.5z" fill="#543818"/><path d="M1396.9 938.16c0-26.15-14.13-47.35-31.57-47.35h-4.51c-17.43 0-31.56 21.2-31.56 47.35 0 26.14 14.13 47.34 31.56 47.34h4.51c17.44 0 31.57-21.2 31.57-47.34z" fill="#6b461c"/><circle cx="1363.08" cy="952.04" r="33.82" fill="#a37a3e"/><circle cx="1363.08" cy="952.04" r="15.03" fill="none" stroke="#845d28" stroke-miterlimit="10" stroke-width="1.503"/><circle cx="1363.08" cy="952.04" r="23.44" fill="none" stroke="#845d28" stroke-miterlimit="10" stroke-width="1.503"/><circle cx="1363.08" cy="952.04" r="27.22" fill="none" stroke="#845d28" stroke-miterlimit="10" stroke-width="1.503"/><path d="M1347.81 900.38a2.26 2.26 0 0 0-2.25-2.26 2.26 2.26 0 0 0-2.26 2.26v16.13a2.26 2.26 0 0 0 2.26 2.26 2.26 2.26 0 0 0 2.25-2.26zM1365.1 892.29a1.13 1.13 0 0 0-1.13-1.13 1.13 1.13 0 0 0-1.13 1.13v24.8a1.14 1.14 0 0 0 1.13 1.13 1.14 1.14 0 0 0 1.13-1.13zM1374.87 906.19a1.51 1.51 0 0 0-1.51-1.5 1.5 1.5 0 0 0-1.5 1.5v10.52a1.51 1.51 0 0 0 1.5 1.51 1.52 1.52 0 0 0 1.51-1.51zM1389.9 910.54a1.51 1.51 0 0 0-1.51-1.5 1.5 1.5 0 0 0-1.5 1.5v15a1.51 1.51 0 0 0 1.5 1.51 1.52 1.52 0 0 0 1.51-1.51z" fill="#543818"/><path d="M622.74 998.28c0-26.15-14.14-47.35-31.57-47.35h-4.51c-17.43 0-31.56 21.2-31.56 47.35 0 26.15 14.13 47.35 31.56 47.35h4.51c17.43 0 31.57-21.2 31.57-47.35z" fill="#6b461c"/><circle cx="588.92" cy="1012.17" r="33.82" fill="#a37a3e"/><circle cx="588.92" cy="1012.17" r="15.03" fill="none" stroke="#845d28" stroke-miterlimit="10" stroke-width="1.503"/><circle cx="588.92" cy="1012.17" r="23.44" fill="none" stroke="#845d28" stroke-miterlimit="10" stroke-width="1.503"/><circle cx="588.92" cy="1012.17" r="27.22" fill="none" stroke="#845d28" stroke-miterlimit="10" stroke-width="1.503"/><path d="M573.7 960.51a2.26 2.26 0 0 0-2.25-2.26 2.26 2.26 0 0 0-2.26 2.26v16.14a2.26 2.26 0 0 0 2.26 2.25 2.25 2.25 0 0 0 2.25-2.25zM591 952.42a1.14 1.14 0 0 0-1.13-1.13 1.14 1.14 0 0 0-1.13 1.13v24.8a1.14 1.14 0 0 0 1.13 1.13 1.14 1.14 0 0 0 1.13-1.13zM600.76 966.32a1.51 1.51 0 0 0-1.51-1.5 1.5 1.5 0 0 0-1.5 1.5v10.52a1.51 1.51 0 0 0 1.5 1.51 1.52 1.52 0 0 0 1.51-1.51zM615.79 970.67a1.5 1.5 0 0 0-1.51-1.5 1.5 1.5 0 0 0-1.5 1.5v15a1.5 1.5 0 0 0 1.5 1.5 1.5 1.5 0 0 0 1.51-1.5z" fill="#543818"/><path d="M555.09 998.28c0-26.15-14.13-47.35-31.56-47.35H519c-17.44 0-31.57 21.2-31.57 47.35 0 26.15 14.13 47.35 31.57 47.35h4.51c17.43 0 31.56-21.2 31.56-47.35z" fill="#6b461c"/><circle cx="521.27" cy="1012.17" r="33.82" fill="#a37a3e"/><circle cx="521.27" cy="1012.17" r="15.03" fill="none" stroke="#845d28" stroke-miterlimit="10" stroke-width="1.503"/><circle cx="521.27" cy="1012.17" r="23.44" fill="none" stroke="#845d28" stroke-miterlimit="10" stroke-width="1.503"/><circle cx="521.27" cy="1012.17" r="27.22" fill="none" stroke="#845d28" stroke-miterlimit="10" stroke-width="1.503"/><path d="M506.06 960.51a2.26 2.26 0 0 0-2.26-2.26 2.26 2.26 0 0 0-2.25 2.26v16.14a2.25 2.25 0 0 0 2.25 2.25 2.26 2.26 0 0 0 2.26-2.25zM523.35 952.42a1.14 1.14 0 0 0-1.13-1.13 1.13 1.13 0 0 0-1.13 1.13v24.8a1.13 1.13 0 0 0 1.13 1.13 1.14 1.14 0 0 0 1.13-1.13zM533.12 966.32a1.51 1.51 0 0 0-1.51-1.5 1.5 1.5 0 0 0-1.5 1.5v10.52a1.51 1.51 0 0 0 1.5 1.51 1.52 1.52 0 0 0 1.51-1.51zM548.15 970.67a1.52 1.52 0 0 0-1.51-1.51 1.51 1.51 0 0 0-1.5 1.51v15a1.5 1.5 0 0 0 1.5 1.5 1.51 1.51 0 0 0 1.51-1.5z" fill="#543818"/><path d="M487.45 998.28c0-26.15-14.14-47.35-31.57-47.35h-4.51c-17.43 0-31.56 21.2-31.56 47.35 0 26.15 14.13 47.35 31.56 47.35h4.51c17.43 0 31.57-21.2 31.57-47.35z" fill="#6b461c"/><circle cx="453.63" cy="1012.17" r="33.82" fill="#a37a3e"/><circle cx="453.63" cy="1012.17" r="15.03" fill="none" stroke="#845d28" stroke-miterlimit="10" stroke-width="1.503"/><circle cx="453.63" cy="1012.17" r="23.44" fill="none" stroke="#845d28" stroke-miterlimit="10" stroke-width="1.503"/><circle cx="453.63" cy="1012.17" r="27.22" fill="none" stroke="#845d28" stroke-miterlimit="10" stroke-width="1.503"/><path d="M438.42 960.51a2.26 2.26 0 0 0-2.26-2.26 2.26 2.26 0 0 0-2.25 2.26v16.14a2.25 2.25 0 0 0 2.25 2.25 2.26 2.26 0 0 0 2.26-2.25zM455.7 952.42a1.13 1.13 0 0 0-1.12-1.13 1.13 1.13 0 0 0-1.13 1.13v24.8a1.13 1.13 0 0 0 1.13 1.13 1.13 1.13 0 0 0 1.12-1.13zM465.47 966.32a1.5 1.5 0 0 0-1.5-1.5 1.5 1.5 0 0 0-1.5 1.5v10.52a1.51 1.51 0 0 0 1.5 1.51 1.51 1.51 0 0 0 1.5-1.51zM480.51 970.67a1.52 1.52 0 0 0-1.51-1.51 1.51 1.51 0 0 0-1.5 1.51v15a1.5 1.5 0 0 0 1.5 1.5 1.51 1.51 0 0 0 1.51-1.5z" fill="#543818"/><path d="M589.67 938.16c0-26.15-14.14-47.35-31.57-47.35h-4.51c-17.43 0-31.57 21.2-31.57 47.35 0 26.14 14.14 47.34 31.57 47.34h4.51c17.43 0 31.57-21.2 31.57-47.34z" fill="#6b461c"/><circle cx="555.85" cy="952.04" r="33.82" fill="#a37a3e"/><circle cx="555.85" cy="952.04" r="15.03" fill="none" stroke="#845d28" stroke-miterlimit="10" stroke-width="1.503"/><circle cx="555.85" cy="952.04" r="23.44" fill="none" stroke="#845d28" stroke-miterlimit="10" stroke-width="1.503"/><circle cx="555.85" cy="952.04" r="27.22" fill="none" stroke="#845d28" stroke-miterlimit="10" stroke-width="1.503"/><path d="M540.63 900.38a2.26 2.26 0 0 0-2.25-2.26 2.26 2.26 0 0 0-2.26 2.26v16.13a2.26 2.26 0 0 0 2.26 2.26 2.26 2.26 0 0 0 2.25-2.26zM557.92 892.29a1.13 1.13 0 0 0-1.13-1.13 1.13 1.13 0 0 0-1.13 1.13v24.8a1.14 1.14 0 0 0 1.13 1.13 1.14 1.14 0 0 0 1.13-1.13zM567.69 906.19a1.51 1.51 0 0 0-1.51-1.5 1.5 1.5 0 0 0-1.5 1.5v10.52a1.51 1.51 0 0 0 1.5 1.51 1.52 1.52 0 0 0 1.51-1.51zM582.72 910.54a1.51 1.51 0 0 0-1.5-1.51 1.52 1.52 0 0 0-1.51 1.51v15a1.51 1.51 0 0 0 1.51 1.5 1.5 1.5 0 0 0 1.5-1.5z" fill="#543818"/><path d="M522 938.16c0-26.15-14.13-47.35-31.56-47.35H486c-17.44 0-31.57 21.2-31.57 47.35 0 26.14 14.13 47.34 31.57 47.34h4.51c17.43 0 31.56-21.2 31.56-47.34z" fill="#6b461c"/><circle cx="488.2" cy="952.04" r="33.82" fill="#a37a3e"/><circle cx="488.2" cy="952.04" r="15.03" fill="none" stroke="#845d28" stroke-miterlimit="10" stroke-width="1.503"/><circle cx="488.2" cy="952.04" r="23.44" fill="none" stroke="#845d28" stroke-miterlimit="10" stroke-width="1.503"/><circle cx="488.2" cy="952.04" r="27.22" fill="none" stroke="#845d28" stroke-miterlimit="10" stroke-width="1.503"/><path d="M473 900.38a2.26 2.26 0 0 0-2.25-2.26 2.26 2.26 0 0 0-2.26 2.26v16.13a2.26 2.26 0 0 0 2.26 2.26 2.26 2.26 0 0 0 2.25-2.26zM490.28 892.29a1.13 1.13 0 0 0-1.13-1.13 1.13 1.13 0 0 0-1.13 1.13v24.8a1.14 1.14 0 0 0 1.13 1.13 1.14 1.14 0 0 0 1.13-1.13zM500.05 906.19a1.51 1.51 0 0 0-1.51-1.5 1.5 1.5 0 0 0-1.5 1.5v10.52a1.51 1.51 0 0 0 1.5 1.51 1.52 1.52 0 0 0 1.51-1.51zM515.08 910.54a1.51 1.51 0 0 0-1.51-1.51 1.5 1.5 0 0 0-1.5 1.51v15a1.5 1.5 0 0 0 1.5 1.5 1.5 1.5 0 0 0 1.51-1.5z" fill="#543818"/><g opacity=".2"><path d="M537.62 517h-15.88a7.55 7.55 0 0 1-7.56-7.56v-22.71a7.56 7.56 0 0 1 7.56-7.56h15.88a7.57 7.57 0 0 1 7.56 7.56v22.68a7.56 7.56 0 0 1-7.56 7.59zM354.66 517h-15.88a7.55 7.55 0 0 1-7.56-7.56v-22.71a7.56 7.56 0 0 1 7.56-7.56h15.88a7.57 7.57 0 0 1 7.56 7.56v22.68a7.56 7.56 0 0 1-7.56 7.59z"/><path d="M604.28 474.64c0 10.43-8.75 18.9-19.55 18.9H297c-10.8 0-19.55-8.47-19.55-18.9 0-10.44 8.75-18.91 19.55-18.91h287.73c10.8 0 19.55 8.47 19.55 18.91z"/><path d="M277.51 473.12c-.06.6-.1 1.21-.1 1.83 0 10.26 8.76 18.59 19.55 18.59h287.77c10.79 0 19.55-8.33 19.55-18.59 0-.62 0-1.23-.1-1.83z"/></g><g opacity=".2"><path d="M1575.62 517h-15.88a7.55 7.55 0 0 1-7.56-7.56v-22.71a7.56 7.56 0 0 1 7.56-7.56h15.88a7.57 7.57 0 0 1 7.56 7.56v22.68a7.56 7.56 0 0 1-7.56 7.59zM1392.66 517h-15.88a7.55 7.55 0 0 1-7.56-7.56v-22.71a7.56 7.56 0 0 1 7.56-7.56h15.88a7.57 7.57 0 0 1 7.56 7.56v22.68a7.56 7.56 0 0 1-7.56 7.59z"/><path d="M1642.28 474.64c0 10.43-8.75 18.9-19.55 18.9H1335c-10.8 0-19.55-8.47-19.55-18.9 0-10.44 8.75-18.91 19.55-18.91h287.77c10.8 0 19.55 8.47 19.55 18.91z"/><path d="M1315.51 473.12c-.06.6-.1 1.21-.1 1.83 0 10.26 8.76 18.59 19.55 18.59h287.77c10.79 0 19.55-8.33 19.55-18.59 0-.62 0-1.23-.1-1.83z"/></g><path d="M547.62 507h-15.88a7.55 7.55 0 0 1-7.56-7.56v-22.71a7.56 7.56 0 0 1 7.56-7.56h15.88a7.57 7.57 0 0 1 7.56 7.56v22.68a7.56 7.56 0 0 1-7.56 7.59zM364.66 507h-15.88a7.55 7.55 0 0 1-7.56-7.56v-22.71a7.56 7.56 0 0 1 7.56-7.56h15.88a7.57 7.57 0 0 1 7.56 7.56v22.68a7.56 7.56 0 0 1-7.56 7.59z" fill="#4b300d"/><path d="M614.28 464.64c0 10.43-8.75 18.9-19.55 18.9H307c-10.8 0-19.55-8.47-19.55-18.9 0-10.44 8.75-18.91 19.55-18.91h287.73c10.8 0 19.55 8.47 19.55 18.91z" fill="#67491a"/><path d="M287.51 463.12c-.06.6-.1 1.21-.1 1.83 0 10.26 8.76 18.59 19.55 18.59h287.77c10.79 0 19.55-8.33 19.55-18.59 0-.62 0-1.23-.1-1.83z" fill="#573913"/><path d="M1566.62 507h-15.88a7.55 7.55 0 0 1-7.56-7.56v-22.71a7.56 7.56 0 0 1 7.56-7.56h15.88a7.57 7.57 0 0 1 7.56 7.56v22.68a7.56 7.56 0 0 1-7.56 7.59zM1383.66 507h-15.88a7.55 7.55 0 0 1-7.56-7.56v-22.71a7.56 7.56 0 0 1 7.56-7.56h15.88a7.57 7.57 0 0 1 7.56 7.56v22.68a7.56 7.56 0 0 1-7.56 7.59z" fill="#4b300d"/><path d="M1633.28 464.64c0 10.43-8.75 18.9-19.55 18.9H1326c-10.8 0-19.55-8.47-19.55-18.9 0-10.44 8.75-18.91 19.55-18.91h287.77c10.8 0 19.55 8.47 19.55 18.91z" fill="#67491a"/><path d="M1306.51 463.12c-.06.6-.1 1.21-.1 1.83 0 10.26 8.76 18.59 19.55 18.59h287.77c10.79 0 19.55-8.33 19.55-18.59 0-.62 0-1.23-.1-1.83z" fill="#573913"/></svg>
