<svg data-name="Capa 1" xmlns="http://www.w3.org/2000/svg" viewBox="0 0 361 305"><path d="M169.77 295.23h-31.92a5.7 5.7 0 0 1-5.7-5.7V257a5.7 5.7 0 0 1 5.7-5.7h31.92a5.7 5.7 0 0 1 5.7 5.7v32.49a5.71 5.71 0 0 1-5.7 5.74z" fill="#4c4c4d"/><path d="M150.39 297.51c3.46 0 6.27-1.92 6.27-4.27v-29.62c0-2.38-2.77-4.3-6.19-4.3h-12.7c-3.42 0-6.19 1.92-6.19 4.3v33.89z" fill="#6e3318"/><path d="M156.09 293.24v-10.55h-24.51v14.82H150c3.38 0 6.09-1.91 6.09-4.27z" fill="#562915"/><path d="M141.63 282.09c0-12.36-5.14-22.38-11.48-22.38v44.77c6.34 0 11.48-10.02 11.48-22.39z" fill="#6e3318" stroke="#471c10" stroke-miterlimit="10" stroke-width=".57"/><path fill="#4c4c4d" d="M186.3 260.46h30.21v38.76H186.3z"/><path fill="#3d3d3d" d="M185.73 260.46h11.4v38.76h-11.4z"/><path d="M302.39 98A27.38 27.38 0 0 0 275 70.66H88.4A27.38 27.38 0 0 0 61 98l8 131.6a25.55 25.55 0 0 0 2.63 11.4l-.45 7.09c0 13.13 11.23 23.78 25.07 23.78h170.91c13.85 0 25.07-10.65 25.07-23.78l-.45-7.09a25.41 25.41 0 0 0 2.65-11.35z" fill="#979241"/><path d="M302.38 98A27.38 27.38 0 0 0 275 70.66H151.79c-.14.44-.28.87-.44 1.3-2.08 5.57-5.17 10.67-7.34 16.2-4.56 11.61-8.41 23.65-13.75 34.93-1.91 4-4.32 9.06-2.84 13.62 1.37 4.21 4.64 8 7.74 11 6.84 6.8 14.42 12.29 23.84 14.75 18.53 4.95 41.69.92 54.78 17.95 4.86 6.32 7.23 14.53 7.67 22.4.65 11.73 2 23.62.18 35.32s-6 22.57-9.74 33.73h55.29c13.85 0 25.07-10.65 25.07-23.78l-.45-7.09a25.42 25.42 0 0 0 2.66-11.35z" fill="#6f783e"/><path d="M236.4 70.74c13.14-2.17 24.53 0 40 0 46.71 0 84.58 21.15 84.58 47.23s-37.87 30.14-84.58 30.14a138.61 138.61 0 0 1-42.4-6.34z" fill="#6f783e"/><path d="M333.44 115.29c-1.14-1.14-5.14-34.53-55.09-35.11M356.79 103.34s-16.05 5.44-17.68 38.6" fill="none" stroke="#4d5525" stroke-miterlimit="10" stroke-width="1.71"/><path d="M124.6 70.74c-13.14-2.17-24.53 0-40 0C37.93 70.74.06 91.89.06 118s37.87 30.14 84.58 30.14a138.61 138.61 0 0 0 42.36-6.37z" fill="#979241"/><path d="M82.65 80.26c2 .58 198 0 198 0M82.65 77.41c2 .58 198 0 198 0" fill="none" stroke="#4d5525" stroke-miterlimit="10" stroke-width="1.71"/><path d="M87.13 135.75c-46.16 0-83.68-4-84.56-29.24A28.08 28.08 0 0 0 .06 118c0 26.09 37.87 30.14 84.58 30.14a138.61 138.61 0 0 0 42.36-6.37l-.38-11.48a140.27 140.27 0 0 1-39.49 5.46z" fill="#6f783e"/><path d="M212.13 194.34h-68.2a11.21 11.21 0 0 1-11.21-11.21v-60.79a11.21 11.21 0 0 1 11.21-11.21h68.2a11.21 11.21 0 0 1 11.21 11.21v60.79a11.21 11.21 0 0 1-11.21 11.21z" fill="none" stroke="#4d5525" stroke-miterlimit="10" stroke-width="3.42"/><circle cx="220.67" cy="74.27" r="9.65" fill="#fcc184"/><circle cx="140.96" cy="74.27" r="9.65" fill="#fcc184"/><ellipse cx="221.13" cy="76.61" rx="5.92" ry="5.87" fill="#d19659"/><ellipse cx="140.96" cy="76.61" rx="5.92" ry="5.87" fill="#d19659"/><circle cx="180.66" cy="77.85" r="35.97" fill="#fcc184"/><path d="M233.67 149c-2.49-6.64-19.21-82.46-19.21-82.46l-.54-.31c2.53 10.17 7.19 41.06-32.95 30.08h-.31c-40.74 11.15-35.34-20.82-32.85-30.51l-1.27.74s-14.3 75.18-16.79 81.82 29.78 2.13 50.75 12.09c20.96-9.96 55.66-4.81 53.17-11.45z" fill="#c64327"/><path d="M146.54 66.4c9.32-1.05 42.89-4.06 64.24-.91 1.26.19 2.53.25 3.8.37-1.6-4-3.3-8.07-5.06-12.06-1.36-3.08-2.72-6.16-4.27-9.16-3-5.8-2.35-8.58 3.93-10.82 2.63-.93 5.18-2.07 7.75-3.16 3.42-1.44 5.61-3.52.73-5a36.58 36.58 0 0 0-10.48-1.2c-6.06 0-12.06 1.07-18 2-8.69 1.3-17.36 2.78-25.95 4.63-4.76 1-5.81 2.15-7.39 7.2-2.12 6.61-9.3 28.11-9.3 28.11z" fill="#979241"/><path d="M201.92 32.7c-6.54 2.9-13 6.21-17.13 12.32a49.58 49.58 0 0 0-6.91 17c-.17.74-.31 1.48-.45 2.22 11.36-.35 23.62-.2 33.35 1.24 1.26.19 2.53.25 3.8.37-1.6-4-3.3-8.07-5.06-12.06-1.36-3.08-2.72-6.16-4.27-9.16-3-5.8-2.35-8.58 3.93-10.82 2.63-.93 5.18-2.07 7.75-3.16 1.81-.76 3.27-1.71 3.52-2.65-6.12 1.75-12.57 2.06-18.53 4.7z" fill="#6f783e"/><path d="M205.72 68.38h-13.2a6.22 6.22 0 0 1-6.22-6.22v-4.08a6.22 6.22 0 0 1 6.22-6.23h13.2a6.22 6.22 0 0 1 6.22 6.23v4.07a6.22 6.22 0 0 1-6.22 6.23zM169.81 68.38h-13.19a6.23 6.23 0 0 1-6.23-6.22v-4.08a6.23 6.23 0 0 1 6.23-6.23h13.19a6.23 6.23 0 0 1 6.19 6.23v4.08a6.23 6.23 0 0 1-6.19 6.22z" fill="#a43823"/><path d="M212.8 89s-.76-11.42-32.2-10c-31.45-1.45-32.21 10-32.21 10v21.21c3.37 1.82 25.27 3.45 31.35 3.87v.1l.86-.06.85.06v-.1c6.09-.42 28-2 31.35-3.87z" fill="#a43823" stroke="#a43823" stroke-miterlimit="10" stroke-width=".57"/><path d="M210.23 62.86c-.37-3.44-6.6-5.88-6.6-5.88h-12.87a6.54 6.54 0 0 0-4.46 1.77v-.67a6.22 6.22 0 0 1 6.22-6.23h13.09s6.23 2.7 6.33 6.13v4.36a8.58 8.58 0 0 1-1.71 4.55v-4z" fill="#c64327"/><ellipse cx="178.94" cy="120.59" rx="9.57" ry="17.26" fill="#391212"/><path d="M152.67 62.86c-.08-3.44 6.15-5.88 6.15-5.88h12.75a6.54 6.54 0 0 1 4.43 1.77v-.67a6.23 6.23 0 0 0-6.23-6.23h-13s-6.16 2.7-5.77 6.15v4.36a4.77 4.77 0 0 0 1.71 4.55v-4zM180.05 106.4c-13.42 0-25.05-2.51-30.8-6.19v10.38c3.31 1.32 24.8 2.51 30.78 2.81v.07a2.57 2.57 0 0 1 .47 0h.67v-.07c6-.3 27.47-1.49 30.77-2.81V99.45c-5.26 4.09-17.56 6.95-31.89 6.95zM204.28 91.06c7.54 1 12.5-1.64 15.75-5.74-3.2-10.93-5.57-18.92-5.57-18.92L214 66c-.09 6.14-1.35 19.46-9.72 25.06z" fill="#c64327"/><path d="M191.59 154.92c-21-10-53.24-5.45-50.75-12.1 1.58-4.22-5.64-39.55 5.5-60.57-.77-6.37.55-13 1.47-16.59l-1.27.74s-14.3 75.18-16.79 81.82 29.78 2.13 50.75 12.09c20.44-9.71 52.8-4.49 53.23-10.95-17.28 4.76-27.37-1.46-42.14 5.56z" fill="#c64327"/><path d="M158.73 137.85s19.59 9.73 44.11 0L179.1 146s-19.1-6.79-20.37-8.15z" fill="#a43823"/><ellipse cx="180.66" cy="86.73" rx="32.69" ry="20.86" fill="#d85b4a"/><path d="M191.29 67c6.62 3.82 10.77 9.34 10.77 15.47 0 11.53-14.63 20.87-32.69 20.87a49.86 49.86 0 0 1-10.64-1.14 44.36 44.36 0 0 0 21.93 5.39c18.05 0 32.69-9.34 32.69-20.86 0-9.15-9.22-16.91-22.06-19.73z" fill="#a9473a"/><ellipse cx="168.49" cy="78.99" rx="10.6" ry="5.74" fill="#f58677"/><path d="M146.94 72.75l-.29-.07-2.42-.5c-3.08-.63-6.17 1.73-6.9 5.28-3 14.51-10.4 27.27-14.48 41.35-2.95 10.17-3.68 19.83 7.3 22.08l2.41.5h.3z" fill="#fcc184"/><path fill="#843c1c" d="M293.77 256.47H68.44l-3-52.44h231.32l-2.99 52.44z"/><path fill="#6e3318" d="M226.76 204.03h69.73l-2.99 52.44h-66.74v-52.44z"/><path d="M199.25 260.46h-42.44a10.41 10.41 0 0 1-10.41-10.41V211a10.41 10.41 0 0 1 10.41-10.41h42.44A10.41 10.41 0 0 1 209.66 211v39a10.41 10.41 0 0 1-10.41 10.46z" fill="#66615c"/><path d="M194.39 253.05h-32.15a7.86 7.86 0 0 1-7.86-7.86v-29.87a7.86 7.86 0 0 1 7.86-7.87h32.15a7.86 7.86 0 0 1 7.86 7.87v29.87a7.86 7.86 0 0 1-7.86 7.86z" fill="#843c1c"/><circle cx="107.86" cy="229.59" r="3.6" fill="#542815"/><circle cx="131.21" cy="229.59" r="3.6" fill="#542815"/><path d="M182.31 286.11c0-3.47 2-6.27 4.38-6.27h29.5c2.38 0 4.3 2.71 4.3 6.05v12.4c0 3.35-1.92 6.06-4.3 6.06h-33.88v-18.24z" fill="#6e3318"/><path d="M187.14 279.84h10.56v24.51h-14.82v-18.46c0-3.34 1.9-6.05 4.26-6.05z" fill="#562915"/><path d="M206.39 293.15c12.37 0 22.39 5.14 22.39 11.48H184c0-6.34 10-11.48 22.39-11.48z" fill="#6e3318" stroke="#471c10" stroke-miterlimit="10" stroke-width=".57"/><path d="M178.38 229.4a5.41 5.41 0 0 1-5.41 5.41h-17.05a5.42 5.42 0 0 1-5.42-5.41 5.42 5.42 0 0 1 5.42-5.42H173a5.42 5.42 0 0 1 5.41 5.42z" fill="#66615c"/><path d="M27.56 115.29c1.14-1.14 5.15-34.53 55.09-35.11M4.21 103.34s16.05 5.44 17.68 38.6" fill="none" stroke="#4d5525" stroke-miterlimit="10" stroke-width="1.71"/><path d="M214.06 72.75l.29-.07 2.42-.5c3.08-.63 6.17 1.73 6.9 5.28 3 14.51 10.4 27.27 14.48 41.35 2.95 10.17 3.68 19.83-7.3 22.08l-2.41.5h-.3z" fill="#fcc184"/></svg>