<svg data-name="Capa 1" xmlns="http://www.w3.org/2000/svg" viewBox="0 0 1920 1080"><defs><clipPath id="Baño_svg__a"><path fill="none" d="M4.76.5H1926.5v1080.98H4.76z"/></clipPath></defs><g clip-path="url(#Baño_svg__a)"><path fill="none" d="M1728.32-26.52h200.43v150.14h-200.43z"/><path d="M1919 86.16c0 16.54-18 29.94-40.09 29.94h-100.73c-22.15 0-40.1-13.4-40.1-29.94V10.93c0-16.54 18-29.95 40.1-29.95h100.72C1901-19 1919-5.61 1919 10.93z" fill="#d2ebe5"/></g><g clip-path="url(#Baño_svg__a)"><path fill="none" d="M1728.32 124.36h200.43V274.5h-200.43z"/><path d="M1919 237c0 16.54-18 30-40.09 30h-100.73c-22.15 0-40.1-13.41-40.1-30v-75.18c0-16.54 18-29.95 40.1-29.95h100.72c22.14 0 40.09 13.41 40.09 29.95z" fill="#d2ebe5"/></g><g clip-path="url(#Baño_svg__a)"><path fill="none" d="M1728.32 274.5h200.43v150.14h-200.43z"/><path d="M1919 387.18c0 16.54-18 29.95-40.09 29.95h-100.73c-22.15 0-40.1-13.41-40.1-29.95V312c0-16.54 18-29.94 40.1-29.94h100.72C1901 282 1919 295.41 1919 312z" fill="#d2ebe5"/></g><g clip-path="url(#Baño_svg__a)"><path fill="none" d="M1728.32 425.39h200.43v150.14h-200.43z"/><path d="M1919 538.07c0 16.54-18 29.95-40.09 29.95h-100.73c-22.15 0-40.1-13.41-40.1-29.95v-75.23c0-16.54 18-29.95 40.1-29.95h100.72c22.14 0 40.09 13.41 40.09 29.95z" fill="#d2ebe5"/></g><g clip-path="url(#Baño_svg__a)"><path fill="none" d="M1728.32 575.52h200.43v150.14h-200.43z"/><path d="M1919 688.2c0 16.54-18 29.95-40.09 29.95h-100.73c-22.15 0-40.1-13.41-40.1-29.95V613c0-16.54 18-30 40.1-30h100.72c22.14 0 40.09 13.41 40.09 30z" fill="#d2ebe5"/></g><g clip-path="url(#Baño_svg__a)"><path fill="none" d="M1728.32 726.41h200.43v150.14h-200.43z"/><path d="M1919 839.09c0 16.54-18 29.95-40.09 29.95h-100.73c-22.15 0-40.1-13.41-40.1-29.95v-75.23c0-16.54 18-29.94 40.1-29.94h100.72c22.14 0 40.09 13.4 40.09 29.94z" fill="#d2ebe5"/></g><g clip-path="url(#Baño_svg__a)"><path fill="none" d="M1728.32 876.55h200.43v150.14h-200.43z"/><path d="M1919 989.23c0 16.54-18 29.94-40.09 29.94h-100.73c-22.15 0-40.1-13.4-40.1-29.94V914c0-16.54 18-30 40.1-30h100.72c22.14 0 40.09 13.41 40.09 30z" fill="#d2ebe5"/></g><g clip-path="url(#Baño_svg__a)"><path fill="none" d="M1728.32 1027.43h200.43v56.3h-200.43z"/><path d="M1919 1083.73v-18.9c0-16.51-18-29.89-40.09-29.89h-100.73c-22.15 0-40.1 13.38-40.1 29.89v18.9z" fill="#d2ebe5"/></g><g clip-path="url(#Baño_svg__a)"><path fill="none" d="M1527.89-26.52h200.43v150.14h-200.43z"/><path d="M1718.56 86.16c0 16.54-18 29.94-40.1 29.94h-100.72c-22.14 0-40.09-13.4-40.09-29.94V10.93c0-16.54 17.95-29.95 40.09-29.95h100.72c22.15 0 40.1 13.41 40.1 30z" fill="#d2ebe5"/></g><g clip-path="url(#Baño_svg__a)"><path fill="none" d="M1527.89 124.36h200.43V274.5h-200.43z"/><path d="M1718.56 237c0 16.54-18 30-40.1 30h-100.72c-22.14 0-40.09-13.41-40.09-30v-75.18c0-16.54 17.95-29.95 40.09-29.95h100.72c22.15 0 40.1 13.41 40.1 29.95z" fill="#d2ebe5"/></g><g clip-path="url(#Baño_svg__a)"><path fill="none" d="M1527.89 274.5h200.43v150.14h-200.43z"/><path d="M1718.56 387.18c0 16.54-18 29.95-40.1 29.95h-100.72c-22.14 0-40.09-13.41-40.09-29.95V312c0-16.54 17.95-29.94 40.09-29.94h100.72c22.15 0 40.1 13.4 40.1 29.94z" fill="#d2ebe5"/></g><g clip-path="url(#Baño_svg__a)"><path fill="none" d="M1527.89 425.39h200.43v150.14h-200.43z"/><path d="M1718.56 538.07c0 16.54-18 29.95-40.1 29.95h-100.72c-22.14 0-40.09-13.41-40.09-29.95v-75.23c0-16.54 17.95-29.95 40.09-29.95h100.72c22.15 0 40.1 13.41 40.1 29.95z" fill="#d2ebe5"/></g><g clip-path="url(#Baño_svg__a)"><path fill="none" d="M1527.89 575.52h200.43v150.14h-200.43z"/><path d="M1718.56 688.2c0 16.54-18 29.95-40.1 29.95h-100.72c-22.14 0-40.09-13.41-40.09-29.95V613c0-16.54 17.95-30 40.09-30h100.72c22.15 0 40.1 13.41 40.1 30z" fill="#d2ebe5"/></g><g clip-path="url(#Baño_svg__a)"><path fill="none" d="M1527.89 726.41h200.43v150.14h-200.43z"/><path d="M1718.56 839.09c0 16.54-18 29.95-40.1 29.95h-100.72c-22.14 0-40.09-13.41-40.09-29.95v-75.23c0-16.54 17.95-29.94 40.09-29.94h100.72c22.15 0 40.1 13.4 40.1 29.94z" fill="#d2ebe5"/></g><g clip-path="url(#Baño_svg__a)"><path fill="none" d="M1527.89 876.55h200.43v150.14h-200.43z"/><path d="M1718.56 989.23c0 16.54-18 29.94-40.1 29.94h-100.72c-22.14 0-40.09-13.4-40.09-29.94V914c0-16.54 17.95-30 40.09-30h100.72c22.15 0 40.1 13.41 40.1 30z" fill="#d2ebe5"/></g><g clip-path="url(#Baño_svg__a)"><path fill="none" d="M1527.89 1027.43h200.43v56.3h-200.43z"/><path d="M1718.56 1083.73v-18.9c0-16.51-18-29.89-40.1-29.89h-100.72c-22.14 0-40.09 13.38-40.09 29.89v18.9z" fill="#d2ebe5"/></g><g clip-path="url(#Baño_svg__a)"><path fill="none" d="M1326.71-26.52h200.43v150.14h-200.43z"/><path d="M1517.38 86.16c0 16.54-18 29.94-40.1 29.94h-100.72c-22.14 0-40.1-13.4-40.1-29.94V10.93c0-16.54 18-29.95 40.1-29.95h100.72c22.15 0 40.1 13.41 40.1 30v75.18z" fill="#d2ebe5"/></g><g clip-path="url(#Baño_svg__a)"><path fill="none" d="M1326.71 124.36h200.43V274.5h-200.43z"/><path d="M1517.38 237c0 16.54-18 30-40.1 30h-100.72c-22.14 0-40.1-13.41-40.1-30v-75.18c0-16.54 18-29.95 40.1-29.95h100.72c22.15 0 40.1 13.41 40.1 29.95V237z" fill="#d2ebe5"/></g><g clip-path="url(#Baño_svg__a)"><path fill="none" d="M1326.71 274.5h200.43v150.14h-200.43z"/><path d="M1517.38 387.18c0 16.54-18 29.95-40.1 29.95h-100.72c-22.14 0-40.1-13.41-40.1-29.95V312c0-16.54 18-29.94 40.1-29.94h100.72c22.15 0 40.1 13.4 40.1 29.94v75.23z" fill="#d2ebe5"/></g><g clip-path="url(#Baño_svg__a)"><path fill="none" d="M1326.71 425.39h200.43v150.14h-200.43z"/><path d="M1517.38 538.07c0 16.54-18 29.95-40.1 29.95h-100.72c-22.14 0-40.1-13.41-40.1-29.95v-75.23c0-16.54 18-29.95 40.1-29.95h100.72c22.15 0 40.1 13.41 40.1 29.95v75.23z" fill="#d2ebe5"/></g><g clip-path="url(#Baño_svg__a)"><path fill="none" d="M1326.71 575.52h200.43v150.14h-200.43z"/><path d="M1517.38 688.2c0 16.54-18 29.95-40.1 29.95h-100.72c-22.14 0-40.1-13.41-40.1-29.95V613c0-16.54 18-30 40.1-30h100.72c22.15 0 40.1 13.41 40.1 30v75.2z" fill="#d2ebe5"/></g><g clip-path="url(#Baño_svg__a)"><path fill="none" d="M1326.71 726.41h200.43v150.14h-200.43z"/><path d="M1517.38 839.09c0 16.54-18 29.95-40.1 29.95h-100.72c-22.14 0-40.1-13.41-40.1-29.95v-75.23c0-16.54 18-29.94 40.1-29.94h100.72c22.15 0 40.1 13.4 40.1 29.94v75.23z" fill="#d2ebe5"/></g><g clip-path="url(#Baño_svg__a)"><path fill="none" d="M1326.71 876.55h200.43v150.14h-200.43z"/><path d="M1517.38 989.23c0 16.54-18 29.94-40.1 29.94h-100.72c-22.14 0-40.1-13.4-40.1-29.94V914c0-16.54 18-30 40.1-30h100.72c22.15 0 40.1 13.41 40.1 30v75.23z" fill="#d2ebe5"/></g><g clip-path="url(#Baño_svg__a)"><path fill="none" d="M1326.71 1027.43h200.43v56.3h-200.43z"/><path d="M1517.38 1083.73v-18.9c0-16.51-18-29.89-40.1-29.89h-100.72c-22.14 0-40.1 13.38-40.1 29.89v18.9z" fill="#d2ebe5"/></g><g clip-path="url(#Baño_svg__a)"><path fill="none" d="M1126.27-26.52h200.43v150.14h-200.43z"/><path d="M1317 86.16c0 16.54-18 29.94-40.1 29.94h-100.77c-22.15 0-40.1-13.4-40.1-29.94V10.93c0-16.54 18-29.95 40.1-29.95h100.72c22.15 0 40.1 13.41 40.1 30z" fill="#d2ebe5"/></g><g clip-path="url(#Baño_svg__a)"><path fill="none" d="M1126.27 124.36h200.43V274.5h-200.43z"/><path d="M1317 237c0 16.54-18 30-40.1 30h-100.77c-22.15 0-40.1-13.41-40.1-30v-75.18c0-16.54 18-29.95 40.1-29.95h100.72c22.15 0 40.1 13.41 40.1 29.95z" fill="#d2ebe5"/></g><g clip-path="url(#Baño_svg__a)"><path fill="none" d="M1126.27 274.5h200.43v150.14h-200.43z"/><path d="M1317 387.18c0 16.54-18 29.95-40.1 29.95h-100.77c-22.15 0-40.1-13.41-40.1-29.95V312c0-16.54 18-29.94 40.1-29.94h100.72c22.15 0 40.1 13.4 40.1 29.94z" fill="#d2ebe5"/></g><g clip-path="url(#Baño_svg__a)"><path fill="none" d="M1126.27 425.39h200.43v150.14h-200.43z"/><path d="M1317 538.07c0 16.54-18 29.95-40.1 29.95h-100.77c-22.15 0-40.1-13.41-40.1-29.95v-75.23c0-16.54 18-29.95 40.1-29.95h100.72c22.15 0 40.1 13.41 40.1 29.95z" fill="#d2ebe5"/></g><g clip-path="url(#Baño_svg__a)"><path fill="none" d="M1126.27 575.52h200.43v150.14h-200.43z"/><path d="M1317 688.2c0 16.54-18 29.95-40.1 29.95h-100.77c-22.15 0-40.1-13.41-40.1-29.95V613c0-16.54 18-30 40.1-30h100.72c22.15 0 40.1 13.41 40.1 30z" fill="#d2ebe5"/></g><g clip-path="url(#Baño_svg__a)"><path fill="none" d="M1126.27 726.41h200.43v150.14h-200.43z"/><path d="M1317 839.09c0 16.54-18 29.95-40.1 29.95h-100.77c-22.15 0-40.1-13.41-40.1-29.95v-75.23c0-16.54 18-29.94 40.1-29.94h100.72c22.15 0 40.1 13.4 40.1 29.94z" fill="#d2ebe5"/></g><g clip-path="url(#Baño_svg__a)"><path fill="none" d="M1126.27 876.55h200.43v150.14h-200.43z"/><path d="M1317 989.23c0 16.54-18 29.94-40.1 29.94h-100.77c-22.15 0-40.1-13.4-40.1-29.94V914c0-16.54 18-30 40.1-30h100.72c22.15 0 40.1 13.41 40.1 30z" fill="#d2ebe5"/></g><g clip-path="url(#Baño_svg__a)"><path fill="none" d="M1126.27 1027.43h200.43v56.3h-200.43z"/><path d="M1317 1083.73v-18.9c0-16.51-18-29.89-40.1-29.89h-100.77c-22.15 0-40.1 13.38-40.1 29.89v18.9z" fill="#d2ebe5"/></g><g clip-path="url(#Baño_svg__a)"><path fill="none" d="M925.84-26.52h200.43v150.14H925.84z"/><path d="M1116.51 86.16c0 16.54-18 29.94-40.09 29.94H975.7c-22.15 0-40.1-13.4-40.1-29.94V10.93C935.6-5.61 953.55-19 975.7-19h100.72c22.14 0 40.09 13.41 40.09 30z" fill="#d2ebe5"/></g><g clip-path="url(#Baño_svg__a)"><path fill="none" d="M925.84 124.36h200.43V274.5H925.84z"/><path d="M1116.51 237c0 16.54-18 30-40.09 30H975.7c-22.15 0-40.1-13.41-40.1-30v-75.18c0-16.54 17.95-29.95 40.1-29.95h100.72c22.14 0 40.09 13.41 40.09 29.95z" fill="#d2ebe5"/></g><g clip-path="url(#Baño_svg__a)"><path fill="none" d="M925.84 274.5h200.43v150.14H925.84z"/><path d="M1116.51 387.18c0 16.54-18 29.95-40.09 29.95H975.7c-22.15 0-40.1-13.41-40.1-29.95V312c0-16.54 17.95-29.94 40.1-29.94h100.72c22.14 0 40.09 13.4 40.09 29.94z" fill="#d2ebe5"/></g><g clip-path="url(#Baño_svg__a)"><path fill="none" d="M925.84 425.39h200.43v150.14H925.84z"/><path d="M1116.51 538.07c0 16.54-18 29.95-40.09 29.95H975.7c-22.15 0-40.1-13.41-40.1-29.95v-75.23c0-16.54 17.95-29.95 40.1-29.95h100.72c22.14 0 40.09 13.41 40.09 29.95z" fill="#d2ebe5"/></g><g clip-path="url(#Baño_svg__a)"><path fill="none" d="M925.84 575.52h200.43v150.14H925.84z"/><path d="M1116.51 688.2c0 16.54-18 29.95-40.09 29.95H975.7c-22.15 0-40.1-13.41-40.1-29.95V613c0-16.54 17.95-30 40.1-30h100.72c22.14 0 40.09 13.41 40.09 30z" fill="#d2ebe5"/></g><g clip-path="url(#Baño_svg__a)"><path fill="none" d="M925.84 726.41h200.43v150.14H925.84z"/><path d="M1116.51 839.09c0 16.54-18 29.95-40.09 29.95H975.7c-22.15 0-40.1-13.41-40.1-29.95v-75.23c0-16.54 17.95-29.94 40.1-29.94h100.72c22.14 0 40.09 13.4 40.09 29.94z" fill="#d2ebe5"/></g><g clip-path="url(#Baño_svg__a)"><path fill="none" d="M925.84 876.55h200.43v150.14H925.84z"/><path d="M1116.51 989.23c0 16.54-18 29.94-40.09 29.94H975.7c-22.15 0-40.1-13.4-40.1-29.94V914c0-16.54 17.95-30 40.1-30h100.72c22.14 0 40.09 13.41 40.09 30z" fill="#d2ebe5"/></g><g clip-path="url(#Baño_svg__a)"><path fill="none" d="M925.84 1027.43h200.43v56.3H925.84z"/><path d="M1116.51 1083.73v-18.9c0-16.51-18-29.89-40.09-29.89H975.7c-22.15 0-40.1 13.38-40.1 29.89v18.9z" fill="#d2ebe5"/></g><g clip-path="url(#Baño_svg__a)"><path fill="none" d="M724.66-26.52h200.43v150.14H724.66z"/><path d="M915.33 86.16c0 16.54-18 29.94-40.09 29.94H774.51c-22.14 0-40.09-13.4-40.09-29.94V10.93c0-16.54 18-29.95 40.09-29.95h100.73c22.14 0 40.09 13.41 40.09 30z" fill="#d2ebe5"/></g><g clip-path="url(#Baño_svg__a)"><path fill="none" d="M724.66 124.36h200.43V274.5H724.66z"/><path d="M915.33 237c0 16.54-18 30-40.09 30H774.51c-22.14 0-40.09-13.41-40.09-30v-75.18c0-16.54 18-29.95 40.09-29.95h100.73c22.14 0 40.09 13.41 40.09 29.95z" fill="#d2ebe5"/></g><g clip-path="url(#Baño_svg__a)"><path fill="none" d="M724.66 274.5h200.43v150.14H724.66z"/><path d="M915.33 387.18c0 16.54-18 29.95-40.09 29.95H774.51c-22.14 0-40.09-13.41-40.09-29.95V312c0-16.54 18-29.94 40.09-29.94h100.73c22.14 0 40.09 13.4 40.09 29.94z" fill="#d2ebe5"/></g><g clip-path="url(#Baño_svg__a)"><path fill="none" d="M724.66 425.39h200.43v150.14H724.66z"/><path d="M915.33 538.07c0 16.54-18 29.95-40.09 29.95H774.51c-22.14 0-40.09-13.41-40.09-29.95v-75.23c0-16.54 18-29.95 40.09-29.95h100.73c22.14 0 40.09 13.41 40.09 29.95z" fill="#d2ebe5"/></g><g clip-path="url(#Baño_svg__a)"><path fill="none" d="M724.66 575.52h200.43v150.14H724.66z"/><path d="M915.33 688.2c0 16.54-18 29.95-40.09 29.95H774.51c-22.14 0-40.09-13.41-40.09-29.95V613c0-16.54 18-30 40.09-30h100.73c22.14 0 40.09 13.41 40.09 30z" fill="#d2ebe5"/></g><g clip-path="url(#Baño_svg__a)"><path fill="none" d="M724.66 726.41h200.43v150.14H724.66z"/><path d="M915.33 839.09c0 16.54-18 29.95-40.09 29.95H774.51c-22.14 0-40.09-13.41-40.09-29.95v-75.23c0-16.54 18-29.94 40.09-29.94h100.73c22.14 0 40.09 13.4 40.09 29.94z" fill="#d2ebe5"/></g><g clip-path="url(#Baño_svg__a)"><path fill="none" d="M724.66 876.55h200.43v150.14H724.66z"/><path d="M915.33 989.23c0 16.54-18 29.94-40.09 29.94H774.51c-22.14 0-40.09-13.4-40.09-29.94V914c0-16.54 18-30 40.09-30h100.73c22.14 0 40.09 13.41 40.09 30z" fill="#d2ebe5"/></g><g clip-path="url(#Baño_svg__a)"><path fill="none" d="M724.66 1027.43h200.43v56.3H724.66z"/><path d="M915.33 1083.73v-18.9c0-16.51-18-29.89-40.09-29.89H774.51c-22.14 0-40.09 13.38-40.09 29.89v18.9z" fill="#d2ebe5"/></g><g clip-path="url(#Baño_svg__a)"><path fill="none" d="M524.23-26.52h200.43v150.14H524.23z"/><path d="M714.9 86.16c0 16.54-17.95 29.94-40.1 29.94H574.08c-22.14 0-40.09-13.4-40.09-29.94V10.93C534-5.61 551.94-19 574.08-19H674.8c22.15 0 40.1 13.41 40.1 30z" fill="#d2ebe5"/></g><g clip-path="url(#Baño_svg__a)"><path fill="none" d="M524.23 124.36h200.43V274.5H524.23z"/><path d="M714.9 237c0 16.54-17.95 30-40.1 30H574.08c-22.14 0-40.08-13.42-40.08-30v-75.18c0-16.54 18-29.95 40.09-29.95H674.8c22.15 0 40.1 13.41 40.1 29.95z" fill="#d2ebe5"/></g><g clip-path="url(#Baño_svg__a)"><path fill="none" d="M524.23 274.5h200.43v150.14H524.23z"/><path d="M714.9 387.18c0 16.54-17.95 29.95-40.1 29.95H574.08c-22.14 0-40.09-13.41-40.09-29.95V312c0-16.54 18-29.94 40.09-29.94H674.8c22.15 0 40.1 13.4 40.1 29.94z" fill="#d2ebe5"/></g><g clip-path="url(#Baño_svg__a)"><path fill="none" d="M524.23 425.39h200.43v150.14H524.23z"/><path d="M714.9 538.07c0 16.54-17.9 29.93-40.1 29.93H574.08c-22.14 0-40.08-13.39-40.08-29.93v-75.23c0-16.54 18-29.95 40.09-29.95H674.8c22.15 0 40.1 13.41 40.1 29.95z" fill="#d2ebe5"/></g><g clip-path="url(#Baño_svg__a)"><path fill="none" d="M524.23 575.52h200.43v150.14H524.23z"/><path d="M714.9 688.2c0 16.54-17.95 29.95-40.1 29.95H574.08c-22.14 0-40.09-13.41-40.09-29.95V613c0-16.54 18-30 40.09-30H674.8c22.15 0 40.1 13.41 40.1 30z" fill="#d2ebe5"/></g><g clip-path="url(#Baño_svg__a)"><path fill="none" d="M524.23 726.41h200.43v150.14H524.23z"/><path d="M714.9 839.09c0 16.54-17.9 29.91-40.1 29.91H574.08c-22.14 0-40.08-13.37-40.08-29.91v-75.23c0-16.54 18-29.94 40.09-29.94H674.8c22.15 0 40.1 13.4 40.1 29.94z" fill="#d2ebe5"/></g><g clip-path="url(#Baño_svg__a)"><path fill="none" d="M524.23 876.55h200.43v150.14H524.23z"/><path d="M714.9 989.23c0 16.54-17.95 29.94-40.1 29.94H574.08c-22.14 0-40.09-13.4-40.09-29.94V914c0-16.54 18-30 40.09-30H674.8c22.15 0 40.1 13.41 40.1 30z" fill="#d2ebe5"/></g><g clip-path="url(#Baño_svg__a)"><path fill="none" d="M524.23 1027.43h200.43v56.3H524.23z"/><path d="M714.9 1083.73v-18.9c0-16.51-17.95-29.89-40.1-29.89H574.08c-22.14 0-40.09 13.38-40.09 29.89v18.9z" fill="#d2ebe5"/></g><g clip-path="url(#Baño_svg__a)"><path fill="none" d="M323.8-26.52h200.43v150.14H323.8z"/><path d="M514.47 86.16c0 16.54-18 29.94-40.1 29.94H373.65c-22.14 0-40.1-13.4-40.1-29.94V10.93c0-16.54 18-29.95 40.1-29.95h100.72c22.15 0 40.1 13.41 40.1 30v75.18z" fill="#d2ebe5"/></g><g clip-path="url(#Baño_svg__a)"><path fill="none" d="M323.8 124.36h200.43V274.5H323.8z"/><path d="M514.47 237c0 16.54-18 30-40.1 30H373.65c-22.14 0-40.1-13.41-40.1-30v-75.18c0-16.54 18-29.95 40.1-29.95h100.72c22.15 0 40.1 13.41 40.1 29.95V237z" fill="#d2ebe5"/></g><g clip-path="url(#Baño_svg__a)"><path fill="none" d="M323.8 274.5h200.43v150.14H323.8z"/><path d="M514.47 387.18c0 16.54-18 29.95-40.1 29.95H373.65c-22.14 0-40.1-13.41-40.1-29.95V312c0-16.54 18-29.94 40.1-29.94h100.72c22.15 0 40.1 13.4 40.1 29.94v75.23z" fill="#d2ebe5"/></g><g clip-path="url(#Baño_svg__a)"><path fill="none" d="M323.8 425.39h200.43v150.14H323.8z"/><path d="M514.47 538.07c0 16.54-18 29.95-40.1 29.95H373.65c-22.14 0-40.1-13.41-40.1-29.95v-75.23c0-16.54 18-29.95 40.1-29.95h100.72c22.15 0 40.1 13.41 40.1 29.95v75.23z" fill="#d2ebe5"/></g><g clip-path="url(#Baño_svg__a)"><path fill="none" d="M323.8 575.52h200.43v150.14H323.8z"/><path d="M514.47 688.2c0 16.54-18 29.95-40.1 29.95H373.65c-22.14 0-40.1-13.41-40.1-29.95V613c0-16.54 18-30 40.1-30h100.72c22.15 0 40.1 13.41 40.1 30v75.2z" fill="#d2ebe5"/></g><g clip-path="url(#Baño_svg__a)"><path fill="none" d="M323.8 726.41h200.43v150.14H323.8z"/><path d="M514.47 839.09c0 16.54-18 29.95-40.1 29.95H373.65c-22.14 0-40.1-13.41-40.1-29.95v-75.23c0-16.54 18-29.94 40.1-29.94h100.72c22.15 0 40.1 13.4 40.1 29.94v75.23z" fill="#d2ebe5"/></g><g clip-path="url(#Baño_svg__a)"><path fill="none" d="M323.8 876.55h200.43v150.14H323.8z"/><path d="M514.47 989.23c0 16.54-18 29.94-40.1 29.94H373.65c-22.14 0-40.1-13.4-40.1-29.94V914c0-16.54 18-30 40.1-30h100.72c22.15 0 40.1 13.41 40.1 30v75.23z" fill="#d2ebe5"/></g><g clip-path="url(#Baño_svg__a)"><path fill="none" d="M323.8 1027.43h200.43v56.3H323.8z"/><path d="M514.47 1083.73v-18.9c0-16.51-18-29.89-40.1-29.89H373.65c-22.14 0-40.1 13.38-40.1 29.89v18.9z" fill="#d2ebe5"/></g><g clip-path="url(#Baño_svg__a)"><path fill="none" d="M123.36-26.52h200.43v150.14H123.36z"/><path d="M314 86.16c0 16.54-18 29.94-40.1 29.94H173.22c-22.15 0-40.1-13.4-40.1-29.94V10.93c0-16.54 17.95-29.95 40.1-29.95h100.72c22.15 0 40.1 13.41 40.1 30z" fill="#d2ebe5"/></g><g clip-path="url(#Baño_svg__a)"><path fill="none" d="M123.36 124.36h200.43V274.5H123.36z"/><path d="M314 237c0 16.54-18 30-40.1 30H173.22c-22.15 0-40.1-13.41-40.1-30v-75.18c0-16.54 17.95-29.95 40.1-29.95h100.72c22.15 0 40.1 13.41 40.1 29.95z" fill="#d2ebe5"/></g><g clip-path="url(#Baño_svg__a)"><path fill="none" d="M123.36 274.5h200.43v150.14H123.36z"/><path d="M314 387.18c0 16.54-18 29.95-40.1 29.95H173.22c-22.15 0-40.1-13.41-40.1-29.95V312c0-16.54 17.95-29.94 40.1-29.94h100.72c22.15 0 40.1 13.4 40.1 29.94z" fill="#d2ebe5"/></g><g clip-path="url(#Baño_svg__a)"><path fill="none" d="M123.36 425.39h200.43v150.14H123.36z"/><path d="M314 538.07c0 16.54-18 29.95-40.1 29.95H173.22c-22.15 0-40.1-13.41-40.1-29.95v-75.23c0-16.54 17.95-29.95 40.1-29.95h100.72c22.15 0 40.1 13.41 40.1 29.95z" fill="#d2ebe5"/></g><g clip-path="url(#Baño_svg__a)"><path fill="none" d="M123.36 575.52h200.43v150.14H123.36z"/><path d="M314 688.2c0 16.54-18 29.95-40.1 29.95H173.22c-22.15 0-40.1-13.41-40.1-29.95V613c0-16.54 17.95-30 40.1-30h100.72c22.15 0 40.1 13.41 40.1 30z" fill="#d2ebe5"/></g><g clip-path="url(#Baño_svg__a)"><path fill="none" d="M123.36 726.41h200.43v150.14H123.36z"/><path d="M314 839.09c0 16.54-18 29.95-40.1 29.95H173.22c-22.15 0-40.1-13.41-40.1-29.95v-75.23c0-16.54 17.95-29.94 40.1-29.94h100.72c22.15 0 40.1 13.4 40.1 29.94z" fill="#d2ebe5"/></g><g clip-path="url(#Baño_svg__a)"><path fill="none" d="M123.36 876.55h200.43v150.14H123.36z"/><path d="M314 989.23c0 16.54-18 29.94-40.1 29.94H173.22c-22.15 0-40.1-13.4-40.1-29.94V914c0-16.54 17.95-30 40.1-30h100.72c22.15 0 40.1 13.41 40.1 30z" fill="#d2ebe5"/></g><g clip-path="url(#Baño_svg__a)"><path fill="none" d="M123.36 1027.43h200.43v56.3H123.36z"/><path d="M314 1083.73v-18.9c0-16.51-18-29.89-40.1-29.89H173.22c-22.15 0-40.1 13.38-40.1 29.89v18.9z" fill="#d2ebe5"/></g><g clip-path="url(#Baño_svg__a)"><path fill="none" d="M-77.82-26.52h200.43v150.14H-77.82z"/><path d="M112.85 86.16c0 16.54-17.95 29.94-40.09 29.94H-28c-22.15 0-40.1-13.4-40.1-29.94V10.93C-68.06-5.61-50.11-19-28-19H72.76c22.14 0 40.09 13.41 40.09 30v75.16z" fill="#d2ebe5"/></g><g clip-path="url(#Baño_svg__a)"><path fill="none" d="M-77.82 124.36h200.43V274.5H-77.82z"/><path d="M112.85 237c0 16.54-17.95 30-40.09 30H-28c-22.15 0-40.1-13.41-40.1-30v-75.18c0-16.54 18-29.95 40.1-29.95H72.76c22.14 0 40.09 13.41 40.09 29.95V237z" fill="#d2ebe5"/></g><g clip-path="url(#Baño_svg__a)"><path fill="none" d="M-77.82 274.5h200.43v150.14H-77.82z"/><path d="M112.85 387.18c0 16.54-17.95 29.95-40.09 29.95H-28c-22.15 0-40.1-13.41-40.1-29.95V312c0-16.54 18-29.94 40.1-29.94H72.76c22.14 0 40.09 13.4 40.09 29.94v75.23z" fill="#d2ebe5"/></g><g clip-path="url(#Baño_svg__a)"><path fill="none" d="M-77.82 425.39h200.43v150.14H-77.82z"/><path d="M112.85 538.07c0 16.54-17.95 29.95-40.09 29.95H-28c-22.15 0-40.1-13.41-40.1-29.95v-75.23c0-16.54 18-29.95 40.1-29.95H72.76c22.14 0 40.09 13.41 40.09 29.95v75.23z" fill="#d2ebe5"/></g><g clip-path="url(#Baño_svg__a)"><path fill="none" d="M-77.82 575.52h200.43v150.14H-77.82z"/><path d="M112.85 688.2c0 16.54-17.95 29.95-40.09 29.95H-28c-22.15 0-40.1-13.41-40.1-29.95V613c0-16.54 18-30 40.1-30H72.76c22.14 0 40.09 13.41 40.09 30v75.2z" fill="#d2ebe5"/></g><g clip-path="url(#Baño_svg__a)"><path fill="none" d="M-77.82 726.41h200.43v150.14H-77.82z"/><path d="M112.85 839.09c0 16.54-17.95 29.95-40.09 29.95H-28c-22.15 0-40.1-13.41-40.1-29.95v-75.23c0-16.54 18-29.94 40.1-29.94H72.76c22.14 0 40.09 13.4 40.09 29.94v75.23z" fill="#d2ebe5"/></g><g clip-path="url(#Baño_svg__a)"><path fill="none" d="M-77.82 876.55h200.43v150.14H-77.82z"/><path d="M112.85 989.23c0 16.54-17.95 29.94-40.09 29.94H-28c-22.15 0-40.1-13.4-40.1-29.94V914c0-16.54 18-30 40.1-30H72.76c22.14 0 40.09 13.41 40.09 30v75.23z" fill="#d2ebe5"/></g><g clip-path="url(#Baño_svg__a)"><path d="M77.05 1116.57c-26.14-.23-54.3-.8-78.9-10.67a12 12 0 0 1-2.15-1.15h-6a8.17 8.17 0 0 1-6.65-3h-.83c-11.64 0-11.41-18 .19-18h139.9v-56.3H-77.82v150.14h200.43v-61.49c-15.19.18-30.38.6-45.56.47z" fill="none"/><path d="M77.3 1116.57c-26.14-.23-54.3-.8-78.9-10.67a12 12 0 0 1-2.19-1.15h-5.93a8.17 8.17 0 0 1-6.65-3h-.83c-11.64 0-11.41-18 .18-18h129.87v-18.84c0-16.54-17.95-30-40.09-30H-28c-22.15 0-40.1 13.41-40.1 30v75.22c0 16.54 18 30 40.1 30H72.76c22.14 0 40.09-13.41 40.09-30v-23.87c-11.85.18-23.7.41-35.55.31z" fill="#d2ebe5"/></g><path d="M1910.42 594.13c5.36 5.15 8.57 11.7 8.57 18.84v75.15c0 16.59-17.92 30-40 30h-100.6a50.69 50.69 0 0 1-19.16-3.65q-10 5.64-20.33 11.16h187.6V575.52h-2.42q-6.37 9.4-13.66 18.61z" fill="none"/><path d="M1759.23 714.5a50.69 50.69 0 0 0 19.16 3.65H1879c22.11 0 40-13.44 40-30V612.7c0-7.16-3.34-13.72-8.9-18.88-35.88 43.87-87.1 84.51-150.87 120.68z" fill="#acdcd0"/><path d="M1728.32 731.9v144.65h198.18V726.41h-187.64q-5.22 2.76-10.54 5.49zm150.58 2c22.14 0 40.09 13.4 40.09 29.94v75.23c0 16.54-18 29.95-40.09 29.95h-100.72c-22.15 0-40.1-13.41-40.1-29.95v-75.21c0-16.54 18-29.94 40.1-29.94z" fill="none"/><path d="M1738.08 763.86v75.23c0 16.54 18 29.95 40.1 29.95h100.72c22.14 0 40.09-13.41 40.09-29.95v-75.23c0-16.54-18-29.94-40.09-29.94h-100.72c-22.18 0-40.1 13.4-40.1 29.94z" fill="#acdcd0"/><path d="M1728.32 1026.68h198.18V876.55h-198.18zm9.76-112.68c0-16.54 18-30 40.1-30h100.72c22.14 0 40.09 13.41 40.09 30v75.23c0 16.54-18 29.94-40.09 29.94h-100.72c-22.15 0-40.1-13.4-40.1-29.94z" fill="none"/><path d="M1778.18 1019.17h100.72c22.14 0 40.09-13.4 40.09-29.94V914c0-16.54-18-30-40.09-30h-100.72c-22.15 0-40.1 13.41-40.1 30v75.23c0 16.54 17.92 29.94 40.1 29.94z" fill="#acdcd0"/><path d="M1728.32 1026.68v54.8h9.76v-17.12c0-16.66 18-30.17 40.1-30.17h100.72c22.14 0 40.09 13.51 40.09 30.17v17.12h7.51v-54.8z" fill="none"/><path d="M1878.9 1034.19h-100.72c-22.15 0-40.1 13.51-40.1 30.17v17.12H1919v-17.12c0-16.66-18-30.17-40.1-30.17z" fill="#acdcd0"/><path d="M1718.56 763.58V839c0 16.59-17.47 30-39 30h-102.88c-21.56 0-39-13.44-39-30v-31.64q-4.86 1.51-9.76 3v66.17h200.43v-145q-10.39 5.48-21.18 10.8c7.03 5.46 11.39 12.97 11.39 21.25z" fill="none"/><path d="M1577.74 869h100.72c22.15 0 40.1-13.44 40.1-30v-75.42c0-8.28-4.48-15.79-11.73-21.22-50.63 24.32-107.38 46.14-169.18 65V839c0 16.6 17.95 30 40.09 30z" fill="#acdcd0"/><path d="M1527.89 876.55v150.13h200.43V876.55zm190.67 112.68c0 16.54-18 29.94-40.1 29.94h-100.72c-22.14 0-40.09-13.4-40.09-29.94V914c0-16.54 17.95-30 40.09-30h100.72c22.15 0 40.1 13.41 40.1 30z" fill="none"/><path d="M1678.46 884.05h-100.72c-22.14 0-40.09 13.41-40.09 30v75.23c0 16.54 17.95 29.94 40.09 29.94h100.72c22.15 0 40.1-13.4 40.1-29.94V914c0-16.54-17.95-29.95-40.1-29.95z" fill="#acdcd0"/><path d="M1527.89 1026.68v54.8h9.76v-17.12c0-16.66 17.95-30.17 40.09-30.17h100.72c22.15 0 40.1 13.51 40.1 30.17v17.12h9.76v-54.8z" fill="none"/><path d="M1678.46 1034.19h-100.72c-22.14 0-40.09 13.51-40.09 30.17v17.12h180.91v-17.12c0-16.66-17.95-30.17-40.1-30.17z" fill="#acdcd0"/><path d="M1517.38 813.32V839c0 16.59-17.93 30-40 30h-100.62c-14.91 0-27.9-6.11-34.8-15.17q-7.59 1.35-15.25 2.65v20h200.43v-66.1z" fill="none"/><path d="M1376.77 869h100.57c22.11 0 40-13.44 40-30v-25.68A1703.78 1703.78 0 0 1 1342 853.87c6.87 9.06 19.87 15.13 34.77 15.13z" fill="#acdcd0"/><path d="M1326.71 876.55v150.13h200.43V876.55zm190.67 112.68c0 16.54-18 29.94-40.1 29.94h-100.72c-22.14 0-40.1-13.4-40.1-29.94V914c0-16.54 18-30 40.1-30h100.72c22.15 0 40.1 13.41 40.1 30v75.23z" fill="none"/><path d="M1477.28 884.05h-100.72c-22.14 0-40.1 13.41-40.1 30v75.23c0 16.54 18 29.94 40.1 29.94h100.72c22.15 0 40.1-13.4 40.1-29.94V914c0-16.54-17.95-29.95-40.1-29.95z" fill="#acdcd0"/><path d="M1326.71 1026.68v54.8h9.75v-17.12c0-16.66 18-30.17 40.1-30.17h100.72c22.15 0 40.1 13.51 40.1 30.17v17.12h9.76v-54.8z" fill="none"/><path d="M1477.28 1034.19h-100.72c-22.14 0-40.1 13.51-40.1 30.17v17.12h180.92v-17.12c0-16.66-17.95-30.17-40.1-30.17z" fill="#acdcd0"/><path d="M1305.23 860c-7.26 5.56-17.38 9-28.57 9h-34.93q-34.05 4.28-69.06 7.51h154v-20q-10.67 1.81-21.44 3.49z" fill="none"/><path d="M1276.82 869c11.2 0 21.32-3.45 28.58-9q-31.29 5-63.51 9z" fill="#acdcd0"/><path d="M1172.85 876.54q-23.1 2.13-46.58 3.79v146.35h200.44V876.55h-153.86zM1317 989.23c0 16.54-18 29.94-40.1 29.94h-100.77c-22.15 0-40.1-13.4-40.1-29.94V914c0-16.54 18-30 40.1-30h100.72c22.15 0 40.1 13.41 40.1 30z" fill="none"/><path d="M1276.85 884.05h-100.72c-22.15 0-40.1 13.41-40.1 30v75.23c0 16.54 18 29.94 40.1 29.94h100.72c22.15 0 40.1-13.4 40.1-29.94V914c.05-16.54-17.95-29.95-40.1-29.95z" fill="#acdcd0"/><path d="M1126.27 1026.68v54.8h9.73v-17.12c0-16.66 18-30.17 40.1-30.17h100.72c22.15 0 40.1 13.51 40.1 30.17v17.12h9.76v-54.8z" fill="none"/><path d="M1276.85 1034.19h-100.72c-22.15 0-40.1 13.51-40.1 30.17v17.12H1317v-17.12c0-16.66-18-30.17-40.15-30.17z" fill="#acdcd0"/><path d="M1059.64 884.05h16.94c22.06 0 39.93 13.41 39.93 30v75.23c0 16.54-17.87 29.94-39.93 29.94H974.64c-21.56 0-39-13.44-39-30v-75.5c0-12.89 10.55-23.87 25.37-28.13q-17.64 0-35.13-.34v141.43h200.43V880.35q-33.01 2.33-66.67 3.7z" fill="none"/><path d="M961.66 885.94c-15.22 4.25-26.06 15.21-26.06 28.06v75.23c0 16.54 17.95 29.94 40.1 29.94h100.72c22.14 0 40.09-13.4 40.09-29.94V914c0-16.54-18-30-40.09-30h-16.69q-46.35 1.89-93.86 1.9z" fill="#acdcd0"/><path d="M925.84 1026.68v54.8h9.76v-17.12c0-16.66 17.95-30.17 40.1-30.17h100.72c22.14 0 40.09 13.51 40.09 30.17v17.12h9.76v-54.8z" fill="none"/><path d="M1076.42 1034.19H975.7c-22.15 0-40.1 13.51-40.1 30.17v17.12h180.91v-17.12c.01-16.66-17.95-30.17-40.09-30.17z" fill="#acdcd0"/><path d="M724.66 876.55h33.83q-17-1.57-33.83-3.39zM882.46 884.07c18.63 2.27 32.87 14.68 32.87 29.65v75.43c0 16.58-18 30-40.09 30H774.51c-22.14 0-40.09-13.44-40.09-30v-75.07c0-16.58 17.92-30 40-30h97.13q-57.68-2.34-113.34-7.5h-33.55v150.13h200.43V885.25q-21.43-.39-42.63-1.18z" fill="none"/><path d="M774.51 884.05c-22.14 0-40.09 13.41-40.09 30v75.23c0 16.54 18 29.94 40.09 29.94h100.73c22.14 0 40.09-13.4 40.09-29.94V914c0-14.93-14.63-27.31-33.77-29.57l-9.78-.38z" fill="#acdcd0"/><path d="M724.66 1026.68v54.8h9.76v-17.12c0-16.66 18-30.17 40.09-30.17h100.73c22.14 0 40.09 13.51 40.09 30.17v17.12h9.76v-54.8z" fill="none"/><path d="M875.24 1034.19H774.51c-22.14 0-40.09 13.51-40.09 30.17v17.12h180.91v-17.12c0-16.66-17.95-30.17-40.09-30.17z" fill="#acdcd0"/><path d="M683.57 868.28a52.73 52.73 0 0 1-8.9.76H574.22c-20.17 0-36.84-11.21-39.59-25.78q-5.22-1.1-10.4-2.22v35.51h200.43v-3.39q-20.71-2.25-41.09-4.88z" fill="none"/><path d="M574.27 869h100.57a52.93 52.93 0 0 0 8.91-.76c-51.55-6.62-101.37-15-149.12-25 2.76 14.59 19.45 25.76 39.64 25.76z" fill="#acdcd0"/><path d="M524.23 876.55v150.13h200.43V876.55zM714.9 989.23c0 16.54-17.95 29.94-40.1 29.94H574.08c-22.14 0-40.09-13.4-40.09-29.94V914c0-16.54 18-30 40.09-30H674.8c22.15 0 40.1 13.41 40.1 30z" fill="none"/><path d="M674.8 884.05H574.08c-22.14 0-40.09 13.41-40.09 30v75.23c0 16.54 18 29.94 40.09 29.94H674.8c22.15 0 40.1-13.4 40.1-29.94V914c0-16.54-17.9-29.95-40.1-29.95z" fill="#acdcd0"/><path d="M524.23 1026.68v54.8H534v-17.12c0-16.66 18-30.17 40.09-30.17H674.8c22.15 0 40.1 13.51 40.1 30.17v17.12h9.76v-54.8z" fill="none"/><path d="M674.8 1034.19H574.08c-22.14 0-40.09 13.51-40.09 30.17v17.12H714.9v-17.12c0-16.66-17.9-30.17-40.1-30.17z" fill="#acdcd0"/><path d="M514.47 838.85v.15c0 16.59-17.48 30-39 30H372.59c-21.56 0-39-13.44-39-30v-51.64q-4.91-1.79-9.75-3.62v92.81h200.39V841q-4.9-1-9.76-2.15z" fill="none"/><path d="M333.55 839c0 16.59 18 30 40.1 30h100.72c22.15 0 40.1-13.44 40.1-30v-.16c-64.62-14.32-125.24-31.62-180.92-51.49V839z" fill="#acdcd0"/><path d="M323.8 876.55v150.13h200.43V876.55zm190.67 112.68c0 16.54-18 29.94-40.1 29.94H373.65c-22.14 0-40.1-13.4-40.1-29.94V914c0-16.54 18-30 40.1-30h100.72c22.15 0 40.1 13.41 40.1 30v75.23z" fill="none"/><path d="M474.37 884.05H373.65c-22.14 0-40.1 13.41-40.1 30v75.23c0 16.54 18 29.94 40.1 29.94h100.72c22.15 0 40.1-13.4 40.1-29.94V914c0-16.54-17.95-29.95-40.1-29.95z" fill="#acdcd0"/><path d="M323.8 1026.68v54.8h9.75v-17.12c0-16.66 18-30.17 40.1-30.17h100.72c22.15 0 40.1 13.51 40.1 30.17v17.12h9.76v-54.8z" fill="none"/><path d="M474.37 1034.19H373.65c-22.14 0-40.1 13.51-40.1 30.17v17.12h180.92v-17.12c0-16.66-17.95-30.17-40.1-30.17z" fill="#acdcd0"/><path d="M178.7 718.15h-6c-21 0-38.27-12.17-39.9-27.63q-5.14-3.36-10.15-6.77v41.91h69.91q-7.04-3.72-13.86-7.51z" fill="none"/><path d="M172.94 718.15h6q-24.11-13.39-45.94-27.63c1.67 15.48 18.91 27.63 39.94 27.63z" fill="#acdcd0"/><path d="M324.06 783.46q-5-1.85-10-3.73v59.18c0 16.64-18 30.13-40.1 30.13H173.22c-22.15 0-40.1-13.49-40.1-30.13v-75.72c0-16.58 17.48-30 39-30h33.48q-7.12-3.72-14.08-7.51h-68.16v150.87H323.8v-93.09z" fill="none"/><path d="M173.22 733.92c-22.15 0-40.1 13.4-40.1 29.94v75.23c0 16.54 17.95 29.95 40.1 29.95h100.72c22.15 0 40.1-13.41 40.1-29.95v-58.83a1065.64 1065.64 0 0 1-106.46-46.34z" fill="#acdcd0"/><path d="M123.36 876.55v150.13H323.8V876.55zM314 989.23c0 16.54-18 29.94-40.1 29.94H173.22c-22.15 0-40.1-13.4-40.1-29.94V914c0-16.54 17.95-30 40.1-30h100.72c22.15 0 40.1 13.41 40.1 30z" fill="none"/><path d="M273.94 884.05H173.22c-22.15 0-40.1 13.41-40.1 30v75.23c0 16.54 17.95 29.94 40.1 29.94h100.72c22.15 0 40.1-13.4 40.1-29.94V914c-.04-16.54-17.95-29.95-40.1-29.95z" fill="#acdcd0"/><path d="M123.36 1026.68v54.8h9.76v-17.12c0-16.66 17.95-30.17 40.1-30.17h100.72c22.15 0 40.1 13.51 40.1 30.17v17.12h9.76v-54.8z" fill="none"/><path d="M273.94 1034.19H173.22c-22.15 0-40.1 13.51-40.1 30.17v17.12H314v-17.12c0-16.66-17.92-30.17-40.06-30.17z" fill="#acdcd0"/><path d="M4.76 571.89v3.63h2.51q-1.27-1.8-2.51-3.63zM122.61 683.76q-5-3.45-9.76-7v11.31c0 16.59-17.94 30-40.07 30h-68v7.51h117.83zM7.27 575.52H4.76V583h8q-2.84-3.71-5.49-7.48z" fill="none"/><path d="M112.85 688.2v-11.27C71.49 647.73 37.71 616.25 12.74 583h-8v135.15h68c22.17 0 40.11-13.41 40.11-29.95z" fill="#acdcd0"/><path d="M122.61 726.41H4.76v7.51h68c22.14 0 40.08 13.4 40.08 29.94v75.23c0 16.54-17.94 29.95-40.08 29.95h-68v7.51h117.85z" fill="none"/><path d="M112.85 839.09v-75.23c0-16.54-17.94-29.94-40.08-29.94h-68V869h68c22.14 0 40.08-13.37 40.08-29.91z" fill="#acdcd0"/><path d="M122.61 876.55H4.76v7.5h68c22.14 0 40.08 13.41 40.08 30v75.23c0 16.54-17.94 29.94-40.08 29.94h-68v7.51h117.85z" fill="none"/><path d="M112.85 989.23V914c0-16.54-17.94-30-40.08-30h-68v135.12h68c22.14.05 40.08-13.35 40.08-29.89z" fill="#acdcd0"/><path d="M4.76 1026.68v7.51h68c22.14 0 40.08 13.51 40.08 30.17v17.12h9.76v-54.8z" fill="none"/><path d="M72.77 1034.19h-68v47.29h108.08v-17.12c0-16.66-17.94-30.17-40.08-30.17z" fill="#acdcd0"/><path d="M1728.32 731.17q5.33-2.74 10.56-5.51h-10.56zM1126.27 880.34q23.51-1.67 46.63-3.79h-46.63zM961.58 886h4.2q47.4 0 93.72-1.91h-83.91a51.65 51.65 0 0 0-14.01 1.91zM872.05 884.05l9.77.38a52.45 52.45 0 0 0-6.32-.38z" fill="#fff"/><path d="M647.2 1013.92h1.45l5 69.81h620.67l5-69.81h1.7l3.37-63.81h39.29v-42c0-15-14.09-27.08-31.47-27.08H639.78c-17.38 0-31.48 12.12-31.48 27.08v42h35.53z" fill="#9ac4ba"/><path fill="#fbfcfc" d="M1257.13 1083.73l11.12-179.41H653.61l11.12 179.41h592.4z"/><path fill="#d9e8f1" d="M1263.23 1002.66l4.45-98.34H654.17l4.46 98.34h604.6z"/><path d="M1304.19 931.34V884.8a30 30 0 0 0-30-30H651.84a30 30 0 0 0-30 30v46.54z" fill="#fbfcfc"/><path d="M1380 778.21h11.26V836h9c.08.45.17.91.25 1.36v.27c.3 1.7.59 3.41.87 5.12 2 12.62 3.42 25.38 4.29 38a182.91 182.91 0 0 1-2.33 44.18c-.19 1.11-.38 2.22-.59 3.32v.29c-.18 1-.37 1.95-.57 2.92 0 .25-.1.51-.15.77-.17.81-.33 1.63-.51 2.44-.06.3-.13.6-.19.9-.17.78-.34 1.56-.52 2.34-.06.31-.13.61-.2.91-.18.79-.36 1.58-.55 2.36-.07.29-.13.58-.2.87-.2.83-.4 1.66-.61 2.49-.06.24-.11.48-.17.72-.24 1-.48 1.91-.73 2.87a3 3 0 0 1-.08.32c-.85 3.32-1.74 6.65-2.67 10l-.14.5c-.26.94-.52 1.89-.79 2.85l-.19.67c-.26.91-.51 1.83-.77 2.75-.07.22-.13.45-.2.68-.27 1-.55 2-.83 2.95 0 .12-.07.24-.1.35-.39 1.35-.77 2.71-1.17 4.08a2.81 2.81 0 0 1-.08.31c-.26.92-.52 1.84-.79 2.76-.33 1.15-.65 2.31-1 3.47-.59 2.08-1.15 4.17-1.71 6.25-.11.44-.23.87-.34 1.31q-.81 3.13-1.58 6.29c0 .14-.06.28-.1.42-.51 2.16-1 4.33-1.49 6.49a3.59 3.59 0 0 1-.08.35c-.5 2.28-1 4.55-1.43 6.83v.09a382.86 382.86 0 0 0-7.28 75.82h197.29a377.26 377.26 0 0 1 7.15-61.92q.69-3.43 1.45-6.87l.06-.25c.48-2.21 1-4.41 1.53-6.61 0-.11.05-.22.07-.32q.78-3.18 1.6-6.34l.33-1.24q.84-3.13 1.72-6.27c.34-1.18.67-2.35 1-3.52.13-.47.27-.93.4-1.4l.78-2.71c.23-.82.47-1.65.71-2.47.12-.41.23-.83.36-1.25.21-.75.42-1.49.64-2.24l.33-1.18c.22-.75.43-1.5.64-2.25.1-.37.21-.73.31-1.09l.66-2.36c.09-.32.17-.63.26-.94.27-1 .52-1.89.78-2.84 0-.13.08-.27.11-.41.61-2.21 1.19-4.41 1.76-6.59 0-.18.09-.36.13-.53.23-.89.46-1.78.68-2.66l.21-.85.57-2.36c.08-.31.15-.63.23-.94.18-.76.36-1.53.53-2.29.07-.31.15-.63.22-.95l.51-2.31c.06-.3.13-.6.19-.9.18-.82.35-1.64.52-2.46l.15-.74c.2-1 .4-2 .59-3v-.17a183.17 183.17 0 0 0 2.93-47.39 409.32 409.32 0 0 0-5.22-43.31v-.12q-.91-5.14-2-10.25c-.07-.34-.14-.68-.22-1-.31-1.46-.63-2.92-1-4.37h5.51v-57.42l27.78 4.17v-47.33l-27.78 4.16v-37.19h3.82c17 0 30.71-14.09 30.71-31.46v-9.83h-277v9.9a33.16 33.16 0 0 0 .41 5.12c-12 8.48-19.92 23.59-19.92 40.8v13.34c-.02 26.42 18.8 47.95 41.98 47.95zm-19.51-61.31a19.36 19.36 0 0 1 12.69-18.25 29.25 29.25 0 0 0 14.3 3.74h3.78v47.29h-11.78a19.19 19.19 0 0 1-19-19.34V716.9z" fill="#9ac4ba"/><path fill="#9ca4a5" d="M1638.24 767.89l-57.8-8.32v-28.61l57.8-8.32v45.25z"/><path d="M1536.15 736.92h-146.42a18.58 18.58 0 0 1-18.73-18.38v-12.78a18.58 18.58 0 0 1 18.73-18.39h146.42V659.6h-146.44c-22.74 0-41.23 20.55-41.23 45.8v12.74c0 25.26 18.49 45.8 41.23 45.8h146.44z" fill="#5a6766"/><path d="M1614.52 866.7a262.34 262.34 0 0 0-9-48.71l-197.74-13.48a261.57 261.57 0 0 1 9 48.7c2.86 29.88-5.71 52.28-15.19 80.49-12.82 38.15-15.9 77.73-10.66 117.43l2.42.17a6.67 6.67 0 0 1-.57-3.21 7.3 7.3 0 0 1 3.16-5.3 9.94 9.94 0 0 1 6.44-1.71l1.13.08c4.89.33 8.7 4.23 8.36 8.39a6.72 6.72 0 0 1-1 3l5.59.38c.66-3.55 3.81-6.71 9.21-6.34 4.13.28 6.63 2.41 7.61 5 1-3.58 5-6.08 9.37-5.77l2.25.15a9.41 9.41 0 0 1 7 3.74 7.46 7.46 0 0 1 1.19-1 10 10 0 0 1 6.44-1.7l1.13.07a9.08 9.08 0 0 1 8 5.64 7.66 7.66 0 0 1 2.42-2.79 10 10 0 0 1 6.45-1.7l1.12.08c4.9.33 8.71 4.23 8.37 8.39a6.37 6.37 0 0 1-.19 1.06h.26a7.41 7.41 0 0 1 3.09-4.49 9.81 9.81 0 0 1 4.46-1.7 24.94 24.94 0 0 1 3 0c4.56.31 8.17 3.71 8.37 7.53h.06a2.72 2.72 0 0 1 0-.28 7.29 7.29 0 0 1 3.15-5.3 10 10 0 0 1 6.45-1.7l1.12.08c4.9.33 8.7 4.23 8.37 8.39a.36.36 0 0 0 0 .11l3.74.25a6.36 6.36 0 0 1-.22-2.22 7.32 7.32 0 0 1 3.16-5.3 10 10 0 0 1 6.45-1.7l1.12.07c4.27.29 7.7 3.29 8.29 6.81a7.94 7.94 0 0 1 2-2 10 10 0 0 1 6.45-1.7l1.12.07c4.9.34 8.7 4.23 8.37 8.39a.5.5 0 0 1 0 .12l3 .2c-.19-.27-.37-.54-.52-.8a7.84 7.84 0 0 1-1-4.41 7.15 7.15 0 0 1 3.15-5.3 9.91 9.91 0 0 1 6.45-1.71 10.19 10.19 0 0 1 4.91 1.71c3.5 1.29 5.9 4.46 5.64 7.8a6.85 6.85 0 0 1-1.65 3.87l3.14.21c-5.25-39.7-2.17-79.28 10.66-117.44 9.39-28.32 17.96-50.74 15.1-80.62z" fill="#fff"/><path d="M1609.9 835.7c-1.24-6-2.7-11.87-4.41-17.71l-197.74-13.48c1.71 5.83 3.17 11.75 4.41 17.71zM1592.87 969.94q2.67-11.46 6.46-22.76c5.35-15.9 10.4-30 13.28-44.56l-197.74-13.48c-2.88 14.59-7.93 28.65-13.28 44.56q-3.79 11.29-6.46 22.75z" fill="#eef3f7"/><path d="M1583.68 873.47l17.75 1.27M1541.38 870.54q10.18.69 20.37 1.4M1497.48 867.6l21.65 1.44M1456.75 865q9.3.59 18.57 1.2M1416.66 871.74c6.15.18 12.14.58 17.84 1.22" fill="none" stroke="#a1afb7" stroke-miterlimit="10" stroke-width="2.252"/><path fill="#fff" d="M1401.77 672.36h209.44v146.38h-209.44z"/><path fill="#f7f7f7" d="M1401.77 757.94h209.44v60.05h-209.44z"/><path d="M1368 652.84v9a30 30 0 0 0 30 30h217a30 30 0 0 0 30-30v-9z" fill="#bababa"/><path d="M1563 652.84l-39 39h91a30 30 0 0 0 30-30v-9z" fill="#9ca4a5"/><path d="M1535.78 652.84h-98.33q-19.32 19.5-38.62 39h97.91z" fill="#dedddd"/><path d="M564.76 1083.73V792c22.08-.88 39.79-21 39.79-45.67V733.1c0-24.8-18.46-45-41.15-45h-6.89v-1c0-16.31-14.49-17-32.37-17H249.65c-17.92 0-32.45 13.43-32.45 30v383.61zm0-368.29A18.51 18.51 0 0 1 582 733.66v12.71a18.51 18.51 0 0 1-17.27 18.22z" fill="#9ac4ba"/><path d="M559.51 1083.73V697.87c0-16.58-14.57-30-32.54-30H252c-18 0-32.54 13.43-32.54 30v385.86z" fill="#db7fb4"/><path d="M246.48 747.43H558a18.59 18.59 0 0 0 18.75-18.38v-12.78A18.59 18.59 0 0 0 558 697.88H246.48v-27H558c22.75 0 41.26 20.55 41.26 45.8v12.72c0 25.26-18.51 45.8-41.26 45.8H246.48z" fill="#5a6766"/><path d="M551.25 1083.73V670.1c0-16.58-14.54-17.26-32.47-17.26H244.41c-17.93 0-32.47 13.44-32.47 30v400.88z" fill="#e2aed0"/><path d="M474.13 1083.73l-32.79-351s-17.08 211.79-26.64 351zM328.17 1083.73l-8.44-163.37s-9.26 88-17.61 163.37z" fill="#e09ac4"/><path d="M291.84 1083.73l1.23-4.58a2 2 0 0 0-.9-2.29 2 2 0 0 0-2.83 1.19l-1.51 5.68zM271.92 1083.73h4l-1.49-5.59a2 2 0 0 0-2.05-1.52 1.93 1.93 0 0 0-1.72 2.43zM284.76 1083.73v-5.32a2 2 0 0 0-1.43-2 1.89 1.89 0 0 0-2.32 1.89v5.38zM481.39 931.2a1.93 1.93 0 0 0 1.37 2.37 1.93 1.93 0 0 0 2.37-1.37l3.16-11.8a2 2 0 0 0-1.38-2.38 1.94 1.94 0 0 0-2.37 1.37zM472.76 931.2a1.93 1.93 0 0 1-1.37 2.37 1.94 1.94 0 0 1-2.39-1.37l-3.15-11.8a2 2 0 0 1 1.38-2.38 1.94 1.94 0 0 1 2.37 1.37zM479.94 931.71a1.88 1.88 0 0 1-1.88 1.87 1.88 1.88 0 0 1-1.88-1.87v-11.82a1.88 1.88 0 0 1 1.88-1.88 1.88 1.88 0 0 1 1.88 1.88zM376.28 983.75a2 2 0 0 0 1.37 2.38 2 2 0 0 0 2.38-1.38l3.15-11.8a1.94 1.94 0 0 0-1.37-2.38 2 2 0 0 0-2.38 1.38zM367.66 983.75a2 2 0 0 1-1.38 2.38 1.94 1.94 0 0 1-2.37-1.38L360.76 973a1.94 1.94 0 0 1 1.37-2.38 2 2 0 0 1 2.38 1.38zM374.84 984.26a1.88 1.88 0 0 1-1.88 1.88 1.88 1.88 0 0 1-1.87-1.88v-11.82a1.88 1.88 0 0 1 1.87-1.88 1.88 1.88 0 0 1 1.88 1.88zM331.24 848.61a1.94 1.94 0 0 0 1.37 2.38 1.93 1.93 0 0 0 2.37-1.37l3.16-11.81a1.94 1.94 0 0 0-1.38-2.37 1.93 1.93 0 0 0-2.37 1.37zM322.61 848.61a1.94 1.94 0 0 1-1.37 2.38 1.94 1.94 0 0 1-2.38-1.37l-3.15-11.81a1.94 1.94 0 0 1 1.38-2.37 1.94 1.94 0 0 1 2.37 1.37zM329.8 849.12a1.88 1.88 0 0 1-1.88 1.88 1.88 1.88 0 0 1-1.87-1.88v-11.81a1.88 1.88 0 0 1 1.87-1.88 1.88 1.88 0 0 1 1.88 1.88zM526.43 796.06a2 2 0 0 0 1.38 2.38 1.94 1.94 0 0 0 2.37-1.38l3.15-11.8a1.92 1.92 0 0 0-1.37-2.37 1.94 1.94 0 0 0-2.38 1.37zM517.81 796.06a1.94 1.94 0 0 1-1.37 2.38 2 2 0 0 1-2.38-1.38l-3.15-11.8a1.93 1.93 0 0 1 1.37-2.37 1.94 1.94 0 0 1 2.38 1.37zM525 796.57a1.88 1.88 0 0 1-1.88 1.88 1.88 1.88 0 0 1-1.88-1.88v-11.82a1.88 1.88 0 0 1 1.88-1.88 1.88 1.88 0 0 1 1.88 1.88zM436.34 720.24a1.94 1.94 0 0 0 1.38 2.37 1.94 1.94 0 0 0 2.37-1.37l3.15-11.81a1.93 1.93 0 0 0-1.37-2.37 1.94 1.94 0 0 0-2.38 1.37zM427.72 720.24a1.94 1.94 0 0 1-1.38 2.37 1.93 1.93 0 0 1-2.37-1.37l-3.15-11.81a1.93 1.93 0 0 1 1.37-2.37 1.94 1.94 0 0 1 2.38 1.37zM434.9 720.74a1.88 1.88 0 0 1-1.88 1.88 1.88 1.88 0 0 1-1.88-1.88v-11.81a1.88 1.88 0 0 1 1.88-1.88 1.88 1.88 0 0 1 1.88 1.88zM406.31 682.7a1.94 1.94 0 0 0 1.37 2.37 1.94 1.94 0 0 0 2.38-1.37l3.15-11.8a1.94 1.94 0 0 0-1.37-2.38 2 2 0 0 0-2.38 1.38zM397.69 682.7a1.94 1.94 0 0 1-1.38 2.37 1.93 1.93 0 0 1-2.37-1.37l-3.15-11.8a1.94 1.94 0 0 1 1.37-2.38 2 2 0 0 1 2.38 1.38zM404.87 683.2a1.88 1.88 0 0 1-1.88 1.88 1.87 1.87 0 0 1-1.87-1.88v-11.81a1.87 1.87 0 0 1 1.87-1.88 1.88 1.88 0 0 1 1.88 1.88zM301.21 705.22a1.94 1.94 0 0 0 1.37 2.38 1.94 1.94 0 0 0 2.37-1.38l3.16-11.8a2 2 0 0 0-1.38-2.38 1.94 1.94 0 0 0-2.37 1.38zM292.58 705.22a1.94 1.94 0 0 1-1.37 2.38 2 2 0 0 1-2.38-1.38l-3.15-11.8a1.94 1.94 0 0 1 1.38-2.38 1.94 1.94 0 0 1 2.37 1.38zM299.77 705.73a1.88 1.88 0 0 1-1.87 1.88 1.88 1.88 0 0 1-1.88-1.88v-11.82a1.88 1.88 0 0 1 1.88-1.91 1.88 1.88 0 0 1 1.87 1.88z" fill="#dd77af"/><path d="M813.77 300.84a24.55 24.55 0 0 0-3.16-12.08h.08a2.19 2.19 0 0 0 2-1.22 2.27 2.27 0 0 0-2-3.28h-3.38c-.48-.53-1-1-1.51-1.5h4.77a2.33 2.33 0 0 0 2.33-1.85 2.25 2.25 0 0 0-2.21-2.66h-6c.53-.74 1.05-1.49 1.54-2.25h3.93a2.33 2.33 0 0 0 2.34-1.84 2.25 2.25 0 0 0-2.22-2.66h-1.89a46.4 46.4 0 0 0 5-20.94c0-22.45-16.12-41.47-38.4-48v-9.16h3.76v-16.23c0-6.78-4.3-12.27-9.61-12.27H747c-5.31 0-9.61 5.49-9.61 12.27v16.26h3.75v9.16c-22.27 6.5-38.39 25.52-38.39 48a46.4 46.4 0 0 0 5 20.94H704a2.34 2.34 0 0 0-2.34 1.84 2.26 2.26 0 0 0 2.22 2.66h6.4c.49.76 1 1.51 1.54 2.25h-8a2.33 2.33 0 0 0-2.33 1.85 2.25 2.25 0 0 0 2.21 2.66h6.93c-.52.48-1 1-1.51 1.5h-5.32a2.3 2.3 0 0 0-2.22 1.53 2.26 2.26 0 0 0 2.14 3h2.12a24.55 24.55 0 0 0-3.16 12.08l-5.31 106.73c0 13.57 12.11 24.57 27 24.57H792c14.94 0 27.05-11 27.05-24.57zM1305.97 505.71l-604.83 1.55-41.29-74.37 604.84-1.55 41.28 74.37z" fill="#9ac4ba"/><path d="M1166 441.9l3.44 75.7c0 10.84 4.39 19.64 9.82 19.64h1c5.42 0 9.82-8.8 9.82-19.64l3.44-75.7z" fill="#fbfcfc"/><circle cx="1179.75" cy="468.32" r="8.91" fill="#9ac4ba"/><path d="M738.07 441.9l3.44 75.7c0 10.84 4.39 19.64 9.82 19.64h1c5.42 0 9.82-8.8 9.82-19.64l3.44-75.7z" fill="#fbfcfc"/><circle cx="751.82" cy="468.32" r="8.91" fill="#9ac4ba"/><path fill="#438389" d="M659.35 409.62h612.56v40.54H659.35z"/><path fill="#2a6568" d="M659.35 429.89h612.56v20.27H659.35z"/><path d="M783.37 278.24a24.68 24.68 0 0 0-10.87-20.49 47.66 47.66 0 0 0 10.87-30.14c0-22.57-16.14-41.69-38.44-48.23v-16.73h-33.78v16.73c-22.3 6.54-38.45 25.66-38.45 48.23a47.63 47.63 0 0 0 10.87 30.14 24.71 24.71 0 0 0-10.87 20.49L667.42 385c0 13.57 12.06 24.58 26.94 24.58h67.36c14.88 0 26.94-11 26.94-24.58z" fill="#4565af"/><path d="M783.54 278.24a24.65 24.65 0 0 0-10.92-20.49 47.53 47.53 0 0 0 10.92-30.14c0-22.57-16.22-41.69-38.61-48.23v-16.73h-16.84l-.62.61a21.23 21.23 0 0 0 .21 4.1 22.07 22.07 0 0 0 3.42 8.64c3.59 5.81 9 10.87 13.49 16.72 5.4 7.09 9.95 15.09 11.55 24a50.63 50.63 0 0 1-1.66 25.67c-2.79 8-7.15 14.71-12.19 21.44-.26.35-.72 1.18-1.06 1.74l.06.19c.06.16.09.27.12.36l.1.22c.74 1.64 1.53 3.25 2.33 4.86 2 4 4.17 7.66 5.53 11.9a49.6 49.6 0 0 1 2.06 10.94c.76 8.86.43 17.87.59 26.76.17 9.42.36 18.85.51 28.27.34 20.16.52 40.37-.11 60.54h9.37c15 0 27.06-11 27.06-24.58z" fill="#3e5a9c"/><path d="M748.68 170.9v-16.25c0-6.78-4.28-12.27-9.55-12.27H717c-5.28 0-9.56 5.49-9.56 12.27v16.25z" fill="#e2893e"/><path d="M739.33 142.38h-5.66v28.52h15v-16.25c.01-6.78-4.18-12.27-9.34-12.27z" fill="#c57736"/><path d="M697.3 193.72c-2.48 2.89-16.89 23.47-8.65 23.47.82 0 9.88-13.17 11.53-14.82 2.05-2.06 5.76-4.12 4.11-7.82-1.23-2.89-4.11-3.3-6.17-.42M684.12 268.66c-9.06.41-7 23.88-3.71 28.82 3.71-2.47 14.41-31.71 4.12-28" fill="#687daf"/><circle cx="728.2" cy="321.36" r="36.35" fill="#e2893e"/><path d="M728.19 278.13a43.23 43.23 0 1 0 43.24 43.23 43.23 43.23 0 0 0-43.24-43.23zm0 82.75a39.52 39.52 0 1 1 39.53-39.52 39.52 39.52 0 0 1-39.53 39.52z" fill="#fff"/><circle cx="711.24" cy="341.17" r="3.76" fill="#fff"/><path d="M728.19 337.84a6.6 6.6 0 1 1-6.59-6.6 6.6 6.6 0 0 1 6.59 6.6z" fill="#fff"/><circle cx="712.68" cy="326.55" r="5.2" fill="#fff"/><circle cx="723.03" cy="314.98" r="8.03" fill="#fff"/><circle cx="738.47" cy="310.24" r="7.41" fill="#fff"/><circle cx="742.17" cy="326.09" r="11.12" fill="#fff"/><circle cx="724.47" cy="295.83" r="6.59" fill="#fff"/><circle cx="742.17" cy="292.95" r="3.71" fill="#fff"/><path d="M782.61 251.23a2.25 2.25 0 0 1-2.25 2.25H674a2.25 2.25 0 0 1-2.25-2.25A2.25 2.25 0 0 1 674 249h106.36a2.25 2.25 0 0 1 2.25 2.25zM782.61 258a2.26 2.26 0 0 1-2.25 2.26H674a2.26 2.26 0 0 1-2.25-2.26 2.25 2.25 0 0 1 2.25-2.25h106.36a2.25 2.25 0 0 1 2.25 2.25zM782.6 264a2.25 2.25 0 0 1-2.25 2.25H674a2.25 2.25 0 0 1-2.25-2.25 2.25 2.25 0 0 1 2.25-2.25h106.35a2.24 2.24 0 0 1 2.25 2.25z" fill="#3e5a9c"/><path d="M713.4 167.29a1.12 1.12 0 0 1-1.13 1.12 1.12 1.12 0 0 1-1.12-1.12v-18.77a1.13 1.13 0 0 1 1.12-1.13 1.13 1.13 0 0 1 1.13 1.13zM719.4 167.29a1.12 1.12 0 0 1-1.12 1.12 1.13 1.13 0 0 1-1.13-1.12v-18.77a1.14 1.14 0 0 1 1.13-1.13 1.13 1.13 0 0 1 1.12 1.13zM725.41 167.29a1.12 1.12 0 0 1-1.13 1.12 1.12 1.12 0 0 1-1.12-1.12v-18.77a1.12 1.12 0 0 1 1.12-1.13 1.12 1.12 0 0 1 1.13 1.13zM731.42 167.29a1.13 1.13 0 0 1-1.13 1.12 1.13 1.13 0 0 1-1.13-1.12v-18.77a1.14 1.14 0 0 1 1.13-1.13 1.14 1.14 0 0 1 1.13 1.13z" fill="#c57736"/><path fill="#bababa" d="M1440.81 71.06h163.65v163.65h-163.65z"/><path fill="#505156" d="M1452.82 83.83h138.88v138.88h-138.88z"/><path d="M1452.82 197.18v6c0 8.31 6.16 15 13.76 15h111.35c7.61 0 13.77-6.74 13.77-15v-6z" fill="#dedddd"/><path d="M1466.64 218.2h19.73l21-21h-54.57v6c.02 8.26 6.2 15 13.84 15zM1511.37 218.2h66.51c7.63 0 13.82-6.74 13.82-15v-6h-59.31z" fill="#bababa"/><path d="M1452.82 174.66v6c0 8.31 6.16 15.05 13.76 15.05h111.35c7.61 0 13.77-6.74 13.77-15.05v-6z" fill="#dedddd"/><path d="M1466.64 195.68h19.73l21-21h-54.57v6c.02 8.26 6.2 15 13.84 15zM1511.37 195.68h66.51c7.63 0 13.82-6.74 13.82-15.05v-6h-59.31z" fill="#bababa"/><path d="M1452.82 152.14v6c0 8.31 6.16 15 13.76 15h111.35c7.61 0 13.77-6.74 13.77-15v-6z" fill="#dedddd"/><path d="M1466.64 173.16h19.73l21-21h-54.57v6c.02 8.26 6.2 15 13.84 15zM1511.37 173.16h66.51c7.63 0 13.82-6.74 13.82-15v-6h-59.31z" fill="#bababa"/><path d="M1452.82 129.62v6c0 8.31 6.16 15 13.76 15h111.35c7.61 0 13.77-6.74 13.77-15v-6z" fill="#dedddd"/><path d="M1466.64 150.64h19.73l21-21h-54.57v6c.02 8.26 6.2 15 13.84 15zM1511.37 150.64h66.51c7.63 0 13.82-6.74 13.82-15v-6h-59.31z" fill="#bababa"/><path d="M1452.82 107.1v6c0 8.31 6.16 15.05 13.76 15.05h111.35c7.61 0 13.77-6.74 13.77-15.05v-6z" fill="#dedddd"/><path d="M1466.64 128.12h19.73l21-21h-54.57v6c.02 8.26 6.2 15 13.84 15zM1511.37 128.12h66.51c7.63 0 13.82-6.74 13.82-15.05v-6h-59.31z" fill="#bababa"/><path d="M1452.82 84.58v6c0 8.31 6.16 15 13.76 15h111.35c7.61 0 13.77-6.74 13.77-15v-6z" fill="#dedddd"/><path d="M1466.64 105.6h19.73l21-21h-54.57v6c.02 8.26 6.2 15 13.84 15zM1511.37 105.6h66.51c7.63 0 13.82-6.74 13.82-15v-6h-59.31z" fill="#bababa"/><circle cx="1597.08" cy="228.85" r="3.75" fill="#505156"/><circle cx="1597.08" cy="77.95" r="3.75" fill="#505156"/><circle cx="1446.93" cy="228.85" r="3.75" fill="#505156"/><circle cx="1446.93" cy="77.95" r="3.75" fill="#505156"/></svg>