<svg data-name="Capa 1" xmlns="http://www.w3.org/2000/svg" viewBox="240 0 1440 1080"><path fill="#977733" d="M-3.5-.19h1935.44V1088.5H-3.5z"/><path fill="#795f29" d="M-3.5 1010.63h1935.44v77.87H-3.5z"/><path fill="#ad883b" d="M1136.71 355.9H788.9l-264.31 654.73h876.44L1136.71 355.9z"/><path d="M716.65 1088.5h493.05c115.61-16.79 191.51-45.07 191.51-77.11H525.14c0 32.04 75.86 60.32 191.51 77.11z" fill="#997833"/><path fill="#9c7a34" d="M1568.29-.19h14.36v1012.33h-14.36z"/><path fill="#80642b" d="M1570.56-.19h9.07v1012.33h-9.07z"/><path fill="#9c7a34" d="M1414.82-.19h14.36v1012.33h-14.36z"/><path fill="#80642b" d="M1417.84-.19h9.07v1012.33h-9.07z"/><path fill="#9c7a34" d="M1262.1-.19h14.36v1012.33h-14.36z"/><path fill="#80642b" d="M1264.37-.19h9.07v1012.33h-9.07z"/><path fill="#9c7a34" d="M1108.62-.19h14.36v1012.33h-14.36z"/><path fill="#80642b" d="M1111.65-.19h9.07v1012.33h-9.07z"/><path fill="#9c7a34" d="M955.91-.19h14.36v1012.33h-14.36z"/><path fill="#80642b" d="M958.17-.19h9.07v1012.33h-9.07z"/><path fill="#9c7a34" d="M802.43-.19h14.36v1012.33h-14.36z"/><path fill="#80642b" d="M805.45-.19h9.07v1012.33h-9.07z"/><path fill="#9c7a34" d="M649.71-.19h14.36v1012.33h-14.36z"/><path fill="#80642b" d="M651.98-.19h9.07v1012.33h-9.07z"/><path fill="#9c7a34" d="M496.24-.19h14.36v1012.33h-14.36z"/><path fill="#80642b" d="M499.26-.19h9.07v1012.33h-9.07z"/><path fill="#9c7a34" d="M343.52-.19h14.36v1012.33h-14.36z"/><path fill="#80642b" d="M345.79-.19h9.07v1012.33h-9.07z"/><path fill="#9c7a34" d="M1426.91 721.07h144.4v14.36h-144.4z"/><path fill="#80642b" d="M1426.91 723.34h144.4v9.07h-144.4z"/><path fill="#9c7a34" d="M1273.44 494.26h144.4v14.36h-144.4z"/><path fill="#80642b" d="M1273.44 496.53h144.4v9.07h-144.4z"/><path fill="#9c7a34" d="M1120.72 282.57h144.4v14.36h-144.4z"/><path fill="#80642b" d="M1120.72 284.84h144.4v9.07h-144.4z"/><path fill="#9c7a34" d="M967.25 910.08h144.4v14.36h-144.4z"/><path fill="#80642b" d="M967.25 912.34h144.4v9.07h-144.4z"/><path fill="#9c7a34" d="M813.77 70.88h144.4v14.36h-144.4z"/><path fill="#80642b" d="M813.77 73.15h144.4v9.07h-144.4z"/><path fill="#9c7a34" d="M661.05 544.16h144.4v14.36h-144.4z"/><path fill="#80642b" d="M661.05 547.18h144.4v9.07h-144.4z"/><path fill="#9c7a34" d="M507.58 758.87h144.4v14.36h-144.4z"/><path fill="#80642b" d="M507.58 761.14h144.4v9.07h-144.4z"/><path fill="#9c7a34" d="M354.86 237.21h144.4v14.36h-144.4z"/><path fill="#80642b" d="M354.86 239.48h144.4v9.07h-144.4z"/><path fill="#9c7a34" d="M-3.5 1073.38h1935.44v3.78H-3.5z"/><path fill="#715925" d="M-3.5 1074.14h1935.44v2.27H-3.5z"/><path fill="#9c7a34" d="M-3.5 1033.31h1935.44v3.78H-3.5z"/><path fill="#715925" d="M-3.5 1034.07h1935.44v2.27H-3.5z"/><path d="M486.41 498.5c0 1-1.35 1.88-3 1.88-1.68 0-3-.85-3-1.88V255c0-1 1.35-1.89 3-1.89 1.67 0 3 .85 3 1.89zM410.81 600a2.86 2.86 0 0 1-3 2.66 2.86 2.86 0 0 1-3-2.66V255.81a2.86 2.86 0 0 1 3-2.66 2.86 2.86 0 0 1 3 2.66zM380.56 647.37a3 3 0 0 1-3 3 3 3 0 0 1-3-3V256.18a3 3 0 0 1 3-3 3 3 0 0 1 3 3zM446.34 1010.58c0 .26-1.35.46-3 .46-1.67 0-3-.2-3-.46v-59c0-.26 1.36-.46 3-.46 1.67 0 3 .2 3 .46zM468.26 235.49c0 .87-1.35 1.58-3 1.58-1.67 0-3-.71-3-1.58V31.86c0-.87 1.35-1.58 3-1.58 1.67 0 3 .71 3 1.58zM443.32 239.07c0 .35-1.36.64-3 .64-1.67 0-3-.29-3-.64v-82.66c0-.35 1.35-.64 3-.64 1.67 0 3 .29 3 .64zM625.52 504.29c0 2.14-1.35 3.87-3 3.87-1.68 0-3-1.73-3-3.87V3.37c0-2.14 1.35-3.87 3-3.87 1.67 0 3 1.73 3 3.87zM541.6 249.38c0 1-1.35 1.88-3 1.88-1.67 0-3-.84-3-1.88V5.92c0-1 1.36-1.88 3-1.88 1.67 0 3 .84 3 1.88zM580.16 756.62c0 .51-1.36.92-3 .92-1.67 0-3-.41-3-.92V638.43c0-.51 1.35-.91 3-.91 1.67 0 3 .4 3 .91zM622.5 847c0 .3-1.36.55-3 .55-1.67 0-3-.25-3-.55v-71.52c0-.31 1.35-.56 3-.56 1.67 0 3 .25 3 .56zM593 821.07c0 .2-1.35.36-3 .36-1.67 0-3-.16-3-.36v-45.79c0-.2 1.36-.36 3-.36 1.67 0 3 .16 3 .36zM527.23 924.73c0 .64-1.35 1.15-3 1.15-1.67 0-3-.51-3-1.15V776.07c0-.63 1.35-1.15 3-1.15 1.67 0 3 .52 3 1.15zM700.37 287.24c0 1.22-1.36 2.21-3 2.21-1.67 0-3-1-3-2.21V1.71c0-1.22 1.35-2.21 3-2.21 1.67 0 3 1 3 2.21zM767.65 541.66a3 3 0 0 1-3 3 3 3 0 0 1-3-3V158.73a3 3 0 0 1 3-3 3 3 0 0 1 3 3zM697.34 651.55c0 .4-1.35.73-3 .73-1.67 0-3-.33-3-.73v-93.94c0-.4 1.36-.72 3-.72 1.67 0 3 .32 3 .72zM783.53 1007.19c0 .92-1.35 1.66-3 1.66-1.67 0-3-.74-3-1.66V791.93c0-.91 1.36-1.66 3-1.66 1.67 0 3 .75 3 1.66zM764.63 1008.22c0 .35-1.35.63-3 .63-1.68 0-3-.28-3-.63v-81.54c0-.35 1.35-.63 3-.63 1.67 0 3 .28 3 .63zM931 803.17c0 .52-1.36.94-3 .94-1.67 0-3-.42-3-.94V681.44c0-.52 1.35-.94 3-.94 1.67 0 3 .42 3 .94zM844.77 330.11c0 1-1.35 1.88-3 1.88-1.66 0-3-.84-3-1.88V86.65c0-1 1.36-1.89 3-1.89 1.68 0 3 .85 3 1.89zM1089.72 216.5c0 .91-1.35 1.65-3 1.65-1.67 0-3-.74-3-1.65V3.8c0-.91 1.36-1.65 3-1.65 1.67 0 3 .74 3 1.65zM1089.72 909.6c0 .2-1.35.37-3 .37-1.67 0-3-.17-3-.37v-47.72c0-.2 1.36-.37 3-.37 1.67 0 3 .17 3 .37zM1001.27 909c0 .52-1.36.94-3 .94-1.67 0-3-.42-3-.94V787.3c0-.52 1.35-.94 3-.94 1.67 0 3 .42 3 .94zM1151 1007c0 1-1.35 1.85-3 1.85-1.67 0-3-.83-3-1.85V767.61c0-1 1.36-1.85 3-1.85 1.67 0 3 .83 3 1.85zM1241.69 636.79a2.85 2.85 0 0 1-3 2.61 2.84 2.84 0 0 1-3-2.61V300a2.84 2.84 0 0 1 3-2.61 2.85 2.85 0 0 1 3 2.61zM1205.4 420.06c0 .52-1.36.94-3 .94-1.67 0-3-.42-3-.94V298.33c0-.52 1.35-.94 3-.94 1.67 0 3 .42 3 .94zM1154 278.23c0 .64-1.36 1.15-3 1.15-1.67 0-3-.51-3-1.15V129.4c0-.64 1.35-1.15 3-1.15 1.67 0 3 .51 3 1.15zM1178.18 278.08c0 .72-1.36 1.3-3 1.3-1.67 0-3-.58-3-1.3V109.57c0-.72 1.35-1.3 3-1.3 1.67 0 3 .58 3 1.3zM1389.11 491.12a3 3 0 0 1-3 3 3 3 0 0 1-3-3V101.71a3 3 0 0 1 3-3 3 3 0 0 1 3 3zM1327.87 492.25c0 1-1.35 1.88-3 1.88-1.67 0-3-.84-3-1.88V248.79c0-1 1.35-1.88 3-1.88 1.67 0 3 .84 3 1.88zM1305.19 653.05c0 .61-1.35 1.11-3 1.11-1.67 0-3-.5-3-1.11V509.4c0-.61 1.36-1.11 3-1.11 1.67 0 3 .5 3 1.11zM1349 753.64c0 1-1.35 1.88-3 1.88-1.67 0-3-.85-3-1.88V510.18c0-1 1.36-1.89 3-1.89 1.67 0 3 .85 3 1.89zM1368.7 581.07c0 .31-1.35.56-3 .56-1.67 0-3-.25-3-.56v-72.22c0-.31 1.36-.56 3-.56 1.67 0 3 .25 3 .56zM1468.5 1008.87c0 1-1.36 1.75-3 1.75-1.67 0-3-.78-3-1.75v-226c0-1 1.35-1.75 3-1.75 1.67 0 3 .79 3 1.75zM1501.76 717.42a3.09 3.09 0 0 1-3 3.15 3.09 3.09 0 0 1-3-3.15v-407.1a3.09 3.09 0 0 1 3-3.14 3.08 3.08 0 0 1 3 3.14zM1537.29 719.35c0 .67-1.35 1.22-3 1.22-1.67 0-3-.55-3-1.22V561.09c0-.68 1.35-1.23 3-1.23 1.67 0 3 .55 3 1.23z" fill="#85682c"/><path fill="none" stroke="#675e43" stroke-miterlimit="10" stroke-width="2.143" d="M751.16 657.5l7.8 5.52 8.97-3.25 16.29-9.3 3.53-26.18-23.14-3.13-23.15-3.12-3.53 26.17 13.23 13.29z"/><path fill="#7b5d3c" d="M719.42 908.752l32.084-237.614 13.339 1.801-32.085 237.614z"/><path fill="#735830" d="M719.499 908.842l32.084-237.613 6.67.9-32.085 237.614z"/><path d="M709.57 1032.55c62.15 1.61 66.67-100.43 66.67-100.43l-51.06-15.19-53.25 1.07s-22.71 99.62 37.64 114.55z" fill="#7b7251"/><path d="M711.16 1022.27c41.37-.6 47.75-93.23 47.75-93.23L725.38 917l-35.52 2.75s-18.42 90.97 21.3 102.52z" fill="#675f44"/><path d="M720.42 901.89c.16-1.19 1.83-1.94 3.73-1.68l6.46.87c1.9.26 3.31 1.42 3.15 2.61l-6 44.57c-.16 1.18-5 25-6.84 24.72l-3.92 4.41-2.58-5.29c-1.9-.25-.2-24.46 0-25.64z" fill="#675e43"/><path d="M714.44 972.11l1.13 2.31 10-74-1.41-.19c-1.9-.25-3.57.5-3.73 1.68l-6 44.57c-.19 1.16-1.89 25.37.01 25.63zM726 912.1a2.38 2.38 0 1 1 2 2.68 2.39 2.39 0 0 1-2-2.68z" fill="#7b7251"/><circle cx="726.69" cy="924.55" r="2.38" fill="#7b7251"/><path d="M751.35 656c.31-2.25 2.1-3.87 4-3.61l9.91 1.33c1.89.26 3.19 2.29 2.88 4.55l-2.59 19.19c-.3 2.25-2.09 3.87-4 3.62l-9.9-1.34c-1.9-.26-3.19-2.29-2.88-4.54z" fill="#675e43"/><path d="M751.35 656c.31-2.25 1.33-4 2.28-3.85l5 .67c.95.13 1.47 2.06 1.17 4.31l-2.6 19.2c-.3 2.25-1.31 4-2.27 3.85l-5-.67c-.95-.13-1.47-2.06-1.16-4.31z" fill="#7b7251"/><path fill="#7b5d3c" d="M743.244 624.318l1.637-12.12 41.642 5.623-1.637 12.12z"/><path fill="#896824" d="M1149.45 730.9h8.32v220.76h-8.32z"/><path d="M1158.5 936.47c.13.54-1.74 1.52-4.3 2s-4.8 0-4.77-.53 2-1 4.39-1.49 4.54-.54 4.68.02zM1158.5 920.72c.13.54-1.74 1.52-4.3 2s-4.8 0-4.77-.53 2-1 4.39-1.49 4.54-.54 4.68.02zM1158.5 905c.13.54-1.74 1.52-4.3 2s-4.8 0-4.77-.53 2-1 4.39-1.49 4.54-.57 4.68.02zM1158.5 889.22c.13.54-1.74 1.52-4.3 2s-4.8 0-4.77-.52 2-1 4.39-1.49 4.54-.55 4.68.01zM1158.5 873.46c.13.54-1.74 1.52-4.3 2s-4.8 0-4.77-.53 2-1 4.39-1.49 4.54-.54 4.68.02zM1158.5 857.71c.13.54-1.74 1.52-4.3 2s-4.8 0-4.77-.53 2-1 4.39-1.49 4.54-.54 4.68.02zM1158.5 842c.13.54-1.74 1.52-4.3 2s-4.8 0-4.77-.53 2-1 4.39-1.49 4.54-.58 4.68.02zM1158.5 826.21c.13.54-1.74 1.52-4.3 2s-4.8 0-4.77-.52 2-1 4.39-1.49 4.54-.55 4.68.01zM1158.5 810.45c.13.54-1.74 1.52-4.3 2s-4.8 0-4.77-.53 2-1 4.39-1.49 4.54-.54 4.68.02zM1158.5 794.7c.13.54-1.74 1.52-4.3 2s-4.8 0-4.77-.53 2-1 4.39-1.49 4.54-.54 4.68.02zM1158.5 779c.13.54-1.74 1.52-4.3 2s-4.8 0-4.77-.53 2-1 4.39-1.49 4.54-.59 4.68.02zM1158.5 763.2c.13.54-1.74 1.52-4.3 2s-4.8 0-4.77-.52 2-1 4.39-1.49 4.54-.55 4.68.01zM1158.5 747.44c.13.54-1.74 1.52-4.3 2s-4.8 0-4.77-.53 2-1 4.39-1.49 4.54-.54 4.68.02z" fill="#81511d"/><path d="M1207.23 674.7c-27.92 0-50.56 24.27-50.56 54.21s22.64 54.22 50.56 54.22 50.57-24.28 50.57-54.22-22.64-54.21-50.57-54.21zm0 103.92c-25.6 0-46.36-22.25-46.36-49.71s20.76-49.7 46.36-49.7 46.37 22.25 46.37 49.7-20.76 49.71-46.37 49.71z" fill="#896824"/><path d="M1257.85 721.21c.13.26-1.14.83-2.93 1.18s-3.41.18-3.41-.07 1.34-.58 3-.9 3.21-.49 3.34-.21zM1256.26 713.36c.16.26-1 .91-2.76 1.37s-3.36.41-3.4.15 1.25-.65 2.88-1.09 3.11-.69 3.28-.43zM1253.51 705.65c.2.25-.88 1-2.54 1.56s-3.28.64-3.36.39 1.15-.74 2.71-1.29 2.96-.91 3.19-.66zM1249.47 698.17c.25.23-.66 1-2.22 1.75s-3.15.89-3.27.65 1-.82 2.45-1.49 2.78-1.14 3.04-.91zM1244 691.06c.29.21-.47 1.11-1.85 2s-3 1.18-3.11 1 .84-.91 2.13-1.71 2.57-1.5 2.83-1.29zM1236.94 684.57c.35.16-.16 1.15-1.3 2.13s-2.61 1.51-2.83 1.31.6-1 1.66-1.93 2.12-1.69 2.47-1.51zM1227.92 679.11c.39.11.24 1.15-.55 2.3s-2 1.86-2.3 1.71.26-1 1-2.15 1.43-1.97 1.85-1.86zM1216.81 675.47c.45 0 .81 1 .55 2.29s-1.12 2.2-1.42 2.1-.22-1 0-2.22.41-2.19.87-2.17zM1204.4 674.6c.43-.09 1.31.8 1.74 2s.11 2.32-.22 2.32-.75-.94-1.22-2.09-.7-2.13-.3-2.23zM1192.41 676.82c.35-.17 1.61.43 2.64 1.47s1.32 2.14 1 2.22-1.18-.68-2.21-1.64-1.79-1.87-1.43-2.05zM1182.22 681.4c.25-.24 1.71.12 3.15.92s2.16 1.8 1.88 1.94-1.45-.44-2.83-1.17-2.42-1.44-2.2-1.69zM1174.09 687.4c.17-.27 1.7-.11 3.36.46s2.68 1.43 2.44 1.62-1.56-.21-3.12-.73-2.85-1.08-2.68-1.35zM1167.79 694.21c.11-.27 1.63-.28 3.41.09s3 1.12 2.79 1.33-1.57 0-3.25-.37-3.07-.76-2.95-1.05zM1163 701.51c0-.28 1.55-.43 3.4-.21s3.18.84 3 1.07-1.56.12-3.29-.08-3.11-.49-3.11-.78zM1159.58 709.11c0-.28 1.47-.54 3.33-.47s3.3.59 3.19.83-1.53.24-3.28.18-3.24-.25-3.24-.54zM1157.36 716.89c0-.28 1.39-.63 3.24-.69s3.38.35 3.3.6-1.49.35-3.24.4-3.26-.02-3.3-.31zM1156.26 724.77c-.07-.28 1.29-.72 3.13-.9s3.41.14 3.37.39-1.43.44-3.17.61-3.25.18-3.33-.1zM1156.24 732.67c-.12-.27 1.18-.8 3-1.09s3.41-.07 3.41.18-1.37.53-3.07.8-3.23.44-3.34.11zM1157.28 740.55c-.15-.26 1.06-.87 2.83-1.27s3.39-.29 3.41 0-1.28.61-2.94 1-3.14.54-3.3.27zM1159.45 748.34c-.19-.25.93-.94 2.62-1.46s3.33-.52 3.4-.27-1.19.7-2.79 1.19-3.04.8-3.23.54zM1162.82 756c-.23-.24.78-1 2.38-1.65s3.23-.77 3.33-.52-1.08.78-2.59 1.39-2.89.97-3.12.78zM1167.51 763.27c-.27-.21.6-1.08 2.07-1.85s3.06-1 3.2-.8-1 .87-2.31 1.6-2.67 1.27-2.96 1.05zM1173.75 770.11c-.31-.19.33-1.13 1.61-2.05s2.79-1.33 3-1.12-.72.95-1.91 1.82-2.37 1.55-2.7 1.35zM1181.78 776.16c-.37-.15 0-1.16 1-2.23s2.35-1.68 2.6-1.5-.44 1-1.35 2-1.86 1.88-2.25 1.73zM1191.86 780.83c-.44-.05-.5-1.13 0-2.33s1.62-2 1.91-1.92 0 1.08-.5 2.22-.96 2.1-1.41 2.03zM1203.79 783.18c-.44 0-1.06-.94-1.15-2.19s.52-2.29.85-2.25.48 1 .63 2.19.14 2.22-.33 2.25zM1216.22 782.47c-.19.07-.56-.08-1-.39a5.85 5.85 0 0 1-1.26-1.37c-.74-1.18-.74-2.26-.41-2.29s1 .8 1.76 1.87 1.32 2.03.91 2.18zM1227.42 779c-.31.21-1.68-.27-3-1.19s-1.79-2-1.48-2.09 1.33.55 2.56 1.4 2.24 1.61 1.92 1.88zM1236.56 773.56c-.21.26-1.72 0-3.28-.68s-2.46-1.61-2.19-1.77 1.52.31 3 .93 2.68 1.26 2.47 1.52zM1243.74 767.1c-.15.27-1.67.2-3.4-.27s-2.86-1.27-2.64-1.47 1.57.11 3.21.55 2.97.91 2.83 1.19zM1249.24 760c-.08.28-1.59.36-3.39.07s-3.1-1-2.93-1.19 1.57-.06 3.27.21 3.13.63 3.05.91zM1253.33 752.54c0 .28-1.52.49-3.37.35s-3.25-.71-3.12-.95 1.56-.18 3.3-.05 3.23.36 3.19.65zM1256.16 744.84c0 .28-1.45.59-3.31.58s-3.35-.46-3.25-.71 1.53-.29 3.28-.29 3.25.13 3.28.42zM1257.81 737c0 .28-1.36.68-3.21.8s-3.4-.24-3.33-.49 1.48-.4 3.22-.51 3.25-.09 3.32.2zM1258.36 729.11c.09.27-1.25.76-3.08 1s-3.42 0-3.39-.28 1.41-.49 3.14-.71 3.24-.3 3.33-.01z" fill="#81511d"/><path d="M1206.15 684.53c-29.82 0-54 25.28-54 56.47s24.17 56.47 54 56.47 54-25.28 54-56.47-24.15-56.47-54-56.47zm0 108.24c-27.34 0-49.5-23.18-49.5-51.77s22.16-51.77 49.5-51.77 49.5 23.18 49.5 51.77-22.16 51.77-49.5 51.77z" fill="#896824"/><path d="M1260.19 733c.13.28-1.22.87-3.13 1.23s-3.64.19-3.65-.07 1.44-.6 3.24-.94 3.4-.53 3.54-.22zM1258.49 724.81c.17.26-1.09.94-2.94 1.42s-3.6.42-3.64.16 1.34-.69 3.08-1.14 3.31-.72 3.5-.44zM1255.55 716.77c.21.26-.94 1-2.7 1.63s-3.51.66-3.59.4 1.22-.77 2.89-1.34 3.17-.95 3.4-.69zM1251.25 709c.26.24-.72 1.08-2.38 1.82s-3.36.93-3.49.68 1.07-.85 2.61-1.55 3.01-1.21 3.26-.95zM1245.45 701.58c.3.21-.51 1.15-2 2s-3.15 1.23-3.32 1 .89-1 2.27-1.78 2.72-1.45 3.05-1.22zM1237.87 694.81c.36.17-.18 1.2-1.4 2.23s-2.78 1.56-3 1.36.63-1 1.77-2 2.25-1.77 2.63-1.59zM1228.23 689.12c.42.12.26 1.21-.58 2.4s-2.17 1.94-2.46 1.78.28-1.09 1-2.23 1.6-2.07 2.04-1.95zM1216.37 685.34c.48 0 .86 1.06.59 2.38s-1.19 2.29-1.52 2.19-.24-1.08 0-2.31.44-2.28.93-2.26zM1203.13 684.43c.45-.09 1.39.83 1.85 2.11s.12 2.41-.24 2.41-.8-1-1.3-2.18-.79-2.23-.31-2.34zM1190.32 686.75c.38-.19 1.72.44 2.83 1.52s1.4 2.23 1.06 2.32-1.27-.71-2.36-1.72-1.92-1.93-1.53-2.12zM1179.44 691.51c.27-.25 1.83.13 3.36 1s2.32 1.87 2 2-1.55-.44-3-1.21-2.63-1.53-2.36-1.79zM1170.77 697.76c.18-.28 1.81-.11 3.58.48s2.86 1.5 2.6 1.68-1.66-.21-3.33-.76-3.04-1.16-2.85-1.4zM1164 704.86c.11-.29 1.74-.3 3.63.09s3.2 1.16 3 1.38-1.68 0-3.47-.39-3.25-.79-3.16-1.08zM1158.94 712.46c0-.3 1.65-.45 3.62-.22s3.4.87 3.23 1.11-1.67.12-3.51-.08-3.4-.51-3.34-.81zM1155.28 720.37c0-.29 1.57-.56 3.54-.48s3.53.61 3.41.86-1.63.25-3.5.18-3.46-.25-3.45-.56zM1152.9 728.48c0-.29 1.48-.66 3.46-.72s3.61.36 3.52.62-1.59.37-3.45.42-3.49-.02-3.53-.32zM1151.73 736.68c-.08-.28 1.38-.75 3.34-.93s3.64.14 3.6.4-1.54.46-3.39.63-3.47.22-3.55-.1zM1151.7 744.91c-.12-.28 1.26-.83 3.19-1.13s3.64-.07 3.64.19-1.46.55-3.28.83-3.42.41-3.55.11zM1152.82 753.12c-.16-.27 1.13-.9 3-1.33s3.61-.3 3.64 0-1.38.64-3.14 1-3.32.61-3.5.33zM1155.13 761.23c-.2-.26 1-1 2.8-1.52s3.55-.54 3.63-.28-1.28.73-3 1.24-3.22.83-3.43.56zM1158.73 769.16c-.24-.25.83-1 2.54-1.72s3.45-.79 3.56-.54-1.16.81-2.76 1.45-3.07 1.06-3.34.81zM1163.74 776.78c-.3-.22.64-1.12 2.2-1.92s3.27-1.08 3.42-.84-1 .91-2.47 1.67-2.84 1.31-3.15 1.09zM1170.4 783.91c-.34-.2.35-1.18 1.71-2.13s3-1.39 3.19-1.18-.77 1-2 1.9-2.55 1.61-2.9 1.41zM1179 790.21c-.39-.15 0-1.21 1-2.32s2.51-1.75 2.77-1.57-.47 1.07-1.44 2.13-1.95 1.92-2.33 1.76zM1189.74 795.08c-.47-.06-.54-1.18 0-2.43s1.73-2.13 2-2 0 1.12-.54 2.3-.98 2.19-1.46 2.13zM1202.48 797.52c-.48 0-1.14-1-1.24-2.28s.56-2.39.91-2.34.52 1 .67 2.28.18 2.31-.34 2.34zM1215.75 796.78a1.47 1.47 0 0 1-1-.4 6 6 0 0 1-1.35-1.43c-.78-1.23-.79-2.36-.44-2.39s1.06.84 1.88 2 1.34 2.07.91 2.22zM1227.7 793.12c-.33.21-1.8-.29-3.15-1.25s-1.91-2.06-1.58-2.17 1.43.58 2.74 1.46 2.29 1.73 1.99 1.96zM1237.45 787.5c-.21.27-1.83 0-3.49-.7s-2.63-1.68-2.34-1.85 1.62.33 3.2 1 2.86 1.28 2.63 1.55zM1245.12 780.77c-.15.28-1.78.21-3.63-.27s-3-1.33-2.81-1.54 1.67.12 3.42.57 3.18.95 3.02 1.24zM1251 773.39c-.09.29-1.7.38-3.63.07s-3.31-1-3.13-1.24 1.68-.06 3.5.23 3.34.64 3.26.94zM1255.37 765.61c0 .3-1.63.51-3.61.36s-3.47-.74-3.33-1 1.67-.19 3.53-.06 3.44.4 3.41.7zM1258.38 757.59c0 .29-1.54.61-3.53.61s-3.58-.49-3.47-.74 1.63-.31 3.5-.31 3.47.14 3.5.44zM1260.14 749.43c.06.28-1.45.7-3.42.83s-3.63-.26-3.56-.52 1.58-.41 3.44-.52 3.47-.09 3.54.21zM1260.73 741.2c.1.28-1.34.79-3.29 1s-3.65 0-3.62-.3 1.52-.51 3.36-.73 3.46-.26 3.55.03z" fill="#81511d"/><path d="M1205.29 678.46c-31.83 0-57.63 30.08-57.63 67.19s25.8 67.19 57.63 67.19 57.64-30.08 57.64-67.19-25.8-67.19-57.64-67.19zm0 128.79c-29.18 0-52.84-27.58-52.84-61.6s23.66-61.65 52.84-61.65 52.85 27.59 52.85 61.61-23.66 61.64-52.85 61.64z" fill="#896824"/><path d="M1263 736.1c.15.33-1.3 1-3.34 1.46s-3.88.23-3.89-.09 1.53-.71 3.45-1.11 3.62-.6 3.78-.26zM1261.17 726.38c.19.32-1.16 1.12-3.13 1.7s-3.84.49-3.89.18 1.43-.81 3.3-1.35 3.55-.86 3.72-.53zM1258 716.82c.23.31-1 1.21-2.89 1.93s-3.74.79-3.83.49 1.31-.92 3.09-1.6 3.42-1.13 3.63-.82zM1253.44 707.55c.29.28-.76 1.28-2.53 2.17s-3.59 1.1-3.73.81 1.14-1 2.79-1.85 3.18-1.42 3.47-1.13zM1247.25 698.74c.33.25-.54 1.37-2.11 2.41s-3.36 1.46-3.55 1.19 1-1.13 2.44-2.12 2.88-1.74 3.22-1.48zM1239.16 690.69c.39.21-.18 1.42-1.49 2.65s-3 1.86-3.22 1.62.68-1.22 1.89-2.39 2.41-2.1 2.82-1.88zM1228.87 683.92c.45.14.28 1.44-.62 2.85s-2.32 2.31-2.62 2.12.29-1.3 1.1-2.65 1.67-2.47 2.14-2.32zM1216.21 679.42c.51 0 .92 1.27.63 2.84s-1.27 2.72-1.63 2.6-.24-1.28 0-2.75.48-2.72 1-2.69zM1202.07 678.33c.49-.1 1.49 1 2 2.51s.13 2.88-.25 2.87-.86-1.17-1.39-2.58-.87-2.67-.36-2.8zM1188.4 681.09c.4-.22 1.83.53 3 1.82s1.5 2.65 1.14 2.76-1.35-.85-2.52-2-2.02-2.35-1.62-2.58zM1176.78 686.76c.29-.29 2 .16 3.59 1.15s2.47 2.22 2.14 2.39-1.65-.53-3.22-1.44-2.8-1.79-2.51-2.1zM1167.52 694.19c.19-.32 1.94-.13 3.83.58s3.06 1.78 2.78 2-1.78-.25-3.56-.9-3.25-1.33-3.05-1.68zM1160.33 702.64c.13-.34 1.87-.35 3.89.11s3.41 1.39 3.19 1.65-1.8 0-3.71-.46-3.5-.94-3.37-1.3zM1154.89 711.69c0-.35 1.77-.53 3.87-.26s3.63 1 3.45 1.32-1.79.14-3.75-.1-3.63-.6-3.57-.96zM1151 721.11c0-.35 1.68-.67 3.79-.58s3.76.72 3.64 1-1.75.3-3.74.22-3.69-.28-3.69-.64zM1148.45 730.75c0-.34 1.58-.79 3.69-.86s3.85.44 3.76.75-1.7.43-3.69.49-3.72-.02-3.76-.38zM1147.2 740.51c-.09-.34 1.47-.89 3.56-1.11s3.89.17 3.84.48-1.64.55-3.61.75-3.7.24-3.79-.12zM1147.17 750.31c-.13-.34 1.34-1 3.4-1.35s3.89-.09 3.89.22-1.56.66-3.5 1-3.66.47-3.79.13zM1148.35 760.07c-.16-.32 1.21-1.08 3.23-1.58s3.86-.36 3.89 0-1.47.76-3.35 1.23-3.59.69-3.77.35zM1150.82 769.72c-.21-.31 1.07-1.16 3-1.81s3.79-.64 3.87-.33-1.36.86-3.18 1.47-3.46.95-3.69.67zM1154.67 779.15c-.26-.29.89-1.25 2.71-2s3.68-1 3.8-.65-1.23 1-3 1.72-3.24 1.24-3.51.93zM1160 788.23c-.32-.27.68-1.34 2.35-2.3s3.49-1.27 3.65-1-1.08 1.08-2.64 2-3.01 1.57-3.36 1.3zM1167.13 796.7c-.36-.23.38-1.4 1.83-2.53s3.18-1.66 3.4-1.4-.82 1.18-2.18 2.26-2.67 1.97-3.05 1.67zM1176.28 804.2c-.42-.18 0-1.44 1.1-2.76s2.68-2.08 3-1.86-.5 1.26-1.54 2.52-2.12 2.29-2.56 2.1zM1187.77 810c-.5-.07-.57-1.4 0-2.89s1.86-2.53 2.19-2.37-.06 1.33-.57 2.74-1.1 2.59-1.62 2.52zM1201.37 812.9c-.5 0-1.21-1.16-1.31-2.71s.59-2.84 1-2.79.55 1.24.72 2.71.12 2.75-.41 2.79zM1215.54 812c-.22.09-.64-.09-1.11-.48a6.59 6.59 0 0 1-1.44-1.7c-.84-1.46-.85-2.81-.47-2.84s1.12 1 2 2.32 1.48 2.54 1.02 2.7zM1228.3 807.66c-.35.26-1.91-.34-3.36-1.48s-2-2.45-1.69-2.59 1.53.69 2.93 1.74 2.49 2.06 2.12 2.33zM1238.72 801c-.23.32-2 0-3.73-.84s-2.81-2-2.5-2.2 1.73.39 3.42 1.16 3.09 1.53 2.81 1.88zM1246.91 793c-.17.34-1.91.26-3.88-.33s-3.25-1.57-3-1.82 1.8.14 3.66.68 3.38 1.1 3.22 1.47zM1253.18 784.19c-.09.34-1.81.45-3.87.09s-3.53-1.21-3.34-1.49 1.79-.06 3.73.27 3.57.77 3.48 1.13zM1257.84 774.93c0 .35-1.74.6-3.84.43s-3.71-.88-3.56-1.17 1.78-.23 3.77-.07 3.67.45 3.63.81zM1261.06 765.39c0 .35-1.65.73-3.77.72s-3.81-.58-3.7-.88 1.74-.37 3.74-.36 3.67.13 3.73.52zM1262.94 755.68c.07.34-1.54.84-3.65 1s-3.88-.3-3.8-.61 1.68-.49 3.67-.62 3.71-.13 3.78.23zM1263.57 745.89c.11.33-1.43.94-3.51 1.23s-3.89 0-3.86-.35 1.61-.6 3.58-.88 3.69-.35 3.79 0z" fill="#81511d"/><path d="M1205.29 673.22c-31.83 0-57.63 42.91-57.63 95.84s25.8 95.83 57.63 95.83 57.64-42.9 57.64-95.83-25.8-95.84-57.64-95.84zm0 183.71c-29.18 0-52.84-39.34-52.84-87.87s23.66-87.87 52.84-87.87 52.85 39.34 52.85 87.87-23.66 87.87-52.85 87.87z" fill="#896824"/><path d="M1263 755.44c.15.47-1.3 1.47-3.34 2.09s-3.88.32-3.89-.13 1.53-1 3.45-1.59 3.62-.81 3.78-.37zM1261.17 741.57c.19.46-1.16 1.61-3.13 2.42s-3.84.71-3.89.27 1.43-1.16 3.3-1.93 3.55-1.23 3.72-.76zM1258 727.94c.23.43-1 1.73-2.89 2.76s-3.74 1.12-3.83.68 1.31-1.3 3.09-2.27 3.42-1.61 3.63-1.17zM1253.44 714.72c.29.4-.76 1.83-2.53 3.09s-3.59 1.57-3.73 1.15 1.14-1.45 2.79-2.63 3.18-2.03 3.47-1.61zM1247.25 702.15c.33.36-.54 2-2.11 3.44s-3.36 2.09-3.55 1.69 1-1.6 2.44-3 2.88-2.51 3.22-2.13zM1239.16 690.67c.39.29-.18 2-1.49 3.78s-3 2.65-3.22 2.31.68-1.74 1.89-3.41 2.41-3 2.82-2.68zM1228.87 681c.45.21.28 2-.62 4.07s-2.32 3.29-2.62 3 .29-1.86 1.1-3.78 1.67-3.49 2.14-3.29zM1216.21 674.59c.51 0 .92 1.81.63 4s-1.27 3.88-1.63 3.71-.24-1.83 0-3.92.48-3.83 1-3.79zM1202.07 673.05c.49-.16 1.49 1.41 2 3.57s.13 4.1-.25 4.09-.86-1.66-1.39-3.68-.87-3.8-.36-3.98zM1188.4 677c.4-.32 1.83.76 3 2.59s1.5 3.78 1.14 3.93-1.35-1.2-2.52-2.91-2.02-3.3-1.62-3.61zM1176.78 685.06c.29-.41 2 .23 3.59 1.64s2.47 3.17 2.14 3.41-1.65-.76-3.22-2.05-2.8-2.56-2.51-3zM1167.52 695.67c.19-.47 1.94-.19 3.83.81s3.06 2.54 2.78 2.86-1.78-.36-3.56-1.29-3.25-1.89-3.05-2.38zM1160.33 707.72c.13-.48 1.87-.51 3.89.15s3.41 2 3.19 2.35-1.8 0-3.71-.65-3.5-1.35-3.37-1.85zM1154.89 720.62c0-.5 1.77-.76 3.87-.38s3.63 1.49 3.45 1.89-1.79.21-3.75-.14-3.63-.85-3.57-1.37zM1151 734.05c0-.49 1.68-.95 3.79-.83s3.76 1 3.64 1.47-1.75.43-3.74.31-3.69-.43-3.69-.95zM1148.45 747.81c0-.49 1.58-1.12 3.69-1.23s3.85.63 3.76 1.07-1.7.61-3.69.71-3.72-.04-3.76-.55zM1147.2 761.73c-.09-.49 1.47-1.27 3.56-1.59s3.89.24 3.84.69-1.64.78-3.61 1.07-3.7.34-3.79-.17zM1147.17 775.7c-.13-.47 1.34-1.41 3.4-1.92s3.89-.13 3.89.32-1.56.93-3.5 1.41-3.66.69-3.79.19zM1148.35 789.63c-.16-.46 1.21-1.54 3.23-2.25s3.86-.51 3.89-.07-1.47 1.09-3.35 1.76-3.59 1.04-3.77.56zM1150.82 803.39c-.21-.44 1.07-1.66 3-2.57s3.79-.92 3.87-.48-1.36 1.23-3.18 2.1-3.46 1.41-3.69.95zM1154.67 816.85c-.26-.42.89-1.79 2.71-2.92s3.68-1.35 3.8-.92-1.23 1.38-3 2.45-3.24 1.82-3.51 1.39zM1160 829.79c-.32-.38.68-1.9 2.35-3.27s3.49-1.82 3.65-1.41-1.08 1.54-2.64 2.82-3.01 2.25-3.36 1.86zM1167.13 841.88c-.36-.33.38-2 1.83-3.61s3.18-2.36 3.4-2-.82 1.67-2.18 3.21-2.67 2.75-3.05 2.4zM1176.28 852.57c-.42-.25 0-2.05 1.1-3.93s2.68-3 3-2.66-.5 1.8-1.54 3.6-2.12 3.26-2.56 2.99zM1187.77 860.84c-.5-.1-.57-2 0-4.13s1.86-3.6 2.19-3.38-.06 1.9-.57 3.9-1.1 3.77-1.62 3.61zM1201.37 865c-.5 0-1.21-1.65-1.31-3.87s.59-4.05 1-4 .55 1.77.72 3.86.12 3.94-.41 4.01zM1215.54 863.73c-.22.12-.64-.14-1.11-.68a9.2 9.2 0 0 1-1.44-2.43c-.84-2.08-.85-4-.47-4s1.12 1.42 2 3.31 1.48 3.53 1.02 3.8zM1228.3 857.51c-.35.37-1.91-.48-3.36-2.11s-2-3.49-1.69-3.69 1.53 1 2.93 2.48 2.49 2.93 2.12 3.32zM1238.72 848c-.23.46-2 0-3.73-1.2s-2.81-2.85-2.5-3.13 1.73.56 3.42 1.65 3.09 2.19 2.81 2.68zM1246.91 836.56c-.17.47-1.91.36-3.88-.47s-3.25-2.25-3-2.6 1.8.19 3.66 1 3.38 1.58 3.22 2.07zM1253.18 824c-.09.49-1.81.64-3.87.13s-3.53-1.73-3.34-2.12 1.79-.09 3.73.39 3.57 1.12 3.48 1.6zM1257.84 810.83c0 .5-1.74.86-3.84.61s-3.71-1.26-3.56-1.67 1.78-.32 3.77-.09 3.67.64 3.63 1.15zM1261.06 797.22c0 .49-1.65 1-3.77 1s-3.81-.83-3.7-1.26 1.74-.52 3.74-.52 3.67.26 3.73.78zM1262.94 783.36c.07.49-1.54 1.2-3.65 1.41s-3.88-.43-3.8-.87 1.68-.7 3.67-.9 3.71-.15 3.78.36zM1263.57 769.4c.11.48-1.43 1.34-3.51 1.76s-3.89-.06-3.86-.51 1.61-.86 3.58-1.24 3.69-.51 3.79-.01z" fill="#81511d"/><path d="M1205.29 662.67c-31.83 0-57.63 50.26-57.63 112.27s25.8 112.26 57.63 112.26 57.64-50.26 57.64-112.26-25.8-112.27-57.64-112.27zm0 215.2c-29.18 0-52.84-46.08-52.84-102.93S1176.11 672 1205.29 672s52.85 46.09 52.85 102.94-23.66 102.93-52.85 102.93z" fill="#896824"/><path d="M1263 759c.15.55-1.3 1.73-3.34 2.45s-3.88.37-3.89-.15 1.53-1.19 3.45-1.86 3.62-1.03 3.78-.44zM1261.17 742.74c.19.53-1.16 1.88-3.13 2.83s-3.84.84-3.89.32 1.43-1.36 3.3-2.26 3.55-1.44 3.72-.89zM1258 726.77c.23.51-1 2-2.89 3.23s-3.74 1.32-3.83.8 1.31-1.53 3.09-2.67 3.42-1.88 3.63-1.36zM1253.44 711.28c.29.47-.76 2.15-2.53 3.62s-3.59 1.85-3.73 1.35 1.14-1.7 2.79-3.08 3.18-2.38 3.47-1.89zM1247.25 696.56c.33.42-.54 2.28-2.11 4s-3.36 2.44-3.55 2 1-1.88 2.44-3.54 2.88-2.91 3.22-2.46zM1239.16 683.1c.39.35-.18 2.38-1.49 4.43s-3 3.11-3.22 2.71.68-2 1.89-4 2.41-3.5 2.82-3.14zM1228.87 671.8c.45.23.28 2.39-.62 4.76s-2.32 3.85-2.62 3.54.29-2.17 1.1-4.43 1.67-4.12 2.14-3.87zM1216.21 664.27c.51.05.92 2.12.63 4.75s-1.27 4.54-1.63 4.34-.24-2.14 0-4.59.48-4.54 1-4.5zM1202.07 662.46c.49-.18 1.49 1.66 2 4.19s.13 4.81-.25 4.79-.86-1.94-1.39-4.31-.87-4.45-.36-4.67zM1188.4 667.07c.4-.37 1.83.89 3 3s1.5 4.43 1.14 4.6-1.35-1.41-2.52-3.41-2.02-3.8-1.62-4.19zM1176.78 676.54c.29-.49 2 .26 3.59 1.91s2.47 3.72 2.14 4-1.65-.89-3.22-2.41-2.8-2.98-2.51-3.5zM1167.52 689c.19-.54 1.94-.22 3.83 1s3.06 3 2.78 3.35-1.78-.43-3.56-1.51-3.25-2.31-3.05-2.84zM1160.33 703.08c.13-.57 1.87-.6 3.89.18s3.41 2.32 3.19 2.76-1.8 0-3.71-.78-3.5-1.57-3.37-2.16zM1154.89 718.19c0-.58 1.77-.88 3.87-.43s3.63 1.73 3.45 2.2-1.79.25-3.75-.16-3.63-1-3.57-1.61zM1151 733.93c0-.58 1.68-1.12 3.79-1s3.76 1.21 3.64 1.71-1.75.51-3.74.37-3.69-.47-3.69-1.08zM1148.45 750c0-.57 1.58-1.31 3.69-1.43s3.85.73 3.76 1.24-1.7.72-3.69.84-3.72-.01-3.76-.65zM1147.2 766.35c-.09-.57 1.47-1.49 3.56-1.86s3.89.28 3.84.81-1.64.91-3.61 1.26-3.7.38-3.79-.21zM1147.17 782.72c-.13-.56 1.34-1.65 3.4-2.25s3.89-.16 3.89.37-1.56 1.09-3.5 1.66-3.66.8-3.79.22zM1148.35 799c-.16-.54 1.21-1.79 3.23-2.63s3.86-.6 3.89-.08-1.47 1.27-3.35 2-3.59 1.31-3.77.71zM1150.82 815.16c-.21-.52 1.07-1.95 3-3s3.79-1.07 3.87-.56-1.36 1.44-3.18 2.46-3.46 1.64-3.69 1.1zM1154.67 830.92c-.26-.49.89-2.09 2.71-3.42s3.68-1.57 3.8-1.07-1.23 1.61-3 2.87-3.24 2.13-3.51 1.62zM1160 846.08c-.32-.44.68-2.23 2.35-3.83s3.49-2.14 3.65-1.66-1.08 1.81-2.64 3.32-3.01 2.63-3.36 2.17zM1167.13 860.24c-.36-.39.38-2.33 1.83-4.23s3.18-2.76 3.4-2.33-.82 2-2.18 3.77-2.67 3.2-3.05 2.79zM1176.28 872.77c-.42-.3 0-2.4 1.1-4.61s2.68-3.48 3-3.12-.5 2.12-1.54 4.23-2.12 3.81-2.56 3.5zM1187.77 882.45c-.5-.12-.57-2.34 0-4.83s1.86-4.23 2.19-4-.06 2.23-.57 4.58-1.1 4.38-1.62 4.25zM1201.37 887.31c-.5.06-1.21-1.94-1.31-4.53s.59-4.75 1-4.66.55 2.07.72 4.53.12 4.59-.41 4.66zM1215.54 885.83c-.22.15-.64-.15-1.11-.79a11.18 11.18 0 0 1-1.44-2.85c-.84-2.44-.85-4.68-.47-4.74s1.12 1.66 2 3.88 1.48 4.2 1.02 4.5zM1228.3 878.55c-.35.43-1.91-.56-3.36-2.47s-2-4.09-1.69-4.32 1.53 1.14 2.93 2.91 2.49 3.43 2.12 3.88zM1238.72 867.39c-.23.53-2 0-3.73-1.4s-2.81-3.34-2.5-3.68 1.73.66 3.42 1.94 3.09 2.59 2.81 3.14zM1246.91 854c-.17.56-1.91.42-3.88-.55s-3.25-2.63-3-3 1.8.22 3.66 1.12 3.38 1.87 3.22 2.43zM1253.18 839.33c-.09.58-1.81.75-3.87.15s-3.53-2-3.34-2.48 1.79-.11 3.73.45 3.57 1.28 3.48 1.88zM1257.84 823.87c0 .58-1.74 1-3.84.71s-3.71-1.47-3.56-2 1.78-.37 3.77-.1 3.67.79 3.63 1.39zM1261.06 807.92c0 .58-1.65 1.22-3.77 1.21s-3.81-1-3.7-1.48 1.74-.61 3.74-.6 3.67.27 3.73.87zM1262.94 791.69c.07.58-1.54 1.41-3.65 1.65s-3.88-.5-3.8-1 1.68-.82 3.67-1.05 3.71-.2 3.78.4zM1263.57 775.34c.11.56-1.43 1.57-3.51 2s-3.89-.06-3.86-.58 1.61-1 3.58-1.46 3.69-.55 3.79.04z" fill="#81511d"/><path d="M1206.91 692.54c0 .83-1 1.49-2.27 1.49-1.25 0-2.27-.66-2.27-1.49v-15.86c0-.82 1-1.49 2.27-1.49 1.25 0 2.27.67 2.27 1.49z" fill="#59511f"/><path fill="#614d21" d="M968.76-.19h6.05v110.38h-6.05z"/><circle cx="969.88" cy="148.33" r="31.28" fill="#d6a949"/><path d="M969.88 117a31.29 31.29 0 1 0 31.29 31.29A31.29 31.29 0 0 0 969.88 117zm-4.62 59.15c-14.46 0-26.19-12.47-26.19-27.86s11.73-27.87 26.19-27.87 26.19 12.48 26.19 27.87-11.73 27.9-26.19 27.9z" fill="#ad883b"/><path fill="#7b7251" d="M1066.02 157.82H873.75l52.27-75.6h87.72l52.28 75.6z"/><path d="M1013.06 157.82h53l-52.28-75.6h-29.45q13.52 38.12 28.73 75.6z" fill="#6c6347"/><path fill="#a7dacd" d="M800.16 353.64h328.87v381.8H800.16z"/><path d="M1128.28 735.43v-97.12a66.37 66.37 0 0 0-21-10.41c-3.27-1-6.59-1.92-9.93-2.72l-4-30.58 8.67.6c-4-3.23-5.87-17-5.87-17-9 2.44-38.62-9.7-38.62-9.7-7.26 9.71-26 21.8-26 21.8l11.67.8-1.58 14.28a57.56 57.56 0 0 0-10.84 1.66 9.65 9.65 0 0 0-3.63-3.78 8.33 8.33 0 0 0-1.9 3.64c-.06.53-.12 1.06-.15 1.61-2.87.78-5.73 1.58-8.62 2.24a11.23 11.23 0 0 0-3.68-4.47c-2.24.75-.79 1.5-1.49 3 0 .81.06 1.64.11 2.49a44.69 44.69 0 0 1-6.93.58l-4.21 4.22.78 1.83a101.2 101.2 0 0 0 10.88-1.07c.31 2.44.75 4.91 1.29 7.28a285 285 0 0 0-48.73 13.75 122.25 122.25 0 0 0-17.79-8.82c.23-1.73-1.33-3.51-5.66-5.09-2.26-6.81-3.77-16.63-13.59-10.59 0-9.07-18.88-7.56-18.13 1.52-4.39-1-5.6.55-5.61 2.65q-4-.64-8-1.16c-4.83-.67-9.43-1.1-13.86-1.33-.42-8.83 7.46-12.24 12.19-18.51 5.12 6.69 23.17.84 28.32-3.58-8.32-1.92-15.55-1.67-23.08-1.09-4.58-1.15-11.34-.93-16.19 1.85 2.71 1.35 6 2.71 9.41 2.42-6.24 3-8.17 8.7-14.91.6a13.84 13.84 0 0 1-2.61-4.45l2.23-.49V590a5.79 5.79 0 0 0-2.6-.41 18.43 18.43 0 0 1 1.41-4.9c2.06-.56 3.75-1.41 4.51-2.48 10.85 3.57 28.56 2.64 39.07-1.57-9-3.75-21.76-3.75-30-6 .75-1.5 1.5-4.5 2.25-6-3.75 0-8.25-.75-12 0-1.5-5.26-12-3.76-15.75 1.5l1.5-3c-12-1.51-20.26 7.5-4.5 8.25-9 .75-18.76.75-26.27 5.25 6.2 4.65 12.75 2.9 19.42.87 2.13 2.2 5 4.9 7.89 7.89a15 15 0 0 0-6.67 2.1c2.79 2.39 6.86 2.87 11.08 2.57 6.08 6.77 11.39 14.39 10.6 21.08a192.78 192.78 0 0 0-28.45 1.64 29.26 29.26 0 0 0 .39-3.88c-1.5 1.5-3.75 2.25-5.25 3.75.75-2.25-.75-5.25 0-7.51-2.25 2.26-6 4.51-7.51 6.76 0-3-2.25-6.76-2.25-9.76-.75 3.75-3 6.76-3 10.51a52.16 52.16 0 0 1-3.75-9.76v11.57a38.57 38.57 0 0 1-3-4.41c.66 1.9 1.31 4.08 1.88 6.19-8.21 1.13-16.76 2.15-26.12 2.63v112.6zM1033 613.15a66.3 66.3 0 0 0 8.34-2.75l-1.21 10.6q-4 .3-8 .73a19.07 19.07 0 0 0 .87-8.58zm-7.29 1.73a31.28 31.28 0 0 0 2 7.42q-4.46.57-8.89 1.3a28.55 28.55 0 0 0-.34-7.33c2.35-.41 4.79-.88 7.19-1.39zm-155.89-25.74h-4.86c-3.4-2.07-5.1-6.32-8-8.61a46.42 46.42 0 0 1 6.32-1.52c-3.16 5 2.55 6.69 8.32 6.32a29.39 29.39 0 0 0-1.78 3.81z" fill="#209fad"/><path fill="#e1f2f1" d="M808.48 361.2h310.73v107.36H808.48z"/><path d="M786.55 337.76v412.79h355.34V337.76zm329.63 383.31H812.26V368h303.92z" fill="#6e4a21"/><path d="M786.55 337.76v412.79h355.34V337.76zM1129 735.43H800.16V353.64H1129v381.79z" fill="#805a25"/><path fill="#805a25" d="M800.16 460.24h328.87v19.66H800.16z"/><path fill="#6e4a21" d="M800.16 468.55h328.87v11.34H800.16z"/><path fill="#fff" d="M941.18 460.24l-57.74-.4 90.34-91.08 57.74.4-90.34 91.08zM1062.37 524.5a8.61 8.61 0 0 0-8.44-6.93 9.87 9.87 0 0 0-1.23.1v-.25a17.68 17.68 0 0 0-34.32-6 15 15 0 0 0-16.69 7.71 10.94 10.94 0 0 0-16.14 5.35zM963 546.42a11.85 11.85 0 0 0-13.36-9.42v-.35a24.45 24.45 0 0 0-47.46-8.27A20.83 20.83 0 0 0 879.1 539a15.11 15.11 0 0 0-22.31 7.39z"/><path fill="#9c7a34" d="M190.04 5.11h14.36v1006.28h-14.36z"/><path fill="#80642b" d="M193.07 5.11h9.07v1006.28h-9.07z"/><path fill="#9c7a34" d="M37.33 5.11h14.36v1006.28H37.33z"/><path fill="#80642b" d="M39.59 5.11h9.07v1006.28h-9.07z"/><path fill="#9c7a34" d="M201.38 549.45h144.4v14.36h-144.4z"/><path fill="#80642b" d="M201.38 551.72h144.4v9.07h-144.4z"/><path fill="#9c7a34" d="M48.67 763.41h144.4v14.36H48.67z"/><path fill="#80642b" d="M48.67 766.43h144.4v9.07H48.67z"/><path fill="#9c7a34" d="M-3.5 241.74h43.09v14.36H-3.5z"/><path fill="#80642b" d="M-3.5 244.77h43.09v9.07H-3.5z"/><path d="M27.5 503.52c0 1-1.36 1.88-3 1.88-1.67 0-3-.84-3-1.88V260.06c0-1 1.35-1.88 3-1.88 1.67 0 3 .84 3 1.88zM8.6 240.52c0 .87-1.36 1.57-3 1.57-1.67 0-3-.7-3-1.57V36.89c0-.87 1.35-1.58 3-1.58 1.67 0 3 .71 3 1.58zM166.61 509.32c0 2.14-1.36 3.87-3 3.87-1.67 0-3-1.73-3-3.87V8.4c0-2.14 1.35-3.87 3-3.87 1.67 0 3 1.73 3 3.87zM82.69 254.4c0 1-1.36 1.89-3 1.89-1.67 0-3-.85-3-1.89V10.94c0-1 1.35-1.88 3-1.88 1.67 0 3 .85 3 1.88zM120.49 761.65c0 .5-1.35.91-3 .91-1.67 0-3-.41-3-.91V643.46c0-.51 1.36-.92 3-.92 1.67 0 3 .41 3 .92zM163.58 852c0 .31-1.35.56-3 .56-1.67 0-3-.25-3-.56v-71.5c0-.3 1.36-.55 3-.55 1.67 0 3 .25 3 .55zM134.1 826.1c0 .2-1.36.35-3 .35-1.67 0-3-.15-3-.35v-45.8c0-.19 1.35-.35 3-.35 1.67 0 3 .16 3 .35zM68.32 929.76c0 .64-1.35 1.15-3 1.15-1.67 0-3-.52-3-1.15V781.1c0-.64 1.36-1.15 3-1.15 1.67 0 3 .51 3 1.15zM241.45 292.27c0 1.21-1.35 2.2-3 2.2-1.67 0-3-1-3-2.2V6.73c0-1.22 1.35-2.2 3-2.2 1.67 0 3 1 3 2.2zM308 546.68a3 3 0 0 1-3 3 3 3 0 0 1-3-3V163.76a3 3 0 0 1 3-3 3 3 0 0 1 3 3zM238.43 656.58c0 .4-1.36.72-3 .72-1.68 0-3-.32-3-.72v-93.94c0-.4 1.35-.73 3-.73 1.66 0 3 .33 3 .73zM324.62 1012.21c0 .92-1.36 1.67-3 1.67-1.67 0-3-.75-3-1.67V797c0-.92 1.35-1.66 3-1.66 1.67 0 3 .74 3 1.66zM305 1013.25c0 .35-1.35.63-3 .63-1.67 0-3-.28-3-.63v-81.54c0-.35 1.36-.63 3-.63 1.67 0 3 .28 3 .63z" fill="#85682c"/><path fill="#9c7a34" d="M1724.03.57h14.36V1012.9h-14.36z"/><path fill="#80642b" d="M1726.3.57h9.07V1012.9h-9.07z"/><path fill="#9c7a34" d="M1876.75.57h14.36V1012.9h-14.36z"/><path fill="#80642b" d="M1879.78.57h9.07V1012.9h-9.07z"/><path fill="#9c7a34" d="M1582.66 544.91h144.4v14.36h-144.4z"/><path fill="#80642b" d="M1582.66 547.18h144.4v9.07h-144.4z"/><path fill="#9c7a34" d="M1735.38 758.87h144.4v14.36h-144.4z"/><path fill="#80642b" d="M1735.38 761.89h144.4v9.07h-144.4z"/><path fill="#9c7a34" d="M1888.85 237.21h43.09v14.36h-43.09z"/><path fill="#80642b" d="M1888.85 240.23h43.09v9.07h-43.09z"/><path d="M1901 499.07c0 1 1.35 1.88 3 1.88 1.67 0 3-.84 3-1.88V255.61c0-1-1.35-1.88-3-1.88-1.67 0-3 .84-3 1.88zM1919.09 236.07c0 .87 1.36 1.57 3 1.57 1.67 0 3-.7 3-1.57V32.44c0-.87-1.35-1.58-3-1.58-1.67 0-3 .71-3 1.58zM1761.84 504.87c0 2.14 1.35 3.87 3 3.87 1.67 0 3-1.73 3-3.87V4c0-2.14-1.35-3.87-3-3.87-1.67 0-3 1.73-3 3.87zM1845.76 250c0 1 1.35 1.89 3 1.89 1.67 0 3-.85 3-1.89V6.49c0-1-1.35-1.88-3-1.88-1.67 0-3 .85-3 1.88zM1808 757.2c0 .5 1.36.91 3 .91 1.67 0 3-.41 3-.91V639c0-.51-1.35-.92-3-.92-1.67 0-3 .41-3 .92zM1764.86 847.53c0 .31 1.35.55 3 .55 1.67 0 3-.24 3-.55v-71.48c0-.3-1.36-.55-3-.55-1.67 0-3 .25-3 .55zM1794.35 821.65c0 .2 1.35.35 3 .35 1.67 0 3-.15 3-.35v-45.8c0-.19-1.35-.35-3-.35-1.67 0-3 .16-3 .35zM1860.12 925.31c0 .63 1.36 1.15 3 1.15 1.67 0 3-.52 3-1.15V776.65c0-.64-1.36-1.15-3-1.15-1.66 0-3 .51-3 1.15zM1687 287.82c0 1.21 1.35 2.2 3 2.2 1.67 0 3-1 3-2.2V2.28c0-1.22-1.36-2.2-3-2.2-1.67 0-3 1-3 2.2zM1619.7 542.23a3 3 0 0 0 3 3 3 3 0 0 0 3-3V159.31a3 3 0 0 0-3-3 3 3 0 0 0-3 3zM1690 652.13c0 .4 1.36.72 3 .72 1.67 0 3-.32 3-.72v-93.94c0-.4-1.35-.73-3-.73-1.67 0-3 .33-3 .73zM1603.83 1007.76c0 .92 1.35 1.67 3 1.67 1.67 0 3-.75 3-1.67V792.51c0-.92-1.35-1.66-3-1.66-1.67 0-3 .74-3 1.66zM1622.73 1008.8c0 .35 1.35.63 3 .63 1.67 0 3-.28 3-.63v-81.55c0-.34-1.35-.63-3-.63-1.67 0-3 .29-3 .63z" fill="#85682c"/><path d="M1126 814.06H966.38c-6.12-8.29-15.57-15.08-27.63-15.53.69 7.54 9.52 21.86 15.73 26.84-8.35 27.68-26.28 101.81-1.65 181.24-13.72-3.32-30.41 1.26-32 15.36H1126V814.06z" fill="#cda432"/><path d="M1126 814.06h-33c8.82 14.47 13.86 31.43 15.76 48.14 1.29 11.33 1.38 23.2-1.29 34.36-2.89 12.06-8.83 23-16.13 32.9-6.39 8.71-14 16.52-20.11 25.38a139.21 139.21 0 0 0-12.77 23c-6.15 13.89-10.79 28.91-12.55 44.13h80V814.06zM959.72 965.32s35.26 31.37 56 32.06c0 0-41.88 5.51-56-32.06z" fill="#91782d"/><path d="M1117.77 820.89c0-7.54 5.65-25.43 15.06-25.43 19.78 0-8.47 20.72-13.18 24.48" fill="#91782d"/><path d="M1120.59 1020.53c.94 0 4.71 2.82 6.59 2.82 18.84 4.71 9.42-3.76 3.77-13.18-2.82-5.65-4.71-1.89-5.65-10.36 0-4.71 5.65-12.24 7.53-16.95 3.77-10.36 5.66-20.72 7.54-32 6.59-40.49-7.54-80-13.19-119.59-.94-6.6 0-13.19-4.7-17-10.36 13.18-3.77 41.43-3.77 56.5 0 17 .94 32 .94 48 0 25.43-11.3 70.63 1.88 92.29M979.87 993.69c.28.32-.66 1.71-2.25 3.21s-3.38 2.11-3.63 1.65.89-1.66 2.48-3 3.11-2.19 3.4-1.86zM975.43 982c.22.39-1.07 1.55-3 2.57s-3.83 1.11-3.94.63 1.34-1.34 3.18-2.21 3.53-1.38 3.76-.99zM973.15 969.29c.15.43-1.29 1.42-3.34 2.13s-3.95.53-4 .05 1.51-1.1 3.46-1.72 3.73-.91 3.88-.46zM972.22 956.17c.12.45-1.41 1.33-3.51 1.86s-4 .18-4-.3 1.61-1 3.6-1.41 3.78-.62 3.91-.15zM972.12 942.89c.1.45-1.46 1.27-3.6 1.69s-4 0-3.95-.49 1.65-.88 3.66-1.24 3.77-.44 3.89.04zM972.46 929.5c.1.46-1.49 1.25-3.63 1.62s-4-.11-3.94-.57 1.66-.84 3.68-1.16 3.79-.39 3.89.11zM972.74 915.91c.11.46-1.44 1.32-3.58 1.75s-4 0-3.95-.46 1.64-.87 3.64-1.26 3.77-.51 3.89-.03zM972.6 902.41c.12.46-1.43 1.32-3.55 1.79s-4 0-4-.41 1.63-.91 3.63-1.32 3.8-.54 3.92-.06zM972.55 889c.1.46-1.45 1.28-3.58 1.72s-4 0-4-.47 1.64-.89 3.65-1.26 3.82-.44 3.93.01zM972.9 875.72c.08.46-1.51 1.21-3.65 1.56s-4-.15-3.94-.62 1.68-.82 3.7-1.11 3.8-.31 3.89.17zM973.94 862.54c0 .46-1.58 1.11-3.75 1.33s-4-.4-3.89-.87 1.73-.72 3.77-.88 3.8-.05 3.87.42zM976 849.63c0 .45-1.66.93-3.83 1s-3.92-.77-3.8-1.24 1.78-.56 3.83-.52 3.8.28 3.8.76zM979.61 837.27c-.05.45-1.78.64-3.94.35s-3.76-1.33-3.57-1.78 1.87-.3 3.87 0 3.69.97 3.64 1.43zM1002 990.41c.23.38-1 1.63-2.88 2.75s-3.78 1.32-3.89.84 1.27-1.41 3.07-2.39 3.47-1.61 3.7-1.2zM999 977.74c.18.42-1.21 1.5-3.22 2.34s-3.92.74-4 .26 1.45-1.19 3.36-1.92 3.68-1.12 3.86-.68zM997.33 964.61c.15.45-1.33 1.41-3.41 2.07s-4 .4-4-.08 1.55-1.05 3.51-1.62 3.74-.83 3.9-.37zM996.51 951.3c.13.45-1.4 1.34-3.51 1.87s-4 .18-4-.29 1.61-1 3.6-1.43 3.78-.63 3.91-.15zM996.29 937.84c.11.46-1.44 1.33-3.57 1.8s-4 0-4-.41 1.63-.91 3.64-1.33 3.81-.55 3.93-.06zM996 924.28c.12.46-1.42 1.33-3.54 1.81s-4 .08-4-.38 1.62-.93 3.62-1.35 3.79-.56 3.92-.08zM995.89 910.8c.11.46-1.44 1.3-3.57 1.75s-4 0-4-.46 1.63-.89 3.64-1.28 3.82-.48 3.93-.01zM996.08 897.35c.09.47-1.47 1.26-3.61 1.66s-4-.09-4-.55 1.65-.86 3.67-1.2 3.86-.39 3.94.09zM996.67 883.94c.07.47-1.52 1.21-3.67 1.54s-4-.22-3.93-.68 1.68-.81 3.71-1.07 3.8-.27 3.89.21zM997.74 870.6c.06.46-1.56 1.14-3.72 1.38s-4-.38-3.9-.84 1.71-.74 3.75-.92 3.81-.11 3.87.38zM999.43 857.35c0 .47-1.63 1-3.79 1.19s-3.95-.57-3.86-1 1.77-.65 3.81-.73 3.81.06 3.84.54zM1001.86 844.26c0 .47-1.71 1-3.86 1s-3.91-.81-3.79-1.26 1.8-.55 3.85-.5 3.8.28 3.8.76zM1024.62 1007.08c.21.36-1.1 1.5-3 2.5s-3.81 1.16-3.93.7 1.35-1.3 3.19-2.18 3.52-1.4 3.74-1.02zM1022.42 995.14c.16.4-1.29 1.34-3.35 2s-4 .53-4 .07 1.52-1 3.47-1.64 3.72-.85 3.88-.43zM1021.6 982.78c.12.42-1.4 1.24-3.52 1.74s-4 .16-4-.29 1.61-.91 3.6-1.33 3.79-.56 3.92-.12zM1021.56 970.22c.1.44-1.46 1.2-3.59 1.6s-4 0-4-.47 1.65-.83 3.66-1.16 3.82-.42 3.93.03zM1021.79 957.52c.11.44-1.46 1.21-3.6 1.59s-4-.07-4-.5 1.65-.8 3.66-1.14 3.83-.41 3.94.05zM1021.72 944.56c.13.45-1.4 1.36-3.51 1.83s-4 .1-4-.3 1.61-.85 3.6-1.32 3.78-.69 3.91-.21zM1021 931.91c.13.42-1.38 1.27-3.48 1.78s-4 .17-4-.27 1.59-.9 3.58-1.35 3.8-.61 3.9-.16zM1020.73 919.3c.12.43-1.42 1.23-3.54 1.69s-4 .07-4-.37 1.62-.87 3.62-1.26 3.8-.51 3.92-.06zM1020.74 906.67c.1.44-1.46 1.21-3.59 1.61s-4 0-4-.46 1.65-.83 3.66-1.17 3.81-.43 3.93.02zM1021 894c.1.43-1.48 1.18-3.62 1.55s-4-.09-4-.52 1.66-.8 3.68-1.12 3.81-.34 3.94.09zM1021.36 881.34c.1.44-1.48 1.18-3.62 1.52s-4-.12-4-.56 1.67-.78 3.69-1.07 3.84-.34 3.93.11zM1021.81 868.64c.1.44-1.49 1.18-3.63 1.52s-4-.14-3.94-.57 1.67-.78 3.69-1.07 3.78-.34 3.88.12zM1022.23 855.91c.1.44-1.48 1.19-3.62 1.54s-4-.11-3.94-.55 1.66-.78 3.67-1.09 3.79-.36 3.89.1zM1022.53 843.15c.11.44-1.46 1.21-3.59 1.59s-4-.07-4-.5 1.65-.8 3.66-1.13 3.82-.42 3.93.04zM1056.38 994.61c.17.39-1.14 1.46-3.11 2.37s-3.87.95-4 .49 1.38-1.23 3.27-2 3.64-1.27 3.84-.86zM1054.48 982.3c.16.41-1.3 1.35-3.36 2s-4 .47-4 0 1.53-1 3.48-1.61 3.72-.82 3.88-.39zM1053.59 969.67c.13.43-1.38 1.29-3.49 1.82s-4 .21-4-.23 1.6-.94 3.59-1.4 3.77-.64 3.9-.19zM1053.22 956.9c.12.44-1.42 1.26-3.54 1.73s-4 .08-4-.36 1.63-.88 3.63-1.29 3.79-.54 3.91-.08zM1053 944c.12.44-1.42 1.28-3.54 1.74s-4 .08-4-.36 1.62-.87 3.62-1.29 3.81-.54 3.92-.09zM1052.44 931c.14.44-1.36 1.34-3.46 1.89s-4 .25-4-.19 1.59-.94 3.56-1.44 3.76-.73 3.9-.26zM1051.58 918.11c.14.43-1.36 1.34-3.45 1.91s-4 .28-4-.16 1.58-1 3.56-1.47 3.74-.73 3.89-.28zM1050.71 905.28c.14.43-1.36 1.33-3.46 1.89s-4 .26-4-.18 1.58-1 3.56-1.45 3.76-.71 3.9-.26zM1050 892.48c.14.43-1.38 1.3-3.48 1.83s-4 .21-4-.23 1.6-.93 3.58-1.4 3.75-.68 3.9-.2zM1049.52 879.7c.12.43-1.42 1.27-3.53 1.75s-4 .11-4-.33 1.61-.9 3.61-1.31 3.79-.56 3.92-.11zM1049.43 867c.11.44-1.46 1.22-3.59 1.62s-4 0-4-.46 1.65-.84 3.67-1.19 3.81-.47 3.92.03zM1049.88 854.26c.08.44-1.53 1.14-3.68 1.45s-4-.2-3.92-.65 1.69-.77 3.72-1 3.79-.25 3.88.2zM1051 841.68c0 .44-1.6 1-3.77 1.21s-4-.45-3.88-.9 1.75-.66 3.79-.78 3.86.02 3.86.47zM1099.67 1003.28c.21.42-1.12 1.57-3.1 2.48s-3.88.9-4 .45 1.41-1.22 3.28-2 3.61-1.36 3.82-.93zM1096.75 990.34c.21.42-1.13 1.56-3.12 2.45s-3.88.88-4 .43 1.41-1.22 3.29-2 3.62-1.32 3.83-.88zM1093.94 977.38c.2.42-1.15 1.55-3.14 2.42s-3.9.84-4 .39 1.42-1.2 3.31-2 3.62-1.25 3.83-.81zM1091.26 964.4c.2.42-1.17 1.53-3.17 2.39s-3.9.79-4 .34 1.44-1.18 3.33-2 3.63-1.13 3.84-.73zM1088.74 951.39c.19.43-1.18 1.53-3.19 2.35s-3.92.74-4 .29 1.45-1.16 3.35-1.91 3.64-1.12 3.84-.73zM1086.41 938.36c.18.43-1.21 1.5-3.23 2.3s-3.93.68-4 .23 1.46-1.15 3.38-1.86 3.65-1.11 3.85-.67zM1084.31 925.3c.16.44-1.25 1.48-3.28 2.24s-3.94.61-4 .16 1.49-1.12 3.41-1.8 3.69-1.04 3.87-.6zM1082.47 912.21c.17.44-1.27 1.46-3.33 2.17s-4 .54-4 .08 1.52-1.09 3.46-1.73 3.7-.97 3.87-.52zM1080.92 899.09c.16.44-1.3 1.43-3.37 2.09s-4 .45-4 0 1.54-1 3.49-1.65 3.72-.89 3.88-.44zM1079.67 886c.15.44-1.33 1.39-3.41 2s-4 .35-4-.11 1.56-1 3.53-1.56 3.73-.84 3.88-.33zM1078.76 872.79c.13.44-1.37 1.35-3.47 1.91s-4 .24-4-.22 1.59-1 3.57-1.46 3.75-.7 3.9-.23zM1078.2 859.61c.13.45-1.4 1.31-3.51 1.81s-4 .13-4-.32 1.61-.93 3.6-1.37 3.78-.59 3.91-.12zM1078 846.43c.1.45-1.44 1.27-3.56 1.71s-4 0-4-.45 1.63-.88 3.64-1.26 3.84-.43 3.92 0z" fill="#91782d"/><path d="M1118.5 984.66c.3.36-.74 1.78-2.44 3.14s-3.56 1.81-3.75 1.36 1.07-1.56 2.7-2.78 3.18-2.09 3.49-1.72zM1113.3 972.48c.25.39-.91 1.71-2.73 2.89s-3.71 1.44-3.87 1 1.21-1.44 3-2.51 3.3-1.79 3.6-1.38zM1109.18 959.82c.24.41-1 1.63-2.94 2.66s-3.83 1.14-3.93.67 1.32-1.33 3.14-2.25 3.49-1.51 3.73-1.08zM1106 946.85c.2.42-1.15 1.56-3.12 2.46s-3.89.88-4 .41 1.41-1.24 3.29-2.05 3.59-1.27 3.83-.82zM1103.54 933.65c.18.44-1.22 1.51-3.25 2.3s-3.93.66-4 .19 1.47-1.16 3.39-1.86 3.67-1.08 3.86-.63zM1101.73 920.33c.16.44-1.28 1.45-3.34 2.15s-4 .48-4 0 1.52-1.09 3.47-1.71 3.71-.9 3.87-.44zM1100.47 906.91c.15.45-1.34 1.41-3.43 2s-4 .33-4-.14 1.57-1 3.54-1.58 3.74-.75 3.89-.28zM1099.63 893.43c.14.45-1.37 1.37-3.48 1.93s-4 .21-4-.26 1.6-1 3.58-1.47 3.76-.63 3.9-.2zM1099.14 879.91c.12.46-1.41 1.34-3.53 1.85s-4 .12-4-.35 1.62-.95 3.61-1.39 3.78-.59 3.92-.11zM1098.91 866.35c.11.47-1.43 1.33-3.55 1.8s-4 .05-4-.42 1.63-.91 3.63-1.32 3.8-.54 3.92-.06zM1098.86 852.78c.11.46-1.45 1.31-3.58 1.75s-4 0-4-.45 1.64-.9 3.65-1.29 3.81-.5 3.93-.01zM1098.9 839.17c.11.47-1.45 1.31-3.58 1.75s-4 0-4-.47 1.64-.89 3.65-1.28 3.82-.48 3.93 0z" fill="#91782d"/><ellipse cx="879.05" cy="907.39" rx="70.79" ry="16.66" fill="#676257"/><path d="M937.65 1029.78c-58.6 17-117.09 1.11-117.19 0 0-.06-11.73-124.82-11.73-124.82 55.91 15.4 140.51 1.41 140.64 0z" fill="#c9c3b1"/><path d="M838 910.34a189.89 189.89 0 0 1-29.27-5.34s11.72 124.76 11.73 124.82c0 .47 10.76 3.66 27.59 5.82C845.43 1003.2 841 948 838 910.34zM863.34 912l4.6 125.32c20.3 1 45-.36 69.71-7.55L949.37 905c-.09 1-41.82 8.14-86.03 7z" fill="#a09a87"/><path d="M912.45 910.33c-1.62 41-3.72 96.95-4.79 125.57a193.8 193.8 0 0 0 30-6.12L949.37 905c-.05.56-15.21 3.4-36.92 5.33z" fill="#858070"/><path d="M811.11 930.31s56.45 16.71 135.88 0" fill="none" stroke="#807b6c" stroke-miterlimit="10" stroke-width="3.024"/><path d="M826.31 985.28c4.75 4.74 11.53 7.11 11.19 15.25-.34 4.4-3.39 9.15-5.42 13.21M831.57 959.56c2.19 5.1 3.25 9.22-.31 13.56" fill="#858070"/><path d="M808.73 901.21S785.1 943.13 815 968s123.4-29.66 134.37-66.77" fill="none" stroke="#676257" stroke-miterlimit="10" stroke-width="4.536"/><path d="M1311.25 475.36h34v15.87a7.56 7.56 0 0 0 7.56 7.56h15.88a7.56 7.56 0 0 0 7.56-7.56v-15.87h152v15.87a7.56 7.56 0 0 0 7.56 7.56h15.88a7.56 7.56 0 0 0 7.56-7.56v-15.87H1599c10.8 0 19.55-8.46 19.55-18.9s-8.75-18.9-19.55-18.9h-287.75c-10.79 0-19.55 8.46-19.55 18.9s8.76 18.9 19.55 18.9zM1599 890.42h-287.75c-10.79 0-19.55 8.46-19.55 18.9s8.76 18.9 19.55 18.9h34v15.88a7.57 7.57 0 0 0 7.56 7.56h15.88a7.57 7.57 0 0 0 7.56-7.56v-15.88h152v15.88a7.57 7.57 0 0 0 7.56 7.56h15.88a7.57 7.57 0 0 0 7.56-7.56v-15.88H1599c10.8 0 19.55-8.46 19.55-18.9s-8.73-18.9-19.55-18.9zM627.26 437.56H339.49c-10.79 0-19.55 8.46-19.55 18.9s8.76 18.9 19.55 18.9h39.56v15.87a7.56 7.56 0 0 0 7.56 7.56h15.88a7.56 7.56 0 0 0 7.56-7.56v-15.87H562v15.87a7.56 7.56 0 0 0 7.56 7.56h15.88a7.56 7.56 0 0 0 7.56-7.56v-15.87h34.25c10.8 0 19.55-8.46 19.55-18.9s-8.74-18.9-19.54-18.9zM627.26 890.42H339.49c-10.79 0-19.55 8.46-19.55 18.9s8.76 18.9 19.55 18.9h39.56v15.88a7.57 7.57 0 0 0 7.56 7.56h15.88a7.57 7.57 0 0 0 7.56-7.56v-15.88H562v15.88a7.57 7.57 0 0 0 7.56 7.56h15.88a7.57 7.57 0 0 0 7.56-7.56v-15.88h34.25c10.8 0 19.55-8.46 19.55-18.9s-8.74-18.9-19.54-18.9z" fill="#745b26"/><path d="M1551.66 479.14h-15.88a7.57 7.57 0 0 1-7.56-7.56V448.9a7.56 7.56 0 0 1 7.56-7.56h15.88a7.56 7.56 0 0 1 7.56 7.56v22.68a7.57 7.57 0 0 1-7.56 7.56zM1368.7 479.14h-15.88a7.57 7.57 0 0 1-7.56-7.56V448.9a7.56 7.56 0 0 1 7.56-7.56h15.88a7.56 7.56 0 0 1 7.56 7.56v22.68a7.57 7.57 0 0 1-7.56 7.56z" fill="#4b300d"/><path d="M1618.32 436.8c0 10.44-8.75 18.9-19.55 18.9H1311c-10.8 0-19.55-8.46-19.55-18.9 0-10.44 8.75-18.9 19.55-18.9h287.77c10.8 0 19.55 8.46 19.55 18.9z" fill="#67491a"/><path d="M1291.55 435.29a18.16 18.16 0 0 0-.1 1.82c0 10.27 8.76 18.59 19.55 18.59h287.77c10.8 0 19.55-8.32 19.55-18.59a18.16 18.16 0 0 0-.1-1.82z" fill="#573913"/><path d="M1551.66 932h-15.88a7.56 7.56 0 0 1-7.56-7.56v-22.68a7.56 7.56 0 0 1 7.56-7.56h15.88a7.56 7.56 0 0 1 7.56 7.56v22.68a7.56 7.56 0 0 1-7.56 7.56zM1368.7 932h-15.88a7.56 7.56 0 0 1-7.56-7.56v-22.68a7.56 7.56 0 0 1 7.56-7.56h15.88a7.56 7.56 0 0 1 7.56 7.56v22.68a7.56 7.56 0 0 1-7.56 7.56z" fill="#4b300d"/><path d="M1618.32 889.66c0 10.44-8.75 18.9-19.55 18.9H1311c-10.8 0-19.55-8.46-19.55-18.9 0-10.43 8.75-18.9 19.55-18.9h287.77c10.8 0 19.55 8.47 19.55 18.9z" fill="#67491a"/><path d="M1291.55 888.15c-.06.6-.1 1.21-.1 1.82 0 10.27 8.76 18.59 19.55 18.59h287.77c10.8 0 19.55-8.32 19.55-18.59 0-.61 0-1.22-.1-1.82z" fill="#573913"/><path d="M386.61 479.14h15.88a7.57 7.57 0 0 0 7.56-7.56V448.9a7.56 7.56 0 0 0-7.56-7.56h-15.88a7.56 7.56 0 0 0-7.56 7.56v22.68a7.57 7.57 0 0 0 7.56 7.56zM569.57 479.14h15.88a7.57 7.57 0 0 0 7.56-7.56V448.9a7.56 7.56 0 0 0-7.56-7.56h-15.88a7.56 7.56 0 0 0-7.57 7.56v22.68a7.57 7.57 0 0 0 7.57 7.56z" fill="#4b300d"/><path d="M320.13 436.8c0 10.44 8.75 18.9 19.55 18.9h287.77c10.79 0 19.55-8.46 19.55-18.9 0-10.44-8.76-18.9-19.55-18.9H339.68c-10.8 0-19.55 8.46-19.55 18.9z" fill="#67491a"/><path d="M646.9 435.29a18.16 18.16 0 0 1 .1 1.82c0 10.27-8.76 18.59-19.56 18.59H339.68c-10.8 0-19.55-8.32-19.55-18.59a18.18 18.18 0 0 1 .09-1.82z" fill="#573913"/><path d="M386.61 932h15.88a7.56 7.56 0 0 0 7.56-7.56v-22.68a7.56 7.56 0 0 0-7.56-7.56h-15.88a7.56 7.56 0 0 0-7.56 7.56v22.68a7.56 7.56 0 0 0 7.56 7.56zM569.57 932h15.88a7.56 7.56 0 0 0 7.56-7.56v-22.68a7.56 7.56 0 0 0-7.56-7.56h-15.88a7.56 7.56 0 0 0-7.56 7.56v22.68a7.56 7.56 0 0 0 7.56 7.56z" fill="#4b300d"/><path d="M320.13 889.66c0 10.44 8.75 18.9 19.55 18.9h287.77c10.79 0 19.55-8.46 19.55-18.9 0-10.43-8.76-18.9-19.55-18.9H339.68c-10.8 0-19.55 8.47-19.55 18.9z" fill="#67491a"/><path d="M646.9 888.15c.06.6.1 1.21.1 1.82 0 10.27-8.76 18.59-19.56 18.59H339.68c-10.8 0-19.55-8.32-19.55-18.59 0-.61 0-1.22.09-1.82z" fill="#573913"/></svg>
