<svg data-name="Capa 1" xmlns="http://www.w3.org/2000/svg" viewBox="0 0 286 319.13"><defs><clipPath id="jugar_svg__a"><path d="M170.84 98.5c-3.27-9.41-6.36-35-6.36-35h-40.86s-1.83 8.21-3.91 19.41l-35.93 27.4 3.9 12.07 27.93-14a168.78 168.78 0 0 0-1.78 24c.52 22.52.86 45.3 4.29 47.59s10.76 1.26 11.45 0 1.83-44.07 1.83-44.07 39.49-3.89 41.95-5.5.75-22.49-2.51-31.9z" fill="none"/></clipPath><clipPath id="jugar_svg__b"><path d="M136.21 115.37a4.7 4.7 0 0 0-3.35 4.28c-.29 6.84-.93 23.19-.45 25 .62 2.37 3.57 3.32 4.63 3.51s24.8 3.41 36.52-3a4 4 0 0 0 2.3-3.69c-.14-2.63-3.27-22.32-5.16-24.16-1.7-1.58-22.56-5.58-34.49-1.94z" fill="none"/></clipPath><clipPath id="jugar_svg__c"><rect y="221.13" width="286" height="99" rx="13.03" fill="none"/></clipPath></defs><circle cx="143.03" cy="118.16" r="96" fill="#98d11e"/><path fill="#81aa0f" d="M160.26 11.34L122.84 79.5l-4.72 99.66-83.68-108 42.45-49.11 56.57-14.68 26.8 3.97z"/><path d="M123.62 63.51s-10.3 46.3-9.79 68.82.86 45.3 4.29 47.59 10.76 1.26 11.45 0 1.83-44.07 1.83-44.07 39.49-3.89 41.95-5.5.75-22.44-2.51-31.85-6.36-35-6.36-35z" fill="#fcc184"/><path fill="#fcc184" d="M119.71 82.92l-35.93 27.4 3.9 12.07 27.93-14.01"/><path d="M119.71 83.07a9.91 9.91 0 0 1 4.06-1 13.36 13.36 0 0 1 4.17.46 12.15 12.15 0 0 1 3.84 1.75 9.69 9.69 0 0 1 2.93 3c-1.35-.47-2.51-1-3.73-1.42s-2.4-.82-3.62-1.14-2.45-.62-3.72-.89z" fill="#b26e30" opacity=".71"/><g clip-path="url(#jugar_svg__a)" fill="#b26e30" opacity=".28"><path d="M86.91 115.66S115.38 93.21 127.74 97s12.53 22.49 12.53 22.49 3.52-26.69 32.41-19.61l1-41.34-35.46 3.26-24.72 1.37L86 104.2l-2.9 8.8z"/><path d="M133.14 112.87a4.63 4.63 0 0 0-3.29 4.22c-.29 6.74-.92 22.85-.45 24.68.61 2.33 3.52 3.27 4.56 3.46s24.44 3.36 36-2.91a3.91 3.91 0 0 0 2.27-3.64c-.14-2.59-3.22-22-5.09-23.8-1.71-1.66-22.24-5.59-34-2.01z"/></g><path d="M136.21 115.37a4.7 4.7 0 0 0-3.35 4.28c-.29 6.84-.93 23.19-.45 25 .62 2.37 3.57 3.32 4.63 3.51s24.8 3.41 36.52-3a4 4 0 0 0 2.3-3.69c-.14-2.63-3.27-22.32-5.16-24.16-1.7-1.58-22.56-5.58-34.49-1.94z" fill="#fcc184"/><path d="M142.65 121.34a43.16 43.16 0 0 1 .62 5.28c.13 1.76.17 3.52.18 5.28s0 3.52-.17 5.28a45.24 45.24 0 0 1-.63 5.28 43.19 43.19 0 0 1-.63-5.28c-.13-1.76-.16-3.52-.18-5.28s0-3.52.18-5.28a45.24 45.24 0 0 1 .63-5.28zM153.23 121.34a45.21 45.21 0 0 1 .62 5.28c.13 1.76.16 3.52.18 5.28s-.05 3.52-.18 5.28a43.16 43.16 0 0 1-.62 5.28 43.19 43.19 0 0 1-.63-5.28c-.13-1.76-.16-3.52-.18-5.28s.05-3.52.18-5.28a43.19 43.19 0 0 1 .63-5.28zM164.06 123.83a26.74 26.74 0 0 1 .62 4c.13 1.35.17 2.69.18 4s-.05 2.69-.17 4a26.9 26.9 0 0 1-.63 4 25.68 25.68 0 0 1-.63-4c-.13-1.34-.16-2.69-.18-4s.05-2.69.18-4a25.55 25.55 0 0 1 .63-4z" fill="#b26e30"/><g clip-path="url(#jugar_svg__b)" fill="#b26e30"><path d="M132.62 117.33s11.11-5 10 22.32c0 0 1.14-21-.7-25.42 0 0-3.55-1.88-5.83-.34a13.65 13.65 0 0 0-3.47 3.44zM144 114s9.56.22 9.24 15.9c0 0 .81-13 0-17S144 114 144 114zM156 113.89a18.28 18.28 0 0 1 8.08 15.18s.65-11.74-1.2-15.18-6.88 0-6.88 0zM165 114.75a36.35 36.35 0 0 1 9.13 15.19c2.92 9.59-1.07-15.19-1.07-15.19z" opacity=".32"/></g><path fill="#e7aa6d" d="M121.73 26.5l1.89 37.01h40.86l-.51-40.01-42.24 3z"/><path fill="#6e3318" d="M112.52 26.3l1.83 17.2 55.86 1.35 1.6-19.12-59.29.57z"/><path fill="#294d88" d="M115.15 49.43h55.52v16.25h-55.52z"/><path d="M115.15 49.94h38.3a7.6 7.6 0 0 1 7.6 7.6 7.6 7.6 0 0 1-7.6 7.6h-38.3v-15.2z" fill="#3563a5"/><circle cx="119.13" cy="57.07" r="1.4" fill="#183960"/><circle cx="125.45" cy="57.07" r="1.4" fill="#183960"/><circle cx="131.77" cy="57.07" r="1.4" fill="#183960"/><circle cx="138.1" cy="57.07" r="1.4" fill="#183960"/><circle cx="144.42" cy="57.07" r="1.4" fill="#183960"/><path d="M136 66.31h-2.58a18.43 18.43 0 0 0 0-17.66H136a16.22 16.22 0 0 1 0 17.66z" fill="#c29626"/><path d="M151.94 66.31h-4.54a16.45 16.45 0 0 0 0-17.66h4.54a15.71 15.71 0 0 1 0 17.66z" fill="#294d88"/><path fill="#c29626" d="M132.14 56.32h4.56v1.67h-4.56z"/><path d="M171.58 123.83h-6.26s-2-5.59 2-6.56 4.26 6.56 4.26 6.56zM161.8 121.9h-6.26s-2-5.59 2-6.56 4.26 6.56 4.26 6.56zM152 121.9h-6.26s-2-5.59 2-6.56 4.26 6.56 4.26 6.56zM140.85 123.29h-6.26s-2-5.59 2-6.55 4.26 6.55 4.26 6.55z" fill="#ffd0a9"/><rect y="236.13" width="286" height="84" rx="12" fill="#4c4c4d"/><rect y="219.13" width="286" height="84" rx="12" fill="#4c4c4d"/><path d="M274 219.13H12a12 12 0 0 0-12 12v12a12 12 0 0 1 12-12h262a12 12 0 0 1 12 12v-12a12 12 0 0 0-12-12z" fill="#636366"/><path d="M274 303.13H12a12 12 0 0 1-12-12v16a12 12 0 0 0 12 12h262a12 12 0 0 0 12-12v-16a12 12 0 0 1-12 12z" fill="#252528" opacity=".38"/><circle cx="12.81" cy="267.13" r="8" fill="#252528" opacity=".57"/><path d="M8.81 263.13a10.49 10.49 0 0 1 2.43 1.32 16.77 16.77 0 0 1 2 1.72 16 16 0 0 1 1.72 2 10.28 10.28 0 0 1 1.32 2.43 10.49 10.49 0 0 1-2.43-1.32 16 16 0 0 1-2-1.73 16.67 16.67 0 0 1-1.72-2 10.49 10.49 0 0 1-1.32-2.42z" fill="#252528"/><path d="M16.31 263.13a10.49 10.49 0 0 1-1.31 2.43 16.67 16.67 0 0 1-1.72 2 16 16 0 0 1-2 1.73 10.49 10.49 0 0 1-2.43 1.32 10.28 10.28 0 0 1 1.32-2.43 16 16 0 0 1 1.72-2 16.77 16.77 0 0 1 2-1.72 10.49 10.49 0 0 1 2.42-1.33z" fill="#252528"/><circle cx="271.81" cy="267.13" r="8" fill="#252528" opacity=".57"/><path d="M267.81 263.13a10.49 10.49 0 0 1 2.43 1.32 16.77 16.77 0 0 1 2 1.72 16 16 0 0 1 1.72 2 10.28 10.28 0 0 1 1.32 2.43 10.49 10.49 0 0 1-2.43-1.32 16 16 0 0 1-2-1.73 16.67 16.67 0 0 1-1.72-2 10.49 10.49 0 0 1-1.32-2.42z" fill="#252528"/><path d="M275.31 263.13a10.49 10.49 0 0 1-1.32 2.43 16.67 16.67 0 0 1-1.72 2 16 16 0 0 1-2 1.73 10.49 10.49 0 0 1-2.43 1.32 10.28 10.28 0 0 1 1.32-2.43 16 16 0 0 1 1.72-2 16.77 16.77 0 0 1 2-1.72 10.49 10.49 0 0 1 2.43-1.33z" fill="#252528"/><g clip-path="url(#jugar_svg__c)" fill="#fff"><path opacity=".09" d="M93.1 210.13L31.49 331.14l185.61 3.99 31.49-125H93.1z"/><path opacity=".13" d="M151.1 203.13l-58 136 72-2 44-130-58-4z"/></g><path d="M143 243.43a117.5 117.5 0 1 1 117.5-117.5A117.63 117.63 0 0 1 143 243.43zM143 33a92.95 92.95 0 1 0 93 92.93A93.05 93.05 0 0 0 143 33z" fill="#303033"/><path d="M143 236.37a117.5 117.5 0 1 1 117.5-117.5A117.63 117.63 0 0 1 143 236.37zm0-210.45a92.95 92.95 0 1 0 92.95 93 93.06 93.06 0 0 0-92.95-93z" fill="#4c4c4d"/><path d="M143 225.75A117.63 117.63 0 0 1 25.64 113.5c-.08 1.75-.14 3.49-.14 5.26a117.5 117.5 0 0 0 235 0c0-1.77-.06-3.51-.14-5.26A117.63 117.63 0 0 1 143 225.75z" fill="#313133" opacity=".48"/><path d="M143 32a93.05 93.05 0 0 1 92.79 87.69c.1-1.74.16-3.49.16-5.25a93 93 0 1 0-185.9 0c0 1.76.06 3.51.16 5.25A93.05 93.05 0 0 1 143 32z" fill="#2f2f30"/><path d="M143 10.51a117.62 117.62 0 0 1 117.36 112.24c.08-1.74.14-3.49.14-5.25a117.5 117.5 0 0 0-235 0c0 1.76.06 3.51.14 5.25A117.62 117.62 0 0 1 143 10.51z" fill="#636366"/><circle cx="36.61" cy="119.13" r="8" fill="#252528" opacity=".57"/><path d="M32.61 115.13a10.49 10.49 0 0 1 2.39 1.32 16.77 16.77 0 0 1 2 1.72 16 16 0 0 1 1.72 2 10.28 10.28 0 0 1 1.32 2.43 10.28 10.28 0 0 1-2.43-1.32 16 16 0 0 1-2-1.73 16.67 16.67 0 0 1-1.72-2 10.49 10.49 0 0 1-1.28-2.42z" fill="#252528"/><path d="M40.11 115.13a10.49 10.49 0 0 1-1.32 2.43 16.67 16.67 0 0 1-1.72 2 16 16 0 0 1-2 1.73 10.49 10.49 0 0 1-2.43 1.32 9.94 9.94 0 0 1 1.32-2.43 16 16 0 0 1 1.72-2 16.77 16.77 0 0 1 2-1.72 10.49 10.49 0 0 1 2.43-1.33z" fill="#252528"/><circle cx="246.61" cy="120.13" r="8" fill="#252528" opacity=".57"/><path d="M242.61 116.13a10.49 10.49 0 0 1 2.43 1.32 16.77 16.77 0 0 1 2 1.72 16 16 0 0 1 1.72 2 10.28 10.28 0 0 1 1.32 2.43 10.28 10.28 0 0 1-2.43-1.32 16 16 0 0 1-2-1.73 16.67 16.67 0 0 1-1.72-2 10.49 10.49 0 0 1-1.32-2.42z" fill="#252528"/><path d="M250.11 116.13a10.49 10.49 0 0 1-1.32 2.43 16.67 16.67 0 0 1-1.72 2 16 16 0 0 1-2 1.73 10.49 10.49 0 0 1-2.43 1.32 9.94 9.94 0 0 1 1.32-2.43 16 16 0 0 1 1.72-2 16.77 16.77 0 0 1 2-1.72 10.49 10.49 0 0 1 2.43-1.33z" fill="#252528"/><circle cx="145.61" cy="222.13" r="8" fill="#252528" opacity=".57"/><path d="M141.61 218.13a10.49 10.49 0 0 1 2.43 1.32 16.77 16.77 0 0 1 2 1.72 16 16 0 0 1 1.72 2 10.28 10.28 0 0 1 1.32 2.43 10.28 10.28 0 0 1-2.43-1.32 16 16 0 0 1-2-1.73 16.67 16.67 0 0 1-1.72-2 10.49 10.49 0 0 1-1.32-2.42z" fill="#252528"/><path d="M149.11 218.13a10.49 10.49 0 0 1-1.32 2.43 16.67 16.67 0 0 1-1.72 2 16 16 0 0 1-2 1.73 10.49 10.49 0 0 1-2.43 1.32 9.94 9.94 0 0 1 1.32-2.43 16 16 0 0 1 1.72-2 16.77 16.77 0 0 1 2-1.72 10.49 10.49 0 0 1 2.43-1.33z" fill="#252528"/><circle cx="143" cy="16.13" r="8" fill="#252528" opacity=".57"/><path d="M139 12.13a10.49 10.49 0 0 1 2.43 1.32 16.77 16.77 0 0 1 2 1.72 16 16 0 0 1 1.72 2 10.28 10.28 0 0 1 1.32 2.43 10.49 10.49 0 0 1-2.43-1.32 16 16 0 0 1-2-1.73 16.67 16.67 0 0 1-1.72-2 10.49 10.49 0 0 1-1.32-2.42z" fill="#252528"/><path d="M146.5 12.13a10.49 10.49 0 0 1-1.32 2.43 16.67 16.67 0 0 1-1.72 2 16 16 0 0 1-2 1.73 10.49 10.49 0 0 1-2.46 1.34 10.28 10.28 0 0 1 1.32-2.43 16 16 0 0 1 1.72-2 16.77 16.77 0 0 1 2-1.72 10.49 10.49 0 0 1 2.46-1.35z" fill="#252528"/></svg>