<svg data-name="Capa 1" xmlns="http://www.w3.org/2000/svg" viewBox="0 0 361 305"><path d="M217.92 48.45a3.1 3.1 0 0 0 2.37 3.68l11.5 2.47a3.1 3.1 0 0 0 3.68-2.37l2-9.38a3.1 3.1 0 0 0-2.38-3.68l-11.5-2.48a3.09 3.09 0 0 0-3.67 2.38z" fill="#fcc184"/><path d="M221.39 44.49c1.76 1.65 3.21 4.7 5.68 5 4.48.76 3.65-3.22 2.35-6-.86-1.87-7.14-10.25-9.1-6" fill="#d19659"/><path d="M235.33 47s-9.21-.45-15-3.22c-.03.01 6.74 6.73 15 3.22z" fill="#d19659"/><path d="M143.08 48.45a3.1 3.1 0 0 1-2.38 3.68l-11.49 2.47a3.09 3.09 0 0 1-3.68-2.37l-2-9.38a3.1 3.1 0 0 1 2.37-3.68l11.5-2.48a3.1 3.1 0 0 1 3.68 2.38z" fill="#fcc184"/><path d="M139.6 44.49c-1.76 1.65-3.21 4.7-5.67 5-4.48.76-3.65-3.22-2.36-6 .87-1.87 7.15-10.25 9.11-6" fill="#d19659"/><path d="M208.38 143.51s18.46-55.66 23.7-87.41l-15.24-4s-5.33 66.68-10.11 77.63M151.71 143.51S133.25 87.85 128 56.1l15.24-4s5.33 66.68 10.1 77.63" fill="#c29626"/><path fill="#fcc184" d="M154.8 203.04l2.66 29.05v60.72h17.33v-52.62h11.14v52.62h16.72v-60.72l2.66-29.05H154.8z"/><path fill="#4c4c4d" d="M204.54 207.38l.39-4.34h-49.7l.4 4.34h48.91zM156.56 222.23l.9 9.69v60.27h17.33v-52h11.14v52h16.72v-60.27l.89-9.69h-46.98z"/><path d="M182.87 209.07a9.16 9.16 0 0 1 1.91-.21 8.23 8.23 0 0 1 5.3 1.94 6 6 0 0 1 1.58 2.15h23.39l-6-104.63H152.2l-6 104.63h24.64a6.27 6.27 0 0 1 1.56-1.83 8 8 0 0 1 3.41-1.55 9.54 9.54 0 0 1 4.29-1 8.25 8.25 0 0 1 2.77.5z" fill="#f3af19"/><path d="M180.45 143.67c5.18 2.5 8.78 5.61 11 10.32a70.65 70.65 0 0 1 5.93 21.2C199 188.3 196 201 190.21 213h24.84l-6-104.63H152.2l-.88 15.4c4.31 10.03 18.85 14.95 29.13 19.9z" fill="#c29626"/><ellipse cx="217.39" cy="89.31" rx="13.97" ry="12.7" fill="#fcc184"/><ellipse cx="144.36" cy="89.31" rx="13.97" ry="12.7" fill="#fcc184"/><ellipse cx="180.5" cy="94.6" rx="30.83" ry="43.95" fill="#fcc184"/><path d="M180.5 50.65a24.06 24.06 0 0 0-15.2 5.72 35.85 35.85 0 0 0 3.94 8.09c.67 1 1.54 2.6 2.52 3.81a.88.88 0 0 1 .63.47c.1.18.2.34.31.51a3.32 3.32 0 0 0 .62.41.75.75 0 0 1 .47.86c4.19 3.82 12.31 1.38 17.36 3.68 5.67 2.58 8.06 8.82 8.45 14.75.92 14.08-11.06 23.07-20.82 31.1a1 1 0 0 1-.51.22c-4.67 3.86-7.32 9.36-9.35 15.06a22.94 22.94 0 0 0 11.58 3.22c17 0 30.83-19.68 30.83-44s-13.8-43.9-30.83-43.9z" fill="#d19659"/><circle cx="216.54" cy="92.59" r="8.36" fill="#d19659"/><circle cx="145.42" cy="92.59" r="8.36" fill="#d19659"/><path d="M197.15 126.68s6.95 65.18 6.27 84.47M164.6 126.68s-6.95 65.18-6.27 84.47" fill="none" stroke="#8c661f" stroke-miterlimit="10" stroke-width="1.857"/><path d="M185.31 135.43c0-1.49-2.08-2.7-4.64-2.7-2.56 0-4.64 1.21-4.64 2.7v71.42c0 1.49 2.08 2.69 4.64 2.69 2.56 0 4.64-1.2 4.64-2.69z" fill="#6e3318"/><path d="M205.89 135c0 1.68-2.4 3-5.38 3h-39.27c-3 0-5.38-1.36-5.38-3l-4.47-9.47c0-2 2.84-3.59 6.34-3.59H204c3.5 0 6.34 1.61 6.34 3.59z" fill="#6e3318"/><path d="M209 77.72L206 75c0 1.4 1.23 29.83-5.1 46.37L180.36 107v-.27l-.13.14-.49-.14v.27l-19.51 13.88c-6.12-16.61-4.89-44.51-4.92-45.9l-3 2.7c-1.56 7.12.48 39.44.48 39.44-6.85 10.18 23.85 27 27 28.49v.17a.87.87 0 0 0 .49-.09c.13.06.2.09.13.09v-.17c3.43-1.47 35.66-15.26 30-25.3l-1.81-3.19s2-32.28.4-39.4z" fill="#945e25"/><path d="M203.21 122.48a10.15 10.15 0 0 1-2.05-1.74l-.24.65L180.36 107v-.27l-.13.14-.49-.14v.27l-19.51 13.88c0-.07 0-.14-.07-.2a13.4 13.4 0 0 1-2.4 1.41l.37.36c-1.89 2.82-1.32 5.73.56 8.51 5-.23 9.95-.48 14.38-3 2.1-1.21 4.84-4.51 7.48-3.27 5 2.35 9.71 5.82 8.73 11.93a19.69 19.69 0 0 1-1.82 5.54c8-4.38 27.07-15 23.06-22.09z" fill="#7a4f1f"/><ellipse cx="179.92" cy="120.56" rx="6.81" ry="14.73" fill="#391212"/><path d="M180.5 95.29c8-4.14 17.76-4.77 26.74-2.56 8.11 2 14.71 13.13 23.42 12.5 7.92-.57 2.39-9.73-1.94-7.11 2.44-1.48 3.65-4 7-2.18 2.61 1.43 3.73 5.37 3.17 7.69-.86 3.57-4.43 7.3-7.81 9.64-5.66 3.92-13.3 6.2-20.68 7.08-8 1-20.61 1-26.2-4.72a10.86 10.86 0 0 1-2.31-4c-.45-1.21-.38-4.55-1.36-5.4M180.5 95.29c-8-4.14-17.76-4.77-26.74-2.56-8.11 2-14.7 13.13-23.42 12.5-7.92-.57-2.39-9.73 1.94-7.11-2.44-1.48-3.65-4-7-2.18-2.61 1.43-3.73 5.37-3.17 7.69.86 3.57 4.43 7.3 7.81 9.64 5.66 3.92 13.3 6.2 20.68 7.08 8 1 20.61 1 26.2-4.72a10.86 10.86 0 0 0 2.31-4c.45-1.21.38-4.55 1.36-5.4" fill="#ba762a" stroke="#ba762a" stroke-miterlimit="10" stroke-width="1.238"/><path d="M181.23 105.53c4.42-6.86 15.76-6.12 19.21.85 1.77 3.57 3.33 7.47 8.12 9.11 5.07 1.73 12.24 1 17.35-.27a38.55 38.55 0 0 0 4-1.22 48.26 48.26 0 0 1-19.09 6.1c-4.5.53-19.66 1.78-25.9-4.62a10.8 10.8 0 0 1-2.27-4 10.27 10.27 0 0 1-.34-1.91c-.19-1.47-.39-3-1.08-3.59l-.24.17v-.39a.89.89 0 0 0 .24-.23zM180.11 105.53c-4.42-6.86-15.76-6.12-19.21.85-1.77 3.57-3.33 7.47-8.12 9.11-5.07 1.73-12.24 1-17.35-.27a38.36 38.36 0 0 1-4-1.22 48.21 48.21 0 0 0 19.08 6.1c4.5.53 19.66 1.78 25.91-4.62a10.78 10.78 0 0 0 2.26-4 11 11 0 0 0 .35-1.91c.19-1.47.38-3 1.08-3.59l.23.17v-.39a.89.89 0 0 1-.23-.23z" fill="#a36828"/><circle cx="180.5" cy="98.11" r="19.05" fill="#d85b4a"/><path d="M180.5 0c-6.51.42-29.16 78.57-29.16 78.57C167.53 70.35 180.5 72 180.5 72s13-1.6 29.16 6.61c0-.05-22.66-78.2-29.16-78.61z" fill="#f7cd0f"/><path d="M180.67 0a1.12 1.12 0 0 0-.41.12c.52 10.84 2.29 21.66 2.7 32.52a303 303 0 0 1-1 36.16l-.27 3.08c3.4-.18 14.63-.14 28.1 6.69.04-.01-22.61-78.16-29.12-78.57z" fill="#bc9b2a"/><path d="M203.23 79.69s-5-9.51-15.46-5.56l.64-6.37s12.74-1.15 14.82 11.93zM157.24 79.69s5-9.51 15.46-5.56l-.64-6.37s-12.74-1.15-14.82 11.93z" fill="#ba762a"/><path fill="#212121" d="M212.92 166.52h-64.24l-.86 18.57h65.95l-.85-18.57z"/><path fill="#080808" d="M196.46 185.09h17.1l-.74-18.57h-16.36v18.57z"/><path d="M195.22 186a5.1 5.1 0 0 1-4.9 5.26H170.4a5.1 5.1 0 0 1-4.9-5.26v-19.79a5.09 5.09 0 0 1 4.9-5.26h19.92a5.09 5.09 0 0 1 4.9 5.26z" fill="#66615c"/><path d="M191.5 183.59a3.83 3.83 0 0 1-3.67 4h-14.94a3.83 3.83 0 0 1-3.67-4v-15a3.83 3.83 0 0 1 3.67-4h14.94a3.83 3.83 0 0 1 3.67 4z" fill="#212121"/><circle cx="154.99" cy="175.62" r="1.64"/><path fill="#3d3d3d" d="M185.31 240.19h6.19v52h-6.19zM168.6 240.19h6.19v52h-6.19z"/><circle cx="161.34" cy="175.62" r="1.64"/><path d="M178.5 279.71c0-4.39-1.31-7.95-2.93-7.95h-20.14c-1.62 0-2.93 3.56-2.93 7.95V296c0 4.39 1.31 7.95 2.93 7.95h23.07z" fill="#6e3318"/><path d="M175.65 271.76h-7.05V304h9.9v-24.29c0-4.39-1.27-7.95-2.85-7.95z" fill="#562915"/><path d="M162.42 296.38c-8.49 0-15.38 3.53-15.38 7.88h30.75c0-4.35-6.88-7.88-15.37-7.88z" fill="#6e3318" stroke="#471c10" stroke-miterlimit="10" stroke-width=".619"/><path d="M179.74 279.71c0-4.39 1.31-7.95 2.93-7.95h20.14c1.62 0 2.93 3.56 2.93 7.95V296c0 4.39-1.31 7.95-2.93 7.95h-23.07v-24.24z" fill="#6e3318"/><path d="M183.21 271.76h7.06V304h-9.91v-24.29c0-4.39 1.28-7.95 2.85-7.95z" fill="#562915"/><path d="M196.17 296.38c8.49 0 15.38 3.53 15.38 7.88H180.8c0-4.35 6.88-7.88 15.37-7.88z" fill="#6e3318" stroke="#471c10" stroke-miterlimit="10" stroke-width=".619"/><path d="M189.18 81.15A19.05 19.05 0 0 1 167 111.56a19.05 19.05 0 1 0 22.17-30.41z" fill="#a9473a"/><circle cx="171.8" cy="92.59" r="7.2" fill="#f58677"/><path d="M218.13 210.78a3.08 3.08 0 0 1-3.31 2.79h-23.5l-10.52-3.14-10.8 3.14h-23.22a3.08 3.08 0 0 1-3.31-2.79 3.08 3.08 0 0 1 3.31-2.79h23l10.42-3.13 11.11 3.14h23.51a3.08 3.08 0 0 1 3.31 2.79zM213.78 52.8a3.09 3.09 0 0 1 3.73-2.29l16.26 3.87a3.08 3.08 0 0 1 2.29 3.72l-.77 3.24a3.08 3.08 0 0 1-3.72 2.29l-16.27-3.87A3.09 3.09 0 0 1 213 56zM146.32 52.8a3.09 3.09 0 0 0-3.73-2.29l-16.26 3.87A3.08 3.08 0 0 0 124 58.1l.77 3.24a3.08 3.08 0 0 0 3.72 2.29l16.26-3.87a3.09 3.09 0 0 0 2.3-3.73z" fill="#6e3318"/><path d="M125.67 47s9.2-.45 15-3.22c.02.01-6.75 6.73-15 3.22z" fill="#d19659"/><circle cx="181.04" cy="217.08" r="3.25" fill="#d19659"/><path d="M194.13 87.94l4.31-4.58 6.1-1.53-4.58-4.31-1.53-6.11-4.31 4.59-6.11 1.53 4.58 4.31 1.54 6.1z"/><circle cx="194.38" cy="76.87" r="2.72" fill="#fff"/><circle cx="195.87" cy="81.46" r="1.43" fill="#fff"/><path d="M166.99 87.94l-4.31-4.58-6.1-1.53 4.58-4.31 1.53-6.11L167 76l6.11 1.53-4.58 4.31-1.54 6.1z"/><circle cx="166.73" cy="76.87" r="2.72" fill="#fff"/><circle cx="165.25" cy="81.46" r="1.42" fill="#fff"/><path d="M180.65 119.28a2.87 2.87 0 0 1 .73 2c0 1.31-.66 2.37-1.46 2.37s-1.46-1.06-1.46-2.37a2.87 2.87 0 0 1 .72-2 5.32 5.32 0 1 0 1.47 0z" fill="#1e0e0e"/><ellipse cx="179.92" cy="130.86" rx="4.51" ry="3.81" fill="#d66b6b"/><path d="M179.92 129a4.44 4.44 0 0 1 4.36 2.85 3.17 3.17 0 0 0 .15-1c0-2.11-2-3.82-4.51-3.82s-4.51 1.71-4.51 3.82a3.17 3.17 0 0 0 .15 1 4.44 4.44 0 0 1 4.36-2.85z" fill="#cf4e4f"/></svg>