<svg data-name="Capa 1" xmlns="http://www.w3.org/2000/svg" viewBox="0 0 361 305"><path d="M210.78 130.55c-4.31-9 15.1-12.94 21.22-11.86-2.88 2.15-6.12 4-8.63 6.83 6.47-1.08 14.74 1.08 16.18 8.27-4.68-1.08-9 6.83-13.67 7.91-6.11 1.44-14.38-3.24-15.46-9.35M135.27 130.55c4.32-9-15.1-12.94-21.21-11.86 2.88 2.15 6.11 4 8.63 6.83-6.47-1.08-14.74 1.08-16.18 8.27 4.67-1.08 9 6.83 13.66 7.91 6.11 1.44 14.38-3.24 15.46-9.35"/><circle cx="121.9" cy="150.15" r="13.84" fill="#fcc184"/><circle cx="121.9" cy="150.15" r="13.84" fill="#9e5431"/><path d="M248.46 115.25a11.42 11.42 0 0 0-13.15 9.38l-.22 1.28-1.28-1.2c-2.43-2.25-5.73-3.06-7.37-1.81s-1 4.1 1.42 6.36l5.71 5.75-.38 2.29 22.52 3.77 2.13-12.67a11.42 11.42 0 0 0-9.38-13.15z" fill="#9e5431"/><path d="M126.92 143.44a10.73 10.73 0 0 0-1.51-.12 10.34 10.34 0 1 0 0 20.67 10.14 10.14 0 0 0 3.41-.59c-3.13-6.07-3.25-13.04-1.9-19.96z" fill="#733e1e"/><path d="M219.63 200.39s28.55-22.67 39.17-60.75l-27.94-5.12-14.33 29.77" fill="#751517"/><path fill="#4c4c4d" d="M196.4 261.06h-71.78l3.21 33.44h43.33l-.09-18.88h4.4l-.09 18.88h43.09l3.21-33.44H196.4z"/><path fill="#3d3d3d" d="M200.82 261.06v33.44h17.72l3.21-33.44h-20.93z"/><path fill="#911a1d" d="M223.62 271.31H123.13l4.27-105.18h91.95l4.27 105.18z"/><circle cx="173.95" cy="147.16" r="44.49" fill="#9e5431"/><circle cx="226.01" cy="150.15" r="13.84" fill="#9e5431"/><path d="M191.34 106.19a44.5 44.5 0 0 1-46.51 74.59 44.49 44.49 0 1 0 46.51-74.59zM221.33 143.44a10.87 10.87 0 0 1 1.52-.12 10.34 10.34 0 1 1 0 20.67 10.2 10.2 0 0 1-3.42-.59c3.14-6.07 3.26-13.04 1.9-19.96z" fill="#733e1e"/><path d="M178.34 68.64c-.84-3.61-3.09-6.2-5.72-6.2s-4.89 2.6-5.72 6.23l-39.58 71.14s46.57-19.46 92.77 0z" fill="#c52026"/><path d="M200.7 166.13h18.94l4.26 105.18h-22z" fill="#751517"/><path d="M190 222.76h-32.9a5.39 5.39 0 0 1-5.39-5.39v-29.12a5.4 5.4 0 0 1 5.39-5.4H190a5.4 5.4 0 0 1 5.4 5.4v29.12a5.39 5.39 0 0 1-5.4 5.39z" fill="none" stroke="#551314" stroke-miterlimit="10" stroke-width="3.058"/><path d="M219.66 138.55l-1.82-.09c.76 4 2.23 15.39-3.31 25-.26-6.68-4.46-12.47-14.81-15a100.47 100.47 0 0 0-29.48-2.87c-12.59.36-22.29 6.11-33.44 11.14a22.64 22.64 0 0 0-4.92 3.21c-3.49-8.73-2.26-18-1.6-21.47l-2.22.11s-29.19 48.27 45.79 78.3v.12c-.13 0-.06-.06 0-.09a1.46 1.46 0 0 0 .53.09v-.18c74.47-30 45.28-78.27 45.28-78.27z"/><ellipse cx="173.19" cy="172.06" rx="15.48" ry="24.91" fill="#391212"/><path d="M174.69 165.44a5.06 5.06 0 0 1 1.73 4c0 2.57-1.56 4.64-3.5 4.64s-3.51-2.07-3.51-4.64a5.07 5.07 0 0 1 1.74-4c-6.23.69-11 5-11 10.15 0 5.66 5.72 10.25 12.79 10.25s12.79-4.59 12.79-10.25c-.02-5.18-4.82-9.46-11.04-10.15z" fill="#1e0e0e"/><path d="M182.48 189.71c0 5.34-7.33 7.33-9.44 7.33-2.1 0-9.43-2-9.43-7.33v-.93c0-3.43 3.35-7.33 9.43-7.33s9.44 3.9 9.44 7.33z" fill="#d66b6b"/><path d="M173 181.48c-6.08 0-9.43 3.89-9.43 7.33v.92a5.69 5.69 0 0 0 .09 1c.52-2.88 3.3-5.79 8-6.27.43 2.07 1.26 6 1.37 6.68 0-.72.78-4.64 1.18-6.71 4.8.43 7.64 3.38 8.17 6.31a5.72 5.72 0 0 0 .09-1v-.92c.01-3.45-3.35-7.34-9.47-7.34z" fill="#cf4e4f"/><path d="M173.19 191.23v-.11a.36.36 0 0 0 0 .11z" fill="#cf4e4f"/><path d="M224.56 161.21C214.33 127.09 199.48 123 199.48 123l-26.16 28.19L147.16 123s-14.86 4.09-25.08 38.21c0 0 21.1 10.46 51.24-7.15 30.13 17.61 51.24 7.15 51.24 7.15z" stroke="#484748" stroke-miterlimit="10" stroke-width=".539"/><path d="M183.05 131.39a112.16 112.16 0 0 1 37 8.42l-41.71-71.17c-.84-3.61-3.09-6.2-5.72-6.2a4.69 4.69 0 0 0-3.29 1.49z" fill="#991c20"/><path fill="#843c1c" d="M221.88 233.55h-97.01l-1.29 16.72h99.59l-1.29-16.72z"/><path fill="#6e3318" d="M193.27 250.27h30.02L222 233.55h-28.73v16.72z"/><path d="M190 252.4a5.42 5.42 0 0 1-5.42 5.42h-22.05a5.39 5.39 0 0 1-5.4-5.39v-20.5a5.39 5.39 0 0 1 5.4-5.39h22.11a5.39 5.39 0 0 1 5.39 5.39v20.47z" fill="#bb882c"/><path d="M162.53 257.82h3L190 233.34v-1.41a5.39 5.39 0 0 0-5.39-5.39h-5.56l-22 22v3.93a5.39 5.39 0 0 0 5.48 5.35z" fill="#f9b547"/><path d="M183.46 257.28h.64a5.39 5.39 0 0 0 5.39-5.39v-.64zM159.94 227a5.36 5.36 0 0 0-2.32 2.32z" fill="#bb882c"/><path d="M180.28 251.35h-13.39a3.28 3.28 0 0 1-3.28-3.29v-12.3a3.28 3.28 0 0 1 3.28-3.29h13.39a3.28 3.28 0 0 1 3.28 3.29v12.3a3.28 3.28 0 0 1-3.28 3.29z" fill="#843c1c"/><circle cx="132.69" cy="241.93" r="2.34" fill="#542815"/><circle cx="148.87" cy="241.93" r="2.34" fill="#542815"/><path d="M179.25 282.63h37.21a5.4 5.4 0 0 1 5.4 5.4v11.32a5.4 5.4 0 0 1-5.4 5.4h-42.61V288a5.4 5.4 0 0 1 5.4-5.37z" fill="#6e3318"/><path d="M179.25 282.63h13.48v22.12h-18.88V288a5.4 5.4 0 0 1 5.4-5.37z" fill="#562915"/><path d="M203.87 290.52c15.61 0 28.27 6.49 28.27 14.5H175.6c0-8.02 12.66-14.5 28.27-14.5z" fill="#6e3318" stroke="#471c10" stroke-miterlimit="10" stroke-width=".539"/><path d="M167.92 282.63h-37.21a5.4 5.4 0 0 0-5.4 5.4v11.32a5.4 5.4 0 0 0 5.4 5.4h42.6V288a5.39 5.39 0 0 0-5.39-5.37z" fill="#6e3318"/><path d="M167.92 282.63h-13.48v22.12h18.87V288a5.39 5.39 0 0 0-5.39-5.37z" fill="#562915"/><path d="M143.31 290.52C127.69 290.52 115 297 115 305h56.54c.04-8-12.62-14.48-28.23-14.48z" fill="#6e3318" stroke="#471c10" stroke-miterlimit="10" stroke-width=".539"/><ellipse cx="173.19" cy="133.88" rx="29.76" ry="22.92" fill="#d85b4a"/><path d="M190.24 115.09a19.37 19.37 0 0 1 5 12.76c0 12.66-13.33 22.92-29.76 22.92a35.94 35.94 0 0 1-17-4.14c5.34 6.13 14.43 10.17 24.73 10.17 16.44 0 29.76-10.26 29.76-22.92.03-7.78-5.05-14.64-12.73-18.79z" fill="#a9473a"/><ellipse cx="161.14" cy="123.95" rx="9.48" ry="5.88" fill="#f58677"/><path d="M155.56 211.44h-12.45v22.65h12.74a11.32 11.32 0 0 0 11.32-11.71 11.52 11.52 0 0 0-11.61-10.94z" fill="#9e5431"/><path d="M124.8 174.15S63.62 229.44 142.57 234v-25.8" fill="#751517"/></svg>