<svg data-name="Capa 1" xmlns="http://www.w3.org/2000/svg" viewBox="0 0 361 305"><path d="M259.19 207.14c-.6 1.36-1.9 2.09-2.91 1.65l-9.64-4.26c-1-.44-1.34-1.9-.75-3.25.6-1.36 1.9-2.09 2.91-1.65l9.65 4.26c1 .44 1.33 1.9.74 3.25z" fill="#fcc184"/><path d="M235.13 205.87l5.1 7.59a7.27 7.27 0 0 0 13.77-4.82l-3.25-9.27z" fill="#fcc184"/><path d="M204.28 120.32s32.05 49.11 45.21 78.48l-13.72 7.72s-26-58.2-33.38-67.57" fill="#c29626"/><path fill="#4c4c4d" d="M154.02 203.47l2.65 28.85V292.62h17.34v-52h11.14v52h16.72V232.32l2.65-28.85h-50.5z"/><path d="M182.33 228a7 7 0 0 1 1.9-.24 7.37 7.37 0 0 1 6.86 4.83h23.31l-6-123.81h-56.63l-6 123.81h24.55a7.33 7.33 0 0 1 1.55-2.16 7.44 7.44 0 0 1 3.4-1.83 8.1 8.1 0 0 1 4.27-1.15 7.17 7.17 0 0 1 2.79.55z" fill="#f3af19"/><path d="M179.92 150.59c5.16 2.95 8.75 6.63 11 12.21a96.17 96.17 0 0 1 5.92 25.09c1.63 15.51-1.38 30.55-7.16 44.68h24.72l-6-123.81h-56.62L150.9 127c4.29 11.9 18.78 17.73 29.02 23.59z" fill="#c29626"/><ellipse cx="221.26" cy="94.61" rx="12.7" ry="13.97" transform="rotate(-78.18 221.269 94.6)" fill="#fcc184"/><ellipse cx="149.78" cy="79.65" rx="12.7" ry="13.97" transform="rotate(-78.18 149.787 79.643)" fill="#fcc184"/><ellipse cx="184.07" cy="92.23" rx="43.95" ry="30.83" transform="rotate(-78.18 184.078 92.227)" fill="#fcc184"/><path d="M193.08 49.21A24.1 24.1 0 0 0 177 51.69a35.43 35.43 0 0 0 2.2 8.72c.45 1.09 1 2.87 1.69 4.26a.84.84 0 0 1 .51.58c.06.19.13.38.2.56a3 3 0 0 0 .53.53.77.77 0 0 1 .28.94c3.32 4.6 11.77 3.88 16.23 7.16 5 3.68 6.09 10.28 5.26 16.16-2 14-15.56 20.32-26.75 26.18a.94.94 0 0 1-.55.11c-5.36 2.82-9.07 7.67-12.23 12.82a23 23 0 0 0 10.68 5.53c16.66 3.48 34.2-13 39.17-36.71s-4.48-45.84-21.14-49.32z" fill="#d19659"/><circle cx="219.77" cy="97.64" r="8.36" fill="#d19659"/><circle cx="150.15" cy="83.07" r="8.36" fill="#d19659"/><path d="M196.61 130.74s6.95 77.41 6.28 100.32M164.07 130.74s-6.95 77.41-6.28 100.32" fill="none" stroke="#8c661f" stroke-miterlimit="10" stroke-width="1.857"/><path d="M185.15 141.13c0-1.77-2.08-3.2-4.64-3.2-2.57 0-4.64 1.43-4.64 3.2V226c0 1.77 2.08 3.2 4.64 3.2 2.56 0 4.64-1.43 4.64-3.2z" fill="#6e3318"/><path d="M205.76 133.82a5.36 5.36 0 0 1-5.46 5.27h-39.91a5.37 5.37 0 0 1-5.47-5.27l-4.54-16.38a6.33 6.33 0 0 1 6.44-6.21h47a6.33 6.33 0 0 1 6.44 6.21z" fill="#6e3318"/><path d="M215.47 81.55l-2.4-3.26c-.32 1.36-4.91 29.44-14.49 44.34l-17.12-18.24v-.26l-.21.09-.16-.17-.06.26-22.23 9.52c-2.59-17.51 4.32-44.56 4.58-45.93l-3.5 2c-3 6.64-7.61 38.7-7.61 38.7l4.15 6.31c-8.79 8.57 13.66 25 16.71 27.16v.16h.2l.18.12v-.16c3.6-.75 29.87-6.61 26.4-17.6l7-4.53s8.63-31.23 8.56-38.51z" fill="#945e25"/><path d="M200.6 124.17a10.28 10.28 0 0 1-1.65-2.12c-.13.19-.25.39-.37.58l-17.12-18.24v-.26l-.21.09-.16-.17-.06.26-22.23 9.52v-.2a13.54 13.54 0 0 1-2.63.88l.28.43c-2.43 2.37-2.47 5.34-1.19 8.44 4.89.8 9.83 1.58 14.68 0 2.31-.75 5.67-3.42 8-1.66 4.39 3.32 8.31 7.68 6.1 13.46a19.37 19.37 0 0 1-2.92 5c8.77-2.64 21.27-7.85 18.81-15.65z" fill="#7a4f1f"/><ellipse cx="177.52" cy="116.29" rx="12.06" ry="6.43" transform="rotate(-79.33 177.514 116.298)" fill="#391212"/><path fill="#fff" d="M174.15 114.014l1.507-7.49 7.774 1.563-1.506 7.49z"/><path d="M183.73 88.31c8.88-3.48 18.61-2.26 26.84 2.31 7.42 4.13 11 19.25 19.69 20.26 7.89.92 4.85-11.55-.06-9.19 2.77-1.33 4.61-4.21 7.39-1.27 2.18 2.3 2.25 7.41 1.1 10.16-1.76 4.24-6.22 8.12-10.13 10.32-6.56 3.7-14.62 4.95-22.08 4.53-8.11-.47-20.43-3-24.42-11.2a15.18 15.18 0 0 1-1.22-5.49c-.12-1.58.81-5.7.07-7" fill="#ba762a" stroke="#ba762a" stroke-miterlimit="10" stroke-width="1.238"/><path d="M183.73 88.31c-6.74-6.75-16.15-9.53-25.51-8.64-8.46.8-17.79 13.23-26.16 10.67-7.6-2.33.18-12.53 3.74-8.4-2-2.33-2.54-5.71-6.26-4.13-2.92 1.24-5 5.89-5.09 8.87-.08 4.58 2.44 9.93 5.14 13.52 4.54 6 11.42 10.39 18.42 13 7.61 2.83 19.91 5.47 26.86-.46a15.37 15.37 0 0 0 3.32-4.54c.75-1.4 1.54-5.55 2.72-6.4" fill="#ba762a" stroke="#ba762a" stroke-miterlimit="10" stroke-width="1.238"/><path d="M181.49 101.07c6.09-7.58 17-4.34 18.58 5 .8 4.78 1.33 9.92 5.59 12.93 4.52 3.18 11.72 3.75 17.05 3.22a32.85 32.85 0 0 0 4.22-.69 41.5 41.5 0 0 1-20.26 3.63c-4.54-.26-19.7-1.82-24.16-11a14.87 14.87 0 0 1-1.19-5.38 15.93 15.93 0 0 1 .16-2.43c.19-1.86.39-3.78-.13-4.66l-.28.16.11-.49a1 1 0 0 0 .31-.29zM180.83 100.93c-2.54-9.39-13.84-10.79-19-2.88-2.65 4-5.19 8.55-10.3 9.6-5.41 1.11-12.24-1.26-16.91-3.88a32.48 32.48 0 0 1-3.59-2.33 41.57 41.57 0 0 0 17.11 11.45c4.26 1.59 18.77 6.23 26.54-.4a15 15 0 0 0 3.25-4.45 16 16 0 0 0 .83-2.29c.57-1.78 1.15-3.62 2-4.22l.18.26.11-.49a1 1 0 0 1-.22-.37z" fill="#a36828"/><path d="M203.61-.35C197.15-1.27 159 70.58 159 70.58c17.53-4.72 29.9-.49 29.9-.49s13 1.09 27.19 12.44c-.02 0-6.19-81.13-12.48-82.88z" fill="#f7cd0f"/><path d="M203.61-.35a1 1 0 0 0-.42 0c-1.71 10.72-2.19 21.67-4 32.38a303.57 303.57 0 0 1-8.35 35.2c-.3 1-.6 2-.89 3 3.36.52 14.34 2.86 26.13 12.3-.01 0-6.18-81.13-12.47-82.88z" fill="#bc9b2a"/><path d="M209.38 82.29s-3-10.34-14-8.61l1.94-6.1s12.68 1.48 12.06 14.71zM164.36 72.87s6.86-8.28 16.28-2.28l.67-6.36s-12.24-3.74-16.95 8.64z" fill="#ba762a"/><path fill="#212121" d="M212.39 166.95h-64.25l-.85 18.57h65.95l-.85-18.57z"/><path fill="#080808" d="M196.29 185.52h17.11l-.74-18.57h-16.37v18.57z"/><path d="M195.06 186.45a5.09 5.09 0 0 1-4.9 5.26h-19.92a5.08 5.08 0 0 1-4.9-5.26v-19.81a5.08 5.08 0 0 1 4.9-5.26h19.92a5.09 5.09 0 0 1 4.9 5.26z" fill="#66615c"/><path d="M191.34 184a3.83 3.83 0 0 1-3.67 4h-14.94a3.83 3.83 0 0 1-3.67-4v-15a3.83 3.83 0 0 1 3.67-4h14.94a3.83 3.83 0 0 1 3.67 4z" fill="#212121"/><circle cx="154.46" cy="176.23" r="1.64"/><path fill="#3d3d3d" d="M185.15 240.62h6.19v52h-6.19zM167.82 240.62h6.19v52h-6.19z"/><circle cx="160.81" cy="176.23" r="1.64"/><path d="M178.34 280.76c0-4.39-1.31-7.95-2.93-7.95h-20.14c-1.62 0-2.93 3.56-2.93 7.95v16.29c0 4.39 1.31 7.95 2.93 7.95h23.07z" fill="#6e3318"/><path d="M174.87 272.81h-7.05V305h9.9v-24.24c0-4.39-1.27-7.95-2.85-7.95z" fill="#562915"/><path d="M161.88 296.81c-8.49 0-15.37 3.53-15.37 7.88h30.75c0-4.35-6.89-7.88-15.38-7.88z" fill="#6e3318" stroke="#471c10" stroke-miterlimit="10" stroke-width=".619"/><path d="M179.58 280.76c0-4.39 1.31-7.95 2.93-7.95h20.14c1.62 0 2.93 3.56 2.93 7.95v16.29c0 4.39-1.31 7.95-2.93 7.95h-23.07v-24.24z" fill="#6e3318"/><path d="M182.43 272.81h7V305h-9.9v-24.24c.05-4.39 1.33-7.95 2.9-7.95z" fill="#562915"/><path d="M195.64 296.81c8.49 0 15.37 3.53 15.37 7.88h-30.74c0-4.35 6.88-7.88 15.37-7.88z" fill="#6e3318" stroke="#471c10" stroke-miterlimit="10" stroke-width=".619"/><path d="M217.52 231a3.36 3.36 0 0 1-3.3 3.41h-23.46l-10.49-3.83-10.77 3.83h-23.19A3.36 3.36 0 0 1 143 231a3.35 3.35 0 0 1 3.3-3.4h23l10.41-3.83 11.06 3.83h23.46a3.35 3.35 0 0 1 3.3 3.4zM232.64 206.66a3.09 3.09 0 0 0 4.19 1.26l14.73-7.92a3.09 3.09 0 0 0 1.27-4.19l-1.57-2.93a3.09 3.09 0 0 0-4.19-1.27l-14.73 7.89a3.09 3.09 0 0 0-1.27 4.19z" fill="#6e3318"/><path d="M202.65 84.6a32.17 32.17 0 0 1-5.92-1.72c.74 1.43 2.9 2.77 5.62 3.3s5.21.11 6.44-.94a32.21 32.21 0 0 1-6.14-.64zM170.86 77.18a32.93 32.93 0 0 1-5.92-1.73c.74 1.43 2.9 2.77 5.61 3.3s5.22.11 6.45-.94a32.88 32.88 0 0 1-6.14-.63z"/><circle cx="183.36" cy="93.18" r="19.05" fill="#d85b4a"/><path d="M195.32 78.36a19 19 0 0 1-27.92 25.22 19 19 0 1 0 27.92-25.22z" fill="#a9473a"/><circle cx="175.97" cy="86" r="7.2" fill="#f58677"/><path d="M142.57 213.53c-.51 1.63-1.28 2.84-1.71 2.71l-.46-.15c-.43-.14-.36-1.57.16-3.2l8.88-29.37c.51-1.63 1.42-2.79 2-2.6l.66.21c.6.19.68 1.67.16 3.3z" fill="#080808"/><path d="M156.26 182.09a3.09 3.09 0 0 1-3.89 2l-1.77-.56a3.09 3.09 0 0 1-2-3.89l7.7-29.74c.52-1.63 2.81-2.36 5.12-1.63l2.5.8c2.31.73 3.76 2.65 3.24 4.28z" fill="#3d3d3d"/><path d="M151.17 120.29s-86.31 96 9.64 45l-9.46-14.94S148 145 152.82 134" fill="#c29626"/><path d="M154.13 149.61c5-4.33 4.08-11.18 13-6.52 15.45 7.8-3 18.91-4.62 10.2" fill="#d19659"/><circle cx="167.4" cy="138" r="9.63" fill="#8e8e8e"/><path d="M177.05 140.82a.76.76 0 0 1-.94.53l-18.1-5a.75.75 0 0 1-.53-.94.77.77 0 0 1 .94-.53l18.1 5a.77.77 0 0 1 .53.94z" fill="#3d3d3d"/><path d="M161.21 162.53a3.71 3.71 0 0 1-5.21.47l-7.35-5.57a3.72 3.72 0 0 1-.92-5.16l7.8-11.86a4.13 4.13 0 0 1 5.8-.58l8.18 6.2a4.12 4.12 0 0 1 1 5.73z" fill="#fcc184"/><path d="M160.12 168a3.1 3.1 0 0 1-4.37.18l-12.3-11.32a3.1 3.1 0 0 1-.18-4.38l2.25-2.44a3.09 3.09 0 0 1 4.37-.18l12.3 11.32a3.09 3.09 0 0 1 .18 4.37z" fill="#6e3318"/></svg>