<svg data-name="Capa 1" xmlns="http://www.w3.org/2000/svg" viewBox="0 0 361 305"><path d="M223.24 289.64l5.48-30.52s5.93-12.88-27.48-26.47h-21.43l.81 25 29.38 1.47s-.61 22.33-4.81 30.52" fill="#4c4c4d"/><path d="M138 289.64l-5.47-30.52s-5.93-12.88 27.48-26.47h21.43l-.81 25-29.34 1.42s.61 22.33 4.81 30.52" fill="#4c4c4d"/><path fill="#f2bc63" d="M204.818 187.75l9.232-3.52 26.365 69.154-9.231 3.52zM124.403 124.448l9.232-3.52 26.37 69.164-9.233 3.52z"/><path d="M213.46 148.1c5.64 12.49 13.61 20.87 17.81 18.72s3-14-2.6-26.5-13.62-20.87-17.82-18.72-3.03 14.01 2.61 26.5z"/><path d="M241.45 182.23c8.86 6.44 23 2.14 21.76 3.79s-1.46-13.09-10.32-19.53-18.6-8.14-21.76-3.79 1.46 13.09 10.32 19.53zM147.54 148.1c-5.64 12.49-13.61 20.87-17.81 18.72s-3-14 2.61-26.5 13.66-20.87 17.81-18.72 3.03 14.01-2.61 26.5z"/><path d="M152.8 200.1c.5-2.77 7.61-23.72 7.61-23.72l-9.8-9.54z" fill="#7bccf3"/><path d="M201.4 206.74c.78-2.71 3.7-24.64 3.7-24.64l13-4.2z" fill="#46a1da"/><path d="M197.9 286.61c0-3.24 1.76-5.87 3.92-5.87h25.47c2.06 0 3.73 2.54 3.73 5.67V298c0 3.13-1.67 5.67-3.73 5.67H197.9v-17.1z" fill="#6e3318"/><path d="M201.59 280.74h9.13v23H197.9v-17.3c0-3.16 1.65-5.7 3.69-5.7z" fill="#562915"/><path d="M218.34 293.35c10.88 0 19.7 4.52 19.7 10.1h-39.39c0-5.58 8.82-10.1 19.69-10.1z" fill="#6e3318" stroke="#471c10" stroke-miterlimit="10" stroke-width=".534"/><path d="M162.63 286.61c0-3.24-1.75-5.87-3.92-5.87h-25.47c-2.06 0-3.73 2.54-3.73 5.67V298c0 3.13 1.67 5.67 3.73 5.67h29.39v-17.1z" fill="#6e3318"/><path d="M159 280.74h-9.14v23h12.82v-17.3c-.05-3.16-1.68-5.7-3.68-5.7z" fill="#562915"/><path d="M142 293.35c-10.87 0-19.69 4.52-19.69 10.1h39.39c-.05-5.58-8.87-10.1-19.7-10.1z" fill="#6e3318" stroke="#471c10" stroke-miterlimit="10" stroke-width=".534"/><path d="M233 250.49a2.11 2.11 0 0 1-2.25 1.93H130.54a2.11 2.11 0 0 1-2.25-1.93l14.64-24.16 9.9-44.36a1.17 1.17 0 0 1 1.2-1.15h53.18a1.17 1.17 0 0 1 1.2 1.15l9.77 43.57z" fill="#7bccf3"/><path d="M218.13 225.54L208.36 182a1.17 1.17 0 0 0-1.2-1.15H156a16.4 16.4 0 0 0 3 2.14 13.81 13.81 0 0 0 4.08 1.8 46.45 46.45 0 0 0 5.46 1.39c6.45 1.22 16.1 2.18 24.87 4.36 3.3.82 5 3.85 5.22 7 1.5 18.81 7.21 37.19 14.14 54.92h17.92a2.11 2.11 0 0 0 2.26-1.93z" fill="#46a1da"/><ellipse cx="181.42" cy="188.94" rx="21.34" ry="9.97" fill="#46a1da" stroke="#4567a1" stroke-miterlimit="10" stroke-width="2.137"/><path fill="#4567a1" d="M199.1 252.42h-13.49l5.39-30.6 8.1 30.6zM220.47 252.42h-13.49v-30l13.49 30zM161.96 252.42h13.49l-5.38-30.6-8.11 30.6zM140.59 252.42h13.5v-30l-13.5 30z"/><path fill="#843c1c" d="M216.64 208.07H144.6l-2.93 20.31h77.9l-2.93-20.31z"/><path fill="#6e3318" d="M195.76 228.38h23.48l-3.17-20.31h-20.31v20.31z"/><path d="M193.09 226.34a4.15 4.15 0 0 1-4.14 4.17H172.1a4.11 4.11 0 0 1-4.12-4.12V210.6a4.12 4.12 0 0 1 4.12-4.13H189a4.13 4.13 0 0 1 4.13 4.13v15.74z" fill="#66615c"/><path d="M172.1 230.51h2.31l18.68-18.81v-1.1a4.13 4.13 0 0 0-4.13-4.13h-4.23L168 223.34v3a4.11 4.11 0 0 0 4.1 4.17zM188.47 230h.53a4.13 4.13 0 0 0 4.13-4.13v-.49zM170.34 206.81a4.09 4.09 0 0 0-1.77 1.77z" fill="#66615c"/><path d="M185.77 225.7H175.3a2.51 2.51 0 0 1-2.51-2.51v-9.4a2.51 2.51 0 0 1 2.51-2.51h10.47a2.51 2.51 0 0 1 2.51 2.51v9.4a2.51 2.51 0 0 1-2.51 2.51z" fill="#843c1c"/><circle cx="149.49" cy="218.25" r="1.79" fill="#542815"/><circle cx="161.87" cy="218.25" r="1.79" fill="#542815"/><ellipse cx="180.5" cy="145.16" rx="34.96" ry="45.8" fill="#f2bc63"/><path d="M151.25 130.79s11.05-4.13 18.87 3"/><path d="M184.4 77.66a3.71 3.71 0 0 0-7.33 0l-25.36 35.76s29.84-9.79 59.44 0z" fill="#79c1cc"/><path d="M194.2 103c9.1 8.27 15.06 22 15.06 37.65 0 25.3-15.65 45.8-34.95 45.8a27.85 27.85 0 0 1-13.71-3.66 29.47 29.47 0 0 0 19.9 8.21c19.31 0 35-20.5 35-45.79-.04-18.97-8.8-35.21-21.3-42.21z" fill="#d18939"/><path d="M180.31 74.57c-.94 5.56 1.79 11.68 3.2 16.89q2.43 8.91 4.92 17.78a88.15 88.15 0 0 1 22.72 4.19L184.4 77.66a4 4 0 0 0-3.67-3.12 3 3 0 0 0-.42.03z" fill="#5d9cc9"/><path d="M190.4 133.37s9-7.56 18.79-3.42M202.36 108.07s-38.06 18-64.37 18.28c.01 0 9.23-42.77 64.37-18.28z"/><path d="M196 107.56c4 9.21 12.87 17.09 22 19.5-2.6-8-12.23-30.52-22.33-20.65M119.55 182.23c-8.86 6.44-23 2.14-21.76 3.79s1.46-13.09 10.32-19.53 18.6-8.14 21.76-3.79-1.46 13.09-10.32 19.53z"/><ellipse cx="180.12" cy="166.03" rx="12.44" ry="17.67" fill="#391212"/><path d="M181 156.21a5.59 5.59 0 0 1 .86 3.28c0 2.1-.77 3.8-1.73 3.8s-1.74-1.7-1.74-3.8a5.67 5.67 0 0 1 .86-3.28c-3.08.57-5.46 4.07-5.46 8.31 0 4.64 2.84 8.4 6.34 8.4s6.33-3.76 6.33-8.4c-.01-4.24-2.38-7.74-5.46-8.31z" fill="#1e0e0e"/><path d="M175.45 168.47s2.83 9.43 0 13.94a9.06 9.06 0 0 0 10.16-.52s-2.25-8.67-1.1-13.42" fill="#c85454"/><path d="M182.69 164.56a5 5 0 0 0-2.57.71 5 5 0 0 0-2.58-.71 3.95 3.95 0 1 0 0 7.82 4.91 4.91 0 0 0 2.58-.71 4.88 4.88 0 0 0 2.57.71c2.48 0 4.5-1.75 4.5-3.91s-2.02-3.91-4.5-3.91z" fill="#d66b6b"/><ellipse cx="180.5" cy="140.5" rx="18.22" ry="11.54" fill="#d85b4a"/><path d="M191.39 131.25a8.3 8.3 0 0 1 1.86 5.08c0 6.37-8.16 11.54-18.22 11.54a25.64 25.64 0 0 1-10.89-2.29c3 3.83 9.18 6.46 16.36 6.46 10.06 0 18.22-5.17 18.22-11.54 0-3.79-2.88-7.15-7.33-9.25z" fill="#a9473a"/><ellipse cx="173.96" cy="135.41" rx="7.07" ry="4.02" fill="#f58677"/><path d="M138.66 118.13a2.67 2.67 0 0 1-1.92 3.25l-15.51 4a2.67 2.67 0 0 1-3.26-1.91l-5.55-12.93a2.67 2.67 0 0 1 1.92-3.25l13.48-1c1.43-.37 7-3.05 7.36-1.62z" fill="#f2bc63"/><path d="M119.83 110.07a2.66 2.66 0 0 1-1.32 3.53l-1.22.56a2.68 2.68 0 0 1-3.54-1.33l-7.41-16.29a2.68 2.68 0 0 1 1.33-3.54l1.21-.55a2.67 2.67 0 0 1 3.54 1.32zM134.93 107.37a2.66 2.66 0 0 1-2.47 2.85l-1.33.1a2.67 2.67 0 0 1-2.86-2.47L127 90a2.67 2.67 0 0 1 2.48-2.85l1.33-.1a2.67 2.67 0 0 1 2.85 2.47z" fill="#f2bc63"/><path d="M118.29 107.65c-.17.09.19 1.44.81 3.66a23.92 23.92 0 0 0 1.46 3.86 12 12 0 0 0 1.32 2.14 9.59 9.59 0 0 0 .93 1 3.36 3.36 0 0 0 .58.46 3.61 3.61 0 0 0 .65.39 5.43 5.43 0 0 0 2.84.54 6.47 6.47 0 0 0 1.34-.22c.22-.06.42-.15.62-.22a3 3 0 0 0 .58-.26 6.35 6.35 0 0 0 3-3.13 5.57 5.57 0 0 0 .36-2.88c-.17-.67-.31-1-.41-1s-.15.39-.16 1a6.63 6.63 0 0 1-.71 2.41 5.76 5.76 0 0 1-2.67 2.37 2.18 2.18 0 0 1-.48.19c-.17 0-.33.12-.5.16a6.28 6.28 0 0 1-1.06.14 4.21 4.21 0 0 1-2.12-.43 1.8 1.8 0 0 1-.47-.27 2.3 2.3 0 0 1-.44-.33 10.46 10.46 0 0 1-.79-.84 13.24 13.24 0 0 1-1.25-1.87 38.84 38.84 0 0 1-1.67-3.58c-.85-2.1-1.57-3.38-1.76-3.29z" fill="#d18939"/><path d="M124.05 106.44c-.19 0-.23.63 0 1.55a13.92 13.92 0 0 0 1.33 3.3 30.79 30.79 0 0 0 1.84 2.93c.51.72.9 1.14 1.09 1.06s.12-.66-.17-1.53a22.23 22.23 0 0 0-1.48-3.16l-1.64-3c-.46-.72-.77-1.2-.97-1.15z" fill="#d18939"/><path d="M135.18 104.66c-1.42.92-6.76 5.89-7.38 8.81-.82 3.25-.15 5.83 3.66 3.47a13.61 13.61 0 0 0 4.14-3.2" fill="#f2bc63"/><path d="M135.18 104.66c-.11-.18-1.4.5-3.1 2a25.58 25.58 0 0 0-2.81 2.86 15.43 15.43 0 0 0-1.41 2 7.26 7.26 0 0 0-.59 1.22c-.07.22-.15.47-.2.68s-.11.43-.14.66a6.25 6.25 0 0 0 0 2.79 2.26 2.26 0 0 0 .95 1.36 1.93 1.93 0 0 0 .81.29 3 3 0 0 0 .74 0l.34-.07a1.51 1.51 0 0 0 .3-.1 3.11 3.11 0 0 0 .56-.22 7.66 7.66 0 0 0 1-.54c.57-.36 1.09-.7 1.56-1a15.09 15.09 0 0 0 1.2-1 11.3 11.3 0 0 0 .8-.87c.37-.54.53-.85.46-.92s-.39.13-.86.52c-.25.18-.57.38-.91.64s-.8.48-1.25.77l-1.59.84a5.1 5.1 0 0 1-1.73.65 1.21 1.21 0 0 1-.38 0c-.09 0-.2 0-.25-.11a.89.89 0 0 1-.33-.56 5.69 5.69 0 0 1 .06-2.16c0-.19.08-.4.12-.59s.11-.35.15-.53a7.5 7.5 0 0 1 .47-1 15.56 15.56 0 0 1 1.22-1.85c.86-1.15 1.74-2.14 2.48-3 1.43-1.67 2.43-2.59 2.33-2.76z" fill="#d18939"/><path d="M246.54 251.36a2.67 2.67 0 0 0-3.63-1.05l-14 7.75a2.68 2.68 0 0 0-1 3.63l4.86 13.21a2.65 2.65 0 0 0 3.62 1l10.49-8.53c1.29-.72 7.18-2.59 6.47-3.88z" fill="#f2bc63"/><path d="M238.94 273c.2-.07-.15-1.49-1-3.63a39.11 39.11 0 0 1-1.25-3.75 13.19 13.19 0 0 1-.37-2.22 8.83 8.83 0 0 1 0-1.15 2.26 2.26 0 0 1 .09-.53 1.56 1.56 0 0 1 .15-.52 4.07 4.07 0 0 1 1.25-1.77 5.35 5.35 0 0 1 .87-.63c.15-.09.31-.15.47-.23a2.11 2.11 0 0 1 .47-.19 5.71 5.71 0 0 1 3.57-.11 6.55 6.55 0 0 1 2.18 1.26c.42.43.72.67.8.62s0-.4-.37-1a5.6 5.6 0 0 0-2.24-1.84 6.35 6.35 0 0 0-4.35-.21 4.27 4.27 0 0 0-.6.21l-.6.27a6.9 6.9 0 0 0-1.12.76 5.36 5.36 0 0 0-1.69 2.35 3.06 3.06 0 0 0-.21.73 3.15 3.15 0 0 0-.11.73 8.92 8.92 0 0 0 0 1.37 12.31 12.31 0 0 0 .5 2.46 24.29 24.29 0 0 0 1.6 3.8c1.11 2.02 1.78 3.22 1.96 3.22z" fill="#d18939"/><path d="M244 269.89c.18-.1.08-.66-.14-1.5l-.85-3.28a20.59 20.59 0 0 0-1.1-3.31c-.38-.83-.74-1.3-.92-1.23s-.19.64-.06 1.51a28.5 28.5 0 0 0 .68 3.4 13.18 13.18 0 0 0 1.3 3.31c.45.8.88 1.21 1.09 1.1z" fill="#d18939"/><path d="M253.27 263.53c-1.67.31-9 .37-11.42-1.32-2.82-1.8-4.11-4.14.27-5a13.84 13.84 0 0 1 5.21-.52" fill="#f2bc63"/><path d="M253.27 263.53c0-.18-1.4-.17-3.62-.35-1.1-.09-2.41-.21-3.83-.45a15.31 15.31 0 0 1-2.16-.5 7.13 7.13 0 0 1-1-.41c-.15-.09-.29-.16-.46-.28s-.35-.22-.5-.34a5.69 5.69 0 0 1-1.53-1.53 1 1 0 0 1-.17-.67c0-.08.07-.16.11-.25a1.16 1.16 0 0 1 .28-.25 4.83 4.83 0 0 1 1.7-.72l1.73-.49c.53-.1 1-.23 1.44-.29s.8-.13 1.1-.16c.61-.05 1-.12 1-.22s-.32-.22-1-.35a11.54 11.54 0 0 0-1.18-.08c-.46 0-1 0-1.55.09s-1.18.2-1.85.33a6.69 6.69 0 0 0-1.05.26 3.25 3.25 0 0 0-.56.22l-.29.13-.29.19a3.12 3.12 0 0 0-.56.49 2.08 2.08 0 0 0-.39.77 2.3 2.3 0 0 0 .25 1.64 6.35 6.35 0 0 0 1.92 2c.18.14.37.26.55.38s.41.25.62.36a6.75 6.75 0 0 0 1.26.48 14.81 14.81 0 0 0 2.39.47 26 26 0 0 0 4 .15c2.28-.02 3.68-.41 3.64-.62zM236.29 276.67c.06-.08-.14-.33-.5-.72a13.43 13.43 0 0 1-1.32-1.78 15 15 0 0 1-1.95-6.92 13.61 13.61 0 0 1 .35-3.93c.3-1.14.86-2.08 1.5-2.28a2.4 2.4 0 0 1 1.81.45c.44.28.72.45.79.38s-.06-.36-.43-.81l-.34-.35a5.19 5.19 0 0 0-.49-.35 2.31 2.31 0 0 0-1.57-.32 2.71 2.71 0 0 0-1.62 1.08 6.09 6.09 0 0 0-.93 1.81 12.53 12.53 0 0 0-.52 4.39 13.13 13.13 0 0 0 2.56 7.45 7.29 7.29 0 0 0 1.8 1.62c.51.27.81.37.86.28z" fill="#d18939"/></svg>