<svg data-name="Capa 1" xmlns="http://www.w3.org/2000/svg" viewBox="0 0 361 305"><path d="M204.8 113.8c2.54 13.46 8.31 23.49 12.89 22.4s6.26-12.9 3.73-26.37-8.3-23.49-12.89-22.4-6.25 12.9-3.73 26.37zM152.93 117c-2.53 13.46-8.3 23.49-12.89 22.4s-6.26-12.9-3.73-26.37 8.3-23.49 12.89-22.4 6.26 12.87 3.73 26.37z"/><path d="M212.25 149.73c6.66 2.53 13.37 5 20.07 7.4 30.34 11-2 37.27-13.62 49.37v-13.64c0-1.35 4.58-5.28 5.41-6.29 2.7-3.24 6-6.75 7.77-10.62 4.3-9.37-18.46-12.17-24.14-12.34M148.75 149.73c-6.66 2.53-13.37 5-20.07 7.4-30.34 11 2 37.27 13.62 49.37v-13.64c0-1.35-4.58-5.28-5.42-6.29-2.69-3.24-6-6.75-7.76-10.62-4.3-9.37 18-12 23.71-12.18" fill="#f2bc63"/><path d="M159.12 174.37c-.79-2.71-3.71-24.64-3.71-24.64l-13-4.19z" fill="#7bccf3"/><path d="M200.45 175.74c.78-2.71 3.7-24.64 3.7-24.64l13-4.2z" fill="#46a1da"/><path fill="#4c4c4d" d="M193.98 217.68h-39.43l1.92 79.61h17.35l-.05-68.39h11.81l-.06 68.39h17.55l1.92-79.61h-11.01z"/><path fill="#3d3d3d" d="M195.19 217.68v79.61h7.95l1.92-79.61h-9.87z"/><path d="M180.77 287.67c0-3.24 1.75-5.87 3.92-5.87h25.47c2.06 0 3.73 2.54 3.73 5.67v11.63c0 3.13-1.67 5.67-3.73 5.67h-29.39v-17.1z" fill="#6e3318"/><path d="M184.46 281.8h9.13v23h-12.82v-17.3c0-3.16 1.65-5.7 3.69-5.7z" fill="#562915"/><path d="M201.36 294.41c10.88 0 19.7 4.52 19.7 10.09h-39.39c0-5.57 8.82-10.09 19.69-10.09z" fill="#6e3318" stroke="#471c10" stroke-miterlimit="10" stroke-width=".534"/><path d="M179.7 287.67c0-3.24-1.76-5.87-3.93-5.87H150.3c-2.06 0-3.73 2.54-3.73 5.67v11.63c0 3.13 1.67 5.67 3.73 5.67h29.4v-17.1z" fill="#6e3318"/><path d="M176 281.8h-9.13v23h12.83v-17.3c0-3.16-1.65-5.7-3.7-5.7z" fill="#562915"/><path d="M159.17 294.41c-10.88 0-19.69 4.52-19.69 10.09h39.38c0-5.57-8.81-10.09-19.69-10.09z" fill="#6e3318" stroke="#471c10" stroke-miterlimit="10" stroke-width=".534"/><path d="M232 219.49a2.11 2.11 0 0 1-2.26 1.93H129.59a2.11 2.11 0 0 1-2.25-1.93L142 195.33l9.9-44.36a1.18 1.18 0 0 1 1.2-1.15h53.18a1.17 1.17 0 0 1 1.19 1.15l9.77 43.57z" fill="#7bccf3"/><path d="M217.18 194.54L207.41 151a1.18 1.18 0 0 0-1.2-1.15H155a16.4 16.4 0 0 0 3 2.14 13.81 13.81 0 0 0 4.08 1.8 46.8 46.8 0 0 0 5.45 1.39c6.46 1.22 16.11 2.18 24.88 4.36 3.3.82 5 3.85 5.21 7 1.51 18.81 7.22 37.19 14.15 54.92h17.93a2.11 2.11 0 0 0 2.25-1.93z" fill="#46a1da"/><ellipse cx="180.47" cy="157.94" rx="21.34" ry="9.97" fill="#46a1da" stroke="#4567a1" stroke-miterlimit="10" stroke-width="2.137"/><path fill="#4567a1" d="M198.15 221.42h-13.49l5.38-30.6 8.11 30.6zM219.91 221.42h-13.5v-30l13.5 30zM161.01 221.42h13.49l-5.38-30.6-8.11 30.6zM139.49 221.42h13.49v-30l-13.49 30z"/><path fill="#843c1c" d="M215.69 177.07h-72.04l-2.93 20.31h77.9l-2.93-20.31z"/><path fill="#6e3318" d="M195.19 197.38h23.48l-3.17-20.31h-20.31v20.31z"/><path d="M187.86 199.51H171a4.11 4.11 0 0 1-4.12-4.12V179.6a4.12 4.12 0 0 1 4.12-4.13h16.86a4.13 4.13 0 0 1 4.14 4.13v15.79a4.12 4.12 0 0 1-4.14 4.12z" fill="#66615c"/><path d="M171 199.51h2.29L192 180.7v-1.1a4.13 4.13 0 0 0-4.13-4.13h-4.23q-8.38 8.43-16.75 16.87v3a4.15 4.15 0 0 0 4.11 4.17zM187.37 199h.49a4.13 4.13 0 0 0 4.13-4.13v-.49zM169.39 175.81a4.17 4.17 0 0 0-1.78 1.77z" fill="#66615c"/><path d="M184.66 194.7H174.2a2.51 2.51 0 0 1-2.52-2.51v-9.4a2.51 2.51 0 0 1 2.52-2.51h10.47a2.51 2.51 0 0 1 2.51 2.51v9.4a2.51 2.51 0 0 1-2.52 2.51z" fill="#843c1c"/><circle cx="148.54" cy="187.25" r="1.79" fill="#542815"/><circle cx="160.92" cy="187.25" r="1.79" fill="#542815"/><ellipse cx="179.55" cy="114.16" rx="34.96" ry="45.8" fill="#f2bc63"/><path d="M150.12 107.81s10.26-5.83 19.11 0"/><path d="M183.45 46.66a3.71 3.71 0 0 0-7.33 0l-25.36 35.77s29.84-9.79 59.44 0z" fill="#79c1cc"/><path d="M193.25 72c9.1 8.27 15.06 22 15.06 37.65 0 25.3-15.65 45.8-34.95 45.8a27.85 27.85 0 0 1-13.71-3.66c5.65 5.14 12.5 8.15 19.9 8.15 19.31 0 35-20.5 35-45.79-.04-18.92-8.8-35.15-21.3-42.15z" fill="#d18939"/><path d="M179.36 43.57c-1 5.56 1.78 11.68 3.2 16.89q2.43 8.91 4.92 17.78a88.15 88.15 0 0 1 22.72 4.19l-26.75-35.77a4 4 0 0 0-3.67-3.12 3 3 0 0 0-.42.03z" fill="#5d9cc9"/><path d="M189.28 107.21s10.26-5.82 19.1 0"/><ellipse cx="179.55" cy="118.05" rx="18.22" ry="11.54" fill="#d85b4a"/><path d="M190.44 108.8a8.28 8.28 0 0 1 1.86 5.08c0 6.37-8.16 11.53-18.23 11.53a25.63 25.63 0 0 1-10.88-2.28c3 3.82 9.18 6.46 16.36 6.46 10.06 0 18.22-5.17 18.22-11.54 0-3.79-2.88-7.15-7.33-9.25z" fill="#a9473a"/><ellipse cx="173.01" cy="112.96" rx="7.07" ry="4.02" fill="#f58677"/><path d="M209.85 120.68s3.83 15.34-13.48 15.52H179.7" fill="none" stroke="#000" stroke-miterlimit="10" stroke-width=".534"/><path d="M149.24 120.68s-3.82 15.32 13.48 15.52h17" fill="none" stroke="#000" stroke-miterlimit="10" stroke-width=".534"/><path d="M201.41 77.07s-38.06 18-64.37 18.28c-.04 0 9.23-42.77 64.37-18.28z"/><path d="M195 76.56c4.05 9.21 12.87 17.09 22 19.5-2.6-8-12.23-30.52-22.33-20.65M208.8 152c0 10.95 11.78 19.83 9.73 19.83s9.73-8.88 9.73-19.83-4.35-19.83-9.73-19.83S208.8 141 208.8 152zM148.93 155.16c0 11-11.78 19.83-9.73 19.83s-9.73-8.88-9.73-19.83 4.35-19.83 9.73-19.83 9.73 8.88 9.73 19.83z"/></svg>