<svg id="Layer_1" data-name="Layer 1" xmlns="http://www.w3.org/2000/svg" viewBox="0 0 361 305"><title>Artboard 5</title><path d="M203.46,260.76H131.68l3.21,33.44h43.32l-.08-18.88h4.4l-.09,18.88h43.08l3.22-33.44Z" style="fill:#4c4c4d"/><path d="M207.88,260.76V294.2H225.6l3.21-33.44Z" style="fill:#3d3d3d"/><path d="M186.3,282.88h37.22a5.39,5.39,0,0,1,5.39,5.39h0V299.6a5.39,5.39,0,0,1-5.39,5.39H180.91V288.27a5.39,5.39,0,0,1,5.39-5.39Z" style="fill:#6e3318"/><path d="M186.3,282.88h13.49V305H180.91V288.27a5.39,5.39,0,0,1,5.39-5.39Z" style="fill:#562915"/><path d="M210.78,290.22c15.62,0,28.27,6.49,28.27,14.5H182.51c0-8,12.66-14.5,28.27-14.5Z" style="fill:#6e3318;stroke:#471c10;stroke-miterlimit:10;stroke-width:0.5389999747276306px"/><path d="M175,282.88H137.76a5.39,5.39,0,0,0-5.39,5.39h0V299.6a5.39,5.39,0,0,0,5.38,5.4h42.62V288.27a5.39,5.39,0,0,0-5.39-5.39Z" style="fill:#6e3318"/><path d="M175,282.88H161.46V305h18.88V288.27a5.39,5.39,0,0,0-5.36-5.39Z" style="fill:#562915"/><path d="M150.22,290.22c-15.62,0-28.27,6.49-28.27,14.5h56.51C178.46,296.71,165.83,290.22,150.22,290.22Z" style="fill:#6e3318;stroke:#471c10;stroke-miterlimit:10;stroke-width:0.5389999747276306px"/><path d="M218.23,130.44c-4.31-9,15.1-13,21.22-11.87-2.88,2.16-6.12,4-8.63,6.84,6.47-1.08,14.74,1.07,16.18,8.27-4.68-1.08-9,6.83-13.67,7.91-6.11,1.43-14.38-3.24-15.46-9.35m-75.15-1.8c4.32-9-15.1-13-21.21-11.87,2.88,2.16,6.11,4,8.63,6.84-6.47-1.08-14.74,1.07-16.18,8.27,4.67-1.08,9,6.83,13.66,7.91,6.11,1.43,14.38-3.24,15.46-9.35"/><circle cx="129.35" cy="150.04" r="13.84" style="fill:#fcc184"/><circle cx="129.35" cy="150.04" r="13.84" style="fill:#9e5431"/><path d="M134.37,143.33a9.52,9.52,0,0,0-1.51-.13,10.34,10.34,0,0,0-.07,20.68,10.56,10.56,0,0,0,3.48-.59c-3.13-6.08-3.27-13-1.9-20Z" style="fill:#733e1e"/><path d="M228.37,222.76c12.18,0,22,7,22,15.55s-9.87,15.55-22,15.55Z" style="fill:#9e5431"/><path d="M224.94,170.75s24,27.45,27.56,66.82H224.06" style="fill:#751517"/><path d="M132.37,222.76c-12.17,0-22.05,7-22.05,15.55s9.88,15.55,22.05,15.55Z" style="fill:#9e5431"/><path d="M136.06,170.75s-24,27.45-27.56,66.82h28.19" style="fill:#751517"/><path d="M231.07,271H130.59l4.26-105.17h92L231.07,271Z" style="fill:#911a1d"/><circle cx="181.4" cy="147.04" r="44.49" style="fill:#9e5431"/><circle cx="233.46" cy="150.04" r="13.84" style="fill:#9e5431"/><path d="M198.79,106.07a44.5,44.5,0,0,1-46.51,74.6,44.5,44.5,0,1,0,46.51-74.6Zm30,37.26a9.64,9.64,0,0,1,1.52-.13,10.34,10.34,0,1,1-3.42,20.09c3.12-6.08,3.26-13,1.9-20Z" style="fill:#733e1e"/><path d="M185.79,48c-.84-4.66-3.09-8-5.72-8s-4.89,3.35-5.72,8l-39.58,91.7s46.57-25.08,92.77,0Z" style="fill:#c52026"/><ellipse cx="204.69" cy="139.7" rx="5.39" ry="11.24"/><ellipse cx="157.22" cy="139.7" rx="5.39" ry="11.24"/><ellipse cx="206.57" cy="136.89" rx="1.81" ry="3.97" style="fill:#fff"/><ellipse cx="159.64" cy="136.89" rx="1.81" ry="3.97" style="fill:#fff"/><path d="M207.76,165.84h18.93L231,271H209Z" style="fill:#751517"/><path d="M197.09,223h-32.9a5.39,5.39,0,0,1-5.39-5.39V188.49a5.39,5.39,0,0,1,5.39-5.39h32.9a5.39,5.39,0,0,1,5.4,5.38h0v29.13a5.41,5.41,0,0,1-5.4,5.38Z" style="fill:none;stroke:#551314;stroke-miterlimit:10;stroke-width:3.058000087738037px"/><path d="M227.11,138.44l-1.82-.09c1.47,7.72,5.6,43.29-43.78,39.75-49.43,3.54-45.25-32.09-43.78-39.77l-2.22.11s-29.19,48.26,45.4,78.3v.17a1.35,1.35,0,0,0,.4-.08c.07,0,.14,0,.14.08v-.17C256.3,186.7,227.11,138.44,227.11,138.44Z"/><path d="M232,188.06c-10.22-34.12-25.08-38.2-25.08-38.2l-26.16,28.19L154.6,149.86s-14.86,4.08-25.08,38.2c0,0,21.1,10.46,51.24-7.15C210.9,198.52,232,188.06,232,188.06Z" style="stroke:#484748;stroke-miterlimit:10;stroke-width:0.5389999747276306px"/><ellipse cx="180.64" cy="160.73" rx="29.76" ry="22.92" style="fill:#d85b4a"/><path d="M190.5,128.84a91.46,91.46,0,0,1,37,10.86L185.79,48c-.84-4.66-3.09-8-5.72-8a4.26,4.26,0,0,0-3.28,1.92Z" style="fill:#991c20"/><path d="M197.69,142a19.34,19.34,0,0,1,5,12.75c0,12.66-13.33,22.92-29.76,22.92a36,36,0,0,1-17.05-4.13c5.34,6.13,14.43,10.16,24.73,10.16,16.44,0,29.76-10.26,29.76-22.92C210.4,153,205.37,146.09,197.69,142Z" style="fill:#a9473a"/><ellipse cx="168.59" cy="150.81" rx="9.48" ry="5.88" style="fill:#f58677"/><path d="M229.33,233.8h-97L131,250.52h99.59l-1.29-16.72Z" style="fill:#843c1c"/><path d="M200.87,250.52h30l-1.3-16.72H200.87Z" style="fill:#6e3318"/><path d="M197.09,252.1a5.43,5.43,0,0,1-5.42,5.43H169.59a5.4,5.4,0,0,1-5.4-5.4V231.64a5.4,5.4,0,0,1,5.4-5.4H191.7a5.39,5.39,0,0,1,5.39,5.39h0Z" style="fill:#bb882c"/><path d="M169.59,257.53h3L197.09,233v-1.4a5.39,5.39,0,0,0-5.38-5.4h-5.57l-21.95,22v3.93A5.4,5.4,0,0,0,169.59,257.53Z" style="fill:#f9b547"/><path d="M191.06,257.53h.64a5.39,5.39,0,0,0,5.39-5.39h0v-.64Zm-23.67-30.66a5.44,5.44,0,0,0-2.32,2.31Z" style="fill:#bb882c"/><path d="M187.33,251.05H174a3.3,3.3,0,0,1-3.29-3.28V235.46a3.28,3.28,0,0,1,3.28-3.28h13.39a3.28,3.28,0,0,1,3.29,3.27h0v12.31a3.28,3.28,0,0,1-3.28,3.28Z" style="fill:#843c1c"/><circle cx="140.14" cy="241.81" r="2.34" style="fill:#542815"/><circle cx="156.32" cy="241.81" r="2.34" style="fill:#542815"/></svg>