<svg data-name="Capa 1" xmlns="http://www.w3.org/2000/svg" viewBox="0 0 361 305"><path d="M272.73 71.82C345.14 84.39 356.6 141.93 345.2 201c0 0-33.27 6.72-48.42 9.09 0 0-4.26-42.58-21.46-52.47" fill="#979241"/><path d="M310 164.93a109.93 109.93 0 0 1 7.59 41.46c-7.67 1.45-15.36 2.84-20.76 3.69 0 0-4.27-42.58-21.46-52.47l-1.24-41C292.21 128.53 303 147 310 164.93z" fill="#6f783e"/><path d="M333.83 126.17a4.54 4.54 0 0 1 1.22-.16 8.32 8.32 0 0 1 5.32 2.47c.52 1.38 1 2.77 1.47 4.18-2.42-3.21-4.84-4.94-6.79-4.94a3 3 0 0 0-.79.1c-2.23.58-3.8 3.77-4.32 8.74a55.29 55.29 0 0 0 1.94 18.93c3.78 14.43 10.51 23.06 14.84 23.06a3 3 0 0 0 .8-.11 3.36 3.36 0 0 0 1.42-.81v2.06a4.81 4.81 0 0 1-1 .41 5 5 0 0 1-1.23.15c-5.87 0-12.8-10.23-16.5-24.33a57.25 57.25 0 0 1-2-19.54c.64-5.8 2.62-9.38 5.62-10.21z" fill="#4d5525"/><path d="M350.62 208.54c3.42-7.6 12.92-35.71-1.9-33.82-3.42.39-6.84 2.28-10.64 2.28-2.66 0-7.22-1.52-9.88 0-12.92 7.22 10.64 20.9 14.06 23.56" fill="#d19659"/><path d="M295.34 213.14a5.71 5.71 0 0 0 5.71 5.7h46.16a5.7 5.7 0 0 0 5.7-5.7v-29.82a5.71 5.71 0 0 0-5.71-5.7L334.71 182l-33.66-4.41a5.71 5.71 0 0 0-5.71 5.7v29.82z" fill="#fcc184"/><path d="M346 196.69s-8.79 5.89-45.88-1.52c-.02 0 32.33 14.64 45.88 1.52z" fill="#d19659"/><path d="M88.27 71.82C15.86 84.39 4.4 141.93 15.8 201c0 0 33.27 6.72 48.42 9.09 0 0 4.26-42.58 21.46-52.47" fill="#979241"/><path d="M51.05 164.93a109.93 109.93 0 0 0-7.59 41.46c7.67 1.45 15.36 2.84 20.76 3.69 0 0 4.27-42.58 21.46-52.47l1.24-41C68.79 128.53 58 147 51.05 164.93z" fill="#6f783e"/><path fill="#4c4c4d" d="M185.91 261.58h30.21v38.76h-30.21zM147.15 261.58h30.21v38.76h-30.21z"/><path fill="#3d3d3d" d="M185.91 261.58h11.4v38.76h-11.4zM167.67 261.58h9.69v38.76h-9.69z"/><path d="M302.23 99.16a27.37 27.37 0 0 0-27.37-27.37H88.24a27.36 27.36 0 0 0-27.37 27.37l7.95 131.61a25.41 25.41 0 0 0 2.66 11.34L71 249.2c0 13.14 11.25 23.8 25.1 23.8H267c13.85 0 25.07-10.64 25.07-23.78l-.45-7.09a25.41 25.41 0 0 0 2.66-11.34z" fill="#979241"/><path d="M302.22 99.16a27.36 27.36 0 0 0-27.37-27.37H151.64c-.14.43-.28.87-.44 1.29-2.09 5.57-5.18 10.67-7.35 16.2-4.56 11.62-8.4 23.65-13.75 34.94-1.91 4-4.32 9.06-2.84 13.62 1.37 4.2 4.65 8 7.75 11 6.83 6.75 14.42 12.19 23.8 14.7 18.54 4.95 41.69.93 54.79 18 4.85 6.31 7.22 14.52 7.66 22.39.66 11.73 2 23.63.18 35.32s-6.05 22.57-9.73 33.73H267c13.85 0 25.08-10.64 25.08-23.78l-.45-7.09a25.53 25.53 0 0 0 2.65-11.34z" fill="#6f783e"/><path d="M82.5 81.6c2 .58 198 0 198 0M82.5 78.75c2 .58 198 0 198 0" fill="none" stroke="#4d5525" stroke-miterlimit="10" stroke-width="1.71"/><path d="M223.53 184.8a11.24 11.24 0 0 1-11.24 11.2h-68.17a11.21 11.21 0 0 1-11.22-11.21V124a11.21 11.21 0 0 1 11.21-11.22h68.2A11.22 11.22 0 0 1 223.53 124v60.8z" fill="none" stroke="#4d5525" stroke-miterlimit="10" stroke-width="3.42"/><circle cx="220.52" cy="109.81" r="9.65" fill="#fcc184"/><circle cx="140.8" cy="109.81" r="9.65" fill="#fcc184"/><ellipse cx="220.98" cy="112.15" rx="5.92" ry="5.87" fill="#d19659"/><ellipse cx="140.8" cy="112.15" rx="5.92" ry="5.87" fill="#d19659"/><circle cx="180.5" cy="113.39" r="35.97" fill="#fcc184"/><path d="M256.31 172.92c-2.49-6.64-42-71-42-71l-.53-.32c2.52 10.17 7.18 41.07-33 30.08h-.31c-40.73 11.15-35.33-20.82-32.85-30.51l-1.26.75s-37.11 69.47-39.6 76.11 52.59 7.83 73.55 17.8c21-10.02 78.49-16.26 76-22.91z" fill="#c64327"/><path d="M146.39 101.94c9.31-1 42.88-4.06 64.23-.91 1.26.19 2.54.25 3.81.37-1.61-4.05-3.31-8.06-5.07-12.05-1.36-3.09-2.72-6.17-4.27-9.17-3-5.8-2.34-8.58 3.93-10.81 2.63-.94 5.18-2.08 7.76-3.17 3.41-1.44 5.61-3.52.72-5A36.51 36.51 0 0 0 207 60c-6 0-12 1.07-18 2-8.69 1.3-17.36 2.78-25.95 4.63-4.76 1-5.81 2.15-7.39 7.2-2.09 6.61-9.27 28.11-9.27 28.11z" fill="#979241"/><path d="M201.76 68.24c-6.53 2.9-13 6.21-17.12 12.32a49.8 49.8 0 0 0-6.92 17c-.16.74-.31 1.48-.44 2.22 11.35-.35 23.61-.2 33.34 1.24 1.26.19 2.54.25 3.81.37-1.61-4.05-3.31-8.06-5.07-12.05-1.35-3.09-2.72-6.17-4.26-9.17-3-5.8-2.35-8.58 3.92-10.81 2.63-.94 5.18-2.08 7.76-3.17 1.81-.76 3.26-1.71 3.51-2.65-6.12 1.75-12.56 2.06-18.53 4.7z" fill="#6f783e"/><path d="M211.57 99.78a6.23 6.23 0 0 1-4.13 7.78l-12.51 3.83a6.24 6.24 0 0 1-7.78-4.13l-1.27-4.17a6.23 6.23 0 0 1 4.12-7.78l12.5-3.83a6.24 6.24 0 0 1 7.78 4.13zM175.34 106a6.22 6.22 0 0 1-7.29 4.94l-12.84-2.48a6.22 6.22 0 0 1-4.94-7.29l.83-4.28a6.22 6.22 0 0 1 7.29-4.94l12.84 2.48a6.22 6.22 0 0 1 4.94 7.29z" fill="#a43823"/><path d="M215.86 129.64s-.84-6.12-35.64-5.34c-34.8-.78-35.63 5.34-35.63 5.34v11.49c3.73 1 28 1.85 34.76 2.08v.21h1.71v-.21c6.75-.23 31-1.11 34.77-2.08v-11.49z" fill="#a43823" stroke="#a43823" stroke-miterlimit="10" stroke-width=".57"/><path d="M202.44 163h-47.31a5.7 5.7 0 0 1-5.7-5.7v-12a5.7 5.7 0 0 1 5.7-5.7h47.31a5.7 5.7 0 0 1 5.7 5.7v12a5.7 5.7 0 0 1-5.7 5.7z" fill="#391212"/><path d="M181.34 142.47a4.15 4.15 0 0 1 1.84 3.5 3.72 3.72 0 1 1-7.41 0 4.16 4.16 0 0 1 1.83-3.5c-6.58.61-11.64 4.35-11.64 8.87 0 4.95 6 9 13.51 9s13.52-4 13.52-9c.01-4.52-5.07-8.26-11.65-8.87z" fill="#1e0e0e"/><path d="M183.33 148.22a8.41 8.41 0 0 0-4.13 1.05 8.41 8.41 0 0 0-4.13-1.05c-4 0-7.22 2.62-7.22 5.85s3.23 5.85 7.22 5.85a8.31 8.31 0 0 0 4.13-1.06 8.31 8.31 0 0 0 4.13 1.06c4 0 7.21-2.62 7.21-5.85s-3.23-5.85-7.21-5.85z" fill="#d66b6b"/><path d="M201.87 142.25v8.1a4.55 4.55 0 0 1-4.44 4.65h-37.28a4.55 4.55 0 0 1-4.45-4.65v-8.1a4.75 4.75 0 0 0-2.28 4v10.06a4.92 4.92 0 0 0 4.92 4.92h40.88a4.93 4.93 0 0 0 4.93-4.92v-10.02a4.75 4.75 0 0 0-2.28-4.04z" fill="#fff"/><path d="M208.39 161.84a2.8 2.8 0 0 1-2.75 2.85h-53.4a2.8 2.8 0 0 1-2.75-2.85 2.8 2.8 0 0 1 2.75-2.85h53.4a2.8 2.8 0 0 1 2.75 2.85z" fill="#a43823"/><ellipse cx="180.5" cy="122.27" rx="32.69" ry="20.86" fill="#d85b4a"/><path d="M191.14 102.54c6.61 3.82 10.77 9.34 10.77 15.48 0 11.52-14.64 20.86-32.7 20.86a49.77 49.77 0 0 1-10.63-1.14 44.32 44.32 0 0 0 21.92 5.39c18.06 0 32.69-9.34 32.69-20.86 0-9.15-9.19-16.91-22.05-19.73z" fill="#a9473a"/><ellipse cx="168.34" cy="114.53" rx="10.6" ry="5.74" fill="#f58677"/><path d="M210 100.79a6.24 6.24 0 0 0-7.78-4.13l-12.51 3.83a6.18 6.18 0 0 0-3.56 2.85l-.1-.31a6.23 6.23 0 0 1 4.13-7.78l12.51-3.83a6.23 6.23 0 0 1 7.77 4.13l1.28 4.17a6.19 6.19 0 0 1-.56 4.93zM152.12 102a6.23 6.23 0 0 1 7.29-4.94l12.84 2.48a6.21 6.21 0 0 1 3.86 2.45l.06-.32a6.22 6.22 0 0 0-4.94-7.29l-12.84-2.48a6.22 6.22 0 0 0-7.29 4.94l-.83 4.28a6.21 6.21 0 0 0 1.09 4.84zM179.88 135.47c-15 0-28-2.81-34.44-6.9v11.53c3.68 1.46 27.56 2.78 34.2 3.12v.08h1.71v-.08c6.64-.34 30.52-1.66 34.2-3.12v-12.38c-5.89 4.55-19.64 7.75-35.67 7.75z" fill="#c64327"/><path d="M210.84 128.39c7.55-1 11.65-4.81 13.73-9.61-5.91-9.73-10.27-16.84-10.27-16.84l-.53-.31c1.48 6 3.71 19.19-2.93 26.76zM191.44 190.46c-21-10-76-11.15-73.56-17.8 1.59-4.22 17.17-33.85 28.31-54.87a47.65 47.65 0 0 1 1.46-16.59l-1.26.74s-37.11 69.48-39.6 76.12 52.59 7.83 73.55 17.79c20.45-9.71 75.61-15.89 76-22.35-17.25 4.77-50.14 9.94-64.9 16.96z" fill="#c64327"/><path d="M158.58 173.39s19.58 9.73 44.1 0l-23.74 8.17s-19.13-6.81-20.36-8.17z" fill="#a43823"/><path fill="#843c1c" d="M293.61 257.59H68.28l-2.99-52.43h231.32l-3 52.43z"/><path fill="#6e3318" d="M226.38 205.16h69.72l-2.99 52.43h-66.73v-52.43z"/><path d="M199.44 261.58H157a10.41 10.41 0 0 1-10.41-10.41v-39A10.41 10.41 0 0 1 157 201.74h42.45a10.41 10.41 0 0 1 10.41 10.41v39a10.41 10.41 0 0 1-10.42 10.43z" fill="#66615c"/><path d="M194 254.74h-32.14a7.86 7.86 0 0 1-7.87-7.86V217a7.86 7.86 0 0 1 7.86-7.86H194a7.86 7.86 0 0 1 7.87 7.86v29.87a7.86 7.86 0 0 1-7.87 7.87z" fill="#843c1c"/><circle cx="107.7" cy="230.94" r="3.6" fill="#542815"/><circle cx="131.06" cy="230.94" r="3.6" fill="#542815"/><path d="M180.78 287.23c0-3.46-2-6.27-4.38-6.27h-29.51c-2.37 0-4.3 2.71-4.3 6.05v12.41c0 3.34 1.93 6.05 4.3 6.05h33.89v-18.24z" fill="#6e3318"/><path d="M176.52 281H166v24.51h14.82V287c-.04-3.33-1.95-6-4.3-6z" fill="#562915"/><path d="M157.09 294.28c-12.36 0-22.38 5.14-22.38 11.48h44.76c0-6.34-10.02-11.48-22.38-11.48z" fill="#6e3318" stroke="#471c10" stroke-miterlimit="10" stroke-width=".57"/><path d="M182.49 287.23c0-3.46 2-6.27 4.38-6.27h29.5c2.38 0 4.31 2.71 4.31 6.05v12.41c0 3.34-1.93 6.05-4.31 6.05h-33.88v-18.24z" fill="#6e3318"/><path d="M186.75 281h10.56v24.51h-14.82V287c0-3.33 1.91-6 4.26-6z" fill="#562915"/><path d="M206.24 294.28c12.36 0 22.38 5.14 22.38 11.48h-44.77c.01-6.34 10.03-11.48 22.39-11.48z" fill="#6e3318" stroke="#471c10" stroke-miterlimit="10" stroke-width=".57"/><path d="M299 153.13s-4.47-56.77-20.33-81M64.16 153.13s4.46-56.77 20.33-81" fill="none" stroke="#4d5525" stroke-miterlimit="10" stroke-width="1.71"/><path d="M27.17 126.17a4.56 4.56 0 0 0-1.23-.16 8.32 8.32 0 0 0-5.31 2.47c-.52 1.38-1 2.77-1.47 4.18 2.42-3.21 4.84-4.94 6.78-4.94a3 3 0 0 1 .8.1c2.23.58 3.8 3.77 4.32 8.74a55.29 55.29 0 0 1-1.94 18.93c-3.78 14.43-10.51 23.06-14.84 23.06a3 3 0 0 1-.8-.11 3.36 3.36 0 0 1-1.42-.81v2.06a4.81 4.81 0 0 0 1 .41 5 5 0 0 0 1.23.15c5.87 0 12.8-10.23 16.5-24.33a57.25 57.25 0 0 0 2-19.54c-.64-5.8-2.62-9.38-5.62-10.21z" fill="#4d5525"/><path d="M178.22 231.09a5.42 5.42 0 0 1-5.41 5.42h-17.05a5.42 5.42 0 0 1-5.41-5.42 5.41 5.41 0 0 1 5.41-5.41h17.05a5.41 5.41 0 0 1 5.41 5.41z" fill="#66615c"/><path d="M10.38 208.54c-3.42-7.6-12.92-35.71 1.9-33.82 3.42.39 6.84 2.28 10.64 2.28 2.66 0 7.22-1.52 9.88 0 12.92 7.22-10.64 20.9-14.06 23.56" fill="#d19659"/><path d="M60 218.84H13.78a5.7 5.7 0 0 1-5.7-5.7v-29.82a5.71 5.71 0 0 1 5.71-5.7L26.27 182l33.67-4.41a5.71 5.71 0 0 1 5.71 5.7v29.82a5.7 5.7 0 0 1-5.65 5.73z" fill="#fcc184"/><path d="M15 196.69s8.79 5.89 45.88-1.52c.02 0-32.33 14.64-45.88 1.52z" fill="#d19659"/></svg>