<svg id="Layer_1" data-name="Layer 1" xmlns="http://www.w3.org/2000/svg" viewBox="0 0 361 305"><title>Artboard 7</title><path d="M217.8,130.26c-4.31-9,15.1-12.94,21.22-11.86-2.88,2.15-6.12,4-8.63,6.83,6.47-1.08,14.74,1.08,16.18,8.27-4.68-1.08-9,6.83-13.67,7.91-6.11,1.44-14.38-3.24-15.46-9.35m-75.15-1.8c4.32-9-15.1-12.94-21.21-11.86,2.88,2.15,6.11,4,8.63,6.83-6.47-1.08-14.74,1.08-16.18,8.27,4.67-1.08,9,6.83,13.66,7.91,6.11,1.44,14.38-3.24,15.46-9.35"/><circle cx="128.92" cy="149.86" r="13.84" style="fill:#fcc184"/><circle cx="128.92" cy="149.86" r="13.84" style="fill:#9e5431"/><path d="M255.48,115a11.42,11.42,0,0,0-13.15,9.38h0l-.22,1.28-1.28-1.2c-2.43-2.25-5.73-3.06-7.37-1.81s-1,4.1,1.42,6.36l5.71,5.75-.38,2.29,22.52,3.77,2.13-12.67A11.42,11.42,0,0,0,255.48,115Z" style="fill:#9e5431"/><path d="M133.94,143.15a9.61,9.61,0,0,0-1.51-.12,10.34,10.34,0,0,0-.65,20.67c.22,0,.43,0,.65,0a10.19,10.19,0,0,0,3.41-.59C132.71,157,132.59,150.07,133.94,143.15Z" style="fill:#733e1e"/><path d="M226.65,200.1s28.55-22.67,39.17-60.75l-27.94-5.12L223.55,164" style="fill:#751517"/><path d="M203.42,260.77H131.64l3.21,33.44h43.33l-.09-18.88h4.4l-.09,18.88h43.09l3.21-33.44Z" style="fill:#4c4c4d"/><path d="M207.84,260.77v33.44h17.72l3.21-33.44Z" style="fill:#3d3d3d"/><path d="M230.64,271H130.15l4.27-105.18h92Z" style="fill:#911a1d"/><circle cx="180.97" cy="146.87" r="44.49" style="fill:#9e5431"/><circle cx="233.03" cy="149.86" r="13.84" style="fill:#9e5431"/><path d="M198.36,105.9a44.5,44.5,0,0,1-46.51,74.59,44.49,44.49,0,1,0,46.51-74.59Zm30,37.25a9.64,9.64,0,0,1,1.52-.12,10.34,10.34,0,0,1,.64,20.67c-.21,0-.43,0-.64,0a10.16,10.16,0,0,1-3.42-.59C229.59,157,229.71,150.07,228.35,143.15Z" style="fill:#733e1e"/><path d="M185.36,68.35c-.84-3.61-3.09-6.2-5.72-6.2s-4.89,2.6-5.72,6.23l-39.58,71.14s46.57-19.46,92.77,0Z" style="fill:#c52026"/><path d="M207.72,165.84h18.94L230.92,271h-22Z" style="fill:#751517"/><path d="M197,222.47h-32.9a5.39,5.39,0,0,1-5.39-5.39V188a5.4,5.4,0,0,1,5.39-5.4H197a5.4,5.4,0,0,1,5.4,5.4v29.12a5.39,5.39,0,0,1-5.39,5.39Z" style="fill:none;stroke:#551314;stroke-miterlimit:10;stroke-width:3.058000087738037px"/><path d="M226.68,138.26l-1.82-.09c.76,4,2.23,15.39-3.31,25-.26-6.68-4.46-12.47-14.81-15a100.58,100.58,0,0,0-29.48-2.87c-12.59.36-22.29,6.11-33.44,11.14a22.28,22.28,0,0,0-4.92,3.21c-3.49-8.73-2.26-18-1.6-21.47l-2.22.11s-29.19,48.27,45.79,78.3v.12c-.13,0-.06-.06,0-.09a1.6,1.6,0,0,0,.53.09v-.18c74.47-30,45.28-78.27,45.28-78.27Z"/><ellipse cx="180.21" cy="171.77" rx="15.48" ry="24.91" style="fill:#391212"/><path d="M181.71,165.15a5.07,5.07,0,0,1,1.73,4c0,2.57-1.56,4.64-3.5,4.64s-3.51-2.07-3.51-4.64a5,5,0,0,1,1.74-4c-6.23.69-11,5-11,10.15,0,5.66,5.72,10.25,12.79,10.25s12.79-4.59,12.79-10.25C192.73,170.12,187.93,165.84,181.71,165.15Z" style="fill:#1e0e0e"/><path d="M189.5,189.42c0,5.34-7.33,7.33-9.44,7.33s-9.43-2-9.43-7.33v-.93c0-3.43,3.35-7.33,9.43-7.33s9.44,3.9,9.44,7.33Z" style="fill:#d66b6b"/><path d="M180,181.19c-6.08,0-9.43,3.89-9.43,7.33v.92a5.55,5.55,0,0,0,.09,1c.52-2.88,3.3-5.79,8-6.27.43,2.07,1.26,6,1.37,6.68,0-.72.78-4.64,1.18-6.71,4.8.43,7.64,3.38,8.17,6.31a5.55,5.55,0,0,0,.09-1v-.92c0-3.45-3.35-7.34-9.47-7.34Z" style="fill:#cf4e4f"/><path d="M180.21,190.94v-.11A.21.21,0,0,0,180.21,190.94Z" style="fill:#cf4e4f"/><path d="M231.58,160.92c-10.23-34.12-25.08-38.21-25.08-38.21L180.34,150.9l-26.16-28.19s-14.86,4.09-25.08,38.21c0,0,21.1,10.46,51.24-7.15,30.13,17.61,51.24,7.15,51.24,7.15Z" style="stroke:#484748;stroke-miterlimit:10;stroke-width:0.5389999747276306px"/><path d="M190.07,131.1a112.27,112.27,0,0,1,37,8.42L185.36,68.35c-.84-3.61-3.09-6.2-5.72-6.2a4.68,4.68,0,0,0-3.29,1.49Z" style="fill:#991c20"/><path d="M228.9,233.26h-97L130.6,250h99.59Z" style="fill:#843c1c"/><path d="M200.29,250h30L229,233.26H200.29Z" style="fill:#6e3318"/><path d="M197,252.11a5.42,5.42,0,0,1-5.42,5.42h-22a5.38,5.38,0,0,1-5.4-5.38h0v-20.5a5.39,5.39,0,0,1,5.39-5.39h22.12a5.39,5.39,0,0,1,5.39,5.39v20.47Z" style="fill:#bb882c"/><path d="M169.55,257.53h3L197,233.05v-1.41a5.39,5.39,0,0,0-5.39-5.39h-5.56l-22,22v3.93a5.39,5.39,0,0,0,5.43,5.35Z" style="fill:#f9b547"/><path d="M190.48,257h.64a5.39,5.39,0,0,0,5.39-5.39V251ZM167,226.71a5.31,5.31,0,0,0-2.32,2.32Z" style="fill:#bb882c"/><path d="M187.3,251.06H173.91a3.28,3.28,0,0,1-3.28-3.28h0v-12.3a3.28,3.28,0,0,1,3.27-3.29h13.4a3.28,3.28,0,0,1,3.28,3.28h0v12.3a3.29,3.29,0,0,1-3.27,3.29Z" style="fill:#843c1c"/><circle cx="139.71" cy="241.64" r="2.34" style="fill:#542815"/><circle cx="155.89" cy="241.64" r="2.34" style="fill:#542815"/><path d="M186.27,282.34h37.21a5.4,5.4,0,0,1,5.4,5.4v11.32a5.4,5.4,0,0,1-5.4,5.4H180.87V287.71a5.4,5.4,0,0,1,5.4-5.37Z" style="fill:#6e3318"/><path d="M186.27,282.34h13.48v22.12H180.87V287.71a5.4,5.4,0,0,1,5.4-5.37Z" style="fill:#562915"/><path d="M210.89,290.23c15.61,0,28.27,6.49,28.27,14.5H182.62c0-8,12.66-14.5,28.27-14.5Z" style="fill:#6e3318;stroke:#471c10;stroke-miterlimit:10;stroke-width:0.5389999747276306px"/><path d="M174.94,282.34H137.73a5.4,5.4,0,0,0-5.4,5.4v11.32a5.4,5.4,0,0,0,5.4,5.4h42.6V287.71A5.39,5.39,0,0,0,174.94,282.34Z" style="fill:#6e3318"/><path d="M174.94,282.34H161.46v22.12h18.87V287.71A5.39,5.39,0,0,0,174.94,282.34Z" style="fill:#562915"/><path d="M150.33,290.23c-15.62,0-28.31,6.48-28.31,14.48h56.54c0-8-12.62-14.48-28.23-14.48Z" style="fill:#6e3318;stroke:#471c10;stroke-miterlimit:10;stroke-width:0.5389999747276306px"/><ellipse cx="180.21" cy="133.59" rx="29.76" ry="22.92" style="fill:#d85b4a"/><path d="M197.26,114.8a19.42,19.42,0,0,1,5,12.76c0,12.66-13.33,22.92-29.76,22.92a36,36,0,0,1-17-4.14c5.34,6.13,14.43,10.17,24.73,10.17,16.44,0,29.76-10.26,29.76-22.92C210,125.81,204.94,119,197.26,114.8Z" style="fill:#a9473a"/><ellipse cx="168.16" cy="123.66" rx="9.48" ry="5.88" style="fill:#f58677"/><path d="M162.58,211.15H150.13V233.8h12.74a11.31,11.31,0,0,0,11.32-11.31v-.4a11.52,11.52,0,0,0-11.61-10.94Z" style="fill:#9e5431"/><path d="M131.82,173.86s-61.18,55.29,17.77,59.85v-25.8" style="fill:#751517"/></svg>