<svg data-name="Capa 1" xmlns="http://www.w3.org/2000/svg" viewBox="0 0 361 305"><path d="M220.81 212.49c-.64.8-3.18 3.81-4.29 3-1.74-1.11 2.54-6.35 3-7" fill="#d19659"/><path d="M230.17 204.87c.89 4.57.45 10.39-3.72 13.24-1.55 1.06-4.66 2.26-6.17.45-.89-1.08-.61-3.43-.85-4.77-.47-2.72-1.19-6.15-.84-8.92" fill="#fcc184"/><path d="M208.38 119.68s18.46 55.67 23.7 87.42l-15.24 4s-5.33-66.67-10.11-77.62" fill="#c29626"/><path d="M139.28 212.49c.63.8 3.17 3.81 4.29 3 1.74-1.11-2.55-6.35-3-7" fill="#d19659"/><path d="M129.91 204.87c-.88 4.57-.44 10.39 3.72 13.24 1.55 1.06 4.66 2.26 6.17.45.9-1.08.62-3.43.86-4.77.47-2.72 1.19-6.15.84-8.92" fill="#fcc184"/><path d="M151.71 119.68S133.25 175.35 128 207.1l15.24 4s5.33-66.67 10.1-77.62" fill="#c29626"/><path fill="#4c4c4d" d="M155.13 203.04l2.66 29.05v60.72h16.72v-52.62h11.14v52.62h17.33v-60.72l2.66-29.05h-50.51z"/><path d="M182.86 227.55a7.07 7.07 0 0 1 1.9-.24 7.44 7.44 0 0 1 5.29 2.29 7.3 7.3 0 0 1 1.57 2.54h23.31l-6-123.82h-56.62l-6 123.82h24.59a7.54 7.54 0 0 1 1.56-2.16 7.41 7.41 0 0 1 3.4-1.84 8.19 8.19 0 0 1 4.27-1.14 7 7 0 0 1 2.73.55z" fill="#f3af19"/><path d="M180.46 150.15c5.16 3 8.75 6.64 11 12.22a96.15 96.15 0 0 1 5.91 25.09C199 203 196 218 190.18 232.14h24.76L209 108.32h-56.69l-.88 18.22c4.29 11.93 18.79 17.76 29.03 23.61z" fill="#c29626"/><ellipse cx="217.39" cy="89.31" rx="13.97" ry="12.7" fill="#fcc184"/><ellipse cx="144.36" cy="89.31" rx="13.97" ry="12.7" fill="#fcc184"/><ellipse cx="180.5" cy="94.6" rx="30.83" ry="43.95" fill="#fcc184"/><path d="M180.5 50.65a24.06 24.06 0 0 0-15.2 5.72 35.85 35.85 0 0 0 3.94 8.09c.67 1 1.54 2.6 2.52 3.81a.88.88 0 0 1 .63.47c.1.18.2.34.31.5a3 3 0 0 0 .62.42.75.75 0 0 1 .47.86c4.19 3.82 12.31 1.38 17.36 3.68 5.67 2.58 8.06 8.82 8.45 14.75.92 14.08-11.06 23.07-20.82 31.1a1 1 0 0 1-.51.22c-4.67 3.86-7.32 9.36-9.35 15.06a22.94 22.94 0 0 0 11.58 3.22c17 0 30.83-19.68 30.83-44s-13.8-43.9-30.83-43.9z" fill="#d19659"/><ellipse cx="196.09" cy="83.28" rx="3.52" ry="8.25"/><ellipse cx="164.97" cy="83.28" rx="3.52" ry="8.25"/><ellipse cx="197.8" cy="80.12" rx="1.3" ry="3.05" fill="#fff"/><ellipse cx="166.22" cy="80.12" rx="1.3" ry="3.05" fill="#fff"/><circle cx="216.54" cy="92.59" r="8.36" fill="#d19659"/><circle cx="145.42" cy="92.59" r="8.36" fill="#d19659"/><path d="M197.15 130.14s6.95 77.41 6.27 100.31M164.6 130.14s-6.95 77.41-6.27 100.31" fill="none" stroke="#8c661f" stroke-miterlimit="10" stroke-width="1.857"/><path d="M185.65 140.52c0-1.76-2.08-3.19-4.64-3.19-2.57 0-4.65 1.43-4.65 3.19v84.83c0 1.77 2.08 3.2 4.65 3.2 2.56 0 4.64-1.43 4.64-3.2z" fill="#6e3318"/><path d="M205.89 135c0 1.68-2.4 3-5.38 3h-39.27c-3 0-5.38-1.36-5.38-3l-4.47-9.47c0-2 2.84-3.59 6.34-3.59H204c3.5 0 6.34 1.61 6.34 3.59z" fill="#6e3318"/><path d="M209 77.72L206 75c0 1.4 1.23 29.83-5.1 46.37L180.7 107v-.27l-.47.14-.15-.14v.27l-19.85 13.88c-6.12-16.61-4.89-44.51-4.92-45.9l-3 2.7c-1.56 7.12.48 39.44.48 39.44l5.36 5.33c-6.85 10.18 18.49 21.67 22 23.16v.17l.15-.09a.88.88 0 0 0 .47.09v-.17c3.09-1.47 27.61-12.58 22-22.63l5.89-5.86s1.94-32.28.34-39.4z" fill="#945e25"/><path d="M203.21 122.48a10.15 10.15 0 0 1-2.05-1.74l-.24.65L180.7 107v-.27l-.47.14-.15-.14v.27l-19.85 13.88c0-.07 0-.13-.07-.2a13.4 13.4 0 0 1-2.4 1.41l.37.36c-1.89 2.82-1.32 5.73.56 8.51 5-.23 9.95-.48 14.38-3 2.1-1.21 4.84-4.51 7.48-3.26 5 2.34 9.71 5.81 8.73 11.92a19.69 19.69 0 0 1-1.82 5.54c8-4.37 19.21-12 15.2-19.17z" fill="#7a4f1f"/><path d="M180.5 96.29c8-5.23 17.76-6 26.74-3.23 8.11 2.51 14.71 16.59 23.42 15.8 7.92-.72 2.39-12.3-1.94-9 2.44-1.88 3.65-5.07 7-2.77 2.61 1.81 3.73 6.8 3.17 9.72-.86 4.51-4.43 9.22-7.81 12.18-5.66 5-13.3 7.84-20.68 8.95-8 1.21-20.61 1.28-26.2-5.95a15.06 15.06 0 0 1-2.31-5.13c-.45-1.52-.38-5.74-1.36-6.82M180.5 96.29c-8-5.23-17.76-6-26.74-3.23-8.11 2.51-14.7 16.59-23.42 15.8-7.92-.72-2.39-12.3 1.94-9-2.44-1.88-3.65-5.07-7-2.77-2.61 1.81-3.73 6.8-3.17 9.72.86 4.51 4.43 9.22 7.81 12.18 5.66 5 13.3 7.84 20.68 8.95 8 1.21 20.61 1.28 26.2-5.95a15.06 15.06 0 0 0 2.31-5.13c.45-1.52.38-5.74 1.36-6.82" fill="#ba762a" stroke="#ba762a" stroke-miterlimit="10" stroke-width="1.238"/><path d="M181 109.24c4.41-8.67 15.76-7.73 19.21 1.07 1.76 4.52 3.33 9.44 8.12 11.51 5.07 2.19 12.24 1.28 17.35-.34a31.82 31.82 0 0 0 4-1.54 41.59 41.59 0 0 1-19.09 7.71c-4.49.67-19.65 2.25-25.9-5.84a14.93 14.93 0 0 1-2.26-5 16.07 16.07 0 0 1-.35-2.41c-.19-1.86-.38-3.78-1.08-4.55l-.23.22v-.5a1 1 0 0 0 .23-.33zM180.44 109.24c-4.41-8.67-15.75-7.73-19.2 1.07-1.77 4.52-3.34 9.44-8.12 11.51-5.07 2.19-12.24 1.28-17.35-.34a31.37 31.37 0 0 1-4-1.54 41.64 41.64 0 0 0 19.09 7.71c4.5.67 19.65 2.25 25.9-5.84a14.73 14.73 0 0 0 2.26-5 16.07 16.07 0 0 0 .35-2.41c.19-1.86.39-3.78 1.08-4.55l.24.22v-.5a.94.94 0 0 1-.25-.33z" fill="#a36828"/><circle cx="180.5" cy="98.11" r="19.05" fill="#d85b4a"/><path d="M180.67 0c-6.52.42-29.17 78.57-29.17 78.57 16.2-8.22 29.17-6.57 29.17-6.57s13-1.6 29.16 6.61c0-.05-22.65-78.2-29.16-78.61z" fill="#f7cd0f"/><path d="M180.67 0a1.12 1.12 0 0 0-.41.12c.52 10.84 2.29 21.66 2.7 32.52a303 303 0 0 1-1 36.16l-.27 3.08c3.4-.18 14.63-.14 28.1 6.69.04-.01-22.61-78.16-29.12-78.57z" fill="#bc9b2a"/><path d="M203.23 79.69s-5-9.51-15.46-5.56l.64-6.37s12.74-1.15 14.82 11.93zM157.24 79.69s5-9.51 15.46-5.56l-.64-6.37s-12.74-1.15-14.82 11.93z" fill="#ba762a"/><path fill="#212121" d="M212.92 166.52h-64.24l-.86 18.57h65.95l-.85-18.57z"/><path fill="#080808" d="M196.79 185.09h17.11l-.74-18.57h-16.37v18.57z"/><path d="M195.55 186a5.09 5.09 0 0 1-4.9 5.26h-19.91a5.09 5.09 0 0 1-4.9-5.26v-19.79a5.08 5.08 0 0 1 4.9-5.26h19.91a5.08 5.08 0 0 1 4.9 5.26z" fill="#66615c"/><path d="M191.84 183.59a3.83 3.83 0 0 1-3.67 4h-14.94a3.84 3.84 0 0 1-3.68-4v-15a3.84 3.84 0 0 1 3.68-4h14.94a3.83 3.83 0 0 1 3.67 4z" fill="#212121"/><circle cx="154.99" cy="175.62" r="1.64"/><path fill="#3d3d3d" d="M185.65 240.19h6.19v52h-6.19zM168.32 240.19h6.19v52h-6.19z"/><circle cx="161.34" cy="175.62" r="1.64"/><path d="M178.84 279.71c0-4.39-1.31-7.95-2.93-7.95h-20.14c-1.62 0-2.93 3.56-2.93 7.95V296c0 4.39 1.31 7.95 2.93 7.95h23.07z" fill="#6e3318"/><path d="M175.37 271.76h-7.05V304h9.9v-24.29c0-4.39-1.28-7.95-2.85-7.95z" fill="#562915"/><path d="M162.42 296.38c-8.49 0-15.38 3.53-15.38 7.88h30.75c0-4.35-6.88-7.88-15.37-7.88z" fill="#6e3318" stroke="#471c10" stroke-miterlimit="10" stroke-width=".619"/><path d="M180.08 279.71c0-4.39 1.31-7.95 2.93-7.95h20.14c1.62 0 2.93 3.56 2.93 7.95V296c0 4.39-1.31 7.95-2.93 7.95h-23.07v-24.24z" fill="#6e3318"/><path d="M182.93 271.76h7V304h-9.9v-24.29c.05-4.39 1.32-7.95 2.9-7.95z" fill="#562915"/><path d="M196.17 296.38c8.49 0 15.38 3.53 15.38 7.88H180.8c0-4.35 6.88-7.88 15.37-7.88z" fill="#6e3318" stroke="#471c10" stroke-miterlimit="10" stroke-width=".619"/><path d="M189.18 81.15A19.05 19.05 0 0 1 167 111.56a19.05 19.05 0 1 0 22.17-30.41z" fill="#a9473a"/><circle cx="171.8" cy="92.59" r="7.2" fill="#f58677"/><path d="M218.06 230.59a3.36 3.36 0 0 1-3.3 3.41h-23.47l-10.49-3.84L170 234h-23.2a3.36 3.36 0 0 1-3.3-3.41 3.35 3.35 0 0 1 3.3-3.4h23l10.4-3.84 11.06 3.84h23.47a3.35 3.35 0 0 1 3.3 3.4zM213.78 210.4a3.09 3.09 0 0 0 3.73 2.29l16.26-3.87a3.09 3.09 0 0 0 2.29-3.73l-.77-3.23a3.08 3.08 0 0 0-3.72-2.29l-16.27 3.87a3.08 3.08 0 0 0-2.29 3.72zM146.32 210.4a3.09 3.09 0 0 1-3.73 2.29l-16.26-3.87a3.09 3.09 0 0 1-2.29-3.73l.77-3.23a3.08 3.08 0 0 1 3.72-2.29l16.26 3.87a3.08 3.08 0 0 1 2.3 3.72z" fill="#6e3318"/></svg>