<svg data-name="Capa 1" xmlns="http://www.w3.org/2000/svg" viewBox="0 0 361 305"><path fill="#4c4c4d" d="M190.74 215.68h-12.52 5.68-24.05l1.93 79.61h17.35l-.06-68.39h3.26l-.05 68.39h17.54l1.93-79.61h-11.01z"/><path fill="#3d3d3d" d="M191.95 215.68v79.61h7.95l1.92-79.61h-9.87z"/><path d="M206.56 111.8c2.53 13.46 8.3 23.49 12.89 22.4s6.26-12.9 3.73-26.37-8.31-23.49-12.89-22.4-6.29 12.9-3.73 26.37zM154.68 115c-2.53 13.46-8.3 23.49-12.89 22.4s-6.25-12.9-3.72-26.37 8.3-23.49 12.89-22.4 6.25 12.87 3.72 26.37z"/><path d="M205.92 164.2c6.75 2.31 13.47 4.7 20.18 7.1 30.39 10.87 22.24-30 21-46.72l-8.7 10.51c-.86 1 .16 7 .16 8.3 0 4.22.32 9-.78 13.13-2.66 10-21.55-2.25-26-5.73" fill="#f2bc63"/><path d="M231.06 130.49a2.68 2.68 0 0 0 2.4 2.92l15.95 1.59a2.66 2.66 0 0 0 2.92-2.39l3.5-13.63a2.68 2.68 0 0 0-2.4-2.92L240 117.12c-1.47-.14-7.37-1.94-7.52-.47z" fill="#f2bc63"/><path d="M249.58 117c-.2-.06-.72 1.32-1.25 3.55a36.57 36.57 0 0 1-1.1 3.79 12.12 12.12 0 0 1-.95 2 8.85 8.85 0 0 1-.65 1 2.35 2.35 0 0 1-.38.39 1.74 1.74 0 0 1-.42.34 4.09 4.09 0 0 1-2 .75 5.48 5.48 0 0 1-1.07 0c-.18 0-.35-.05-.52-.07a2.13 2.13 0 0 1-.5-.11 5.75 5.75 0 0 1-3-1.94 6.44 6.44 0 0 1-1.08-2.27c-.1-.6-.21-1-.31-1s-.19.34-.25 1a5.49 5.49 0 0 0 .79 2.79 6.36 6.36 0 0 0 3.47 2.63 3.05 3.05 0 0 0 .61.17l.64.12a6.86 6.86 0 0 0 1.36 0 5.5 5.5 0 0 0 2.72-1 3.07 3.07 0 0 0 .59-.49 2.87 2.87 0 0 0 .51-.54 10.27 10.27 0 0 0 .76-1.14 12.58 12.58 0 0 0 1-2.31 24.56 24.56 0 0 0 .84-4c.22-2.21.38-3.6.19-3.66z" fill="#d18939"/><path d="M243.7 116.69c-.21 0-.44.5-.73 1.31s-.71 2-1.17 3.19a21.41 21.41 0 0 0-1 3.35c-.15.9-.12 1.49.07 1.54s.51-.43.9-1.22a29.62 29.62 0 0 0 1.37-3.18 13.69 13.69 0 0 0 .81-3.47c.05-.93-.06-1.5-.25-1.52z" fill="#d18939"/><path d="M232.43 116.65c1.54.69 7.58 4.78 8.65 7.57 1.31 3.08 1 5.74-3.08 4a13.42 13.42 0 0 1-4.58-2.53" fill="#f2bc63"/><path d="M232.43 116.65c-.07.17 1 .93 2.78 2.34.85.7 1.87 1.54 2.9 2.54a16.88 16.88 0 0 1 1.5 1.64 8.61 8.61 0 0 1 .61.92c.07.17.15.3.22.49s.16.38.22.57a5.57 5.57 0 0 1 .39 2.12.87.87 0 0 1-.24.61c0 .07-.14.1-.23.15a1.91 1.91 0 0 1-.37.06 5 5 0 0 1-1.81-.38l-1.7-.58c-.5-.22-1-.39-1.36-.57s-.73-.35-1-.5c-.52-.3-.85-.45-.92-.37s.14.36.59.83a11.19 11.19 0 0 0 .93.74c.37.27.83.51 1.33.81s1.08.5 1.7.77a6.76 6.76 0 0 0 1 .38 2.68 2.68 0 0 0 .59.14H240.22a2.87 2.87 0 0 0 .74-.09 2.08 2.08 0 0 0 .75-.42 2.21 2.21 0 0 0 .73-1.49 6.47 6.47 0 0 0-.43-2.76c-.07-.22-.16-.41-.24-.62s-.2-.44-.3-.65a7 7 0 0 0-.77-1.11 14.08 14.08 0 0 0-1.7-1.74 24.46 24.46 0 0 0-3.22-2.4c-1.89-1.15-3.27-1.63-3.35-1.43zM253.87 115.46c-.1 0-.08.35 0 .87a14.21 14.21 0 0 1 .08 2.22 15 15 0 0 1-2.33 6.81 13.31 13.31 0 0 1-2.52 3 3.15 3.15 0 0 1-2.52 1 2.33 2.33 0 0 1-1.23-1.4c-.21-.48-.34-.77-.45-.76s-.15.33-.1.91c0 .14.06.31.09.48a3.91 3.91 0 0 0 .2.57 2.3 2.3 0 0 0 1.11 1.15 2.73 2.73 0 0 0 2 0 6.38 6.38 0 0 0 1.79-1 12.62 12.62 0 0 0 2.92-3.32 13.13 13.13 0 0 0 2.12-7.58 7.5 7.5 0 0 0-.57-2.36c-.31-.38-.46-.63-.59-.59z" fill="#d18939"/><path d="M155.08 164.2c-6.75 2.31-13.47 4.7-20.18 7.1-30.39 10.87-22.24-30-21-46.72l8.7 10.51c.86 1-.16 7-.16 8.3 0 4.22-.32 9 .78 13.13 2.66 10 21.55-2.25 26-5.73" fill="#f2bc63"/><path d="M160.87 172.37c-.78-2.71-3.71-24.64-3.71-24.64l-13-4.19z" fill="#7bccf3"/><path d="M202.2 173.74c.78-2.71 3.71-24.64 3.71-24.64l13-4.2z" fill="#46a1da"/><path d="M181.27 285.67c0-2.95 1.59-5.34 3.56-5.34h25.83c2.06 0 3.73 2.54 3.73 5.67v11.63c0 3.13-1.67 5.67-3.73 5.67h-29.4v-17.63z" fill="#6e3318"/><path d="M185 280.33h9.14v23h-12.88V286c0-3.13 1.66-5.67 3.74-5.67z" fill="#562915"/><path d="M201.86 292.94c10.87 0 19.69 4.52 19.69 10.1h-39.39c0-5.58 8.84-10.1 19.7-10.1z" fill="#6e3318" stroke="#471c10" stroke-miterlimit="10" stroke-width=".534"/><path d="M184.47 285.67c0-2.95-1.6-5.34-3.57-5.34h-25.82c-2.07 0-3.74 2.54-3.74 5.67v11.63c0 3.13 1.67 5.67 3.74 5.67h29.39v-17.63z" fill="#6e3318"/><path d="M180.78 280.33h-9.13v23h12.82V286c0-3.13-1.65-5.67-3.69-5.67z" fill="#562915"/><path d="M163.94 292.94c-10.88 0-19.7 4.52-19.7 10.1h39.39c0-5.58-8.81-10.1-19.69-10.1z" fill="#6e3318" stroke="#471c10" stroke-miterlimit="10" stroke-width=".534"/><path d="M233.76 217.49a2.11 2.11 0 0 1-2.26 1.93H131.35a2.11 2.11 0 0 1-2.26-1.93l14.65-24.16 9.9-44.36a1.17 1.17 0 0 1 1.19-1.15H208a1.17 1.17 0 0 1 1.2 1.15l9.8 43.57z" fill="#7bccf3"/><path d="M218.93 192.54L209.17 149a1.18 1.18 0 0 0-1.2-1.15h-51.2a16.4 16.4 0 0 0 3 2.14 13.69 13.69 0 0 0 4.08 1.8 46.8 46.8 0 0 0 5.45 1.39c6.46 1.22 16.11 2.18 24.87 4.36 3.31.82 5 3.85 5.22 7 1.51 18.81 7.22 37.19 14.15 54.92h17.91a2.11 2.11 0 0 0 2.26-1.93z" fill="#46a1da"/><ellipse cx="182.22" cy="155.94" rx="21.34" ry="9.97" fill="#46a1da" stroke="#4567a1" stroke-miterlimit="10" stroke-width="2.137"/><path fill="#4567a1" d="M199.91 219.42h-13.49l5.38-30.6 8.11 30.6zM221.47 219.42h-13.49v-30l13.49 30zM162.76 219.42h13.49l-5.38-30.6-8.11 30.6zM141.06 219.42h13.49v-30l-13.49 30z"/><path fill="#843c1c" d="M217.44 175.07H145.4l-2.92 20.31h77.89l-2.93-20.31z"/><path fill="#6e3318" d="M196.76 195.38h23.48l-3.17-20.31h-20.31v20.31z"/><path d="M190 197.51h-16.9a4.11 4.11 0 0 1-4.12-4.12V177.6a4.12 4.12 0 0 1 4.12-4.13H190a4.13 4.13 0 0 1 4.13 4.13v15.79a4.12 4.12 0 0 1-4.13 4.12z" fill="#66615c"/><path d="M173.12 197.51h2.29l18.68-18.81v-1.1a4.13 4.13 0 0 0-4.13-4.13h-4.23q-8.39 8.43-16.75 16.87v3a4.15 4.15 0 0 0 4.14 4.17zM189.47 197h.53a4.13 4.13 0 0 0 4.13-4.13v-.49zM171.14 173.81a4.09 4.09 0 0 0-1.77 1.77z" fill="#66615c"/><path d="M186.76 192.7H176.3a2.51 2.51 0 0 1-2.52-2.51v-9.4a2.51 2.51 0 0 1 2.52-2.51h10.47a2.51 2.51 0 0 1 2.51 2.51v9.4a2.51 2.51 0 0 1-2.52 2.51z" fill="#843c1c"/><circle cx="150.29" cy="185.25" r="1.79" fill="#542815"/><circle cx="162.67" cy="185.25" r="1.79" fill="#542815"/><ellipse cx="181.3" cy="112.16" rx="34.96" ry="45.8" fill="#f2bc63"/><path d="M152 103.81s10.57-1 18.86 3.09M151.88 106.63s10.26-2.72 19.1 0"/><path d="M185.2 44.66a3.71 3.71 0 0 0-7.33 0l-25.36 35.77s29.84-9.79 59.45 0z" fill="#79c1cc"/><path d="M195 70c9.1 8.27 15.06 22 15.06 37.65 0 25.3-15.65 45.8-35 45.8a27.84 27.84 0 0 1-13.7-3.66c5.65 5.14 12.5 8.15 19.89 8.15 19.31 0 35-20.5 35-45.79C216.26 93.24 207.5 77 195 70z" fill="#d18939"/><path d="M181.12 41.57c-1 5.56 1.78 11.68 3.2 16.89q2.42 8.91 4.92 17.78A88.3 88.3 0 0 1 212 80.43l-26.8-35.77a4 4 0 0 0-3.66-3.12 3 3 0 0 0-.42.03z" fill="#5d9cc9"/><path d="M191 103.61s10.26-5.83 19.11 0M203.17 75.07s-38.06 18-64.37 18.28c0 0 9.2-42.77 64.37-18.28z"/><path d="M196.76 74.56c4.06 9.21 12.88 17.09 22 19.5-2.6-8-12.24-30.52-22.33-20.65M210.56 150c0 10.95 11.78 19.83 9.73 19.83S230 160.94 230 150s-4.36-19.83-9.73-19.83-9.71 8.83-9.71 19.83zM150.68 153.16c0 11-11.78 19.83-9.73 19.83s-9.73-8.88-9.73-19.83 4.36-19.83 9.73-19.83 9.73 8.88 9.73 19.83z"/><path d="M129.94 130.49a2.68 2.68 0 0 1-2.4 2.92l-16 1.57a2.66 2.66 0 0 1-2.92-2.39L105.17 119a2.68 2.68 0 0 1 2.4-2.92l13.48 1.08c1.47-.14 7.37-1.94 7.52-.47z" fill="#f2bc63"/><path d="M111.42 117c-.19.06 0 1.45.24 3.74a24.56 24.56 0 0 0 .84 4 12.58 12.58 0 0 0 1 2.31 10.27 10.27 0 0 0 .76 1.14 3.21 3.21 0 0 0 .51.54 2.65 2.65 0 0 0 .58.48 5.46 5.46 0 0 0 2.72 1 6.85 6.85 0 0 0 1.36 0c.22 0 .43-.08.65-.12a3.05 3.05 0 0 0 .61-.17 6.36 6.36 0 0 0 3.47-2.63 5.49 5.49 0 0 0 .79-2.79c-.07-.69-.15-1-.25-1s-.21.36-.31 1a6.44 6.44 0 0 1-1.08 2.27 5.75 5.75 0 0 1-3 1.94 4 4 0 0 1-.5.11c-.18 0-.35.06-.52.07a5.48 5.48 0 0 1-1.07 0 4.09 4.09 0 0 1-2-.75 2 2 0 0 1-.42-.34 2.35 2.35 0 0 1-.38-.39 10.69 10.69 0 0 1-.66-1 12.9 12.9 0 0 1-.94-2 34.25 34.25 0 0 1-1.1-3.79c-.58-2.3-1.1-3.68-1.3-3.62z" fill="#d18939"/><path d="M117.3 116.69c-.19 0-.32.59-.28 1.52a13.69 13.69 0 0 0 .81 3.47 29.62 29.62 0 0 0 1.37 3.18c.39.79.71 1.27.9 1.22s.22-.64.07-1.54a21.41 21.41 0 0 0-1-3.35c-.46-1.24-.87-2.36-1.17-3.19s-.5-1.33-.7-1.31z" fill="#d18939"/><path d="M128.57 116.65c-1.55.69-7.58 4.78-8.65 7.57-1.31 3.08-1 5.74 3.08 4a13.42 13.42 0 0 0 4.58-2.53" fill="#f2bc63"/><path d="M128.57 116.65c-.08-.2-1.46.28-3.37 1.5a24.46 24.46 0 0 0-3.22 2.4 14.08 14.08 0 0 0-1.7 1.74 7 7 0 0 0-.77 1.11c-.1.21-.22.44-.3.65s-.17.4-.24.62a6.44 6.44 0 0 0-.43 2.76 2.23 2.23 0 0 0 .73 1.49 2.08 2.08 0 0 0 .75.42 2.83 2.83 0 0 0 .74.08H121.42a2.68 2.68 0 0 0 .59-.14 6.63 6.63 0 0 0 1-.38c.63-.27 1.19-.52 1.71-.77s1-.54 1.33-.81a11.19 11.19 0 0 0 .93-.74c.45-.47.66-.76.59-.83s-.4.07-.92.37c-.27.15-.62.3-1 .5s-.86.35-1.36.57l-1.7.58a5 5 0 0 1-1.81.37 1.38 1.38 0 0 1-.37-.05c-.09 0-.19-.08-.23-.15a.87.87 0 0 1-.24-.61 5.57 5.57 0 0 1 .39-2.12c.06-.19.15-.38.22-.57s.15-.32.22-.49a7.71 7.71 0 0 1 .61-.92 16.88 16.88 0 0 1 1.5-1.64c1-1 2-1.85 2.9-2.54 1.74-1.47 2.86-2.23 2.79-2.4zM107.13 115.46c-.09 0-.28.21-.54.72a7.23 7.23 0 0 0-.57 2.36 13.13 13.13 0 0 0 2.12 7.58 12.45 12.45 0 0 0 2.92 3.32 6.12 6.12 0 0 0 1.79 1 2.73 2.73 0 0 0 2 0 2.3 2.3 0 0 0 1.11-1.15 3.91 3.91 0 0 0 .2-.57l.09-.48c0-.58 0-.89-.1-.9s-.24.27-.45.75a2.33 2.33 0 0 1-1.23 1.4 3.12 3.12 0 0 1-2.52-1 13.06 13.06 0 0 1-2.52-3 15 15 0 0 1-2.33-6.81 14 14 0 0 1 .08-2.21c.03-.66.05-.98-.05-1.01z" fill="#d18939"/><path d="M154.17 122.71a26.51 26.51 0 0 0 52.9 0z" fill="#fff"/><ellipse cx="201.18" cy="103.1" rx="3.34" ry="1.81"/><path d="M202.57 122.71l-2.33 16a26.81 26.81 0 0 0 6.83-16zM158.54 122.71h-4.37a26.84 26.84 0 0 0 6.57 15.7z" fill="#391212"/><path d="M159.81 131.67a80.65 80.65 0 0 0 41.2 1.66" fill="none" stroke="#000" stroke-miterlimit="10" stroke-width=".534"/><ellipse cx="181.3" cy="116.05" rx="18.22" ry="11.54" fill="#d85b4a"/><path d="M192.19 106.8a8.22 8.22 0 0 1 1.86 5.08c0 6.37-8.16 11.54-18.22 11.54a25.6 25.6 0 0 1-10.83-2.29c3 3.82 9.17 6.46 16.35 6.46 10.07 0 18.22-5.17 18.22-11.54-.05-3.79-2.93-7.15-7.38-9.25z" fill="#a9473a"/><ellipse cx="174.77" cy="110.96" rx="7.07" ry="4.02" fill="#f58677"/></svg>