<svg id="Capa_1" data-name="Capa 1" xmlns="http://www.w3.org/2000/svg" viewBox="0 0 361 305"><rect x="247.81" y="229.87" width="43.11" height="15.3" transform="translate(24.13 499.88) rotate(-88.34)" style="fill:#ad2324"/><rect x="243.99" y="233.59" width="43.11" height="7.65" transform="translate(20.53 495.95) rotate(-88.34)" style="fill:#8c1c1d"/><path d="M262.35,215.67c0,.86,3.38,1.66,7.6,1.78s7.67-.47,7.69-1.34-3.38-1.66-7.6-1.78S262.37,214.81,262.35,215.67Z" style="fill:#8c1c1d"/><path d="M273.63,206.81c2.32-1,8.92-2.37,7.28-5.8.32-.12.64-.25,1-.4a3.52,3.52,0,0,0,1.55-.39h0c1.26,2.82-.32,5.08-3,6.61a44.19,44.19,0,0,1-5.51,2.3c-3.2,1.27-3.1,3.67-3.28,6.74a.83.83,0,0,1,0,.22c-.35,0-.7-.05-1.06-.06l-.92,0a1.86,1.86,0,0,0-.54.07H269a1.18,1.18,0,0,1,0-.27C269.23,211.68,269.47,208.56,273.63,206.81Z" style="fill:#815020"/><path d="M283.42,200.22s0,0,0,0a4.52,4.52,0,0,1,.41,2.35c-.63-.63-1.24-1.28-1.84-2A3.64,3.64,0,0,0,283.42,200.22Z" style="fill:#d59d51"/><path d="M281.26,200.87c.65.72,1.31,1.43,2,2.11a21.52,21.52,0,0,1-2.09-.73,2.4,2.4,0,0,0-.26-1.23Z" style="fill:#d59d51"/><path d="M280.86,203.09l.08-.13a22.42,22.42,0,0,0,2.55.85,4.55,4.55,0,0,1-.56.91A20,20,0,0,1,280.86,203.09Z" style="fill:#d59d51"/><path d="M279.52,204.37c.1-.07.22-.13.31-.2a16.3,16.3,0,0,0,2.46,1.26,8.27,8.27,0,0,1-1,.83A24.28,24.28,0,0,1,279.52,204.37Z" style="fill:#d59d51"/><path d="M277.38,205.44l.32-.13a27.7,27.7,0,0,0,2.54,1.59c-.3.16-.6.31-.91.45A13,13,0,0,1,277.38,205.44Z" style="fill:#d59d51"/><path d="M278,207.57c-.9-.45-1.79-.9-2.68-1.37.43-.15.89-.31,1.35-.49a16.26,16.26,0,0,0,1.92,2l-.41.16A.29.29,0,0,0,278,207.57Z" style="fill:#d59d51"/><path d="M275,206.84c.83.44,1.66.87,2.5,1.28l-1.57.61C275.61,208.09,275.31,207.45,275,206.84Z" style="fill:#d59d51"/><path d="M274.44,209.32c-.71-.62-1.44-1.21-2.17-1.8a9.09,9.09,0,0,1,1.36-.71l.4-.15a21.26,21.26,0,0,1,1.19,2.33l-.33.13A4.68,4.68,0,0,0,274.44,209.32Z" style="fill:#d59d51"/><path d="M270,210c.05-.09.08-.19.13-.28a15,15,0,0,0,2.59.89,3.66,3.66,0,0,0-.43.74A17.62,17.62,0,0,1,270,210Z" style="fill:#d59d51"/><path d="M271.63,215.62a2.12,2.12,0,0,1,0,.24.83.83,0,0,1,0,.22c-.35,0-.7-.05-1.06-.06l-.92,0a1.86,1.86,0,0,0-.54.07H269a1.18,1.18,0,0,1,0-.27l0-.34A12.64,12.64,0,0,0,271.63,215.62Z" style="fill:#d59d51"/><path d="M269.07,214.71c0-.47.09-.92.14-1.36.83.33,1.66.66,2.5,1,0,.19,0,.38,0,.58A11.35,11.35,0,0,1,269.07,214.71Z" style="fill:#d59d51"/><path d="M269.3,212.6a.68.68,0,0,0,0-.15c.89,0,1.78-.06,2.67-.07a8.68,8.68,0,0,0-.2,1.19C271,213.27,270.13,212.93,269.3,212.6Z" style="fill:#d59d51"/><path d="M283.44,199.35c.13,0,.29.64-.07,1.37s-1.05.93-1.11.82.3-.55.61-1.08S283.25,199.35,283.44,199.35Z" style="fill:#d59d51"/><path d="M284,199.18c.14,0,.12.72-.31,1.41s-.94,1-1.06,1,.18-.66.58-1.26S283.82,199.15,284,199.18Z" style="fill:#d59d51"/><path d="M284.54,199.75c.13.06-.05.72-.61,1.33a2.43,2.43,0,0,1-.85.59c-.25.11-.42.13-.45.06s.05-.21.22-.39.41-.41.67-.66C284,200.16,284.38,199.68,284.54,199.75Z" style="fill:#d59d51"/><path d="M282.65,200.81c0,.06-.11.2-.41.29a1.51,1.51,0,0,1-1.18-.26c-.8-.57-.9-1.36-.77-1.4s.49.53,1.09.93S282.59,200.65,282.65,200.81Z" style="fill:#d59d51"/><path d="M282.26,201.54c0,.07-.15.14-.41.15a1.7,1.7,0,0,1-.94-.31c-.67-.47-.79-1.16-.65-1.2s.47.38,1,.73S282.26,201.37,282.26,201.54Z" style="fill:#d59d51"/><path d="M281.89,201.53c0,.15-.56.18-1.15.06s-1.1-.35-1.06-.5.56-.18,1.15-.06S281.94,201.38,281.89,201.53Z" style="fill:#d59d51"/><rect x="83.98" y="215.97" width="15.3" height="43.11" transform="translate(-6.85 2.76) rotate(-1.66)" style="fill:#ad2324"/><rect x="91.63" y="215.86" width="7.65" height="43.11" transform="translate(-6.85 2.87) rotate(-1.66)" style="fill:#8c1c1d"/><path d="M98.65,215.67c0,.86-3.38,1.66-7.6,1.78s-7.67-.47-7.69-1.34,3.38-1.66,7.6-1.78S98.63,214.81,98.65,215.67Z" style="fill:#8c1c1d"/><path d="M87.37,206.81c-2.32-1-8.92-2.37-7.28-5.8-.32-.12-.64-.25-1-.4a3.52,3.52,0,0,1-1.55-.39h0c-1.26,2.82.32,5.08,3,6.61a44.19,44.19,0,0,0,5.51,2.3c3.2,1.27,3.1,3.67,3.28,6.74a.83.83,0,0,0,0,.22c.35,0,.7-.05,1.06-.06l.92,0a1.86,1.86,0,0,1,.54.07h0a1.18,1.18,0,0,0,0-.27C91.77,211.68,91.53,208.56,87.37,206.81Z" style="fill:#815020"/><path d="M77.58,200.22s0,0,0,0a4.52,4.52,0,0,0-.41,2.35c.63-.63,1.24-1.28,1.84-2A3.64,3.64,0,0,1,77.58,200.22Z" style="fill:#d59d51"/><path d="M79.74,200.87c-.65.72-1.31,1.43-2,2.11a21.52,21.52,0,0,0,2.09-.73A2.4,2.4,0,0,1,80.1,201Z" style="fill:#d59d51"/><path d="M80.14,203.09l-.08-.13a22.42,22.42,0,0,1-2.55.85,4.55,4.55,0,0,0,.56.91A20,20,0,0,0,80.14,203.09Z" style="fill:#d59d51"/><path d="M81.48,204.37c-.1-.07-.22-.13-.31-.2a16.3,16.3,0,0,1-2.46,1.26,8.27,8.27,0,0,0,1,.83A24.28,24.28,0,0,0,81.48,204.37Z" style="fill:#d59d51"/><path d="M83.63,205.44l-.33-.13a27.7,27.7,0,0,1-2.54,1.59c.3.16.6.31.91.45A13.59,13.59,0,0,0,83.63,205.44Z" style="fill:#d59d51"/><path d="M83,207.57c.9-.45,1.79-.9,2.68-1.37-.43-.15-.89-.31-1.35-.49a16.26,16.26,0,0,1-1.92,2l.41.16A.29.29,0,0,1,83,207.57Z" style="fill:#d59d51"/><path d="M86,206.84c-.83.44-1.66.87-2.5,1.28l1.57.61C85.39,208.09,85.69,207.45,86,206.84Z" style="fill:#d59d51"/><path d="M86.56,209.32c.71-.62,1.44-1.21,2.17-1.8a9.09,9.09,0,0,0-1.36-.71l-.4-.15A21.26,21.26,0,0,0,85.78,209l.33.13A4.68,4.68,0,0,1,86.56,209.32Z" style="fill:#d59d51"/><path d="M91,210c0-.09-.08-.19-.13-.28a15,15,0,0,1-2.59.89,3.66,3.66,0,0,1,.43.74A17.62,17.62,0,0,0,91,210Z" style="fill:#d59d51"/><path d="M89.37,215.62a2.12,2.12,0,0,0,0,.24.83.83,0,0,0,0,.22c.35,0,.7-.05,1.06-.06l.92,0a1.86,1.86,0,0,1,.54.07h0a1.18,1.18,0,0,0,0-.27l0-.34A12.64,12.64,0,0,1,89.37,215.62Z" style="fill:#d59d51"/><path d="M91.93,214.71c0-.47-.09-.92-.14-1.36-.83.33-1.66.66-2.5,1,0,.19,0,.38,0,.58A11.35,11.35,0,0,0,91.93,214.71Z" style="fill:#d59d51"/><path d="M91.7,212.6a.68.68,0,0,1,0-.15c-.89,0-1.78-.06-2.67-.07a8.68,8.68,0,0,1,.2,1.19C90.05,213.27,90.87,212.93,91.7,212.6Z" style="fill:#d59d51"/><path d="M77.56,199.35c-.13,0-.29.64.07,1.37s1.05.93,1.11.82-.3-.55-.61-1.08S77.75,199.35,77.56,199.35Z" style="fill:#d59d51"/><path d="M77,199.18c-.14,0-.12.72.31,1.41s.94,1,1.06,1-.18-.66-.58-1.26S77.18,199.15,77,199.18Z" style="fill:#d59d51"/><path d="M76.46,199.75c-.13.06.05.72.61,1.33a2.43,2.43,0,0,0,.85.59c.25.11.42.13.45.06s-.05-.21-.22-.39-.41-.41-.67-.66C77,200.16,76.62,199.68,76.46,199.75Z" style="fill:#d59d51"/><path d="M78.35,200.81c0,.06.11.2.41.29a1.51,1.51,0,0,0,1.18-.26c.8-.57.9-1.36.77-1.4s-.49.53-1.09.93S78.41,200.65,78.35,200.81Z" style="fill:#d59d51"/><path d="M78.74,201.54c0,.07.15.14.41.15a1.7,1.7,0,0,0,.94-.31c.67-.47.79-1.16.65-1.2s-.47.38-1,.73S78.74,201.37,78.74,201.54Z" style="fill:#d59d51"/><path d="M79.11,201.53c0,.15.56.18,1.15.06s1.1-.35,1.06-.5-.56-.18-1.15-.06S79.06,201.38,79.11,201.53Z" style="fill:#d59d51"/><path d="M261.14,248.06c0,12-35.52,21.78-79.33,21.78s-79.33-9.75-79.33-21.78,35.51-21.78,79.33-21.78S261.14,236,261.14,248.06Z" style="fill:#282523"/><polyline points="98.26 152.78 264.06 154.68 177.29 1.17" style="fill:#9d8a8a"/><polygon points="167.52 25.46 240.4 154.41 264.06 154.68 177.29 1.17 98.26 152.78 101.13 152.81 167.52 25.46" style="fill:#847575"/><path d="M122.55,102.73c21.9-1,32.85-9.47,53.9-15,10.11-3,43.8-11.46,40.43-17.94,15.8,1.62,8,9,0,13.31-11.25,6.08-21.9,6.52-35.38,9.62-26.11,5.48-34.53,12-61.49,12.46-1.68-1,0-1.5,0-2" style="fill:#cebfbf"/><path d="M110.56,122.66c21.9-1,44.64-9.47,65.7-15,10.1-3,52.21-15.95,48.85-22.43,24.42,2.5-.85,14-9.27,17.45-13.47,5.48-19.37,6.48-34.53,10-26.11,5.49-46.32,12-73.27,12.46-1.69-1,0-1.49,0-2" style="fill:#cebfbf"/><path d="M103.18,142.6c21.9-1,52.22-9.47,73.27-14.95,10.11-3,62.33-18.44,59-24.92,24.42,2.49-.84,14-9.27,17.44-13.47,5.48-29.47,9-44.63,12.46-26.11,5.48-53.91,12-80.86,12.46-1.68-1,0-1.5,0-2" style="fill:#cebfbf"/><path d="M161.3,33c7-.54,11.81-3.74,17.52-5.83,4.23-1.54,10.6-2.6,10-6.24.12.79,8,1.73,9.1,2.54,5.66,4.15-10.31,8.14-14.61,9.22-1.37.34-28.6,5.3-24.58.81" style="fill:#cebfbf"/><path d="M146.14,57.87c20.27-.82,52.19-7,51.08-22.11.3,4.11,13.48,3.17,9.13,9.33C203,49.88,182.79,57,170.28,58c-5.6.47-26.45,4.48-26.67.33" style="fill:#cebfbf"/><path d="M132.66,77.81C150.9,77,166,71.09,182.41,67c9.18-2.28,26.17-5.1,26.33-12.53,0,.08,6.67,2.37,7.35,3.09,1.73,1.81,1.27,3.8-.4,5.62-3.57,3.91-12.45,6-18.88,7.68-9.9,2.65-20.41,4.48-30.66,6.59-6.73,1.38-13.76,3.08-20.93,3.43-4.39.22-13.53.47-15.09-2.59" style="fill:#cebfbf"/><rect x="95.7" y="148.58" width="170.14" height="97.63" rx="5.55" style="fill:#d96c62"/><rect x="91.52" y="236.24" width="178.01" height="2.44" style="fill:#943131"/><rect x="91.52" y="169.66" width="178.01" height="2.44" style="fill:#943131"/><rect x="91.52" y="153.01" width="178.01" height="2.44" style="fill:#943131"/><path d="M259.84,148.48H224.08v97.63h35.76a5.55,5.55,0,0,0,5.55-5.55V154A5.54,5.54,0,0,0,259.84,148.48Z" style="fill:#943131"/><polygon points="257.75 245.07 256.36 242.66 257.75 240.26 260.53 240.26 261.92 242.66 260.53 245.07 257.75 245.07" style="fill:#d96c62"/><polygon points="257.75 232.31 256.36 229.9 257.75 227.5 260.53 227.5 261.92 229.9 260.53 232.31 257.75 232.31" style="fill:#d96c62"/><polygon points="257.75 219.55 256.36 217.14 257.75 214.74 260.53 214.74 261.92 217.14 260.53 219.55 257.75 219.55" style="fill:#d96c62"/><polygon points="257.75 180.71 256.36 178.3 257.75 175.9 260.53 175.9 261.92 178.3 260.53 180.71 257.75 180.71" style="fill:#d96c62"/><polygon points="257.75 164.06 256.36 161.66 257.75 159.25 260.53 159.25 261.92 161.66 260.53 164.06 257.75 164.06" style="fill:#d96c62"/><polygon points="98.52 245.07 97.13 242.66 98.52 240.26 101.29 240.26 102.68 242.66 101.29 245.07 98.52 245.07" style="fill:#d96c62"/><polygon points="98.52 232.31 97.13 229.9 98.52 227.5 101.29 227.5 102.68 229.9 101.29 232.31 98.52 232.31" style="fill:#d96c62"/><polygon points="98.52 219.55 97.13 217.14 98.52 214.74 101.29 214.74 102.68 217.14 101.29 219.55 98.52 219.55" style="fill:#d96c62"/><polygon points="98.52 180.71 97.13 178.3 98.52 175.9 101.29 175.9 102.68 178.3 101.29 180.71 98.52 180.71" style="fill:#d96c62"/><polygon points="98.52 164.06 97.13 161.66 98.52 159.25 101.29 159.25 102.68 161.66 101.29 164.06 98.52 164.06" style="fill:#d96c62"/><polygon points="98.52 245.07 97.13 242.66 98.52 240.26 101.29 240.26 102.68 242.66 101.29 245.07 98.52 245.07" style="fill:#943131"/><polygon points="98.52 232.31 97.13 229.9 98.52 227.5 101.29 227.5 102.68 229.9 101.29 232.31 98.52 232.31" style="fill:#943131"/><polygon points="98.52 219.55 97.13 217.14 98.52 214.74 101.29 214.74 102.68 217.14 101.29 219.55 98.52 219.55" style="fill:#943131"/><polygon points="98.52 180.71 97.13 178.3 98.52 175.9 101.29 175.9 102.68 178.3 101.29 180.71 98.52 180.71" style="fill:#943131"/><polygon points="98.52 164.06 97.13 161.66 98.52 159.25 101.29 159.25 102.68 161.66 101.29 164.06 98.52 164.06" style="fill:#943131"/><path d="M220.14,162.19c14.42,0,29.12,6.94,41.05,14.7,5.82,3.61,11.37,8.88,9.71,16.37-1.39,6.66-6.1,13.87-10,19.14-6.1,8.6-17.75,29.44-28,31.93" style="fill:#981c20"/><path d="M142.19,162.19c-14.43,0-29.13,6.94-41.06,14.7-5.82,3.61-11.37,8.88-9.7,16.37,1.38,6.66,6.1,13.87,10,19.14,6.1,8.6,17.75,29.44,28,31.93" style="fill:#c52026"/><path d="M236.78,236.94c0,4.8-5.56,12.17-8.69,15.48-9.73,10.29-26,15.89-39.68,17.92-21,3.14-42.62-5.62-57-21-3.2-3.41-6.27-7.45-6.27-12.38V198a27.73,27.73,0,0,1,27.73-27.74H209A27.74,27.74,0,0,1,236.78,198Z" style="fill:#751517"/><circle cx="180.94" cy="203.95" r="56.86" style="fill:#c52026"/><path d="M180.94,147.09a57.15,57.15,0,0,0-11.25,1.12,56.87,56.87,0,0,1,0,111.49,56.87,56.87,0,1,0,11.25-112.61Z" style="fill:#981c20"/><path d="M169.37,198.83a53.42,53.42,0,0,0-4.44,16.09c-1.66,11.65,4.44,11.09,14.43,11.65,8.32.55,18.3,1.66,18.3-8.33,0-3.32-4.43-18.3-6.65-20" style="fill:#ab4038"/><path d="M213.62,183.05c5.55,15.54,29.4,51.6,5.55,60.47,1.66-20,4.44-45.49-6.66-63.24" style="fill:#391e11"/><path d="M146.2,183.05c-5.55,15.54-29.4,51.6-5.55,60.47-1.66-20-4.43-45.49,6.66-63.24" style="fill:#391e11"/><path d="M183.59,229.23a2.43,2.43,0,1,1-2.43-2.42A2.43,2.43,0,0,1,183.59,229.23Z" style="fill:#4c50a1"/><path d="M183.59,220.91a2.43,2.43,0,1,1-2.43-2.43A2.43,2.43,0,0,1,183.59,220.91Z" style="fill:#4c50a1"/><path d="M183.59,212.59a2.43,2.43,0,1,1-2.43-2.43A2.43,2.43,0,0,1,183.59,212.59Z" style="fill:#4c50a1"/><rect x="190.2" y="260.82" width="13.66" height="20.71" style="fill:#751517"/><rect x="155.8" y="260.82" width="13.66" height="20.71" style="fill:#751517"/><path d="M212.31,276.52v9.56c13.94,1.06,24.78,9.13,24.78,18.92H181.24V276.52Z" style="fill:#c52026"/><rect x="181.24" y="276.52" width="12.93" height="28.48" style="fill:#981c20"/><path d="M217.83,286.67c-7.77-1.11-7.4,10.36-14.79,2.59,4.43-6.29,10.35-11.1,14.05-2.22" style="fill:#bbbbbc"/><path d="M148.64,276.52v9.56c-13.94,1.06-24.78,9.13-24.78,18.92h55.85V276.52Z" style="fill:#c52026"/><rect x="166.78" y="276.52" width="12.93" height="28.48" style="fill:#981c20"/><path d="M143.12,286.67c7.77-1.11,7.4,10.36,14.8,2.59-4.44-6.29-10.36-11.1-14.06-2.22" style="fill:#bbbbbc"/><path d="M128.13,197.16c-3.7-3-13.68-5.91-18.49-3.7A34,34,0,0,1,120,196.79c-3.33,1.11-7,1.85-8.88,5.18a18,18,0,0,1,10-1.85,14.34,14.34,0,0,0-2.22,6.29c3-2.22,8.13-4.07,10.35-7-.74-.37-1.48-1.48-2.22-1.85" style="fill:#981c20"/><path d="M144.87,157.59A10.83,10.83,0,1,1,134,146.77,10.83,10.83,0,0,1,144.87,157.59Z" style="fill:#fbc083"/><circle cx="136.07" cy="159.62" r="6.93" style="fill:#d09559"/><path d="M215,157.59a10.83,10.83,0,1,0,10.83-10.82A10.83,10.83,0,0,0,215,157.59Z" style="fill:#fbc083"/><circle cx="223.77" cy="159.62" r="6.93" style="fill:#d09559"/><circle cx="180.39" cy="152.52" r="42.16" style="fill:#fbc083"/><path d="M198,114.19a42.16,42.16,0,0,1-46,69.44,42.16,42.16,0,1,0,46-69.44Z" style="fill:#d09559"/><path d="M189.71,139.92c8.88-10.54,30-8.88,27.74,8.32-7.21.56-34.95,5-28.3-8.32" style="fill:#9f9b97"/><path d="M170.51,139.92c-8.88-10.54-30-8.88-27.74,8.32,7.21.56,34.95,5,28.29-8.32" style="fill:#9f9b97"/><path d="M208.71,154.44c0,10.58-12.68,19.16-28.32,19.16s-28.32-8.58-28.32-19.16,12.68-19.17,28.32-19.17S208.71,143.85,208.71,154.44Z" style="fill:#d95b4a"/><path d="M190.58,136.56c5.57,3.5,9.06,8.49,9.06,14,0,10.58-12.68,19.16-28.32,19.16a40.31,40.31,0,0,1-10.2-1.28,36.61,36.61,0,0,0,19.27,5.12c15.64,0,28.32-8.58,28.32-19.16C208.71,146.29,201.18,139.33,190.58,136.56Z" style="fill:#a9473a"/><path d="M179.92,155.64c0,3.06-4.93,5.54-11,5.54s-11-2.48-11-5.54,4.93-5.54,11-5.54S179.92,152.58,179.92,155.64Z" style="fill:#f48577"/><path d="M228.74,168.58c-.11-6.25-.23-12.24-2.27-18.22a37.12,37.12,0,0,0-4.48-9.43c-.4-.56-2.18-2.08-2.3-2.69,3.91,19.58-.85,26.6-.85,26.6l-5.54,4.73-12.05-5.67L183,167.78h-5.22l-18.26-3.88-12,5.67-5.55-4.73s-4.76-7-.85-26.6c-.12.61-1.9,2.13-2.29,2.69a36.81,36.81,0,0,0-4.49,9.43c-2,6-2.15,12-2.27,18.22-.23,12.71-9.54,25.3-2.21,37.8,4.34,7.39,5.15,19.35,12.37,23.52,8,4.6,17,5.12,24.59,10.36,2.48,1.72,10.61,1.57,13.61,2.4l0-23.95v-.94h0s0,24.9,0,24.9c3-.83,11.12-.68,13.6-2.4,7.55-5.24,16.64-5.76,24.59-10.36,7.22-4.17,8-16.13,12.37-23.52C238.28,193.88,229,181.29,228.74,168.58Z" style="fill:#020202"/><path d="M181,143.48c16.4,0,32,.58,46.3,1.64a36.35,36.35,0,0,0,.22-3.92c0-21.93-20.83-39.7-46.52-39.7s-46.53,17.77-46.53,39.7a34,34,0,0,0,.23,3.92C148.91,144.06,164.55,143.48,181,143.48Z" style="fill:#9bb1c3"/><path d="M185.79,148.34c.1-2.55.16-5.24.16-8,0-16.13-1.8-29.21-4-29.21s-4,13.08-4,29.21c0,2.78.05,5.47.15,8Z" style="fill:#5b788c"/><path d="M181,101.5a55,55,0,0,0-6.84.43,47.46,47.46,0,0,1,32.77,42c7,.28,13.85.65,20.37,1.14a36.35,36.35,0,0,0,.22-3.92C227.47,119.27,206.64,101.5,181,101.5Z" style="fill:#889dac"/><path d="M238.24,146.83c0,2.25-25.21,4.08-56.31,4.08s-56.32-1.83-56.32-4.08,25.21-4.09,56.32-4.09S238.24,144.57,238.24,146.83Z" style="fill:#5b788c"/><rect x="91" y="230.87" width="12.69" height="35.76" transform="translate(-4.85 1.95) rotate(-1.12)" style="fill:#ad2324"/><rect x="91" y="230.93" width="6.35" height="35.76" transform="matrix(1, -0.02, 0.02, 1, -4.87, 1.9)" style="fill:#8c1c1d"/><path d="M90.65,230.93c0,.72,2.86,1.24,6.37,1.17s6.33-.7,6.32-1.42-2.87-1.24-6.37-1.17S90.64,230.21,90.65,230.93Z" style="fill:#8c1c1d"/><path d="M99.64,223.14c1.89-.9,7.29-2.33,5.8-5.1l.77-.37a3,3,0,0,0,1.28-.39h0c1.16,2.28-.06,4.22-2.25,5.6a36.54,36.54,0,0,1-4.47,2.12c-2.61,1.19-2.42,3.17-2.45,5.72,0,.07,0,.13,0,.19a8.64,8.64,0,0,0-.88,0h-.77a1.5,1.5,0,0,0-.44.07h0a1.64,1.64,0,0,1,0-.23C96.19,227.35,96.26,224.75,99.64,223.14Z" style="fill:#815020"/><path d="M107.49,217.28v0a3.73,3.73,0,0,1,.44,1.93c-.55-.5-1.09-1-1.61-1.54A3,3,0,0,0,107.49,217.28Z" style="fill:#d59d51"/><path d="M105.72,217.91c.57.56,1.15,1.12,1.74,1.66a18,18,0,0,1-1.77-.52,1.82,1.82,0,0,0-.26-1Z" style="fill:#d59d51"/><path d="M105.48,219.76a.6.6,0,0,0,.06-.11,19.53,19.53,0,0,0,2.15.6,3.74,3.74,0,0,1-.43.78A16.94,16.94,0,0,1,105.48,219.76Z" style="fill:#d59d51"/><path d="M104.42,220.87a1.6,1.6,0,0,0,.25-.18,12.3,12.3,0,0,0,2.09.95,7,7,0,0,1-.8.73A19.8,19.8,0,0,1,104.42,220.87Z" style="fill:#d59d51"/><path d="M102.69,221.85l.26-.12a23,23,0,0,0,2.17,1.21c-.24.15-.49.28-.74.41A11.41,11.41,0,0,1,102.69,221.85Z" style="fill:#d59d51"/><path d="M103.3,223.59l-2.27-1c.35-.15.72-.29,1.09-.46a14.33,14.33,0,0,0,1.67,1.55l-.33.15A.24.24,0,0,0,103.3,223.59Z" style="fill:#d59d51"/><path d="M100.75,223.1c.7.34,1.41.66,2.12,1l-1.27.56C101.33,224.11,101.06,223.6,100.75,223.1Z" style="fill:#d59d51"/><path d="M100.41,225.18c-.61-.48-1.24-1-1.87-1.41a7.57,7.57,0,0,1,1.1-.63L100,223a19.54,19.54,0,0,1,1.09,1.88l-.27.12Z" style="fill:#d59d51"/><path d="M96.79,226c0-.07.06-.15.1-.23a12.8,12.8,0,0,0,2.17.63,3.73,3.73,0,0,0-.32.63A13.46,13.46,0,0,1,96.79,226Z" style="fill:#d59d51"/><path d="M98.34,230.51a1.34,1.34,0,0,1,0,.2c0,.07,0,.13,0,.19a8.64,8.64,0,0,0-.88,0h-.77a1.5,1.5,0,0,0-.44.07h0a1.64,1.64,0,0,1,0-.23c0-.09,0-.18,0-.28A10.48,10.48,0,0,0,98.34,230.51Z" style="fill:#d59d51"/><path d="M96.18,229.86c0-.38,0-.76.06-1.13.7.24,1.41.48,2.11.69,0,.16,0,.32,0,.49A9.19,9.19,0,0,1,96.18,229.86Z" style="fill:#d59d51"/><path d="M96.29,228.11s0-.09,0-.13l2.2-.17a7.84,7.84,0,0,0-.11,1C97.68,228.59,97,228.35,96.29,228.11Z" style="fill:#d59d51"/><path d="M107.46,216.56c.11,0,.27.51,0,1.14s-.84.81-.89.72.22-.47.46-.92S107.31,216.56,107.46,216.56Z" style="fill:#d59d51"/><path d="M107.92,216.39c.12,0,.13.59-.19,1.18s-.74.91-.84.84.11-.55.42-1.07S107.78,216.38,107.92,216.39Z" style="fill:#d59d51"/><path d="M108.39,216.85c.11,0,0,.59-.45,1.12a2.18,2.18,0,0,1-.68.53c-.2.09-.34.12-.37.06s0-.18.17-.33.32-.35.52-.57C108,217.2,108.26,216.79,108.39,216.85Z" style="fill:#d59d51"/><path d="M106.87,217.8s-.08.17-.33.25a1.23,1.23,0,0,1-1-.16c-.68-.44-.79-1.1-.69-1.13s.43.42.94.72S106.81,217.67,106.87,217.8Z" style="fill:#d59d51"/><path d="M106.58,218.42c0,.06-.12.12-.33.14a1.41,1.41,0,0,1-.8-.22c-.57-.36-.7-.93-.58-1s.4.29.83.56S106.57,218.28,106.58,218.42Z" style="fill:#d59d51"/><path d="M106.27,218.42c0,.13-.45.18-1,.1s-.93-.24-.9-.37.46-.17,1-.1S106.3,218.3,106.27,218.42Z" style="fill:#d59d51"/><path d="M246.35,220.91l-2.25-2.78c5.67,5.84,4.68,10.73,2.65,19.18-2.12,8.8-8,14.83-17.55,12.54-10.22-2.45-14-10.07-12.39-19.74,1.43-7.49,3.1-19.34,12.51-18.19,6-.62,15.59,9,14.78,6.21" style="fill:#552e15"/><path d="M116,220.91l2.26-2.78c-5.68,5.84-4.69,10.73-2.65,19.18,2.12,8.8,8,14.83,17.55,12.54,10.21-2.45,14-10.07,12.38-19.74-1.42-7.49-3.1-19.34-12.51-18.19-6-.62-15.59,9-14.77,6.21" style="fill:#552e15"/><rect x="245.77" y="242.41" width="35.76" height="12.69" transform="translate(9.78 507.48) rotate(-88.88)" style="fill:#ad2324"/><rect x="248.95" y="245.64" width="35.76" height="6.35" transform="matrix(0.02, -1, 1, 0.02, 12.82, 510.71)" style="fill:#8c1c1d"/><path d="M270.35,230.93c0,.72-2.86,1.24-6.37,1.17s-6.33-.7-6.32-1.42,2.87-1.24,6.37-1.17S270.36,230.21,270.35,230.93Z" style="fill:#8c1c1d"/><path d="M261.36,223.14c-1.89-.9-7.29-2.33-5.8-5.1l-.77-.37a3,3,0,0,1-1.28-.39h0c-1.16,2.28.06,4.22,2.25,5.6a36,36,0,0,0,4.48,2.12c2.6,1.19,2.41,3.17,2.44,5.72,0,.07,0,.13,0,.19a8.64,8.64,0,0,1,.88,0h.77a1.5,1.5,0,0,1,.44.07h.05a1.64,1.64,0,0,0,0-.23C264.81,227.35,264.74,224.75,261.36,223.14Z" style="fill:#815020"/><path d="M253.51,217.28v0a3.73,3.73,0,0,0-.44,1.93c.55-.5,1.09-1,1.61-1.54A3,3,0,0,1,253.51,217.28Z" style="fill:#d59d51"/><path d="M255.28,217.91c-.57.56-1.15,1.12-1.74,1.66a18,18,0,0,0,1.77-.52,1.82,1.82,0,0,1,.26-1Z" style="fill:#d59d51"/><path d="M255.52,219.76a.6.6,0,0,1-.06-.11,19.53,19.53,0,0,1-2.15.6,3.74,3.74,0,0,0,.43.78A16.94,16.94,0,0,0,255.52,219.76Z" style="fill:#d59d51"/><path d="M256.58,220.87a1.6,1.6,0,0,1-.25-.18,12.3,12.3,0,0,1-2.09.95,7,7,0,0,0,.8.73A19.8,19.8,0,0,0,256.58,220.87Z" style="fill:#d59d51"/><path d="M258.31,221.85l-.26-.12a23,23,0,0,1-2.17,1.21c.24.15.49.28.74.41A11.41,11.41,0,0,0,258.31,221.85Z" style="fill:#d59d51"/><path d="M257.7,223.59l2.27-1c-.35-.15-.72-.29-1.09-.46a14.33,14.33,0,0,1-1.67,1.55l.33.15A.24.24,0,0,1,257.7,223.59Z" style="fill:#d59d51"/><path d="M260.25,223.1c-.7.34-1.41.66-2.12,1l1.27.56C259.67,224.11,259.94,223.6,260.25,223.1Z" style="fill:#d59d51"/><path d="M260.59,225.18c.61-.48,1.24-1,1.87-1.41a7.57,7.57,0,0,0-1.1-.63L261,223a19.54,19.54,0,0,0-1.09,1.88l.28.12Z" style="fill:#d59d51"/><path d="M264.21,226c0-.07-.06-.15-.1-.23a12.8,12.8,0,0,1-2.17.63,3.73,3.73,0,0,1,.32.63A13.46,13.46,0,0,0,264.21,226Z" style="fill:#d59d51"/><path d="M262.66,230.51a1.34,1.34,0,0,0,0,.2c0,.07,0,.13,0,.19a8.64,8.64,0,0,1,.88,0h.77a1.5,1.5,0,0,1,.44.07h.05a1.64,1.64,0,0,0,0-.23c0-.09,0-.18,0-.28A10.48,10.48,0,0,1,262.66,230.51Z" style="fill:#d59d51"/><path d="M264.82,229.86c0-.38,0-.76-.06-1.13-.7.24-1.41.48-2.11.69,0,.16,0,.32,0,.49A9.19,9.19,0,0,0,264.82,229.86Z" style="fill:#d59d51"/><path d="M264.71,228.11s0-.09,0-.13l-2.2-.17a7.84,7.84,0,0,1,.11,1C263.32,228.59,264,228.35,264.71,228.11Z" style="fill:#d59d51"/><path d="M253.54,216.56c-.11,0-.27.51,0,1.14s.84.81.89.72-.22-.47-.46-.92S253.69,216.56,253.54,216.56Z" style="fill:#d59d51"/><path d="M253.08,216.39c-.12,0-.13.59.19,1.18s.74.91.84.84-.11-.55-.42-1.07S253.22,216.38,253.08,216.39Z" style="fill:#d59d51"/><path d="M252.61,216.85c-.11,0,0,.59.45,1.12a2.18,2.18,0,0,0,.68.53c.2.09.34.12.37.06s0-.18-.17-.33-.32-.35-.52-.57C253,217.2,252.74,216.79,252.61,216.85Z" style="fill:#d59d51"/><path d="M254.13,217.8s.08.17.33.25a1.23,1.23,0,0,0,1-.16c.68-.44.79-1.1.69-1.13s-.43.42-.94.72S254.19,217.67,254.13,217.8Z" style="fill:#d59d51"/><path d="M254.42,218.42c0,.06.12.12.33.14a1.41,1.41,0,0,0,.8-.22c.57-.36.7-.93.58-1s-.4.29-.83.56S254.43,218.28,254.42,218.42Z" style="fill:#d59d51"/><path d="M254.73,218.42c0,.13.45.18,1,.1s.93-.24.9-.37-.46-.17-.95-.1S254.7,218.3,254.73,218.42Z" style="fill:#d59d51"/></svg>