<svg id="Capa_1" data-name="Capa 1" xmlns="http://www.w3.org/2000/svg" viewBox="0 0 361 305"><path d="M238.94,95.49c24.24,5.72,44.13,18.76,57.25,40.65,8.2,14,16.63,26.9,19.07,43.15.72,8,3.79,26-1,33.17-3.26,5-11.18,3.11-17.82,4.68C289.9,191.58,254,188.85,231.61,193" style="fill:#c19526"/><path d="M84.9,188.26c.17,1-19.76-36.78-13.1-47.58s59-45.77,89.07-48.12l-9.81,74.85s-28.94,47.82-32.6,49.64-12.57-4.25-23.42-12" style="fill:#f6cc0f"/><rect x="209.55" y="250.62" width="8.51" height="37.03" style="fill:#a97c2c"/><rect x="169.9" y="250.62" width="8.51" height="37.03" style="fill:#a97c2c"/><path d="M277.42,180c0,40.79-37.76,73.86-84.33,73.86h0c-46.57,0-84.33-33.07-84.33-73.86V145.93c0-40.79,37.76-58.61,84.33-58.61h0c46.57,0,84.33,17.82,84.33,58.61Z" style="fill:#f6cc0f"/><path d="M212.44,88.43c6.58,44.26,6.86,91.1-5.07,134.4A310.42,310.42,0,0,1,197,253.77c44.77-1.78,80.45-34.13,80.45-73.78V145.93C277.42,111,249.69,92.89,212.44,88.43Z" style="fill:#c19526"/><rect x="231.2" y="95.92" width="16.26" height="111.42" style="fill:#77401b"/><rect x="139.71" y="95.92" width="16.26" height="111.42" style="fill:#77401b"/><ellipse cx="246.63" cy="120.21" rx="17.68" ry="20.47" style="fill:#fbc083"/><path d="M232,124.05c0,7.23,5.06,13.1,11.31,13.1s11.31-5.87,11.31-13.1S249.57,111,243.32,111,232,116.82,232,124.05Z" style="fill:#d09559"/><ellipse cx="138.28" cy="120.21" rx="17.68" ry="20.47" style="fill:#fbc083"/><path d="M152.91,124.05c0,7.23-5.07,13.1-11.31,13.1s-11.31-5.87-11.31-13.1S135.35,111,141.6,111,152.91,116.82,152.91,124.05Z" style="fill:#d09559"/><ellipse cx="193.09" cy="119.86" rx="47.78" ry="57.94" style="fill:#fbc083"/><path d="M213,67.19C222.55,77.79,228.54,93,228.54,110c0,32-21.39,57.94-47.78,57.94a40.65,40.65,0,0,1-19.91-5.27c8.5,9.43,19.81,15.18,32.24,15.18,26.39,0,47.78-25.94,47.78-57.94C240.87,96.48,229.44,76.35,213,67.19Z" style="fill:#d09559"/><path d="M226,120.26c0,7.35-2.87,13.31-6.39,13.31s-6.39-6-6.39-13.31,2.86-13.32,6.39-13.32S226,112.9,226,120.26Z"/><path d="M224.65,116.92c0,2.6-1,4.71-2.14,4.71s-2.14-2.11-2.14-4.71,1-4.7,2.14-4.7S224.65,114.33,224.65,116.92Z" style="fill:#fff"/><path d="M171.89,120.26c0,7.35-2.86,13.31-6.39,13.31s-6.39-6-6.39-13.31,2.86-13.32,6.39-13.32S171.89,112.9,171.89,120.26Z"/><path d="M170.51,116.92c0,2.6-.95,4.71-2.14,4.71s-2.14-2.11-2.14-4.71,1-4.7,2.14-4.7S170.51,114.33,170.51,116.92Z" style="fill:#fff"/><path d="M241.86,107c-.14.55-.29,1.2-.47,1.93-1-2.13-1.84-3.93-2.58-5.19Z" style="fill:#dc4726"/><path d="M206.79,160.72c2.29-11.4-1.53-16.74,10-15.36,15.13,1.81,22.07-25.94,24.58-36.46,4,8.87,9.3,23.74,11.14,32.27.15.83.27,1.64.37,2.43,4.46,3.46,8.58,7.73,11.07,13.05-3.63-.77-7.93-2.28-11.62-3.12-.06.26-.13.51-.2.77,2.38,5.4,6.44,10.84,5.72,17-3.47-2.47-6.5-5.87-9.75-8.79a31.4,31.4,0,0,1-2.4,2.91c.42,5.4-.44,10.58-3.86,14.84-1.65-2.34-2.5-5.53-3.13-9-1,.71-2.12,1.38-3.23,2a48,48,0,0,1-5.84,10.18,27.22,27.22,0,0,1-.64-6.84c-8.36,3.81-17.57,6.41-25.28,8.47C203,177,205.26,168.05,206.79,160.72Z" style="fill:#dc4726"/><path d="M146.32,107c.13.55.29,1.2.46,1.93a57.81,57.81,0,0,1,2.59-5.19Z" style="fill:#dc4726"/><path d="M181.39,160.72c-2.29-11.4,1.52-16.74-10-15.36-15.13,1.81-22.08-25.94-24.59-36.46-4,8.87-9.29,23.74-11.13,32.27-.16.83-.28,1.64-.37,2.43-4.46,3.46-8.58,7.73-11.07,13.05,3.62-.77,7.93-2.28,11.62-3.12.06.26.12.51.19.77-2.37,5.4-6.43,10.84-5.71,17,3.46-2.47,6.49-5.87,9.75-8.79a29.87,29.87,0,0,0,2.4,2.91c-.42,5.4.44,10.58,3.86,14.84,1.64-2.34,2.49-5.53,3.13-9,1,.71,2.12,1.38,3.22,2a48,48,0,0,0,5.85,10.18,27.69,27.69,0,0,0,.64-6.84c8.36,3.81,17.56,6.41,25.28,8.47C185.2,177,182.91,168.05,181.39,160.72Z" style="fill:#dc4726"/><path d="M193.4,98.88c17.86,0,34.88.75,50.41,2.09.16-1.65.25-3.31.25-5a50.66,50.66,0,1,0-101.31,0c0,1.69.09,3.35.25,5C158.53,99.63,175.55,98.88,193.4,98.88Z" style="fill:#dac559"/><path d="M198.68,105.09c.11-3.26.17-6.69.17-10.24,0-20.59-2-37.28-4.38-37.28s-4.38,16.69-4.38,37.28c0,3.55.06,7,.17,10.24Z" style="fill:#8c703f"/><path d="M193.4,45.31a50.7,50.7,0,0,0-7.44.55c19.59,7.2,34.13,28.26,35.68,53.67,7.66.35,15.08.83,22.17,1.44.16-1.65.25-3.31.25-5A50.66,50.66,0,0,0,193.4,45.31Z" style="fill:#a29954"/><path d="M255.78,103.15c0,2.88-27.45,5.22-61.31,5.22s-61.31-2.34-61.31-5.22,27.45-5.21,61.31-5.21S255.78,100.28,255.78,103.15Z" style="fill:#8c703f"/><rect x="176.88" y="112.44" width="38.21" height="24.94" style="fill:#552e15"/><path d="M234.51,125.14c0,9.94-7.46,18-16.66,18s-16.66-8-16.66-18,7.46-18,16.66-18S234.51,115.21,234.51,125.14Z" style="fill:#cb7429"/><path d="M231.84,125.14c0,8.34-6.27,15.1-14,15.1s-14-6.76-14-15.1,6.26-15.09,14-15.09S231.84,116.81,231.84,125.14Z" style="fill:#252b49"/><path d="M225.77,112.71a13.26,13.26,0,0,0-4-2.06l-17.32,18.69a15.74,15.74,0,0,0,1.9,4.35Z" style="fill:#fcfdff"/><path d="M185.62,125.14c0,9.94-7.46,18-16.66,18s-16.66-8-16.66-18,7.46-18,16.66-18S185.62,115.21,185.62,125.14Z" style="fill:#cb7429"/><path d="M183,125.14c0,8.34-6.27,15.1-14,15.1s-14-6.76-14-15.1,6.27-15.09,14-15.09S183,116.81,183,125.14Z" style="fill:#252b49"/><path d="M176.88,112.71a13.26,13.26,0,0,0-4-2.06l-17.32,18.69a15.74,15.74,0,0,0,1.9,4.35Z" style="fill:#fcfdff"/><path d="M221.88,141.05c0,10.76-12.89,19.48-28.79,19.48s-28.79-8.72-28.79-19.48,12.89-19.48,28.79-19.48S221.88,130.29,221.88,141.05Z" style="fill:#d95b4a"/><path d="M203.46,122.87c5.66,3.56,9.21,8.64,9.21,14.28,0,10.76-12.89,19.48-28.8,19.48a40.6,40.6,0,0,1-10.36-1.31,37.09,37.09,0,0,0,19.58,5.21c15.9,0,28.79-8.72,28.79-19.48C221.88,132.76,214.24,125.69,203.46,122.87Z" style="fill:#a9473a"/><path d="M192.62,142.27c0,3.11-5,5.64-11.2,5.64s-11.2-2.53-11.2-5.64,5-5.63,11.2-5.63S192.62,139.16,192.62,142.27Z" style="fill:#f48577"/><path d="M232.85,108.91a5.53,5.53,0,0,1-5.51,5.56H210.4a5.53,5.53,0,0,1-5.5-5.56h0a5.53,5.53,0,0,1,5.5-5.55h16.94a5.53,5.53,0,0,1,5.51,5.55Z" style="fill:#dc4726"/><path d="M179.48,108.91a5.54,5.54,0,0,1-5.51,5.56H157a5.53,5.53,0,0,1-5.5-5.56h0a5.53,5.53,0,0,1,5.5-5.55H174a5.54,5.54,0,0,1,5.51,5.55Z" style="fill:#dc4726"/><path d="M208,215.78c-11.08,0-22.17,0-33.24-.62A109.82,109.82,0,0,1,160,213.54c-4.63-.9-9.1-2.21-13.79-2.83-11.14-1.47-23.22-1.87-34.26-5a83.38,83.38,0,0,0,161.63,4.76C252.53,216.29,229,215.78,208,215.78Z" style="fill:#ca982c"/><path d="M213.23,215.78c-.61,16.61-2.8,33.07-10.52,48.18-1.22,2.38-2.55,4.68-4,6.91a83.37,83.37,0,0,0,74.85-60.44C254.27,215.81,232.86,215.82,213.23,215.78Z" style="fill:#a97c2c"/><path d="M108.4,220.24c0-4.38,61.56,35.16,169,0V190.57c-107.46,35.16-169-4.39-169,0" style="fill:#77401b"/><rect x="181.15" y="222.04" width="23.89" height="12.9" style="fill:none;stroke:#727a7d;stroke-miterlimit:10;stroke-width:2.237519884324756px"/><rect x="181.15" y="204.15" width="23.89" height="12.9" style="fill:none;stroke:#727a7d;stroke-miterlimit:10;stroke-width:2.237519884324756px"/><path d="M277.13,205.4c-107.47,35.16-169-4.38-169,0" style="fill:none;stroke:#532b13;stroke-miterlimit:10;stroke-width:2.237519884324756px"/><path d="M229.1,277.43v9.25c13.5,1,24,8.84,24,18.32H199V277.43Z" style="fill:#c05827"/><rect x="199.02" y="277.43" width="12.52" height="27.57" style="fill:#a73e24"/><path d="M234.45,287.25c-7.52-1.07-7.16,10-14.33,2.51,4.3-6.09,10-10.74,13.61-2.15" style="fill:#bbbbbc"/><path d="M159.84,277.43v9.25c-13.5,1-24,8.84-24,18.32h54.07V277.43Z" style="fill:#c05827"/><rect x="177.4" y="277.43" width="12.52" height="27.57" style="fill:#a73e24"/><path d="M154.49,287.25c7.52-1.07,7.16,10,14.33,2.51-4.3-6.09-10-10.74-13.61-2.15" style="fill:#bbbbbc"/><path d="M90.57,248.26c-.71,13.74,18.28,22,29.86,16.63,9.56-4.28,4.75-14.85-2.44-18.25-7.7-3.39-16.33-2.69-24.45-2a6.55,6.55,0,0,0-.44,3.06c5.6.38,36.15,2.25,23.66,12.19-14,11-18.12-14.86-27.78-14.64" style="fill:#bf6328"/><polygon points="32.6 87.14 141.34 84.74 110.08 93.06 64.2 94.07 32.6 87.14" style="fill:#65889a"/><rect x="31.85" y="19.12" width="108.76" height="66.83" transform="matrix(1, -0.02, 0.02, 1, -1.14, 1.91)" style="fill:#9bb1c3"/><rect x="42.59" y="25.72" width="87.29" height="53.63" transform="translate(-1.14 1.91) rotate(-1.26)" style="fill:#7a97aa"/><polygon points="125.72 71.22 43.03 73.04 43.19 80.3 130.46 78.38 129.28 24.76 124.7 24.86 125.72 71.22" style="fill:#65889a"/><path d="M84.57,91.18,88,244.57a7.08,7.08,0,0,0,14.15-.31L98.72,90.87Z" style="fill:#bf6328"/><path d="M87.74,235l.21,9.55a7.08,7.08,0,0,0,14.15-.31l-.34-15.3C97.1,231,92.45,233.11,87.74,235Z" style="fill:#552c12"/><path d="M87.36,217.73,87.65,231c4.71-1.93,9.36-4,14-6.09l-.06-2.69C96.79,220.91,92.06,219.37,87.36,217.73Z" style="fill:#552c12"/><path d="M86.87,195.37l.4,18.31c4.71,1.65,9.44,3.21,14.25,4.53l-.6-27.49Q93.93,193.17,86.87,195.37Z" style="fill:#552c12"/><path d="M86.37,173l.41,18.4q7.06-2.22,14-4.67l-.22-10.08A144.31,144.31,0,0,1,86.37,173Z" style="fill:#552c12"/><path d="M85.68,141.83l.24,10.66c4.65-2.79,9.28-5.6,14-8.32l0-.91C95.13,143,90.41,142.41,85.68,141.83Z" style="fill:#552c12"/><path d="M85.48,132.6,85.6,138c4.72.58,9.45,1.12,14.19,1.44l-.38-17.12C94.69,125.61,90.16,129.23,85.48,132.6Z" style="fill:#552c12"/><path d="M85,111l.37,17c4.65-3.39,9.17-7,13.93-10.14L99.25,115C94.61,113.37,89.77,112.28,85,111Z" style="fill:#552c12"/><path d="M96.47,90.92c-4,2.77-7.84,6-11.71,9.14l.16,7.25c4.72,1.29,9.58,2.33,14.24,3.76l-.44-20.2Z" style="fill:#552c12"/><path d="M84.57,91.18l.09,4.2c1.78-1.45,3.57-2.91,5.37-4.32Z" style="fill:#552c12"/><path d="M86,156.87,86.28,169c4.7,1.46,9.44,2.77,14.24,3.75L100,148.53C95.31,151.27,90.68,154.09,86,156.87Z" style="fill:#552c12"/><path d="M74.72,169.47c7.2,3.4,17.34,2.16,25,2,7.11-.16,8.68,1.84,11.06-5.33,1.44-4.1.76-11.71.17-15.76-1.18-7.09-1.71-8.1-.34-15.25.86-7.13,1.86-7.66-5.3-9.54-5.62-1.4-8.63.19-13.68,1.83-5.57,1.14-9.17-.82-13.72.3-15.68,3.4-17,37.49-3.15,41.76" style="fill:#77401b"/><path d="M288.3,218.61c-1.82-4.1-3.64-9.1.91-12.74,3.64-2.73,21.84-6.37,26.84-5,4.1.91,7.74,4.55,6.83,9.56-1.37,4.55-5.92,4.09-10.47,5-7.73,1.37-18.19,1.82-25,5" style="fill:#77401b"/><path d="M290.87,216.61c-2.66,2-10.65,7.09-4.56,16.35,1.45,2.22,5.68-.35,7.46,1.7,4,3.7,5.11,9.85,11.78,10.26,10.23.41,20.9-4.92,24-14.77,1.77-5.74-4.45-20.52-12.46-19.28" style="fill:#77401b"/></svg>