<svg id="Capa_1" data-name="Capa 1" xmlns="http://www.w3.org/2000/svg" viewBox="0 0 361 305"><rect x="184.8" y="245.42" width="23.2" height="37.48" style="fill:#4a5b75"/><rect x="149.68" y="245.42" width="23.2" height="37.48" style="fill:#4a5b75"/><path d="M294.88,181.71c3.14,7.48-13.2,38.79-19.63,42.91-9.05,5.43-19.44-3.85-26.42-9.57-8.72-8.52-14.25-14.07-9.75-26.12,2.44-6.44,5.72-18,12.45-19.5,2.85-.71,8.43.33,11.7-.19,5.12-.17,10-2,11.88,4.93" style="fill:#9e5431"/><path d="M266.78,167.51c-1.64,4.21-3.23,9.33,1.53,12.77,3.8,2.57,22.31,5.35,27.29,3.73,4.08-1.11,7.58-4.95,6.42-9.94-1.6-4.51-6.16-3.83-10.79-4.52-7.86-1-18.43-1-25.46-3.83" style="fill:#552e15"/><path d="M269.47,169.39c-2.79-1.93-11.08-6.61-5.4-16.22,1.36-2.3,12.11-12.23,18.82-13,10.29-.9,21.3,3.94,24.92,13.7,2.07,5.69-3.5,20.85-11.62,20" style="fill:#552e15"/><path d="M285.07,215.36c-.21.08-.7-.65-1.35-1.85s-1.47-2.88-2.49-4.65c-.51-.88-1-1.69-1.51-2.41s-1-1.34-1.4-1.85c-.84-1-1.45-1.62-1.31-1.83s1,.1,2.12,1a11.75,11.75,0,0,1,1.8,1.76,18.41,18.41,0,0,1,1.74,2.51,23.13,23.13,0,0,1,2.14,5C285.19,214.41,285.28,215.28,285.07,215.36Z" style="fill:#9f9b97"/><path d="M288.2,211.45c-.26,0-.41-.78-.85-1.88a17.92,17.92,0,0,0-2.36-4c-1.11-1.49-2.25-2.81-3-3.86s-1.1-1.8-.92-1.93.82.32,1.79,1.15a23.65,23.65,0,0,1,3.46,3.66,10.73,10.73,0,0,1,2.16,4.72C288.68,210.63,288.4,211.46,288.2,211.45Z" style="fill:#9f9b97"/><path d="M292.2,206.6c-.11.05-.31-.11-.6-.43s-.62-.82-1.09-1.41l-3.48-4.7c-1.37-1.84-2.62-3.49-3.5-4.71s-1.41-2-1.24-2.17,1,.35,2.11,1.4a33.5,33.5,0,0,1,4,4.49,31.33,31.33,0,0,1,3.17,5.09,8.91,8.91,0,0,1,.66,1.72C292.29,206.3,292.3,206.56,292.2,206.6Z" style="fill:#9f9b97"/><path d="M66.12,181.71c-3.14,7.48,13.2,38.79,19.63,42.91,9,5.43,19.44-3.85,26.42-9.57,8.72-8.52,14.25-14.07,9.75-26.12-2.44-6.44-5.72-18-12.45-19.5-2.85-.71-8.43.33-11.7-.19-5.12-.17-10-2-11.88,4.93" style="fill:#9e5431"/><path d="M240,153.14c0-1.37,6.89-5.5,9.64-4.12,6,2.29,6,16.49,6.89,21.53,2.75,16.49,4.13,28.41-7.35,41.69,0-6.41-.91-11.91-1.83-18.32" style="fill:#a0b4dc"/><path d="M118.14,153.14c0-1.37-6.89-5.5-9.64-4.12-6,2.29-6,16.49-6.89,21.53C98.86,187,97.48,199,109,212.24c0-6.41.91-11.91,1.83-18.32" style="fill:#a0b4dc"/><path d="M151.33,238.74c21.32-.36,42.56-1.69,63.85-2.87q11-.6,22-1.11A72,72,0,1,0,122,238.67Q136.64,239,151.33,238.74Z" style="fill:#dff2fc"/><path d="M201.67,125.69a134.31,134.31,0,0,1,6.7,41.69c0,20.93-4.7,41.55-11.88,61.14-1.05,2.87-2.13,5.72-3.22,8.57,7.3-.39,14.6-.81,21.91-1.22s14.64-.77,22-1.11a71.83,71.83,0,0,0-35.47-109.07Z" style="fill:#a0b4dc"/><path d="M223.84,216.79l1.78-18.17h-97.3l1.66,17a137.14,137.14,0,0,1-25-10C109.88,238.64,138,264,172,264h14c34,0,62.15-25.36,67.05-58.43A139.15,139.15,0,0,1,223.84,216.79Z" style="fill:#4e607d"/><path d="M223.84,216.79l1.78-18.17H190.56c.48,7.11,1.24,14.25.81,21.24a143.87,143.87,0,0,1-6.83,35.84c-.93,2.79-1.91,5.56-3,8.3H186c34,0,62.15-25.36,67.05-58.43A139.15,139.15,0,0,1,223.84,216.79Z" style="fill:#4a5b75"/><path d="M236.57,150.71c7.66,8.25,11.83,21.53,9.05,31.15-1.39,6.87-11.83,25.66-23,27.49-21.57,4.13-1.39-17.41.7-21.07,6.26-8.71,6.26-20.16,2.78-29.32-.69-2.3-2.09-5-2.78-7.33" style="fill:#46556e"/><path d="M120,150.71c-7.65,8.25-11.83,21.53-9,31.15,1.4,6.87,11.84,25.66,23,27.49,21.58,4.13,1.39-17.41-.69-21.07-6.27-8.71-6.27-20.16-2.79-29.32.7-2.3,2.09-5,2.79-7.33" style="fill:#46556e"/><path d="M222.9,135.66a13.44,13.44,0,1,0,13.44-13.41A13.42,13.42,0,0,0,222.9,135.66Z" style="fill:#9e5431"/><path d="M225.23,138.17a8.6,8.6,0,1,0,8.59-8.58A8.59,8.59,0,0,0,225.23,138.17Z" style="fill:#733e1e"/><path d="M137.05,135.66a13.44,13.44,0,1,1-13.44-13.41A13.42,13.42,0,0,1,137.05,135.66Z" style="fill:#9e5431"/><path d="M134.73,138.17a8.6,8.6,0,1,1-8.6-8.58A8.59,8.59,0,0,1,134.73,138.17Z" style="fill:#733e1e"/><ellipse cx="179.98" cy="129.37" rx="52.33" ry="52.23" style="fill:#9e5431"/><path d="M201.78,81.89a52.26,52.26,0,0,1-57.11,86,52.27,52.27,0,1,0,57.11-86Z" style="fill:#733e1e"/><path d="M248.65,184.49c.3-8.41-8.23-23.31-8.23-23.31,2.89-38-11.25-49.5-11.25-49.5,4.85,24.25-1,33-1,33l-6.89,5.85-14.94-7-22.67,4.81h-6.88l-22.66-4.81-15,7-6.88-5.85s-5.91-8.71-1.06-33c0,0-14.13,11.48-11.25,49.5,0,0-8.52,14.9-8.22,23.31.28,8,62.23,23.92,68.21,25.57v.14l.26-.07.26.07v-.14C186.42,208.41,248.36,192.46,248.65,184.49Z" style="fill:#9f9b97"/><path d="M191,132.89c4.87-3.37,15.09-6,22.11-6.28,13.58-.37,16,4.09,19,10.67,4.08,9.39-3.11,25.05,13.12,29.93-14.58,6.19-43,9.48-54.29,3.72-5.9-3.1-6.11-10-7.73-15a139.73,139.73,0,0,1-4.11-13.58" style="fill:#bbbbbc"/><path d="M206.57,137.08c6.75.66,13.45,1,15.84,5.25C219,142,216,141,211.77,141.18c5.46,3.2,7.91,7.65,7.24,12.84-6.94-1.45-10.8-5.86-19.46-6.64,3.35,4.25,6.57,8,1.75,13.57-2.53-2.76-3.21-5.68-6.64-8.23-2.22-1.44-5-1.08-5.13-3.84" style="fill:#9f9b97"/><path d="M167.06,133c-4.9-3.34-15.14-5.92-22.16-6.1-13.58-.26-16,4.21-18.9,10.82-4,9.42,3.32,25-12.87,30,14.63,6.08,43.12,9.14,54.31,3.28,5.88-3.14,6-10.08,7.62-15,1.46-4.41,2.92-8.83,4-13.61" style="fill:#bbbbbc"/><path d="M218.39,269.82v11.83C235.7,283,249.15,293,249.15,305.1H179.83V269.82Z" style="fill:#2e3a54"/><rect x="179.83" y="269.82" width="16.05" height="35.28" style="fill:#20314a"/><path d="M225.25,282.39c-9.64-1.37-9.18,12.83-18.36,3.21,5.5-7.79,12.85-13.75,17.44-2.75" style="fill:#bbbbbc"/><path d="M139.38,269.82v11.83C122.07,283,108.62,293,108.62,305.1h69.32V269.82Z" style="fill:#2e3a54"/><rect x="161.88" y="269.82" width="16.05" height="35.28" style="fill:#20314a"/><path d="M132.52,282.39c9.64-1.37,9.18,12.83,18.36,3.21-5.51-7.79-12.85-13.75-17.44-2.75" style="fill:#bbbbbc"/><path d="M57.94,172l3.76-1.08,3-.83.91-.25.32-.08-.31.09-.83.24-2.71.77Z" style="fill:#46556e"/><path d="M151.5,137.3c-6.74.72-13.43,1.17-15.79,5.38,3.37-.36,6.42-1.35,10.63-1.24-5.44,3.24-7.85,7.72-7.14,12.91,6.93-1.52,10.75-6,19.41-6.8-3.32,4.28-6.51,8-1.64,13.58,2.5-2.78,3.16-5.7,6.57-8.29,2.21-1.45,5-1.12,5.1-3.87" style="fill:#9f9b97"/><ellipse cx="180.18" cy="162.29" rx="17.03" ry="28.47" style="fill:#5e1919"/><path d="M168.88,183.58c3,4.46,7,7.18,11.3,7.18,4.7,0,8.95-3.17,12-8.31C186.6,176.43,175.79,178.55,168.88,183.58Z" style="fill:#f48577"/><path d="M191.55,113.76c11-13.05,37.18-11,34.43,10.31-9,.69-43.38,6.19-35.12-10.31" style="fill:#9f9b97"/><path d="M167.72,113.76c-11-13.05-37.19-11-34.43,10.31,9,.69,43.38,6.19,35.11-10.31" style="fill:#9f9b97"/><path d="M215.13,131.75c0,13.11-15.74,23.74-35.15,23.74s-35.15-10.63-35.15-23.74S160.56,108,180,108,215.13,118.64,215.13,131.75Z" style="fill:#d95b4a"/><path d="M192.64,109.6c6.91,4.34,11.24,10.52,11.24,17.4,0,13.11-15.74,23.73-35.15,23.73a50,50,0,0,1-12.66-1.59c6.27,3.94,14.67,6.35,23.91,6.35,19.41,0,35.15-10.63,35.15-23.74C215.13,121.65,205.79,113,192.64,109.6Z" style="fill:#a9473a"/><path d="M179.4,133.24c0,3.79-6.12,6.86-13.67,6.86s-13.67-3.07-13.67-6.86,6.12-6.86,13.67-6.86S179.4,129.45,179.4,133.24Z" style="fill:#f48577"/><path d="M178.88,109c18.32,0,35.79.68,51.72,1.92a41.54,41.54,0,0,0,.25-4.62c0-25.85-23.26-46.81-52-46.81s-52,21-52,46.81a41.53,41.53,0,0,0,.26,4.62C143.1,109.68,160.56,109,178.88,109Z" style="fill:#9bb1c3"/><path d="M178.88,59.49a56.41,56.41,0,0,0-7.63.51c20.1,6.64,35,26.11,36.6,49.59,7.86.32,15.47.77,22.75,1.33a41.54,41.54,0,0,0,.25-4.62C230.85,80.45,207.59,59.49,178.88,59.49Z" style="fill:#889dac"/><path d="M242.88,111c0,3.15-28.16,5.7-62.9,5.7s-62.91-2.55-62.91-5.7,28.16-5.7,62.91-5.7S242.88,107.88,242.88,111Z" style="fill:#5b788c"/><polygon points="191.19 109.87 169.61 109.87 169.61 72.27 191.19 68.7 191.19 109.87" style="fill:#fff5ca"/><polygon points="185.05 69.72 185.05 109.87 191.19 109.87 191.19 68.7 185.05 69.72" style="fill:#f4e6aa"/><path d="M171.91,74.61c-4.43-.52-3.4,5.57-3.4,9,0,1.57-1.62,6.44-1,7,2.21,1.39,2.21-5.39,3.24-6.09.89,1,.6,4.87,2.37,3.31,1.47-1-.3-3.83.88-5,1.92-1.91,3,1.92,3,3.48,0,2.26-.89,3.83-1.33,6.09-.89,5.39,4.13,6.08,4.87,1,.29-2.61-2.66-9-.3-10.26s1.19,1.57,2.22,2.44c1.77,1.73,1.62-.35,2.21-1.4s.45-3.65,2.22-2.08c1.48,1.22,0,3.13-.3,4.52s-.59,3.65.89,3.82c2.66.35,1-3,1.18-3.65.44-2.43.15-1.56,1.18,0,.74,1.22.59,3,2.66,2.44.59-2.09-.44-3.48-.89-5.39a31.41,31.41,0,0,1-.15-5.22c0-2.78,1.92-8.17-.14-9.91-1.63-1.57-6.5,2.09-8.71,2.78-2.81.7-5.61,1.22-8.42,2.09-.74.17-1.33.69-2.07.87" style="fill:#ffe286"/><path d="M176.05,75.22c-28.56-22.19,2.43-39.37,1.83-68,10.93,4.3,18.84,26.49,17,39.37-2.43,20-4.86,25-18.84,28.63" style="fill:#ed2c24"/><path d="M177.69,73.57c-15.15-11.77,1.29-20.88,1-36.07,5.8,2.28,10,14,9,20.88-1.29,10.63-2.58,13.29-10,15.19" style="fill:#ffd244"/><path d="M140.29,200.13a6.52,6.52,0,1,1-6.51-6.51A6.5,6.5,0,0,1,140.29,200.13Z" style="fill:#5b788c"/><ellipse cx="132.4" cy="200.13" rx="6.52" ry="6.51" style="fill:#9bb1c3"/><path d="M232.43,200.45a6.52,6.52,0,1,1-6.52-6.51A6.51,6.51,0,0,1,232.43,200.45Z" style="fill:#5b788c"/><path d="M231.06,200.45a6.52,6.52,0,1,1-6.52-6.51A6.51,6.51,0,0,1,231.06,200.45Z" style="fill:#9bb1c3"/><path d="M178.48,238.52v-.88l-25.65-7.48V204h54.3v26.13l-25.65,7.48v.88l-1.5-.44Zm1.5-2.47h0l25.19-7.35V206H154.78V228.7Z" style="fill:#46556e"/><path d="M94.22,167.51c1.64,4.21,3.23,9.33-1.53,12.77-3.8,2.57-22.31,5.35-27.29,3.73-4.08-1.11-7.58-4.95-6.42-9.94,1.6-4.51,6.16-3.83,10.79-4.52,7.86-1,18.43-1,25.46-3.83" style="fill:#552e15"/><path d="M91.53,169.39c2.79-1.93,11.08-6.61,5.4-16.22-1.36-2.3-12.11-12.23-18.82-13-10.29-.9-21.3,3.94-24.92,13.7-2.07,5.69,3.5,20.85,11.62,20" style="fill:#552e15"/><path d="M75.93,215.36c.21.08.7-.65,1.35-1.85s1.47-2.88,2.49-4.65c.51-.88,1-1.69,1.51-2.41s1-1.34,1.4-1.85c.84-1,1.45-1.62,1.31-1.83s-1,.1-2.12,1a11.75,11.75,0,0,0-1.8,1.76A18.41,18.41,0,0,0,78.33,208a23.13,23.13,0,0,0-2.14,5C75.81,214.41,75.72,215.28,75.93,215.36Z" style="fill:#9f9b97"/><path d="M72.8,211.45c.26,0,.41-.78.85-1.88a17.92,17.92,0,0,1,2.36-4c1.11-1.49,2.25-2.81,3-3.86s1.1-1.8.92-1.93-.82.32-1.79,1.15a23.65,23.65,0,0,0-3.46,3.66,10.73,10.73,0,0,0-2.16,4.72C72.32,210.63,72.6,211.46,72.8,211.45Z" style="fill:#9f9b97"/><path d="M68.8,206.6c.11.05.31-.11.6-.43s.62-.82,1.09-1.41l3.48-4.7c1.37-1.84,2.62-3.49,3.5-4.71s1.41-2,1.24-2.17-1,.35-2.11,1.4a33.5,33.5,0,0,0-3.95,4.49,31.33,31.33,0,0,0-3.17,5.09,8.91,8.91,0,0,0-.66,1.72C68.71,206.3,68.7,206.56,68.8,206.6Z" style="fill:#9f9b97"/></svg>