<svg xmlns="http://www.w3.org/2000/svg" viewBox="0 0 408.6 574.4"><path d="M55 168.1h15.5v76.3h12.4c.1.6.2 1.2.3 1.9a.76.76 0 0 0 .1.4c.4 2.3.8 4.7 1.2 7.1 2.7 16.8 4.5 33.7 5.7 50.5a238.57 238.57 0 0 1-3.1 58.7c-.3 1.5-.5 2.9-.8 4.4a.6.6 0 0 1-.1.4c-.2 1.3-.5 2.6-.7 3.9-.1.3-.1.7-.2 1-.2 1.1-.4 2.2-.7 3.3l-.3 1.2c-.2 1-.5 2.1-.7 3.1l-.3 1.2c-.2 1-.5 2.1-.7 3.1-.1.4-.2.8-.3 1.1-.3 1.1-.5 2.2-.8 3.3a3 3 0 0 0-.2 1c-.3 1.3-.6 2.5-1 3.8 0 .1-.1.3-.1.4-1.1 4.4-2.3 8.8-3.6 13.3l-.2.7c-.3 1.3-.7 2.5-1.1 3.8l-.3.9c-.3 1.2-.7 2.4-1 3.6l-.3.9c-.4 1.3-.7 2.6-1.1 3.9 0 .2-.1.3-.1.5l-1.5 5.4c0 .1-.1.3-.1.4-.3 1.2-.7 2.4-1 3.7-.4 1.5-.9 3.1-1.3 4.6-.8 2.8-1.5 5.5-2.3 8.3-.2.6-.3 1.2-.5 1.7l-2.1 8.4c0 .2-.1.4-.1.6-.7 2.9-1.3 5.7-2 8.6 0 .2-.1.3-.1.5-.7 3-1.3 6-1.9 9.1v.1a506 506 0 0 0-9.7 101.2h263.7A507.23 507.23 0 0 1 323 492c.6-3.1 1.3-6.1 1.9-9.2a.37.37 0 0 1 .1-.3c.6-2.9 1.3-5.9 2-8.8 0-.1.1-.3.1-.4l2.1-8.4c.1-.6.3-1.1.4-1.7.7-2.8 1.5-5.6 2.3-8.3.4-1.6.9-3.1 1.3-4.7a10.55 10.55 0 0 0 .5-1.9c.3-1.2.7-2.4 1-3.6l.9-3.3c.2-.6.3-1.1.5-1.7.3-1 .6-2 .8-3 .1-.5.3-1 .4-1.6.3-1 .6-2 .8-3 .1-.5.3-1 .4-1.4.3-1.1.6-2.1.9-3.1l.3-1.2c.4-1.3.7-2.5 1-3.8a4.33 4.33 0 0 1 .1-.5c.8-2.9 1.6-5.9 2.3-8.8.1-.2.1-.5.2-.7.3-1.2.6-2.4.9-3.5.1-.4.2-.8.3-1.1.3-1.1.5-2.1.8-3.1.1-.4.2-.8.3-1.3.2-1 .5-2 .7-3 .1-.4.2-.8.3-1.3.2-1 .5-2.1.7-3.1l.3-1.2c.2-1.1.5-2.2.7-3.3.1-.3.1-.7.2-1 .3-1.3.5-2.7.8-4v-.2a243.83 243.83 0 0 0 3.9-63.1 537.17 537.17 0 0 0-6.9-57.7v-.2c-.8-4.6-1.7-9.1-2.6-13.6-.1-.5-.2-.9-.3-1.4-.4-1.9-.8-3.9-1.3-5.8h7.1V168l36.7 5.5v-63l-36.7 5.5V67.1h5c22.1 0 40-18.8 40-42V12h-369v13.1a50.61 50.61 0 0 0 .5 6.8C10.4 43.3 0 63.4 0 86.3v17.8c0 35.3 24.7 64 55 64zM30 86.3a25.6 25.6 0 0 1 16.7-24.1 38.71 38.71 0 0 0 18.8 4.9h5v62.6H55c-13.8 0-25-11.5-25-25.6z" fill="#9ac4ba"/><path d="M400.3 153.8l-76.7-11.1v-37.9l76.7-11z" fill="#9ca4a5"/><path d="M264.3 112.1H69c-13.8 0-25-10.9-25-24.4V70.8c0-13.4 11.2-24.4 25-24.4h195.3V9.9H69c-30.3 0-55 27.3-55 60.9v16.9c0 33.6 24.7 60.9 55 60.9h195.3z" fill="#5a6766"/><path d="M368.4 285.5c-2.1-21.7-5.8-43.7-12-64.9L93 202.6a344.79 344.79 0 0 1 12 64.9c3.8 39.8-7.6 69.6-20.2 107.2-17.1 50.8-21.2 103.5-14.2 156.4l3.2.2a8.93 8.93 0 0 1-.8-4.3 10.08 10.08 0 0 1 4.2-7.1 13.48 13.48 0 0 1 8.6-2.3l1.5.1c6.5.4 11.6 5.6 11.1 11.2a9 9 0 0 1-1.3 3.9l7.4.5c.9-4.7 5.1-8.9 12.3-8.4 5.5.4 8.8 3.2 10.1 6.7 1.3-4.8 6.6-8.1 12.5-7.7l3 .2a12.55 12.55 0 0 1 9.3 5 10.7 10.7 0 0 1 1.6-1.4 13.48 13.48 0 0 1 8.6-2.3l1.5.1A12 12 0 0 1 174 533a10.23 10.23 0 0 1 3.2-3.7 13.48 13.48 0 0 1 8.6-2.3l1.5.1c6.5.4 11.6 5.6 11.1 11.2a3.19 3.19 0 0 1-.3 1.4h.3a10.26 10.26 0 0 1 4.1-6 13.77 13.77 0 0 1 5.9-2.3 26.73 26.73 0 0 1 4-.1c6.1.4 10.9 4.9 11.2 10h.1v-.4a10.08 10.08 0 0 1 4.2-7.1 13.48 13.48 0 0 1 8.6-2.3l1.5.1c6.5.4 11.6 5.6 11.1 11.2v.1l5 .3a7.69 7.69 0 0 1-.3-3 10.08 10.08 0 0 1 4.2-7.1 13.48 13.48 0 0 1 8.6-2.3l1.5.1c5.7.4 10.3 4.4 11.1 9.1a13.26 13.26 0 0 1 2.6-2.7 13.48 13.48 0 0 1 8.6-2.3l1.5.1c6.5.4 11.6 5.6 11.1 11.2v.2l4 .3a6.73 6.73 0 0 1-.7-1.1 10.24 10.24 0 0 1-1.3-5.9 9.89 9.89 0 0 1 4.2-7.1 13.48 13.48 0 0 1 8.6-2.3 13 13 0 0 1 6.5 2.3c4.7 1.7 7.9 5.9 7.5 10.4a10.07 10.07 0 0 1-2.2 5.2l4.2.3c-7-52.9-2.9-105.6 14.2-156.4 12.8-37 24.2-66.9 20.4-106.7z" fill="#fff"/><path d="M362.2 244.2c-1.7-7.9-3.6-15.8-5.9-23.6l-263.4-18c2.3 7.8 4.2 15.7 5.9 23.6zM339.5 423c2.4-10.2 5.2-20.3 8.6-30.3 7.1-21.2 13.9-39.9 17.7-59.4l-263.4-18c-3.8 19.4-10.6 38.2-17.7 59.4-3.4 10-6.2 20.1-8.6 30.3l263.4 18z" fill="#eef3f7"/><path d="M327.3 294.5c7.9.6 15.8 1.1 23.6 1.7m-80-5.6c9 .6 18.1 1.2 27.1 1.9m-85.6-5.8c9.6.6 19.2 1.3 28.8 1.9m-83-5.4c8.2.5 16.5 1.1 24.7 1.6m-78.1 7.4c8.2.2 16.2.8 23.8 1.6" fill="none" stroke="#a1afb7" stroke-miterlimit="10" stroke-width="3"/><path d="M84.5 26.2h279v195h-279z" fill="#fff"/><path d="M84.5 140.8h279v80.5h-279z" fill="#f7f7f7"/><path d="M39.5 0v12.5a40 40 0 0 0 40 40h289a40 40 0 0 0 40-40V0z" fill="#bababa"/><path d="M298.3 0l-52.5 52.5h122.8a40 40 0 0 0 40-40V0z" fill="#9ca4a5"/><path d="M264.3 0H132.1L80.2 52.5h131.7Q238 26.25 264.3 0z" fill="#dedddd"/></svg>