<svg  xmlns="http://www.w3.org/2000/svg" viewBox="0 0 368.6 440.9">
  <path fill="#9B7046" d="M28.3 16.5h310.6v400.3H28.3z"/>
  <path fill="#9B8046"
        d="M124 104.2c0-4.8-2.6-8.7-5.9-8.7-3.3 0-5.9 3.9-5.9 8.7v293.7c0 4.8 2.7 8.7 5.9 8.7 3.3 0 5.9-3.9 5.9-8.7V104.2zM109.2 241c0-2.6-2.6-4.8-5.9-4.8-3.3 0-5.9 2.1-5.9 4.8v160.9c0 2.6 2.7 4.8 5.9 4.8 3.3 0 5.9-2.1 5.9-4.8V241zM94.4 202c0-3.3-2.6-5.9-5.9-5.9-3.3 0-5.9 2.6-5.9 5.9v198.7c0 3.3 2.6 5.9 5.9 5.9 3.3 0 5.9-2.6 5.9-5.9V202zM79.6 168c0-3.8-2.6-6.9-5.9-6.9-3.3 0-5.9 3.1-5.9 6.9v231.7c0 3.8 2.6 6.9 5.9 6.9 3.3 0 5.9-3.1 5.9-6.9V168zM64.8 104.2c0-4.8-2.7-8.7-5.9-8.7-3.3 0-5.9 3.9-5.9 8.7v293.7c0 4.8 2.6 8.7 5.9 8.7 3.3 0 5.9-3.9 5.9-8.7V104.2zM50 202c0-3.3-2.7-5.9-5.9-5.9-3.3 0-5.9 2.6-5.9 5.9v198.7c0 3.3 2.6 5.9 5.9 5.9 3.3 0 5.9-2.6 5.9-5.9V202zM331.1 202c0-3.3-2.6-5.9-5.9-5.9-3.3 0-5.9 2.6-5.9 5.9v198.7c0 3.3 2.6 5.9 5.9 5.9 3.3 0 5.9-2.6 5.9-5.9V202zM316.3 104.2c0-4.8-2.6-8.7-5.9-8.7-3.3 0-5.9 3.9-5.9 8.7v293.7c0 4.8 2.6 8.7 5.9 8.7 3.3 0 5.9-3.9 5.9-8.7V104.2zM301.5 168c0-3.8-2.6-6.9-5.9-6.9-3.3 0-5.9 3.1-5.9 6.9v231.7c0 3.8 2.7 6.9 5.9 6.9 3.3 0 5.9-3.1 5.9-6.9V168zM286.7 241c0-2.6-2.7-4.8-5.9-4.8-3.3 0-5.9 2.1-5.9 4.8v160.9c0 2.6 2.7 4.8 5.9 4.8 3.3 0 5.9-2.1 5.9-4.8V241zM271.9 104.2c0-4.8-2.7-8.7-5.9-8.7-3.3 0-5.9 3.9-5.9 8.7v293.7c0 4.8 2.6 8.7 5.9 8.7 3.3 0 5.9-3.9 5.9-8.7V104.2zM257.1 168c0-3.8-2.6-6.9-5.9-6.9-3.3 0-5.9 3.1-5.9 6.9v231.7c0 3.8 2.6 6.9 5.9 6.9 3.3 0 5.9-3.1 5.9-6.9V168zM242.3 202c0-3.3-2.7-5.9-5.9-5.9-3.3 0-5.9 2.6-5.9 5.9v198.7c0 3.3 2.6 5.9 5.9 5.9 3.3 0 5.9-2.6 5.9-5.9V202zM212.7 104.2c0-4.8-2.6-8.7-5.9-8.7-3.3 0-5.9 3.9-5.9 8.7v293.7c0 4.8 2.6 8.7 5.9 8.7 3.3 0 5.9-3.9 5.9-8.7V104.2zM197.9 241c0-2.6-2.7-4.8-5.9-4.8-3.3 0-5.9 2.1-5.9 4.8v160.9c0 2.6 2.7 4.8 5.9 4.8 3.3 0 5.9-2.1 5.9-4.8V241zM183.1 168c0-3.8-2.7-6.9-5.9-6.9-3.3 0-5.9 3.1-5.9 6.9v231.7c0 3.8 2.6 6.9 5.9 6.9 3.3 0 5.9-3.1 5.9-6.9V168zM168.3 202c0-3.3-2.6-5.9-5.9-5.9-3.3 0-5.9 2.6-5.9 5.9v198.7c0 3.3 2.6 5.9 5.9 5.9 3.3 0 5.9-2.6 5.9-5.9V202zM153.5 104.2c0-4.8-2.6-8.7-5.9-8.7-3.3 0-5.9 3.9-5.9 8.7v293.7c0 4.8 2.7 8.7 5.9 8.7 3.3 0 5.9-3.9 5.9-8.7V104.2zM138.7 168c0-3.8-2.6-6.9-5.9-6.9-3.3 0-5.9 3.1-5.9 6.9v231.7c0 3.8 2.6 6.9 5.9 6.9 3.3 0 5.9-3.1 5.9-6.9V168z"/>
  <clipPath id="clip-path-picture-2">
    <path
      d="M328 390.6c0 7.8-6.6 14-14.8 14H55.4c-8.2 0-14.8-6.3-14.8-14V50.2c0-7.8 6.6-14 14.8-14h257.7c8.2 0 14.8 6.3 14.8 14v340.4z"/>
  </clipPath>
  <g clip-path="url(#clip-path-picture-2)">
    <path fill="#FFF"
          d="M351.3 334.9c0-22.5-18.5-40.7-41.4-40.7h-.1c0-.5.1-1 .1-1.6 0-22.5-18.5-40.7-41.4-40.7-2.6 0-5.1.3-7.6.7-5.1-16.7-20.9-28.9-39.6-28.9-10.2 0-19.6 3.7-26.8 9.7-12-8.1-26.6-12.8-42.3-12.8-26.1 0-49 13.1-62.4 32.9-3.4-1.1-7.1-1.6-10.9-1.6-20.2 0-36.6 16.1-36.6 36 0 4.9 1 9.5 2.8 13.7-.4 1.2-.7 2.4-1 3.6-.8-.1-1.7-.1-2.5-.1C20.8 305.2 4 321.7 4 342c0 14.3 8.3 26.7 20.5 32.8.7 2.9 1.7 5.7 3 8.4-.8 3.3-1.2 6.7-1.2 10.2 0 25.1 20.7 45.4 46.2 45.4 8.3 0 16.1-2.2 22.8-6 12.6 19.7 34.9 32.8 60.4 32.8 21.2 0 40.1-9.1 53.2-23.5 2.1.2 4.2.3 6.4.3 5.9 0 11.6-.9 17-2.4 8.1 9.1 20 14.9 33.3 14.9 22.9 0 41.7-17 44.1-38.9h.3c16.6 0 30-13.2 30-29.5 0-6.9-2.4-13.2-6.4-18.2 10.7-7.2 17.7-19.5 17.7-33.4z"/>
    <path fill="#A4B7CE"
          d="M265.1 370.3c-1 15.7-14.5 27.8-30.4 27.5 2.1.6 4.2 1 6.4 1.1 16.5 1 30.7-11.3 31.7-27.5s-11.5-30.1-28-31.2h-1.4c13.4 3.8 22.6 16.1 21.7 30.1z"/>
    <path fill="#A4B7CE"
          d="M300.8 371.5c-6.1 24.8-30.7 40.5-55.7 36 3.1 1.4 6.4 2.6 9.9 3.4 25.7 5.8 51.6-10.2 57.8-35.6 6.2-25.5-9.6-50.8-35.3-56.7-.7-.2-1.4-.2-2.1-.4 19.7 9.3 30.8 31.2 25.4 53.3z"/>
  </g>
  <g clip-path="url(#clip-path-picture-2)">
    <path fill="#FFF"
          d="M354.1 237.7c0-24.5-18.2-44.3-40.6-44.3h-.1c0-.6.1-1.1.1-1.7 0-24.5-18.2-44.3-40.6-44.3-2.5 0-5 .3-7.4.8-5-18.2-20.5-31.5-38.8-31.5-10 0-19.2 4-26.3 10.6-11.8-8.8-26-14-41.4-14-25.5 0-48 14.3-61.1 35.9-3.4-1.2-6.9-1.8-10.7-1.8-19.8 0-35.9 17.6-35.9 39.2 0 5.3 1 10.3 2.7 14.9-.4 1.3-.7 2.6-1 4-.8-.1-1.6-.1-2.5-.1-20.3 0-36.7 17.9-36.7 40.1 0 15.6 8.2 29.1 20.1 35.7.7 3.2 1.7 6.2 2.9 9.1-.8 3.6-1.2 7.3-1.2 11.1 0 27.3 20.3 49.4 45.3 49.4 8.1 0 15.8-2.4 22.4-6.5 12.4 21.5 34.2 35.8 59.1 35.8 20.7 0 39.3-9.9 52.1-25.6 2.1.2 4.1.4 6.2.4 5.8 0 11.4-1 16.7-2.7 8 9.9 19.6 16.2 32.6 16.2 22.4 0 40.8-18.5 43.2-42.3h.3c16.2 0 29.4-14.4 29.4-32.1 0-7.5-2.4-14.4-6.3-19.8 10.6-8 17.5-21.4 17.5-36.5z"/>
    <path fill="#A4B7CE"
          d="M58.1 308.9c-5.7-16.2 1.4-33.4 15.9-39.1-2.1.2-4.2.6-6.3 1.3-15.3 5.2-23 22.9-17.1 39.6 5.9 16.7 23.1 25.9 38.4 20.7.4-.2.8-.3 1.2-.5-13.5 1.3-27-7.6-32.1-22zM304.6 277.5c-5.9 27-30 44.1-54.5 39.2 3 1.6 6.2 2.9 9.7 3.7 25.2 6.3 50.5-11.1 56.6-38.8 6.1-27.8-9.4-55.4-34.5-61.7-.7-.2-1.4-.3-2.1-.4 19.2 10.1 30 34 24.8 58zM230.4 156.9c19.2 8.6 28.5 32.1 21.6 53.2 1.6-2.5 3-5.2 4.1-8.1 8.1-21.5-1.3-46.2-21-55.1-19.7-8.9-42.3 1.4-50.4 22.9l-.6 1.8c10.1-15.7 29.2-22.4 46.3-14.7zM115.9 213c13.5-9 31-4.6 39.7 9.7-.7-2.2-1.6-4.3-2.7-6.4-8.4-15.2-26.6-20.1-40.5-10.9-13.9 9.2-18.4 29-10 44.2.2.4.5.8.8 1.2-4.3-13.9.7-29.8 12.7-37.8z"/>
  </g>
  <g clip-path="url(#clip-path-picture-2)">
    <path fill="#58B9E0"
          d="M230.4 329.6c1.9.6 3.7 1.1 5.6 1.7 4.5 1.3 9 2.7 13.5 4 5.4 1.6 10.9 3.3 16.3 4.9l14.1 4.2c2 .6 3.9 1.5 6 1.9 2.1.4 3.9.1 6-.4 1.3-.4 2.7-.8 3.6-1.8 1.3-1.5 1.3-3.9 1.5-5.8.3-2.3.4-4.7.4-7 0-1.9.1-3.7.1-5.6 0 .5-1.9 1.4-2.3 1.6-.9.4-1.8.7-2.8.8-1 .1-1.9-.1-2.8-.3-1.5-.2-2.9-.5-4.4-.7-4.6-.7-9.2-1.5-13.9-2.2l-16.5-2.7c-4.8-.8-9.5-1.5-14.3-2.3l-7.2-1.2h-.2"/>
    <path fill="#F3AF19" d="M233.1 318.7l-2.7 10.9-25.6-8.4 1.8-7.1z"/>
    <path fill="#EDA411" d="M206.6 314.1l-1 4.1L232 323l-1.6 6.6 2.7-10.9z"/>
    <path fill="#7BCCF3"
          d="M296.8 330.3c-.8 1.1-2.2 1.7-3.4 2.1-2 .7-3.8 1.2-5.9 1-2.1-.2-4.1-.9-6.1-1.3-4.8-.9-9.7-1.9-14.5-2.8-5.6-1.1-11.2-2.1-16.7-3.2l-13.8-2.7c-1.4-.3-2.8-.5-4.2-.8l-1.7 7c1.9.6 3.7 1.1 5.6 1.7 4.5 1.3 9 2.7 13.5 4 5.4 1.6 10.9 3.3 16.3 4.9l14.1 4.2c2 .6 3.9 1.5 6 1.9 2.1.4 3.9.1 6-.4 1.3-.4 2.7-.8 3.6-1.8 1.3-1.5 1.3-3.9 1.5-5.8.3-2.3.4-4.7.4-7v-2.5c-.2.5-.4 1-.7 1.5z"/>
    <path fill="none" stroke="#A9E7FF" stroke-miterlimit="10" d="M234.4 327.2l32.4 8.4"/>
  </g>
  <g clip-path="url(#clip-path-picture-2)">
    <path fill="#A4B7CE"
          d="M168.5 272.5c4.1 0-.3-13.6-1.5-15.1-3.1-3.8-8.7-5.4-13.3-6-11.6-1.4-27.7 1.3-37.1 8.5-10.9 6.3-13.7 29.3 0 33.5 13.6 2.1 35.5-20.9 51.9-20.9zM251.6 293.5c13.7-4.2 10.9-27.2 0-33.5-9.4-7.2-25.6-9.9-37.1-8.5-4.6.6-10.2 2.2-13.3 6-1.3 1.5-5.7 15.1-1.5 15.1 16.4-.1 38.2 22.9 51.9 20.9z"/>
    <path fill="#EFB289"
          d="M185.8 344.2c-20.5 1.1-37.8-13.3-38.6-32.2l5.7-39.2c-.7-15.1 11.9-28.1 28.2-29 16.3-.9 30.1 10.6 30.8 25.7l9.3 38.3c1 19-14.9 35.2-35.4 36.4z"/>
    <ellipse cx="169.3" cy="279.3" fill="#443725" rx="6.7" ry="6.9"/>
    <ellipse cx="171.8" cy="277.6" fill="#FFF" rx="3" ry="3.2"/>
    <g>
      <ellipse cx="194.3" cy="279.3" fill="#443725" rx="6.7" ry="6.9"/>
      <ellipse cx="196.7" cy="277.6" fill="#FFF" rx="3" ry="3.2"/>
    </g>
  </g>
  <circle cx="170.6" cy="316.7" r="4.7" fill="#443725" clip-path="url(#b)"/>
  <circle cx="197.9" cy="316.7" r="4.7" fill="#443725" clip-path="url(#b)"/>
  <g>
    <path fill="#502D14"
          d="M368.6 398.2c.2-3.8-5.8-7.3-14.6-9.2v-88.4c7.5-2.5 12.8-9.3 12.8-17.3 0-5.9-3-11.2-7.6-14.6 3-12.3 4.9-29.3 4.9-48.2 0-18.6-1.8-35.4-4.8-47.7 4.6-3.4 7.5-8.6 7.5-14.5 0-8-5.3-14.7-12.8-17.3V54.4c8-1.3 13.4-4.3 13.6-7.8.1-2.2-1.8-4.3-5.1-6 .1-.2.2-.4.4-.7 5.5-11.3.4-24.7-11.6-30-6.4-2.8-13.5-2.7-19.6-.2-1.6-3.9-3.9-6.3-6.4-6.4-3.4-.1-6.6 3.9-8.7 10.2h-47.9C266.5 5.7 259.1 0 250.2 0c-6.3 0-11.8 2.8-15.4 7.2-13-2.9-30.9-4.7-50.8-4.7-19.6 0-37.3 1.7-50.3 4.5-3.5-4.3-9.1-7.1-15.3-7.1-8.9 0-16.4 5.7-18.6 13.5H52c-2.1-6.3-5.2-10.3-8.7-10.2-2.6.1-4.8 2.5-6.4 6.4-6-2.5-13.1-2.6-19.6.2C5.4 15.1.2 28.6 5.8 39.9c.1.2.2.5.4.7-3.3 1.7-5.2 3.8-5.1 6 .1 3.6 5.6 6.5 13.6 7.8v87.4c-6.5 2.9-11 9.2-11 16.6 0 5.9 2.9 11.1 7.5 14.5-3 12.3-4.8 29.1-4.8 47.7 0 18.8 1.9 35.9 4.9 48.2-4.6 3.3-7.6 8.6-7.6 14.6 0 7.3 4.5 13.6 11 16.6v89C6 390.8 0 394.3.1 398.2c.1 2.4 2.6 4.5 6.7 6.1-2.6 5.7-2.8 12.5.2 18.6 5.5 11.3 19.7 16.2 31.6 11 .2-.1.5-.2.7-.3 1.8 3.1 4 5 6.3 4.9 3.3-.1 6.1-4.1 7.6-10.1h46.9c2.5 7.3 9.8 12.7 18.4 12.7 6.2 0 11.7-2.8 15.3-7.1 12.9 2.8 30.7 4.5 50.3 4.5 19.8 0 37.8-1.8 50.8-4.6 3.5 4.4 9.1 7.2 15.4 7.2 8.6 0 15.9-5.3 18.4-12.7h46.9c1.6 6 4.4 10 7.6 10.1 2.3.1 4.5-1.7 6.3-4.9.2.1.5.2.7.3 11.9 5.3 26.1.4 31.6-11 3-6.1 2.9-12.8.2-18.6 4-1.6 6.5-3.7 6.6-6.1zm-40.6-7.6c0 7.8-6.6 14-14.8 14H55.4c-8.2 0-14.8-6.3-14.8-14V50.2c0-7.8 6.6-14 14.8-14h257.7c8.2 0 14.8 6.3 14.8 14v340.4z"/>
    <path fill="#442512"
          d="M368.6 398.2c.2-3.8-5.8-7.3-14.6-9.2v-88.4c7.5-2.5 12.8-9.3 12.8-17.3 0-5.9-3-11.2-7.6-14.6 3-12.3 4.9-29.3 4.9-48.2 0-18.6-1.8-35.4-4.8-47.7 4.6-3.4 7.5-8.6 7.5-14.5 0-8-5.3-14.7-12.8-17.3V54.4c8-1.3 13.4-4.3 13.6-7.8.1-2.2-1.8-4.3-5.1-6 .1-.2.2-.4.4-.7 3.9-7.9 2.5-16.9-2.8-23.4-2.9 3.4-5.8 6.8-8.8 10-7.5 8.1-15.3 15.9-23.3 23.6v340.5c0 7.8-6.6 14-14.8 14H55.4c-4 0-7.7-1.5-10.4-4-5.5 6.2-11.1 12.4-16.7 18.4-4.1 4.5-8.3 8.9-12.5 13.3 6.6 3.9 15.1 4.7 22.7 1.4.2-.1.5-.2.7-.3 1.8 3.1 4 5 6.3 4.9 3.3-.1 6.1-4.1 7.6-10.1H100c2.5 7.3 9.8 12.7 18.4 12.7 6.2 0 11.7-2.8 15.3-7.1 12.9 2.8 30.7 4.5 50.3 4.5 19.8 0 37.8-1.8 50.8-4.6 3.5 4.4 9.1 7.2 15.4 7.2 8.6 0 15.9-5.3 18.4-12.7h46.9c1.6 6 4.4 10 7.6 10.1 2.3.1 4.5-1.7 6.3-4.9.2.1.5.2.7.3 11.9 5.3 26.1.4 31.6-11 3-6.1 2.9-12.8.2-18.6 4.1-1.4 6.6-3.5 6.7-5.9z"/>
  </g>
  <g>
    <path fill="#ED69AB"
          d="M190.2 202.7l-16.8 3.2-2.7 8 21.9-4.3zM182.2 180.2l-5.8 17 11.1-2.1zM154.7 260.7l55.9-.2-5-14.1-49.3 9.4zM159.3 247.1l43.6-8.3-2.4-7-38.5 7.4zM167.7 222.6l-2.7 7.9 32.8-6.3-2.5-6.9z"/>
    <path fill="#F3AF19"
          d="M187.5 195.1l-11.1 2.1-3 8.7 16.8-3.2zM192.6 209.6l-21.9 4.3-3 8.7 27.6-5.3zM162 239.2l38.5-7.4-2.7-7.6-32.8 6.3zM156.3 255.8l49.3-9.4-2.7-7.6-43.6 8.3z"/>
    <path fill="#C64327" d="M182.2 179.9s-5.2-12.2 1.2-21.1l6.1 3.3c.1 0-6.6 1.8-7.3 17.8"/>
    <path fill="#F9B547" d="M182 179.4s.1-13.2 9.6-18.8l4.3 5.5s-7.5-1.5-13.6 14.1"/>
    <path fill="#979241" d="M182.2 180.5s1.4-14.2-9.2-19.9l-4.3 5.5s7.4-1.2 13.5 14.4"/>
  </g>
  <g>
    <defs>
      <path id="c"
            d="M779.7 390.6c0 7.8-6.6 14-14.8 14H507.1c-8.2 0-14.8-6.3-14.8-14V50.2c0-7.8 6.6-14 14.8-14h257.7c8.2 0 14.8 6.3 14.8 14v340.4z"/>
    </defs>
    <clipPath id="d">
      <use overflow="visible" xlink:href="#c"/>
    </clipPath>
    <g clip-path="url(#d)">
      <path fill="#351B10"
            d="M235.6 343.2c-55.9 16.8-20.3 81.9-4.4 117.3 9.8 22.7 21.1 43.4 24.6 69.2 2.8 32.6 9.5 46.4 30.8 71.3 20-52.9-19.6-86-43.9-127.8-18.1-31.8-58.3-111.6-9.7-132.7M388.1 316.2s120.8 57.3 63.5 185.9l-44.3 68 49.4 37.9-25 12.2-76.3-51.9-15.9-65.8"/>
      <path fill="#542916"
            d="M246.6 466.9c38.2 65.7 103.1 99.3 145.1 74.9 42-24.4 45-97.4 6.8-163.1-38.2-65.7-103.1-99.3-145.1-74.9-41.9 24.3-44.9 97.3-6.8 163.1z"/>
      <path fill="#542916"
            d="M404.7 117.2c-11.1 79.9-107.5 187.9-177.8 228.2 21.4 43.9 107.7 32.5 133.9 69.4 5.7 9.7-13.1 143-5.9 147.6 37.3 17.6 120.9-67.6 151.1-84.8 115.3-70.3 222.6-9.9 180.4-163.8"/>
      <path fill="#542916" stroke="#A55325" stroke-miterlimit="10" stroke-width="6.0427"
            d="M356.4 331.6s120.8 57.3 63.5 185.9l-44.3 68 49.4 37.9-25 12.2-76.3-51.9-15.9-65.8"/>
    </g>
  </g>
</svg>
