<svg  xmlns="http://www.w3.org/2000/svg" viewBox="0 0 368.6 440.9">
  <path fill="#9B7046" d="M28.3 16.5h310.6v400.3H28.3z"/>
  <path fill="#9B8046"
        d="M124 104.2c0-4.8-2.6-8.7-5.9-8.7-3.3 0-5.9 3.9-5.9 8.7v293.7c0 4.8 2.7 8.7 5.9 8.7 3.3 0 5.9-3.9 5.9-8.7V104.2zM109.2 241c0-2.6-2.6-4.8-5.9-4.8-3.3 0-5.9 2.1-5.9 4.8v160.9c0 2.6 2.7 4.8 5.9 4.8 3.3 0 5.9-2.1 5.9-4.8V241zM94.4 202c0-3.3-2.6-5.9-5.9-5.9-3.3 0-5.9 2.6-5.9 5.9v198.7c0 3.3 2.6 5.9 5.9 5.9 3.3 0 5.9-2.6 5.9-5.9V202zM79.6 168c0-3.8-2.6-6.9-5.9-6.9-3.3 0-5.9 3.1-5.9 6.9v231.7c0 3.8 2.6 6.9 5.9 6.9 3.3 0 5.9-3.1 5.9-6.9V168zM64.8 104.2c0-4.8-2.7-8.7-5.9-8.7-3.3 0-5.9 3.9-5.9 8.7v293.7c0 4.8 2.6 8.7 5.9 8.7 3.3 0 5.9-3.9 5.9-8.7V104.2zM50 202c0-3.3-2.7-5.9-5.9-5.9-3.3 0-5.9 2.6-5.9 5.9v198.7c0 3.3 2.6 5.9 5.9 5.9 3.3 0 5.9-2.6 5.9-5.9V202zM331.1 202c0-3.3-2.6-5.9-5.9-5.9-3.3 0-5.9 2.6-5.9 5.9v198.7c0 3.3 2.6 5.9 5.9 5.9 3.3 0 5.9-2.6 5.9-5.9V202zM316.3 104.2c0-4.8-2.6-8.7-5.9-8.7-3.3 0-5.9 3.9-5.9 8.7v293.7c0 4.8 2.6 8.7 5.9 8.7 3.3 0 5.9-3.9 5.9-8.7V104.2zM301.5 168c0-3.8-2.6-6.9-5.9-6.9-3.3 0-5.9 3.1-5.9 6.9v231.7c0 3.8 2.7 6.9 5.9 6.9 3.3 0 5.9-3.1 5.9-6.9V168zM286.7 241c0-2.6-2.7-4.8-5.9-4.8-3.3 0-5.9 2.1-5.9 4.8v160.9c0 2.6 2.7 4.8 5.9 4.8 3.3 0 5.9-2.1 5.9-4.8V241zM271.9 104.2c0-4.8-2.7-8.7-5.9-8.7-3.3 0-5.9 3.9-5.9 8.7v293.7c0 4.8 2.6 8.7 5.9 8.7 3.3 0 5.9-3.9 5.9-8.7V104.2zM257.1 168c0-3.8-2.6-6.9-5.9-6.9-3.3 0-5.9 3.1-5.9 6.9v231.7c0 3.8 2.6 6.9 5.9 6.9 3.3 0 5.9-3.1 5.9-6.9V168zM242.3 202c0-3.3-2.7-5.9-5.9-5.9-3.3 0-5.9 2.6-5.9 5.9v198.7c0 3.3 2.6 5.9 5.9 5.9 3.3 0 5.9-2.6 5.9-5.9V202zM212.7 104.2c0-4.8-2.6-8.7-5.9-8.7-3.3 0-5.9 3.9-5.9 8.7v293.7c0 4.8 2.6 8.7 5.9 8.7 3.3 0 5.9-3.9 5.9-8.7V104.2zM197.9 241c0-2.6-2.7-4.8-5.9-4.8-3.3 0-5.9 2.1-5.9 4.8v160.9c0 2.6 2.7 4.8 5.9 4.8 3.3 0 5.9-2.1 5.9-4.8V241zM183.1 168c0-3.8-2.7-6.9-5.9-6.9-3.3 0-5.9 3.1-5.9 6.9v231.7c0 3.8 2.6 6.9 5.9 6.9 3.3 0 5.9-3.1 5.9-6.9V168zM168.3 202c0-3.3-2.6-5.9-5.9-5.9-3.3 0-5.9 2.6-5.9 5.9v198.7c0 3.3 2.6 5.9 5.9 5.9 3.3 0 5.9-2.6 5.9-5.9V202zM153.5 104.2c0-4.8-2.6-8.7-5.9-8.7-3.3 0-5.9 3.9-5.9 8.7v293.7c0 4.8 2.7 8.7 5.9 8.7 3.3 0 5.9-3.9 5.9-8.7V104.2zM138.7 168c0-3.8-2.6-6.9-5.9-6.9-3.3 0-5.9 3.1-5.9 6.9v231.7c0 3.8 2.6 6.9 5.9 6.9 3.3 0 5.9-3.1 5.9-6.9V168z"/>
  <defs>
    <path id="a"
          d="M328 390.6c0 7.8-6.6 14-14.8 14H55.4c-8.2 0-14.8-6.3-14.8-14V50.2c0-7.8 6.6-14 14.8-14h257.7c8.2 0 14.8 6.3 14.8 14v340.4z"/>
  </defs>
  <clipPath id="b">
    <use overflow="visible" xlink:href="#a"/>
  </clipPath>
  <g clip-path="url(#b)">
    <path fill="#351B10"
          d="M92.8 292.1l47 252.3 27.9-12.6-3.7-271.6M-63.5 316.2S57.3 373.5 0 502.1l-44.3 68L5 607.9l-25 12.2-76.3-51.9-15.9-65.8"/>
    <path fill="#542916"
          d="M-46.9 117.2C-58 197.1-154.4 305.1-224.7 345.4c21.4 43.9 107.7 32.5 133.9 69.4 5.7 9.7-13.1 143-5.9 147.6 37.3 17.6 120.9-67.6 151.1-84.8 115.3-70.3 222.6-9.9 180.4-163.8"/>
    <path fill="#895322"
          d="M-51.9 63.1l2.5-2.5c-.2-1.6-.3-3.2-.1-4.8C-48.4 45-38.7 37.2-28 38.4c2.8.3 5.4 1.2 7.7 2.5 22.4-11.2 48-17.6 63.9-17.1 34.6 1.1 66.1 17.3 91.2 43.7.8 0 1.6.1 2.4.1 15 1.6 25.9 15 24.3 30.1v.2c1.9-.8 4-1.2 6.1-1 6.7.7 11.6 6.7 10.9 13.5-.5 4.9-3.8 8.7-8.2 10.3 16 34.4 24.7 75.6 23.3 119.7-2.9 91-48.2 167.1-109.1 195-3.9 1.8-8.7.9-13.8-1.5-2.6.7-5.4 1-8.2.7-12-1.3-20.6-12-19.4-23.9 0-.3.1-.6.2-1-3.6-4.5-6.3-8.7-7.5-11.5-12.6-29.1-9.9-70.7-4.1-100.9 9.5-49.1 6.3-84.2-14.6-114.5-1.5.1-3 .1-4.6 0-13.5-1.4-23.3-13.5-21.8-27 0-.5.1-.9.2-1.3-7.3-6.3-15.6-12.4-24.9-18.6-4.1-2.7-8.4-5.7-12.1-8.6h-.4c-17.9-1.9-30.9-18-29.1-35.9 1.6-14 11.3-24.8 23.7-28.3z"/>
    <path fill="#351B10"
          d="M180.5 158.6c-7.8 10.4-69.7 30.7-34.4 45.7 11.7 5.3 28.4 6.9 34.8-6.4 4.9-9.1-.6-26 7.5-32.8"/>
    <path fill="#542916"
          d="M180.5 158.6l7.9 6.5c-.9.8-1.6 1.7-2.2 2.6-12.2 10.4-21.4 25.2-23.4 40.4-5.7 0-11.7-1.6-16.7-3.9-35.3-15 26.6-35.2 34.4-45.6z"/>
    <path fill="#351B10"
          d="M261.4 165.7c8.2 6.7 2.9 23.7 7.9 32.7 6.6 13.2 23.3 11.5 34.9 6.1 35.1-15.4-27-35-34.9-45.4"/>
    <path fill="#542916"
          d="M304.2 204.5c-5 2.3-11 4-16.7 4.1-2.2-15.2-11.6-29.9-23.9-40.2-.6-1-1.3-1.9-2.3-2.6l7.9-6.6c8 10.2 70 29.8 35 45.3z"/>
    <path fill="#351B10"
          d="M256.9 302.2c.7 2 1 8.3 2.4 11.6 3.6 10.8 13 14.9 20.2 22-8.4 4.2-21.7-7.3-30.4-4.5.5 3.7 4.3 7.2 6.6 9-10.5-.2-23.5-9.5-32.1-18.9-16.4-17.8-2.7-17 8.6-23.1"/>
    <path fill="#542916" d="M189.2 308.9l85.1-3.1-4.9-162.2-94.6.9"/>
    <path fill="#895322"
          d="M147.9 140.3c-14.6-15.8-27-46.2-3.6-59.1 32.3-16.2 67 9.2 88.8 26 11.7 8.9 70 53.1 31.8 55.4-18.6 2-33.4-15.4-52-7.9-5.8 2.3-11.2 5.7-17.2 7.8-5.3 1.8-10.9 2.5-16.5 2.1-10.4-.8-21-6.4-24.8-16.1"/>
    <path fill="#D8CABF"
          d="M270 191.7c-5.1-14.6 2.6-30.2 2.6-30.2 25.1 5.1 27.6-33.8 27.6-33.8 28.1 65.2-30.2 64-30.2 64z"/>
    <path fill="#884323"
          d="M274 305.8c.2-9.4-3.7-20.5-11.6-25.4-4.3-3.4-14.4-5.9-18.9-2.2-5.7 4.3-1.9 11.8-1.1 17.7-10.5 2.8-21.7 2.6-26 12.2l57.6-2.3z"/>
    <path fill="#542916"
          d="M238.4 298.9c3 1.1 13.8 6.5 17.3 5.2 9.8-5.1-3-15.8-8.4-17.9 2.5 2.8 4.4 6.3 4.6 10.4-4.7 1.9-10.1-1.9-14.3-3.5"/>
    <path fill="#D8CABF"
          d="M215.4 206.4c-4.8-3.2-11.3-1.8-14.7 3.1-3.4 4.9-2.3 11.6 2.5 14.8 4.7 3.2 11.3 1.8 14.7-3.1 3.4-4.9 2.2-11.6-2.5-14.8z"/>
    <path d="M204.2 212.5c-1.6-1.1-3.9-.7-5 1-1.1 1.6-.7 3.9.9 5s3.9.7 5-1c1.2-1.6.7-3.9-.9-5z"/>
    <g>
      <path fill="#D8CABF"
            d="M256.6 212.7c-4.8-2-11.3-1.2-14.6 1.6-3.3 2.8-2.1 6.7 2.7 8.7 4.8 2 11.4 1.2 14.6-1.6 3.3-2.8 2.1-6.7-2.7-8.7z"/>
      <path d="M246.9 214c-1.6-1.1-3.9-.7-5 1-1.1 1.6-.7 3.9.9 5s3.9.7 5-1c1.2-1.7.8-3.9-.9-5z"/>
    </g>
    <g>
      <path fill="#D8CABF" d="M147.2 130.9s3.1 38.9 28.1 33.4c0 0 7.9 15.6 3 30.2 0 0-58.2 1.9-31.1-63.6z"/>
    </g>
    <ellipse cx="195.9" cy="92.6" fill="#895322" rx="21.7" ry="21.7"
             transform="matrix(.0453 -.999 .999 .0453 94.5034 284.0596)"/>
    <ellipse cx="226.4" cy="101.3" fill="#895322" rx="11.5" ry="11.5"
             transform="matrix(.0453 -.999 .999 .0453 114.941 322.9193)"/>
    <g>
      <path fill="#7B4B1F"
            d="M127.1 378.6c24.4 1.4-42.8 18.6-38.3-7-6.5 5.8-17 4.1-19.7-3.8-2.8-7.4 2.3-15.7 5.7-20.7-17.4-3.6-12.4-17.3-6-27.8-22.2-13.6 1.2-38.9 15.9-44.5.1-.1-18.9 100.2 42.4 103.8z"/>
    </g>
    <g>
      <path fill="#7B4B1F"
            d="M111.5 90.9c-1.2-5.4-5.4-15.9-11.4-9.5-1.2-5.5-8-8.5-12.6-4.3-3.7-9.9-20.9-21.1-25.9-6.9-4-18.2-29.5-12-39.1-5.3-1.9 1.6-2.8 4.4-4.8 6-1.9 1.6-5.9-.6-7.9 2.1-3.3 3.2-3.1 6.8-1.2 11.1"/>
    </g>
    <g>
      <path fill="#7B4B1F"
            d="M27.5 134.4c-5.6-8.3-19.7 2.1-10 10.8-3.3 3.2-4.4 8.4-1.3 12.3-4.5 3.7-2.1 14.6 1.1 17.8 6 4.8 24.4 4.3 32 5.1"/>
    </g>
    <path fill="none" stroke="#000" stroke-miterlimit="10" stroke-width="2.1868"
          d="M230.8 266.6c-1.2-3.9-5.8-5.9-9.9-5.4s-7.6 2.7-11 5c-3.4 2.3-6.8 4.7-10.7 5.6-7.6 1.7-17.1-3.3-17.6-11.6-.3-4.3 2.9-8.9 7.2-9.3 4.3-.4 8.5 4.4 6.9 8.4"/>
    <path fill="#351B10"
          d="M210 188.9c-14.5-.6-26.7 10.7-27.2 25.2-.6 14.5 10.7 26.7 25.2 27.2 14.5.6 26.7-10.7 27.2-25.2.6-14.5-10.7-26.7-25.2-27.2zm-1.7 43.9c-9.8-.4-17.4-8.6-17.1-18.4.4-9.8 8.6-17.4 18.4-17.1 9.8.4 17.4 8.6 17.1 18.4-.3 9.9-8.6 17.5-18.4 17.1z"/>
    <g fill="#84CFF4">
      <path
        d="M198.8 229.6c2.7 1.9 6 3.1 9.6 3.3 9.8.4 18.1-7.3 18.4-17.1.1-3.6-.8-6.9-2.5-9.8l-25.5 23.6zM209.7 197.3c-9.8-.4-18.1 7.3-18.4 17.1-.2 3.9 1 7.5 3 10.5l25.7-23.8c-2.9-2.2-6.4-3.6-10.3-3.8z"
        opacity=".5"/>
      <path d="M220 201.1l-25.7 23.8c1.2 1.8 2.7 3.4 4.5 4.6l25.5-23.6c-1.2-1.8-2.6-3.4-4.3-4.8z" opacity=".8"/>
    </g>
    <path fill="none" stroke="#000" stroke-miterlimit="10" stroke-width="2.1868"
          d="M239.5 263.3c1.5-3.8 6.3-5.4 10.3-4.6 4 .7 7.4 3.3 10.6 5.8s6.4 5.3 10.3 6.5c7.4 2.3 17.3-2 18.5-10.2.6-4.3-2.2-9.1-6.4-9.9-4.3-.8-8.9 3.7-7.5 7.8"/>
    <path fill="#542916" d="M238.2 205.8H264"/>
    <path fill="#F3AF19"
          d="M188.8 187.9c-2.4-.1-4.4 1.8-4.5 4.1-.1 2.4 1.8 4.4 4.1 4.5s4.4-1.8 4.5-4.1c.1-2.4-1.7-4.4-4.1-4.5zm-.3 6.9c-1.5-.1-2.6-1.3-2.5-2.7.1-1.5 1.3-2.6 2.7-2.5 1.5.1 2.6 1.3 2.5 2.7 0 1.5-1.2 2.6-2.7 2.5z"/>
  </g>
  <g>
    <path fill="#502D14"
          d="M368.6 398.2c.2-3.8-5.8-7.3-14.6-9.2v-88.4c7.5-2.5 12.8-9.3 12.8-17.3 0-5.9-3-11.2-7.6-14.6 3-12.3 4.9-29.3 4.9-48.2 0-18.6-1.8-35.4-4.8-47.7 4.6-3.4 7.5-8.6 7.5-14.5 0-8-5.3-14.7-12.8-17.3V54.4c8-1.3 13.4-4.3 13.6-7.8.1-2.2-1.8-4.3-5.1-6 .1-.2.2-.4.4-.7 5.5-11.3.4-24.7-11.6-30-6.4-2.8-13.5-2.7-19.6-.2-1.6-3.9-3.9-6.3-6.4-6.4-3.4-.1-6.6 3.9-8.7 10.2h-47.9C266.5 5.7 259.1 0 250.2 0c-6.3 0-11.8 2.8-15.4 7.2-13-2.9-30.9-4.7-50.8-4.7-19.6 0-37.3 1.7-50.3 4.5-3.5-4.3-9.1-7.1-15.3-7.1-8.9 0-16.4 5.7-18.6 13.5H52c-2.1-6.3-5.2-10.3-8.7-10.2-2.6.1-4.8 2.5-6.4 6.4-6-2.5-13.1-2.6-19.6.2C5.4 15.1.2 28.6 5.8 39.9c.1.2.2.5.4.7-3.3 1.7-5.2 3.8-5.1 6 .1 3.6 5.6 6.5 13.6 7.8v87.4c-6.5 2.9-11 9.2-11 16.6 0 5.9 2.9 11.1 7.5 14.5-3 12.3-4.8 29.1-4.8 47.7 0 18.8 1.9 35.9 4.9 48.2-4.6 3.3-7.6 8.6-7.6 14.6 0 7.3 4.5 13.6 11 16.6v89C6 390.8 0 394.3.1 398.2c.1 2.4 2.6 4.5 6.7 6.1-2.6 5.7-2.8 12.5.2 18.6 5.5 11.3 19.7 16.2 31.6 11 .2-.1.5-.2.7-.3 1.8 3.1 4 5 6.3 4.9 3.3-.1 6.1-4.1 7.6-10.1h46.9c2.5 7.3 9.8 12.7 18.4 12.7 6.2 0 11.7-2.8 15.3-7.1 12.9 2.8 30.7 4.5 50.3 4.5 19.8 0 37.8-1.8 50.8-4.6 3.5 4.4 9.1 7.2 15.4 7.2 8.6 0 15.9-5.3 18.4-12.7h46.9c1.6 6 4.4 10 7.6 10.1 2.3.1 4.5-1.7 6.3-4.9.2.1.5.2.7.3 11.9 5.3 26.1.4 31.6-11 3-6.1 2.9-12.8.2-18.6 4-1.6 6.5-3.7 6.6-6.1zm-40.6-7.6c0 7.8-6.6 14-14.8 14H55.4c-8.2 0-14.8-6.3-14.8-14V50.2c0-7.8 6.6-14 14.8-14h257.7c8.2 0 14.8 6.3 14.8 14v340.4z"/>
    <path fill="#442512"
          d="M368.6 398.2c.2-3.8-5.8-7.3-14.6-9.2v-88.4c7.5-2.5 12.8-9.3 12.8-17.3 0-5.9-3-11.2-7.6-14.6 3-12.3 4.9-29.3 4.9-48.2 0-18.6-1.8-35.4-4.8-47.7 4.6-3.4 7.5-8.6 7.5-14.5 0-8-5.3-14.7-12.8-17.3V54.4c8-1.3 13.4-4.3 13.6-7.8.1-2.2-1.8-4.3-5.1-6 .1-.2.2-.4.4-.7 3.9-7.9 2.5-16.9-2.8-23.4-2.9 3.4-5.8 6.8-8.8 10-7.5 8.1-15.3 15.9-23.3 23.6v340.5c0 7.8-6.6 14-14.8 14H55.4c-4 0-7.7-1.5-10.4-4-5.5 6.2-11.1 12.4-16.7 18.4-4.1 4.5-8.3 8.9-12.5 13.3 6.6 3.9 15.1 4.7 22.7 1.4.2-.1.5-.2.7-.3 1.8 3.1 4 5 6.3 4.9 3.3-.1 6.1-4.1 7.6-10.1H100c2.5 7.3 9.8 12.7 18.4 12.7 6.2 0 11.7-2.8 15.3-7.1 12.9 2.8 30.7 4.5 50.3 4.5 19.8 0 37.8-1.8 50.8-4.6 3.5 4.4 9.1 7.2 15.4 7.2 8.6 0 15.9-5.3 18.4-12.7h46.9c1.6 6 4.4 10 7.6 10.1 2.3.1 4.5-1.7 6.3-4.9.2.1.5.2.7.3 11.9 5.3 26.1.4 31.6-11 3-6.1 2.9-12.8.2-18.6 4.1-1.4 6.6-3.5 6.7-5.9z"/>
  </g>
</svg>
