<svg  xmlns="http://www.w3.org/2000/svg" viewBox="0 0 368.6 440.9">
  <path fill="#9B7046" d="M28.3 16.5h310.6v400.3H28.3z"/>
  <path fill="#9B8046"
        d="M124 104.2c0-4.8-2.6-8.7-5.9-8.7-3.3 0-5.9 3.9-5.9 8.7v293.7c0 4.8 2.7 8.7 5.9 8.7 3.3 0 5.9-3.9 5.9-8.7V104.2zM109.2 241c0-2.6-2.6-4.8-5.9-4.8-3.3 0-5.9 2.1-5.9 4.8v160.9c0 2.6 2.7 4.8 5.9 4.8 3.3 0 5.9-2.1 5.9-4.8V241zM94.4 202c0-3.3-2.6-5.9-5.9-5.9-3.3 0-5.9 2.6-5.9 5.9v198.7c0 3.3 2.6 5.9 5.9 5.9 3.3 0 5.9-2.6 5.9-5.9V202zM79.6 168c0-3.8-2.6-6.9-5.9-6.9-3.3 0-5.9 3.1-5.9 6.9v231.7c0 3.8 2.6 6.9 5.9 6.9 3.3 0 5.9-3.1 5.9-6.9V168zM64.8 104.2c0-4.8-2.7-8.7-5.9-8.7-3.3 0-5.9 3.9-5.9 8.7v293.7c0 4.8 2.6 8.7 5.9 8.7 3.3 0 5.9-3.9 5.9-8.7V104.2zM50 202c0-3.3-2.7-5.9-5.9-5.9-3.3 0-5.9 2.6-5.9 5.9v198.7c0 3.3 2.6 5.9 5.9 5.9 3.3 0 5.9-2.6 5.9-5.9V202zM331.1 202c0-3.3-2.6-5.9-5.9-5.9-3.3 0-5.9 2.6-5.9 5.9v198.7c0 3.3 2.6 5.9 5.9 5.9 3.3 0 5.9-2.6 5.9-5.9V202zM316.3 104.2c0-4.8-2.6-8.7-5.9-8.7-3.3 0-5.9 3.9-5.9 8.7v293.7c0 4.8 2.6 8.7 5.9 8.7 3.3 0 5.9-3.9 5.9-8.7V104.2zM301.5 168c0-3.8-2.6-6.9-5.9-6.9-3.3 0-5.9 3.1-5.9 6.9v231.7c0 3.8 2.7 6.9 5.9 6.9 3.3 0 5.9-3.1 5.9-6.9V168zM286.7 241c0-2.6-2.7-4.8-5.9-4.8-3.3 0-5.9 2.1-5.9 4.8v160.9c0 2.6 2.7 4.8 5.9 4.8 3.3 0 5.9-2.1 5.9-4.8V241zM271.9 104.2c0-4.8-2.7-8.7-5.9-8.7-3.3 0-5.9 3.9-5.9 8.7v293.7c0 4.8 2.6 8.7 5.9 8.7 3.3 0 5.9-3.9 5.9-8.7V104.2zM257.1 168c0-3.8-2.6-6.9-5.9-6.9-3.3 0-5.9 3.1-5.9 6.9v231.7c0 3.8 2.6 6.9 5.9 6.9 3.3 0 5.9-3.1 5.9-6.9V168zM242.3 202c0-3.3-2.7-5.9-5.9-5.9-3.3 0-5.9 2.6-5.9 5.9v198.7c0 3.3 2.6 5.9 5.9 5.9 3.3 0 5.9-2.6 5.9-5.9V202zM212.7 104.2c0-4.8-2.6-8.7-5.9-8.7-3.3 0-5.9 3.9-5.9 8.7v293.7c0 4.8 2.6 8.7 5.9 8.7 3.3 0 5.9-3.9 5.9-8.7V104.2zM197.9 241c0-2.6-2.7-4.8-5.9-4.8-3.3 0-5.9 2.1-5.9 4.8v160.9c0 2.6 2.7 4.8 5.9 4.8 3.3 0 5.9-2.1 5.9-4.8V241zM183.1 168c0-3.8-2.7-6.9-5.9-6.9-3.3 0-5.9 3.1-5.9 6.9v231.7c0 3.8 2.6 6.9 5.9 6.9 3.3 0 5.9-3.1 5.9-6.9V168zM168.3 202c0-3.3-2.6-5.9-5.9-5.9-3.3 0-5.9 2.6-5.9 5.9v198.7c0 3.3 2.6 5.9 5.9 5.9 3.3 0 5.9-2.6 5.9-5.9V202zM153.5 104.2c0-4.8-2.6-8.7-5.9-8.7-3.3 0-5.9 3.9-5.9 8.7v293.7c0 4.8 2.7 8.7 5.9 8.7 3.3 0 5.9-3.9 5.9-8.7V104.2zM138.7 168c0-3.8-2.6-6.9-5.9-6.9-3.3 0-5.9 3.1-5.9 6.9v231.7c0 3.8 2.6 6.9 5.9 6.9 3.3 0 5.9-3.1 5.9-6.9V168z"/>
  <path fill="#93562A"
        d="M223.2 217.7S271 283 285.4 329.6c0 0 29.8-6.6 42.5-3.3l11.5 37.7-10 49.9s-162.3 8.2-162.4 1.5c-.1-6.7 0-72.5 13.7-137.6"/>
  <path fill="#A08355"
        d="M229.4 417.7c.6-3.1.7-4.3 1.1-7.3.8-6.8 1.3-13.7 1.1-20.6 0-1.9-.1-3.7-.3-5.6-.1-.8-.1-1.6-.2-2.4 0-.2-.2-1.5-.2-1.6-.4-2.8-.8-5.6-1.5-8.3-.7-3.2-1.6-6.3-2.8-9.4-.1-.2-.5-1.1-.5-1.4-.2-.5-.4-.9-.6-1.4-.6-1.4-1.3-2.7-2-4-.8-1.5-1.7-3.1-2.6-4.5-.4-.6-.8-1.3-1.2-1.9-.1-.1-.8-1.1-.9-1.2-1.7-2.3-3.6-4.4-5.6-6.4-4.8-4.8-8.6-8.1-15.5-11.5-.3-.1-.5-.3-.8-.4-.1 0-.3-.1-.6-.2-.7-.3-1.5-.6-2.2-.8-1.5-.5-3.1-.9-4.7-1.2-.5-.1-1.1-.2-1.6-.3-.2 0-1.5-.2-1.6-.2-1.6-.1-3.2-.2-4.9-.2-1.1 0-2.2.1-3.2.2h-.4c-.1 0-.3 0-.5.1-1.5.3-3.1.6-4.6 1h-.1c-5.5 45.2-5.6 82.3-5.5 87.2.2 2.8 29 3 62.4 2.3z"/>
  <path fill="#643B1D"
        d="M221.8 209.3c6.1-3.2 13.2-3.9 19.9-4.7 7.4-.9 14.9-1.7 21.8-4.6 11.5-4.7 16.8-16.5 18.6-28.1 2-12.1 1.3-25.2-3.4-36.6-2.7-6.6-6.3-12.7-9.5-19-3.2-6.4-5-12.9-5.5-20.1-.5-7 0-13.9 2.3-20.5 2.4-7 7.2-12.9 12.7-17.8 4-3.6-1.9-9.5-5.9-5.9-10.5 9.3-16.5 21.3-17.5 35.3-.5 7 .1 14.4 1.9 21.2 1.8 6.9 5.3 13.2 8.6 19.5 3.3 6.2 6.4 12.4 7.8 19.4 1.1 5.3 1.1 11 .9 16.4-.5 10.1-3.1 22.7-12.8 27.9-6.4 3.5-14.8 3.9-21.9 4.8-7.7.9-15.4 2-22.4 5.6-4.6 2.5-.3 9.7 4.4 7.2z"/>
  <path fill="#643B1D"
        d="M255.7 201.3c4.6-3 8.7-7 11.3-11.8 2.4-4.5 2.2-9.6.1-14.2-4.1-8.9-12.8-14.6-19.7-21.1-7.4-6.9-14.7-14.6-20-23.2-2.5-4-4.4-8.5-4.6-13.3-.3-5.5 2.3-10.4 5.9-14.4 3.6-4-2.3-9.9-5.9-5.9-7.7 8.5-10.4 19.1-6.5 30 3.7 10.2 11.3 18.6 18.6 26.2 3.1 3.3 6.3 6.5 9.7 9.5 3.7 3.2 7.4 6.3 10.8 9.9 2.7 2.9 5.2 6.4 5 10.5-.1 2-2 4.2-3.2 5.6-1.6 1.9-3.6 3.6-5.7 5-4.5 2.9-.3 10.2 4.2 7.2z"/>
  <path fill="#643B1D"
        d="M249.5 156.8c-6.2-5.5-13.8-8.3-22-9.3-4.8-.6-10.2-.4-14.5-1.1-4.6-.8-9.3-2-13.3-4.4-1-.6-1.1-.7-1.9-1.5-.9-.9.3.6-.3-.4-.1-.2-.3-.4-.4-.7.2.4.2.4 0 0-.3-1.1 0 .8-.1-.4 0-.6-.1.1.1-.9.2-.7 1-1.8 1.7-2.6 3.6-4-2.3-10-5.9-5.9-3.8 4.3-6.2 10.3-2.3 15.3 3.5 4.5 9.1 6.7 14.4 8.2 12.8 3.6 27.7 0 38.5 9.5 4.2 3.7 10.1-2.2 6-5.8zM280.3 138.1c-.9-3.5 0-4.7 2.6-6.9 3.3-2.7 6.7-5.3 9.7-8.4 3.2-3.3 6.3-7.6 6.8-12.3.5-5.1-2-8.8-3.5-13.4-1.7-5.1-9.8-2.9-8.1 2.2 1.3 3.8 4.2 7.5 2.9 11.6-1.2 4-5.2 7.3-8.3 9.9-3 2.5-6.4 4.7-8.7 7.8-2.6 3.4-2.5 7.6-1.5 11.6 1.3 5.4 9.4 3.2 8.1-2.1zM143 202.1c-13-6.9-28.4-4.6-42.1-9.5-10.7-3.9-14-16.6-14.8-26.7-.5-5.3-.4-10.8.3-16.1 1-7 3.8-13.3 7-19.5 3.3-6.3 6.7-12.5 9.1-19.2 2.3-6.7 2.9-14.2 2.8-21.3-.3-14.9-6.6-28-17.7-37.8-4-3.6-10 2.3-5.9 5.9 5.1 4.5 9.2 9.7 12 15.9 2.5 5.7 3.2 12.1 3.2 18.2 0 7-1.2 13.9-3.9 20.4-2.7 6.4-6.4 12.4-9.4 18.8-5.5 11.5-7 24.1-5.7 36.7 1.2 11.5 5.2 23.8 15.5 30.3 13.6 8.6 31.4 3.7 45.4 11.1 4.7 2.5 9-4.7 4.2-7.2z"/>
  <path fill="#643B1D"
        d="M109.1 194.1c-3.3-2.2-8.4-6.4-8.9-10.6-.4-4 2.5-7.7 5-10.5 3.2-3.6 7.1-6.7 10.8-9.9 3.4-3 6.6-6.2 9.7-9.5 7.5-7.7 14.7-16.1 18.6-26.2 4.2-10.8 1.1-21.7-6.5-30-3.6-4-9.5 1.9-5.9 5.9 3.5 3.9 5.9 8.4 6 13.7.1 4.8-1.9 9.3-4.2 13.4-5.1 9-13 16.8-20.4 23.9-6.8 6.5-15.2 11.8-19.5 20.5-2.2 4.5-2.7 9.5-.5 14.1 2.5 5.1 6.9 9.4 11.6 12.5 4.5 2.9 8.7-4.4 4.2-7.3z"/>
  <path fill="#643B1D"
        d="M117 162.7c10.5-9.3 25.3-6.1 37.9-9.4 5-1.3 10.8-3.4 14.3-7.5 4.4-5.3 2.6-11.4-1.6-16.2-3.6-4-9.5 1.9-5.9 5.9.6.6 1.5 1.9 1.6 2.2.2.4.3.8.3 1.2-.2-1-.2 1.2 0 .1 0 .2-.5 1.2-.1.4-.1.2-.9 1.3-.4.7-.8.9-1.1 1.1-1.8 1.6-3.8 2.6-8.6 3.7-13.2 4.5-4.3.8-9.3.6-14.2 1.1-8.4.9-16.4 3.7-22.8 9.4-4.1 3.7 1.8 9.6 5.9 6zM88.4 140.3c1-3.8 1.1-7.8-1.2-11.2-2.1-3.2-5.6-5.3-8.5-7.7-3.4-2.9-6.7-5.8-8.7-9.8-2-4 1.5-8.5 2.7-12.2 1.7-5.1-6.4-7.3-8.1-2.2-1.4 4.3-3.8 7.8-3.6 12.4.2 4.8 3.2 9.1 6.3 12.6 2.9 3.2 6.4 5.9 9.8 8.6 2.9 2.3 4.1 3.5 3.2 7.3-1.3 5.3 6.8 7.5 8.1 2.2z"/>
  <path fill="#93562A"
        d="M214.2 291.4c0 3.2-3.3 5.9-7.3 5.9h-52c-4 0-7.3-2.6-7.3-5.9L130.1 205c0-4.9 5-9 11.2-9h79.2c6.2 0 11.2 4 11.2 9l-17.5 86.4z"/>
  <path fill="#A08355"
        d="M217 296.7c0 5.2-4.2 20.7-9.4 20.7h-53.5c-5.2 0-9.4-15.5-9.4-20.7l9.8-19.3c0-6.2 12.2-39.1 14.5-39.1h23.8c2.3 0 14.5 32.9 14.5 39.1l9.7 19.3z"/>
  <path fill="#443725" d="M184.2 317h-6.7l-10.4-20.5h27.5z"/>
  <ellipse cx="218.5" cy="240.4" fill="#443725" rx="5.9" ry="12.5"/>
  <ellipse cx="220.7" cy="237.4" fill="#FFF" rx="2.6" ry="5.8"/>
<g>
  <ellipse cx="143.7" cy="240.4" fill="#443725" rx="5.9" ry="12.5"/>
  <ellipse cx="145.9" cy="237.4" fill="#FFF" rx="2.6" ry="5.8"/>
</g>
  <path fill="#93562A"
        d="M226.4 216.2c-2.8 5.8 7.8 16.7 23.7 24.2 15.9 7.5 32.7 5.6 33.8 3.1 1-2.4-7.8-16.7-23.7-24.2-15.9-7.6-31-9-33.8-3.1z"/>
  <path fill="#A08355"
        d="M230 219.9c-1.7 3.6 4.8 10.3 14.7 15 9.8 4.7 20.2 3.5 20.9 1.9.6-1.5-4.8-10.3-14.7-15-9.9-4.7-19.2-5.5-20.9-1.9z"/>
  <path fill="#93562A"
        d="M135.7 216.2c2.8 5.8-7.8 16.7-23.7 24.2-15.9 7.5-32.7 5.6-33.8 3.1-1-2.4 7.8-16.7 23.7-24.2 15.9-7.6 31-9 33.8-3.1z"/>
  <path fill="#A08355"
        d="M132.1 219.9c1.7 3.6-4.8 10.3-14.7 15-9.8 4.7-20.2 3.5-20.9 1.9-.6-1.5 4.8-10.3 14.7-15s19.2-5.5 20.9-1.9z"/>
<g>
  <path fill="#502D14"
        d="M368.6 398.2c.2-3.8-5.8-7.3-14.6-9.2v-88.4c7.5-2.5 12.8-9.3 12.8-17.3 0-5.9-3-11.2-7.6-14.6 3-12.3 4.9-29.3 4.9-48.2 0-18.6-1.8-35.4-4.8-47.7 4.6-3.4 7.5-8.6 7.5-14.5 0-8-5.3-14.7-12.8-17.3V54.4c8-1.3 13.4-4.3 13.6-7.8.1-2.2-1.8-4.3-5.1-6 .1-.2.2-.4.4-.7 5.5-11.3.4-24.7-11.6-30-6.4-2.8-13.5-2.7-19.6-.2-1.6-3.9-3.9-6.3-6.4-6.4-3.4-.1-6.6 3.9-8.7 10.2h-47.9C266.5 5.7 259.1 0 250.2 0c-6.3 0-11.8 2.8-15.4 7.2-13-2.9-30.9-4.7-50.8-4.7-19.6 0-37.3 1.7-50.3 4.5-3.5-4.3-9.1-7.1-15.3-7.1-8.9 0-16.4 5.7-18.6 13.5H52c-2.1-6.3-5.2-10.3-8.7-10.2-2.6.1-4.8 2.5-6.4 6.4-6-2.5-13.1-2.6-19.6.2C5.4 15.1.2 28.6 5.8 39.9c.1.2.2.5.4.7-3.3 1.7-5.2 3.8-5.1 6 .1 3.6 5.6 6.5 13.6 7.8v87.4c-6.5 2.9-11 9.2-11 16.6 0 5.9 2.9 11.1 7.5 14.5-3 12.3-4.8 29.1-4.8 47.7 0 18.8 1.9 35.9 4.9 48.2-4.6 3.3-7.6 8.6-7.6 14.6 0 7.3 4.5 13.6 11 16.6v89C6 390.8 0 394.3.1 398.2c.1 2.4 2.6 4.5 6.7 6.1-2.6 5.7-2.8 12.5.2 18.6 5.5 11.3 19.7 16.2 31.6 11 .2-.1.5-.2.7-.3 1.8 3.1 4 5 6.3 4.9 3.3-.1 6.1-4.1 7.6-10.1h46.9c2.5 7.3 9.8 12.7 18.4 12.7 6.2 0 11.7-2.8 15.3-7.1 12.9 2.8 30.7 4.5 50.3 4.5 19.8 0 37.8-1.8 50.8-4.6 3.5 4.4 9.1 7.2 15.4 7.2 8.6 0 15.9-5.3 18.4-12.7h46.9c1.6 6 4.4 10 7.6 10.1 2.3.1 4.5-1.7 6.3-4.9.2.1.5.2.7.3 11.9 5.3 26.1.4 31.6-11 3-6.1 2.9-12.8.2-18.6 4-1.6 6.5-3.7 6.6-6.1zm-40.6-7.6c0 7.8-6.6 14-14.8 14H55.4c-8.2 0-14.8-6.3-14.8-14V50.2c0-7.8 6.6-14 14.8-14h257.7c8.2 0 14.8 6.3 14.8 14v340.4z"/>
  <path fill="#442512"
        d="M368.6 398.2c.2-3.8-5.8-7.3-14.6-9.2v-88.4c7.5-2.5 12.8-9.3 12.8-17.3 0-5.9-3-11.2-7.6-14.6 3-12.3 4.9-29.3 4.9-48.2 0-18.6-1.8-35.4-4.8-47.7 4.6-3.4 7.5-8.6 7.5-14.5 0-8-5.3-14.7-12.8-17.3V54.4c8-1.3 13.4-4.3 13.6-7.8.1-2.2-1.8-4.3-5.1-6 .1-.2.2-.4.4-.7 3.9-7.9 2.5-16.9-2.8-23.4-2.9 3.4-5.8 6.8-8.8 10-7.5 8.1-15.3 15.9-23.3 23.6v340.5c0 7.8-6.6 14-14.8 14H55.4c-4 0-7.7-1.5-10.4-4-5.5 6.2-11.1 12.4-16.7 18.4-4.1 4.5-8.3 8.9-12.5 13.3 6.6 3.9 15.1 4.7 22.7 1.4.2-.1.5-.2.7-.3 1.8 3.1 4 5 6.3 4.9 3.3-.1 6.1-4.1 7.6-10.1H100c2.5 7.3 9.8 12.7 18.4 12.7 6.2 0 11.7-2.8 15.3-7.1 12.9 2.8 30.7 4.5 50.3 4.5 19.8 0 37.8-1.8 50.8-4.6 3.5 4.4 9.1 7.2 15.4 7.2 8.6 0 15.9-5.3 18.4-12.7h46.9c1.6 6 4.4 10 7.6 10.1 2.3.1 4.5-1.7 6.3-4.9.2.1.5.2.7.3 11.9 5.3 26.1.4 31.6-11 3-6.1 2.9-12.8.2-18.6 4.1-1.4 6.6-3.5 6.7-5.9z"/>
</g>
  </svg>
