<svg viewBox="0 0 470 546" xmlns="http://www.w3.org/2000/svg">
  <path fill="#DAD484" d="M17.6 20.5h434.8v505H17.6z"/>
  <path fill="#AC6C29"
        d="M452.4 525.5V397.1c-7.3-5.6-16.4-10.2-27.8-13.8-4.3-1.3-8.7-2.5-13.2-3.6l-5.3-40.4 11.5.8c-5.3-4.3-7.8-22.4-7.8-22.4-12 3.2-51.1-12.8-51.1-12.8-9.6 12.9-34.4 28.8-34.4 28.8l15.4 1.1-2.1 18.9c-4.8.2-9.6 1.1-14.3 2.2-1.2-2.1-2.8-3.9-4.8-5-1.6 1.6-1.9 3.2-2.5 4.8-.1.7-.2 1.4-.2 2.1-3.8 1-7.6 2.1-11.4 3-1.2-2.5-2.8-4.6-4.9-5.9-3 1-1 2-2 3.9 0 1.1.1 2.2.1 3.3-3 .5-6.1.8-9.2.8l-2 2-3 6c3 0 8.4-.5 14.9-1.4.4 3.2 1 6.5 1.7 9.6-22.2 4.1-44 10.4-64.5 18.2-7.3-4.4-15.2-8.3-23.6-11.7.3-2.3-1.8-4.7-7.5-6.7-3-9-5-22-18-14 0-12-25-10-24 2-5.8-1.3-7.4.7-7.4 3.5-3.6-.6-7.1-1.1-10.6-1.5-6.4-.9-12.5-1.5-18.4-1.8-.6-11.7 9.9-16.2 16.1-24.5 6.8 8.9 30.7 1.1 37.5-4.7-11-2.5-20.6-2.2-30.6-1.4-6.1-1.5-15-1.2-21.4 2.4 3.6 1.8 8 3.6 12.5 3.2-8.3 3.9-10.8 11.5-19.8.8-1.8-2.2-2.9-4.1-3.5-5.9 1-.2 2-.4 3-.7v-3c-1.4-.7-2.3-.4-3.5-.5.2-2.2 1-4.3 1.9-6.5 2.7-.8 5-1.9 6-3.3 14.5 4.7 38.1 3.5 52.1-2.1-12-5-29-5-40-8 1-2 2-6 3-8-5 0-11-1-16 0-2-7-16-5-21 2l2-4c-16-2-27 10-6 11-12 1-25 1-35 7 8.3 6.2 17 3.9 25.9 1.2 2.8 2.9 6.6 6.5 10.5 10.5-3.4.4-6.5 1.2-8.9 2.8 3.7 3.2 9.2 3.8 14.8 3.4 8.1 9 15.2 19.2 14.1 28.1-13.5-.3-25.8.7-37.9 2.2.3-2 .5-3.8.5-5.2-2 2-5 3-7 5 1-3-1-7 0-10-3 3-8 6-10 9 0-4-3-9-3-13-1 5-4 9-4 14-2-4-4-9-5-13v15c-1.6-2.1-2.9-4-3.9-5.8.9 2.5 1.7 5.4 2.5 8.2-10.8 1.5-22.1 2.8-34.5 3.5v148.9h435zM325.9 363.9c4.2-1.1 8-2.3 11-3.6l-1.6 14.1c-3.5.3-7.1.6-10.6 1 1.3-3.5 1.7-7.6 1.2-11.5zm-9.6 2.3c.5 3.4 1.4 6.8 2.7 9.8-3.9.5-7.8 1.1-11.8 1.7.3-3.2.1-6.5-.4-9.7 3.1-.5 6.3-1.1 9.5-1.8zm-206.1-34c-2.1 0-4.3-.1-6.4 0-4.5-2.7-6.7-8.4-10.5-11.4 2.8-.8 5.6-1.6 8.4-2-4.2 6.6 3.4 8.8 11 8.4-1.1 1.6-1.9 3.3-2.5 5z"/>
  <path fill="#E0F1F0" d="M29.1 30.8h411.3v142.3H29.1z"/>
  <path fill="#6E4A20" d="M0 0v546h470V0H0zm435.9 506.3H34.2V39.7h401.7v466.6z"/>
  <path fill="#805A25" d="M0 0v546h470V0H0zm452.4 525.5H17.6v-505h434.8v505z"/>
  <path fill="#805A25" d="M17.6 161.5h434.8v26.1H17.6z"/>
  <path fill="#6E4A20" d="M17.6 173h434.8v15H17.6z"/>
  <path fill="#FFF"
        d="M204.5 161.6l-76.7-.5L247.7 40.2l76.7.6zM364.8 246.6c-1-5.2-5.6-9.2-11.2-9.2-.6 0-1.1.1-1.6.1v-.3c0-12.9-10.5-23.4-23.4-23.4-10.1 0-18.8 6.4-22 15.5-1.4-.3-2.9-.5-4.4-.5-7.7 0-14.4 4.3-17.7 10.7-2.3-1.4-4.9-2.3-7.8-2.3-6.2 0-11.5 3.9-13.5 9.4h101.6zM233.4 275.5c-1.4-7.2-7.8-12.7-15.4-12.7-.8 0-1.5.1-2.2.2v-.5c0-17.9-14.5-32.3-32.3-32.3-14 0-26 8.9-30.4 21.4-1.9-.4-4-.7-6.1-.7-10.6 0-19.8 6-24.5 14.8-3.1-2-6.8-3.2-10.8-3.2-8.6 0-15.9 5.4-18.7 12.9h140.4z"/>
</svg>
