<svg data-name="Capa 1" xmlns="http://www.w3.org/2000/svg" viewBox="0 0 134.48 128.26"><defs><clipPath id="2_svg__a"><path d="M134.52 64a63.68 63.68 0 0 0-11.68-36.83 64 64 0 0 0-89.15 89.16A64 64 0 0 0 134.52 64z" fill="none"/></clipPath><clipPath id="2_svg__b"><path d="M98.32 212.92a21.33 21.33 0 0 1-19.75-29.37c6.64-16.33 12.9-33.8 13.75-50.83.42-8.64-.91-11.5-1.15-11.94-.42-.45-1.26-1.19-3.64-1.1a15.73 15.73 0 0 0-10.92 5.6 21.33 21.33 0 0 1-34-25.72A58.29 58.29 0 0 1 86 77c14.73-.55 28 5 37.36 15.69 8.73 9.94 12.53 23.71 11.61 42.11-1.16 23.39-8.78 45-16.84 64.78a21.33 21.33 0 0 1-19.81 13.34zm-7.19-92.2z" fill="none"/></clipPath></defs><path d="M86 15.5a63.69 63.69 0 0 1 36.82 11.67 64 64 0 1 0-89.15 89.16A64 64 0 0 1 86 15.5z" fill="#110a0a"/><path d="M134.52 64a63.68 63.68 0 0 0-11.68-36.83 64 64 0 0 0-89.15 89.16A64 64 0 0 0 134.52 64z" fill="#3d2828"/><g clip-path="url(#2_svg__a)"><path d="M98.32 212.92a21.33 21.33 0 0 1-19.75-29.37c6.64-16.33 12.9-33.8 13.75-50.83.42-8.64-.91-11.5-1.15-11.94-.42-.45-1.26-1.19-3.64-1.1a15.73 15.73 0 0 0-10.92 5.6 21.33 21.33 0 0 1-34-25.72A58.29 58.29 0 0 1 86 77c14.73-.55 28 5 37.36 15.69 8.73 9.94 12.53 23.71 11.61 42.11-1.16 23.39-8.78 45-16.84 64.78a21.33 21.33 0 0 1-19.81 13.34zm-7.19-92.2z" fill="#81ce1d"/><g clip-path="url(#2_svg__b)"><path fill="#dd0e76" d="M98.33 75.93l-11.67 45.98 4.47 6.57 43.93-25.49-14.83-19.77-21.9-7.29z"/><path d="M42.94 134.88s31.25-32 50.9-23-7.18 102.4-7.18 102.4z" opacity=".2"/></g><circle cx="44.99" cy="95.02" r="14.6" fill="#fff"/><path d="M43.32 84.92a9 9 0 0 0-8.81 7.36l8.34 2.08-7.3 4a9 9 0 1 0 7.77-13.43z"/><circle cx="65.21" cy="95.02" r="14.6" fill="#fff"/><path d="M63.54 84.92a9 9 0 0 0-8.82 7.36l8.34 2.08-7.3 4a9 9 0 1 0 7.78-13.43z"/><path d="M48.36 113.54a7 7 0 0 0 11.23 0" fill="none" stroke="#000" stroke-linecap="round" stroke-miterlimit="10" stroke-width="2.807"/></g></svg>