<svg data-name="Capa 1" xmlns="http://www.w3.org/2000/svg" viewBox="0 0 134.48 128.26"><defs><clipPath id="3_svg__a"><path d="M134.48 62c0 36.45-29.1 66-65 66S.3 88.25-3.52 52c-4-38 17.1-83 53-83s85 56.55 85 93z" fill="none"/></clipPath><clipPath id="3_svg__b"><path d="M68.29 139.92a21.33 21.33 0 0 1-19.76-29.37c6.64-16.33 12.9-33.8 13.75-50.83.43-8.64-.91-11.5-1.15-11.94-.41-.45-1.26-1.19-3.64-1.1a15.72 15.72 0 0 0-10.91 5.6 21.33 21.33 0 1 1-34-25.72A58.27 58.27 0 0 1 55.92 4c14.73-.55 28 5 37.37 15.69 8.73 9.94 12.52 23.71 11.61 42.11-1.17 23.39-8.78 45-16.84 64.78a21.35 21.35 0 0 1-19.77 13.34zm-7.19-92.2z" fill="none"/></clipPath></defs><path d="M86 15.5a63.72 63.72 0 0 1 36.83 11.67 64 64 0 1 0-89.15 89.16A64 64 0 0 1 86 15.5z" fill="#110a0a"/><path d="M134.48 64a63.67 63.67 0 0 0-11.67-36.83 64 64 0 0 0-89.15 89.16A64 64 0 0 0 134.48 64z" fill="#3d2828"/><g clip-path="url(#3_svg__a)"><path d="M68.29 139.92a21.33 21.33 0 0 1-19.76-29.37c6.64-16.33 12.9-33.8 13.75-50.83.43-8.64-.91-11.5-1.15-11.94-.41-.45-1.26-1.19-3.64-1.1a15.72 15.72 0 0 0-10.91 5.6 21.33 21.33 0 1 1-34-25.72A58.27 58.27 0 0 1 55.92 4c14.73-.55 28 5 37.37 15.69 8.73 9.94 12.52 23.71 11.61 42.11-1.17 23.39-8.78 45-16.84 64.78a21.35 21.35 0 0 1-19.77 13.34zm-7.19-92.2z" fill="#81ce1d"/><g clip-path="url(#3_svg__b)"><path fill="#dd0e76" d="M68.3 2.93L56.63 48.91l4.47 6.57 43.93-25.49-14.84-19.77L68.3 2.93zM59.31 66.37l48.85-4.49-3.93 29.75L57.07 77.6l2.24-11.23zM48.09 100.62l47.72 14.59-8.98 21.9-42.9-18.25 4.16-18.24z"/><path d="M12.9 61.88s31.26-32 50.91-23-7.18 102.4-7.18 102.4z" opacity=".2"/></g><circle cx="14.96" cy="22.02" r="14.6" fill="#fff"/><path d="M13.29 11.92a9 9 0 0 0-8.81 7.36l8.34 2.08-7.31 4a9 9 0 1 0 7.78-13.43z"/><circle cx="35.17" cy="22.02" r="14.6" fill="#fff"/><path d="M33.5 11.92a9 9 0 0 0-8.81 7.36L33 21.36l-7.3 4a9 9 0 1 0 7.8-13.44z"/><path d="M18.33 40.54a6.6 6.6 0 0 0 5.61 2.81 6.63 6.63 0 0 0 5.62-2.81" fill="none" stroke="#000" stroke-linecap="round" stroke-miterlimit="10" stroke-width="2.807"/></g></svg>