<svg data-name="Capa 1" xmlns="http://www.w3.org/2000/svg" viewBox="0 0 361 305"><path d="M138.58 211.52c.13-.77-47.56-10.94-33.19-44.88a64.48 64.48 0 0 1 47.19-38.42" fill="#751517"/><path d="M224 129.47c-4.31-9 15.1-12.94 21.22-11.86-2.88 2.15-6.12 4-8.63 6.83 6.47-1.08 14.74 1.08 16.18 8.27-4.68-1.08-9 6.83-13.67 7.91-6.11 1.44-14.38-3.24-15.46-9.35M148.53 129.47c4.32-9-15.1-12.94-21.21-11.86 2.87 2.15 6.11 4 8.63 6.83-6.48-1.08-14.75 1.08-16.18 8.27 4.67-1.08 9 6.83 13.66 7.91 6.11 1.44 14.38-3.24 15.46-9.35"/><circle cx="135.16" cy="149.07" r="13.84" fill="#fcc184"/><circle cx="135.16" cy="149.07" r="13.84" fill="#9e5431"/><path d="M140.18 142.36a10.73 10.73 0 0 0-1.51-.12 10.34 10.34 0 1 0 0 20.67 10.18 10.18 0 0 0 3.41-.59c-3.08-6.07-3.25-13.04-1.9-19.96z" fill="#733e1e"/><path d="M234.27 221.79c12.17 0 22 7 22 15.55s-9.88 15.55-22 15.55z" fill="#9e5431"/><path d="M230.74 169.28s24 27.45 27.57 66.82H230" fill="#751517"/><path fill="#4c4c4d" d="M209.89 259.83h-71.77l3.2 33.44h43.33l-.09-18.88h4.4l-.09 18.88h43.09l3.21-33.44h-25.28z"/><path fill="#3d3d3d" d="M214.31 259.83v33.44h17.73l3.21-33.44h-20.94z"/><path fill="#911a1d" d="M236.88 270.08H136.39l4.27-105.17h91.95l4.27 105.17z"/><circle cx="187.21" cy="146.07" r="44.49" fill="#9e5431"/><circle cx="239.26" cy="149.07" r="13.84" fill="#9e5431"/><path d="M204.59 105.11a44.49 44.49 0 0 1-46.5 74.59 44.49 44.49 0 1 0 46.5-74.59zM234.59 142.36a10.87 10.87 0 0 1 1.52-.12 10.34 10.34 0 0 1 0 20.67 10.2 10.2 0 0 1-3.42-.59c3.13-6.07 3.25-13.04 1.9-19.96z" fill="#733e1e"/><path d="M191.59 47c-.84-4.66-3.08-8-5.71-8s-4.89 3.35-5.73 8l-39.57 91.66s46.56-25.08 92.77 0z" fill="#c52026"/><path d="M213.65 164.91h18.94l4.26 105.17h-22z" fill="#751517"/><path d="M203 221.54h-32.9a5.4 5.4 0 0 1-5.4-5.4V187a5.39 5.39 0 0 1 5.4-5.39H203a5.39 5.39 0 0 1 5.39 5.39v29.12a5.39 5.39 0 0 1-5.39 5.42z" fill="none" stroke="#551314" stroke-miterlimit="10" stroke-width="3.058"/><path d="M232.92 137.47l-1.82-.09c1.47 7.73 5.6 43.29-43.78 39.75-49.43 3.54-45.25-32.09-43.78-39.77l-2.23.11s-29.18 48.27 45.5 78.3v.23a1.51 1.51 0 0 0 .31-.09l.23.09v-.18c74.76-30.08 45.57-78.35 45.57-78.35z"/><path d="M209.15 186.48a8.63 8.63 0 0 1-8.62 8.63h-28.77a8.64 8.64 0 0 1-8.63-8.63 8.63 8.63 0 0 1 8.63-8.63h28.77a8.62 8.62 0 0 1 8.62 8.63z" fill="#fff"/><path fill="none" stroke="#000" stroke-miterlimit="10" stroke-width=".539" d="M163.35 178.12h45.84v17.26h-45.84zM163.08 186.75h45.84M200.02 178.39v16.72M190.85 178.39v16.72M181.68 178.39v16.72M172.51 178.39v16.72"/><path d="M203.4 146.52L186.27 180a8.94 8.94 0 0 1-.06 1 8.34 8.34 0 0 1-.11-1.11l-18.08-33s-15.4.33-33.65 30.93c0 0 17.92 15.29 51.44 5.57h0a2.7 2.7 0 0 1 .08-.39 6.28 6.28 0 0 1 .31-.86 6.17 6.17 0 0 1 .36.93c0 .13.07.26.1.39h0c33.78 8.76 51.25-7 51.25-7-19.1-30.05-34.51-29.94-34.51-29.94z" stroke="#484748" stroke-miterlimit="10" stroke-width=".539"/><path d="M196.31 127.87a91.71 91.71 0 0 1 37 10.86L191.59 47c-.84-4.66-3.08-8-5.71-8a4.3 4.3 0 0 0-3.29 2z" fill="#991c20"/><path fill="#843c1c" d="M235.14 232.32h-97.01l-1.29 16.72h99.59l-1.29-16.72z"/><path fill="#6e3318" d="M206.76 249.04h30.02l-1.29-16.72h-28.73v16.72z"/><path d="M203 251.17a5.42 5.42 0 0 1-5.43 5.42h-22.09a5.39 5.39 0 0 1-5.39-5.39v-20.49a5.39 5.39 0 0 1 5.39-5.4h22.11a5.4 5.4 0 0 1 5.4 5.4v20.46z" fill="#bb882c"/><path d="M175.48 256.59h3L203 232.11v-1.4a5.4 5.4 0 0 0-5.4-5.4H192l-21.95 22v3.93a5.39 5.39 0 0 0 5.43 5.35z" fill="#f9b547"/><path d="M197 256.59h.64a5.39 5.39 0 0 0 5.4-5.39v-.64zM173.2 225.9a5.31 5.31 0 0 0-2.32 2.32z" fill="#bb882c"/><path d="M193.23 250.12h-13.38a3.28 3.28 0 0 1-3.29-3.28v-12.31a3.29 3.29 0 0 1 3.28-3.29h13.39a3.3 3.3 0 0 1 3.29 3.29v12.31a3.29 3.29 0 0 1-3.29 3.28z" fill="#843c1c"/><circle cx="145.95" cy="240.85" r="2.34" fill="#542815"/><circle cx="162.13" cy="240.85" r="2.34" fill="#542815"/><path d="M192.74 281.94H230a5.4 5.4 0 0 1 5.4 5.4v11.32a5.4 5.4 0 0 1-5.4 5.4h-42.6v-16.72a5.39 5.39 0 0 1 5.34-5.4z" fill="#6e3318"/><path d="M192.74 281.94h13.48v22.12h-18.87v-16.72a5.39 5.39 0 0 1 5.39-5.4z" fill="#562915"/><path d="M217.13 289.29c15.61 0 28.27 6.49 28.27 14.5h-56.54c0-8.01 12.66-14.5 28.27-14.5z" fill="#6e3318" stroke="#471c10" stroke-miterlimit="10" stroke-width=".539"/><path d="M180.87 281.94h-37.21a5.39 5.39 0 0 0-5.39 5.4v11.32a5.39 5.39 0 0 0 5.39 5.4h42.61v-16.72a5.4 5.4 0 0 0-5.4-5.4z" fill="#6e3318"/><path d="M180.87 281.94h-13.48v22.12h18.88v-16.72a5.4 5.4 0 0 0-5.4-5.4z" fill="#562915"/><path d="M156.56 289.29c-15.61 0-28.27 6.49-28.27 14.5h56.54c0-8.01-12.65-14.5-28.27-14.5z" fill="#6e3318" stroke="#471c10" stroke-miterlimit="10" stroke-width=".539"/><path d="M216.28 136.22c5.07 0 9.26 3.34 10 7.7a8.45 8.45 0 0 0 .11-1.34c0-5-4.52-9-10.09-9s-10.08 4.05-10.08 9a8.45 8.45 0 0 0 .11 1.34c.67-4.36 4.89-7.7 9.95-7.7zM159.11 136.22c5.06 0 9.25 3.34 10 7.7a8.45 8.45 0 0 0 .11-1.34c0-5-4.51-9-10.08-9s-10.08 4.05-10.08 9a8.45 8.45 0 0 0 .11 1.34c.69-4.36 4.88-7.7 9.94-7.7z"/><ellipse cx="186.45" cy="159.77" rx="29.76" ry="22.92" fill="#d85b4a"/><path d="M203.49 141a19.33 19.33 0 0 1 5 12.75c0 12.66-13.33 22.93-29.77 22.93a36 36 0 0 1-17-4.14c5.34 6.13 14.42 10.17 24.73 10.17 16.44 0 29.76-10.26 29.76-22.92 0-7.79-5.03-14.67-12.72-18.79z" fill="#a9473a"/><ellipse cx="174.4" cy="149.84" rx="9.48" ry="5.88" fill="#f58677"/></svg>