<svg data-name="Capa 1" xmlns="http://www.w3.org/2000/svg" viewBox="0 0 361 305"><path d="M218.23 130.44c-4.31-9 15.1-13 21.22-11.87-2.88 2.16-6.12 4-8.63 6.84 6.47-1.08 14.74 1.07 16.18 8.27-4.68-1.08-9 6.83-13.67 7.91-6.11 1.43-14.38-3.24-15.46-9.35M142.72 130.44c4.32-9-15.1-13-21.21-11.87 2.88 2.16 6.11 4 8.63 6.84-6.47-1.08-14.74 1.07-16.18 8.27 4.67-1.08 9 6.83 13.66 7.91 6.11 1.43 14.38-3.24 15.46-9.35"/><circle cx="129.35" cy="150.04" r="13.84" fill="#fcc184"/><circle cx="129.35" cy="150.04" r="13.84" fill="#9e5431"/><path d="M134.37 143.33a9.42 9.42 0 0 0-1.51-.13 10.34 10.34 0 1 0 3.41 20.09c-3.13-6.08-3.27-13.04-1.9-19.96z" fill="#733e1e"/><path d="M228.37 222.76c12.18 0 22 7 22 15.55s-9.87 15.55-22 15.55z" fill="#9e5431"/><path d="M224.94 170.75s24 27.45 27.56 66.82h-28.44" fill="#751517"/><path d="M132.37 222.76c-12.17 0-22.05 7-22.05 15.55s9.88 15.55 22.05 15.55z" fill="#9e5431"/><path d="M136.06 170.75s-24 27.45-27.56 66.82h28.19" fill="#751517"/><path fill="#4c4c4d" d="M204 260.76h-71.78l3.21 33.44h43.32l-.08-18.88h4.4l-.09 18.88h43.08l3.22-33.44H204z"/><path fill="#3d3d3d" d="M208.42 260.76v33.44h17.72l3.21-33.44h-20.93z"/><path fill="#911a1d" d="M231.07 271.01H130.59l4.26-105.17h91.96l4.26 105.17z"/><circle cx="181.4" cy="147.04" r="44.49" fill="#9e5431"/><circle cx="233.46" cy="150.04" r="13.84" fill="#9e5431"/><path d="M198.79 106.07a44.5 44.5 0 0 1-46.51 74.6 44.5 44.5 0 1 0 46.51-74.6zM228.78 143.33a9.54 9.54 0 0 1 1.52-.13 10.34 10.34 0 0 1 0 20.68 10.45 10.45 0 0 1-3.42-.59c3.12-6.08 3.26-13.04 1.9-19.96z" fill="#733e1e"/><path d="M185.79 48c-.84-4.66-3.09-8-5.72-8s-4.89 3.35-5.72 8l-39.58 91.7s46.57-25.08 92.77 0z" fill="#c52026"/><ellipse cx="204.69" cy="139.7" rx="5.39" ry="11.24"/><ellipse cx="157.22" cy="139.7" rx="5.39" ry="11.24"/><ellipse cx="206.57" cy="136.89" rx="1.81" ry="3.97" fill="#fff"/><ellipse cx="159.64" cy="136.89" rx="1.81" ry="3.97" fill="#fff"/><path d="M207.76 165.84h18.93L231 271h-22z" fill="#751517"/><path d="M197.09 223h-32.9a5.39 5.39 0 0 1-5.39-5.39v-29.12a5.39 5.39 0 0 1 5.39-5.39h32.9a5.39 5.39 0 0 1 5.4 5.39v29.13a5.4 5.4 0 0 1-5.4 5.38z" fill="none" stroke="#551314" stroke-miterlimit="10" stroke-width="3.058"/><path d="M227.11 138.44l-1.82-.09c1.47 7.72 5.6 43.29-43.78 39.75-49.43 3.54-45.25-32.09-43.78-39.77l-2.22.11s-29.19 48.26 45.4 78.3v.17a1.32 1.32 0 0 0 .4-.08c.07 0 .14 0 .14.08v-.17c74.85-30.04 45.66-78.3 45.66-78.3z"/><path d="M232 188.06c-10.22-34.12-25.08-38.2-25.08-38.2l-26.16 28.19-26.16-28.19s-14.86 4.08-25.08 38.2c0 0 21.1 10.46 51.24-7.15 30.14 17.61 51.24 7.15 51.24 7.15z" stroke="#484748" stroke-miterlimit="10" stroke-width=".539"/><ellipse cx="180.64" cy="160.73" rx="29.76" ry="22.92" fill="#d85b4a"/><path d="M190.5 128.84a91.55 91.55 0 0 1 37 10.86L185.79 48c-.84-4.66-3.09-8-5.72-8a4.28 4.28 0 0 0-3.28 1.92z" fill="#991c20"/><path d="M197.69 142a19.35 19.35 0 0 1 5 12.75c0 12.66-13.33 22.92-29.76 22.92a36.06 36.06 0 0 1-17.05-4.13c5.34 6.13 14.43 10.16 24.73 10.16 16.44 0 29.76-10.26 29.76-22.92.03-7.78-5-14.69-12.68-18.78z" fill="#a9473a"/><ellipse cx="168.59" cy="150.81" rx="9.48" ry="5.88" fill="#f58677"/><path fill="#843c1c" d="M229.33 233.8h-97.01l-1.29 16.72h99.59l-1.29-16.72z"/><path fill="#6e3318" d="M200.87 250.52h30.02l-1.3-16.72h-28.72v16.72z"/><path d="M197.09 252.1a5.43 5.43 0 0 1-5.42 5.43h-22.08a5.4 5.4 0 0 1-5.4-5.4v-20.49a5.4 5.4 0 0 1 5.4-5.4h22.11a5.39 5.39 0 0 1 5.39 5.4v20.46z" fill="#bb882c"/><path d="M169.59 257.53h3l24.5-24.53v-1.4a5.39 5.39 0 0 0-5.39-5.4h-5.56l-21.95 22v3.93a5.4 5.4 0 0 0 5.4 5.4z" fill="#f9b547"/><path d="M191.06 257.53h.64a5.39 5.39 0 0 0 5.39-5.4v-.64zM167.39 226.87a5.39 5.39 0 0 0-2.32 2.31z" fill="#bb882c"/><path d="M187.33 251.05H174a3.29 3.29 0 0 1-3.29-3.28v-12.31a3.28 3.28 0 0 1 3.29-3.28h13.38a3.28 3.28 0 0 1 3.29 3.28v12.31a3.28 3.28 0 0 1-3.34 3.28z" fill="#843c1c"/><circle cx="140.14" cy="241.81" r="2.34" fill="#542815"/><circle cx="156.32" cy="241.81" r="2.34" fill="#542815"/><path d="M186.84 282.88h37.22a5.39 5.39 0 0 1 5.39 5.39v11.33a5.39 5.39 0 0 1-5.39 5.39h-42.61v-16.72a5.39 5.39 0 0 1 5.39-5.39z" fill="#6e3318"/><path d="M186.84 282.88h13.49V305h-18.88v-16.73a5.39 5.39 0 0 1 5.39-5.39z" fill="#562915"/><path d="M211.32 290.22c15.62 0 28.27 6.49 28.27 14.5h-56.54c0-8.01 12.66-14.5 28.27-14.5z" fill="#6e3318" stroke="#471c10" stroke-miterlimit="10" stroke-width=".539"/><path d="M175.52 282.88H138.3a5.39 5.39 0 0 0-5.39 5.39v11.33a5.39 5.39 0 0 0 5.39 5.4h42.61v-16.73a5.39 5.39 0 0 0-5.39-5.39z" fill="#6e3318"/><path d="M175.52 282.88H162V305h18.88v-16.73a5.39 5.39 0 0 0-5.36-5.39z" fill="#562915"/><path d="M150.76 290.22c-15.62 0-28.27 6.49-28.27 14.5H179c0-8.01-12.63-14.5-28.24-14.5z" fill="#6e3318" stroke="#471c10" stroke-miterlimit="10" stroke-width=".539"/></svg>